{
 "cells": [
  {
   "cell_type": "code",
   "execution_count": 2,
   "id": "0ab019e1",
   "metadata": {},
   "outputs": [
    {
     "name": "stdout",
     "output_type": "stream",
     "text": [
      "pygame 2.5.2 (SDL 2.28.3, Python 3.10.6)\n",
      "Hello from the pygame community. https://www.pygame.org/contribute.html\n"
     ]
    }
   ],
   "source": [
    "import pygame\n",
    "from mido import MidiFile, MidiTrack\n",
    "from midi2audio import FluidSynth"
   ]
  },
  {
   "cell_type": "code",
   "execution_count": 26,
   "id": "b46be997",
   "metadata": {},
   "outputs": [
    {
     "name": "stdout",
     "output_type": "stream",
     "text": [
      "Music file only_gtr_first_bar.mid loaded!\n"
     ]
    }
   ],
   "source": [
    "def play_music(music_file):\n",
    "    \"\"\"\n",
    "    stream music with mixer.music module in blocking manner\n",
    "    this will stream the sound from disk while playing\n",
    "    \"\"\"\n",
    "    clock = pygame.time.Clock()\n",
    "    try:\n",
    "        pygame.mixer.music.load(music_file)\n",
    "        print(\"Music file %s loaded!\" % music_file)\n",
    "    except pygame.error:\n",
    "        print(\"File %s not found! (%s)\" % (music_file, pygame.get_error()))\n",
    "        return\n",
    "    pygame.mixer.music.play()\n",
    "    while pygame.mixer.music.get_busy():\n",
    "        # check if playback has finished\n",
    "        clock.tick(30)\n",
    "# pick a midi music file you have ...\n",
    "# (if not in working folder use full path)\n",
    "\n",
    "midi_file = 'only_gtr_first_bar.mid'\n",
    "freq = 44100    # audio CD quality\n",
    "bitsize = -16   # unsigned 16 bit\n",
    "channels = 2    # 1 is mono, 2 is stereo\n",
    "buffer = 1024    # number of samples\n",
    "pygame.mixer.init(freq, bitsize, channels, buffer)\n",
    "\n",
    "# optional volume 0 to 1.0\n",
    "pygame.mixer.music.set_volume(0.8)\n",
    "try:\n",
    "    play_music(midi_file)\n",
    "except KeyboardInterrupt:\n",
    "    # if user hits Ctrl/C then exit\n",
    "    # (works only in console mode)\n",
    "    pygame.mixer.music.fadeout(1000)\n",
    "    pygame.mixer.music.stop()\n",
    "    raise SystemExit"
   ]
  },
  {
   "cell_type": "code",
   "execution_count": 3,
   "id": "a2df202b",
   "metadata": {},
   "outputs": [
    {
     "name": "stdout",
     "output_type": "stream",
     "text": [
      "<midi file 'raw_data/Metallica - Master Of Puppets.mid' type 1, 25 tracks, 35201 messages>\n"
     ]
    }
   ],
   "source": [
    "mid = MidiFile('raw_data/Metallica - Master Of Puppets.mid', clip=True)\n",
    "print(mid)"
   ]
  },
  {
   "cell_type": "code",
   "execution_count": 8,
   "id": "14c611a2",
   "metadata": {},
   "outputs": [
    {
     "name": "stdout",
     "output_type": "stream",
     "text": [
      "<midi file 'raw_data/Dirt.mid' type 1, 4 tracks, 5241 messages>\n"
     ]
    }
   ],
   "source": [
    "mid2 = MidiFile('raw_data/Dirt.mid', clip=True)\n",
    "print(mid2)"
   ]
  },
  {
   "cell_type": "code",
   "execution_count": 40,
   "id": "d6fe9a0f",
   "metadata": {},
   "outputs": [
    {
     "name": "stdout",
     "output_type": "stream",
     "text": [
      "<midi track '' 126 messages>\n",
      "<midi track 'Master of Puppets - Metallica' 4 messages>\n",
      "<midi track ' ' 28 messages>\n",
      "<midi track 'Vocals (left)' 937 messages>\n",
      "<midi track 'Vocals (right)' 937 messages>\n",
      "<midi track 'Guitar 1' 7191 messages>\n",
      "<midi track 'Guitar 2' 6661 messages>\n",
      "<midi track 'Guitar 3' 599 messages>\n",
      "<midi track 'Guitar Solo ' 2530 messages>\n",
      "<midi track 'Bass (left)' 4657 messages>\n",
      "<midi track 'Bass (right)' 4657 messages>\n",
      "<midi track 'Drums' 6824 messages>\n",
      "<midi track ' ' 4 messages>\n",
      "<midi track '=================' 4 messages>\n",
      "<midi track 'Sequenced: King Diamond  (?)' 4 messages>\n",
      "<midi track 'Arranged: GS, wave/synth' 4 messages>\n",
      "<midi track '' 3 messages>\n",
      "<midi track 'Song: Master of Puppets' 4 messages>\n",
      "<midi track 'Group: Metallica' 4 messages>\n",
      "<midi track 'Album: Master of the Puppets' 4 messages>\n",
      "<midi track 'Release: 1986' 4 messages>\n",
      "<midi track '' 3 messages>\n",
      "<midi track 'Rearranged: Mark Johnson' 4 messages>\n",
      "<midi track 'For: GS, Roland SCB-55' 4 messages>\n",
      "<midi track 'E-mail: 102334.12@compuserve.com' 4 messages>\n"
     ]
    }
   ],
   "source": [
    "for track in mid.tracks:\n",
    "    print(track)"
   ]
  },
  {
   "cell_type": "code",
   "execution_count": 47,
   "id": "cca31eec",
   "metadata": {},
   "outputs": [
    {
     "data": {
      "text/plain": [
       "<midi track 'Drums' 6824 messages>"
      ]
     },
     "execution_count": 47,
     "metadata": {},
     "output_type": "execute_result"
    }
   ],
   "source": [
    "only_drums = mid.tracks[11]\n",
    "only_drums"
   ]
  },
  {
   "cell_type": "code",
   "execution_count": 103,
   "id": "fc1c833d",
   "metadata": {},
   "outputs": [
    {
     "data": {
      "text/plain": [
       "<midi track 'Guitar 1' 6 messages>"
      ]
     },
     "execution_count": 103,
     "metadata": {},
     "output_type": "execute_result"
    }
   ],
   "source": [
    "mid.tracks[5][:6]"
   ]
  },
  {
   "cell_type": "code",
   "execution_count": 20,
   "id": "e71f14d0",
   "metadata": {},
   "outputs": [],
   "source": [
    "first_bar = MidiTrack()\n",
    "timing = 0\n",
    "for i in range(len(mid.tracks[5])):\n",
    "    if timing >= 1920:\n",
    "        break\n",
    "        \n",
    "    timing += mid.tracks[5][i].time\n",
    "    # print(timing)\n",
    "    first_bar.append(mid.tracks[5][i])\n",
    "\n",
    "first_bar.append(mid.tracks[5][-1])\n",
    "gtr_bar = MidiFile()\n",
    "\n",
    "gtr_bar.tracks.append(mid.tracks[0])\n",
    "#gtr_bar.tracks.append(mid.tracks[1])\n",
    "#gtr_bar.tracks.append(mid.tracks[2])\n",
    "gtr_bar.tracks.append(first_bar)\n",
    "gtr_bar.tracks.append(mid.tracks[12])\n",
    "gtr_bar.save('only_gtr_first_bar.mid')"
   ]
  },
  {
   "cell_type": "code",
   "execution_count": 128,
   "id": "06d693ca",
   "metadata": {},
   "outputs": [
    {
     "data": {
      "text/plain": [
       "<meta message set_tempo tempo=272727 time=0>"
      ]
     },
     "execution_count": 128,
     "metadata": {},
     "output_type": "execute_result"
    }
   ],
   "source": [
    "gtr_bar.tracks[0][3]"
   ]
  },
  {
   "cell_type": "code",
   "execution_count": 21,
   "id": "e4586ffc",
   "metadata": {},
   "outputs": [
    {
     "name": "stdout",
     "output_type": "stream",
     "text": [
      "<midi track '' 126 messages>\n",
      "<midi track 'Guitar 1' 56 messages>\n",
      "<midi track ' ' 4 messages>\n"
     ]
    }
   ],
   "source": [
    "for track in gtr_bar.tracks:\n",
    "    print(track)"
   ]
  },
  {
   "cell_type": "code",
   "execution_count": 25,
   "id": "bf860856",
   "metadata": {},
   "outputs": [
    {
     "name": "stdout",
     "output_type": "stream",
     "text": [
      "<meta message track_name name='Drums' time=0>\n",
      "<meta message midi_port port=0 time=0>\n",
      "program_change channel=9 program=0 time=0\n",
      "note_on channel=9 note=57 velocity=127 time=0\n",
      "note_on channel=9 note=35 velocity=127 time=0\n",
      "control_change channel=9 control=7 value=93 time=0\n",
      "control_change channel=9 control=10 value=76 time=0\n",
      "control_change channel=9 control=91 value=71 time=0\n",
      "note_on channel=9 note=57 velocity=0 time=120\n",
      "note_on channel=9 note=35 velocity=0 time=0\n",
      "control_change channel=9 control=93 value=70 time=360\n",
      "note_on channel=9 note=57 velocity=127 time=0\n",
      "note_on channel=9 note=35 velocity=127 time=0\n",
      "note_on channel=9 note=57 velocity=0 time=120\n",
      "note_on channel=9 note=35 velocity=0 time=0\n",
      "note_on channel=9 note=57 velocity=127 time=0\n",
      "note_on channel=9 note=35 velocity=127 time=0\n",
      "note_on channel=9 note=57 velocity=0 time=120\n",
      "note_on channel=9 note=35 velocity=0 time=0\n",
      "note_on channel=9 note=57 velocity=127 time=0\n",
      "note_on channel=9 note=35 velocity=127 time=0\n",
      "note_on channel=9 note=57 velocity=0 time=120\n",
      "note_on channel=9 note=35 velocity=0 time=0\n",
      "note_on channel=9 note=35 velocity=127 time=600\n",
      "note_on channel=9 note=57 velocity=127 time=0\n",
      "note_on channel=9 note=35 velocity=0 time=120\n",
      "note_on channel=9 note=57 velocity=0 time=0\n",
      "note_on channel=9 note=35 velocity=127 time=1680\n",
      "note_on channel=9 note=57 velocity=127 time=0\n",
      "note_on channel=9 note=35 velocity=0 time=120\n",
      "note_on channel=9 note=57 velocity=0 time=0\n",
      "note_on channel=9 note=35 velocity=127 time=0\n",
      "note_on channel=9 note=57 velocity=127 time=0\n",
      "note_on channel=9 note=35 velocity=0 time=120\n",
      "note_on channel=9 note=57 velocity=0 time=0\n",
      "note_on channel=9 note=57 velocity=127 time=360\n",
      "note_on channel=9 note=35 velocity=127 time=0\n",
      "note_on channel=9 note=57 velocity=0 time=120\n",
      "note_on channel=9 note=35 velocity=0 time=0\n",
      "note_on channel=9 note=35 velocity=127 time=0\n",
      "note_on channel=9 note=57 velocity=127 time=0\n",
      "note_on channel=9 note=35 velocity=0 time=120\n",
      "note_on channel=9 note=57 velocity=0 time=0\n",
      "note_on channel=9 note=35 velocity=127 time=0\n",
      "note_on channel=9 note=57 velocity=127 time=0\n",
      "note_on channel=9 note=35 velocity=0 time=120\n",
      "note_on channel=9 note=57 velocity=0 time=0\n",
      "note_on channel=9 note=35 velocity=127 time=960\n",
      "note_on channel=9 note=57 velocity=127 time=0\n",
      "note_on channel=9 note=35 velocity=0 time=120\n",
      "note_on channel=9 note=57 velocity=0 time=0\n",
      "note_on channel=9 note=35 velocity=127 time=0\n",
      "note_on channel=9 note=57 velocity=127 time=0\n",
      "note_on channel=9 note=35 velocity=0 time=120\n",
      "note_on channel=9 note=57 velocity=0 time=0\n",
      "note_on channel=9 note=35 velocity=127 time=360\n",
      "note_on channel=9 note=57 velocity=127 time=0\n",
      "note_on channel=9 note=35 velocity=0 time=120\n",
      "note_on channel=9 note=57 velocity=0 time=0\n",
      "note_on channel=9 note=57 velocity=127 time=0\n",
      "note_on channel=9 note=35 velocity=127 time=0\n",
      "note_on channel=9 note=57 velocity=0 time=120\n",
      "note_on channel=9 note=35 velocity=0 time=0\n",
      "note_on channel=9 note=35 velocity=127 time=0\n",
      "note_on channel=9 note=57 velocity=127 time=0\n",
      "note_on channel=9 note=35 velocity=0 time=120\n",
      "note_on channel=9 note=57 velocity=0 time=0\n",
      "note_on channel=9 note=35 velocity=127 time=960\n",
      "note_on channel=9 note=57 velocity=127 time=0\n",
      "note_on channel=9 note=35 velocity=0 time=120\n",
      "note_on channel=9 note=57 velocity=0 time=0\n",
      "note_on channel=9 note=35 velocity=127 time=0\n",
      "note_on channel=9 note=57 velocity=127 time=0\n",
      "note_on channel=9 note=35 velocity=0 time=120\n",
      "note_on channel=9 note=57 velocity=0 time=0\n",
      "note_on channel=9 note=35 velocity=127 time=360\n",
      "note_on channel=9 note=57 velocity=127 time=0\n",
      "note_on channel=9 note=35 velocity=0 time=120\n",
      "note_on channel=9 note=57 velocity=0 time=0\n",
      "note_on channel=9 note=35 velocity=127 time=0\n",
      "note_on channel=9 note=57 velocity=127 time=0\n",
      "note_on channel=9 note=35 velocity=0 time=120\n",
      "note_on channel=9 note=57 velocity=0 time=0\n",
      "note_on channel=9 note=35 velocity=127 time=0\n",
      "note_on channel=9 note=57 velocity=127 time=0\n",
      "note_on channel=9 note=35 velocity=0 time=120\n",
      "note_on channel=9 note=57 velocity=0 time=0\n",
      "note_on channel=9 note=38 velocity=127 time=0\n",
      "note_on channel=9 note=38 velocity=0 time=60\n",
      "note_on channel=9 note=38 velocity=127 time=0\n",
      "note_on channel=9 note=38 velocity=0 time=60\n",
      "note_on channel=9 note=38 velocity=127 time=0\n",
      "note_on channel=9 note=38 velocity=0 time=60\n",
      "note_on channel=9 note=38 velocity=127 time=0\n",
      "note_on channel=9 note=38 velocity=0 time=60\n",
      "note_on channel=9 note=38 velocity=127 time=0\n",
      "note_on channel=9 note=38 velocity=0 time=60\n",
      "note_on channel=9 note=38 velocity=127 time=0\n",
      "note_on channel=9 note=38 velocity=0 time=60\n",
      "note_on channel=9 note=38 velocity=127 time=0\n",
      "note_on channel=9 note=38 velocity=0 time=60\n",
      "note_on channel=9 note=38 velocity=127 time=0\n",
      "note_on channel=9 note=38 velocity=0 time=60\n",
      "note_on channel=9 note=38 velocity=127 time=0\n",
      "note_on channel=9 note=38 velocity=0 time=60\n",
      "note_on channel=9 note=38 velocity=127 time=0\n",
      "note_on channel=9 note=38 velocity=0 time=60\n",
      "note_on channel=9 note=38 velocity=127 time=0\n",
      "note_on channel=9 note=38 velocity=0 time=30\n",
      "note_on channel=9 note=38 velocity=127 time=0\n",
      "note_on channel=9 note=38 velocity=0 time=30\n",
      "note_on channel=9 note=38 velocity=127 time=0\n",
      "note_on channel=9 note=38 velocity=0 time=30\n",
      "note_on channel=9 note=38 velocity=127 time=0\n",
      "note_on channel=9 note=38 velocity=0 time=30\n",
      "note_on channel=9 note=38 velocity=127 time=0\n",
      "note_on channel=9 note=38 velocity=0 time=60\n",
      "note_on channel=9 note=38 velocity=127 time=0\n",
      "note_on channel=9 note=38 velocity=0 time=60\n",
      "note_on channel=9 note=38 velocity=127 time=0\n",
      "note_on channel=9 note=38 velocity=0 time=60\n",
      "note_on channel=9 note=38 velocity=127 time=0\n",
      "note_on channel=9 note=38 velocity=0 time=60\n",
      "note_on channel=9 note=38 velocity=127 time=0\n",
      "note_on channel=9 note=38 velocity=0 time=60\n",
      "note_on channel=9 note=38 velocity=127 time=0\n",
      "note_on channel=9 note=38 velocity=0 time=60\n",
      "note_on channel=9 note=35 velocity=127 time=0\n",
      "note_on channel=9 note=57 velocity=127 time=0\n",
      "note_on channel=9 note=35 velocity=0 time=120\n",
      "note_on channel=9 note=57 velocity=0 time=0\n",
      "note_on channel=9 note=35 velocity=127 time=1320\n",
      "note_on channel=9 note=57 velocity=127 time=0\n",
      "note_on channel=9 note=35 velocity=0 time=180\n",
      "note_on channel=9 note=57 velocity=0 time=0\n",
      "note_on channel=9 note=35 velocity=127 time=0\n",
      "note_on channel=9 note=57 velocity=127 time=0\n",
      "note_on channel=9 note=35 velocity=0 time=60\n",
      "note_on channel=9 note=57 velocity=0 time=0\n",
      "note_on channel=9 note=57 velocity=127 time=120\n",
      "note_on channel=9 note=35 velocity=127 time=0\n",
      "note_on channel=9 note=57 velocity=0 time=120\n",
      "note_on channel=9 note=35 velocity=0 time=0\n",
      "note_on channel=9 note=35 velocity=127 time=0\n",
      "note_on channel=9 note=57 velocity=127 time=0\n",
      "note_on channel=9 note=35 velocity=0 time=120\n",
      "note_on channel=9 note=57 velocity=0 time=0\n",
      "note_on channel=9 note=35 velocity=127 time=1320\n",
      "note_on channel=9 note=57 velocity=127 time=0\n",
      "note_on channel=9 note=35 velocity=0 time=180\n",
      "note_on channel=9 note=57 velocity=0 time=0\n",
      "note_on channel=9 note=35 velocity=127 time=0\n",
      "note_on channel=9 note=57 velocity=127 time=0\n",
      "note_on channel=9 note=35 velocity=0 time=60\n",
      "note_on channel=9 note=57 velocity=0 time=0\n",
      "note_on channel=9 note=35 velocity=127 time=120\n",
      "note_on channel=9 note=57 velocity=127 time=0\n",
      "note_on channel=9 note=35 velocity=0 time=120\n",
      "note_on channel=9 note=57 velocity=0 time=0\n",
      "note_on channel=9 note=35 velocity=127 time=0\n",
      "note_on channel=9 note=57 velocity=127 time=0\n",
      "note_on channel=9 note=35 velocity=0 time=120\n",
      "note_on channel=9 note=57 velocity=0 time=0\n",
      "note_on channel=9 note=38 velocity=127 time=0\n",
      "note_on channel=9 note=42 velocity=127 time=0\n",
      "note_on channel=9 note=38 velocity=0 time=120\n",
      "note_on channel=9 note=42 velocity=0 time=0\n",
      "note_on channel=9 note=42 velocity=127 time=0\n",
      "note_on channel=9 note=35 velocity=127 time=60\n",
      "note_on channel=9 note=42 velocity=0 time=60\n",
      "note_on channel=9 note=35 velocity=0 time=0\n",
      "note_on channel=9 note=38 velocity=127 time=0\n",
      "note_on channel=9 note=42 velocity=127 time=0\n",
      "note_on channel=9 note=35 velocity=127 time=60\n",
      "note_on channel=9 note=38 velocity=0 time=60\n",
      "note_on channel=9 note=42 velocity=0 time=0\n",
      "note_on channel=9 note=35 velocity=0 time=0\n",
      "note_on channel=9 note=42 velocity=127 time=0\n",
      "note_on channel=9 note=35 velocity=127 time=60\n",
      "note_on channel=9 note=42 velocity=0 time=60\n",
      "note_on channel=9 note=35 velocity=0 time=0\n",
      "note_on channel=9 note=38 velocity=127 time=0\n",
      "note_on channel=9 note=42 velocity=127 time=0\n",
      "note_on channel=9 note=35 velocity=127 time=60\n",
      "note_on channel=9 note=38 velocity=0 time=60\n",
      "note_on channel=9 note=42 velocity=0 time=0\n",
      "note_on channel=9 note=35 velocity=0 time=0\n",
      "note_on channel=9 note=42 velocity=127 time=0\n",
      "note_on channel=9 note=35 velocity=127 time=60\n",
      "note_on channel=9 note=42 velocity=0 time=60\n",
      "note_on channel=9 note=35 velocity=0 time=0\n",
      "note_on channel=9 note=42 velocity=127 time=0\n",
      "note_on channel=9 note=38 velocity=127 time=0\n",
      "note_on channel=9 note=42 velocity=0 time=120\n",
      "note_on channel=9 note=38 velocity=0 time=0\n",
      "note_on channel=9 note=35 velocity=127 time=0\n",
      "note_on channel=9 note=42 velocity=127 time=0\n",
      "note_on channel=9 note=35 velocity=0 time=60\n",
      "note_on channel=9 note=35 velocity=127 time=0\n",
      "note_on channel=9 note=42 velocity=0 time=60\n",
      "note_on channel=9 note=35 velocity=0 time=0\n",
      "note_on channel=9 note=38 velocity=127 time=0\n",
      "note_on channel=9 note=42 velocity=127 time=0\n",
      "note_on channel=9 note=35 velocity=127 time=60\n",
      "note_on channel=9 note=38 velocity=0 time=60\n",
      "note_on channel=9 note=42 velocity=0 time=0\n",
      "note_on channel=9 note=35 velocity=0 time=0\n",
      "note_on channel=9 note=42 velocity=127 time=0\n",
      "note_on channel=9 note=35 velocity=127 time=60\n",
      "note_on channel=9 note=42 velocity=0 time=60\n",
      "note_on channel=9 note=35 velocity=0 time=0\n",
      "note_on channel=9 note=38 velocity=127 time=0\n",
      "note_on channel=9 note=42 velocity=127 time=0\n",
      "note_on channel=9 note=35 velocity=127 time=60\n",
      "note_on channel=9 note=38 velocity=0 time=60\n",
      "note_on channel=9 note=42 velocity=0 time=0\n",
      "note_on channel=9 note=35 velocity=0 time=0\n",
      "note_on channel=9 note=42 velocity=127 time=0\n",
      "note_on channel=9 note=35 velocity=127 time=60\n",
      "note_on channel=9 note=42 velocity=0 time=60\n",
      "note_on channel=9 note=35 velocity=0 time=0\n",
      "note_on channel=9 note=42 velocity=127 time=0\n",
      "note_on channel=9 note=38 velocity=127 time=0\n",
      "note_on channel=9 note=42 velocity=0 time=120\n",
      "note_on channel=9 note=38 velocity=0 time=0\n",
      "note_on channel=9 note=42 velocity=127 time=0\n",
      "note_on channel=9 note=42 velocity=0 time=120\n",
      "note_on channel=9 note=38 velocity=127 time=0\n",
      "note_on channel=9 note=57 velocity=127 time=0\n",
      "note_on channel=9 note=38 velocity=0 time=120\n",
      "note_on channel=9 note=57 velocity=0 time=0\n",
      "note_on channel=9 note=35 velocity=127 time=0\n",
      "note_on channel=9 note=42 velocity=127 time=0\n",
      "note_on channel=9 note=35 velocity=0 time=60\n",
      "note_on channel=9 note=35 velocity=127 time=0\n",
      "note_on channel=9 note=42 velocity=0 time=60\n",
      "note_on channel=9 note=35 velocity=0 time=0\n",
      "note_on channel=9 note=38 velocity=127 time=0\n",
      "note_on channel=9 note=42 velocity=127 time=0\n",
      "note_on channel=9 note=35 velocity=127 time=60\n",
      "note_on channel=9 note=38 velocity=0 time=60\n",
      "note_on channel=9 note=42 velocity=0 time=0\n",
      "note_on channel=9 note=35 velocity=0 time=0\n",
      "note_on channel=9 note=42 velocity=127 time=0\n",
      "note_on channel=9 note=35 velocity=127 time=60\n",
      "note_on channel=9 note=42 velocity=0 time=60\n",
      "note_on channel=9 note=35 velocity=0 time=0\n",
      "note_on channel=9 note=42 velocity=127 time=0\n",
      "note_on channel=9 note=38 velocity=127 time=0\n",
      "note_on channel=9 note=35 velocity=127 time=60\n",
      "note_on channel=9 note=42 velocity=0 time=60\n",
      "note_on channel=9 note=38 velocity=0 time=0\n",
      "note_on channel=9 note=35 velocity=0 time=0\n",
      "note_on channel=9 note=42 velocity=127 time=0\n",
      "note_on channel=9 note=35 velocity=127 time=60\n",
      "note_on channel=9 note=42 velocity=0 time=60\n",
      "note_on channel=9 note=35 velocity=0 time=0\n",
      "note_on channel=9 note=38 velocity=127 time=0\n",
      "note_on channel=9 note=42 velocity=127 time=0\n",
      "note_on channel=9 note=38 velocity=0 time=120\n",
      "note_on channel=9 note=42 velocity=0 time=0\n",
      "note_on channel=9 note=42 velocity=127 time=0\n",
      "note_on channel=9 note=42 velocity=0 time=60\n",
      "note_on channel=9 note=38 velocity=127 time=0\n",
      "note_on channel=9 note=38 velocity=0 time=60\n",
      "note_on channel=9 note=38 velocity=127 time=0\n",
      "note_on channel=9 note=38 velocity=0 time=60\n",
      "note_on channel=9 note=38 velocity=127 time=0\n",
      "note_on channel=9 note=38 velocity=0 time=60\n",
      "note_on channel=9 note=57 velocity=127 time=0\n",
      "note_on channel=9 note=35 velocity=127 time=0\n",
      "note_on channel=9 note=57 velocity=0 time=120\n",
      "note_on channel=9 note=35 velocity=0 time=0\n",
      "note_on channel=9 note=38 velocity=127 time=0\n",
      "note_on channel=9 note=42 velocity=127 time=0\n",
      "note_on channel=9 note=38 velocity=0 time=120\n",
      "note_on channel=9 note=42 velocity=0 time=0\n",
      "note_on channel=9 note=42 velocity=127 time=0\n",
      "note_on channel=9 note=35 velocity=127 time=0\n",
      "note_on channel=9 note=42 velocity=0 time=120\n",
      "note_on channel=9 note=35 velocity=0 time=0\n",
      "note_on channel=9 note=42 velocity=127 time=0\n",
      "note_on channel=9 note=38 velocity=127 time=0\n",
      "note_on channel=9 note=42 velocity=0 time=120\n",
      "note_on channel=9 note=38 velocity=0 time=0\n",
      "note_on channel=9 note=57 velocity=127 time=0\n",
      "note_on channel=9 note=35 velocity=127 time=0\n",
      "note_on channel=9 note=57 velocity=0 time=180\n",
      "note_on channel=9 note=35 velocity=0 time=0\n",
      "note_on channel=9 note=57 velocity=127 time=0\n",
      "note_on channel=9 note=35 velocity=127 time=0\n",
      "note_on channel=9 note=57 velocity=0 time=60\n",
      "note_on channel=9 note=35 velocity=0 time=0\n",
      "note_on channel=9 note=57 velocity=127 time=120\n",
      "note_on channel=9 note=35 velocity=127 time=0\n",
      "note_on channel=9 note=57 velocity=0 time=120\n",
      "note_on channel=9 note=35 velocity=0 time=0\n",
      "note_on channel=9 note=57 velocity=127 time=0\n",
      "note_on channel=9 note=35 velocity=127 time=0\n",
      "note_on channel=9 note=57 velocity=0 time=120\n",
      "note_on channel=9 note=35 velocity=0 time=0\n",
      "note_on channel=9 note=38 velocity=127 time=0\n",
      "note_on channel=9 note=42 velocity=127 time=0\n",
      "note_on channel=9 note=38 velocity=0 time=120\n",
      "note_on channel=9 note=42 velocity=0 time=0\n",
      "note_on channel=9 note=42 velocity=127 time=0\n",
      "note_on channel=9 note=35 velocity=127 time=60\n",
      "note_on channel=9 note=42 velocity=0 time=60\n",
      "note_on channel=9 note=35 velocity=0 time=0\n",
      "note_on channel=9 note=38 velocity=127 time=0\n",
      "note_on channel=9 note=42 velocity=127 time=0\n",
      "note_on channel=9 note=35 velocity=127 time=60\n",
      "note_on channel=9 note=38 velocity=0 time=60\n",
      "note_on channel=9 note=42 velocity=0 time=0\n",
      "note_on channel=9 note=35 velocity=0 time=0\n",
      "note_on channel=9 note=42 velocity=127 time=0\n",
      "note_on channel=9 note=35 velocity=127 time=60\n",
      "note_on channel=9 note=42 velocity=0 time=60\n",
      "note_on channel=9 note=35 velocity=0 time=0\n",
      "note_on channel=9 note=38 velocity=127 time=0\n",
      "note_on channel=9 note=42 velocity=127 time=0\n",
      "note_on channel=9 note=35 velocity=127 time=60\n",
      "note_on channel=9 note=38 velocity=0 time=60\n",
      "note_on channel=9 note=42 velocity=0 time=0\n",
      "note_on channel=9 note=35 velocity=0 time=0\n",
      "note_on channel=9 note=42 velocity=127 time=0\n",
      "note_on channel=9 note=35 velocity=127 time=60\n",
      "note_on channel=9 note=42 velocity=0 time=60\n",
      "note_on channel=9 note=35 velocity=0 time=0\n",
      "note_on channel=9 note=38 velocity=127 time=0\n",
      "note_on channel=9 note=42 velocity=127 time=0\n",
      "note_on channel=9 note=38 velocity=0 time=120\n",
      "note_on channel=9 note=42 velocity=0 time=0\n",
      "note_on channel=9 note=35 velocity=127 time=0\n",
      "note_on channel=9 note=42 velocity=127 time=0\n",
      "note_on channel=9 note=35 velocity=0 time=60\n",
      "note_on channel=9 note=35 velocity=127 time=0\n",
      "note_on channel=9 note=42 velocity=0 time=60\n",
      "note_on channel=9 note=35 velocity=0 time=0\n",
      "note_on channel=9 note=38 velocity=127 time=0\n",
      "note_on channel=9 note=42 velocity=127 time=0\n",
      "note_on channel=9 note=35 velocity=127 time=60\n",
      "note_on channel=9 note=38 velocity=0 time=60\n",
      "note_on channel=9 note=42 velocity=0 time=0\n",
      "note_on channel=9 note=35 velocity=0 time=0\n",
      "note_on channel=9 note=42 velocity=127 time=0\n",
      "note_on channel=9 note=35 velocity=127 time=60\n",
      "note_on channel=9 note=42 velocity=0 time=60\n",
      "note_on channel=9 note=35 velocity=0 time=0\n",
      "note_on channel=9 note=38 velocity=127 time=0\n",
      "note_on channel=9 note=42 velocity=127 time=0\n",
      "note_on channel=9 note=35 velocity=127 time=60\n",
      "note_on channel=9 note=38 velocity=0 time=60\n",
      "note_on channel=9 note=42 velocity=0 time=0\n",
      "note_on channel=9 note=35 velocity=0 time=0\n",
      "note_on channel=9 note=35 velocity=127 time=0\n",
      "note_on channel=9 note=42 velocity=127 time=0\n",
      "note_on channel=9 note=35 velocity=0 time=120\n",
      "note_on channel=9 note=42 velocity=0 time=0\n",
      "note_on channel=9 note=38 velocity=127 time=0\n",
      "note_on channel=9 note=42 velocity=127 time=0\n",
      "note_on channel=9 note=38 velocity=0 time=120\n",
      "note_on channel=9 note=42 velocity=0 time=0\n",
      "note_on channel=9 note=42 velocity=127 time=0\n",
      "note_on channel=9 note=35 velocity=127 time=60\n",
      "note_on channel=9 note=35 velocity=0 time=20\n",
      "note_on channel=9 note=36 velocity=127 time=0\n",
      "note_on channel=9 note=36 velocity=0 time=20\n",
      "note_on channel=9 note=35 velocity=127 time=0\n",
      "note_on channel=9 note=42 velocity=0 time=20\n",
      "note_on channel=9 note=35 velocity=0 time=0\n",
      "note_on channel=9 note=38 velocity=127 time=0\n",
      "note_on channel=9 note=57 velocity=127 time=0\n",
      "note_on channel=9 note=38 velocity=0 time=120\n",
      "note_on channel=9 note=57 velocity=0 time=0\n",
      "note_on channel=9 note=35 velocity=127 time=0\n",
      "note_on channel=9 note=42 velocity=127 time=0\n",
      "note_on channel=9 note=35 velocity=0 time=60\n",
      "note_on channel=9 note=35 velocity=127 time=0\n",
      "note_on channel=9 note=42 velocity=0 time=60\n",
      "note_on channel=9 note=35 velocity=0 time=0\n",
      "note_on channel=9 note=38 velocity=127 time=0\n",
      "note_on channel=9 note=42 velocity=127 time=0\n",
      "note_on channel=9 note=35 velocity=127 time=60\n",
      "note_on channel=9 note=38 velocity=0 time=60\n",
      "note_on channel=9 note=42 velocity=0 time=0\n",
      "note_on channel=9 note=35 velocity=0 time=0\n",
      "note_on channel=9 note=35 velocity=127 time=0\n",
      "note_on channel=9 note=42 velocity=127 time=0\n",
      "note_on channel=9 note=35 velocity=0 time=60\n",
      "note_on channel=9 note=35 velocity=127 time=0\n",
      "note_on channel=9 note=42 velocity=0 time=60\n",
      "note_on channel=9 note=35 velocity=0 time=0\n",
      "note_on channel=9 note=38 velocity=127 time=0\n",
      "note_on channel=9 note=42 velocity=127 time=0\n",
      "note_on channel=9 note=38 velocity=0 time=120\n",
      "note_on channel=9 note=42 velocity=0 time=0\n",
      "note_on channel=9 note=38 velocity=127 time=0\n",
      "note_on channel=9 note=38 velocity=0 time=60\n",
      "note_on channel=9 note=38 velocity=127 time=0\n",
      "note_on channel=9 note=38 velocity=0 time=60\n",
      "note_on channel=9 note=38 velocity=127 time=0\n",
      "note_on channel=9 note=38 velocity=0 time=60\n",
      "note_on channel=9 note=38 velocity=127 time=0\n",
      "note_on channel=9 note=38 velocity=0 time=60\n",
      "note_on channel=9 note=38 velocity=127 time=0\n",
      "note_on channel=9 note=38 velocity=0 time=60\n",
      "note_on channel=9 note=38 velocity=127 time=0\n",
      "note_on channel=9 note=38 velocity=0 time=60\n",
      "note_on channel=9 note=35 velocity=127 time=0\n",
      "note_on channel=9 note=57 velocity=127 time=0\n",
      "note_on channel=9 note=35 velocity=0 time=120\n",
      "note_on channel=9 note=57 velocity=0 time=0\n",
      "note_on channel=9 note=57 velocity=127 time=0\n",
      "note_on channel=9 note=35 velocity=127 time=0\n",
      "note_on channel=9 note=57 velocity=0 time=120\n",
      "note_on channel=9 note=35 velocity=0 time=0\n",
      "note_on channel=9 note=42 velocity=127 time=0\n",
      "note_on channel=9 note=38 velocity=127 time=0\n",
      "note_on channel=9 note=42 velocity=0 time=120\n",
      "note_on channel=9 note=38 velocity=0 time=0\n",
      "note_on channel=9 note=42 velocity=127 time=0\n",
      "note_on channel=9 note=35 velocity=127 time=0\n",
      "note_on channel=9 note=42 velocity=0 time=120\n",
      "note_on channel=9 note=35 velocity=0 time=0\n",
      "note_on channel=9 note=42 velocity=127 time=0\n",
      "note_on channel=9 note=38 velocity=127 time=0\n",
      "note_on channel=9 note=42 velocity=0 time=120\n",
      "note_on channel=9 note=38 velocity=0 time=0\n",
      "note_on channel=9 note=57 velocity=127 time=0\n",
      "note_on channel=9 note=35 velocity=127 time=0\n",
      "note_on channel=9 note=57 velocity=0 time=180\n",
      "note_on channel=9 note=35 velocity=0 time=0\n",
      "note_on channel=9 note=57 velocity=127 time=0\n",
      "note_on channel=9 note=35 velocity=127 time=0\n",
      "note_on channel=9 note=57 velocity=0 time=60\n",
      "note_on channel=9 note=35 velocity=0 time=0\n",
      "note_on channel=9 note=57 velocity=127 time=120\n",
      "note_on channel=9 note=35 velocity=127 time=0\n",
      "note_on channel=9 note=57 velocity=0 time=120\n",
      "note_on channel=9 note=35 velocity=0 time=0\n",
      "note_on channel=9 note=57 velocity=127 time=0\n",
      "note_on channel=9 note=35 velocity=127 time=0\n",
      "note_on channel=9 note=57 velocity=0 time=180\n",
      "note_on channel=9 note=35 velocity=0 time=0\n",
      "note_on channel=9 note=57 velocity=127 time=0\n",
      "note_on channel=9 note=35 velocity=127 time=0\n",
      "note_on channel=9 note=57 velocity=0 time=60\n",
      "note_on channel=9 note=35 velocity=0 time=0\n",
      "note_on channel=9 note=57 velocity=127 time=120\n",
      "note_on channel=9 note=35 velocity=127 time=0\n",
      "note_on channel=9 note=57 velocity=0 time=120\n",
      "note_on channel=9 note=35 velocity=0 time=0\n",
      "note_on channel=9 note=35 velocity=127 time=0\n",
      "note_on channel=9 note=57 velocity=127 time=0\n",
      "note_on channel=9 note=35 velocity=0 time=120\n",
      "note_on channel=9 note=57 velocity=0 time=0\n",
      "note_on channel=9 note=35 velocity=127 time=840\n",
      "note_on channel=9 note=57 velocity=127 time=0\n",
      "note_on channel=9 note=35 velocity=0 time=120\n",
      "note_on channel=9 note=57 velocity=0 time=0\n",
      "note_on channel=9 note=38 velocity=127 time=0\n",
      "note_on channel=9 note=42 velocity=127 time=0\n",
      "note_on channel=9 note=38 velocity=0 time=120\n",
      "note_on channel=9 note=42 velocity=0 time=0\n",
      "note_on channel=9 note=42 velocity=127 time=0\n",
      "note_on channel=9 note=35 velocity=127 time=0\n",
      "note_on channel=9 note=35 velocity=0 time=60\n",
      "note_on channel=9 note=35 velocity=127 time=0\n",
      "note_on channel=9 note=42 velocity=0 time=60\n",
      "note_on channel=9 note=35 velocity=0 time=0\n",
      "note_on channel=9 note=42 velocity=127 time=0\n",
      "note_on channel=9 note=38 velocity=127 time=0\n",
      "note_on channel=9 note=42 velocity=0 time=120\n",
      "note_on channel=9 note=38 velocity=0 time=0\n",
      "note_on channel=9 note=35 velocity=127 time=0\n",
      "note_on channel=9 note=57 velocity=127 time=0\n",
      "note_on channel=9 note=35 velocity=0 time=120\n",
      "note_on channel=9 note=57 velocity=0 time=0\n",
      "note_on channel=9 note=42 velocity=127 time=0\n",
      "note_on channel=9 note=38 velocity=127 time=0\n",
      "note_on channel=9 note=42 velocity=0 time=120\n",
      "note_on channel=9 note=38 velocity=0 time=0\n",
      "note_on channel=9 note=42 velocity=127 time=0\n",
      "note_on channel=9 note=35 velocity=127 time=0\n",
      "note_on channel=9 note=35 velocity=0 time=60\n",
      "note_on channel=9 note=35 velocity=127 time=0\n",
      "note_on channel=9 note=42 velocity=0 time=60\n",
      "note_on channel=9 note=35 velocity=0 time=0\n",
      "note_on channel=9 note=42 velocity=127 time=0\n",
      "note_on channel=9 note=38 velocity=127 time=0\n",
      "note_on channel=9 note=42 velocity=0 time=120\n",
      "note_on channel=9 note=38 velocity=0 time=0\n",
      "note_on channel=9 note=35 velocity=127 time=0\n",
      "note_on channel=9 note=57 velocity=127 time=0\n",
      "note_on channel=9 note=35 velocity=0 time=120\n",
      "note_on channel=9 note=57 velocity=0 time=0\n",
      "note_on channel=9 note=42 velocity=127 time=0\n",
      "note_on channel=9 note=38 velocity=127 time=0\n",
      "note_on channel=9 note=42 velocity=0 time=120\n",
      "note_on channel=9 note=38 velocity=0 time=0\n",
      "note_on channel=9 note=42 velocity=127 time=0\n",
      "note_on channel=9 note=35 velocity=127 time=0\n",
      "note_on channel=9 note=35 velocity=0 time=60\n",
      "note_on channel=9 note=35 velocity=127 time=0\n",
      "note_on channel=9 note=42 velocity=0 time=60\n",
      "note_on channel=9 note=35 velocity=0 time=0\n",
      "note_on channel=9 note=42 velocity=127 time=0\n",
      "note_on channel=9 note=38 velocity=127 time=0\n",
      "note_on channel=9 note=42 velocity=0 time=120\n",
      "note_on channel=9 note=38 velocity=0 time=0\n",
      "note_on channel=9 note=42 velocity=127 time=0\n",
      "note_on channel=9 note=35 velocity=127 time=0\n",
      "note_on channel=9 note=42 velocity=0 time=60\n",
      "note_on channel=9 note=35 velocity=0 time=0\n",
      "note_on channel=9 note=38 velocity=127 time=0\n",
      "note_on channel=9 note=57 velocity=127 time=0\n",
      "note_on channel=9 note=38 velocity=0 time=120\n",
      "note_on channel=9 note=57 velocity=0 time=0\n",
      "note_on channel=9 note=38 velocity=127 time=0\n",
      "note_on channel=9 note=57 velocity=127 time=0\n",
      "note_on channel=9 note=38 velocity=0 time=120\n",
      "note_on channel=9 note=57 velocity=0 time=0\n",
      "note_on channel=9 note=35 velocity=127 time=0\n",
      "note_on channel=9 note=42 velocity=127 time=0\n",
      "note_on channel=9 note=35 velocity=0 time=120\n",
      "note_on channel=9 note=42 velocity=0 time=0\n",
      "note_on channel=9 note=38 velocity=127 time=0\n",
      "note_on channel=9 note=42 velocity=127 time=0\n",
      "note_on channel=9 note=38 velocity=0 time=120\n",
      "note_on channel=9 note=42 velocity=0 time=0\n",
      "note_on channel=9 note=35 velocity=127 time=0\n",
      "note_on channel=9 note=42 velocity=127 time=0\n",
      "note_on channel=9 note=35 velocity=0 time=60\n",
      "note_on channel=9 note=35 velocity=127 time=0\n",
      "note_on channel=9 note=42 velocity=0 time=60\n",
      "note_on channel=9 note=35 velocity=0 time=0\n",
      "note_on channel=9 note=42 velocity=127 time=0\n",
      "note_on channel=9 note=38 velocity=127 time=0\n",
      "note_on channel=9 note=42 velocity=0 time=120\n",
      "note_on channel=9 note=38 velocity=0 time=0\n",
      "note_on channel=9 note=42 velocity=127 time=0\n",
      "note_on channel=9 note=42 velocity=0 time=60\n",
      "note_on channel=9 note=38 velocity=127 time=0\n",
      "note_on channel=9 note=38 velocity=0 time=60\n",
      "note_on channel=9 note=38 velocity=127 time=0\n",
      "note_on channel=9 note=38 velocity=0 time=60\n",
      "note_on channel=9 note=38 velocity=127 time=0\n",
      "note_on channel=9 note=38 velocity=0 time=60\n",
      "note_on channel=9 note=41 velocity=127 time=0\n",
      "note_on channel=9 note=41 velocity=0 time=60\n",
      "note_on channel=9 note=41 velocity=127 time=0\n",
      "note_on channel=9 note=41 velocity=0 time=60\n",
      "note_on channel=9 note=38 velocity=127 time=0\n",
      "note_on channel=9 note=38 velocity=0 time=60\n",
      "note_on channel=9 note=38 velocity=127 time=0\n",
      "note_on channel=9 note=38 velocity=0 time=60\n",
      "note_on channel=9 note=35 velocity=127 time=0\n",
      "note_on channel=9 note=57 velocity=127 time=0\n",
      "note_on channel=9 note=35 velocity=0 time=120\n",
      "note_on channel=9 note=57 velocity=0 time=0\n",
      "note_on channel=9 note=42 velocity=127 time=0\n",
      "note_on channel=9 note=42 velocity=0 time=120\n",
      "note_on channel=9 note=42 velocity=127 time=0\n",
      "note_on channel=9 note=35 velocity=127 time=0\n",
      "note_on channel=9 note=38 velocity=127 time=0\n",
      "note_on channel=9 note=35 velocity=0 time=60\n",
      "note_on channel=9 note=35 velocity=127 time=0\n",
      "note_on channel=9 note=42 velocity=0 time=60\n",
      "note_on channel=9 note=38 velocity=0 time=0\n",
      "note_on channel=9 note=35 velocity=0 time=0\n",
      "note_on channel=9 note=38 velocity=127 time=0\n",
      "note_on channel=9 note=42 velocity=127 time=0\n",
      "note_on channel=9 note=38 velocity=0 time=120\n",
      "note_on channel=9 note=42 velocity=0 time=0\n",
      "note_on channel=9 note=35 velocity=127 time=0\n",
      "note_on channel=9 note=42 velocity=127 time=0\n",
      "note_on channel=9 note=35 velocity=0 time=60\n",
      "note_on channel=9 note=42 velocity=0 time=0\n",
      "note_on channel=9 note=57 velocity=127 time=0\n",
      "note_on channel=9 note=38 velocity=127 time=0\n",
      "note_on channel=9 note=57 velocity=0 time=120\n",
      "note_on channel=9 note=38 velocity=0 time=0\n",
      "note_on channel=9 note=57 velocity=127 time=0\n",
      "note_on channel=9 note=38 velocity=127 time=0\n",
      "note_on channel=9 note=57 velocity=0 time=120\n",
      "note_on channel=9 note=38 velocity=0 time=0\n",
      "note_on channel=9 note=35 velocity=127 time=0\n",
      "note_on channel=9 note=42 velocity=127 time=0\n",
      "note_on channel=9 note=35 velocity=0 time=120\n",
      "note_on channel=9 note=42 velocity=0 time=0\n",
      "note_on channel=9 note=42 velocity=127 time=0\n",
      "note_on channel=9 note=38 velocity=127 time=0\n",
      "note_on channel=9 note=42 velocity=0 time=120\n",
      "note_on channel=9 note=38 velocity=0 time=0\n",
      "note_on channel=9 note=35 velocity=127 time=0\n",
      "note_on channel=9 note=42 velocity=127 time=0\n",
      "note_on channel=9 note=35 velocity=0 time=60\n",
      "note_on channel=9 note=35 velocity=127 time=0\n",
      "note_on channel=9 note=42 velocity=0 time=60\n",
      "note_on channel=9 note=35 velocity=0 time=0\n",
      "note_on channel=9 note=38 velocity=127 time=0\n",
      "note_on channel=9 note=42 velocity=127 time=0\n",
      "note_on channel=9 note=38 velocity=0 time=120\n",
      "note_on channel=9 note=42 velocity=0 time=0\n",
      "note_on channel=9 note=35 velocity=127 time=0\n",
      "note_on channel=9 note=42 velocity=127 time=0\n",
      "note_on channel=9 note=35 velocity=0 time=120\n",
      "note_on channel=9 note=42 velocity=0 time=0\n",
      "note_on channel=9 note=38 velocity=127 time=0\n",
      "note_on channel=9 note=42 velocity=127 time=0\n",
      "note_on channel=9 note=38 velocity=0 time=120\n",
      "note_on channel=9 note=42 velocity=0 time=0\n",
      "note_on channel=9 note=35 velocity=127 time=0\n",
      "note_on channel=9 note=42 velocity=127 time=0\n",
      "note_on channel=9 note=35 velocity=0 time=60\n",
      "note_on channel=9 note=35 velocity=127 time=0\n",
      "note_on channel=9 note=42 velocity=0 time=60\n",
      "note_on channel=9 note=35 velocity=0 time=0\n",
      "note_on channel=9 note=42 velocity=127 time=0\n",
      "note_on channel=9 note=38 velocity=127 time=0\n",
      "note_on channel=9 note=42 velocity=0 time=120\n",
      "note_on channel=9 note=38 velocity=0 time=0\n",
      "note_on channel=9 note=35 velocity=127 time=0\n",
      "note_on channel=9 note=42 velocity=127 time=0\n",
      "note_on channel=9 note=35 velocity=0 time=120\n",
      "note_on channel=9 note=42 velocity=0 time=0\n",
      "note_on channel=9 note=38 velocity=127 time=0\n",
      "note_on channel=9 note=42 velocity=127 time=0\n",
      "note_on channel=9 note=38 velocity=0 time=120\n",
      "note_on channel=9 note=42 velocity=0 time=0\n",
      "note_on channel=9 note=35 velocity=127 time=0\n",
      "note_on channel=9 note=42 velocity=127 time=0\n",
      "note_on channel=9 note=35 velocity=0 time=60\n",
      "note_on channel=9 note=35 velocity=127 time=0\n",
      "note_on channel=9 note=42 velocity=0 time=60\n",
      "note_on channel=9 note=35 velocity=0 time=0\n",
      "note_on channel=9 note=38 velocity=127 time=0\n",
      "note_on channel=9 note=42 velocity=127 time=0\n",
      "note_on channel=9 note=38 velocity=0 time=120\n",
      "note_on channel=9 note=42 velocity=0 time=0\n",
      "note_on channel=9 note=42 velocity=127 time=0\n",
      "note_on channel=9 note=35 velocity=127 time=0\n",
      "note_on channel=9 note=42 velocity=0 time=60\n",
      "note_on channel=9 note=35 velocity=0 time=0\n",
      "note_on channel=9 note=57 velocity=127 time=0\n",
      "note_on channel=9 note=38 velocity=127 time=0\n",
      "note_on channel=9 note=57 velocity=0 time=120\n",
      "note_on channel=9 note=38 velocity=0 time=0\n",
      "note_on channel=9 note=57 velocity=127 time=0\n",
      "note_on channel=9 note=38 velocity=127 time=0\n",
      "note_on channel=9 note=57 velocity=0 time=120\n",
      "note_on channel=9 note=38 velocity=0 time=0\n",
      "note_on channel=9 note=35 velocity=127 time=0\n",
      "note_on channel=9 note=42 velocity=127 time=0\n",
      "note_on channel=9 note=35 velocity=0 time=120\n",
      "note_on channel=9 note=42 velocity=0 time=0\n",
      "note_on channel=9 note=38 velocity=127 time=0\n",
      "note_on channel=9 note=42 velocity=127 time=0\n",
      "note_on channel=9 note=38 velocity=0 time=120\n",
      "note_on channel=9 note=42 velocity=0 time=0\n",
      "note_on channel=9 note=35 velocity=127 time=0\n",
      "note_on channel=9 note=42 velocity=127 time=0\n",
      "note_on channel=9 note=35 velocity=0 time=60\n",
      "note_on channel=9 note=35 velocity=127 time=0\n",
      "note_on channel=9 note=42 velocity=0 time=60\n",
      "note_on channel=9 note=35 velocity=0 time=0\n",
      "note_on channel=9 note=38 velocity=127 time=0\n",
      "note_on channel=9 note=42 velocity=127 time=0\n",
      "note_on channel=9 note=38 velocity=0 time=120\n",
      "note_on channel=9 note=42 velocity=0 time=0\n",
      "note_on channel=9 note=42 velocity=127 time=0\n",
      "note_on channel=9 note=35 velocity=127 time=0\n",
      "note_on channel=9 note=42 velocity=0 time=120\n",
      "note_on channel=9 note=35 velocity=0 time=0\n",
      "note_on channel=9 note=38 velocity=127 time=0\n",
      "note_on channel=9 note=42 velocity=127 time=0\n",
      "note_on channel=9 note=38 velocity=0 time=120\n",
      "note_on channel=9 note=42 velocity=0 time=0\n",
      "note_on channel=9 note=35 velocity=127 time=0\n",
      "note_on channel=9 note=42 velocity=127 time=0\n",
      "note_on channel=9 note=35 velocity=0 time=60\n",
      "note_on channel=9 note=35 velocity=127 time=0\n",
      "note_on channel=9 note=42 velocity=0 time=60\n",
      "note_on channel=9 note=35 velocity=0 time=0\n",
      "note_on channel=9 note=38 velocity=127 time=0\n",
      "note_on channel=9 note=42 velocity=127 time=0\n",
      "note_on channel=9 note=38 velocity=0 time=120\n",
      "note_on channel=9 note=42 velocity=0 time=0\n",
      "note_on channel=9 note=35 velocity=127 time=0\n",
      "note_on channel=9 note=42 velocity=127 time=0\n",
      "note_on channel=9 note=35 velocity=0 time=120\n",
      "note_on channel=9 note=42 velocity=0 time=0\n",
      "note_on channel=9 note=38 velocity=127 time=0\n",
      "note_on channel=9 note=42 velocity=127 time=0\n",
      "note_on channel=9 note=38 velocity=0 time=120\n",
      "note_on channel=9 note=42 velocity=0 time=0\n",
      "note_on channel=9 note=42 velocity=127 time=0\n",
      "note_on channel=9 note=35 velocity=127 time=0\n",
      "note_on channel=9 note=35 velocity=0 time=60\n",
      "note_on channel=9 note=35 velocity=127 time=0\n",
      "note_on channel=9 note=42 velocity=0 time=60\n",
      "note_on channel=9 note=35 velocity=0 time=0\n",
      "note_on channel=9 note=38 velocity=127 time=0\n",
      "note_on channel=9 note=42 velocity=127 time=0\n",
      "note_on channel=9 note=38 velocity=0 time=120\n",
      "note_on channel=9 note=42 velocity=0 time=0\n",
      "note_on channel=9 note=35 velocity=127 time=0\n",
      "note_on channel=9 note=42 velocity=127 time=0\n",
      "note_on channel=9 note=35 velocity=0 time=60\n",
      "note_on channel=9 note=42 velocity=0 time=0\n",
      "note_on channel=9 note=57 velocity=127 time=0\n",
      "note_on channel=9 note=38 velocity=127 time=0\n",
      "note_on channel=9 note=57 velocity=0 time=120\n",
      "note_on channel=9 note=38 velocity=0 time=0\n",
      "note_on channel=9 note=57 velocity=127 time=0\n",
      "note_on channel=9 note=38 velocity=127 time=0\n",
      "note_on channel=9 note=57 velocity=0 time=120\n",
      "note_on channel=9 note=38 velocity=0 time=0\n",
      "note_on channel=9 note=35 velocity=127 time=0\n",
      "note_on channel=9 note=42 velocity=127 time=0\n",
      "note_on channel=9 note=35 velocity=0 time=120\n",
      "note_on channel=9 note=42 velocity=0 time=0\n",
      "note_on channel=9 note=42 velocity=127 time=0\n",
      "note_on channel=9 note=38 velocity=127 time=0\n",
      "note_on channel=9 note=42 velocity=0 time=120\n",
      "note_on channel=9 note=38 velocity=0 time=0\n",
      "note_on channel=9 note=35 velocity=127 time=0\n",
      "note_on channel=9 note=42 velocity=127 time=0\n",
      "note_on channel=9 note=35 velocity=0 time=60\n",
      "note_on channel=9 note=35 velocity=127 time=0\n",
      "note_on channel=9 note=42 velocity=0 time=60\n",
      "note_on channel=9 note=35 velocity=0 time=0\n",
      "note_on channel=9 note=38 velocity=127 time=0\n",
      "note_on channel=9 note=42 velocity=127 time=0\n",
      "note_on channel=9 note=38 velocity=0 time=120\n",
      "note_on channel=9 note=42 velocity=0 time=0\n",
      "note_on channel=9 note=35 velocity=127 time=0\n",
      "note_on channel=9 note=42 velocity=127 time=0\n",
      "note_on channel=9 note=35 velocity=0 time=120\n",
      "note_on channel=9 note=42 velocity=0 time=0\n",
      "note_on channel=9 note=38 velocity=127 time=0\n",
      "note_on channel=9 note=42 velocity=127 time=0\n",
      "note_on channel=9 note=38 velocity=0 time=120\n",
      "note_on channel=9 note=42 velocity=0 time=0\n",
      "note_on channel=9 note=35 velocity=127 time=0\n",
      "note_on channel=9 note=42 velocity=127 time=0\n",
      "note_on channel=9 note=35 velocity=0 time=60\n",
      "note_on channel=9 note=35 velocity=127 time=0\n",
      "note_on channel=9 note=42 velocity=0 time=60\n",
      "note_on channel=9 note=35 velocity=0 time=0\n",
      "note_on channel=9 note=38 velocity=127 time=0\n",
      "note_on channel=9 note=42 velocity=127 time=0\n",
      "note_on channel=9 note=38 velocity=0 time=120\n",
      "note_on channel=9 note=42 velocity=0 time=0\n",
      "note_on channel=9 note=35 velocity=127 time=0\n",
      "note_on channel=9 note=42 velocity=127 time=0\n",
      "note_on channel=9 note=35 velocity=0 time=120\n",
      "note_on channel=9 note=42 velocity=0 time=0\n",
      "note_on channel=9 note=38 velocity=127 time=0\n",
      "note_on channel=9 note=42 velocity=127 time=0\n",
      "note_on channel=9 note=38 velocity=0 time=120\n",
      "note_on channel=9 note=42 velocity=0 time=0\n",
      "note_on channel=9 note=35 velocity=127 time=0\n",
      "note_on channel=9 note=42 velocity=127 time=0\n",
      "note_on channel=9 note=35 velocity=0 time=60\n",
      "note_on channel=9 note=35 velocity=127 time=0\n",
      "note_on channel=9 note=42 velocity=0 time=60\n",
      "note_on channel=9 note=35 velocity=0 time=0\n",
      "note_on channel=9 note=38 velocity=127 time=0\n",
      "note_on channel=9 note=42 velocity=127 time=0\n",
      "note_on channel=9 note=38 velocity=0 time=120\n",
      "note_on channel=9 note=42 velocity=0 time=0\n",
      "note_on channel=9 note=35 velocity=127 time=0\n",
      "note_on channel=9 note=42 velocity=127 time=0\n",
      "note_on channel=9 note=35 velocity=0 time=60\n",
      "note_on channel=9 note=42 velocity=0 time=0\n",
      "note_on channel=9 note=38 velocity=127 time=0\n",
      "note_on channel=9 note=57 velocity=127 time=0\n",
      "note_on channel=9 note=38 velocity=0 time=120\n",
      "note_on channel=9 note=57 velocity=0 time=0\n",
      "note_on channel=9 note=57 velocity=127 time=0\n",
      "note_on channel=9 note=38 velocity=127 time=0\n",
      "note_on channel=9 note=57 velocity=0 time=120\n",
      "note_on channel=9 note=38 velocity=0 time=0\n",
      "note_on channel=9 note=35 velocity=127 time=0\n",
      "note_on channel=9 note=42 velocity=127 time=0\n",
      "note_on channel=9 note=35 velocity=0 time=120\n",
      "note_on channel=9 note=42 velocity=0 time=0\n",
      "note_on channel=9 note=38 velocity=127 time=0\n",
      "note_on channel=9 note=42 velocity=127 time=0\n",
      "note_on channel=9 note=38 velocity=0 time=120\n",
      "note_on channel=9 note=42 velocity=0 time=0\n",
      "note_on channel=9 note=35 velocity=127 time=0\n",
      "note_on channel=9 note=42 velocity=127 time=0\n",
      "note_on channel=9 note=35 velocity=0 time=60\n",
      "note_on channel=9 note=35 velocity=127 time=0\n",
      "note_on channel=9 note=42 velocity=0 time=60\n",
      "note_on channel=9 note=35 velocity=0 time=0\n",
      "note_on channel=9 note=38 velocity=127 time=0\n",
      "note_on channel=9 note=42 velocity=127 time=0\n",
      "note_on channel=9 note=38 velocity=0 time=120\n",
      "note_on channel=9 note=42 velocity=0 time=0\n",
      "note_on channel=9 note=42 velocity=127 time=0\n",
      "note_on channel=9 note=35 velocity=127 time=0\n",
      "note_on channel=9 note=42 velocity=0 time=120\n",
      "note_on channel=9 note=35 velocity=0 time=0\n",
      "note_on channel=9 note=38 velocity=127 time=0\n",
      "note_on channel=9 note=42 velocity=127 time=0\n",
      "note_on channel=9 note=38 velocity=0 time=120\n",
      "note_on channel=9 note=42 velocity=0 time=0\n",
      "note_on channel=9 note=35 velocity=127 time=0\n",
      "note_on channel=9 note=42 velocity=127 time=0\n",
      "note_on channel=9 note=35 velocity=0 time=60\n",
      "note_on channel=9 note=35 velocity=127 time=0\n",
      "note_on channel=9 note=42 velocity=0 time=60\n",
      "note_on channel=9 note=35 velocity=0 time=0\n",
      "note_on channel=9 note=38 velocity=127 time=0\n",
      "note_on channel=9 note=42 velocity=127 time=0\n",
      "note_on channel=9 note=38 velocity=0 time=120\n",
      "note_on channel=9 note=42 velocity=0 time=0\n",
      "note_on channel=9 note=35 velocity=127 time=0\n",
      "note_on channel=9 note=42 velocity=127 time=0\n",
      "note_on channel=9 note=35 velocity=0 time=120\n",
      "note_on channel=9 note=42 velocity=0 time=0\n",
      "note_on channel=9 note=38 velocity=127 time=0\n",
      "note_on channel=9 note=42 velocity=127 time=0\n",
      "note_on channel=9 note=38 velocity=0 time=120\n",
      "note_on channel=9 note=42 velocity=0 time=0\n",
      "note_on channel=9 note=42 velocity=127 time=0\n",
      "note_on channel=9 note=35 velocity=127 time=0\n",
      "note_on channel=9 note=35 velocity=0 time=60\n",
      "note_on channel=9 note=35 velocity=127 time=0\n",
      "note_on channel=9 note=42 velocity=0 time=60\n",
      "note_on channel=9 note=35 velocity=0 time=0\n",
      "note_on channel=9 note=38 velocity=127 time=0\n",
      "note_on channel=9 note=42 velocity=127 time=0\n",
      "note_on channel=9 note=38 velocity=0 time=120\n",
      "note_on channel=9 note=42 velocity=0 time=0\n",
      "note_on channel=9 note=35 velocity=127 time=0\n",
      "note_on channel=9 note=42 velocity=127 time=0\n",
      "note_on channel=9 note=35 velocity=0 time=60\n",
      "note_on channel=9 note=42 velocity=0 time=0\n",
      "note_on channel=9 note=57 velocity=127 time=0\n",
      "note_on channel=9 note=38 velocity=127 time=0\n",
      "note_on channel=9 note=57 velocity=0 time=120\n",
      "note_on channel=9 note=38 velocity=0 time=0\n",
      "note_on channel=9 note=57 velocity=127 time=0\n",
      "note_on channel=9 note=38 velocity=127 time=0\n",
      "note_on channel=9 note=57 velocity=0 time=120\n",
      "note_on channel=9 note=38 velocity=0 time=0\n",
      "note_on channel=9 note=35 velocity=127 time=0\n",
      "note_on channel=9 note=42 velocity=127 time=0\n",
      "note_on channel=9 note=35 velocity=0 time=120\n",
      "note_on channel=9 note=42 velocity=0 time=0\n",
      "note_on channel=9 note=38 velocity=127 time=0\n",
      "note_on channel=9 note=42 velocity=127 time=0\n",
      "note_on channel=9 note=38 velocity=0 time=120\n",
      "note_on channel=9 note=42 velocity=0 time=0\n",
      "note_on channel=9 note=35 velocity=127 time=0\n",
      "note_on channel=9 note=42 velocity=127 time=0\n",
      "note_on channel=9 note=35 velocity=0 time=60\n",
      "note_on channel=9 note=35 velocity=127 time=0\n",
      "note_on channel=9 note=42 velocity=0 time=60\n",
      "note_on channel=9 note=35 velocity=0 time=0\n",
      "note_on channel=9 note=38 velocity=127 time=0\n",
      "note_on channel=9 note=42 velocity=127 time=0\n",
      "note_on channel=9 note=38 velocity=0 time=120\n",
      "note_on channel=9 note=42 velocity=0 time=0\n",
      "note_on channel=9 note=42 velocity=127 time=0\n",
      "note_on channel=9 note=42 velocity=0 time=60\n",
      "note_on channel=9 note=38 velocity=127 time=0\n",
      "note_on channel=9 note=38 velocity=0 time=60\n",
      "note_on channel=9 note=38 velocity=127 time=0\n",
      "note_on channel=9 note=38 velocity=0 time=120\n",
      "note_on channel=9 note=45 velocity=127 time=0\n",
      "note_on channel=9 note=45 velocity=0 time=60\n",
      "note_on channel=9 note=45 velocity=127 time=0\n",
      "note_on channel=9 note=45 velocity=0 time=60\n",
      "note_on channel=9 note=45 velocity=127 time=0\n",
      "note_on channel=9 note=45 velocity=0 time=60\n",
      "note_on channel=9 note=45 velocity=127 time=0\n",
      "note_on channel=9 note=45 velocity=0 time=60\n",
      "note_on channel=9 note=35 velocity=127 time=0\n",
      "note_on channel=9 note=42 velocity=127 time=0\n",
      "note_on channel=9 note=35 velocity=0 time=120\n",
      "note_on channel=9 note=42 velocity=0 time=0\n",
      "note_on channel=9 note=42 velocity=127 time=0\n",
      "note_on channel=9 note=38 velocity=127 time=0\n",
      "note_on channel=9 note=42 velocity=0 time=120\n",
      "note_on channel=9 note=38 velocity=0 time=0\n",
      "note_on channel=9 note=35 velocity=127 time=0\n",
      "note_on channel=9 note=42 velocity=127 time=0\n",
      "note_on channel=9 note=35 velocity=0 time=60\n",
      "note_on channel=9 note=35 velocity=127 time=0\n",
      "note_on channel=9 note=42 velocity=0 time=60\n",
      "note_on channel=9 note=35 velocity=0 time=0\n",
      "note_on channel=9 note=38 velocity=127 time=0\n",
      "note_on channel=9 note=42 velocity=127 time=0\n",
      "note_on channel=9 note=38 velocity=0 time=120\n",
      "note_on channel=9 note=42 velocity=0 time=0\n",
      "note_on channel=9 note=35 velocity=127 time=0\n",
      "note_on channel=9 note=42 velocity=127 time=0\n",
      "note_on channel=9 note=35 velocity=0 time=60\n",
      "note_on channel=9 note=42 velocity=0 time=0\n",
      "note_on channel=9 note=57 velocity=127 time=0\n",
      "note_on channel=9 note=38 velocity=127 time=0\n",
      "note_on channel=9 note=57 velocity=0 time=120\n",
      "note_on channel=9 note=38 velocity=0 time=0\n",
      "note_on channel=9 note=57 velocity=127 time=0\n",
      "note_on channel=9 note=38 velocity=127 time=0\n",
      "note_on channel=9 note=57 velocity=0 time=120\n",
      "note_on channel=9 note=38 velocity=0 time=0\n",
      "note_on channel=9 note=42 velocity=127 time=0\n",
      "note_on channel=9 note=35 velocity=127 time=0\n",
      "note_on channel=9 note=42 velocity=0 time=120\n",
      "note_on channel=9 note=35 velocity=0 time=0\n",
      "note_on channel=9 note=38 velocity=127 time=0\n",
      "note_on channel=9 note=42 velocity=127 time=0\n",
      "note_on channel=9 note=38 velocity=0 time=120\n",
      "note_on channel=9 note=42 velocity=0 time=0\n",
      "note_on channel=9 note=35 velocity=127 time=0\n",
      "note_on channel=9 note=42 velocity=127 time=0\n",
      "note_on channel=9 note=35 velocity=0 time=60\n",
      "note_on channel=9 note=35 velocity=127 time=0\n",
      "note_on channel=9 note=42 velocity=0 time=60\n",
      "note_on channel=9 note=35 velocity=0 time=0\n",
      "note_on channel=9 note=38 velocity=127 time=0\n",
      "note_on channel=9 note=42 velocity=127 time=0\n",
      "note_on channel=9 note=38 velocity=0 time=120\n",
      "note_on channel=9 note=42 velocity=0 time=0\n",
      "note_on channel=9 note=35 velocity=127 time=0\n",
      "note_on channel=9 note=42 velocity=127 time=0\n",
      "note_on channel=9 note=35 velocity=0 time=120\n",
      "note_on channel=9 note=42 velocity=0 time=0\n",
      "note_on channel=9 note=38 velocity=127 time=0\n",
      "note_on channel=9 note=42 velocity=127 time=0\n",
      "note_on channel=9 note=38 velocity=0 time=120\n",
      "note_on channel=9 note=42 velocity=0 time=0\n",
      "note_on channel=9 note=42 velocity=127 time=0\n",
      "note_on channel=9 note=35 velocity=127 time=0\n",
      "note_on channel=9 note=35 velocity=0 time=60\n",
      "note_on channel=9 note=35 velocity=127 time=0\n",
      "note_on channel=9 note=42 velocity=0 time=60\n",
      "note_on channel=9 note=35 velocity=0 time=0\n",
      "note_on channel=9 note=38 velocity=127 time=0\n",
      "note_on channel=9 note=42 velocity=127 time=0\n",
      "note_on channel=9 note=38 velocity=0 time=120\n",
      "note_on channel=9 note=42 velocity=0 time=0\n",
      "note_on channel=9 note=35 velocity=127 time=0\n",
      "note_on channel=9 note=42 velocity=127 time=0\n",
      "note_on channel=9 note=35 velocity=0 time=120\n",
      "note_on channel=9 note=42 velocity=0 time=0\n",
      "note_on channel=9 note=38 velocity=127 time=0\n",
      "note_on channel=9 note=42 velocity=127 time=0\n",
      "note_on channel=9 note=38 velocity=0 time=120\n",
      "note_on channel=9 note=42 velocity=0 time=0\n",
      "note_on channel=9 note=35 velocity=127 time=0\n",
      "note_on channel=9 note=42 velocity=127 time=0\n",
      "note_on channel=9 note=35 velocity=0 time=60\n",
      "note_on channel=9 note=35 velocity=127 time=0\n",
      "note_on channel=9 note=42 velocity=0 time=60\n",
      "note_on channel=9 note=35 velocity=0 time=0\n",
      "note_on channel=9 note=42 velocity=127 time=0\n",
      "note_on channel=9 note=38 velocity=127 time=0\n",
      "note_on channel=9 note=42 velocity=0 time=120\n",
      "note_on channel=9 note=38 velocity=0 time=0\n",
      "note_on channel=9 note=42 velocity=127 time=0\n",
      "note_on channel=9 note=35 velocity=127 time=0\n",
      "note_on channel=9 note=42 velocity=0 time=60\n",
      "note_on channel=9 note=35 velocity=0 time=0\n",
      "note_on channel=9 note=57 velocity=127 time=0\n",
      "note_on channel=9 note=38 velocity=127 time=0\n",
      "note_on channel=9 note=57 velocity=0 time=120\n",
      "note_on channel=9 note=38 velocity=0 time=0\n",
      "note_on channel=9 note=57 velocity=127 time=0\n",
      "note_on channel=9 note=38 velocity=127 time=0\n",
      "note_on channel=9 note=57 velocity=0 time=120\n",
      "note_on channel=9 note=38 velocity=0 time=0\n",
      "note_on channel=9 note=38 velocity=127 time=0\n",
      "note_on channel=9 note=38 velocity=0 time=60\n",
      "note_on channel=9 note=38 velocity=127 time=0\n",
      "note_on channel=9 note=38 velocity=0 time=60\n",
      "note_on channel=9 note=38 velocity=127 time=0\n",
      "note_on channel=9 note=38 velocity=0 time=60\n",
      "note_on channel=9 note=38 velocity=127 time=0\n",
      "note_on channel=9 note=38 velocity=0 time=60\n",
      "note_on channel=9 note=38 velocity=127 time=0\n",
      "note_on channel=9 note=38 velocity=0 time=60\n",
      "note_on channel=9 note=38 velocity=127 time=0\n",
      "note_on channel=9 note=38 velocity=0 time=60\n",
      "note_on channel=9 note=38 velocity=127 time=0\n",
      "note_on channel=9 note=38 velocity=0 time=60\n",
      "note_on channel=9 note=38 velocity=127 time=0\n",
      "note_on channel=9 note=38 velocity=0 time=60\n",
      "note_on channel=9 note=57 velocity=127 time=0\n",
      "note_on channel=9 note=35 velocity=127 time=0\n",
      "note_on channel=9 note=57 velocity=0 time=120\n",
      "note_on channel=9 note=35 velocity=0 time=0\n",
      "note_on channel=9 note=42 velocity=127 time=0\n",
      "note_on channel=9 note=35 velocity=127 time=60\n",
      "note_on channel=9 note=35 velocity=0 time=20\n",
      "note_on channel=9 note=36 velocity=127 time=0\n",
      "note_on channel=9 note=36 velocity=0 time=20\n",
      "note_on channel=9 note=35 velocity=127 time=0\n",
      "note_on channel=9 note=42 velocity=0 time=20\n",
      "note_on channel=9 note=35 velocity=0 time=0\n",
      "note_on channel=9 note=57 velocity=127 time=0\n",
      "note_on channel=9 note=38 velocity=127 time=0\n",
      "note_on channel=9 note=57 velocity=0 time=120\n",
      "note_on channel=9 note=38 velocity=0 time=0\n",
      "note_on channel=9 note=57 velocity=127 time=0\n",
      "note_on channel=9 note=38 velocity=127 time=0\n",
      "note_on channel=9 note=57 velocity=0 time=120\n",
      "note_on channel=9 note=38 velocity=0 time=0\n",
      "note_on channel=9 note=35 velocity=127 time=0\n",
      "note_on channel=9 note=42 velocity=127 time=0\n",
      "note_on channel=9 note=35 velocity=0 time=120\n",
      "note_on channel=9 note=42 velocity=0 time=0\n",
      "note_on channel=9 note=42 velocity=127 time=0\n",
      "note_on channel=9 note=35 velocity=127 time=60\n",
      "note_on channel=9 note=35 velocity=0 time=20\n",
      "note_on channel=9 note=36 velocity=127 time=0\n",
      "note_on channel=9 note=36 velocity=0 time=20\n",
      "note_on channel=9 note=35 velocity=127 time=0\n",
      "note_on channel=9 note=42 velocity=0 time=20\n",
      "note_on channel=9 note=35 velocity=0 time=0\n",
      "note_on channel=9 note=38 velocity=127 time=0\n",
      "note_on channel=9 note=42 velocity=127 time=0\n",
      "note_on channel=9 note=38 velocity=0 time=120\n",
      "note_on channel=9 note=42 velocity=0 time=0\n",
      "note_on channel=9 note=38 velocity=127 time=0\n",
      "note_on channel=9 note=42 velocity=127 time=0\n",
      "note_on channel=9 note=38 velocity=0 time=120\n",
      "note_on channel=9 note=42 velocity=0 time=0\n",
      "note_on channel=9 note=35 velocity=127 time=0\n",
      "note_on channel=9 note=42 velocity=127 time=0\n",
      "note_on channel=9 note=35 velocity=0 time=120\n",
      "note_on channel=9 note=42 velocity=0 time=0\n",
      "note_on channel=9 note=42 velocity=127 time=0\n",
      "note_on channel=9 note=35 velocity=127 time=60\n",
      "note_on channel=9 note=35 velocity=0 time=20\n",
      "note_on channel=9 note=36 velocity=127 time=0\n",
      "note_on channel=9 note=36 velocity=0 time=20\n",
      "note_on channel=9 note=35 velocity=127 time=0\n",
      "note_on channel=9 note=42 velocity=0 time=20\n",
      "note_on channel=9 note=35 velocity=0 time=0\n",
      "note_on channel=9 note=57 velocity=127 time=0\n",
      "note_on channel=9 note=38 velocity=127 time=0\n",
      "note_on channel=9 note=57 velocity=0 time=120\n",
      "note_on channel=9 note=38 velocity=0 time=0\n",
      "note_on channel=9 note=57 velocity=127 time=0\n",
      "note_on channel=9 note=38 velocity=127 time=0\n",
      "note_on channel=9 note=57 velocity=0 time=120\n",
      "note_on channel=9 note=38 velocity=0 time=0\n",
      "note_on channel=9 note=45 velocity=127 time=0\n",
      "note_on channel=9 note=45 velocity=0 time=30\n",
      "note_on channel=9 note=45 velocity=127 time=0\n",
      "note_on channel=9 note=45 velocity=0 time=30\n",
      "note_on channel=9 note=45 velocity=127 time=0\n",
      "note_on channel=9 note=45 velocity=0 time=30\n",
      "note_on channel=9 note=45 velocity=127 time=0\n",
      "note_on channel=9 note=45 velocity=0 time=30\n",
      "note_on channel=9 note=47 velocity=127 time=0\n",
      "note_on channel=9 note=47 velocity=0 time=30\n",
      "note_on channel=9 note=47 velocity=127 time=0\n",
      "note_on channel=9 note=47 velocity=0 time=30\n",
      "note_on channel=9 note=47 velocity=127 time=0\n",
      "note_on channel=9 note=47 velocity=0 time=30\n",
      "note_on channel=9 note=47 velocity=127 time=0\n",
      "note_on channel=9 note=47 velocity=0 time=30\n",
      "note_on channel=9 note=48 velocity=127 time=0\n",
      "note_on channel=9 note=48 velocity=0 time=30\n",
      "note_on channel=9 note=48 velocity=127 time=0\n",
      "note_on channel=9 note=48 velocity=0 time=30\n",
      "note_on channel=9 note=48 velocity=127 time=0\n",
      "note_on channel=9 note=48 velocity=0 time=30\n",
      "note_on channel=9 note=48 velocity=127 time=0\n",
      "note_on channel=9 note=48 velocity=0 time=30\n",
      "note_on channel=9 note=50 velocity=127 time=0\n",
      "note_on channel=9 note=50 velocity=0 time=30\n",
      "note_on channel=9 note=50 velocity=127 time=0\n",
      "note_on channel=9 note=50 velocity=0 time=30\n",
      "note_on channel=9 note=50 velocity=127 time=0\n",
      "note_on channel=9 note=50 velocity=0 time=30\n",
      "note_on channel=9 note=50 velocity=127 time=0\n",
      "note_on channel=9 note=50 velocity=0 time=30\n",
      "note_on channel=9 note=35 velocity=127 time=0\n",
      "note_on channel=9 note=43 velocity=127 time=0\n",
      "note_on channel=9 note=35 velocity=0 time=120\n",
      "note_on channel=9 note=43 velocity=0 time=0\n",
      "note_on channel=9 note=35 velocity=127 time=0\n",
      "note_on channel=9 note=35 velocity=0 time=60\n",
      "note_on channel=9 note=35 velocity=127 time=0\n",
      "note_on channel=9 note=35 velocity=0 time=60\n",
      "note_on channel=9 note=57 velocity=127 time=0\n",
      "note_on channel=9 note=38 velocity=127 time=0\n",
      "note_on channel=9 note=57 velocity=0 time=120\n",
      "note_on channel=9 note=38 velocity=0 time=0\n",
      "note_on channel=9 note=38 velocity=127 time=0\n",
      "note_on channel=9 note=57 velocity=127 time=0\n",
      "note_on channel=9 note=38 velocity=0 time=120\n",
      "note_on channel=9 note=57 velocity=0 time=0\n",
      "note_on channel=9 note=35 velocity=127 time=0\n",
      "note_on channel=9 note=42 velocity=127 time=0\n",
      "note_on channel=9 note=35 velocity=0 time=120\n",
      "note_on channel=9 note=42 velocity=0 time=0\n",
      "note_on channel=9 note=42 velocity=127 time=0\n",
      "note_on channel=9 note=35 velocity=127 time=60\n",
      "note_on channel=9 note=35 velocity=0 time=20\n",
      "note_on channel=9 note=36 velocity=127 time=0\n",
      "note_on channel=9 note=36 velocity=0 time=20\n",
      "note_on channel=9 note=35 velocity=127 time=0\n",
      "note_on channel=9 note=42 velocity=0 time=20\n",
      "note_on channel=9 note=35 velocity=0 time=0\n",
      "note_on channel=9 note=38 velocity=127 time=0\n",
      "note_on channel=9 note=42 velocity=127 time=0\n",
      "note_on channel=9 note=38 velocity=0 time=120\n",
      "note_on channel=9 note=42 velocity=0 time=0\n",
      "note_on channel=9 note=38 velocity=127 time=0\n",
      "note_on channel=9 note=42 velocity=127 time=0\n",
      "note_on channel=9 note=38 velocity=0 time=120\n",
      "note_on channel=9 note=42 velocity=0 time=0\n",
      "note_on channel=9 note=35 velocity=127 time=0\n",
      "note_on channel=9 note=42 velocity=127 time=0\n",
      "note_on channel=9 note=35 velocity=0 time=120\n",
      "note_on channel=9 note=42 velocity=0 time=0\n",
      "note_on channel=9 note=42 velocity=127 time=0\n",
      "note_on channel=9 note=35 velocity=127 time=60\n",
      "note_on channel=9 note=35 velocity=0 time=20\n",
      "note_on channel=9 note=36 velocity=127 time=0\n",
      "note_on channel=9 note=36 velocity=0 time=20\n",
      "note_on channel=9 note=35 velocity=127 time=0\n",
      "note_on channel=9 note=42 velocity=0 time=20\n",
      "note_on channel=9 note=35 velocity=0 time=0\n",
      "note_on channel=9 note=57 velocity=127 time=0\n",
      "note_on channel=9 note=38 velocity=127 time=0\n",
      "note_on channel=9 note=57 velocity=0 time=120\n",
      "note_on channel=9 note=38 velocity=0 time=0\n",
      "note_on channel=9 note=57 velocity=127 time=0\n",
      "note_on channel=9 note=38 velocity=127 time=0\n",
      "note_on channel=9 note=57 velocity=0 time=120\n",
      "note_on channel=9 note=38 velocity=0 time=0\n",
      "note_on channel=9 note=45 velocity=127 time=0\n",
      "note_on channel=9 note=45 velocity=0 time=30\n",
      "note_on channel=9 note=45 velocity=127 time=0\n",
      "note_on channel=9 note=45 velocity=0 time=30\n",
      "note_on channel=9 note=45 velocity=127 time=0\n",
      "note_on channel=9 note=45 velocity=0 time=30\n",
      "note_on channel=9 note=45 velocity=127 time=0\n",
      "note_on channel=9 note=45 velocity=0 time=30\n",
      "note_on channel=9 note=47 velocity=127 time=0\n",
      "note_on channel=9 note=47 velocity=0 time=60\n",
      "note_on channel=9 note=47 velocity=127 time=0\n",
      "note_on channel=9 note=47 velocity=0 time=60\n",
      "note_on channel=9 note=48 velocity=127 time=0\n",
      "note_on channel=9 note=48 velocity=0 time=60\n",
      "note_on channel=9 note=48 velocity=127 time=0\n",
      "note_on channel=9 note=48 velocity=0 time=60\n",
      "note_on channel=9 note=50 velocity=127 time=0\n",
      "note_on channel=9 note=50 velocity=0 time=60\n",
      "note_on channel=9 note=50 velocity=127 time=0\n",
      "note_on channel=9 note=50 velocity=0 time=60\n",
      "note_on channel=9 note=35 velocity=127 time=0\n",
      "note_on channel=9 note=43 velocity=127 time=0\n",
      "note_on channel=9 note=35 velocity=0 time=120\n",
      "note_on channel=9 note=43 velocity=0 time=0\n",
      "note_on channel=9 note=35 velocity=127 time=0\n",
      "note_on channel=9 note=35 velocity=0 time=60\n",
      "note_on channel=9 note=35 velocity=127 time=0\n",
      "note_on channel=9 note=35 velocity=0 time=60\n",
      "note_on channel=9 note=57 velocity=127 time=0\n",
      "note_on channel=9 note=38 velocity=127 time=0\n",
      "note_on channel=9 note=57 velocity=0 time=120\n",
      "note_on channel=9 note=38 velocity=0 time=0\n",
      "note_on channel=9 note=38 velocity=127 time=0\n",
      "note_on channel=9 note=57 velocity=127 time=0\n",
      "note_on channel=9 note=38 velocity=0 time=120\n",
      "note_on channel=9 note=57 velocity=0 time=0\n",
      "note_on channel=9 note=42 velocity=127 time=0\n",
      "note_on channel=9 note=35 velocity=127 time=0\n",
      "note_on channel=9 note=42 velocity=0 time=120\n",
      "note_on channel=9 note=35 velocity=0 time=0\n",
      "note_on channel=9 note=42 velocity=127 time=0\n",
      "note_on channel=9 note=35 velocity=127 time=60\n",
      "note_on channel=9 note=35 velocity=0 time=20\n",
      "note_on channel=9 note=36 velocity=127 time=0\n",
      "note_on channel=9 note=36 velocity=0 time=20\n",
      "note_on channel=9 note=35 velocity=127 time=0\n",
      "note_on channel=9 note=42 velocity=0 time=20\n",
      "note_on channel=9 note=35 velocity=0 time=0\n",
      "note_on channel=9 note=38 velocity=127 time=0\n",
      "note_on channel=9 note=42 velocity=127 time=0\n",
      "note_on channel=9 note=38 velocity=0 time=120\n",
      "note_on channel=9 note=42 velocity=0 time=0\n",
      "note_on channel=9 note=38 velocity=127 time=0\n",
      "note_on channel=9 note=42 velocity=127 time=0\n",
      "note_on channel=9 note=38 velocity=0 time=120\n",
      "note_on channel=9 note=42 velocity=0 time=0\n",
      "note_on channel=9 note=42 velocity=127 time=0\n",
      "note_on channel=9 note=35 velocity=127 time=0\n",
      "note_on channel=9 note=42 velocity=0 time=120\n",
      "note_on channel=9 note=35 velocity=0 time=0\n",
      "note_on channel=9 note=42 velocity=127 time=0\n",
      "note_on channel=9 note=35 velocity=127 time=60\n",
      "note_on channel=9 note=35 velocity=0 time=20\n",
      "note_on channel=9 note=36 velocity=127 time=0\n",
      "note_on channel=9 note=36 velocity=0 time=20\n",
      "note_on channel=9 note=35 velocity=127 time=0\n",
      "note_on channel=9 note=42 velocity=0 time=20\n",
      "note_on channel=9 note=35 velocity=0 time=0\n",
      "note_on channel=9 note=57 velocity=127 time=0\n",
      "note_on channel=9 note=38 velocity=127 time=0\n",
      "note_on channel=9 note=57 velocity=0 time=120\n",
      "note_on channel=9 note=38 velocity=0 time=0\n",
      "note_on channel=9 note=57 velocity=127 time=0\n",
      "note_on channel=9 note=38 velocity=127 time=0\n",
      "note_on channel=9 note=57 velocity=0 time=120\n",
      "note_on channel=9 note=38 velocity=0 time=0\n",
      "note_on channel=9 note=45 velocity=127 time=0\n",
      "note_on channel=9 note=45 velocity=0 time=30\n",
      "note_on channel=9 note=45 velocity=127 time=0\n",
      "note_on channel=9 note=45 velocity=0 time=30\n",
      "note_on channel=9 note=45 velocity=127 time=0\n",
      "note_on channel=9 note=45 velocity=0 time=30\n",
      "note_on channel=9 note=45 velocity=127 time=0\n",
      "note_on channel=9 note=45 velocity=0 time=30\n",
      "note_on channel=9 note=47 velocity=127 time=0\n",
      "note_on channel=9 note=47 velocity=0 time=30\n",
      "note_on channel=9 note=47 velocity=127 time=0\n",
      "note_on channel=9 note=47 velocity=0 time=30\n",
      "note_on channel=9 note=47 velocity=127 time=0\n",
      "note_on channel=9 note=47 velocity=0 time=30\n",
      "note_on channel=9 note=47 velocity=127 time=0\n",
      "note_on channel=9 note=47 velocity=0 time=30\n",
      "note_on channel=9 note=48 velocity=127 time=0\n",
      "note_on channel=9 note=48 velocity=0 time=30\n",
      "note_on channel=9 note=48 velocity=127 time=0\n",
      "note_on channel=9 note=48 velocity=0 time=30\n",
      "note_on channel=9 note=48 velocity=127 time=0\n",
      "note_on channel=9 note=48 velocity=0 time=30\n",
      "note_on channel=9 note=48 velocity=127 time=0\n",
      "note_on channel=9 note=48 velocity=0 time=30\n",
      "note_on channel=9 note=50 velocity=127 time=0\n",
      "note_on channel=9 note=50 velocity=0 time=30\n",
      "note_on channel=9 note=50 velocity=127 time=0\n",
      "note_on channel=9 note=50 velocity=0 time=30\n",
      "note_on channel=9 note=50 velocity=127 time=0\n",
      "note_on channel=9 note=50 velocity=0 time=30\n",
      "note_on channel=9 note=50 velocity=127 time=0\n",
      "note_on channel=9 note=50 velocity=0 time=30\n",
      "note_on channel=9 note=35 velocity=127 time=0\n",
      "note_on channel=9 note=43 velocity=127 time=0\n",
      "note_on channel=9 note=35 velocity=0 time=120\n",
      "note_on channel=9 note=43 velocity=0 time=0\n",
      "note_on channel=9 note=35 velocity=127 time=0\n",
      "note_on channel=9 note=35 velocity=0 time=60\n",
      "note_on channel=9 note=35 velocity=127 time=0\n",
      "note_on channel=9 note=35 velocity=0 time=60\n",
      "note_on channel=9 note=57 velocity=127 time=0\n",
      "note_on channel=9 note=38 velocity=127 time=0\n",
      "note_on channel=9 note=57 velocity=0 time=120\n",
      "note_on channel=9 note=38 velocity=0 time=0\n",
      "note_on channel=9 note=57 velocity=127 time=0\n",
      "note_on channel=9 note=38 velocity=127 time=0\n",
      "note_on channel=9 note=57 velocity=0 time=120\n",
      "note_on channel=9 note=38 velocity=0 time=0\n",
      "note_on channel=9 note=35 velocity=127 time=0\n",
      "note_on channel=9 note=42 velocity=127 time=0\n",
      "note_on channel=9 note=35 velocity=0 time=120\n",
      "note_on channel=9 note=42 velocity=0 time=0\n",
      "note_on channel=9 note=42 velocity=127 time=0\n",
      "note_on channel=9 note=35 velocity=127 time=60\n",
      "note_on channel=9 note=35 velocity=0 time=20\n",
      "note_on channel=9 note=36 velocity=127 time=0\n",
      "note_on channel=9 note=36 velocity=0 time=20\n",
      "note_on channel=9 note=35 velocity=127 time=0\n",
      "note_on channel=9 note=42 velocity=0 time=20\n",
      "note_on channel=9 note=35 velocity=0 time=0\n",
      "note_on channel=9 note=42 velocity=127 time=0\n",
      "note_on channel=9 note=38 velocity=127 time=0\n",
      "note_on channel=9 note=42 velocity=0 time=120\n",
      "note_on channel=9 note=38 velocity=0 time=0\n",
      "note_on channel=9 note=38 velocity=127 time=0\n",
      "note_on channel=9 note=42 velocity=127 time=0\n",
      "note_on channel=9 note=38 velocity=0 time=120\n",
      "note_on channel=9 note=42 velocity=0 time=0\n",
      "note_on channel=9 note=35 velocity=127 time=0\n",
      "note_on channel=9 note=42 velocity=127 time=0\n",
      "note_on channel=9 note=35 velocity=0 time=120\n",
      "note_on channel=9 note=42 velocity=0 time=0\n",
      "note_on channel=9 note=42 velocity=127 time=0\n",
      "note_on channel=9 note=35 velocity=127 time=60\n",
      "note_on channel=9 note=35 velocity=0 time=20\n",
      "note_on channel=9 note=36 velocity=127 time=0\n",
      "note_on channel=9 note=36 velocity=0 time=20\n",
      "note_on channel=9 note=35 velocity=127 time=0\n",
      "note_on channel=9 note=42 velocity=0 time=20\n",
      "note_on channel=9 note=35 velocity=0 time=0\n",
      "note_on channel=9 note=57 velocity=127 time=0\n",
      "note_on channel=9 note=38 velocity=127 time=0\n",
      "note_on channel=9 note=57 velocity=0 time=120\n",
      "note_on channel=9 note=38 velocity=0 time=0\n",
      "note_on channel=9 note=57 velocity=127 time=0\n",
      "note_on channel=9 note=38 velocity=127 time=0\n",
      "note_on channel=9 note=57 velocity=0 time=120\n",
      "note_on channel=9 note=38 velocity=0 time=0\n",
      "note_on channel=9 note=38 velocity=127 time=0\n",
      "note_on channel=9 note=38 velocity=0 time=30\n",
      "note_on channel=9 note=38 velocity=127 time=0\n",
      "note_on channel=9 note=38 velocity=0 time=30\n",
      "note_on channel=9 note=38 velocity=127 time=0\n",
      "note_on channel=9 note=38 velocity=0 time=30\n",
      "note_on channel=9 note=38 velocity=127 time=0\n",
      "note_on channel=9 note=38 velocity=0 time=30\n",
      "note_on channel=9 note=38 velocity=127 time=0\n",
      "note_on channel=9 note=38 velocity=0 time=120\n",
      "note_on channel=9 note=45 velocity=127 time=0\n",
      "note_on channel=9 note=45 velocity=0 time=30\n",
      "note_on channel=9 note=45 velocity=127 time=0\n",
      "note_on channel=9 note=45 velocity=0 time=30\n",
      "note_on channel=9 note=45 velocity=127 time=0\n",
      "note_on channel=9 note=45 velocity=0 time=30\n",
      "note_on channel=9 note=45 velocity=127 time=0\n",
      "note_on channel=9 note=45 velocity=0 time=30\n",
      "note_on channel=9 note=45 velocity=127 time=0\n",
      "note_on channel=9 note=45 velocity=0 time=120\n",
      "note_on channel=9 note=35 velocity=127 time=0\n",
      "note_on channel=9 note=57 velocity=127 time=0\n",
      "note_on channel=9 note=35 velocity=0 time=120\n",
      "note_on channel=9 note=57 velocity=0 time=0\n",
      "note_on channel=9 note=35 velocity=127 time=0\n",
      "note_on channel=9 note=57 velocity=127 time=0\n",
      "note_on channel=9 note=35 velocity=0 time=120\n",
      "note_on channel=9 note=57 velocity=0 time=0\n",
      "note_on channel=9 note=35 velocity=127 time=240\n",
      "note_on channel=9 note=57 velocity=127 time=0\n",
      "note_on channel=9 note=35 velocity=0 time=120\n",
      "note_on channel=9 note=57 velocity=0 time=0\n",
      "note_on channel=9 note=57 velocity=127 time=0\n",
      "note_on channel=9 note=35 velocity=127 time=0\n",
      "note_on channel=9 note=57 velocity=0 time=120\n",
      "note_on channel=9 note=35 velocity=0 time=0\n",
      "note_on channel=9 note=35 velocity=127 time=240\n",
      "note_on channel=9 note=57 velocity=127 time=0\n",
      "note_on channel=9 note=35 velocity=0 time=120\n",
      "note_on channel=9 note=57 velocity=0 time=0\n",
      "note_on channel=9 note=38 velocity=127 time=0\n",
      "note_on channel=9 note=42 velocity=127 time=0\n",
      "note_on channel=9 note=38 velocity=0 time=120\n",
      "note_on channel=9 note=42 velocity=0 time=0\n",
      "note_on channel=9 note=35 velocity=127 time=0\n",
      "note_on channel=9 note=42 velocity=127 time=0\n",
      "note_on channel=9 note=35 velocity=0 time=60\n",
      "note_on channel=9 note=35 velocity=127 time=0\n",
      "note_on channel=9 note=42 velocity=0 time=60\n",
      "note_on channel=9 note=35 velocity=0 time=0\n",
      "note_on channel=9 note=38 velocity=127 time=0\n",
      "note_on channel=9 note=42 velocity=127 time=0\n",
      "note_on channel=9 note=38 velocity=0 time=120\n",
      "note_on channel=9 note=42 velocity=0 time=0\n",
      "note_on channel=9 note=35 velocity=127 time=0\n",
      "note_on channel=9 note=57 velocity=127 time=0\n",
      "note_on channel=9 note=35 velocity=0 time=120\n",
      "note_on channel=9 note=57 velocity=0 time=0\n",
      "note_on channel=9 note=42 velocity=127 time=0\n",
      "note_on channel=9 note=38 velocity=127 time=0\n",
      "note_on channel=9 note=42 velocity=0 time=120\n",
      "note_on channel=9 note=38 velocity=0 time=0\n",
      "note_on channel=9 note=35 velocity=127 time=0\n",
      "note_on channel=9 note=42 velocity=127 time=0\n",
      "note_on channel=9 note=35 velocity=0 time=120\n",
      "note_on channel=9 note=42 velocity=0 time=0\n",
      "note_on channel=9 note=38 velocity=127 time=0\n",
      "note_on channel=9 note=42 velocity=127 time=0\n",
      "note_on channel=9 note=35 velocity=127 time=60\n",
      "note_on channel=9 note=38 velocity=0 time=60\n",
      "note_on channel=9 note=42 velocity=0 time=0\n",
      "note_on channel=9 note=35 velocity=0 time=0\n",
      "note_on channel=9 note=42 velocity=127 time=0\n",
      "note_on channel=9 note=35 velocity=127 time=60\n",
      "note_on channel=9 note=42 velocity=0 time=60\n",
      "note_on channel=9 note=35 velocity=0 time=0\n",
      "note_on channel=9 note=38 velocity=127 time=0\n",
      "note_on channel=9 note=42 velocity=127 time=0\n",
      "note_on channel=9 note=38 velocity=0 time=120\n",
      "note_on channel=9 note=42 velocity=0 time=0\n",
      "note_on channel=9 note=35 velocity=127 time=0\n",
      "note_on channel=9 note=42 velocity=127 time=0\n",
      "note_on channel=9 note=35 velocity=0 time=60\n",
      "note_on channel=9 note=35 velocity=127 time=0\n",
      "note_on channel=9 note=42 velocity=0 time=60\n",
      "note_on channel=9 note=35 velocity=0 time=0\n",
      "note_on channel=9 note=42 velocity=127 time=0\n",
      "note_on channel=9 note=38 velocity=127 time=0\n",
      "note_on channel=9 note=35 velocity=127 time=60\n",
      "note_on channel=9 note=42 velocity=0 time=60\n",
      "note_on channel=9 note=38 velocity=0 time=0\n",
      "note_on channel=9 note=35 velocity=0 time=0\n",
      "note_on channel=9 note=42 velocity=127 time=0\n",
      "note_on channel=9 note=35 velocity=127 time=60\n",
      "note_on channel=9 note=35 velocity=0 time=20\n",
      "note_on channel=9 note=36 velocity=127 time=0\n",
      "note_on channel=9 note=36 velocity=0 time=20\n",
      "note_on channel=9 note=35 velocity=127 time=0\n",
      "note_on channel=9 note=42 velocity=0 time=20\n",
      "note_on channel=9 note=35 velocity=0 time=0\n",
      "note_on channel=9 note=38 velocity=127 time=0\n",
      "note_on channel=9 note=42 velocity=127 time=0\n",
      "note_on channel=9 note=38 velocity=0 time=120\n",
      "note_on channel=9 note=42 velocity=0 time=0\n",
      "note_on channel=9 note=35 velocity=127 time=0\n",
      "note_on channel=9 note=57 velocity=127 time=0\n",
      "note_on channel=9 note=35 velocity=0 time=120\n",
      "note_on channel=9 note=57 velocity=0 time=0\n",
      "note_on channel=9 note=42 velocity=127 time=0\n",
      "note_on channel=9 note=42 velocity=0 time=120\n",
      "note_on channel=9 note=42 velocity=127 time=0\n",
      "note_on channel=9 note=35 velocity=127 time=0\n",
      "note_on channel=9 note=35 velocity=0 time=60\n",
      "note_on channel=9 note=35 velocity=127 time=0\n",
      "note_on channel=9 note=42 velocity=0 time=60\n",
      "note_on channel=9 note=35 velocity=0 time=0\n",
      "note_on channel=9 note=42 velocity=127 time=0\n",
      "note_on channel=9 note=42 velocity=0 time=120\n",
      "note_on channel=9 note=35 velocity=127 time=0\n",
      "note_on channel=9 note=57 velocity=127 time=0\n",
      "note_on channel=9 note=35 velocity=0 time=120\n",
      "note_on channel=9 note=57 velocity=0 time=0\n",
      "note_on channel=9 note=38 velocity=127 time=0\n",
      "note_on channel=9 note=42 velocity=127 time=0\n",
      "note_on channel=9 note=38 velocity=0 time=120\n",
      "note_on channel=9 note=42 velocity=0 time=0\n",
      "note_on channel=9 note=35 velocity=127 time=0\n",
      "note_on channel=9 note=42 velocity=127 time=0\n",
      "note_on channel=9 note=35 velocity=0 time=120\n",
      "note_on channel=9 note=42 velocity=0 time=0\n",
      "note_on channel=9 note=38 velocity=127 time=0\n",
      "note_on channel=9 note=42 velocity=127 time=0\n",
      "note_on channel=9 note=35 velocity=127 time=60\n",
      "note_on channel=9 note=38 velocity=0 time=60\n",
      "note_on channel=9 note=42 velocity=0 time=0\n",
      "note_on channel=9 note=35 velocity=0 time=0\n",
      "note_on channel=9 note=42 velocity=127 time=0\n",
      "note_on channel=9 note=35 velocity=127 time=60\n",
      "note_on channel=9 note=42 velocity=0 time=60\n",
      "note_on channel=9 note=35 velocity=0 time=0\n",
      "note_on channel=9 note=36 velocity=127 time=0\n",
      "note_on channel=9 note=42 velocity=127 time=0\n",
      "note_on channel=9 note=36 velocity=0 time=120\n",
      "note_on channel=9 note=42 velocity=0 time=0\n",
      "note_on channel=9 note=42 velocity=127 time=0\n",
      "note_on channel=9 note=42 velocity=0 time=60\n",
      "note_on channel=9 note=38 velocity=127 time=0\n",
      "note_on channel=9 note=38 velocity=0 time=60\n",
      "note_on channel=9 note=38 velocity=127 time=0\n",
      "note_on channel=9 note=38 velocity=0 time=60\n",
      "note_on channel=9 note=38 velocity=127 time=0\n",
      "note_on channel=9 note=38 velocity=0 time=60\n",
      "note_on channel=9 note=38 velocity=127 time=0\n",
      "note_on channel=9 note=38 velocity=0 time=60\n",
      "note_on channel=9 note=38 velocity=127 time=0\n",
      "note_on channel=9 note=38 velocity=0 time=60\n",
      "note_on channel=9 note=38 velocity=127 time=0\n",
      "note_on channel=9 note=38 velocity=0 time=60\n",
      "note_on channel=9 note=38 velocity=127 time=0\n",
      "note_on channel=9 note=38 velocity=0 time=60\n",
      "note_on channel=9 note=57 velocity=127 time=0\n",
      "note_on channel=9 note=35 velocity=127 time=0\n",
      "note_on channel=9 note=57 velocity=0 time=120\n",
      "note_on channel=9 note=35 velocity=0 time=0\n",
      "note_on channel=9 note=42 velocity=127 time=0\n",
      "note_on channel=9 note=38 velocity=127 time=0\n",
      "note_on channel=9 note=42 velocity=0 time=120\n",
      "note_on channel=9 note=38 velocity=0 time=0\n",
      "note_on channel=9 note=42 velocity=127 time=0\n",
      "note_on channel=9 note=35 velocity=127 time=0\n",
      "note_on channel=9 note=35 velocity=0 time=60\n",
      "note_on channel=9 note=35 velocity=127 time=0\n",
      "note_on channel=9 note=42 velocity=0 time=60\n",
      "note_on channel=9 note=35 velocity=0 time=0\n",
      "note_on channel=9 note=38 velocity=127 time=0\n",
      "note_on channel=9 note=42 velocity=127 time=0\n",
      "note_on channel=9 note=38 velocity=0 time=120\n",
      "note_on channel=9 note=42 velocity=0 time=0\n",
      "note_on channel=9 note=35 velocity=127 time=0\n",
      "note_on channel=9 note=57 velocity=127 time=0\n",
      "note_on channel=9 note=35 velocity=0 time=120\n",
      "note_on channel=9 note=57 velocity=0 time=0\n",
      "note_on channel=9 note=38 velocity=127 time=0\n",
      "note_on channel=9 note=42 velocity=127 time=0\n",
      "note_on channel=9 note=38 velocity=0 time=120\n",
      "note_on channel=9 note=42 velocity=0 time=0\n",
      "note_on channel=9 note=42 velocity=127 time=0\n",
      "note_on channel=9 note=35 velocity=127 time=0\n",
      "note_on channel=9 note=42 velocity=0 time=120\n",
      "note_on channel=9 note=35 velocity=0 time=0\n",
      "note_on channel=9 note=38 velocity=127 time=0\n",
      "note_on channel=9 note=42 velocity=127 time=0\n",
      "note_on channel=9 note=35 velocity=127 time=60\n",
      "note_on channel=9 note=38 velocity=0 time=60\n",
      "note_on channel=9 note=42 velocity=0 time=0\n",
      "note_on channel=9 note=35 velocity=0 time=0\n",
      "note_on channel=9 note=42 velocity=127 time=0\n",
      "note_on channel=9 note=35 velocity=127 time=60\n",
      "note_on channel=9 note=42 velocity=0 time=60\n",
      "note_on channel=9 note=35 velocity=0 time=0\n",
      "note_on channel=9 note=38 velocity=127 time=0\n",
      "note_on channel=9 note=42 velocity=127 time=0\n",
      "note_on channel=9 note=38 velocity=0 time=120\n",
      "note_on channel=9 note=42 velocity=0 time=0\n",
      "note_on channel=9 note=35 velocity=127 time=0\n",
      "note_on channel=9 note=57 velocity=127 time=0\n",
      "note_on channel=9 note=35 velocity=0 time=120\n",
      "note_on channel=9 note=57 velocity=0 time=0\n",
      "note_on channel=9 note=38 velocity=127 time=0\n",
      "note_on channel=9 note=42 velocity=127 time=0\n",
      "note_on channel=9 note=38 velocity=0 time=120\n",
      "note_on channel=9 note=42 velocity=0 time=0\n",
      "note_on channel=9 note=35 velocity=127 time=0\n",
      "note_on channel=9 note=42 velocity=127 time=0\n",
      "note_on channel=9 note=35 velocity=0 time=60\n",
      "note_on channel=9 note=35 velocity=127 time=0\n",
      "note_on channel=9 note=42 velocity=0 time=60\n",
      "note_on channel=9 note=35 velocity=0 time=0\n",
      "note_on channel=9 note=42 velocity=127 time=0\n",
      "note_on channel=9 note=38 velocity=127 time=0\n",
      "note_on channel=9 note=42 velocity=0 time=120\n",
      "note_on channel=9 note=38 velocity=0 time=0\n",
      "note_on channel=9 note=35 velocity=127 time=0\n",
      "note_on channel=9 note=57 velocity=127 time=0\n",
      "note_on channel=9 note=35 velocity=0 time=120\n",
      "note_on channel=9 note=57 velocity=0 time=0\n",
      "note_on channel=9 note=38 velocity=127 time=0\n",
      "note_on channel=9 note=42 velocity=127 time=0\n",
      "note_on channel=9 note=38 velocity=0 time=120\n",
      "note_on channel=9 note=42 velocity=0 time=0\n",
      "note_on channel=9 note=35 velocity=127 time=0\n",
      "note_on channel=9 note=57 velocity=127 time=0\n",
      "note_on channel=9 note=35 velocity=0 time=120\n",
      "note_on channel=9 note=57 velocity=0 time=0\n",
      "note_on channel=9 note=38 velocity=127 time=0\n",
      "note_on channel=9 note=42 velocity=127 time=0\n",
      "note_on channel=9 note=35 velocity=127 time=60\n",
      "note_on channel=9 note=38 velocity=0 time=60\n",
      "note_on channel=9 note=42 velocity=0 time=0\n",
      "note_on channel=9 note=35 velocity=0 time=0\n",
      "note_on channel=9 note=42 velocity=127 time=0\n",
      "note_on channel=9 note=35 velocity=127 time=60\n",
      "note_on channel=9 note=42 velocity=0 time=60\n",
      "note_on channel=9 note=35 velocity=0 time=0\n",
      "note_on channel=9 note=42 velocity=127 time=0\n",
      "note_on channel=9 note=38 velocity=127 time=0\n",
      "note_on channel=9 note=42 velocity=0 time=120\n",
      "note_on channel=9 note=38 velocity=0 time=0\n",
      "note_on channel=9 note=35 velocity=127 time=0\n",
      "note_on channel=9 note=57 velocity=127 time=0\n",
      "note_on channel=9 note=35 velocity=0 time=60\n",
      "note_on channel=9 note=35 velocity=127 time=0\n",
      "note_on channel=9 note=57 velocity=0 time=60\n",
      "note_on channel=9 note=35 velocity=0 time=0\n",
      "note_on channel=9 note=38 velocity=127 time=0\n",
      "note_on channel=9 note=42 velocity=127 time=0\n",
      "note_on channel=9 note=38 velocity=0 time=120\n",
      "note_on channel=9 note=42 velocity=0 time=0\n",
      "note_on channel=9 note=35 velocity=127 time=0\n",
      "note_on channel=9 note=57 velocity=127 time=0\n",
      "note_on channel=9 note=35 velocity=0 time=120\n",
      "note_on channel=9 note=57 velocity=0 time=0\n",
      "note_on channel=9 note=35 velocity=127 time=0\n",
      "note_on channel=9 note=57 velocity=127 time=0\n",
      "note_on channel=9 note=35 velocity=0 time=120\n",
      "note_on channel=9 note=57 velocity=0 time=0\n",
      "note_on channel=9 note=35 velocity=127 time=240\n",
      "note_on channel=9 note=57 velocity=127 time=0\n",
      "note_on channel=9 note=35 velocity=0 time=120\n",
      "note_on channel=9 note=57 velocity=0 time=0\n",
      "note_on channel=9 note=57 velocity=127 time=0\n",
      "note_on channel=9 note=35 velocity=127 time=0\n",
      "note_on channel=9 note=57 velocity=0 time=120\n",
      "note_on channel=9 note=35 velocity=0 time=0\n",
      "note_on channel=9 note=35 velocity=127 time=240\n",
      "note_on channel=9 note=57 velocity=127 time=0\n",
      "note_on channel=9 note=35 velocity=0 time=120\n",
      "note_on channel=9 note=57 velocity=0 time=0\n",
      "note_on channel=9 note=38 velocity=127 time=0\n",
      "note_on channel=9 note=42 velocity=127 time=0\n",
      "note_on channel=9 note=38 velocity=0 time=120\n",
      "note_on channel=9 note=42 velocity=0 time=0\n",
      "note_on channel=9 note=35 velocity=127 time=0\n",
      "note_on channel=9 note=42 velocity=127 time=0\n",
      "note_on channel=9 note=35 velocity=0 time=60\n",
      "note_on channel=9 note=35 velocity=127 time=0\n",
      "note_on channel=9 note=42 velocity=0 time=60\n",
      "note_on channel=9 note=35 velocity=0 time=0\n",
      "note_on channel=9 note=38 velocity=127 time=0\n",
      "note_on channel=9 note=42 velocity=127 time=0\n",
      "note_on channel=9 note=38 velocity=0 time=120\n",
      "note_on channel=9 note=42 velocity=0 time=0\n",
      "note_on channel=9 note=57 velocity=127 time=0\n",
      "note_on channel=9 note=35 velocity=127 time=0\n",
      "note_on channel=9 note=57 velocity=0 time=120\n",
      "note_on channel=9 note=35 velocity=0 time=0\n",
      "note_on channel=9 note=38 velocity=127 time=0\n",
      "note_on channel=9 note=42 velocity=127 time=0\n",
      "note_on channel=9 note=38 velocity=0 time=120\n",
      "note_on channel=9 note=42 velocity=0 time=0\n",
      "note_on channel=9 note=35 velocity=127 time=0\n",
      "note_on channel=9 note=57 velocity=127 time=0\n",
      "note_on channel=9 note=35 velocity=0 time=120\n",
      "note_on channel=9 note=57 velocity=0 time=0\n",
      "note_on channel=9 note=38 velocity=127 time=0\n",
      "note_on channel=9 note=42 velocity=127 time=0\n",
      "note_on channel=9 note=35 velocity=127 time=60\n",
      "note_on channel=9 note=38 velocity=0 time=60\n",
      "note_on channel=9 note=42 velocity=0 time=0\n",
      "note_on channel=9 note=35 velocity=0 time=0\n",
      "note_on channel=9 note=42 velocity=127 time=0\n",
      "note_on channel=9 note=35 velocity=127 time=60\n",
      "note_on channel=9 note=42 velocity=0 time=60\n",
      "note_on channel=9 note=35 velocity=0 time=0\n",
      "note_on channel=9 note=38 velocity=127 time=0\n",
      "note_on channel=9 note=42 velocity=127 time=0\n",
      "note_on channel=9 note=38 velocity=0 time=120\n",
      "note_on channel=9 note=42 velocity=0 time=0\n",
      "note_on channel=9 note=42 velocity=127 time=0\n",
      "note_on channel=9 note=35 velocity=127 time=0\n",
      "note_on channel=9 note=35 velocity=0 time=60\n",
      "note_on channel=9 note=35 velocity=127 time=0\n",
      "note_on channel=9 note=42 velocity=0 time=60\n",
      "note_on channel=9 note=35 velocity=0 time=0\n",
      "note_on channel=9 note=42 velocity=127 time=0\n",
      "note_on channel=9 note=38 velocity=127 time=0\n",
      "note_on channel=9 note=42 velocity=0 time=120\n",
      "note_on channel=9 note=38 velocity=0 time=0\n",
      "note_on channel=9 note=38 velocity=127 time=0\n",
      "note_on channel=9 note=38 velocity=0 time=60\n",
      "note_on channel=9 note=38 velocity=127 time=0\n",
      "note_on channel=9 note=38 velocity=0 time=30\n",
      "note_on channel=9 note=38 velocity=127 time=0\n",
      "note_on channel=9 note=38 velocity=0 time=30\n",
      "note_on channel=9 note=38 velocity=127 time=0\n",
      "note_on channel=9 note=38 velocity=0 time=60\n",
      "note_on channel=9 note=38 velocity=127 time=0\n",
      "note_on channel=9 note=38 velocity=0 time=60\n",
      "note_on channel=9 note=35 velocity=127 time=0\n",
      "note_on channel=9 note=57 velocity=127 time=0\n",
      "note_on channel=9 note=35 velocity=0 time=120\n",
      "note_on channel=9 note=57 velocity=0 time=0\n",
      "note_on channel=9 note=35 velocity=127 time=0\n",
      "note_on channel=9 note=57 velocity=127 time=0\n",
      "note_on channel=9 note=35 velocity=0 time=120\n",
      "note_on channel=9 note=57 velocity=0 time=0\n",
      "note_on channel=9 note=57 velocity=127 time=240\n",
      "note_on channel=9 note=35 velocity=127 time=0\n",
      "note_on channel=9 note=57 velocity=0 time=120\n",
      "note_on channel=9 note=35 velocity=0 time=0\n",
      "note_on channel=9 note=35 velocity=127 time=0\n",
      "note_on channel=9 note=57 velocity=127 time=0\n",
      "note_on channel=9 note=35 velocity=0 time=120\n",
      "note_on channel=9 note=57 velocity=0 time=0\n",
      "note_on channel=9 note=35 velocity=127 time=240\n",
      "note_on channel=9 note=57 velocity=127 time=0\n",
      "note_on channel=9 note=35 velocity=0 time=120\n",
      "note_on channel=9 note=57 velocity=0 time=0\n",
      "note_on channel=9 note=38 velocity=127 time=0\n",
      "note_on channel=9 note=42 velocity=127 time=0\n",
      "note_on channel=9 note=38 velocity=0 time=120\n",
      "note_on channel=9 note=42 velocity=0 time=0\n",
      "note_on channel=9 note=42 velocity=127 time=0\n",
      "note_on channel=9 note=42 velocity=0 time=120\n",
      "note_on channel=9 note=38 velocity=127 time=0\n",
      "note_on channel=9 note=42 velocity=127 time=0\n",
      "note_on channel=9 note=35 velocity=127 time=60\n",
      "note_on channel=9 note=38 velocity=0 time=60\n",
      "note_on channel=9 note=42 velocity=0 time=0\n",
      "note_on channel=9 note=35 velocity=0 time=0\n",
      "note_on channel=9 note=42 velocity=127 time=0\n",
      "note_on channel=9 note=35 velocity=127 time=0\n",
      "note_on channel=9 note=42 velocity=0 time=120\n",
      "note_on channel=9 note=35 velocity=0 time=0\n",
      "note_on channel=9 note=42 velocity=127 time=0\n",
      "note_on channel=9 note=38 velocity=127 time=0\n",
      "note_on channel=9 note=35 velocity=127 time=60\n",
      "note_on channel=9 note=42 velocity=0 time=60\n",
      "note_on channel=9 note=38 velocity=0 time=0\n",
      "note_on channel=9 note=35 velocity=0 time=0\n",
      "note_on channel=9 note=42 velocity=127 time=0\n",
      "note_on channel=9 note=35 velocity=127 time=60\n",
      "note_on channel=9 note=42 velocity=0 time=60\n",
      "note_on channel=9 note=35 velocity=0 time=0\n",
      "note_on channel=9 note=38 velocity=127 time=0\n",
      "note_on channel=9 note=42 velocity=127 time=0\n",
      "note_on channel=9 note=38 velocity=0 time=120\n",
      "note_on channel=9 note=42 velocity=0 time=0\n",
      "note_on channel=9 note=42 velocity=127 time=0\n",
      "note_on channel=9 note=35 velocity=127 time=0\n",
      "note_on channel=9 note=35 velocity=0 time=60\n",
      "note_on channel=9 note=35 velocity=127 time=0\n",
      "note_on channel=9 note=42 velocity=0 time=60\n",
      "note_on channel=9 note=35 velocity=0 time=0\n",
      "note_on channel=9 note=38 velocity=127 time=0\n",
      "note_on channel=9 note=42 velocity=127 time=0\n",
      "note_on channel=9 note=35 velocity=127 time=60\n",
      "note_on channel=9 note=38 velocity=0 time=60\n",
      "note_on channel=9 note=42 velocity=0 time=0\n",
      "note_on channel=9 note=35 velocity=0 time=0\n",
      "note_on channel=9 note=42 velocity=127 time=0\n",
      "note_on channel=9 note=35 velocity=127 time=60\n",
      "note_on channel=9 note=42 velocity=0 time=60\n",
      "note_on channel=9 note=35 velocity=0 time=0\n",
      "note_on channel=9 note=38 velocity=127 time=0\n",
      "note_on channel=9 note=42 velocity=127 time=0\n",
      "note_on channel=9 note=35 velocity=127 time=60\n",
      "note_on channel=9 note=38 velocity=0 time=60\n",
      "note_on channel=9 note=42 velocity=0 time=0\n",
      "note_on channel=9 note=35 velocity=0 time=0\n",
      "note_on channel=9 note=42 velocity=127 time=0\n",
      "note_on channel=9 note=35 velocity=127 time=60\n",
      "note_on channel=9 note=42 velocity=0 time=60\n",
      "note_on channel=9 note=35 velocity=0 time=0\n",
      "note_on channel=9 note=38 velocity=127 time=0\n",
      "note_on channel=9 note=42 velocity=127 time=0\n",
      "note_on channel=9 note=38 velocity=0 time=120\n",
      "note_on channel=9 note=42 velocity=0 time=0\n",
      "note_on channel=9 note=42 velocity=127 time=0\n",
      "note_on channel=9 note=35 velocity=127 time=60\n",
      "note_on channel=9 note=35 velocity=0 time=20\n",
      "note_on channel=9 note=36 velocity=127 time=0\n",
      "note_on channel=9 note=36 velocity=0 time=20\n",
      "note_on channel=9 note=35 velocity=127 time=0\n",
      "note_on channel=9 note=42 velocity=0 time=20\n",
      "note_on channel=9 note=35 velocity=0 time=0\n",
      "note_on channel=9 note=38 velocity=127 time=0\n",
      "note_on channel=9 note=42 velocity=127 time=0\n",
      "note_on channel=9 note=38 velocity=0 time=120\n",
      "note_on channel=9 note=42 velocity=0 time=0\n",
      "note_on channel=9 note=35 velocity=127 time=0\n",
      "note_on channel=9 note=57 velocity=127 time=0\n",
      "note_on channel=9 note=35 velocity=0 time=120\n",
      "note_on channel=9 note=57 velocity=0 time=0\n",
      "note_on channel=9 note=42 velocity=127 time=0\n",
      "note_on channel=9 note=38 velocity=127 time=0\n",
      "note_on channel=9 note=42 velocity=0 time=120\n",
      "note_on channel=9 note=38 velocity=0 time=0\n",
      "note_on channel=9 note=35 velocity=127 time=0\n",
      "note_on channel=9 note=42 velocity=127 time=0\n",
      "note_on channel=9 note=35 velocity=0 time=120\n",
      "note_on channel=9 note=42 velocity=0 time=0\n",
      "note_on channel=9 note=38 velocity=127 time=0\n",
      "note_on channel=9 note=42 velocity=127 time=0\n",
      "note_on channel=9 note=35 velocity=127 time=60\n",
      "note_on channel=9 note=38 velocity=0 time=60\n",
      "note_on channel=9 note=42 velocity=0 time=0\n",
      "note_on channel=9 note=35 velocity=0 time=0\n",
      "note_on channel=9 note=42 velocity=127 time=0\n",
      "note_on channel=9 note=35 velocity=127 time=60\n",
      "note_on channel=9 note=42 velocity=0 time=60\n",
      "note_on channel=9 note=35 velocity=0 time=0\n",
      "note_on channel=9 note=38 velocity=127 time=0\n",
      "note_on channel=9 note=42 velocity=127 time=0\n",
      "note_on channel=9 note=38 velocity=0 time=120\n",
      "note_on channel=9 note=42 velocity=0 time=0\n",
      "note_on channel=9 note=38 velocity=127 time=0\n",
      "note_on channel=9 note=38 velocity=0 time=30\n",
      "note_on channel=9 note=38 velocity=127 time=0\n",
      "note_on channel=9 note=38 velocity=0 time=30\n",
      "note_on channel=9 note=38 velocity=127 time=0\n",
      "note_on channel=9 note=38 velocity=0 time=30\n",
      "note_on channel=9 note=38 velocity=127 time=0\n",
      "note_on channel=9 note=38 velocity=0 time=30\n",
      "note_on channel=9 note=38 velocity=127 time=0\n",
      "note_on channel=9 note=38 velocity=0 time=60\n",
      "note_on channel=9 note=38 velocity=127 time=0\n",
      "note_on channel=9 note=38 velocity=0 time=60\n",
      "note_on channel=9 note=35 velocity=127 time=0\n",
      "note_on channel=9 note=57 velocity=127 time=0\n",
      "note_on channel=9 note=35 velocity=0 time=120\n",
      "note_on channel=9 note=57 velocity=0 time=0\n",
      "note_on channel=9 note=38 velocity=127 time=0\n",
      "note_on channel=9 note=42 velocity=127 time=0\n",
      "note_on channel=9 note=38 velocity=0 time=120\n",
      "note_on channel=9 note=42 velocity=0 time=0\n",
      "note_on channel=9 note=42 velocity=127 time=0\n",
      "note_on channel=9 note=35 velocity=127 time=60\n",
      "note_on channel=9 note=42 velocity=0 time=60\n",
      "note_on channel=9 note=35 velocity=0 time=0\n",
      "note_on channel=9 note=38 velocity=127 time=0\n",
      "note_on channel=9 note=42 velocity=127 time=0\n",
      "note_on channel=9 note=38 velocity=0 time=120\n",
      "note_on channel=9 note=42 velocity=0 time=0\n",
      "note_on channel=9 note=35 velocity=127 time=0\n",
      "note_on channel=9 note=57 velocity=127 time=0\n",
      "note_on channel=9 note=35 velocity=0 time=180\n",
      "note_on channel=9 note=57 velocity=0 time=0\n",
      "note_on channel=9 note=57 velocity=127 time=0\n",
      "note_on channel=9 note=35 velocity=127 time=0\n",
      "note_on channel=9 note=57 velocity=0 time=60\n",
      "note_on channel=9 note=35 velocity=0 time=0\n",
      "note_on channel=9 note=35 velocity=127 time=120\n",
      "note_on channel=9 note=57 velocity=127 time=0\n",
      "note_on channel=9 note=35 velocity=0 time=120\n",
      "note_on channel=9 note=57 velocity=0 time=0\n",
      "note_on channel=9 note=57 velocity=127 time=0\n",
      "note_on channel=9 note=35 velocity=127 time=0\n",
      "note_on channel=9 note=57 velocity=0 time=180\n",
      "note_on channel=9 note=35 velocity=0 time=0\n",
      "note_on channel=9 note=57 velocity=127 time=0\n",
      "note_on channel=9 note=35 velocity=127 time=0\n",
      "note_on channel=9 note=57 velocity=0 time=60\n",
      "note_on channel=9 note=35 velocity=0 time=0\n",
      "note_on channel=9 note=35 velocity=127 time=120\n",
      "note_on channel=9 note=57 velocity=127 time=0\n",
      "note_on channel=9 note=35 velocity=0 time=120\n",
      "note_on channel=9 note=57 velocity=0 time=0\n",
      "note_on channel=9 note=42 velocity=127 time=0\n",
      "note_on channel=9 note=35 velocity=127 time=0\n",
      "note_on channel=9 note=42 velocity=0 time=120\n",
      "note_on channel=9 note=35 velocity=0 time=0\n",
      "note_on channel=9 note=38 velocity=127 time=0\n",
      "note_on channel=9 note=42 velocity=127 time=0\n",
      "note_on channel=9 note=38 velocity=0 time=120\n",
      "note_on channel=9 note=42 velocity=0 time=0\n",
      "note_on channel=9 note=35 velocity=127 time=0\n",
      "note_on channel=9 note=42 velocity=127 time=0\n",
      "note_on channel=9 note=35 velocity=0 time=60\n",
      "note_on channel=9 note=35 velocity=127 time=0\n",
      "note_on channel=9 note=42 velocity=0 time=60\n",
      "note_on channel=9 note=35 velocity=0 time=0\n",
      "note_on channel=9 note=38 velocity=127 time=0\n",
      "note_on channel=9 note=42 velocity=127 time=0\n",
      "note_on channel=9 note=38 velocity=0 time=120\n",
      "note_on channel=9 note=42 velocity=0 time=0\n",
      "note_on channel=9 note=35 velocity=127 time=0\n",
      "note_on channel=9 note=42 velocity=127 time=0\n",
      "note_on channel=9 note=35 velocity=0 time=120\n",
      "note_on channel=9 note=42 velocity=0 time=0\n",
      "note_on channel=9 note=38 velocity=127 time=0\n",
      "note_on channel=9 note=42 velocity=127 time=0\n",
      "note_on channel=9 note=38 velocity=0 time=120\n",
      "note_on channel=9 note=42 velocity=0 time=0\n",
      "note_on channel=9 note=35 velocity=127 time=0\n",
      "note_on channel=9 note=42 velocity=127 time=0\n",
      "note_on channel=9 note=35 velocity=0 time=60\n",
      "note_on channel=9 note=35 velocity=127 time=0\n",
      "note_on channel=9 note=42 velocity=0 time=60\n",
      "note_on channel=9 note=35 velocity=0 time=0\n",
      "note_on channel=9 note=42 velocity=127 time=0\n",
      "note_on channel=9 note=38 velocity=127 time=0\n",
      "note_on channel=9 note=42 velocity=0 time=120\n",
      "note_on channel=9 note=38 velocity=0 time=0\n",
      "note_on channel=9 note=35 velocity=127 time=0\n",
      "note_on channel=9 note=42 velocity=127 time=0\n",
      "note_on channel=9 note=35 velocity=0 time=120\n",
      "note_on channel=9 note=42 velocity=0 time=0\n",
      "note_on channel=9 note=38 velocity=127 time=0\n",
      "note_on channel=9 note=42 velocity=127 time=0\n",
      "note_on channel=9 note=38 velocity=0 time=120\n",
      "note_on channel=9 note=42 velocity=0 time=0\n",
      "note_on channel=9 note=35 velocity=127 time=0\n",
      "note_on channel=9 note=42 velocity=127 time=0\n",
      "note_on channel=9 note=35 velocity=0 time=60\n",
      "note_on channel=9 note=35 velocity=127 time=0\n",
      "note_on channel=9 note=42 velocity=0 time=60\n",
      "note_on channel=9 note=35 velocity=0 time=0\n",
      "note_on channel=9 note=38 velocity=127 time=0\n",
      "note_on channel=9 note=42 velocity=127 time=0\n",
      "note_on channel=9 note=38 velocity=0 time=120\n",
      "note_on channel=9 note=42 velocity=0 time=0\n",
      "note_on channel=9 note=35 velocity=127 time=0\n",
      "note_on channel=9 note=42 velocity=127 time=0\n",
      "note_on channel=9 note=35 velocity=0 time=60\n",
      "note_on channel=9 note=42 velocity=0 time=0\n",
      "note_on channel=9 note=38 velocity=127 time=0\n",
      "note_on channel=9 note=57 velocity=127 time=0\n",
      "note_on channel=9 note=38 velocity=0 time=120\n",
      "note_on channel=9 note=57 velocity=0 time=0\n",
      "note_on channel=9 note=57 velocity=127 time=0\n",
      "note_on channel=9 note=38 velocity=127 time=0\n",
      "note_on channel=9 note=57 velocity=0 time=120\n",
      "note_on channel=9 note=38 velocity=0 time=0\n",
      "note_on channel=9 note=35 velocity=127 time=0\n",
      "note_on channel=9 note=42 velocity=127 time=0\n",
      "note_on channel=9 note=35 velocity=0 time=120\n",
      "note_on channel=9 note=42 velocity=0 time=0\n",
      "note_on channel=9 note=38 velocity=127 time=0\n",
      "note_on channel=9 note=42 velocity=127 time=0\n",
      "note_on channel=9 note=38 velocity=0 time=120\n",
      "note_on channel=9 note=42 velocity=0 time=0\n",
      "note_on channel=9 note=35 velocity=127 time=0\n",
      "note_on channel=9 note=42 velocity=127 time=0\n",
      "note_on channel=9 note=35 velocity=0 time=60\n",
      "note_on channel=9 note=35 velocity=127 time=0\n",
      "note_on channel=9 note=42 velocity=0 time=60\n",
      "note_on channel=9 note=35 velocity=0 time=0\n",
      "note_on channel=9 note=38 velocity=127 time=0\n",
      "note_on channel=9 note=42 velocity=127 time=0\n",
      "note_on channel=9 note=38 velocity=0 time=120\n",
      "note_on channel=9 note=42 velocity=0 time=0\n",
      "note_on channel=9 note=42 velocity=127 time=0\n",
      "note_on channel=9 note=35 velocity=127 time=0\n",
      "note_on channel=9 note=42 velocity=0 time=120\n",
      "note_on channel=9 note=35 velocity=0 time=0\n",
      "note_on channel=9 note=38 velocity=127 time=0\n",
      "note_on channel=9 note=42 velocity=127 time=0\n",
      "note_on channel=9 note=38 velocity=0 time=120\n",
      "note_on channel=9 note=42 velocity=0 time=0\n",
      "note_on channel=9 note=35 velocity=127 time=0\n",
      "note_on channel=9 note=42 velocity=127 time=0\n",
      "note_on channel=9 note=35 velocity=0 time=60\n",
      "note_on channel=9 note=35 velocity=127 time=0\n",
      "note_on channel=9 note=42 velocity=0 time=60\n",
      "note_on channel=9 note=35 velocity=0 time=0\n",
      "note_on channel=9 note=38 velocity=127 time=0\n",
      "note_on channel=9 note=42 velocity=127 time=0\n",
      "note_on channel=9 note=38 velocity=0 time=120\n",
      "note_on channel=9 note=42 velocity=0 time=0\n",
      "note_on channel=9 note=35 velocity=127 time=0\n",
      "note_on channel=9 note=42 velocity=127 time=0\n",
      "note_on channel=9 note=35 velocity=0 time=120\n",
      "note_on channel=9 note=42 velocity=0 time=0\n",
      "note_on channel=9 note=42 velocity=127 time=0\n",
      "note_on channel=9 note=38 velocity=127 time=0\n",
      "note_on channel=9 note=42 velocity=0 time=120\n",
      "note_on channel=9 note=38 velocity=0 time=0\n",
      "note_on channel=9 note=35 velocity=127 time=0\n",
      "note_on channel=9 note=42 velocity=127 time=0\n",
      "note_on channel=9 note=35 velocity=0 time=60\n",
      "note_on channel=9 note=35 velocity=127 time=0\n",
      "note_on channel=9 note=42 velocity=0 time=60\n",
      "note_on channel=9 note=35 velocity=0 time=0\n",
      "note_on channel=9 note=38 velocity=127 time=0\n",
      "note_on channel=9 note=42 velocity=127 time=0\n",
      "note_on channel=9 note=38 velocity=0 time=120\n",
      "note_on channel=9 note=42 velocity=0 time=0\n",
      "note_on channel=9 note=35 velocity=127 time=0\n",
      "note_on channel=9 note=42 velocity=127 time=0\n",
      "note_on channel=9 note=35 velocity=0 time=60\n",
      "note_on channel=9 note=42 velocity=0 time=0\n",
      "note_on channel=9 note=57 velocity=127 time=0\n",
      "note_on channel=9 note=38 velocity=127 time=0\n",
      "note_on channel=9 note=57 velocity=0 time=120\n",
      "note_on channel=9 note=38 velocity=0 time=0\n",
      "note_on channel=9 note=57 velocity=127 time=0\n",
      "note_on channel=9 note=38 velocity=127 time=0\n",
      "note_on channel=9 note=57 velocity=0 time=120\n",
      "note_on channel=9 note=38 velocity=0 time=0\n",
      "note_on channel=9 note=35 velocity=127 time=0\n",
      "note_on channel=9 note=42 velocity=127 time=0\n",
      "note_on channel=9 note=35 velocity=0 time=120\n",
      "note_on channel=9 note=42 velocity=0 time=0\n",
      "note_on channel=9 note=42 velocity=127 time=0\n",
      "note_on channel=9 note=38 velocity=127 time=0\n",
      "note_on channel=9 note=42 velocity=0 time=120\n",
      "note_on channel=9 note=38 velocity=0 time=0\n",
      "note_on channel=9 note=35 velocity=127 time=0\n",
      "note_on channel=9 note=42 velocity=127 time=0\n",
      "note_on channel=9 note=35 velocity=0 time=60\n",
      "note_on channel=9 note=35 velocity=127 time=0\n",
      "note_on channel=9 note=42 velocity=0 time=60\n",
      "note_on channel=9 note=35 velocity=0 time=0\n",
      "note_on channel=9 note=38 velocity=127 time=0\n",
      "note_on channel=9 note=42 velocity=127 time=0\n",
      "note_on channel=9 note=38 velocity=0 time=120\n",
      "note_on channel=9 note=42 velocity=0 time=0\n",
      "note_on channel=9 note=35 velocity=127 time=0\n",
      "note_on channel=9 note=42 velocity=127 time=0\n",
      "note_on channel=9 note=35 velocity=0 time=120\n",
      "note_on channel=9 note=42 velocity=0 time=0\n",
      "note_on channel=9 note=38 velocity=127 time=0\n",
      "note_on channel=9 note=42 velocity=127 time=0\n",
      "note_on channel=9 note=38 velocity=0 time=120\n",
      "note_on channel=9 note=42 velocity=0 time=0\n",
      "note_on channel=9 note=35 velocity=127 time=0\n",
      "note_on channel=9 note=42 velocity=127 time=0\n",
      "note_on channel=9 note=35 velocity=0 time=60\n",
      "note_on channel=9 note=35 velocity=127 time=0\n",
      "note_on channel=9 note=42 velocity=0 time=60\n",
      "note_on channel=9 note=35 velocity=0 time=0\n",
      "note_on channel=9 note=42 velocity=127 time=0\n",
      "note_on channel=9 note=38 velocity=127 time=0\n",
      "note_on channel=9 note=42 velocity=0 time=120\n",
      "note_on channel=9 note=38 velocity=0 time=0\n",
      "note_on channel=9 note=35 velocity=127 time=0\n",
      "note_on channel=9 note=42 velocity=127 time=0\n",
      "note_on channel=9 note=35 velocity=0 time=120\n",
      "note_on channel=9 note=42 velocity=0 time=0\n",
      "note_on channel=9 note=38 velocity=127 time=0\n",
      "note_on channel=9 note=42 velocity=127 time=0\n",
      "note_on channel=9 note=38 velocity=0 time=120\n",
      "note_on channel=9 note=42 velocity=0 time=0\n",
      "note_on channel=9 note=35 velocity=127 time=0\n",
      "note_on channel=9 note=42 velocity=127 time=0\n",
      "note_on channel=9 note=35 velocity=0 time=60\n",
      "note_on channel=9 note=35 velocity=127 time=0\n",
      "note_on channel=9 note=42 velocity=0 time=60\n",
      "note_on channel=9 note=35 velocity=0 time=0\n",
      "note_on channel=9 note=38 velocity=127 time=0\n",
      "note_on channel=9 note=42 velocity=127 time=0\n",
      "note_on channel=9 note=38 velocity=0 time=120\n",
      "note_on channel=9 note=42 velocity=0 time=0\n",
      "note_on channel=9 note=35 velocity=127 time=0\n",
      "note_on channel=9 note=42 velocity=127 time=0\n",
      "note_on channel=9 note=35 velocity=0 time=60\n",
      "note_on channel=9 note=42 velocity=0 time=0\n",
      "note_on channel=9 note=38 velocity=127 time=0\n",
      "note_on channel=9 note=57 velocity=127 time=0\n",
      "note_on channel=9 note=38 velocity=0 time=120\n",
      "note_on channel=9 note=57 velocity=0 time=0\n",
      "note_on channel=9 note=57 velocity=127 time=0\n",
      "note_on channel=9 note=38 velocity=127 time=0\n",
      "note_on channel=9 note=57 velocity=0 time=120\n",
      "note_on channel=9 note=38 velocity=0 time=0\n",
      "note_on channel=9 note=35 velocity=127 time=0\n",
      "note_on channel=9 note=42 velocity=127 time=0\n",
      "note_on channel=9 note=35 velocity=0 time=120\n",
      "note_on channel=9 note=42 velocity=0 time=0\n",
      "note_on channel=9 note=38 velocity=127 time=0\n",
      "note_on channel=9 note=42 velocity=127 time=0\n",
      "note_on channel=9 note=38 velocity=0 time=120\n",
      "note_on channel=9 note=42 velocity=0 time=0\n",
      "note_on channel=9 note=35 velocity=127 time=0\n",
      "note_on channel=9 note=42 velocity=127 time=0\n",
      "note_on channel=9 note=35 velocity=0 time=60\n",
      "note_on channel=9 note=35 velocity=127 time=0\n",
      "note_on channel=9 note=42 velocity=0 time=60\n",
      "note_on channel=9 note=35 velocity=0 time=0\n",
      "note_on channel=9 note=42 velocity=127 time=0\n",
      "note_on channel=9 note=38 velocity=127 time=0\n",
      "note_on channel=9 note=42 velocity=0 time=120\n",
      "note_on channel=9 note=38 velocity=0 time=0\n",
      "note_on channel=9 note=35 velocity=127 time=0\n",
      "note_on channel=9 note=42 velocity=127 time=0\n",
      "note_on channel=9 note=35 velocity=0 time=120\n",
      "note_on channel=9 note=42 velocity=0 time=0\n",
      "note_on channel=9 note=38 velocity=127 time=0\n",
      "note_on channel=9 note=42 velocity=127 time=0\n",
      "note_on channel=9 note=38 velocity=0 time=120\n",
      "note_on channel=9 note=42 velocity=0 time=0\n",
      "note_on channel=9 note=35 velocity=127 time=0\n",
      "note_on channel=9 note=42 velocity=127 time=0\n",
      "note_on channel=9 note=35 velocity=0 time=60\n",
      "note_on channel=9 note=35 velocity=127 time=0\n",
      "note_on channel=9 note=42 velocity=0 time=60\n",
      "note_on channel=9 note=35 velocity=0 time=0\n",
      "note_on channel=9 note=38 velocity=127 time=0\n",
      "note_on channel=9 note=42 velocity=127 time=0\n",
      "note_on channel=9 note=38 velocity=0 time=120\n",
      "note_on channel=9 note=42 velocity=0 time=0\n",
      "note_on channel=9 note=35 velocity=127 time=0\n",
      "note_on channel=9 note=42 velocity=127 time=0\n",
      "note_on channel=9 note=35 velocity=0 time=120\n",
      "note_on channel=9 note=42 velocity=0 time=0\n",
      "note_on channel=9 note=38 velocity=127 time=0\n",
      "note_on channel=9 note=42 velocity=127 time=0\n",
      "note_on channel=9 note=38 velocity=0 time=120\n",
      "note_on channel=9 note=42 velocity=0 time=0\n",
      "note_on channel=9 note=42 velocity=127 time=0\n",
      "note_on channel=9 note=35 velocity=127 time=0\n",
      "note_on channel=9 note=35 velocity=0 time=60\n",
      "note_on channel=9 note=35 velocity=127 time=0\n",
      "note_on channel=9 note=42 velocity=0 time=60\n",
      "note_on channel=9 note=35 velocity=0 time=0\n",
      "note_on channel=9 note=38 velocity=127 time=0\n",
      "note_on channel=9 note=42 velocity=127 time=0\n",
      "note_on channel=9 note=38 velocity=0 time=120\n",
      "note_on channel=9 note=42 velocity=0 time=0\n",
      "note_on channel=9 note=35 velocity=127 time=0\n",
      "note_on channel=9 note=42 velocity=127 time=0\n",
      "note_on channel=9 note=35 velocity=0 time=60\n",
      "note_on channel=9 note=42 velocity=0 time=0\n",
      "note_on channel=9 note=57 velocity=127 time=0\n",
      "note_on channel=9 note=38 velocity=127 time=0\n",
      "note_on channel=9 note=57 velocity=0 time=120\n",
      "note_on channel=9 note=38 velocity=0 time=0\n",
      "note_on channel=9 note=57 velocity=127 time=0\n",
      "note_on channel=9 note=38 velocity=127 time=0\n",
      "note_on channel=9 note=57 velocity=0 time=120\n",
      "note_on channel=9 note=38 velocity=0 time=0\n",
      "note_on channel=9 note=35 velocity=127 time=0\n",
      "note_on channel=9 note=42 velocity=127 time=0\n",
      "note_on channel=9 note=35 velocity=0 time=120\n",
      "note_on channel=9 note=42 velocity=0 time=0\n",
      "note_on channel=9 note=42 velocity=127 time=0\n",
      "note_on channel=9 note=38 velocity=127 time=0\n",
      "note_on channel=9 note=42 velocity=0 time=120\n",
      "note_on channel=9 note=38 velocity=0 time=0\n",
      "note_on channel=9 note=35 velocity=127 time=0\n",
      "note_on channel=9 note=42 velocity=127 time=0\n",
      "note_on channel=9 note=35 velocity=0 time=60\n",
      "note_on channel=9 note=35 velocity=127 time=0\n",
      "note_on channel=9 note=42 velocity=0 time=60\n",
      "note_on channel=9 note=35 velocity=0 time=0\n",
      "note_on channel=9 note=38 velocity=127 time=0\n",
      "note_on channel=9 note=42 velocity=127 time=0\n",
      "note_on channel=9 note=38 velocity=0 time=120\n",
      "note_on channel=9 note=42 velocity=0 time=0\n",
      "note_on channel=9 note=42 velocity=127 time=0\n",
      "note_on channel=9 note=42 velocity=0 time=60\n",
      "note_on channel=9 note=38 velocity=127 time=0\n",
      "note_on channel=9 note=38 velocity=0 time=60\n",
      "note_on channel=9 note=38 velocity=127 time=0\n",
      "note_on channel=9 note=38 velocity=0 time=120\n",
      "note_on channel=9 note=38 velocity=127 time=0\n",
      "note_on channel=9 note=38 velocity=0 time=60\n",
      "note_on channel=9 note=38 velocity=127 time=0\n",
      "note_on channel=9 note=38 velocity=0 time=60\n",
      "note_on channel=9 note=38 velocity=127 time=0\n",
      "note_on channel=9 note=38 velocity=0 time=60\n",
      "note_on channel=9 note=38 velocity=127 time=0\n",
      "note_on channel=9 note=38 velocity=0 time=60\n",
      "note_on channel=9 note=42 velocity=127 time=0\n",
      "note_on channel=9 note=35 velocity=127 time=0\n",
      "note_on channel=9 note=42 velocity=0 time=120\n",
      "note_on channel=9 note=35 velocity=0 time=0\n",
      "note_on channel=9 note=38 velocity=127 time=0\n",
      "note_on channel=9 note=42 velocity=127 time=0\n",
      "note_on channel=9 note=38 velocity=0 time=120\n",
      "note_on channel=9 note=42 velocity=0 time=0\n",
      "note_on channel=9 note=35 velocity=127 time=0\n",
      "note_on channel=9 note=42 velocity=127 time=0\n",
      "note_on channel=9 note=35 velocity=0 time=60\n",
      "note_on channel=9 note=35 velocity=127 time=0\n",
      "note_on channel=9 note=42 velocity=0 time=60\n",
      "note_on channel=9 note=35 velocity=0 time=0\n",
      "note_on channel=9 note=38 velocity=127 time=0\n",
      "note_on channel=9 note=42 velocity=127 time=0\n",
      "note_on channel=9 note=38 velocity=0 time=120\n",
      "note_on channel=9 note=42 velocity=0 time=0\n",
      "note_on channel=9 note=35 velocity=127 time=0\n",
      "note_on channel=9 note=42 velocity=127 time=0\n",
      "note_on channel=9 note=35 velocity=0 time=60\n",
      "note_on channel=9 note=42 velocity=0 time=0\n",
      "note_on channel=9 note=38 velocity=127 time=0\n",
      "note_on channel=9 note=57 velocity=127 time=0\n",
      "note_on channel=9 note=38 velocity=0 time=120\n",
      "note_on channel=9 note=57 velocity=0 time=0\n",
      "note_on channel=9 note=57 velocity=127 time=0\n",
      "note_on channel=9 note=38 velocity=127 time=0\n",
      "note_on channel=9 note=57 velocity=0 time=120\n",
      "note_on channel=9 note=38 velocity=0 time=0\n",
      "note_on channel=9 note=42 velocity=127 time=0\n",
      "note_on channel=9 note=35 velocity=127 time=0\n",
      "note_on channel=9 note=42 velocity=0 time=120\n",
      "note_on channel=9 note=35 velocity=0 time=0\n",
      "note_on channel=9 note=38 velocity=127 time=0\n",
      "note_on channel=9 note=42 velocity=127 time=0\n",
      "note_on channel=9 note=38 velocity=0 time=120\n",
      "note_on channel=9 note=42 velocity=0 time=0\n",
      "note_on channel=9 note=35 velocity=127 time=0\n",
      "note_on channel=9 note=42 velocity=127 time=0\n",
      "note_on channel=9 note=35 velocity=0 time=60\n",
      "note_on channel=9 note=35 velocity=127 time=0\n",
      "note_on channel=9 note=42 velocity=0 time=60\n",
      "note_on channel=9 note=35 velocity=0 time=0\n",
      "note_on channel=9 note=38 velocity=127 time=0\n",
      "note_on channel=9 note=42 velocity=127 time=0\n",
      "note_on channel=9 note=38 velocity=0 time=120\n",
      "note_on channel=9 note=42 velocity=0 time=0\n",
      "note_on channel=9 note=35 velocity=127 time=0\n",
      "note_on channel=9 note=42 velocity=127 time=0\n",
      "note_on channel=9 note=35 velocity=0 time=120\n",
      "note_on channel=9 note=42 velocity=0 time=0\n",
      "note_on channel=9 note=38 velocity=127 time=0\n",
      "note_on channel=9 note=42 velocity=127 time=0\n",
      "note_on channel=9 note=38 velocity=0 time=120\n",
      "note_on channel=9 note=42 velocity=0 time=0\n",
      "note_on channel=9 note=42 velocity=127 time=0\n",
      "note_on channel=9 note=35 velocity=127 time=0\n",
      "note_on channel=9 note=35 velocity=0 time=60\n",
      "note_on channel=9 note=35 velocity=127 time=0\n",
      "note_on channel=9 note=42 velocity=0 time=60\n",
      "note_on channel=9 note=35 velocity=0 time=0\n",
      "note_on channel=9 note=38 velocity=127 time=0\n",
      "note_on channel=9 note=42 velocity=127 time=0\n",
      "note_on channel=9 note=38 velocity=0 time=120\n",
      "note_on channel=9 note=42 velocity=0 time=0\n",
      "note_on channel=9 note=35 velocity=127 time=0\n",
      "note_on channel=9 note=42 velocity=127 time=0\n",
      "note_on channel=9 note=35 velocity=0 time=120\n",
      "note_on channel=9 note=42 velocity=0 time=0\n",
      "note_on channel=9 note=38 velocity=127 time=0\n",
      "note_on channel=9 note=42 velocity=127 time=0\n",
      "note_on channel=9 note=38 velocity=0 time=120\n",
      "note_on channel=9 note=42 velocity=0 time=0\n",
      "note_on channel=9 note=35 velocity=127 time=0\n",
      "note_on channel=9 note=42 velocity=127 time=0\n",
      "note_on channel=9 note=35 velocity=0 time=60\n",
      "note_on channel=9 note=35 velocity=127 time=0\n",
      "note_on channel=9 note=42 velocity=0 time=60\n",
      "note_on channel=9 note=35 velocity=0 time=0\n",
      "note_on channel=9 note=42 velocity=127 time=0\n",
      "note_on channel=9 note=38 velocity=127 time=0\n",
      "note_on channel=9 note=42 velocity=0 time=120\n",
      "note_on channel=9 note=38 velocity=0 time=0\n",
      "note_on channel=9 note=35 velocity=127 time=0\n",
      "note_on channel=9 note=42 velocity=127 time=0\n",
      "note_on channel=9 note=35 velocity=0 time=60\n",
      "note_on channel=9 note=42 velocity=0 time=0\n",
      "note_on channel=9 note=57 velocity=127 time=0\n",
      "note_on channel=9 note=38 velocity=127 time=0\n",
      "note_on channel=9 note=57 velocity=0 time=120\n",
      "note_on channel=9 note=38 velocity=0 time=0\n",
      "note_on channel=9 note=57 velocity=127 time=0\n",
      "note_on channel=9 note=38 velocity=127 time=0\n",
      "note_on channel=9 note=57 velocity=0 time=120\n",
      "note_on channel=9 note=38 velocity=0 time=0\n",
      "note_on channel=9 note=38 velocity=127 time=0\n",
      "note_on channel=9 note=38 velocity=0 time=60\n",
      "note_on channel=9 note=38 velocity=127 time=0\n",
      "note_on channel=9 note=38 velocity=0 time=60\n",
      "note_on channel=9 note=38 velocity=127 time=0\n",
      "note_on channel=9 note=38 velocity=0 time=60\n",
      "note_on channel=9 note=38 velocity=127 time=0\n",
      "note_on channel=9 note=38 velocity=0 time=60\n",
      "note_on channel=9 note=38 velocity=127 time=0\n",
      "note_on channel=9 note=38 velocity=0 time=60\n",
      "note_on channel=9 note=38 velocity=127 time=0\n",
      "note_on channel=9 note=38 velocity=0 time=60\n",
      "note_on channel=9 note=38 velocity=127 time=0\n",
      "note_on channel=9 note=38 velocity=0 time=60\n",
      "note_on channel=9 note=38 velocity=127 time=0\n",
      "note_on channel=9 note=38 velocity=0 time=60\n",
      "note_on channel=9 note=57 velocity=127 time=0\n",
      "note_on channel=9 note=35 velocity=127 time=0\n",
      "note_on channel=9 note=57 velocity=0 time=120\n",
      "note_on channel=9 note=35 velocity=0 time=0\n",
      "note_on channel=9 note=42 velocity=127 time=0\n",
      "note_on channel=9 note=35 velocity=127 time=60\n",
      "note_on channel=9 note=35 velocity=0 time=20\n",
      "note_on channel=9 note=36 velocity=127 time=0\n",
      "note_on channel=9 note=36 velocity=0 time=20\n",
      "note_on channel=9 note=35 velocity=127 time=0\n",
      "note_on channel=9 note=42 velocity=0 time=20\n",
      "note_on channel=9 note=35 velocity=0 time=0\n",
      "note_on channel=9 note=57 velocity=127 time=0\n",
      "note_on channel=9 note=38 velocity=127 time=0\n",
      "note_on channel=9 note=57 velocity=0 time=120\n",
      "note_on channel=9 note=38 velocity=0 time=0\n",
      "note_on channel=9 note=57 velocity=127 time=0\n",
      "note_on channel=9 note=38 velocity=127 time=0\n",
      "note_on channel=9 note=57 velocity=0 time=120\n",
      "note_on channel=9 note=38 velocity=0 time=0\n",
      "note_on channel=9 note=42 velocity=127 time=0\n",
      "note_on channel=9 note=35 velocity=127 time=0\n",
      "note_on channel=9 note=42 velocity=0 time=120\n",
      "note_on channel=9 note=35 velocity=0 time=0\n",
      "note_on channel=9 note=42 velocity=127 time=0\n",
      "note_on channel=9 note=35 velocity=127 time=60\n",
      "note_on channel=9 note=35 velocity=0 time=20\n",
      "note_on channel=9 note=36 velocity=127 time=0\n",
      "note_on channel=9 note=36 velocity=0 time=20\n",
      "note_on channel=9 note=35 velocity=127 time=0\n",
      "note_on channel=9 note=42 velocity=0 time=20\n",
      "note_on channel=9 note=35 velocity=0 time=0\n",
      "note_on channel=9 note=38 velocity=127 time=0\n",
      "note_on channel=9 note=42 velocity=127 time=0\n",
      "note_on channel=9 note=38 velocity=0 time=120\n",
      "note_on channel=9 note=42 velocity=0 time=0\n",
      "note_on channel=9 note=38 velocity=127 time=0\n",
      "note_on channel=9 note=42 velocity=127 time=0\n",
      "note_on channel=9 note=38 velocity=0 time=120\n",
      "note_on channel=9 note=42 velocity=0 time=0\n",
      "note_on channel=9 note=35 velocity=127 time=0\n",
      "note_on channel=9 note=42 velocity=127 time=0\n",
      "note_on channel=9 note=35 velocity=0 time=120\n",
      "note_on channel=9 note=42 velocity=0 time=0\n",
      "note_on channel=9 note=42 velocity=127 time=0\n",
      "note_on channel=9 note=35 velocity=127 time=60\n",
      "note_on channel=9 note=35 velocity=0 time=20\n",
      "note_on channel=9 note=36 velocity=127 time=0\n",
      "note_on channel=9 note=36 velocity=0 time=20\n",
      "note_on channel=9 note=35 velocity=127 time=0\n",
      "note_on channel=9 note=42 velocity=0 time=20\n",
      "note_on channel=9 note=35 velocity=0 time=0\n",
      "note_on channel=9 note=57 velocity=127 time=0\n",
      "note_on channel=9 note=38 velocity=127 time=0\n",
      "note_on channel=9 note=57 velocity=0 time=120\n",
      "note_on channel=9 note=38 velocity=0 time=0\n",
      "note_on channel=9 note=57 velocity=127 time=0\n",
      "note_on channel=9 note=38 velocity=127 time=0\n",
      "note_on channel=9 note=57 velocity=0 time=120\n",
      "note_on channel=9 note=38 velocity=0 time=0\n",
      "note_on channel=9 note=45 velocity=127 time=0\n",
      "note_on channel=9 note=45 velocity=0 time=30\n",
      "note_on channel=9 note=45 velocity=127 time=0\n",
      "note_on channel=9 note=45 velocity=0 time=30\n",
      "note_on channel=9 note=45 velocity=127 time=0\n",
      "note_on channel=9 note=45 velocity=0 time=30\n",
      "note_on channel=9 note=45 velocity=127 time=0\n",
      "note_on channel=9 note=45 velocity=0 time=30\n",
      "note_on channel=9 note=47 velocity=127 time=0\n",
      "note_on channel=9 note=47 velocity=0 time=30\n",
      "note_on channel=9 note=47 velocity=127 time=0\n",
      "note_on channel=9 note=47 velocity=0 time=30\n",
      "note_on channel=9 note=47 velocity=127 time=0\n",
      "note_on channel=9 note=47 velocity=0 time=30\n",
      "note_on channel=9 note=47 velocity=127 time=0\n",
      "note_on channel=9 note=47 velocity=0 time=30\n",
      "note_on channel=9 note=48 velocity=127 time=0\n",
      "note_on channel=9 note=48 velocity=0 time=30\n",
      "note_on channel=9 note=48 velocity=127 time=0\n",
      "note_on channel=9 note=48 velocity=0 time=30\n",
      "note_on channel=9 note=48 velocity=127 time=0\n",
      "note_on channel=9 note=48 velocity=0 time=30\n",
      "note_on channel=9 note=48 velocity=127 time=0\n",
      "note_on channel=9 note=48 velocity=0 time=30\n",
      "note_on channel=9 note=50 velocity=127 time=0\n",
      "note_on channel=9 note=50 velocity=0 time=30\n",
      "note_on channel=9 note=50 velocity=127 time=0\n",
      "note_on channel=9 note=50 velocity=0 time=30\n",
      "note_on channel=9 note=50 velocity=127 time=0\n",
      "note_on channel=9 note=50 velocity=0 time=30\n",
      "note_on channel=9 note=50 velocity=127 time=0\n",
      "note_on channel=9 note=50 velocity=0 time=30\n",
      "note_on channel=9 note=35 velocity=127 time=0\n",
      "note_on channel=9 note=43 velocity=127 time=0\n",
      "note_on channel=9 note=35 velocity=0 time=120\n",
      "note_on channel=9 note=43 velocity=0 time=0\n",
      "note_on channel=9 note=35 velocity=127 time=0\n",
      "note_on channel=9 note=35 velocity=0 time=60\n",
      "note_on channel=9 note=35 velocity=127 time=0\n",
      "note_on channel=9 note=35 velocity=0 time=60\n",
      "note_on channel=9 note=38 velocity=127 time=0\n",
      "note_on channel=9 note=57 velocity=127 time=0\n",
      "note_on channel=9 note=38 velocity=0 time=120\n",
      "note_on channel=9 note=57 velocity=0 time=0\n",
      "note_on channel=9 note=57 velocity=127 time=0\n",
      "note_on channel=9 note=38 velocity=127 time=0\n",
      "note_on channel=9 note=57 velocity=0 time=120\n",
      "note_on channel=9 note=38 velocity=0 time=0\n",
      "note_on channel=9 note=35 velocity=127 time=0\n",
      "note_on channel=9 note=42 velocity=127 time=0\n",
      "note_on channel=9 note=35 velocity=0 time=120\n",
      "note_on channel=9 note=42 velocity=0 time=0\n",
      "note_on channel=9 note=42 velocity=127 time=0\n",
      "note_on channel=9 note=35 velocity=127 time=60\n",
      "note_on channel=9 note=35 velocity=0 time=20\n",
      "note_on channel=9 note=36 velocity=127 time=0\n",
      "note_on channel=9 note=36 velocity=0 time=20\n",
      "note_on channel=9 note=35 velocity=127 time=0\n",
      "note_on channel=9 note=42 velocity=0 time=20\n",
      "note_on channel=9 note=35 velocity=0 time=0\n",
      "note_on channel=9 note=38 velocity=127 time=0\n",
      "note_on channel=9 note=42 velocity=127 time=0\n",
      "note_on channel=9 note=38 velocity=0 time=120\n",
      "note_on channel=9 note=42 velocity=0 time=0\n",
      "note_on channel=9 note=42 velocity=127 time=0\n",
      "note_on channel=9 note=38 velocity=127 time=0\n",
      "note_on channel=9 note=42 velocity=0 time=120\n",
      "note_on channel=9 note=38 velocity=0 time=0\n",
      "note_on channel=9 note=42 velocity=127 time=0\n",
      "note_on channel=9 note=35 velocity=127 time=0\n",
      "note_on channel=9 note=42 velocity=0 time=120\n",
      "note_on channel=9 note=35 velocity=0 time=0\n",
      "note_on channel=9 note=42 velocity=127 time=0\n",
      "note_on channel=9 note=35 velocity=127 time=60\n",
      "note_on channel=9 note=35 velocity=0 time=20\n",
      "note_on channel=9 note=36 velocity=127 time=0\n",
      "note_on channel=9 note=36 velocity=0 time=20\n",
      "note_on channel=9 note=35 velocity=127 time=0\n",
      "note_on channel=9 note=42 velocity=0 time=20\n",
      "note_on channel=9 note=35 velocity=0 time=0\n",
      "note_on channel=9 note=57 velocity=127 time=0\n",
      "note_on channel=9 note=38 velocity=127 time=0\n",
      "note_on channel=9 note=57 velocity=0 time=120\n",
      "note_on channel=9 note=38 velocity=0 time=0\n",
      "note_on channel=9 note=57 velocity=127 time=0\n",
      "note_on channel=9 note=38 velocity=127 time=0\n",
      "note_on channel=9 note=57 velocity=0 time=120\n",
      "note_on channel=9 note=38 velocity=0 time=0\n",
      "note_on channel=9 note=45 velocity=127 time=0\n",
      "note_on channel=9 note=45 velocity=0 time=30\n",
      "note_on channel=9 note=45 velocity=127 time=0\n",
      "note_on channel=9 note=45 velocity=0 time=30\n",
      "note_on channel=9 note=45 velocity=127 time=0\n",
      "note_on channel=9 note=45 velocity=0 time=30\n",
      "note_on channel=9 note=45 velocity=127 time=0\n",
      "note_on channel=9 note=45 velocity=0 time=30\n",
      "note_on channel=9 note=47 velocity=127 time=0\n",
      "note_on channel=9 note=47 velocity=0 time=60\n",
      "note_on channel=9 note=47 velocity=127 time=0\n",
      "note_on channel=9 note=47 velocity=0 time=60\n",
      "note_on channel=9 note=48 velocity=127 time=0\n",
      "note_on channel=9 note=48 velocity=0 time=60\n",
      "note_on channel=9 note=48 velocity=127 time=0\n",
      "note_on channel=9 note=48 velocity=0 time=60\n",
      "note_on channel=9 note=50 velocity=127 time=0\n",
      "note_on channel=9 note=50 velocity=0 time=60\n",
      "note_on channel=9 note=50 velocity=127 time=0\n",
      "note_on channel=9 note=50 velocity=0 time=60\n",
      "note_on channel=9 note=35 velocity=127 time=0\n",
      "note_on channel=9 note=43 velocity=127 time=0\n",
      "note_on channel=9 note=35 velocity=0 time=120\n",
      "note_on channel=9 note=43 velocity=0 time=0\n",
      "note_on channel=9 note=35 velocity=127 time=0\n",
      "note_on channel=9 note=35 velocity=0 time=60\n",
      "note_on channel=9 note=35 velocity=127 time=0\n",
      "note_on channel=9 note=35 velocity=0 time=60\n",
      "note_on channel=9 note=57 velocity=127 time=0\n",
      "note_on channel=9 note=38 velocity=127 time=0\n",
      "note_on channel=9 note=57 velocity=0 time=120\n",
      "note_on channel=9 note=38 velocity=0 time=0\n",
      "note_on channel=9 note=38 velocity=127 time=0\n",
      "note_on channel=9 note=57 velocity=127 time=0\n",
      "note_on channel=9 note=38 velocity=0 time=120\n",
      "note_on channel=9 note=57 velocity=0 time=0\n",
      "note_on channel=9 note=35 velocity=127 time=0\n",
      "note_on channel=9 note=42 velocity=127 time=0\n",
      "note_on channel=9 note=35 velocity=0 time=120\n",
      "note_on channel=9 note=42 velocity=0 time=0\n",
      "note_on channel=9 note=42 velocity=127 time=0\n",
      "note_on channel=9 note=35 velocity=127 time=60\n",
      "note_on channel=9 note=35 velocity=0 time=20\n",
      "note_on channel=9 note=36 velocity=127 time=0\n",
      "note_on channel=9 note=36 velocity=0 time=20\n",
      "note_on channel=9 note=35 velocity=127 time=0\n",
      "note_on channel=9 note=42 velocity=0 time=20\n",
      "note_on channel=9 note=35 velocity=0 time=0\n",
      "note_on channel=9 note=38 velocity=127 time=0\n",
      "note_on channel=9 note=42 velocity=127 time=0\n",
      "note_on channel=9 note=38 velocity=0 time=120\n",
      "note_on channel=9 note=42 velocity=0 time=0\n",
      "note_on channel=9 note=38 velocity=127 time=0\n",
      "note_on channel=9 note=42 velocity=127 time=0\n",
      "note_on channel=9 note=38 velocity=0 time=120\n",
      "note_on channel=9 note=42 velocity=0 time=0\n",
      "note_on channel=9 note=42 velocity=127 time=0\n",
      "note_on channel=9 note=35 velocity=127 time=0\n",
      "note_on channel=9 note=42 velocity=0 time=120\n",
      "note_on channel=9 note=35 velocity=0 time=0\n",
      "note_on channel=9 note=42 velocity=127 time=0\n",
      "note_on channel=9 note=35 velocity=127 time=60\n",
      "note_on channel=9 note=35 velocity=0 time=20\n",
      "note_on channel=9 note=36 velocity=127 time=0\n",
      "note_on channel=9 note=36 velocity=0 time=20\n",
      "note_on channel=9 note=35 velocity=127 time=0\n",
      "note_on channel=9 note=42 velocity=0 time=20\n",
      "note_on channel=9 note=35 velocity=0 time=0\n",
      "note_on channel=9 note=57 velocity=127 time=0\n",
      "note_on channel=9 note=38 velocity=127 time=0\n",
      "note_on channel=9 note=57 velocity=0 time=120\n",
      "note_on channel=9 note=38 velocity=0 time=0\n",
      "note_on channel=9 note=57 velocity=127 time=0\n",
      "note_on channel=9 note=38 velocity=127 time=0\n",
      "note_on channel=9 note=57 velocity=0 time=120\n",
      "note_on channel=9 note=38 velocity=0 time=0\n",
      "note_on channel=9 note=45 velocity=127 time=0\n",
      "note_on channel=9 note=45 velocity=0 time=30\n",
      "note_on channel=9 note=45 velocity=127 time=0\n",
      "note_on channel=9 note=45 velocity=0 time=30\n",
      "note_on channel=9 note=45 velocity=127 time=0\n",
      "note_on channel=9 note=45 velocity=0 time=30\n",
      "note_on channel=9 note=45 velocity=127 time=0\n",
      "note_on channel=9 note=45 velocity=0 time=30\n",
      "note_on channel=9 note=47 velocity=127 time=0\n",
      "note_on channel=9 note=47 velocity=0 time=30\n",
      "note_on channel=9 note=47 velocity=127 time=0\n",
      "note_on channel=9 note=47 velocity=0 time=30\n",
      "note_on channel=9 note=47 velocity=127 time=0\n",
      "note_on channel=9 note=47 velocity=0 time=30\n",
      "note_on channel=9 note=47 velocity=127 time=0\n",
      "note_on channel=9 note=47 velocity=0 time=30\n",
      "note_on channel=9 note=48 velocity=127 time=0\n",
      "note_on channel=9 note=48 velocity=0 time=30\n",
      "note_on channel=9 note=48 velocity=127 time=0\n",
      "note_on channel=9 note=48 velocity=0 time=30\n",
      "note_on channel=9 note=48 velocity=127 time=0\n",
      "note_on channel=9 note=48 velocity=0 time=30\n",
      "note_on channel=9 note=48 velocity=127 time=0\n",
      "note_on channel=9 note=48 velocity=0 time=30\n",
      "note_on channel=9 note=50 velocity=127 time=0\n",
      "note_on channel=9 note=50 velocity=0 time=30\n",
      "note_on channel=9 note=50 velocity=127 time=0\n",
      "note_on channel=9 note=50 velocity=0 time=30\n",
      "note_on channel=9 note=50 velocity=127 time=0\n",
      "note_on channel=9 note=50 velocity=0 time=30\n",
      "note_on channel=9 note=50 velocity=127 time=0\n",
      "note_on channel=9 note=50 velocity=0 time=30\n",
      "note_on channel=9 note=35 velocity=127 time=0\n",
      "note_on channel=9 note=43 velocity=127 time=0\n",
      "note_on channel=9 note=35 velocity=0 time=120\n",
      "note_on channel=9 note=43 velocity=0 time=0\n",
      "note_on channel=9 note=35 velocity=127 time=0\n",
      "note_on channel=9 note=35 velocity=0 time=60\n",
      "note_on channel=9 note=35 velocity=127 time=0\n",
      "note_on channel=9 note=35 velocity=0 time=60\n",
      "note_on channel=9 note=57 velocity=127 time=0\n",
      "note_on channel=9 note=38 velocity=127 time=0\n",
      "note_on channel=9 note=57 velocity=0 time=120\n",
      "note_on channel=9 note=38 velocity=0 time=0\n",
      "note_on channel=9 note=57 velocity=127 time=0\n",
      "note_on channel=9 note=38 velocity=127 time=0\n",
      "note_on channel=9 note=57 velocity=0 time=120\n",
      "note_on channel=9 note=38 velocity=0 time=0\n",
      "note_on channel=9 note=35 velocity=127 time=0\n",
      "note_on channel=9 note=42 velocity=127 time=0\n",
      "note_on channel=9 note=35 velocity=0 time=120\n",
      "note_on channel=9 note=42 velocity=0 time=0\n",
      "note_on channel=9 note=42 velocity=127 time=0\n",
      "note_on channel=9 note=35 velocity=127 time=60\n",
      "note_on channel=9 note=35 velocity=0 time=20\n",
      "note_on channel=9 note=36 velocity=127 time=0\n",
      "note_on channel=9 note=36 velocity=0 time=20\n",
      "note_on channel=9 note=35 velocity=127 time=0\n",
      "note_on channel=9 note=42 velocity=0 time=20\n",
      "note_on channel=9 note=35 velocity=0 time=0\n",
      "note_on channel=9 note=38 velocity=127 time=0\n",
      "note_on channel=9 note=42 velocity=127 time=0\n",
      "note_on channel=9 note=38 velocity=0 time=120\n",
      "note_on channel=9 note=42 velocity=0 time=0\n",
      "note_on channel=9 note=42 velocity=127 time=0\n",
      "note_on channel=9 note=38 velocity=127 time=0\n",
      "note_on channel=9 note=42 velocity=0 time=120\n",
      "note_on channel=9 note=38 velocity=0 time=0\n",
      "note_on channel=9 note=42 velocity=127 time=0\n",
      "note_on channel=9 note=35 velocity=127 time=0\n",
      "note_on channel=9 note=42 velocity=0 time=120\n",
      "note_on channel=9 note=35 velocity=0 time=0\n",
      "note_on channel=9 note=42 velocity=127 time=0\n",
      "note_on channel=9 note=35 velocity=127 time=60\n",
      "note_on channel=9 note=35 velocity=0 time=20\n",
      "note_on channel=9 note=36 velocity=127 time=0\n",
      "note_on channel=9 note=36 velocity=0 time=20\n",
      "note_on channel=9 note=35 velocity=127 time=0\n",
      "note_on channel=9 note=42 velocity=0 time=20\n",
      "note_on channel=9 note=35 velocity=0 time=0\n",
      "note_on channel=9 note=57 velocity=127 time=0\n",
      "note_on channel=9 note=38 velocity=127 time=0\n",
      "note_on channel=9 note=57 velocity=0 time=120\n",
      "note_on channel=9 note=38 velocity=0 time=0\n",
      "note_on channel=9 note=57 velocity=127 time=0\n",
      "note_on channel=9 note=38 velocity=127 time=0\n",
      "note_on channel=9 note=57 velocity=0 time=120\n",
      "note_on channel=9 note=38 velocity=0 time=0\n",
      "note_on channel=9 note=38 velocity=127 time=0\n",
      "note_on channel=9 note=38 velocity=0 time=30\n",
      "note_on channel=9 note=38 velocity=127 time=0\n",
      "note_on channel=9 note=38 velocity=0 time=30\n",
      "note_on channel=9 note=38 velocity=127 time=0\n",
      "note_on channel=9 note=38 velocity=0 time=30\n",
      "note_on channel=9 note=38 velocity=127 time=0\n",
      "note_on channel=9 note=38 velocity=0 time=30\n",
      "note_on channel=9 note=38 velocity=127 time=0\n",
      "note_on channel=9 note=38 velocity=0 time=120\n",
      "note_on channel=9 note=45 velocity=127 time=0\n",
      "note_on channel=9 note=45 velocity=0 time=30\n",
      "note_on channel=9 note=45 velocity=127 time=0\n",
      "note_on channel=9 note=45 velocity=0 time=30\n",
      "note_on channel=9 note=45 velocity=127 time=0\n",
      "note_on channel=9 note=45 velocity=0 time=30\n",
      "note_on channel=9 note=45 velocity=127 time=0\n",
      "note_on channel=9 note=45 velocity=0 time=30\n",
      "note_on channel=9 note=45 velocity=127 time=0\n",
      "note_on channel=9 note=45 velocity=0 time=120\n",
      "note_on channel=9 note=35 velocity=127 time=0\n",
      "note_on channel=9 note=57 velocity=127 time=0\n",
      "note_on channel=9 note=35 velocity=0 time=120\n",
      "note_on channel=9 note=57 velocity=0 time=0\n",
      "note_on channel=9 note=57 velocity=127 time=0\n",
      "note_on channel=9 note=35 velocity=127 time=0\n",
      "note_on channel=9 note=57 velocity=0 time=120\n",
      "note_on channel=9 note=35 velocity=0 time=0\n",
      "note_on channel=9 note=35 velocity=127 time=240\n",
      "note_on channel=9 note=57 velocity=127 time=0\n",
      "note_on channel=9 note=35 velocity=0 time=120\n",
      "note_on channel=9 note=57 velocity=0 time=0\n",
      "note_on channel=9 note=57 velocity=127 time=0\n",
      "note_on channel=9 note=35 velocity=127 time=0\n",
      "note_on channel=9 note=57 velocity=0 time=120\n",
      "note_on channel=9 note=35 velocity=0 time=0\n",
      "note_on channel=9 note=35 velocity=127 time=240\n",
      "note_on channel=9 note=57 velocity=127 time=0\n",
      "note_on channel=9 note=35 velocity=0 time=120\n",
      "note_on channel=9 note=57 velocity=0 time=0\n",
      "note_on channel=9 note=38 velocity=127 time=0\n",
      "note_on channel=9 note=42 velocity=127 time=0\n",
      "note_on channel=9 note=38 velocity=0 time=120\n",
      "note_on channel=9 note=42 velocity=0 time=0\n",
      "note_on channel=9 note=35 velocity=127 time=0\n",
      "note_on channel=9 note=42 velocity=127 time=0\n",
      "note_on channel=9 note=35 velocity=0 time=60\n",
      "note_on channel=9 note=35 velocity=127 time=0\n",
      "note_on channel=9 note=42 velocity=0 time=60\n",
      "note_on channel=9 note=35 velocity=0 time=0\n",
      "note_on channel=9 note=38 velocity=127 time=0\n",
      "note_on channel=9 note=42 velocity=127 time=0\n",
      "note_on channel=9 note=38 velocity=0 time=120\n",
      "note_on channel=9 note=42 velocity=0 time=0\n",
      "note_on channel=9 note=35 velocity=127 time=0\n",
      "note_on channel=9 note=57 velocity=127 time=0\n",
      "note_on channel=9 note=35 velocity=0 time=120\n",
      "note_on channel=9 note=57 velocity=0 time=0\n",
      "note_on channel=9 note=42 velocity=127 time=0\n",
      "note_on channel=9 note=38 velocity=127 time=0\n",
      "note_on channel=9 note=42 velocity=0 time=120\n",
      "note_on channel=9 note=38 velocity=0 time=0\n",
      "note_on channel=9 note=35 velocity=127 time=0\n",
      "note_on channel=9 note=42 velocity=127 time=0\n",
      "note_on channel=9 note=35 velocity=0 time=120\n",
      "note_on channel=9 note=42 velocity=0 time=0\n",
      "note_on channel=9 note=38 velocity=127 time=0\n",
      "note_on channel=9 note=42 velocity=127 time=0\n",
      "note_on channel=9 note=35 velocity=127 time=60\n",
      "note_on channel=9 note=38 velocity=0 time=60\n",
      "note_on channel=9 note=42 velocity=0 time=0\n",
      "note_on channel=9 note=35 velocity=0 time=0\n",
      "note_on channel=9 note=42 velocity=127 time=0\n",
      "note_on channel=9 note=35 velocity=127 time=60\n",
      "note_on channel=9 note=42 velocity=0 time=60\n",
      "note_on channel=9 note=35 velocity=0 time=0\n",
      "note_on channel=9 note=38 velocity=127 time=0\n",
      "note_on channel=9 note=42 velocity=127 time=0\n",
      "note_on channel=9 note=38 velocity=0 time=120\n",
      "note_on channel=9 note=42 velocity=0 time=0\n",
      "note_on channel=9 note=42 velocity=127 time=0\n",
      "note_on channel=9 note=35 velocity=127 time=0\n",
      "note_on channel=9 note=35 velocity=0 time=60\n",
      "note_on channel=9 note=35 velocity=127 time=0\n",
      "note_on channel=9 note=42 velocity=0 time=60\n",
      "note_on channel=9 note=35 velocity=0 time=0\n",
      "note_on channel=9 note=38 velocity=127 time=0\n",
      "note_on channel=9 note=42 velocity=127 time=0\n",
      "note_on channel=9 note=35 velocity=127 time=60\n",
      "note_on channel=9 note=38 velocity=0 time=60\n",
      "note_on channel=9 note=42 velocity=0 time=0\n",
      "note_on channel=9 note=35 velocity=0 time=0\n",
      "note_on channel=9 note=42 velocity=127 time=0\n",
      "note_on channel=9 note=35 velocity=127 time=60\n",
      "note_on channel=9 note=35 velocity=0 time=20\n",
      "note_on channel=9 note=36 velocity=127 time=0\n",
      "note_on channel=9 note=36 velocity=0 time=20\n",
      "note_on channel=9 note=35 velocity=127 time=0\n",
      "note_on channel=9 note=42 velocity=0 time=20\n",
      "note_on channel=9 note=35 velocity=0 time=0\n",
      "note_on channel=9 note=38 velocity=127 time=0\n",
      "note_on channel=9 note=42 velocity=127 time=0\n",
      "note_on channel=9 note=38 velocity=0 time=120\n",
      "note_on channel=9 note=42 velocity=0 time=0\n",
      "note_on channel=9 note=35 velocity=127 time=0\n",
      "note_on channel=9 note=57 velocity=127 time=0\n",
      "note_on channel=9 note=35 velocity=0 time=120\n",
      "note_on channel=9 note=57 velocity=0 time=0\n",
      "note_on channel=9 note=42 velocity=127 time=0\n",
      "note_on channel=9 note=42 velocity=0 time=120\n",
      "note_on channel=9 note=42 velocity=127 time=0\n",
      "note_on channel=9 note=35 velocity=127 time=0\n",
      "note_on channel=9 note=35 velocity=0 time=60\n",
      "note_on channel=9 note=35 velocity=127 time=0\n",
      "note_on channel=9 note=42 velocity=0 time=60\n",
      "note_on channel=9 note=35 velocity=0 time=0\n",
      "note_on channel=9 note=42 velocity=127 time=0\n",
      "note_on channel=9 note=42 velocity=0 time=120\n",
      "note_on channel=9 note=35 velocity=127 time=0\n",
      "note_on channel=9 note=57 velocity=127 time=0\n",
      "note_on channel=9 note=35 velocity=0 time=120\n",
      "note_on channel=9 note=57 velocity=0 time=0\n",
      "note_on channel=9 note=38 velocity=127 time=0\n",
      "note_on channel=9 note=42 velocity=127 time=0\n",
      "note_on channel=9 note=38 velocity=0 time=120\n",
      "note_on channel=9 note=42 velocity=0 time=0\n",
      "note_on channel=9 note=35 velocity=127 time=0\n",
      "note_on channel=9 note=42 velocity=127 time=0\n",
      "note_on channel=9 note=35 velocity=0 time=120\n",
      "note_on channel=9 note=42 velocity=0 time=0\n",
      "note_on channel=9 note=38 velocity=127 time=0\n",
      "note_on channel=9 note=42 velocity=127 time=0\n",
      "note_on channel=9 note=35 velocity=127 time=60\n",
      "note_on channel=9 note=38 velocity=0 time=60\n",
      "note_on channel=9 note=42 velocity=0 time=0\n",
      "note_on channel=9 note=35 velocity=0 time=0\n",
      "note_on channel=9 note=42 velocity=127 time=0\n",
      "note_on channel=9 note=35 velocity=127 time=60\n",
      "note_on channel=9 note=42 velocity=0 time=60\n",
      "note_on channel=9 note=35 velocity=0 time=0\n",
      "note_on channel=9 note=36 velocity=127 time=0\n",
      "note_on channel=9 note=42 velocity=127 time=0\n",
      "note_on channel=9 note=36 velocity=0 time=120\n",
      "note_on channel=9 note=42 velocity=0 time=0\n",
      "note_on channel=9 note=42 velocity=127 time=0\n",
      "note_on channel=9 note=42 velocity=0 time=60\n",
      "note_on channel=9 note=38 velocity=127 time=0\n",
      "note_on channel=9 note=38 velocity=0 time=60\n",
      "note_on channel=9 note=38 velocity=127 time=0\n",
      "note_on channel=9 note=38 velocity=0 time=60\n",
      "note_on channel=9 note=38 velocity=127 time=0\n",
      "note_on channel=9 note=38 velocity=0 time=60\n",
      "note_on channel=9 note=38 velocity=127 time=0\n",
      "note_on channel=9 note=38 velocity=0 time=60\n",
      "note_on channel=9 note=38 velocity=127 time=0\n",
      "note_on channel=9 note=38 velocity=0 time=60\n",
      "note_on channel=9 note=38 velocity=127 time=0\n",
      "note_on channel=9 note=38 velocity=0 time=60\n",
      "note_on channel=9 note=38 velocity=127 time=0\n",
      "note_on channel=9 note=38 velocity=0 time=60\n",
      "note_on channel=9 note=57 velocity=127 time=0\n",
      "note_on channel=9 note=35 velocity=127 time=0\n",
      "note_on channel=9 note=57 velocity=0 time=120\n",
      "note_on channel=9 note=35 velocity=0 time=0\n",
      "note_on channel=9 note=42 velocity=127 time=0\n",
      "note_on channel=9 note=38 velocity=127 time=0\n",
      "note_on channel=9 note=42 velocity=0 time=120\n",
      "note_on channel=9 note=38 velocity=0 time=0\n",
      "note_on channel=9 note=42 velocity=127 time=0\n",
      "note_on channel=9 note=35 velocity=127 time=0\n",
      "note_on channel=9 note=35 velocity=0 time=60\n",
      "note_on channel=9 note=35 velocity=127 time=0\n",
      "note_on channel=9 note=42 velocity=0 time=60\n",
      "note_on channel=9 note=35 velocity=0 time=0\n",
      "note_on channel=9 note=38 velocity=127 time=0\n",
      "note_on channel=9 note=42 velocity=127 time=0\n",
      "note_on channel=9 note=38 velocity=0 time=120\n",
      "note_on channel=9 note=42 velocity=0 time=0\n",
      "note_on channel=9 note=35 velocity=127 time=0\n",
      "note_on channel=9 note=57 velocity=127 time=0\n",
      "note_on channel=9 note=35 velocity=0 time=120\n",
      "note_on channel=9 note=57 velocity=0 time=0\n",
      "note_on channel=9 note=38 velocity=127 time=0\n",
      "note_on channel=9 note=42 velocity=127 time=0\n",
      "note_on channel=9 note=38 velocity=0 time=120\n",
      "note_on channel=9 note=42 velocity=0 time=0\n",
      "note_on channel=9 note=35 velocity=127 time=0\n",
      "note_on channel=9 note=42 velocity=127 time=0\n",
      "note_on channel=9 note=35 velocity=0 time=120\n",
      "note_on channel=9 note=42 velocity=0 time=0\n",
      "note_on channel=9 note=42 velocity=127 time=0\n",
      "note_on channel=9 note=38 velocity=127 time=0\n",
      "note_on channel=9 note=35 velocity=127 time=60\n",
      "note_on channel=9 note=42 velocity=0 time=60\n",
      "note_on channel=9 note=38 velocity=0 time=0\n",
      "note_on channel=9 note=35 velocity=0 time=0\n",
      "note_on channel=9 note=42 velocity=127 time=0\n",
      "note_on channel=9 note=35 velocity=127 time=60\n",
      "note_on channel=9 note=42 velocity=0 time=60\n",
      "note_on channel=9 note=35 velocity=0 time=0\n",
      "note_on channel=9 note=38 velocity=127 time=0\n",
      "note_on channel=9 note=42 velocity=127 time=0\n",
      "note_on channel=9 note=38 velocity=0 time=120\n",
      "note_on channel=9 note=42 velocity=0 time=0\n",
      "note_on channel=9 note=35 velocity=127 time=0\n",
      "note_on channel=9 note=57 velocity=127 time=0\n",
      "note_on channel=9 note=35 velocity=0 time=120\n",
      "note_on channel=9 note=57 velocity=0 time=0\n",
      "note_on channel=9 note=38 velocity=127 time=0\n",
      "note_on channel=9 note=42 velocity=127 time=0\n",
      "note_on channel=9 note=38 velocity=0 time=120\n",
      "note_on channel=9 note=42 velocity=0 time=0\n",
      "note_on channel=9 note=35 velocity=127 time=0\n",
      "note_on channel=9 note=42 velocity=127 time=0\n",
      "note_on channel=9 note=35 velocity=0 time=60\n",
      "note_on channel=9 note=35 velocity=127 time=0\n",
      "note_on channel=9 note=42 velocity=0 time=60\n",
      "note_on channel=9 note=35 velocity=0 time=0\n",
      "note_on channel=9 note=38 velocity=127 time=0\n",
      "note_on channel=9 note=42 velocity=127 time=0\n",
      "note_on channel=9 note=38 velocity=0 time=120\n",
      "note_on channel=9 note=42 velocity=0 time=0\n",
      "note_on channel=9 note=35 velocity=127 time=0\n",
      "note_on channel=9 note=57 velocity=127 time=0\n",
      "note_on channel=9 note=35 velocity=0 time=120\n",
      "note_on channel=9 note=57 velocity=0 time=0\n",
      "note_on channel=9 note=38 velocity=127 time=0\n",
      "note_on channel=9 note=42 velocity=127 time=0\n",
      "note_on channel=9 note=38 velocity=0 time=120\n",
      "note_on channel=9 note=42 velocity=0 time=0\n",
      "note_on channel=9 note=35 velocity=127 time=0\n",
      "note_on channel=9 note=57 velocity=127 time=0\n",
      "note_on channel=9 note=35 velocity=0 time=120\n",
      "note_on channel=9 note=57 velocity=0 time=0\n",
      "note_on channel=9 note=38 velocity=127 time=0\n",
      "note_on channel=9 note=42 velocity=127 time=0\n",
      "note_on channel=9 note=35 velocity=127 time=60\n",
      "note_on channel=9 note=38 velocity=0 time=60\n",
      "note_on channel=9 note=42 velocity=0 time=0\n",
      "note_on channel=9 note=35 velocity=0 time=0\n",
      "note_on channel=9 note=42 velocity=127 time=0\n",
      "note_on channel=9 note=35 velocity=127 time=60\n",
      "note_on channel=9 note=42 velocity=0 time=60\n",
      "note_on channel=9 note=35 velocity=0 time=0\n",
      "note_on channel=9 note=42 velocity=127 time=0\n",
      "note_on channel=9 note=38 velocity=127 time=0\n",
      "note_on channel=9 note=42 velocity=0 time=120\n",
      "note_on channel=9 note=38 velocity=0 time=0\n",
      "note_on channel=9 note=35 velocity=127 time=0\n",
      "note_on channel=9 note=57 velocity=127 time=0\n",
      "note_on channel=9 note=35 velocity=0 time=60\n",
      "note_on channel=9 note=35 velocity=127 time=0\n",
      "note_on channel=9 note=57 velocity=0 time=60\n",
      "note_on channel=9 note=35 velocity=0 time=0\n",
      "note_on channel=9 note=38 velocity=127 time=0\n",
      "note_on channel=9 note=42 velocity=127 time=0\n",
      "note_on channel=9 note=38 velocity=0 time=120\n",
      "note_on channel=9 note=42 velocity=0 time=0\n",
      "note_on channel=9 note=35 velocity=127 time=0\n",
      "note_on channel=9 note=57 velocity=127 time=0\n",
      "note_on channel=9 note=35 velocity=0 time=120\n",
      "note_on channel=9 note=57 velocity=0 time=0\n",
      "note_on channel=9 note=35 velocity=127 time=0\n",
      "note_on channel=9 note=57 velocity=127 time=0\n",
      "note_on channel=9 note=35 velocity=0 time=120\n",
      "note_on channel=9 note=57 velocity=0 time=0\n",
      "note_on channel=9 note=35 velocity=127 time=240\n",
      "note_on channel=9 note=57 velocity=127 time=0\n",
      "note_on channel=9 note=35 velocity=0 time=120\n",
      "note_on channel=9 note=57 velocity=0 time=0\n",
      "note_on channel=9 note=57 velocity=127 time=0\n",
      "note_on channel=9 note=35 velocity=127 time=0\n",
      "note_on channel=9 note=57 velocity=0 time=120\n",
      "note_on channel=9 note=35 velocity=0 time=0\n",
      "note_on channel=9 note=35 velocity=127 time=240\n",
      "note_on channel=9 note=57 velocity=127 time=0\n",
      "note_on channel=9 note=35 velocity=0 time=120\n",
      "note_on channel=9 note=57 velocity=0 time=0\n",
      "note_on channel=9 note=38 velocity=127 time=0\n",
      "note_on channel=9 note=42 velocity=127 time=0\n",
      "note_on channel=9 note=38 velocity=0 time=120\n",
      "note_on channel=9 note=42 velocity=0 time=0\n",
      "note_on channel=9 note=35 velocity=127 time=0\n",
      "note_on channel=9 note=42 velocity=127 time=0\n",
      "note_on channel=9 note=35 velocity=0 time=60\n",
      "note_on channel=9 note=35 velocity=127 time=0\n",
      "note_on channel=9 note=42 velocity=0 time=60\n",
      "note_on channel=9 note=35 velocity=0 time=0\n",
      "note_on channel=9 note=38 velocity=127 time=0\n",
      "note_on channel=9 note=42 velocity=127 time=0\n",
      "note_on channel=9 note=38 velocity=0 time=120\n",
      "note_on channel=9 note=42 velocity=0 time=0\n",
      "note_on channel=9 note=35 velocity=127 time=0\n",
      "note_on channel=9 note=57 velocity=127 time=0\n",
      "note_on channel=9 note=35 velocity=0 time=120\n",
      "note_on channel=9 note=57 velocity=0 time=0\n",
      "note_on channel=9 note=42 velocity=127 time=0\n",
      "note_on channel=9 note=38 velocity=127 time=0\n",
      "note_on channel=9 note=42 velocity=0 time=120\n",
      "note_on channel=9 note=38 velocity=0 time=0\n",
      "note_on channel=9 note=35 velocity=127 time=0\n",
      "note_on channel=9 note=57 velocity=127 time=0\n",
      "note_on channel=9 note=35 velocity=0 time=120\n",
      "note_on channel=9 note=57 velocity=0 time=0\n",
      "note_on channel=9 note=38 velocity=127 time=0\n",
      "note_on channel=9 note=42 velocity=127 time=0\n",
      "note_on channel=9 note=35 velocity=127 time=60\n",
      "note_on channel=9 note=38 velocity=0 time=60\n",
      "note_on channel=9 note=42 velocity=0 time=0\n",
      "note_on channel=9 note=35 velocity=0 time=0\n",
      "note_on channel=9 note=42 velocity=127 time=0\n",
      "note_on channel=9 note=35 velocity=127 time=60\n",
      "note_on channel=9 note=42 velocity=0 time=60\n",
      "note_on channel=9 note=35 velocity=0 time=0\n",
      "note_on channel=9 note=38 velocity=127 time=0\n",
      "note_on channel=9 note=42 velocity=127 time=0\n",
      "note_on channel=9 note=38 velocity=0 time=120\n",
      "note_on channel=9 note=42 velocity=0 time=0\n",
      "note_on channel=9 note=42 velocity=127 time=0\n",
      "note_on channel=9 note=42 velocity=0 time=60\n",
      "note_on channel=9 note=38 velocity=127 time=0\n",
      "note_on channel=9 note=38 velocity=0 time=60\n",
      "note_on channel=9 note=38 velocity=127 time=0\n",
      "note_on channel=9 note=38 velocity=0 time=60\n",
      "note_on channel=9 note=38 velocity=127 time=0\n",
      "note_on channel=9 note=38 velocity=0 time=60\n",
      "note_on channel=9 note=38 velocity=127 time=0\n",
      "note_on channel=9 note=38 velocity=0 time=30\n",
      "note_on channel=9 note=38 velocity=127 time=30\n",
      "note_on channel=9 note=38 velocity=0 time=30\n",
      "note_on channel=9 note=38 velocity=127 time=0\n",
      "note_on channel=9 note=38 velocity=0 time=30\n",
      "note_on channel=9 note=38 velocity=127 time=0\n",
      "note_on channel=9 note=38 velocity=0 time=60\n",
      "note_on channel=9 note=38 velocity=127 time=0\n",
      "note_on channel=9 note=38 velocity=0 time=60\n",
      "note_on channel=9 note=35 velocity=127 time=0\n",
      "note_on channel=9 note=57 velocity=127 time=0\n",
      "note_on channel=9 note=35 velocity=0 time=120\n",
      "note_on channel=9 note=57 velocity=0 time=0\n",
      "note_on channel=9 note=35 velocity=127 time=0\n",
      "note_on channel=9 note=57 velocity=127 time=0\n",
      "note_on channel=9 note=35 velocity=0 time=120\n",
      "note_on channel=9 note=57 velocity=0 time=0\n",
      "note_on channel=9 note=57 velocity=127 time=240\n",
      "note_on channel=9 note=35 velocity=127 time=0\n",
      "note_on channel=9 note=57 velocity=0 time=120\n",
      "note_on channel=9 note=35 velocity=0 time=0\n",
      "note_on channel=9 note=35 velocity=127 time=0\n",
      "note_on channel=9 note=57 velocity=127 time=0\n",
      "note_on channel=9 note=35 velocity=0 time=120\n",
      "note_on channel=9 note=57 velocity=0 time=0\n",
      "note_on channel=9 note=57 velocity=127 time=3120\n",
      "note_on channel=9 note=44 velocity=127 time=0\n",
      "note_on channel=9 note=38 velocity=127 time=0\n",
      "note_on channel=9 note=57 velocity=0 time=120\n",
      "note_on channel=9 note=44 velocity=0 time=0\n",
      "note_on channel=9 note=38 velocity=0 time=0\n",
      "note_on channel=9 note=44 velocity=127 time=0\n",
      "note_on channel=9 note=44 velocity=0 time=120\n",
      "note_on channel=9 note=44 velocity=127 time=0\n",
      "note_on channel=9 note=57 velocity=127 time=0\n",
      "note_on channel=9 note=38 velocity=127 time=0\n",
      "note_on channel=9 note=44 velocity=0 time=120\n",
      "note_on channel=9 note=57 velocity=0 time=0\n",
      "note_on channel=9 note=38 velocity=0 time=0\n",
      "note_on channel=9 note=44 velocity=127 time=0\n",
      "note_on channel=9 note=44 velocity=0 time=120\n",
      "note_on channel=9 note=44 velocity=127 time=0\n",
      "note_on channel=9 note=44 velocity=0 time=120\n",
      "note_on channel=9 note=44 velocity=127 time=0\n",
      "note_on channel=9 note=44 velocity=0 time=120\n",
      "note_on channel=9 note=44 velocity=127 time=0\n",
      "note_on channel=9 note=57 velocity=127 time=0\n",
      "note_on channel=9 note=38 velocity=127 time=0\n",
      "note_on channel=9 note=44 velocity=0 time=120\n",
      "note_on channel=9 note=57 velocity=0 time=0\n",
      "note_on channel=9 note=38 velocity=0 time=0\n",
      "note_on channel=9 note=44 velocity=127 time=0\n",
      "note_on channel=9 note=44 velocity=0 time=120\n",
      "note_on channel=9 note=44 velocity=127 time=0\n",
      "note_on channel=9 note=44 velocity=0 time=120\n",
      "note_on channel=9 note=44 velocity=127 time=0\n",
      "note_on channel=9 note=44 velocity=0 time=120\n",
      "note_on channel=9 note=57 velocity=127 time=0\n",
      "note_on channel=9 note=38 velocity=127 time=0\n",
      "note_on channel=9 note=44 velocity=127 time=0\n",
      "note_on channel=9 note=57 velocity=0 time=120\n",
      "note_on channel=9 note=38 velocity=0 time=0\n",
      "note_on channel=9 note=44 velocity=0 time=0\n",
      "note_on channel=9 note=44 velocity=127 time=0\n",
      "note_on channel=9 note=44 velocity=0 time=120\n",
      "note_on channel=9 note=44 velocity=127 time=0\n",
      "note_on channel=9 note=38 velocity=127 time=0\n",
      "note_on channel=9 note=57 velocity=127 time=0\n",
      "note_on channel=9 note=44 velocity=0 time=120\n",
      "note_on channel=9 note=38 velocity=0 time=0\n",
      "note_on channel=9 note=57 velocity=0 time=0\n",
      "note_on channel=9 note=44 velocity=127 time=0\n",
      "note_on channel=9 note=44 velocity=0 time=120\n",
      "note_on channel=9 note=57 velocity=127 time=0\n",
      "note_on channel=9 note=44 velocity=127 time=0\n",
      "note_on channel=9 note=38 velocity=127 time=0\n",
      "note_on channel=9 note=57 velocity=0 time=120\n",
      "note_on channel=9 note=44 velocity=0 time=0\n",
      "note_on channel=9 note=38 velocity=0 time=0\n",
      "note_on channel=9 note=44 velocity=127 time=0\n",
      "note_on channel=9 note=44 velocity=0 time=120\n",
      "note_on channel=9 note=35 velocity=127 time=0\n",
      "note_on channel=9 note=57 velocity=127 time=0\n",
      "note_on channel=9 note=57 velocity=0 time=60\n",
      "note_on channel=9 note=42 velocity=127 time=0\n",
      "note_on channel=9 note=35 velocity=0 time=60\n",
      "note_on channel=9 note=42 velocity=0 time=0\n",
      "note_on channel=9 note=42 velocity=127 time=0\n",
      "note_on channel=9 note=42 velocity=0 time=60\n",
      "note_on channel=9 note=35 velocity=127 time=0\n",
      "note_on channel=9 note=42 velocity=127 time=0\n",
      "note_on channel=9 note=35 velocity=0 time=60\n",
      "note_on channel=9 note=42 velocity=0 time=0\n",
      "note_on channel=9 note=38 velocity=127 time=0\n",
      "note_on channel=9 note=42 velocity=127 time=0\n",
      "note_on channel=9 note=38 velocity=0 time=60\n",
      "note_on channel=9 note=42 velocity=0 time=0\n",
      "note_on channel=9 note=42 velocity=127 time=0\n",
      "note_on channel=9 note=42 velocity=0 time=60\n",
      "note_on channel=9 note=42 velocity=127 time=0\n",
      "note_on channel=9 note=42 velocity=0 time=60\n",
      "note_on channel=9 note=42 velocity=127 time=0\n",
      "note_on channel=9 note=35 velocity=127 time=0\n",
      "note_on channel=9 note=42 velocity=0 time=60\n",
      "note_on channel=9 note=35 velocity=0 time=0\n",
      "note_on channel=9 note=42 velocity=127 time=0\n",
      "note_on channel=9 note=35 velocity=127 time=0\n",
      "note_on channel=9 note=42 velocity=0 time=60\n",
      "note_on channel=9 note=42 velocity=127 time=0\n",
      "note_on channel=9 note=35 velocity=0 time=60\n",
      "note_on channel=9 note=42 velocity=0 time=0\n",
      "note_on channel=9 note=42 velocity=127 time=0\n",
      "note_on channel=9 note=42 velocity=0 time=60\n",
      "note_on channel=9 note=35 velocity=127 time=0\n",
      "note_on channel=9 note=42 velocity=127 time=0\n",
      "note_on channel=9 note=35 velocity=0 time=60\n",
      "note_on channel=9 note=42 velocity=0 time=0\n",
      "note_on channel=9 note=38 velocity=127 time=0\n",
      "note_on channel=9 note=42 velocity=127 time=0\n",
      "note_on channel=9 note=38 velocity=0 time=60\n",
      "note_on channel=9 note=42 velocity=0 time=0\n",
      "note_on channel=9 note=35 velocity=127 time=0\n",
      "note_on channel=9 note=46 velocity=127 time=0\n",
      "note_on channel=9 note=35 velocity=0 time=60\n",
      "note_on channel=9 note=46 velocity=0 time=0\n",
      "note_on channel=9 note=42 velocity=127 time=0\n",
      "note_on channel=9 note=42 velocity=0 time=60\n",
      "note_on channel=9 note=35 velocity=127 time=0\n",
      "note_on channel=9 note=42 velocity=127 time=0\n",
      "note_on channel=9 note=35 velocity=0 time=60\n",
      "note_on channel=9 note=42 velocity=0 time=0\n",
      "note_on channel=9 note=42 velocity=127 time=0\n",
      "note_on channel=9 note=35 velocity=127 time=0\n",
      "note_on channel=9 note=42 velocity=0 time=60\n",
      "note_on channel=9 note=42 velocity=127 time=0\n",
      "note_on channel=9 note=35 velocity=0 time=60\n",
      "note_on channel=9 note=42 velocity=0 time=0\n",
      "note_on channel=9 note=42 velocity=127 time=0\n",
      "note_on channel=9 note=42 velocity=0 time=60\n",
      "note_on channel=9 note=35 velocity=127 time=0\n",
      "note_on channel=9 note=42 velocity=127 time=0\n",
      "note_on channel=9 note=35 velocity=0 time=60\n",
      "note_on channel=9 note=42 velocity=0 time=0\n",
      "note_on channel=9 note=38 velocity=127 time=0\n",
      "note_on channel=9 note=57 velocity=127 time=0\n",
      "note_on channel=9 note=38 velocity=0 time=60\n",
      "note_on channel=9 note=57 velocity=0 time=0\n",
      "note_on channel=9 note=42 velocity=127 time=0\n",
      "note_on channel=9 note=42 velocity=0 time=60\n",
      "note_on channel=9 note=42 velocity=127 time=0\n",
      "note_on channel=9 note=42 velocity=0 time=60\n",
      "note_on channel=9 note=35 velocity=127 time=0\n",
      "note_on channel=9 note=42 velocity=127 time=0\n",
      "note_on channel=9 note=35 velocity=0 time=60\n",
      "note_on channel=9 note=42 velocity=0 time=0\n",
      "note_on channel=9 note=35 velocity=127 time=0\n",
      "note_on channel=9 note=42 velocity=127 time=0\n",
      "note_on channel=9 note=42 velocity=0 time=60\n",
      "note_on channel=9 note=42 velocity=127 time=0\n",
      "note_on channel=9 note=35 velocity=0 time=60\n",
      "note_on channel=9 note=42 velocity=0 time=0\n",
      "note_on channel=9 note=42 velocity=127 time=0\n",
      "note_on channel=9 note=42 velocity=0 time=60\n",
      "note_on channel=9 note=35 velocity=127 time=0\n",
      "note_on channel=9 note=42 velocity=127 time=0\n",
      "note_on channel=9 note=35 velocity=0 time=60\n",
      "note_on channel=9 note=42 velocity=0 time=0\n",
      "note_on channel=9 note=38 velocity=127 time=0\n",
      "note_on channel=9 note=42 velocity=127 time=0\n",
      "note_on channel=9 note=38 velocity=0 time=60\n",
      "note_on channel=9 note=42 velocity=0 time=0\n",
      "note_on channel=9 note=38 velocity=127 time=0\n",
      "note_on channel=9 note=38 velocity=0 time=20\n",
      "note_on channel=9 note=38 velocity=127 time=0\n",
      "note_on channel=9 note=38 velocity=0 time=20\n",
      "note_on channel=9 note=38 velocity=127 time=0\n",
      "note_on channel=9 note=38 velocity=0 time=20\n",
      "note_on channel=9 note=38 velocity=127 time=0\n",
      "note_on channel=9 note=38 velocity=0 time=60\n",
      "note_on channel=9 note=38 velocity=127 time=0\n",
      "note_on channel=9 note=38 velocity=0 time=60\n",
      "note_on channel=9 note=57 velocity=127 time=0\n",
      "note_on channel=9 note=35 velocity=127 time=0\n",
      "note_on channel=9 note=57 velocity=0 time=60\n",
      "note_on channel=9 note=42 velocity=127 time=0\n",
      "note_on channel=9 note=35 velocity=0 time=60\n",
      "note_on channel=9 note=42 velocity=0 time=0\n",
      "note_on channel=9 note=42 velocity=127 time=0\n",
      "note_on channel=9 note=42 velocity=0 time=60\n",
      "note_on channel=9 note=35 velocity=127 time=0\n",
      "note_on channel=9 note=42 velocity=127 time=0\n",
      "note_on channel=9 note=35 velocity=0 time=60\n",
      "note_on channel=9 note=42 velocity=0 time=0\n",
      "note_on channel=9 note=38 velocity=127 time=0\n",
      "note_on channel=9 note=42 velocity=127 time=0\n",
      "note_on channel=9 note=38 velocity=0 time=60\n",
      "note_on channel=9 note=42 velocity=0 time=0\n",
      "note_on channel=9 note=42 velocity=127 time=0\n",
      "note_on channel=9 note=42 velocity=0 time=60\n",
      "note_on channel=9 note=42 velocity=127 time=0\n",
      "note_on channel=9 note=42 velocity=0 time=60\n",
      "note_on channel=9 note=35 velocity=127 time=0\n",
      "note_on channel=9 note=42 velocity=127 time=0\n",
      "note_on channel=9 note=35 velocity=0 time=60\n",
      "note_on channel=9 note=42 velocity=0 time=0\n",
      "note_on channel=9 note=42 velocity=127 time=0\n",
      "note_on channel=9 note=35 velocity=127 time=0\n",
      "note_on channel=9 note=42 velocity=0 time=60\n",
      "note_on channel=9 note=42 velocity=127 time=0\n",
      "note_on channel=9 note=35 velocity=0 time=60\n",
      "note_on channel=9 note=42 velocity=0 time=0\n",
      "note_on channel=9 note=42 velocity=127 time=0\n",
      "note_on channel=9 note=42 velocity=0 time=60\n",
      "note_on channel=9 note=35 velocity=127 time=0\n",
      "note_on channel=9 note=42 velocity=127 time=0\n",
      "note_on channel=9 note=35 velocity=0 time=60\n",
      "note_on channel=9 note=42 velocity=0 time=0\n",
      "note_on channel=9 note=38 velocity=127 time=0\n",
      "note_on channel=9 note=42 velocity=127 time=0\n",
      "note_on channel=9 note=38 velocity=0 time=60\n",
      "note_on channel=9 note=42 velocity=0 time=0\n",
      "note_on channel=9 note=35 velocity=127 time=0\n",
      "note_on channel=9 note=46 velocity=127 time=0\n",
      "note_on channel=9 note=35 velocity=0 time=60\n",
      "note_on channel=9 note=46 velocity=0 time=0\n",
      "note_on channel=9 note=42 velocity=127 time=0\n",
      "note_on channel=9 note=42 velocity=0 time=60\n",
      "note_on channel=9 note=35 velocity=127 time=0\n",
      "note_on channel=9 note=42 velocity=127 time=0\n",
      "note_on channel=9 note=35 velocity=0 time=60\n",
      "note_on channel=9 note=42 velocity=0 time=0\n",
      "note_on channel=9 note=42 velocity=127 time=0\n",
      "note_on channel=9 note=35 velocity=127 time=0\n",
      "note_on channel=9 note=42 velocity=0 time=60\n",
      "note_on channel=9 note=42 velocity=127 time=0\n",
      "note_on channel=9 note=35 velocity=0 time=60\n",
      "note_on channel=9 note=42 velocity=0 time=0\n",
      "note_on channel=9 note=42 velocity=127 time=0\n",
      "note_on channel=9 note=42 velocity=0 time=60\n",
      "note_on channel=9 note=35 velocity=127 time=0\n",
      "note_on channel=9 note=42 velocity=127 time=0\n",
      "note_on channel=9 note=35 velocity=0 time=60\n",
      "note_on channel=9 note=42 velocity=0 time=0\n",
      "note_on channel=9 note=38 velocity=127 time=0\n",
      "note_on channel=9 note=57 velocity=127 time=0\n",
      "note_on channel=9 note=38 velocity=0 time=60\n",
      "note_on channel=9 note=57 velocity=0 time=0\n",
      "note_on channel=9 note=42 velocity=127 time=0\n",
      "note_on channel=9 note=42 velocity=0 time=60\n",
      "note_on channel=9 note=42 velocity=127 time=0\n",
      "note_on channel=9 note=42 velocity=0 time=60\n",
      "note_on channel=9 note=35 velocity=127 time=0\n",
      "note_on channel=9 note=42 velocity=127 time=0\n",
      "note_on channel=9 note=35 velocity=0 time=60\n",
      "note_on channel=9 note=42 velocity=0 time=0\n",
      "note_on channel=9 note=38 velocity=127 time=0\n",
      "note_on channel=9 note=42 velocity=127 time=0\n",
      "note_on channel=9 note=38 velocity=0 time=60\n",
      "note_on channel=9 note=42 velocity=0 time=0\n",
      "note_on channel=9 note=38 velocity=127 time=0\n",
      "note_on channel=9 note=42 velocity=127 time=0\n",
      "note_on channel=9 note=38 velocity=0 time=60\n",
      "note_on channel=9 note=42 velocity=0 time=0\n",
      "note_on channel=9 note=42 velocity=127 time=0\n",
      "note_on channel=9 note=35 velocity=127 time=0\n",
      "note_on channel=9 note=42 velocity=0 time=60\n",
      "note_on channel=9 note=42 velocity=127 time=0\n",
      "note_on channel=9 note=38 velocity=127 time=0\n",
      "note_on channel=9 note=42 velocity=127 time=0\n",
      "note_on channel=9 note=42 velocity=127 time=0\n",
      "note_on channel=9 note=35 velocity=0 time=60\n",
      "note_on channel=9 note=42 velocity=0 time=0\n",
      "note_on channel=9 note=38 velocity=0 time=0\n",
      "note_on channel=9 note=42 velocity=0 time=0\n",
      "note_on channel=9 note=42 velocity=0 time=0\n",
      "note_on channel=9 note=38 velocity=127 time=0\n",
      "note_on channel=9 note=42 velocity=127 time=0\n",
      "note_on channel=9 note=38 velocity=0 time=60\n",
      "note_on channel=9 note=42 velocity=0 time=0\n",
      "note_on channel=9 note=38 velocity=127 time=0\n",
      "note_on channel=9 note=42 velocity=127 time=0\n",
      "note_on channel=9 note=38 velocity=0 time=60\n",
      "note_on channel=9 note=42 velocity=0 time=0\n",
      "note_on channel=9 note=38 velocity=127 time=0\n",
      "note_on channel=9 note=38 velocity=0 time=30\n",
      "note_on channel=9 note=38 velocity=127 time=0\n",
      "note_on channel=9 note=38 velocity=0 time=30\n",
      "note_on channel=9 note=38 velocity=127 time=0\n",
      "note_on channel=9 note=38 velocity=0 time=60\n",
      "note_on channel=9 note=35 velocity=127 time=0\n",
      "note_on channel=9 note=57 velocity=127 time=0\n",
      "note_on channel=9 note=57 velocity=0 time=60\n",
      "note_on channel=9 note=42 velocity=127 time=0\n",
      "note_on channel=9 note=35 velocity=0 time=60\n",
      "note_on channel=9 note=42 velocity=0 time=0\n",
      "note_on channel=9 note=38 velocity=127 time=0\n",
      "note_on channel=9 note=42 velocity=127 time=0\n",
      "note_on channel=9 note=38 velocity=0 time=60\n",
      "note_on channel=9 note=42 velocity=0 time=0\n",
      "note_on channel=9 note=42 velocity=127 time=0\n",
      "note_on channel=9 note=42 velocity=0 time=60\n",
      "note_on channel=9 note=35 velocity=127 time=0\n",
      "note_on channel=9 note=42 velocity=127 time=0\n",
      "note_on channel=9 note=42 velocity=0 time=60\n",
      "note_on channel=9 note=42 velocity=127 time=0\n",
      "note_on channel=9 note=35 velocity=0 time=60\n",
      "note_on channel=9 note=42 velocity=0 time=0\n",
      "note_on channel=9 note=38 velocity=127 time=0\n",
      "note_on channel=9 note=42 velocity=127 time=0\n",
      "note_on channel=9 note=38 velocity=0 time=60\n",
      "note_on channel=9 note=42 velocity=0 time=0\n",
      "note_on channel=9 note=42 velocity=127 time=0\n",
      "note_on channel=9 note=42 velocity=0 time=60\n",
      "note_on channel=9 note=42 velocity=127 time=0\n",
      "note_on channel=9 note=35 velocity=127 time=0\n",
      "note_on channel=9 note=42 velocity=0 time=60\n",
      "note_on channel=9 note=42 velocity=127 time=0\n",
      "note_on channel=9 note=35 velocity=0 time=60\n",
      "note_on channel=9 note=42 velocity=0 time=0\n",
      "note_on channel=9 note=38 velocity=127 time=0\n",
      "note_on channel=9 note=42 velocity=127 time=0\n",
      "note_on channel=9 note=38 velocity=0 time=60\n",
      "note_on channel=9 note=42 velocity=0 time=0\n",
      "note_on channel=9 note=35 velocity=127 time=0\n",
      "note_on channel=9 note=42 velocity=127 time=0\n",
      "note_on channel=9 note=35 velocity=0 time=60\n",
      "note_on channel=9 note=42 velocity=0 time=0\n",
      "note_on channel=9 note=42 velocity=127 time=0\n",
      "note_on channel=9 note=35 velocity=127 time=0\n",
      "note_on channel=9 note=42 velocity=0 time=60\n",
      "note_on channel=9 note=42 velocity=127 time=0\n",
      "note_on channel=9 note=35 velocity=0 time=60\n",
      "note_on channel=9 note=42 velocity=0 time=0\n",
      "note_on channel=9 note=38 velocity=127 time=0\n",
      "note_on channel=9 note=57 velocity=127 time=0\n",
      "note_on channel=9 note=35 velocity=127 time=90\n",
      "note_on channel=9 note=35 velocity=0 time=15\n",
      "note_on channel=9 note=36 velocity=127 time=0\n",
      "note_on channel=9 note=38 velocity=0 time=15\n",
      "note_on channel=9 note=57 velocity=0 time=0\n",
      "note_on channel=9 note=36 velocity=0 time=0\n",
      "note_on channel=9 note=42 velocity=127 time=0\n",
      "note_on channel=9 note=35 velocity=127 time=0\n",
      "note_on channel=9 note=42 velocity=0 time=60\n",
      "note_on channel=9 note=42 velocity=127 time=0\n",
      "note_on channel=9 note=35 velocity=0 time=60\n",
      "note_on channel=9 note=42 velocity=0 time=0\n",
      "note_on channel=9 note=38 velocity=127 time=0\n",
      "note_on channel=9 note=42 velocity=127 time=0\n",
      "note_on channel=9 note=38 velocity=0 time=60\n",
      "note_on channel=9 note=42 velocity=0 time=0\n",
      "note_on channel=9 note=35 velocity=127 time=0\n",
      "note_on channel=9 note=42 velocity=127 time=0\n",
      "note_on channel=9 note=35 velocity=0 time=60\n",
      "note_on channel=9 note=42 velocity=0 time=0\n",
      "note_on channel=9 note=35 velocity=127 time=0\n",
      "note_on channel=9 note=42 velocity=127 time=0\n",
      "note_on channel=9 note=42 velocity=0 time=60\n",
      "note_on channel=9 note=42 velocity=127 time=0\n",
      "note_on channel=9 note=35 velocity=0 time=60\n",
      "note_on channel=9 note=42 velocity=0 time=0\n",
      "note_on channel=9 note=38 velocity=127 time=0\n",
      "note_on channel=9 note=57 velocity=127 time=0\n",
      "note_on channel=9 note=38 velocity=0 time=120\n",
      "note_on channel=9 note=57 velocity=0 time=0\n",
      "note_on channel=9 note=35 velocity=127 time=0\n",
      "note_on channel=9 note=42 velocity=127 time=0\n",
      "note_on channel=9 note=42 velocity=0 time=60\n",
      "note_on channel=9 note=57 velocity=127 time=0\n",
      "note_on channel=9 note=38 velocity=127 time=0\n",
      "note_on channel=9 note=35 velocity=0 time=60\n",
      "note_on channel=9 note=57 velocity=0 time=0\n",
      "note_on channel=9 note=38 velocity=0 time=0\n",
      "note_on channel=9 note=38 velocity=127 time=0\n",
      "note_on channel=9 note=38 velocity=0 time=30\n",
      "note_on channel=9 note=45 velocity=127 time=0\n",
      "note_on channel=9 note=45 velocity=0 time=30\n",
      "note_on channel=9 note=45 velocity=127 time=0\n",
      "note_on channel=9 note=45 velocity=0 time=60\n",
      "note_on channel=9 note=47 velocity=127 time=0\n",
      "note_on channel=9 note=47 velocity=0 time=30\n",
      "note_on channel=9 note=47 velocity=127 time=0\n",
      "note_on channel=9 note=47 velocity=0 time=30\n",
      "note_on channel=9 note=47 velocity=127 time=0\n",
      "note_on channel=9 note=47 velocity=0 time=60\n",
      "note_on channel=9 note=48 velocity=127 time=0\n",
      "note_on channel=9 note=48 velocity=0 time=30\n",
      "note_on channel=9 note=48 velocity=127 time=0\n",
      "note_on channel=9 note=48 velocity=0 time=30\n",
      "note_on channel=9 note=48 velocity=127 time=0\n",
      "note_on channel=9 note=48 velocity=0 time=60\n",
      "note_on channel=9 note=35 velocity=127 time=0\n",
      "note_on channel=9 note=57 velocity=127 time=0\n",
      "note_on channel=9 note=35 velocity=0 time=120\n",
      "note_on channel=9 note=57 velocity=0 time=0\n",
      "note_on channel=9 note=38 velocity=127 time=0\n",
      "note_on channel=9 note=42 velocity=127 time=0\n",
      "note_on channel=9 note=38 velocity=0 time=60\n",
      "note_on channel=9 note=42 velocity=0 time=0\n",
      "note_on channel=9 note=42 velocity=127 time=0\n",
      "note_on channel=9 note=35 velocity=127 time=0\n",
      "note_on channel=9 note=42 velocity=0 time=60\n",
      "note_on channel=9 note=35 velocity=0 time=0\n",
      "note_on channel=9 note=35 velocity=127 time=0\n",
      "note_on channel=9 note=42 velocity=127 time=0\n",
      "note_on channel=9 note=42 velocity=0 time=60\n",
      "note_on channel=9 note=42 velocity=127 time=0\n",
      "note_on channel=9 note=35 velocity=0 time=60\n",
      "note_on channel=9 note=42 velocity=0 time=0\n",
      "note_on channel=9 note=38 velocity=127 time=0\n",
      "note_on channel=9 note=42 velocity=127 time=0\n",
      "note_on channel=9 note=38 velocity=0 time=60\n",
      "note_on channel=9 note=42 velocity=0 time=0\n",
      "note_on channel=9 note=42 velocity=127 time=0\n",
      "note_on channel=9 note=42 velocity=0 time=60\n",
      "note_on channel=9 note=35 velocity=127 time=0\n",
      "note_on channel=9 note=42 velocity=127 time=0\n",
      "note_on channel=9 note=42 velocity=0 time=60\n",
      "note_on channel=9 note=42 velocity=127 time=0\n",
      "note_on channel=9 note=35 velocity=0 time=60\n",
      "note_on channel=9 note=42 velocity=0 time=0\n",
      "note_on channel=9 note=42 velocity=127 time=0\n",
      "note_on channel=9 note=38 velocity=127 time=0\n",
      "note_on channel=9 note=42 velocity=0 time=60\n",
      "note_on channel=9 note=38 velocity=0 time=0\n",
      "note_on channel=9 note=35 velocity=127 time=0\n",
      "note_on channel=9 note=42 velocity=127 time=0\n",
      "note_on channel=9 note=35 velocity=0 time=60\n",
      "note_on channel=9 note=42 velocity=0 time=0\n",
      "note_on channel=9 note=42 velocity=127 time=0\n",
      "note_on channel=9 note=35 velocity=127 time=0\n",
      "note_on channel=9 note=42 velocity=0 time=60\n",
      "note_on channel=9 note=42 velocity=127 time=0\n",
      "note_on channel=9 note=35 velocity=0 time=60\n",
      "note_on channel=9 note=42 velocity=0 time=0\n",
      "note_on channel=9 note=57 velocity=127 time=0\n",
      "note_on channel=9 note=38 velocity=127 time=0\n",
      "note_on channel=9 note=57 velocity=0 time=120\n",
      "note_on channel=9 note=38 velocity=0 time=0\n",
      "note_on channel=9 note=42 velocity=127 time=0\n",
      "note_on channel=9 note=35 velocity=127 time=0\n",
      "note_on channel=9 note=42 velocity=0 time=60\n",
      "note_on channel=9 note=42 velocity=127 time=0\n",
      "note_on channel=9 note=35 velocity=0 time=60\n",
      "note_on channel=9 note=42 velocity=0 time=0\n",
      "note_on channel=9 note=42 velocity=127 time=0\n",
      "note_on channel=9 note=38 velocity=127 time=0\n",
      "note_on channel=9 note=42 velocity=0 time=60\n",
      "note_on channel=9 note=38 velocity=0 time=0\n",
      "note_on channel=9 note=42 velocity=127 time=0\n",
      "note_on channel=9 note=35 velocity=127 time=0\n",
      "note_on channel=9 note=42 velocity=0 time=60\n",
      "note_on channel=9 note=35 velocity=0 time=0\n",
      "note_on channel=9 note=35 velocity=127 time=0\n",
      "note_on channel=9 note=42 velocity=127 time=0\n",
      "note_on channel=9 note=42 velocity=0 time=60\n",
      "note_on channel=9 note=42 velocity=127 time=0\n",
      "note_on channel=9 note=35 velocity=0 time=60\n",
      "note_on channel=9 note=42 velocity=0 time=0\n",
      "note_on channel=9 note=38 velocity=127 time=0\n",
      "note_on channel=9 note=57 velocity=127 time=0\n",
      "note_on channel=9 note=38 velocity=0 time=60\n",
      "note_on channel=9 note=57 velocity=0 time=0\n",
      "note_on channel=9 note=38 velocity=127 time=0\n",
      "note_on channel=9 note=57 velocity=127 time=0\n",
      "note_on channel=9 note=38 velocity=0 time=60\n",
      "note_on channel=9 note=57 velocity=0 time=0\n",
      "note_on channel=9 note=38 velocity=127 time=0\n",
      "note_on channel=9 note=38 velocity=0 time=30\n",
      "note_on channel=9 note=38 velocity=127 time=0\n",
      "note_on channel=9 note=38 velocity=0 time=30\n",
      "note_on channel=9 note=38 velocity=127 time=0\n",
      "note_on channel=9 note=38 velocity=0 time=60\n",
      "note_on channel=9 note=45 velocity=127 time=0\n",
      "note_on channel=9 note=45 velocity=0 time=30\n",
      "note_on channel=9 note=45 velocity=127 time=0\n",
      "note_on channel=9 note=45 velocity=0 time=30\n",
      "note_on channel=9 note=45 velocity=127 time=0\n",
      "note_on channel=9 note=45 velocity=0 time=60\n",
      "note_on channel=9 note=47 velocity=127 time=0\n",
      "note_on channel=9 note=47 velocity=0 time=15\n",
      "note_on channel=9 note=47 velocity=127 time=0\n",
      "note_on channel=9 note=47 velocity=0 time=15\n",
      "note_on channel=9 note=47 velocity=127 time=0\n",
      "note_on channel=9 note=47 velocity=0 time=15\n",
      "note_on channel=9 note=47 velocity=127 time=0\n",
      "note_on channel=9 note=47 velocity=0 time=15\n",
      "note_on channel=9 note=47 velocity=127 time=0\n",
      "note_on channel=9 note=47 velocity=0 time=30\n",
      "note_on channel=9 note=47 velocity=127 time=0\n",
      "note_on channel=9 note=47 velocity=0 time=30\n",
      "note_on channel=9 note=48 velocity=127 time=0\n",
      "note_on channel=9 note=48 velocity=0 time=30\n",
      "note_on channel=9 note=48 velocity=127 time=0\n",
      "note_on channel=9 note=48 velocity=0 time=30\n",
      "note_on channel=9 note=48 velocity=127 time=0\n",
      "note_on channel=9 note=48 velocity=0 time=30\n",
      "note_on channel=9 note=48 velocity=127 time=0\n",
      "note_on channel=9 note=48 velocity=0 time=30\n",
      "note_on channel=9 note=57 velocity=127 time=0\n",
      "note_on channel=9 note=35 velocity=127 time=0\n",
      "note_on channel=9 note=57 velocity=0 time=60\n",
      "note_on channel=9 note=42 velocity=127 time=0\n",
      "note_on channel=9 note=35 velocity=0 time=60\n",
      "note_on channel=9 note=42 velocity=0 time=0\n",
      "note_on channel=9 note=42 velocity=127 time=0\n",
      "note_on channel=9 note=42 velocity=0 time=60\n",
      "note_on channel=9 note=35 velocity=127 time=0\n",
      "note_on channel=9 note=42 velocity=127 time=0\n",
      "note_on channel=9 note=35 velocity=0 time=60\n",
      "note_on channel=9 note=42 velocity=0 time=0\n",
      "note_on channel=9 note=38 velocity=127 time=0\n",
      "note_on channel=9 note=42 velocity=127 time=0\n",
      "note_on channel=9 note=38 velocity=0 time=60\n",
      "note_on channel=9 note=42 velocity=0 time=0\n",
      "note_on channel=9 note=42 velocity=127 time=0\n",
      "note_on channel=9 note=42 velocity=0 time=60\n",
      "note_on channel=9 note=42 velocity=127 time=0\n",
      "note_on channel=9 note=42 velocity=0 time=60\n",
      "note_on channel=9 note=35 velocity=127 time=0\n",
      "note_on channel=9 note=42 velocity=127 time=0\n",
      "note_on channel=9 note=35 velocity=0 time=60\n",
      "note_on channel=9 note=42 velocity=0 time=0\n",
      "note_on channel=9 note=35 velocity=127 time=0\n",
      "note_on channel=9 note=42 velocity=127 time=0\n",
      "note_on channel=9 note=42 velocity=0 time=60\n",
      "note_on channel=9 note=42 velocity=127 time=0\n",
      "note_on channel=9 note=35 velocity=0 time=60\n",
      "note_on channel=9 note=42 velocity=0 time=0\n",
      "note_on channel=9 note=42 velocity=127 time=0\n",
      "note_on channel=9 note=42 velocity=0 time=60\n",
      "note_on channel=9 note=35 velocity=127 time=0\n",
      "note_on channel=9 note=42 velocity=127 time=0\n",
      "note_on channel=9 note=35 velocity=0 time=60\n",
      "note_on channel=9 note=42 velocity=0 time=0\n",
      "note_on channel=9 note=38 velocity=127 time=0\n",
      "note_on channel=9 note=42 velocity=127 time=0\n",
      "note_on channel=9 note=38 velocity=0 time=60\n",
      "note_on channel=9 note=42 velocity=0 time=0\n",
      "note_on channel=9 note=35 velocity=127 time=0\n",
      "note_on channel=9 note=46 velocity=127 time=0\n",
      "note_on channel=9 note=35 velocity=0 time=60\n",
      "note_on channel=9 note=46 velocity=0 time=0\n",
      "note_on channel=9 note=42 velocity=127 time=0\n",
      "note_on channel=9 note=42 velocity=0 time=60\n",
      "note_on channel=9 note=35 velocity=127 time=0\n",
      "note_on channel=9 note=42 velocity=127 time=0\n",
      "note_on channel=9 note=35 velocity=0 time=60\n",
      "note_on channel=9 note=42 velocity=0 time=0\n",
      "note_on channel=9 note=42 velocity=127 time=0\n",
      "note_on channel=9 note=35 velocity=127 time=0\n",
      "note_on channel=9 note=42 velocity=0 time=60\n",
      "note_on channel=9 note=42 velocity=127 time=0\n",
      "note_on channel=9 note=35 velocity=0 time=60\n",
      "note_on channel=9 note=42 velocity=0 time=0\n",
      "note_on channel=9 note=42 velocity=127 time=0\n",
      "note_on channel=9 note=42 velocity=0 time=60\n",
      "note_on channel=9 note=35 velocity=127 time=0\n",
      "note_on channel=9 note=42 velocity=127 time=0\n",
      "note_on channel=9 note=35 velocity=0 time=60\n",
      "note_on channel=9 note=42 velocity=0 time=0\n",
      "note_on channel=9 note=38 velocity=127 time=0\n",
      "note_on channel=9 note=57 velocity=127 time=0\n",
      "note_on channel=9 note=38 velocity=0 time=60\n",
      "note_on channel=9 note=57 velocity=0 time=0\n",
      "note_on channel=9 note=42 velocity=127 time=0\n",
      "note_on channel=9 note=42 velocity=0 time=60\n",
      "note_on channel=9 note=42 velocity=127 time=0\n",
      "note_on channel=9 note=42 velocity=0 time=60\n",
      "note_on channel=9 note=35 velocity=127 time=0\n",
      "note_on channel=9 note=42 velocity=127 time=0\n",
      "note_on channel=9 note=35 velocity=0 time=60\n",
      "note_on channel=9 note=42 velocity=0 time=0\n",
      "note_on channel=9 note=35 velocity=127 time=0\n",
      "note_on channel=9 note=42 velocity=127 time=0\n",
      "note_on channel=9 note=42 velocity=0 time=60\n",
      "note_on channel=9 note=42 velocity=127 time=0\n",
      "note_on channel=9 note=35 velocity=0 time=60\n",
      "note_on channel=9 note=42 velocity=0 time=0\n",
      "note_on channel=9 note=38 velocity=127 time=0\n",
      "note_on channel=9 note=57 velocity=127 time=0\n",
      "note_on channel=9 note=38 velocity=0 time=60\n",
      "note_on channel=9 note=57 velocity=0 time=0\n",
      "note_on channel=9 note=42 velocity=127 time=0\n",
      "note_on channel=9 note=42 velocity=0 time=60\n",
      "note_on channel=9 note=35 velocity=127 time=0\n",
      "note_on channel=9 note=42 velocity=127 time=0\n",
      "note_on channel=9 note=35 velocity=0 time=60\n",
      "note_on channel=9 note=42 velocity=0 time=0\n",
      "note_on channel=9 note=42 velocity=127 time=0\n",
      "note_on channel=9 note=35 velocity=127 time=0\n",
      "note_on channel=9 note=42 velocity=0 time=60\n",
      "note_on channel=9 note=35 velocity=0 time=0\n",
      "note_on channel=9 note=38 velocity=127 time=0\n",
      "note_on channel=9 note=57 velocity=127 time=0\n",
      "note_on channel=9 note=38 velocity=0 time=60\n",
      "note_on channel=9 note=57 velocity=0 time=0\n",
      "note_on channel=9 note=42 velocity=127 time=0\n",
      "note_on channel=9 note=42 velocity=0 time=60\n",
      "note_on channel=9 note=42 velocity=127 time=0\n",
      "note_on channel=9 note=35 velocity=127 time=0\n",
      "note_on channel=9 note=57 velocity=127 time=0\n",
      "note_on channel=9 note=42 velocity=0 time=60\n",
      "note_on channel=9 note=57 velocity=0 time=0\n",
      "note_on channel=9 note=42 velocity=127 time=0\n",
      "note_on channel=9 note=35 velocity=0 time=60\n",
      "note_on channel=9 note=42 velocity=0 time=0\n",
      "note_on channel=9 note=42 velocity=127 time=0\n",
      "note_on channel=9 note=42 velocity=0 time=60\n",
      "note_on channel=9 note=42 velocity=127 time=0\n",
      "note_on channel=9 note=35 velocity=127 time=0\n",
      "note_on channel=9 note=42 velocity=0 time=60\n",
      "note_on channel=9 note=35 velocity=0 time=0\n",
      "note_on channel=9 note=42 velocity=127 time=0\n",
      "note_on channel=9 note=57 velocity=127 time=0\n",
      "note_on channel=9 note=38 velocity=127 time=0\n",
      "note_on channel=9 note=42 velocity=0 time=60\n",
      "note_on channel=9 note=57 velocity=0 time=0\n",
      "note_on channel=9 note=38 velocity=0 time=0\n",
      "note_on channel=9 note=42 velocity=127 time=0\n",
      "note_on channel=9 note=42 velocity=0 time=60\n",
      "note_on channel=9 note=42 velocity=127 time=0\n",
      "note_on channel=9 note=42 velocity=0 time=60\n",
      "note_on channel=9 note=35 velocity=127 time=0\n",
      "note_on channel=9 note=42 velocity=127 time=0\n",
      "note_on channel=9 note=35 velocity=0 time=60\n",
      "note_on channel=9 note=42 velocity=0 time=0\n",
      "note_on channel=9 note=35 velocity=127 time=0\n",
      "note_on channel=9 note=42 velocity=127 time=0\n",
      "note_on channel=9 note=42 velocity=0 time=60\n",
      "note_on channel=9 note=42 velocity=127 time=0\n",
      "note_on channel=9 note=35 velocity=0 time=60\n",
      "note_on channel=9 note=42 velocity=0 time=0\n",
      "note_on channel=9 note=42 velocity=127 time=0\n",
      "note_on channel=9 note=42 velocity=0 time=60\n",
      "note_on channel=9 note=42 velocity=127 time=0\n",
      "note_on channel=9 note=35 velocity=127 time=0\n",
      "note_on channel=9 note=42 velocity=0 time=60\n",
      "note_on channel=9 note=35 velocity=0 time=0\n",
      "note_on channel=9 note=38 velocity=127 time=0\n",
      "note_on channel=9 note=42 velocity=127 time=0\n",
      "note_on channel=9 note=38 velocity=0 time=60\n",
      "note_on channel=9 note=42 velocity=0 time=0\n",
      "note_on channel=9 note=35 velocity=127 time=0\n",
      "note_on channel=9 note=46 velocity=127 time=0\n",
      "note_on channel=9 note=35 velocity=0 time=60\n",
      "note_on channel=9 note=46 velocity=0 time=0\n",
      "note_on channel=9 note=42 velocity=127 time=0\n",
      "note_on channel=9 note=42 velocity=0 time=60\n",
      "note_on channel=9 note=35 velocity=127 time=0\n",
      "note_on channel=9 note=42 velocity=127 time=0\n",
      "note_on channel=9 note=35 velocity=0 time=60\n",
      "note_on channel=9 note=42 velocity=0 time=0\n",
      "note_on channel=9 note=35 velocity=127 time=0\n",
      "note_on channel=9 note=42 velocity=127 time=0\n",
      "note_on channel=9 note=42 velocity=0 time=60\n",
      "note_on channel=9 note=42 velocity=127 time=0\n",
      "note_on channel=9 note=35 velocity=0 time=60\n",
      "note_on channel=9 note=42 velocity=0 time=0\n",
      "note_on channel=9 note=42 velocity=127 time=0\n",
      "note_on channel=9 note=42 velocity=0 time=60\n",
      "note_on channel=9 note=42 velocity=127 time=0\n",
      "note_on channel=9 note=35 velocity=127 time=0\n",
      "note_on channel=9 note=42 velocity=0 time=60\n",
      "note_on channel=9 note=35 velocity=0 time=0\n",
      "note_on channel=9 note=57 velocity=127 time=0\n",
      "note_on channel=9 note=38 velocity=127 time=0\n",
      "note_on channel=9 note=57 velocity=0 time=60\n",
      "note_on channel=9 note=38 velocity=0 time=0\n",
      "note_on channel=9 note=42 velocity=127 time=0\n",
      "note_on channel=9 note=42 velocity=0 time=60\n",
      "note_on channel=9 note=42 velocity=127 time=0\n",
      "note_on channel=9 note=42 velocity=0 time=60\n",
      "note_on channel=9 note=35 velocity=127 time=0\n",
      "note_on channel=9 note=42 velocity=127 time=0\n",
      "note_on channel=9 note=35 velocity=0 time=60\n",
      "note_on channel=9 note=42 velocity=0 time=0\n",
      "note_on channel=9 note=38 velocity=127 time=0\n",
      "note_on channel=9 note=38 velocity=0 time=60\n",
      "note_on channel=9 note=38 velocity=127 time=0\n",
      "note_on channel=9 note=38 velocity=0 time=60\n",
      "note_on channel=9 note=45 velocity=127 time=0\n",
      "note_on channel=9 note=45 velocity=0 time=60\n",
      "note_on channel=9 note=45 velocity=127 time=0\n",
      "note_on channel=9 note=45 velocity=0 time=60\n",
      "note_on channel=9 note=47 velocity=127 time=0\n",
      "note_on channel=9 note=47 velocity=0 time=60\n",
      "note_on channel=9 note=47 velocity=127 time=0\n",
      "note_on channel=9 note=47 velocity=0 time=60\n",
      "note_on channel=9 note=48 velocity=127 time=0\n",
      "note_on channel=9 note=48 velocity=0 time=60\n",
      "note_on channel=9 note=48 velocity=127 time=0\n",
      "note_on channel=9 note=48 velocity=0 time=60\n",
      "note_on channel=9 note=35 velocity=127 time=0\n",
      "note_on channel=9 note=57 velocity=127 time=0\n",
      "note_on channel=9 note=35 velocity=0 time=60\n",
      "note_on channel=9 note=57 velocity=0 time=0\n",
      "note_on channel=9 note=35 velocity=127 time=0\n",
      "note_on channel=9 note=45 velocity=127 time=0\n",
      "note_on channel=9 note=47 velocity=127 time=0\n",
      "note_on channel=9 note=35 velocity=0 time=60\n",
      "note_on channel=9 note=45 velocity=0 time=0\n",
      "note_on channel=9 note=47 velocity=0 time=0\n",
      "note_on channel=9 note=35 velocity=127 time=0\n",
      "note_on channel=9 note=47 velocity=127 time=0\n",
      "note_on channel=9 note=45 velocity=127 time=0\n",
      "note_on channel=9 note=35 velocity=0 time=60\n",
      "note_on channel=9 note=47 velocity=0 time=0\n",
      "note_on channel=9 note=45 velocity=0 time=0\n",
      "note_on channel=9 note=35 velocity=127 time=0\n",
      "note_on channel=9 note=47 velocity=127 time=0\n",
      "note_on channel=9 note=45 velocity=127 time=0\n",
      "note_on channel=9 note=35 velocity=0 time=60\n",
      "note_on channel=9 note=47 velocity=0 time=0\n",
      "note_on channel=9 note=45 velocity=0 time=0\n",
      "note_on channel=9 note=57 velocity=127 time=0\n",
      "note_on channel=9 note=35 velocity=127 time=0\n",
      "note_on channel=9 note=57 velocity=0 time=60\n",
      "note_on channel=9 note=35 velocity=0 time=0\n",
      "note_on channel=9 note=45 velocity=127 time=0\n",
      "note_on channel=9 note=35 velocity=127 time=0\n",
      "note_on channel=9 note=47 velocity=127 time=0\n",
      "note_on channel=9 note=45 velocity=0 time=60\n",
      "note_on channel=9 note=35 velocity=0 time=0\n",
      "note_on channel=9 note=47 velocity=0 time=0\n",
      "note_on channel=9 note=35 velocity=127 time=0\n",
      "note_on channel=9 note=47 velocity=127 time=0\n",
      "note_on channel=9 note=45 velocity=127 time=0\n",
      "note_on channel=9 note=35 velocity=0 time=60\n",
      "note_on channel=9 note=47 velocity=0 time=0\n",
      "note_on channel=9 note=45 velocity=0 time=0\n",
      "note_on channel=9 note=35 velocity=127 time=0\n",
      "note_on channel=9 note=47 velocity=127 time=0\n",
      "note_on channel=9 note=45 velocity=127 time=0\n",
      "note_on channel=9 note=35 velocity=0 time=60\n",
      "note_on channel=9 note=47 velocity=0 time=0\n",
      "note_on channel=9 note=45 velocity=0 time=0\n",
      "note_on channel=9 note=35 velocity=127 time=0\n",
      "note_on channel=9 note=47 velocity=127 time=0\n",
      "note_on channel=9 note=45 velocity=127 time=0\n",
      "note_on channel=9 note=35 velocity=0 time=60\n",
      "note_on channel=9 note=47 velocity=0 time=0\n",
      "note_on channel=9 note=45 velocity=0 time=0\n",
      "note_on channel=9 note=47 velocity=127 time=0\n",
      "note_on channel=9 note=35 velocity=127 time=0\n",
      "note_on channel=9 note=45 velocity=127 time=0\n",
      "note_on channel=9 note=47 velocity=0 time=60\n",
      "note_on channel=9 note=35 velocity=0 time=0\n",
      "note_on channel=9 note=45 velocity=0 time=0\n",
      "note_on channel=9 note=35 velocity=127 time=0\n",
      "note_on channel=9 note=47 velocity=127 time=0\n",
      "note_on channel=9 note=45 velocity=127 time=0\n",
      "note_on channel=9 note=35 velocity=0 time=60\n",
      "note_on channel=9 note=47 velocity=0 time=0\n",
      "note_on channel=9 note=45 velocity=0 time=0\n",
      "note_on channel=9 note=35 velocity=127 time=0\n",
      "note_on channel=9 note=47 velocity=127 time=0\n",
      "note_on channel=9 note=45 velocity=127 time=0\n",
      "note_on channel=9 note=35 velocity=0 time=60\n",
      "note_on channel=9 note=47 velocity=0 time=0\n",
      "note_on channel=9 note=45 velocity=0 time=0\n",
      "note_on channel=9 note=35 velocity=127 time=0\n",
      "note_on channel=9 note=57 velocity=127 time=0\n",
      "note_on channel=9 note=35 velocity=0 time=60\n",
      "note_on channel=9 note=57 velocity=0 time=0\n",
      "note_on channel=9 note=35 velocity=127 time=0\n",
      "note_on channel=9 note=47 velocity=127 time=0\n",
      "note_on channel=9 note=45 velocity=127 time=0\n",
      "note_on channel=9 note=35 velocity=0 time=60\n",
      "note_on channel=9 note=47 velocity=0 time=0\n",
      "note_on channel=9 note=45 velocity=0 time=0\n",
      "note_on channel=9 note=45 velocity=127 time=0\n",
      "note_on channel=9 note=47 velocity=127 time=0\n",
      "note_on channel=9 note=35 velocity=127 time=0\n",
      "note_on channel=9 note=45 velocity=0 time=60\n",
      "note_on channel=9 note=47 velocity=0 time=0\n",
      "note_on channel=9 note=35 velocity=0 time=0\n",
      "note_on channel=9 note=35 velocity=127 time=0\n",
      "note_on channel=9 note=47 velocity=127 time=0\n",
      "note_on channel=9 note=45 velocity=127 time=0\n",
      "note_on channel=9 note=35 velocity=0 time=60\n",
      "note_on channel=9 note=47 velocity=0 time=0\n",
      "note_on channel=9 note=45 velocity=0 time=0\n",
      "note_on channel=9 note=35 velocity=127 time=0\n",
      "note_on channel=9 note=47 velocity=127 time=0\n",
      "note_on channel=9 note=45 velocity=127 time=0\n",
      "note_on channel=9 note=35 velocity=0 time=60\n",
      "note_on channel=9 note=47 velocity=0 time=0\n",
      "note_on channel=9 note=45 velocity=0 time=0\n",
      "note_on channel=9 note=35 velocity=127 time=0\n",
      "note_on channel=9 note=47 velocity=127 time=0\n",
      "note_on channel=9 note=45 velocity=127 time=0\n",
      "note_on channel=9 note=35 velocity=0 time=60\n",
      "note_on channel=9 note=47 velocity=0 time=0\n",
      "note_on channel=9 note=45 velocity=0 time=0\n",
      "note_on channel=9 note=45 velocity=127 time=0\n",
      "note_on channel=9 note=35 velocity=127 time=0\n",
      "note_on channel=9 note=47 velocity=127 time=0\n",
      "note_on channel=9 note=45 velocity=0 time=60\n",
      "note_on channel=9 note=35 velocity=0 time=0\n",
      "note_on channel=9 note=47 velocity=0 time=0\n",
      "note_on channel=9 note=45 velocity=127 time=0\n",
      "note_on channel=9 note=35 velocity=127 time=0\n",
      "note_on channel=9 note=47 velocity=127 time=0\n",
      "note_on channel=9 note=45 velocity=0 time=60\n",
      "note_on channel=9 note=35 velocity=0 time=0\n",
      "note_on channel=9 note=47 velocity=0 time=0\n",
      "note_on channel=9 note=57 velocity=127 time=0\n",
      "note_on channel=9 note=35 velocity=127 time=0\n",
      "note_on channel=9 note=57 velocity=0 time=60\n",
      "note_on channel=9 note=35 velocity=0 time=0\n",
      "note_on channel=9 note=47 velocity=127 time=0\n",
      "note_on channel=9 note=45 velocity=127 time=0\n",
      "note_on channel=9 note=35 velocity=127 time=0\n",
      "note_on channel=9 note=47 velocity=0 time=60\n",
      "note_on channel=9 note=45 velocity=0 time=0\n",
      "note_on channel=9 note=35 velocity=0 time=0\n",
      "note_on channel=9 note=47 velocity=127 time=0\n",
      "note_on channel=9 note=45 velocity=127 time=0\n",
      "note_on channel=9 note=35 velocity=127 time=0\n",
      "note_on channel=9 note=47 velocity=0 time=60\n",
      "note_on channel=9 note=45 velocity=0 time=0\n",
      "note_on channel=9 note=35 velocity=0 time=0\n",
      "note_on channel=9 note=45 velocity=127 time=0\n",
      "note_on channel=9 note=47 velocity=127 time=0\n",
      "note_on channel=9 note=35 velocity=127 time=0\n",
      "note_on channel=9 note=45 velocity=0 time=60\n",
      "note_on channel=9 note=47 velocity=0 time=0\n",
      "note_on channel=9 note=35 velocity=0 time=0\n",
      "note_on channel=9 note=57 velocity=127 time=0\n",
      "note_on channel=9 note=35 velocity=127 time=0\n",
      "note_on channel=9 note=57 velocity=0 time=60\n",
      "note_on channel=9 note=35 velocity=0 time=0\n",
      "note_on channel=9 note=35 velocity=127 time=0\n",
      "note_on channel=9 note=45 velocity=127 time=0\n",
      "note_on channel=9 note=47 velocity=127 time=0\n",
      "note_on channel=9 note=35 velocity=0 time=60\n",
      "note_on channel=9 note=45 velocity=0 time=0\n",
      "note_on channel=9 note=47 velocity=0 time=0\n",
      "note_on channel=9 note=35 velocity=127 time=0\n",
      "note_on channel=9 note=45 velocity=127 time=0\n",
      "note_on channel=9 note=47 velocity=127 time=0\n",
      "note_on channel=9 note=35 velocity=0 time=60\n",
      "note_on channel=9 note=45 velocity=0 time=0\n",
      "note_on channel=9 note=47 velocity=0 time=0\n",
      "note_on channel=9 note=35 velocity=127 time=0\n",
      "note_on channel=9 note=45 velocity=127 time=0\n",
      "note_on channel=9 note=47 velocity=127 time=0\n",
      "note_on channel=9 note=35 velocity=0 time=60\n",
      "note_on channel=9 note=45 velocity=0 time=0\n",
      "note_on channel=9 note=47 velocity=0 time=0\n",
      "note_on channel=9 note=57 velocity=127 time=0\n",
      "note_on channel=9 note=35 velocity=127 time=0\n",
      "note_on channel=9 note=57 velocity=0 time=60\n",
      "note_on channel=9 note=35 velocity=0 time=0\n",
      "note_on channel=9 note=45 velocity=127 time=0\n",
      "note_on channel=9 note=47 velocity=127 time=0\n",
      "note_on channel=9 note=35 velocity=127 time=0\n",
      "note_on channel=9 note=45 velocity=0 time=60\n",
      "note_on channel=9 note=47 velocity=0 time=0\n",
      "note_on channel=9 note=35 velocity=0 time=0\n",
      "note_on channel=9 note=45 velocity=127 time=0\n",
      "note_on channel=9 note=47 velocity=127 time=0\n",
      "note_on channel=9 note=35 velocity=127 time=0\n",
      "note_on channel=9 note=45 velocity=0 time=60\n",
      "note_on channel=9 note=47 velocity=0 time=0\n",
      "note_on channel=9 note=35 velocity=0 time=0\n",
      "note_on channel=9 note=45 velocity=127 time=0\n",
      "note_on channel=9 note=47 velocity=127 time=0\n",
      "note_on channel=9 note=35 velocity=127 time=0\n",
      "note_on channel=9 note=45 velocity=0 time=60\n",
      "note_on channel=9 note=47 velocity=0 time=0\n",
      "note_on channel=9 note=35 velocity=0 time=0\n",
      "note_on channel=9 note=57 velocity=127 time=0\n",
      "note_on channel=9 note=35 velocity=127 time=0\n",
      "note_on channel=9 note=57 velocity=0 time=60\n",
      "note_on channel=9 note=35 velocity=0 time=0\n",
      "note_on channel=9 note=47 velocity=127 time=0\n",
      "note_on channel=9 note=45 velocity=127 time=0\n",
      "note_on channel=9 note=35 velocity=127 time=0\n",
      "note_on channel=9 note=47 velocity=0 time=60\n",
      "note_on channel=9 note=45 velocity=0 time=0\n",
      "note_on channel=9 note=35 velocity=0 time=0\n",
      "note_on channel=9 note=35 velocity=127 time=0\n",
      "note_on channel=9 note=47 velocity=127 time=0\n",
      "note_on channel=9 note=45 velocity=127 time=0\n",
      "note_on channel=9 note=35 velocity=0 time=60\n",
      "note_on channel=9 note=47 velocity=0 time=0\n",
      "note_on channel=9 note=45 velocity=0 time=0\n",
      "note_on channel=9 note=35 velocity=127 time=0\n",
      "note_on channel=9 note=47 velocity=127 time=0\n",
      "note_on channel=9 note=45 velocity=127 time=0\n",
      "note_on channel=9 note=35 velocity=0 time=60\n",
      "note_on channel=9 note=47 velocity=0 time=0\n",
      "note_on channel=9 note=45 velocity=0 time=0\n",
      "note_on channel=9 note=35 velocity=127 time=0\n",
      "note_on channel=9 note=57 velocity=127 time=0\n",
      "note_on channel=9 note=35 velocity=0 time=60\n",
      "note_on channel=9 note=57 velocity=0 time=0\n",
      "note_on channel=9 note=45 velocity=127 time=0\n",
      "note_on channel=9 note=35 velocity=127 time=0\n",
      "note_on channel=9 note=47 velocity=127 time=0\n",
      "note_on channel=9 note=45 velocity=0 time=60\n",
      "note_on channel=9 note=35 velocity=0 time=0\n",
      "note_on channel=9 note=47 velocity=0 time=0\n",
      "note_on channel=9 note=45 velocity=127 time=0\n",
      "note_on channel=9 note=35 velocity=127 time=0\n",
      "note_on channel=9 note=47 velocity=127 time=0\n",
      "note_on channel=9 note=45 velocity=0 time=60\n",
      "note_on channel=9 note=35 velocity=0 time=0\n",
      "note_on channel=9 note=47 velocity=0 time=0\n",
      "note_on channel=9 note=35 velocity=127 time=0\n",
      "note_on channel=9 note=47 velocity=127 time=0\n",
      "note_on channel=9 note=45 velocity=127 time=0\n",
      "note_on channel=9 note=35 velocity=0 time=60\n",
      "note_on channel=9 note=47 velocity=0 time=0\n",
      "note_on channel=9 note=45 velocity=0 time=0\n",
      "note_on channel=9 note=35 velocity=127 time=0\n",
      "note_on channel=9 note=47 velocity=127 time=0\n",
      "note_on channel=9 note=45 velocity=127 time=0\n",
      "note_on channel=9 note=35 velocity=0 time=60\n",
      "note_on channel=9 note=47 velocity=0 time=0\n",
      "note_on channel=9 note=45 velocity=0 time=0\n",
      "note_on channel=9 note=35 velocity=127 time=0\n",
      "note_on channel=9 note=47 velocity=127 time=0\n",
      "note_on channel=9 note=45 velocity=127 time=0\n",
      "note_on channel=9 note=35 velocity=0 time=60\n",
      "note_on channel=9 note=47 velocity=0 time=0\n",
      "note_on channel=9 note=45 velocity=0 time=0\n",
      "note_on channel=9 note=47 velocity=127 time=0\n",
      "note_on channel=9 note=35 velocity=127 time=0\n",
      "note_on channel=9 note=45 velocity=127 time=0\n",
      "note_on channel=9 note=47 velocity=0 time=60\n",
      "note_on channel=9 note=35 velocity=0 time=0\n",
      "note_on channel=9 note=45 velocity=0 time=0\n",
      "note_on channel=9 note=35 velocity=127 time=0\n",
      "note_on channel=9 note=47 velocity=127 time=0\n",
      "note_on channel=9 note=45 velocity=127 time=0\n",
      "note_on channel=9 note=35 velocity=0 time=60\n",
      "note_on channel=9 note=47 velocity=0 time=0\n",
      "note_on channel=9 note=45 velocity=0 time=0\n",
      "note_on channel=9 note=35 velocity=127 time=0\n",
      "note_on channel=9 note=57 velocity=127 time=0\n",
      "note_on channel=9 note=35 velocity=0 time=60\n",
      "note_on channel=9 note=57 velocity=0 time=0\n",
      "note_on channel=9 note=45 velocity=127 time=0\n",
      "note_on channel=9 note=35 velocity=127 time=0\n",
      "note_on channel=9 note=47 velocity=127 time=0\n",
      "note_on channel=9 note=45 velocity=0 time=60\n",
      "note_on channel=9 note=35 velocity=0 time=0\n",
      "note_on channel=9 note=47 velocity=0 time=0\n",
      "note_on channel=9 note=45 velocity=127 time=0\n",
      "note_on channel=9 note=35 velocity=127 time=0\n",
      "note_on channel=9 note=47 velocity=127 time=0\n",
      "note_on channel=9 note=45 velocity=0 time=60\n",
      "note_on channel=9 note=35 velocity=0 time=0\n",
      "note_on channel=9 note=47 velocity=0 time=0\n",
      "note_on channel=9 note=45 velocity=127 time=0\n",
      "note_on channel=9 note=35 velocity=127 time=0\n",
      "note_on channel=9 note=47 velocity=127 time=0\n",
      "note_on channel=9 note=45 velocity=0 time=60\n",
      "note_on channel=9 note=35 velocity=0 time=0\n",
      "note_on channel=9 note=47 velocity=0 time=0\n",
      "note_on channel=9 note=35 velocity=127 time=0\n",
      "note_on channel=9 note=47 velocity=127 time=0\n",
      "note_on channel=9 note=45 velocity=127 time=0\n",
      "note_on channel=9 note=35 velocity=0 time=60\n",
      "note_on channel=9 note=47 velocity=0 time=0\n",
      "note_on channel=9 note=45 velocity=0 time=0\n",
      "note_on channel=9 note=35 velocity=127 time=0\n",
      "note_on channel=9 note=47 velocity=127 time=0\n",
      "note_on channel=9 note=45 velocity=127 time=0\n",
      "note_on channel=9 note=35 velocity=0 time=60\n",
      "note_on channel=9 note=47 velocity=0 time=0\n",
      "note_on channel=9 note=45 velocity=0 time=0\n",
      "note_on channel=9 note=35 velocity=127 time=0\n",
      "note_on channel=9 note=45 velocity=127 time=0\n",
      "note_on channel=9 note=47 velocity=127 time=0\n",
      "note_on channel=9 note=35 velocity=0 time=60\n",
      "note_on channel=9 note=45 velocity=0 time=0\n",
      "note_on channel=9 note=47 velocity=0 time=0\n",
      "note_on channel=9 note=47 velocity=127 time=0\n",
      "note_on channel=9 note=45 velocity=127 time=0\n",
      "note_on channel=9 note=35 velocity=127 time=0\n",
      "note_on channel=9 note=47 velocity=0 time=60\n",
      "note_on channel=9 note=45 velocity=0 time=0\n",
      "note_on channel=9 note=35 velocity=0 time=0\n",
      "note_on channel=9 note=57 velocity=127 time=0\n",
      "note_on channel=9 note=35 velocity=127 time=0\n",
      "note_on channel=9 note=57 velocity=0 time=60\n",
      "note_on channel=9 note=35 velocity=0 time=0\n",
      "note_on channel=9 note=47 velocity=127 time=0\n",
      "note_on channel=9 note=45 velocity=127 time=0\n",
      "note_on channel=9 note=35 velocity=127 time=0\n",
      "note_on channel=9 note=47 velocity=0 time=60\n",
      "note_on channel=9 note=45 velocity=0 time=0\n",
      "note_on channel=9 note=35 velocity=0 time=0\n",
      "note_on channel=9 note=47 velocity=127 time=0\n",
      "note_on channel=9 note=45 velocity=127 time=0\n",
      "note_on channel=9 note=35 velocity=127 time=0\n",
      "note_on channel=9 note=47 velocity=0 time=60\n",
      "note_on channel=9 note=45 velocity=0 time=0\n",
      "note_on channel=9 note=35 velocity=0 time=0\n",
      "note_on channel=9 note=47 velocity=127 time=0\n",
      "note_on channel=9 note=45 velocity=127 time=0\n",
      "note_on channel=9 note=35 velocity=127 time=0\n",
      "note_on channel=9 note=47 velocity=0 time=60\n",
      "note_on channel=9 note=45 velocity=0 time=0\n",
      "note_on channel=9 note=35 velocity=0 time=0\n",
      "note_on channel=9 note=35 velocity=127 time=0\n",
      "note_on channel=9 note=57 velocity=127 time=0\n",
      "note_on channel=9 note=35 velocity=0 time=60\n",
      "note_on channel=9 note=57 velocity=0 time=0\n",
      "note_on channel=9 note=35 velocity=127 time=0\n",
      "note_on channel=9 note=45 velocity=127 time=0\n",
      "note_on channel=9 note=47 velocity=127 time=0\n",
      "note_on channel=9 note=35 velocity=0 time=60\n",
      "note_on channel=9 note=45 velocity=0 time=0\n",
      "note_on channel=9 note=47 velocity=0 time=0\n",
      "note_on channel=9 note=45 velocity=127 time=0\n",
      "note_on channel=9 note=47 velocity=127 time=0\n",
      "note_on channel=9 note=35 velocity=127 time=0\n",
      "note_on channel=9 note=45 velocity=0 time=60\n",
      "note_on channel=9 note=47 velocity=0 time=0\n",
      "note_on channel=9 note=35 velocity=0 time=0\n",
      "note_on channel=9 note=45 velocity=127 time=0\n",
      "note_on channel=9 note=47 velocity=127 time=0\n",
      "note_on channel=9 note=35 velocity=127 time=0\n",
      "note_on channel=9 note=45 velocity=0 time=60\n",
      "note_on channel=9 note=47 velocity=0 time=0\n",
      "note_on channel=9 note=35 velocity=0 time=0\n",
      "note_on channel=9 note=57 velocity=127 time=0\n",
      "note_on channel=9 note=35 velocity=127 time=0\n",
      "note_on channel=9 note=57 velocity=0 time=60\n",
      "note_on channel=9 note=35 velocity=0 time=0\n",
      "note_on channel=9 note=35 velocity=127 time=0\n",
      "note_on channel=9 note=45 velocity=127 time=0\n",
      "note_on channel=9 note=47 velocity=127 time=0\n",
      "note_on channel=9 note=35 velocity=0 time=60\n",
      "note_on channel=9 note=45 velocity=0 time=0\n",
      "note_on channel=9 note=47 velocity=0 time=0\n",
      "note_on channel=9 note=35 velocity=127 time=0\n",
      "note_on channel=9 note=45 velocity=127 time=0\n",
      "note_on channel=9 note=47 velocity=127 time=0\n",
      "note_on channel=9 note=35 velocity=0 time=60\n",
      "note_on channel=9 note=45 velocity=0 time=0\n",
      "note_on channel=9 note=47 velocity=0 time=0\n",
      "note_on channel=9 note=35 velocity=127 time=0\n",
      "note_on channel=9 note=45 velocity=127 time=0\n",
      "note_on channel=9 note=47 velocity=127 time=0\n",
      "note_on channel=9 note=35 velocity=0 time=60\n",
      "note_on channel=9 note=45 velocity=0 time=0\n",
      "note_on channel=9 note=47 velocity=0 time=0\n",
      "note_on channel=9 note=35 velocity=127 time=0\n",
      "note_on channel=9 note=57 velocity=127 time=0\n",
      "note_on channel=9 note=35 velocity=0 time=60\n",
      "note_on channel=9 note=57 velocity=0 time=0\n",
      "note_on channel=9 note=35 velocity=127 time=0\n",
      "note_on channel=9 note=45 velocity=127 time=0\n",
      "note_on channel=9 note=47 velocity=127 time=0\n",
      "note_on channel=9 note=35 velocity=0 time=60\n",
      "note_on channel=9 note=45 velocity=0 time=0\n",
      "note_on channel=9 note=47 velocity=0 time=0\n",
      "note_on channel=9 note=45 velocity=127 time=0\n",
      "note_on channel=9 note=35 velocity=127 time=0\n",
      "note_on channel=9 note=47 velocity=127 time=0\n",
      "note_on channel=9 note=45 velocity=0 time=60\n",
      "note_on channel=9 note=35 velocity=0 time=0\n",
      "note_on channel=9 note=47 velocity=0 time=0\n",
      "note_on channel=9 note=35 velocity=127 time=0\n",
      "note_on channel=9 note=45 velocity=127 time=0\n",
      "note_on channel=9 note=47 velocity=127 time=0\n",
      "note_on channel=9 note=35 velocity=0 time=60\n",
      "note_on channel=9 note=45 velocity=0 time=0\n",
      "note_on channel=9 note=47 velocity=0 time=0\n",
      "note_on channel=9 note=48 velocity=127 time=0\n",
      "note_on channel=9 note=47 velocity=127 time=0\n",
      "note_on channel=9 note=35 velocity=127 time=0\n",
      "note_on channel=9 note=48 velocity=0 time=60\n",
      "note_on channel=9 note=47 velocity=0 time=0\n",
      "note_on channel=9 note=35 velocity=0 time=0\n",
      "note_on channel=9 note=48 velocity=127 time=0\n",
      "note_on channel=9 note=47 velocity=127 time=0\n",
      "note_on channel=9 note=35 velocity=127 time=0\n",
      "note_on channel=9 note=48 velocity=0 time=60\n",
      "note_on channel=9 note=47 velocity=0 time=0\n",
      "note_on channel=9 note=35 velocity=0 time=0\n",
      "note_on channel=9 note=47 velocity=127 time=0\n",
      "note_on channel=9 note=48 velocity=127 time=0\n",
      "note_on channel=9 note=35 velocity=127 time=0\n",
      "note_on channel=9 note=47 velocity=0 time=60\n",
      "note_on channel=9 note=48 velocity=0 time=0\n",
      "note_on channel=9 note=35 velocity=0 time=0\n",
      "note_on channel=9 note=35 velocity=127 time=0\n",
      "note_on channel=9 note=48 velocity=127 time=0\n",
      "note_on channel=9 note=47 velocity=127 time=0\n",
      "note_on channel=9 note=35 velocity=0 time=60\n",
      "note_on channel=9 note=48 velocity=0 time=0\n",
      "note_on channel=9 note=47 velocity=0 time=0\n",
      "note_on channel=9 note=35 velocity=127 time=0\n",
      "note_on channel=9 note=50 velocity=127 time=0\n",
      "note_on channel=9 note=48 velocity=127 time=0\n",
      "note_on channel=9 note=35 velocity=0 time=60\n",
      "note_on channel=9 note=50 velocity=0 time=0\n",
      "note_on channel=9 note=48 velocity=0 time=0\n",
      "note_on channel=9 note=35 velocity=127 time=0\n",
      "note_on channel=9 note=48 velocity=127 time=0\n",
      "note_on channel=9 note=50 velocity=127 time=0\n",
      "note_on channel=9 note=35 velocity=0 time=60\n",
      "note_on channel=9 note=48 velocity=0 time=0\n",
      "note_on channel=9 note=50 velocity=0 time=0\n",
      "note_on channel=9 note=35 velocity=127 time=0\n",
      "note_on channel=9 note=48 velocity=127 time=0\n",
      "note_on channel=9 note=50 velocity=127 time=0\n",
      "note_on channel=9 note=35 velocity=0 time=60\n",
      "note_on channel=9 note=48 velocity=0 time=0\n",
      "note_on channel=9 note=50 velocity=0 time=0\n",
      "note_on channel=9 note=48 velocity=127 time=0\n",
      "note_on channel=9 note=35 velocity=127 time=0\n",
      "note_on channel=9 note=50 velocity=127 time=0\n",
      "note_on channel=9 note=48 velocity=0 time=60\n",
      "note_on channel=9 note=35 velocity=0 time=0\n",
      "note_on channel=9 note=50 velocity=0 time=0\n",
      "note_on channel=9 note=35 velocity=127 time=0\n",
      "note_on channel=9 note=48 velocity=127 time=0\n",
      "note_on channel=9 note=50 velocity=127 time=0\n",
      "note_on channel=9 note=35 velocity=0 time=60\n",
      "note_on channel=9 note=48 velocity=0 time=0\n",
      "note_on channel=9 note=50 velocity=0 time=0\n",
      "note_on channel=9 note=35 velocity=127 time=0\n",
      "note_on channel=9 note=48 velocity=127 time=0\n",
      "note_on channel=9 note=50 velocity=127 time=0\n",
      "note_on channel=9 note=35 velocity=0 time=60\n",
      "note_on channel=9 note=48 velocity=0 time=0\n",
      "note_on channel=9 note=50 velocity=0 time=0\n",
      "note_on channel=9 note=35 velocity=127 time=0\n",
      "note_on channel=9 note=48 velocity=127 time=0\n",
      "note_on channel=9 note=50 velocity=127 time=0\n",
      "note_on channel=9 note=35 velocity=0 time=60\n",
      "note_on channel=9 note=48 velocity=0 time=0\n",
      "note_on channel=9 note=50 velocity=0 time=0\n",
      "note_on channel=9 note=50 velocity=127 time=0\n",
      "note_on channel=9 note=35 velocity=127 time=0\n",
      "note_on channel=9 note=48 velocity=127 time=0\n",
      "note_on channel=9 note=50 velocity=0 time=60\n",
      "note_on channel=9 note=35 velocity=0 time=0\n",
      "note_on channel=9 note=48 velocity=0 time=0\n",
      "note_on channel=9 note=35 velocity=127 time=0\n",
      "note_on channel=9 note=57 velocity=127 time=0\n",
      "note_on channel=9 note=35 velocity=0 time=30\n",
      "note_on channel=9 note=36 velocity=127 time=0\n",
      "note_on channel=9 note=36 velocity=0 time=30\n",
      "note_on channel=9 note=35 velocity=127 time=0\n",
      "note_on channel=9 note=35 velocity=0 time=30\n",
      "note_on channel=9 note=36 velocity=127 time=0\n",
      "note_on channel=9 note=57 velocity=0 time=30\n",
      "note_on channel=9 note=36 velocity=0 time=0\n",
      "note_on channel=9 note=35 velocity=127 time=0\n",
      "note_on channel=9 note=45 velocity=127 time=0\n",
      "note_on channel=9 note=47 velocity=127 time=0\n",
      "note_on channel=9 note=35 velocity=0 time=30\n",
      "note_on channel=9 note=36 velocity=127 time=0\n",
      "note_on channel=9 note=36 velocity=0 time=30\n",
      "note_on channel=9 note=35 velocity=127 time=0\n",
      "note_on channel=9 note=35 velocity=0 time=30\n",
      "note_on channel=9 note=36 velocity=127 time=0\n",
      "note_on channel=9 note=45 velocity=0 time=30\n",
      "note_on channel=9 note=47 velocity=0 time=0\n",
      "note_on channel=9 note=36 velocity=0 time=0\n",
      "note_on channel=9 note=35 velocity=127 time=0\n",
      "note_on channel=9 note=35 velocity=0 time=30\n",
      "note_on channel=9 note=36 velocity=127 time=0\n",
      "note_on channel=9 note=36 velocity=0 time=30\n",
      "note_on channel=9 note=35 velocity=127 time=0\n",
      "note_on channel=9 note=35 velocity=0 time=30\n",
      "note_on channel=9 note=36 velocity=127 time=0\n",
      "note_on channel=9 note=36 velocity=0 time=30\n",
      "note_on channel=9 note=35 velocity=127 time=0\n",
      "note_on channel=9 note=45 velocity=127 time=0\n",
      "note_on channel=9 note=47 velocity=127 time=0\n",
      "note_on channel=9 note=35 velocity=0 time=30\n",
      "note_on channel=9 note=36 velocity=127 time=0\n",
      "note_on channel=9 note=45 velocity=0 time=30\n",
      "note_on channel=9 note=47 velocity=0 time=0\n",
      "note_on channel=9 note=36 velocity=0 time=0\n",
      "note_on channel=9 note=35 velocity=127 time=0\n",
      "note_on channel=9 note=38 velocity=127 time=0\n",
      "note_on channel=9 note=35 velocity=0 time=30\n",
      "note_on channel=9 note=38 velocity=0 time=0\n",
      "note_on channel=9 note=36 velocity=127 time=0\n",
      "note_on channel=9 note=38 velocity=127 time=0\n",
      "note_on channel=9 note=36 velocity=0 time=30\n",
      "note_on channel=9 note=38 velocity=0 time=0\n",
      "note_on channel=9 note=35 velocity=127 time=0\n",
      "note_on channel=9 note=35 velocity=0 time=30\n",
      "note_on channel=9 note=36 velocity=127 time=0\n",
      "note_on channel=9 note=36 velocity=0 time=30\n",
      "note_on channel=9 note=35 velocity=127 time=0\n",
      "note_on channel=9 note=35 velocity=0 time=30\n",
      "note_on channel=9 note=36 velocity=127 time=0\n",
      "note_on channel=9 note=36 velocity=0 time=30\n",
      "note_on channel=9 note=45 velocity=127 time=0\n",
      "note_on channel=9 note=35 velocity=127 time=0\n",
      "note_on channel=9 note=47 velocity=127 time=0\n",
      "note_on channel=9 note=35 velocity=0 time=30\n",
      "note_on channel=9 note=36 velocity=127 time=0\n",
      "note_on channel=9 note=36 velocity=0 time=30\n",
      "note_on channel=9 note=35 velocity=127 time=0\n",
      "note_on channel=9 note=35 velocity=0 time=30\n",
      "note_on channel=9 note=36 velocity=127 time=0\n",
      "note_on channel=9 note=45 velocity=0 time=30\n",
      "note_on channel=9 note=47 velocity=0 time=0\n",
      "note_on channel=9 note=36 velocity=0 time=0\n",
      "note_on channel=9 note=35 velocity=127 time=0\n",
      "note_on channel=9 note=35 velocity=0 time=30\n",
      "note_on channel=9 note=36 velocity=127 time=0\n",
      "note_on channel=9 note=36 velocity=0 time=30\n",
      "note_on channel=9 note=35 velocity=127 time=0\n",
      "note_on channel=9 note=35 velocity=0 time=30\n",
      "note_on channel=9 note=36 velocity=127 time=0\n",
      "note_on channel=9 note=36 velocity=0 time=30\n",
      "note_on channel=9 note=35 velocity=127 time=0\n",
      "note_on channel=9 note=35 velocity=0 time=30\n",
      "note_on channel=9 note=36 velocity=127 time=0\n",
      "note_on channel=9 note=36 velocity=0 time=30\n",
      "note_on channel=9 note=57 velocity=127 time=0\n",
      "note_on channel=9 note=38 velocity=127 time=0\n",
      "note_on channel=9 note=35 velocity=127 time=0\n",
      "note_on channel=9 note=35 velocity=0 time=30\n",
      "note_on channel=9 note=36 velocity=127 time=0\n",
      "note_on channel=9 note=57 velocity=0 time=30\n",
      "note_on channel=9 note=38 velocity=0 time=0\n",
      "note_on channel=9 note=36 velocity=0 time=0\n",
      "note_on channel=9 note=35 velocity=127 time=0\n",
      "note_on channel=9 note=35 velocity=0 time=30\n",
      "note_on channel=9 note=36 velocity=127 time=0\n",
      "note_on channel=9 note=36 velocity=0 time=30\n",
      "note_on channel=9 note=35 velocity=127 time=0\n",
      "note_on channel=9 note=35 velocity=0 time=30\n",
      "note_on channel=9 note=36 velocity=127 time=0\n",
      "note_on channel=9 note=36 velocity=0 time=30\n",
      "note_on channel=9 note=35 velocity=127 time=0\n",
      "note_on channel=9 note=45 velocity=127 time=0\n",
      "note_on channel=9 note=47 velocity=127 time=0\n",
      "note_on channel=9 note=35 velocity=0 time=30\n",
      "note_on channel=9 note=36 velocity=127 time=0\n",
      "note_on channel=9 note=36 velocity=0 time=30\n",
      "note_on channel=9 note=35 velocity=127 time=0\n",
      "note_on channel=9 note=35 velocity=0 time=30\n",
      "note_on channel=9 note=36 velocity=127 time=0\n",
      "note_on channel=9 note=45 velocity=0 time=30\n",
      "note_on channel=9 note=47 velocity=0 time=0\n",
      "note_on channel=9 note=36 velocity=0 time=0\n",
      "note_on channel=9 note=35 velocity=127 time=0\n",
      "note_on channel=9 note=35 velocity=0 time=30\n",
      "note_on channel=9 note=36 velocity=127 time=0\n",
      "note_on channel=9 note=36 velocity=0 time=30\n",
      "note_on channel=9 note=35 velocity=127 time=0\n",
      "note_on channel=9 note=35 velocity=0 time=30\n",
      "note_on channel=9 note=36 velocity=127 time=0\n",
      "note_on channel=9 note=36 velocity=0 time=30\n",
      "note_on channel=9 note=35 velocity=127 time=0\n",
      "note_on channel=9 note=45 velocity=127 time=0\n",
      "note_on channel=9 note=47 velocity=127 time=0\n",
      "note_on channel=9 note=35 velocity=0 time=30\n",
      "note_on channel=9 note=36 velocity=127 time=0\n",
      "note_on channel=9 note=45 velocity=0 time=30\n",
      "note_on channel=9 note=47 velocity=0 time=0\n",
      "note_on channel=9 note=36 velocity=0 time=0\n",
      "note_on channel=9 note=35 velocity=127 time=0\n",
      "note_on channel=9 note=38 velocity=127 time=0\n",
      "note_on channel=9 note=35 velocity=0 time=30\n",
      "note_on channel=9 note=38 velocity=0 time=0\n",
      "note_on channel=9 note=38 velocity=127 time=0\n",
      "note_on channel=9 note=36 velocity=127 time=0\n",
      "note_on channel=9 note=38 velocity=0 time=30\n",
      "note_on channel=9 note=36 velocity=0 time=0\n",
      "note_on channel=9 note=35 velocity=127 time=0\n",
      "note_on channel=9 note=35 velocity=0 time=30\n",
      "note_on channel=9 note=36 velocity=127 time=0\n",
      "note_on channel=9 note=36 velocity=0 time=30\n",
      "note_on channel=9 note=35 velocity=127 time=0\n",
      "note_on channel=9 note=35 velocity=0 time=30\n",
      "note_on channel=9 note=36 velocity=127 time=0\n",
      "note_on channel=9 note=36 velocity=0 time=30\n",
      "note_on channel=9 note=45 velocity=127 time=0\n",
      "note_on channel=9 note=35 velocity=127 time=0\n",
      "note_on channel=9 note=47 velocity=127 time=0\n",
      "note_on channel=9 note=35 velocity=0 time=30\n",
      "note_on channel=9 note=36 velocity=127 time=0\n",
      "note_on channel=9 note=36 velocity=0 time=30\n",
      "note_on channel=9 note=35 velocity=127 time=0\n",
      "note_on channel=9 note=35 velocity=0 time=30\n",
      "note_on channel=9 note=36 velocity=127 time=0\n",
      "note_on channel=9 note=45 velocity=0 time=30\n",
      "note_on channel=9 note=47 velocity=0 time=0\n",
      "note_on channel=9 note=36 velocity=0 time=0\n",
      "note_on channel=9 note=35 velocity=127 time=0\n",
      "note_on channel=9 note=35 velocity=0 time=30\n",
      "note_on channel=9 note=36 velocity=127 time=0\n",
      "note_on channel=9 note=36 velocity=0 time=30\n",
      "note_on channel=9 note=35 velocity=127 time=0\n",
      "note_on channel=9 note=35 velocity=0 time=30\n",
      "note_on channel=9 note=36 velocity=127 time=0\n",
      "note_on channel=9 note=36 velocity=0 time=30\n",
      "note_on channel=9 note=35 velocity=127 time=0\n",
      "note_on channel=9 note=35 velocity=0 time=30\n",
      "note_on channel=9 note=36 velocity=127 time=0\n",
      "note_on channel=9 note=36 velocity=0 time=30\n",
      "note_on channel=9 note=38 velocity=127 time=0\n",
      "note_on channel=9 note=35 velocity=127 time=0\n",
      "note_on channel=9 note=57 velocity=127 time=0\n",
      "note_on channel=9 note=35 velocity=0 time=30\n",
      "note_on channel=9 note=36 velocity=127 time=0\n",
      "note_on channel=9 note=38 velocity=0 time=30\n",
      "note_on channel=9 note=57 velocity=0 time=0\n",
      "note_on channel=9 note=36 velocity=0 time=0\n",
      "note_on channel=9 note=35 velocity=127 time=0\n",
      "note_on channel=9 note=57 velocity=127 time=0\n",
      "note_on channel=9 note=35 velocity=0 time=30\n",
      "note_on channel=9 note=36 velocity=127 time=0\n",
      "note_on channel=9 note=36 velocity=0 time=30\n",
      "note_on channel=9 note=35 velocity=127 time=0\n",
      "note_on channel=9 note=35 velocity=0 time=30\n",
      "note_on channel=9 note=36 velocity=127 time=0\n",
      "note_on channel=9 note=57 velocity=0 time=30\n",
      "note_on channel=9 note=36 velocity=0 time=0\n",
      "note_on channel=9 note=47 velocity=127 time=0\n",
      "note_on channel=9 note=35 velocity=127 time=0\n",
      "note_on channel=9 note=45 velocity=127 time=0\n",
      "note_on channel=9 note=35 velocity=0 time=30\n",
      "note_on channel=9 note=36 velocity=127 time=0\n",
      "note_on channel=9 note=36 velocity=0 time=30\n",
      "note_on channel=9 note=35 velocity=127 time=0\n",
      "note_on channel=9 note=35 velocity=0 time=30\n",
      "note_on channel=9 note=36 velocity=127 time=0\n",
      "note_on channel=9 note=47 velocity=0 time=30\n",
      "note_on channel=9 note=45 velocity=0 time=0\n",
      "note_on channel=9 note=36 velocity=0 time=0\n",
      "note_on channel=9 note=35 velocity=127 time=0\n",
      "note_on channel=9 note=35 velocity=0 time=30\n",
      "note_on channel=9 note=36 velocity=127 time=0\n",
      "note_on channel=9 note=36 velocity=0 time=30\n",
      "note_on channel=9 note=35 velocity=127 time=0\n",
      "note_on channel=9 note=35 velocity=0 time=30\n",
      "note_on channel=9 note=36 velocity=127 time=0\n",
      "note_on channel=9 note=36 velocity=0 time=30\n",
      "note_on channel=9 note=35 velocity=127 time=0\n",
      "note_on channel=9 note=45 velocity=127 time=0\n",
      "note_on channel=9 note=47 velocity=127 time=0\n",
      "note_on channel=9 note=35 velocity=0 time=30\n",
      "note_on channel=9 note=36 velocity=127 time=0\n",
      "note_on channel=9 note=45 velocity=0 time=30\n",
      "note_on channel=9 note=47 velocity=0 time=0\n",
      "note_on channel=9 note=36 velocity=0 time=0\n",
      "note_on channel=9 note=38 velocity=127 time=0\n",
      "note_on channel=9 note=35 velocity=127 time=0\n",
      "note_on channel=9 note=38 velocity=0 time=30\n",
      "note_on channel=9 note=35 velocity=0 time=0\n",
      "note_on channel=9 note=36 velocity=127 time=0\n",
      "note_on channel=9 note=38 velocity=127 time=0\n",
      "note_on channel=9 note=36 velocity=0 time=30\n",
      "note_on channel=9 note=38 velocity=0 time=0\n",
      "note_on channel=9 note=35 velocity=127 time=0\n",
      "note_on channel=9 note=35 velocity=0 time=30\n",
      "note_on channel=9 note=36 velocity=127 time=0\n",
      "note_on channel=9 note=36 velocity=0 time=30\n",
      "note_on channel=9 note=35 velocity=127 time=0\n",
      "note_on channel=9 note=35 velocity=0 time=30\n",
      "note_on channel=9 note=36 velocity=127 time=0\n",
      "note_on channel=9 note=36 velocity=0 time=30\n",
      "note_on channel=9 note=45 velocity=127 time=0\n",
      "note_on channel=9 note=35 velocity=127 time=0\n",
      "note_on channel=9 note=47 velocity=127 time=0\n",
      "note_on channel=9 note=35 velocity=0 time=30\n",
      "note_on channel=9 note=36 velocity=127 time=0\n",
      "note_on channel=9 note=36 velocity=0 time=30\n",
      "note_on channel=9 note=35 velocity=127 time=0\n",
      "note_on channel=9 note=35 velocity=0 time=30\n",
      "note_on channel=9 note=36 velocity=127 time=0\n",
      "note_on channel=9 note=45 velocity=0 time=30\n",
      "note_on channel=9 note=47 velocity=0 time=0\n",
      "note_on channel=9 note=36 velocity=0 time=0\n",
      "note_on channel=9 note=35 velocity=127 time=0\n",
      "note_on channel=9 note=35 velocity=0 time=30\n",
      "note_on channel=9 note=36 velocity=127 time=0\n",
      "note_on channel=9 note=36 velocity=0 time=30\n",
      "note_on channel=9 note=35 velocity=127 time=0\n",
      "note_on channel=9 note=35 velocity=0 time=30\n",
      "note_on channel=9 note=36 velocity=127 time=0\n",
      "note_on channel=9 note=36 velocity=0 time=30\n",
      "note_on channel=9 note=35 velocity=127 time=0\n",
      "note_on channel=9 note=35 velocity=0 time=30\n",
      "note_on channel=9 note=36 velocity=127 time=0\n",
      "note_on channel=9 note=36 velocity=0 time=30\n",
      "note_on channel=9 note=38 velocity=127 time=0\n",
      "note_on channel=9 note=35 velocity=127 time=0\n",
      "note_on channel=9 note=57 velocity=127 time=0\n",
      "note_on channel=9 note=35 velocity=0 time=30\n",
      "note_on channel=9 note=36 velocity=127 time=0\n",
      "note_on channel=9 note=38 velocity=0 time=30\n",
      "note_on channel=9 note=57 velocity=0 time=0\n",
      "note_on channel=9 note=36 velocity=0 time=0\n",
      "note_on channel=9 note=57 velocity=127 time=0\n",
      "note_on channel=9 note=35 velocity=127 time=0\n",
      "note_on channel=9 note=35 velocity=0 time=30\n",
      "note_on channel=9 note=36 velocity=127 time=0\n",
      "note_on channel=9 note=36 velocity=0 time=30\n",
      "note_on channel=9 note=35 velocity=127 time=0\n",
      "note_on channel=9 note=35 velocity=0 time=30\n",
      "note_on channel=9 note=36 velocity=127 time=0\n",
      "note_on channel=9 note=57 velocity=0 time=30\n",
      "note_on channel=9 note=36 velocity=0 time=0\n",
      "note_on channel=9 note=47 velocity=127 time=0\n",
      "note_on channel=9 note=35 velocity=127 time=0\n",
      "note_on channel=9 note=45 velocity=127 time=0\n",
      "note_on channel=9 note=35 velocity=0 time=30\n",
      "note_on channel=9 note=36 velocity=127 time=0\n",
      "note_on channel=9 note=36 velocity=0 time=30\n",
      "note_on channel=9 note=35 velocity=127 time=0\n",
      "note_on channel=9 note=35 velocity=0 time=30\n",
      "note_on channel=9 note=36 velocity=127 time=0\n",
      "note_on channel=9 note=47 velocity=0 time=30\n",
      "note_on channel=9 note=45 velocity=0 time=0\n",
      "note_on channel=9 note=36 velocity=0 time=0\n",
      "note_on channel=9 note=35 velocity=127 time=0\n",
      "note_on channel=9 note=35 velocity=0 time=30\n",
      "note_on channel=9 note=36 velocity=127 time=0\n",
      "note_on channel=9 note=36 velocity=0 time=30\n",
      "note_on channel=9 note=35 velocity=127 time=0\n",
      "note_on channel=9 note=35 velocity=0 time=30\n",
      "note_on channel=9 note=36 velocity=127 time=0\n",
      "note_on channel=9 note=36 velocity=0 time=30\n",
      "note_on channel=9 note=47 velocity=127 time=0\n",
      "note_on channel=9 note=35 velocity=127 time=0\n",
      "note_on channel=9 note=45 velocity=127 time=0\n",
      "note_on channel=9 note=35 velocity=0 time=30\n",
      "note_on channel=9 note=36 velocity=127 time=0\n",
      "note_on channel=9 note=47 velocity=0 time=30\n",
      "note_on channel=9 note=45 velocity=0 time=0\n",
      "note_on channel=9 note=36 velocity=0 time=0\n",
      "note_on channel=9 note=35 velocity=127 time=0\n",
      "note_on channel=9 note=38 velocity=127 time=0\n",
      "note_on channel=9 note=35 velocity=0 time=30\n",
      "note_on channel=9 note=38 velocity=0 time=0\n",
      "note_on channel=9 note=36 velocity=127 time=0\n",
      "note_on channel=9 note=38 velocity=127 time=0\n",
      "note_on channel=9 note=36 velocity=0 time=30\n",
      "note_on channel=9 note=38 velocity=0 time=0\n",
      "note_on channel=9 note=35 velocity=127 time=0\n",
      "note_on channel=9 note=35 velocity=0 time=30\n",
      "note_on channel=9 note=36 velocity=127 time=0\n",
      "note_on channel=9 note=36 velocity=0 time=30\n",
      "note_on channel=9 note=35 velocity=127 time=0\n",
      "note_on channel=9 note=35 velocity=0 time=30\n",
      "note_on channel=9 note=36 velocity=127 time=0\n",
      "note_on channel=9 note=36 velocity=0 time=30\n",
      "note_on channel=9 note=35 velocity=127 time=0\n",
      "note_on channel=9 note=47 velocity=127 time=0\n",
      "note_on channel=9 note=45 velocity=127 time=0\n",
      "note_on channel=9 note=35 velocity=0 time=30\n",
      "note_on channel=9 note=36 velocity=127 time=0\n",
      "note_on channel=9 note=36 velocity=0 time=30\n",
      "note_on channel=9 note=35 velocity=127 time=0\n",
      "note_on channel=9 note=35 velocity=0 time=30\n",
      "note_on channel=9 note=36 velocity=127 time=0\n",
      "note_on channel=9 note=47 velocity=0 time=30\n",
      "note_on channel=9 note=45 velocity=0 time=0\n",
      "note_on channel=9 note=36 velocity=0 time=0\n",
      "note_on channel=9 note=35 velocity=127 time=0\n",
      "note_on channel=9 note=35 velocity=0 time=30\n",
      "note_on channel=9 note=36 velocity=127 time=0\n",
      "note_on channel=9 note=36 velocity=0 time=30\n",
      "note_on channel=9 note=35 velocity=127 time=0\n",
      "note_on channel=9 note=35 velocity=0 time=30\n",
      "note_on channel=9 note=36 velocity=127 time=0\n",
      "note_on channel=9 note=36 velocity=0 time=30\n",
      "note_on channel=9 note=35 velocity=127 time=0\n",
      "note_on channel=9 note=35 velocity=0 time=30\n",
      "note_on channel=9 note=36 velocity=127 time=0\n",
      "note_on channel=9 note=36 velocity=0 time=30\n",
      "note_on channel=9 note=38 velocity=127 time=0\n",
      "note_on channel=9 note=35 velocity=127 time=0\n",
      "note_on channel=9 note=57 velocity=127 time=0\n",
      "note_on channel=9 note=35 velocity=0 time=30\n",
      "note_on channel=9 note=36 velocity=127 time=0\n",
      "note_on channel=9 note=38 velocity=0 time=30\n",
      "note_on channel=9 note=57 velocity=0 time=0\n",
      "note_on channel=9 note=36 velocity=0 time=0\n",
      "note_on channel=9 note=35 velocity=127 time=0\n",
      "note_on channel=9 note=35 velocity=0 time=30\n",
      "note_on channel=9 note=36 velocity=127 time=0\n",
      "note_on channel=9 note=36 velocity=0 time=30\n",
      "note_on channel=9 note=35 velocity=127 time=0\n",
      "note_on channel=9 note=35 velocity=0 time=30\n",
      "note_on channel=9 note=36 velocity=127 time=0\n",
      "note_on channel=9 note=36 velocity=0 time=30\n",
      "note_on channel=9 note=47 velocity=127 time=0\n",
      "note_on channel=9 note=45 velocity=127 time=0\n",
      "note_on channel=9 note=35 velocity=127 time=0\n",
      "note_on channel=9 note=35 velocity=0 time=30\n",
      "note_on channel=9 note=36 velocity=127 time=0\n",
      "note_on channel=9 note=47 velocity=0 time=30\n",
      "note_on channel=9 note=45 velocity=0 time=0\n",
      "note_on channel=9 note=36 velocity=0 time=0\n",
      "note_on channel=9 note=35 velocity=127 time=0\n",
      "note_on channel=9 note=47 velocity=127 time=0\n",
      "note_on channel=9 note=45 velocity=127 time=0\n",
      "note_on channel=9 note=35 velocity=0 time=30\n",
      "note_on channel=9 note=36 velocity=127 time=0\n",
      "note_on channel=9 note=47 velocity=0 time=30\n",
      "note_on channel=9 note=45 velocity=0 time=0\n",
      "note_on channel=9 note=36 velocity=0 time=0\n",
      "note_on channel=9 note=35 velocity=127 time=0\n",
      "note_on channel=9 note=35 velocity=0 time=30\n",
      "note_on channel=9 note=36 velocity=127 time=0\n",
      "note_on channel=9 note=36 velocity=0 time=30\n",
      "note_on channel=9 note=35 velocity=127 time=0\n",
      "note_on channel=9 note=35 velocity=0 time=30\n",
      "note_on channel=9 note=36 velocity=127 time=0\n",
      "note_on channel=9 note=36 velocity=0 time=30\n",
      "note_on channel=9 note=35 velocity=127 time=0\n",
      "note_on channel=9 note=47 velocity=127 time=0\n",
      "note_on channel=9 note=45 velocity=127 time=0\n",
      "note_on channel=9 note=35 velocity=0 time=30\n",
      "note_on channel=9 note=36 velocity=127 time=0\n",
      "note_on channel=9 note=47 velocity=0 time=30\n",
      "note_on channel=9 note=45 velocity=0 time=0\n",
      "note_on channel=9 note=36 velocity=0 time=0\n",
      "note_on channel=9 note=45 velocity=127 time=0\n",
      "note_on channel=9 note=47 velocity=127 time=0\n",
      "note_on channel=9 note=35 velocity=127 time=0\n",
      "note_on channel=9 note=35 velocity=0 time=30\n",
      "note_on channel=9 note=36 velocity=127 time=0\n",
      "note_on channel=9 note=45 velocity=0 time=30\n",
      "note_on channel=9 note=47 velocity=0 time=0\n",
      "note_on channel=9 note=36 velocity=0 time=0\n",
      "note_on channel=9 note=35 velocity=127 time=0\n",
      "note_on channel=9 note=35 velocity=0 time=30\n",
      "note_on channel=9 note=36 velocity=127 time=0\n",
      "note_on channel=9 note=36 velocity=0 time=30\n",
      "note_on channel=9 note=35 velocity=127 time=0\n",
      "note_on channel=9 note=35 velocity=0 time=30\n",
      "note_on channel=9 note=36 velocity=127 time=0\n",
      "note_on channel=9 note=36 velocity=0 time=30\n",
      "note_on channel=9 note=35 velocity=127 time=0\n",
      "note_on channel=9 note=47 velocity=127 time=0\n",
      "note_on channel=9 note=45 velocity=127 time=0\n",
      "note_on channel=9 note=35 velocity=0 time=30\n",
      "note_on channel=9 note=36 velocity=127 time=0\n",
      "note_on channel=9 note=47 velocity=0 time=30\n",
      "note_on channel=9 note=45 velocity=0 time=0\n",
      "note_on channel=9 note=36 velocity=0 time=0\n",
      "note_on channel=9 note=35 velocity=127 time=0\n",
      "note_on channel=9 note=45 velocity=127 time=0\n",
      "note_on channel=9 note=47 velocity=127 time=0\n",
      "note_on channel=9 note=35 velocity=0 time=30\n",
      "note_on channel=9 note=36 velocity=127 time=0\n",
      "note_on channel=9 note=45 velocity=0 time=30\n",
      "note_on channel=9 note=47 velocity=0 time=0\n",
      "note_on channel=9 note=36 velocity=0 time=0\n",
      "note_on channel=9 note=35 velocity=127 time=0\n",
      "note_on channel=9 note=35 velocity=0 time=30\n",
      "note_on channel=9 note=36 velocity=127 time=0\n",
      "note_on channel=9 note=36 velocity=0 time=30\n",
      "note_on channel=9 note=35 velocity=127 time=0\n",
      "note_on channel=9 note=35 velocity=0 time=30\n",
      "note_on channel=9 note=36 velocity=127 time=0\n",
      "note_on channel=9 note=36 velocity=0 time=30\n",
      "note_on channel=9 note=35 velocity=127 time=0\n",
      "note_on channel=9 note=35 velocity=0 time=30\n",
      "note_on channel=9 note=36 velocity=127 time=0\n",
      "note_on channel=9 note=36 velocity=0 time=30\n",
      "note_on channel=9 note=35 velocity=127 time=0\n",
      "note_on channel=9 note=57 velocity=127 time=0\n",
      "note_on channel=9 note=38 velocity=127 time=0\n",
      "note_on channel=9 note=35 velocity=0 time=30\n",
      "note_on channel=9 note=36 velocity=127 time=0\n",
      "note_on channel=9 note=57 velocity=0 time=30\n",
      "note_on channel=9 note=38 velocity=0 time=0\n",
      "note_on channel=9 note=36 velocity=0 time=0\n",
      "note_on channel=9 note=35 velocity=127 time=0\n",
      "note_on channel=9 note=35 velocity=0 time=30\n",
      "note_on channel=9 note=36 velocity=127 time=0\n",
      "note_on channel=9 note=36 velocity=0 time=30\n",
      "note_on channel=9 note=35 velocity=127 time=0\n",
      "note_on channel=9 note=47 velocity=127 time=0\n",
      "note_on channel=9 note=45 velocity=127 time=0\n",
      "note_on channel=9 note=35 velocity=0 time=30\n",
      "note_on channel=9 note=36 velocity=127 time=0\n",
      "note_on channel=9 note=47 velocity=0 time=30\n",
      "note_on channel=9 note=45 velocity=0 time=0\n",
      "note_on channel=9 note=36 velocity=0 time=0\n",
      "note_on channel=9 note=35 velocity=127 time=0\n",
      "note_on channel=9 note=35 velocity=0 time=30\n",
      "note_on channel=9 note=36 velocity=127 time=0\n",
      "note_on channel=9 note=36 velocity=0 time=30\n",
      "note_on channel=9 note=35 velocity=127 time=0\n",
      "note_on channel=9 note=45 velocity=127 time=0\n",
      "note_on channel=9 note=47 velocity=127 time=0\n",
      "note_on channel=9 note=35 velocity=0 time=30\n",
      "note_on channel=9 note=36 velocity=127 time=0\n",
      "note_on channel=9 note=45 velocity=0 time=30\n",
      "note_on channel=9 note=47 velocity=0 time=0\n",
      "note_on channel=9 note=36 velocity=0 time=0\n",
      "note_on channel=9 note=35 velocity=127 time=0\n",
      "note_on channel=9 note=35 velocity=0 time=30\n",
      "note_on channel=9 note=36 velocity=127 time=0\n",
      "note_on channel=9 note=36 velocity=0 time=30\n",
      "note_on channel=9 note=45 velocity=127 time=0\n",
      "note_on channel=9 note=47 velocity=127 time=0\n",
      "note_on channel=9 note=35 velocity=127 time=0\n",
      "note_on channel=9 note=35 velocity=0 time=30\n",
      "note_on channel=9 note=36 velocity=127 time=0\n",
      "note_on channel=9 note=45 velocity=0 time=30\n",
      "note_on channel=9 note=47 velocity=0 time=0\n",
      "note_on channel=9 note=36 velocity=0 time=0\n",
      "note_on channel=9 note=35 velocity=127 time=0\n",
      "note_on channel=9 note=35 velocity=0 time=30\n",
      "note_on channel=9 note=36 velocity=127 time=0\n",
      "note_on channel=9 note=36 velocity=0 time=30\n",
      "note_on channel=9 note=47 velocity=127 time=0\n",
      "note_on channel=9 note=45 velocity=127 time=0\n",
      "note_on channel=9 note=35 velocity=127 time=0\n",
      "note_on channel=9 note=35 velocity=0 time=30\n",
      "note_on channel=9 note=36 velocity=127 time=0\n",
      "note_on channel=9 note=47 velocity=0 time=30\n",
      "note_on channel=9 note=45 velocity=0 time=0\n",
      "note_on channel=9 note=36 velocity=0 time=0\n",
      "note_on channel=9 note=45 velocity=127 time=0\n",
      "note_on channel=9 note=45 velocity=0 time=30\n",
      "note_on channel=9 note=45 velocity=127 time=0\n",
      "note_on channel=9 note=45 velocity=0 time=30\n",
      "note_on channel=9 note=45 velocity=127 time=0\n",
      "note_on channel=9 note=45 velocity=0 time=30\n",
      "note_on channel=9 note=45 velocity=127 time=0\n",
      "note_on channel=9 note=45 velocity=0 time=30\n",
      "note_on channel=9 note=47 velocity=127 time=0\n",
      "note_on channel=9 note=47 velocity=0 time=30\n",
      "note_on channel=9 note=47 velocity=127 time=0\n",
      "note_on channel=9 note=47 velocity=0 time=30\n",
      "note_on channel=9 note=47 velocity=127 time=0\n",
      "note_on channel=9 note=47 velocity=0 time=30\n",
      "note_on channel=9 note=47 velocity=127 time=0\n",
      "note_on channel=9 note=47 velocity=0 time=30\n",
      "note_on channel=9 note=48 velocity=127 time=0\n",
      "note_on channel=9 note=48 velocity=0 time=30\n",
      "note_on channel=9 note=48 velocity=127 time=0\n",
      "note_on channel=9 note=48 velocity=0 time=30\n",
      "note_on channel=9 note=48 velocity=127 time=0\n",
      "note_on channel=9 note=48 velocity=0 time=30\n",
      "note_on channel=9 note=48 velocity=127 time=0\n",
      "note_on channel=9 note=48 velocity=0 time=30\n",
      "note_on channel=9 note=50 velocity=127 time=0\n",
      "note_on channel=9 note=50 velocity=0 time=30\n",
      "note_on channel=9 note=50 velocity=127 time=0\n",
      "note_on channel=9 note=50 velocity=0 time=30\n",
      "note_on channel=9 note=50 velocity=127 time=0\n",
      "note_on channel=9 note=50 velocity=0 time=30\n",
      "note_on channel=9 note=50 velocity=127 time=0\n",
      "note_on channel=9 note=50 velocity=0 time=30\n",
      "note_on channel=9 note=35 velocity=127 time=0\n",
      "note_on channel=9 note=57 velocity=127 time=0\n",
      "note_on channel=9 note=35 velocity=0 time=120\n",
      "note_on channel=9 note=57 velocity=0 time=0\n",
      "note_on channel=9 note=38 velocity=127 time=0\n",
      "note_on channel=9 note=42 velocity=127 time=0\n",
      "note_on channel=9 note=38 velocity=0 time=120\n",
      "note_on channel=9 note=42 velocity=0 time=0\n",
      "note_on channel=9 note=35 velocity=127 time=0\n",
      "note_on channel=9 note=42 velocity=127 time=0\n",
      "note_on channel=9 note=35 velocity=0 time=60\n",
      "note_on channel=9 note=35 velocity=127 time=0\n",
      "note_on channel=9 note=42 velocity=0 time=60\n",
      "note_on channel=9 note=35 velocity=0 time=0\n",
      "note_on channel=9 note=42 velocity=127 time=0\n",
      "note_on channel=9 note=38 velocity=127 time=0\n",
      "note_on channel=9 note=35 velocity=127 time=60\n",
      "note_on channel=9 note=42 velocity=0 time=60\n",
      "note_on channel=9 note=38 velocity=0 time=0\n",
      "note_on channel=9 note=35 velocity=0 time=0\n",
      "note_on channel=9 note=42 velocity=127 time=0\n",
      "note_on channel=9 note=35 velocity=127 time=60\n",
      "note_on channel=9 note=42 velocity=0 time=60\n",
      "note_on channel=9 note=35 velocity=0 time=0\n",
      "note_on channel=9 note=38 velocity=127 time=0\n",
      "note_on channel=9 note=42 velocity=127 time=0\n",
      "note_on channel=9 note=38 velocity=0 time=120\n",
      "note_on channel=9 note=42 velocity=0 time=0\n",
      "note_on channel=9 note=42 velocity=127 time=0\n",
      "note_on channel=9 note=35 velocity=127 time=0\n",
      "note_on channel=9 note=35 velocity=0 time=60\n",
      "note_on channel=9 note=35 velocity=127 time=0\n",
      "note_on channel=9 note=42 velocity=0 time=60\n",
      "note_on channel=9 note=35 velocity=0 time=0\n",
      "note_on channel=9 note=38 velocity=127 time=0\n",
      "note_on channel=9 note=42 velocity=127 time=0\n",
      "note_on channel=9 note=38 velocity=0 time=120\n",
      "note_on channel=9 note=42 velocity=0 time=0\n",
      "note_on channel=9 note=57 velocity=127 time=0\n",
      "note_on channel=9 note=35 velocity=127 time=0\n",
      "note_on channel=9 note=57 velocity=0 time=120\n",
      "note_on channel=9 note=35 velocity=0 time=0\n",
      "note_on channel=9 note=38 velocity=127 time=0\n",
      "note_on channel=9 note=42 velocity=127 time=0\n",
      "note_on channel=9 note=38 velocity=0 time=120\n",
      "note_on channel=9 note=42 velocity=0 time=0\n",
      "note_on channel=9 note=35 velocity=127 time=0\n",
      "note_on channel=9 note=42 velocity=127 time=0\n",
      "note_on channel=9 note=35 velocity=0 time=60\n",
      "note_on channel=9 note=35 velocity=127 time=0\n",
      "note_on channel=9 note=42 velocity=0 time=60\n",
      "note_on channel=9 note=35 velocity=0 time=0\n",
      "note_on channel=9 note=38 velocity=127 time=0\n",
      "note_on channel=9 note=42 velocity=127 time=0\n",
      "note_on channel=9 note=38 velocity=0 time=120\n",
      "note_on channel=9 note=42 velocity=0 time=0\n",
      "note_on channel=9 note=38 velocity=127 time=0\n",
      "note_on channel=9 note=38 velocity=0 time=30\n",
      "note_on channel=9 note=38 velocity=127 time=0\n",
      "note_on channel=9 note=38 velocity=0 time=30\n",
      "note_on channel=9 note=38 velocity=127 time=0\n",
      "note_on channel=9 note=38 velocity=0 time=30\n",
      "note_on channel=9 note=38 velocity=127 time=0\n",
      "note_on channel=9 note=38 velocity=0 time=30\n",
      "note_on channel=9 note=38 velocity=127 time=0\n",
      "note_on channel=9 note=38 velocity=0 time=30\n",
      "note_on channel=9 note=38 velocity=127 time=0\n",
      "note_on channel=9 note=38 velocity=0 time=30\n",
      "note_on channel=9 note=38 velocity=127 time=0\n",
      "note_on channel=9 note=38 velocity=0 time=30\n",
      "note_on channel=9 note=38 velocity=127 time=0\n",
      "note_on channel=9 note=38 velocity=0 time=30\n",
      "note_on channel=9 note=38 velocity=127 time=0\n",
      "note_on channel=9 note=38 velocity=0 time=30\n",
      "note_on channel=9 note=38 velocity=127 time=0\n",
      "note_on channel=9 note=38 velocity=0 time=30\n",
      "note_on channel=9 note=38 velocity=127 time=0\n",
      "note_on channel=9 note=38 velocity=0 time=30\n",
      "note_on channel=9 note=38 velocity=127 time=0\n",
      "note_on channel=9 note=38 velocity=0 time=30\n",
      "note_on channel=9 note=38 velocity=127 time=0\n",
      "note_on channel=9 note=38 velocity=0 time=60\n",
      "note_on channel=9 note=38 velocity=127 time=0\n",
      "note_on channel=9 note=38 velocity=0 time=60\n",
      "note_on channel=9 note=35 velocity=127 time=0\n",
      "note_on channel=9 note=57 velocity=127 time=0\n",
      "note_on channel=9 note=35 velocity=0 time=120\n",
      "note_on channel=9 note=57 velocity=0 time=0\n",
      "note_on channel=9 note=38 velocity=127 time=0\n",
      "note_on channel=9 note=42 velocity=127 time=0\n",
      "note_on channel=9 note=38 velocity=0 time=120\n",
      "note_on channel=9 note=42 velocity=0 time=0\n",
      "note_on channel=9 note=42 velocity=127 time=0\n",
      "note_on channel=9 note=35 velocity=127 time=0\n",
      "note_on channel=9 note=35 velocity=0 time=60\n",
      "note_on channel=9 note=35 velocity=127 time=0\n",
      "note_on channel=9 note=42 velocity=0 time=60\n",
      "note_on channel=9 note=35 velocity=0 time=0\n",
      "note_on channel=9 note=38 velocity=127 time=0\n",
      "note_on channel=9 note=42 velocity=127 time=0\n",
      "note_on channel=9 note=38 velocity=0 time=120\n",
      "note_on channel=9 note=42 velocity=0 time=0\n",
      "note_on channel=9 note=42 velocity=127 time=0\n",
      "note_on channel=9 note=35 velocity=127 time=0\n",
      "note_on channel=9 note=42 velocity=0 time=120\n",
      "note_on channel=9 note=35 velocity=0 time=0\n",
      "note_on channel=9 note=38 velocity=127 time=0\n",
      "note_on channel=9 note=42 velocity=127 time=0\n",
      "note_on channel=9 note=38 velocity=0 time=120\n",
      "note_on channel=9 note=42 velocity=0 time=0\n",
      "note_on channel=9 note=35 velocity=127 time=0\n",
      "note_on channel=9 note=42 velocity=127 time=0\n",
      "note_on channel=9 note=35 velocity=0 time=60\n",
      "note_on channel=9 note=35 velocity=127 time=0\n",
      "note_on channel=9 note=42 velocity=0 time=60\n",
      "note_on channel=9 note=35 velocity=0 time=0\n",
      "note_on channel=9 note=38 velocity=127 time=0\n",
      "note_on channel=9 note=42 velocity=127 time=0\n",
      "note_on channel=9 note=38 velocity=0 time=120\n",
      "note_on channel=9 note=42 velocity=0 time=0\n",
      "note_on channel=9 note=35 velocity=127 time=0\n",
      "note_on channel=9 note=42 velocity=127 time=0\n",
      "note_on channel=9 note=35 velocity=0 time=120\n",
      "note_on channel=9 note=42 velocity=0 time=0\n",
      "note_on channel=9 note=38 velocity=127 time=0\n",
      "note_on channel=9 note=42 velocity=127 time=0\n",
      "note_on channel=9 note=38 velocity=0 time=120\n",
      "note_on channel=9 note=42 velocity=0 time=0\n",
      "note_on channel=9 note=35 velocity=127 time=0\n",
      "note_on channel=9 note=42 velocity=127 time=0\n",
      "note_on channel=9 note=35 velocity=0 time=60\n",
      "note_on channel=9 note=35 velocity=127 time=0\n",
      "note_on channel=9 note=42 velocity=0 time=60\n",
      "note_on channel=9 note=35 velocity=0 time=0\n",
      "note_on channel=9 note=38 velocity=127 time=0\n",
      "note_on channel=9 note=42 velocity=127 time=0\n",
      "note_on channel=9 note=38 velocity=0 time=120\n",
      "note_on channel=9 note=42 velocity=0 time=0\n",
      "note_on channel=9 note=42 velocity=127 time=0\n",
      "note_on channel=9 note=35 velocity=127 time=0\n",
      "note_on channel=9 note=42 velocity=0 time=60\n",
      "note_on channel=9 note=35 velocity=0 time=0\n",
      "note_on channel=9 note=38 velocity=127 time=0\n",
      "note_on channel=9 note=57 velocity=127 time=0\n",
      "note_on channel=9 note=38 velocity=0 time=120\n",
      "note_on channel=9 note=57 velocity=0 time=0\n",
      "note_on channel=9 note=57 velocity=127 time=0\n",
      "note_on channel=9 note=38 velocity=127 time=0\n",
      "note_on channel=9 note=57 velocity=0 time=120\n",
      "note_on channel=9 note=38 velocity=0 time=0\n",
      "note_on channel=9 note=42 velocity=127 time=0\n",
      "note_on channel=9 note=35 velocity=127 time=0\n",
      "note_on channel=9 note=42 velocity=0 time=120\n",
      "note_on channel=9 note=35 velocity=0 time=0\n",
      "note_on channel=9 note=38 velocity=127 time=0\n",
      "note_on channel=9 note=42 velocity=127 time=0\n",
      "note_on channel=9 note=38 velocity=0 time=120\n",
      "note_on channel=9 note=42 velocity=0 time=0\n",
      "note_on channel=9 note=35 velocity=127 time=0\n",
      "note_on channel=9 note=42 velocity=127 time=0\n",
      "note_on channel=9 note=35 velocity=0 time=60\n",
      "note_on channel=9 note=35 velocity=127 time=0\n",
      "note_on channel=9 note=42 velocity=0 time=60\n",
      "note_on channel=9 note=35 velocity=0 time=0\n",
      "note_on channel=9 note=38 velocity=127 time=0\n",
      "note_on channel=9 note=42 velocity=127 time=0\n",
      "note_on channel=9 note=38 velocity=0 time=120\n",
      "note_on channel=9 note=42 velocity=0 time=0\n",
      "note_on channel=9 note=35 velocity=127 time=0\n",
      "note_on channel=9 note=42 velocity=127 time=0\n",
      "note_on channel=9 note=35 velocity=0 time=120\n",
      "note_on channel=9 note=42 velocity=0 time=0\n",
      "note_on channel=9 note=38 velocity=127 time=0\n",
      "note_on channel=9 note=42 velocity=127 time=0\n",
      "note_on channel=9 note=38 velocity=0 time=120\n",
      "note_on channel=9 note=42 velocity=0 time=0\n",
      "note_on channel=9 note=42 velocity=127 time=0\n",
      "note_on channel=9 note=35 velocity=127 time=0\n",
      "note_on channel=9 note=35 velocity=0 time=60\n",
      "note_on channel=9 note=35 velocity=127 time=0\n",
      "note_on channel=9 note=42 velocity=0 time=60\n",
      "note_on channel=9 note=35 velocity=0 time=0\n",
      "note_on channel=9 note=38 velocity=127 time=0\n",
      "note_on channel=9 note=42 velocity=127 time=0\n",
      "note_on channel=9 note=38 velocity=0 time=120\n",
      "note_on channel=9 note=42 velocity=0 time=0\n",
      "note_on channel=9 note=42 velocity=127 time=0\n",
      "note_on channel=9 note=35 velocity=127 time=0\n",
      "note_on channel=9 note=42 velocity=0 time=120\n",
      "note_on channel=9 note=35 velocity=0 time=0\n",
      "note_on channel=9 note=38 velocity=127 time=0\n",
      "note_on channel=9 note=42 velocity=127 time=0\n",
      "note_on channel=9 note=38 velocity=0 time=120\n",
      "note_on channel=9 note=42 velocity=0 time=0\n",
      "note_on channel=9 note=35 velocity=127 time=0\n",
      "note_on channel=9 note=42 velocity=127 time=0\n",
      "note_on channel=9 note=35 velocity=0 time=60\n",
      "note_on channel=9 note=35 velocity=127 time=0\n",
      "note_on channel=9 note=42 velocity=0 time=60\n",
      "note_on channel=9 note=35 velocity=0 time=0\n",
      "note_on channel=9 note=42 velocity=127 time=0\n",
      "note_on channel=9 note=38 velocity=127 time=0\n",
      "note_on channel=9 note=42 velocity=0 time=120\n",
      "note_on channel=9 note=38 velocity=0 time=0\n",
      "note_on channel=9 note=42 velocity=127 time=0\n",
      "note_on channel=9 note=35 velocity=127 time=0\n",
      "note_on channel=9 note=42 velocity=0 time=60\n",
      "note_on channel=9 note=35 velocity=0 time=0\n",
      "note_on channel=9 note=38 velocity=127 time=0\n",
      "note_on channel=9 note=57 velocity=127 time=0\n",
      "note_on channel=9 note=38 velocity=0 time=120\n",
      "note_on channel=9 note=57 velocity=0 time=0\n",
      "note_on channel=9 note=38 velocity=127 time=0\n",
      "note_on channel=9 note=57 velocity=127 time=0\n",
      "note_on channel=9 note=38 velocity=0 time=120\n",
      "note_on channel=9 note=57 velocity=0 time=0\n",
      "note_on channel=9 note=42 velocity=127 time=0\n",
      "note_on channel=9 note=35 velocity=127 time=0\n",
      "note_on channel=9 note=42 velocity=0 time=120\n",
      "note_on channel=9 note=35 velocity=0 time=0\n",
      "note_on channel=9 note=38 velocity=127 time=0\n",
      "note_on channel=9 note=42 velocity=127 time=0\n",
      "note_on channel=9 note=38 velocity=0 time=120\n",
      "note_on channel=9 note=42 velocity=0 time=0\n",
      "note_on channel=9 note=35 velocity=127 time=0\n",
      "note_on channel=9 note=42 velocity=127 time=0\n",
      "note_on channel=9 note=35 velocity=0 time=60\n",
      "note_on channel=9 note=35 velocity=127 time=0\n",
      "note_on channel=9 note=42 velocity=0 time=60\n",
      "note_on channel=9 note=35 velocity=0 time=0\n",
      "note_on channel=9 note=38 velocity=127 time=0\n",
      "note_on channel=9 note=42 velocity=127 time=0\n",
      "note_on channel=9 note=38 velocity=0 time=120\n",
      "note_on channel=9 note=42 velocity=0 time=0\n",
      "note_on channel=9 note=42 velocity=127 time=0\n",
      "note_on channel=9 note=35 velocity=127 time=0\n",
      "note_on channel=9 note=42 velocity=0 time=120\n",
      "note_on channel=9 note=35 velocity=0 time=0\n",
      "note_on channel=9 note=38 velocity=127 time=0\n",
      "note_on channel=9 note=42 velocity=127 time=0\n",
      "note_on channel=9 note=38 velocity=0 time=120\n",
      "note_on channel=9 note=42 velocity=0 time=0\n",
      "note_on channel=9 note=35 velocity=127 time=0\n",
      "note_on channel=9 note=42 velocity=127 time=0\n",
      "note_on channel=9 note=35 velocity=0 time=60\n",
      "note_on channel=9 note=35 velocity=127 time=0\n",
      "note_on channel=9 note=42 velocity=0 time=60\n",
      "note_on channel=9 note=35 velocity=0 time=0\n",
      "note_on channel=9 note=38 velocity=127 time=0\n",
      "note_on channel=9 note=42 velocity=127 time=0\n",
      "note_on channel=9 note=38 velocity=0 time=120\n",
      "note_on channel=9 note=42 velocity=0 time=0\n",
      "note_on channel=9 note=35 velocity=127 time=0\n",
      "note_on channel=9 note=42 velocity=127 time=0\n",
      "note_on channel=9 note=35 velocity=0 time=120\n",
      "note_on channel=9 note=42 velocity=0 time=0\n",
      "note_on channel=9 note=38 velocity=127 time=0\n",
      "note_on channel=9 note=42 velocity=127 time=0\n",
      "note_on channel=9 note=38 velocity=0 time=120\n",
      "note_on channel=9 note=42 velocity=0 time=0\n",
      "note_on channel=9 note=35 velocity=127 time=0\n",
      "note_on channel=9 note=42 velocity=127 time=0\n",
      "note_on channel=9 note=35 velocity=0 time=60\n",
      "note_on channel=9 note=35 velocity=127 time=0\n",
      "note_on channel=9 note=42 velocity=0 time=60\n",
      "note_on channel=9 note=35 velocity=0 time=0\n",
      "note_on channel=9 note=38 velocity=127 time=0\n",
      "note_on channel=9 note=42 velocity=127 time=0\n",
      "note_on channel=9 note=38 velocity=0 time=120\n",
      "note_on channel=9 note=42 velocity=0 time=0\n",
      "note_on channel=9 note=42 velocity=127 time=0\n",
      "note_on channel=9 note=35 velocity=127 time=0\n",
      "note_on channel=9 note=42 velocity=0 time=60\n",
      "note_on channel=9 note=35 velocity=0 time=0\n",
      "note_on channel=9 note=38 velocity=127 time=0\n",
      "note_on channel=9 note=57 velocity=127 time=0\n",
      "note_on channel=9 note=38 velocity=0 time=120\n",
      "note_on channel=9 note=57 velocity=0 time=0\n",
      "note_on channel=9 note=57 velocity=127 time=0\n",
      "note_on channel=9 note=38 velocity=127 time=0\n",
      "note_on channel=9 note=57 velocity=0 time=120\n",
      "note_on channel=9 note=38 velocity=0 time=0\n",
      "note_on channel=9 note=35 velocity=127 time=0\n",
      "note_on channel=9 note=42 velocity=127 time=0\n",
      "note_on channel=9 note=35 velocity=0 time=120\n",
      "note_on channel=9 note=42 velocity=0 time=0\n",
      "note_on channel=9 note=38 velocity=127 time=0\n",
      "note_on channel=9 note=42 velocity=127 time=0\n",
      "note_on channel=9 note=38 velocity=0 time=120\n",
      "note_on channel=9 note=42 velocity=0 time=0\n",
      "note_on channel=9 note=35 velocity=127 time=0\n",
      "note_on channel=9 note=42 velocity=127 time=0\n",
      "note_on channel=9 note=35 velocity=0 time=60\n",
      "note_on channel=9 note=35 velocity=127 time=0\n",
      "note_on channel=9 note=42 velocity=0 time=60\n",
      "note_on channel=9 note=35 velocity=0 time=0\n",
      "note_on channel=9 note=38 velocity=127 time=0\n",
      "note_on channel=9 note=42 velocity=127 time=0\n",
      "note_on channel=9 note=38 velocity=0 time=120\n",
      "note_on channel=9 note=42 velocity=0 time=0\n",
      "note_on channel=9 note=42 velocity=127 time=0\n",
      "note_on channel=9 note=35 velocity=127 time=0\n",
      "note_on channel=9 note=42 velocity=0 time=120\n",
      "note_on channel=9 note=35 velocity=0 time=0\n",
      "note_on channel=9 note=38 velocity=127 time=0\n",
      "note_on channel=9 note=42 velocity=127 time=0\n",
      "note_on channel=9 note=38 velocity=0 time=120\n",
      "note_on channel=9 note=42 velocity=0 time=0\n",
      "note_on channel=9 note=42 velocity=127 time=0\n",
      "note_on channel=9 note=35 velocity=127 time=0\n",
      "note_on channel=9 note=35 velocity=0 time=60\n",
      "note_on channel=9 note=35 velocity=127 time=0\n",
      "note_on channel=9 note=42 velocity=0 time=60\n",
      "note_on channel=9 note=35 velocity=0 time=0\n",
      "note_on channel=9 note=38 velocity=127 time=0\n",
      "note_on channel=9 note=42 velocity=127 time=0\n",
      "note_on channel=9 note=38 velocity=0 time=120\n",
      "note_on channel=9 note=42 velocity=0 time=0\n",
      "note_on channel=9 note=42 velocity=127 time=0\n",
      "note_on channel=9 note=35 velocity=127 time=0\n",
      "note_on channel=9 note=42 velocity=0 time=120\n",
      "note_on channel=9 note=35 velocity=0 time=0\n",
      "note_on channel=9 note=38 velocity=127 time=0\n",
      "note_on channel=9 note=42 velocity=127 time=0\n",
      "note_on channel=9 note=38 velocity=0 time=120\n",
      "note_on channel=9 note=42 velocity=0 time=0\n",
      "note_on channel=9 note=35 velocity=127 time=0\n",
      "note_on channel=9 note=42 velocity=127 time=0\n",
      "note_on channel=9 note=35 velocity=0 time=60\n",
      "note_on channel=9 note=35 velocity=127 time=0\n",
      "note_on channel=9 note=42 velocity=0 time=60\n",
      "note_on channel=9 note=35 velocity=0 time=0\n",
      "note_on channel=9 note=42 velocity=127 time=0\n",
      "note_on channel=9 note=38 velocity=127 time=0\n",
      "note_on channel=9 note=42 velocity=0 time=120\n",
      "note_on channel=9 note=38 velocity=0 time=0\n",
      "note_on channel=9 note=42 velocity=127 time=0\n",
      "note_on channel=9 note=35 velocity=127 time=0\n",
      "note_on channel=9 note=42 velocity=0 time=60\n",
      "note_on channel=9 note=35 velocity=0 time=0\n",
      "note_on channel=9 note=38 velocity=127 time=0\n",
      "note_on channel=9 note=57 velocity=127 time=0\n",
      "note_on channel=9 note=38 velocity=0 time=120\n",
      "note_on channel=9 note=57 velocity=0 time=0\n",
      "note_on channel=9 note=38 velocity=127 time=0\n",
      "note_on channel=9 note=57 velocity=127 time=0\n",
      "note_on channel=9 note=38 velocity=0 time=120\n",
      "note_on channel=9 note=57 velocity=0 time=0\n",
      "note_on channel=9 note=42 velocity=127 time=0\n",
      "note_on channel=9 note=35 velocity=127 time=0\n",
      "note_on channel=9 note=42 velocity=0 time=120\n",
      "note_on channel=9 note=35 velocity=0 time=0\n",
      "note_on channel=9 note=38 velocity=127 time=0\n",
      "note_on channel=9 note=42 velocity=127 time=0\n",
      "note_on channel=9 note=38 velocity=0 time=120\n",
      "note_on channel=9 note=42 velocity=0 time=0\n",
      "note_on channel=9 note=35 velocity=127 time=0\n",
      "note_on channel=9 note=42 velocity=127 time=0\n",
      "note_on channel=9 note=35 velocity=0 time=60\n",
      "note_on channel=9 note=35 velocity=127 time=0\n",
      "note_on channel=9 note=42 velocity=0 time=60\n",
      "note_on channel=9 note=35 velocity=0 time=0\n",
      "note_on channel=9 note=38 velocity=127 time=0\n",
      "note_on channel=9 note=42 velocity=127 time=0\n",
      "note_on channel=9 note=38 velocity=0 time=120\n",
      "note_on channel=9 note=42 velocity=0 time=0\n",
      "note_on channel=9 note=38 velocity=127 time=0\n",
      "note_on channel=9 note=38 velocity=0 time=60\n",
      "note_on channel=9 note=38 velocity=127 time=0\n",
      "note_on channel=9 note=38 velocity=0 time=30\n",
      "note_on channel=9 note=38 velocity=127 time=0\n",
      "note_on channel=9 note=38 velocity=0 time=30\n",
      "note_on channel=9 note=38 velocity=127 time=0\n",
      "note_on channel=9 note=38 velocity=0 time=60\n",
      "note_on channel=9 note=38 velocity=127 time=0\n",
      "note_on channel=9 note=38 velocity=0 time=60\n",
      "note_on channel=9 note=38 velocity=127 time=0\n",
      "note_on channel=9 note=38 velocity=0 time=60\n",
      "note_on channel=9 note=38 velocity=127 time=0\n",
      "note_on channel=9 note=38 velocity=0 time=60\n",
      "note_on channel=9 note=38 velocity=127 time=0\n",
      "note_on channel=9 note=38 velocity=0 time=60\n",
      "note_on channel=9 note=38 velocity=127 time=0\n",
      "note_on channel=9 note=38 velocity=0 time=60\n",
      "note_on channel=9 note=35 velocity=127 time=0\n",
      "note_on channel=9 note=42 velocity=127 time=0\n",
      "note_on channel=9 note=35 velocity=0 time=120\n",
      "note_on channel=9 note=42 velocity=0 time=0\n",
      "note_on channel=9 note=42 velocity=127 time=0\n",
      "note_on channel=9 note=38 velocity=127 time=0\n",
      "note_on channel=9 note=42 velocity=0 time=120\n",
      "note_on channel=9 note=38 velocity=0 time=0\n",
      "note_on channel=9 note=35 velocity=127 time=0\n",
      "note_on channel=9 note=42 velocity=127 time=0\n",
      "note_on channel=9 note=35 velocity=0 time=60\n",
      "note_on channel=9 note=35 velocity=127 time=0\n",
      "note_on channel=9 note=42 velocity=0 time=60\n",
      "note_on channel=9 note=35 velocity=0 time=0\n",
      "note_on channel=9 note=38 velocity=127 time=0\n",
      "note_on channel=9 note=42 velocity=127 time=0\n",
      "note_on channel=9 note=38 velocity=0 time=120\n",
      "note_on channel=9 note=42 velocity=0 time=0\n",
      "note_on channel=9 note=42 velocity=127 time=0\n",
      "note_on channel=9 note=35 velocity=127 time=0\n",
      "note_on channel=9 note=42 velocity=0 time=60\n",
      "note_on channel=9 note=35 velocity=0 time=0\n",
      "note_on channel=9 note=38 velocity=127 time=0\n",
      "note_on channel=9 note=57 velocity=127 time=0\n",
      "note_on channel=9 note=38 velocity=0 time=120\n",
      "note_on channel=9 note=57 velocity=0 time=0\n",
      "note_on channel=9 note=38 velocity=127 time=0\n",
      "note_on channel=9 note=57 velocity=127 time=0\n",
      "note_on channel=9 note=38 velocity=0 time=120\n",
      "note_on channel=9 note=57 velocity=0 time=0\n",
      "note_on channel=9 note=35 velocity=127 time=0\n",
      "note_on channel=9 note=42 velocity=127 time=0\n",
      "note_on channel=9 note=35 velocity=0 time=120\n",
      "note_on channel=9 note=42 velocity=0 time=0\n",
      "note_on channel=9 note=38 velocity=127 time=0\n",
      "note_on channel=9 note=42 velocity=127 time=0\n",
      "note_on channel=9 note=38 velocity=0 time=120\n",
      "note_on channel=9 note=42 velocity=0 time=0\n",
      "note_on channel=9 note=35 velocity=127 time=0\n",
      "note_on channel=9 note=42 velocity=127 time=0\n",
      "note_on channel=9 note=35 velocity=0 time=60\n",
      "note_on channel=9 note=35 velocity=127 time=0\n",
      "note_on channel=9 note=42 velocity=0 time=60\n",
      "note_on channel=9 note=35 velocity=0 time=0\n",
      "note_on channel=9 note=38 velocity=127 time=0\n",
      "note_on channel=9 note=42 velocity=127 time=0\n",
      "note_on channel=9 note=38 velocity=0 time=120\n",
      "note_on channel=9 note=42 velocity=0 time=0\n",
      "note_on channel=9 note=42 velocity=127 time=0\n",
      "note_on channel=9 note=35 velocity=127 time=0\n",
      "note_on channel=9 note=42 velocity=0 time=120\n",
      "note_on channel=9 note=35 velocity=0 time=0\n",
      "note_on channel=9 note=38 velocity=127 time=0\n",
      "note_on channel=9 note=42 velocity=127 time=0\n",
      "note_on channel=9 note=38 velocity=0 time=120\n",
      "note_on channel=9 note=42 velocity=0 time=0\n",
      "note_on channel=9 note=42 velocity=127 time=0\n",
      "note_on channel=9 note=35 velocity=127 time=0\n",
      "note_on channel=9 note=35 velocity=0 time=60\n",
      "note_on channel=9 note=35 velocity=127 time=0\n",
      "note_on channel=9 note=42 velocity=0 time=60\n",
      "note_on channel=9 note=35 velocity=0 time=0\n",
      "note_on channel=9 note=38 velocity=127 time=0\n",
      "note_on channel=9 note=42 velocity=127 time=0\n",
      "note_on channel=9 note=38 velocity=0 time=120\n",
      "note_on channel=9 note=42 velocity=0 time=0\n",
      "note_on channel=9 note=42 velocity=127 time=0\n",
      "note_on channel=9 note=35 velocity=127 time=0\n",
      "note_on channel=9 note=42 velocity=0 time=120\n",
      "note_on channel=9 note=35 velocity=0 time=0\n",
      "note_on channel=9 note=38 velocity=127 time=0\n",
      "note_on channel=9 note=42 velocity=127 time=0\n",
      "note_on channel=9 note=38 velocity=0 time=120\n",
      "note_on channel=9 note=42 velocity=0 time=0\n",
      "note_on channel=9 note=35 velocity=127 time=0\n",
      "note_on channel=9 note=42 velocity=127 time=0\n",
      "note_on channel=9 note=35 velocity=0 time=60\n",
      "note_on channel=9 note=35 velocity=127 time=0\n",
      "note_on channel=9 note=42 velocity=0 time=60\n",
      "note_on channel=9 note=35 velocity=0 time=0\n",
      "note_on channel=9 note=42 velocity=127 time=0\n",
      "note_on channel=9 note=38 velocity=127 time=0\n",
      "note_on channel=9 note=42 velocity=0 time=120\n",
      "note_on channel=9 note=38 velocity=0 time=0\n",
      "note_on channel=9 note=42 velocity=127 time=0\n",
      "note_on channel=9 note=35 velocity=127 time=0\n",
      "note_on channel=9 note=42 velocity=0 time=60\n",
      "note_on channel=9 note=35 velocity=0 time=0\n",
      "note_on channel=9 note=38 velocity=127 time=0\n",
      "note_on channel=9 note=57 velocity=127 time=0\n",
      "note_on channel=9 note=38 velocity=0 time=120\n",
      "note_on channel=9 note=57 velocity=0 time=0\n",
      "note_on channel=9 note=38 velocity=127 time=0\n",
      "note_on channel=9 note=57 velocity=127 time=0\n",
      "note_on channel=9 note=38 velocity=0 time=120\n",
      "note_on channel=9 note=57 velocity=0 time=0\n",
      "note_on channel=9 note=38 velocity=127 time=0\n",
      "note_on channel=9 note=38 velocity=0 time=60\n",
      "note_on channel=9 note=38 velocity=127 time=0\n",
      "note_on channel=9 note=38 velocity=0 time=60\n",
      "note_on channel=9 note=38 velocity=127 time=0\n",
      "note_on channel=9 note=38 velocity=0 time=60\n",
      "note_on channel=9 note=38 velocity=127 time=0\n",
      "note_on channel=9 note=38 velocity=0 time=60\n",
      "note_on channel=9 note=38 velocity=127 time=0\n",
      "note_on channel=9 note=38 velocity=0 time=60\n",
      "note_on channel=9 note=38 velocity=127 time=0\n",
      "note_on channel=9 note=38 velocity=0 time=60\n",
      "note_on channel=9 note=38 velocity=127 time=0\n",
      "note_on channel=9 note=38 velocity=0 time=60\n",
      "note_on channel=9 note=38 velocity=127 time=0\n",
      "note_on channel=9 note=38 velocity=0 time=60\n",
      "note_on channel=9 note=35 velocity=127 time=0\n",
      "note_on channel=9 note=57 velocity=127 time=0\n",
      "note_on channel=9 note=35 velocity=0 time=120\n",
      "note_on channel=9 note=57 velocity=0 time=0\n",
      "note_on channel=9 note=42 velocity=127 time=0\n",
      "note_on channel=9 note=42 velocity=0 time=120\n",
      "note_on channel=9 note=38 velocity=127 time=0\n",
      "note_on channel=9 note=42 velocity=127 time=0\n",
      "note_on channel=9 note=35 velocity=127 time=60\n",
      "note_on channel=9 note=38 velocity=0 time=60\n",
      "note_on channel=9 note=42 velocity=0 time=0\n",
      "note_on channel=9 note=35 velocity=0 time=0\n",
      "note_on channel=9 note=42 velocity=127 time=0\n",
      "note_on channel=9 note=42 velocity=0 time=120\n",
      "note_on channel=9 note=35 velocity=127 time=0\n",
      "note_on channel=9 note=42 velocity=127 time=0\n",
      "note_on channel=9 note=35 velocity=0 time=120\n",
      "note_on channel=9 note=42 velocity=0 time=0\n",
      "note_on channel=9 note=42 velocity=127 time=0\n",
      "note_on channel=9 note=35 velocity=127 time=60\n",
      "note_on channel=9 note=42 velocity=0 time=60\n",
      "note_on channel=9 note=35 velocity=0 time=0\n",
      "note_on channel=9 note=42 velocity=127 time=0\n",
      "note_on channel=9 note=38 velocity=127 time=0\n",
      "note_on channel=9 note=42 velocity=0 time=120\n",
      "note_on channel=9 note=38 velocity=0 time=0\n",
      "note_on channel=9 note=38 velocity=127 time=0\n",
      "note_on channel=9 note=38 velocity=0 time=60\n",
      "note_on channel=9 note=38 velocity=127 time=0\n",
      "note_on channel=9 note=38 velocity=0 time=60\n",
      "note_on channel=9 note=42 velocity=127 time=0\n",
      "note_on channel=9 note=35 velocity=127 time=0\n",
      "note_on channel=9 note=42 velocity=0 time=120\n",
      "note_on channel=9 note=35 velocity=0 time=0\n",
      "note_on channel=9 note=42 velocity=127 time=0\n",
      "note_on channel=9 note=35 velocity=127 time=60\n",
      "note_on channel=9 note=42 velocity=0 time=60\n",
      "note_on channel=9 note=35 velocity=0 time=0\n",
      "note_on channel=9 note=38 velocity=127 time=0\n",
      "note_on channel=9 note=42 velocity=127 time=0\n",
      "note_on channel=9 note=38 velocity=0 time=120\n",
      "note_on channel=9 note=42 velocity=0 time=0\n",
      "note_on channel=9 note=42 velocity=127 time=0\n",
      "note_on channel=9 note=42 velocity=0 time=120\n",
      "note_on channel=9 note=35 velocity=127 time=0\n",
      "note_on channel=9 note=42 velocity=127 time=0\n",
      "note_on channel=9 note=35 velocity=0 time=120\n",
      "note_on channel=9 note=42 velocity=0 time=0\n",
      "note_on channel=9 note=42 velocity=127 time=0\n",
      "note_on channel=9 note=42 velocity=0 time=120\n",
      "note_on channel=9 note=42 velocity=127 time=0\n",
      "note_on channel=9 note=38 velocity=127 time=0\n",
      "note_on channel=9 note=42 velocity=0 time=120\n",
      "note_on channel=9 note=38 velocity=0 time=0\n",
      "note_on channel=9 note=38 velocity=127 time=0\n",
      "note_on channel=9 note=57 velocity=127 time=0\n",
      "note_on channel=9 note=38 velocity=0 time=120\n",
      "note_on channel=9 note=57 velocity=0 time=0\n",
      "note_on channel=9 note=35 velocity=127 time=0\n",
      "note_on channel=9 note=42 velocity=127 time=0\n",
      "note_on channel=9 note=35 velocity=0 time=120\n",
      "note_on channel=9 note=42 velocity=0 time=0\n",
      "note_on channel=9 note=42 velocity=127 time=0\n",
      "note_on channel=9 note=42 velocity=0 time=120\n",
      "note_on channel=9 note=38 velocity=127 time=0\n",
      "note_on channel=9 note=42 velocity=127 time=0\n",
      "note_on channel=9 note=38 velocity=0 time=120\n",
      "note_on channel=9 note=42 velocity=0 time=0\n",
      "note_on channel=9 note=42 velocity=127 time=0\n",
      "note_on channel=9 note=42 velocity=0 time=120\n",
      "note_on channel=9 note=35 velocity=127 time=0\n",
      "note_on channel=9 note=42 velocity=127 time=0\n",
      "note_on channel=9 note=35 velocity=0 time=120\n",
      "note_on channel=9 note=42 velocity=0 time=0\n",
      "note_on channel=9 note=42 velocity=127 time=0\n",
      "note_on channel=9 note=35 velocity=127 time=60\n",
      "note_on channel=9 note=42 velocity=0 time=60\n",
      "note_on channel=9 note=35 velocity=0 time=0\n",
      "note_on channel=9 note=38 velocity=127 time=0\n",
      "note_on channel=9 note=42 velocity=127 time=0\n",
      "note_on channel=9 note=38 velocity=0 time=120\n",
      "note_on channel=9 note=42 velocity=0 time=0\n",
      "note_on channel=9 note=38 velocity=127 time=0\n",
      "note_on channel=9 note=38 velocity=0 time=60\n",
      "note_on channel=9 note=38 velocity=127 time=0\n",
      "note_on channel=9 note=38 velocity=0 time=60\n",
      "note_on channel=9 note=35 velocity=127 time=0\n",
      "note_on channel=9 note=42 velocity=127 time=0\n",
      "note_on channel=9 note=35 velocity=0 time=120\n",
      "note_on channel=9 note=42 velocity=0 time=0\n",
      "note_on channel=9 note=35 velocity=127 time=0\n",
      "note_on channel=9 note=42 velocity=127 time=0\n",
      "note_on channel=9 note=35 velocity=0 time=120\n",
      "note_on channel=9 note=42 velocity=0 time=0\n",
      "note_on channel=9 note=38 velocity=127 time=0\n",
      "note_on channel=9 note=42 velocity=127 time=0\n",
      "note_on channel=9 note=38 velocity=0 time=120\n",
      "note_on channel=9 note=42 velocity=0 time=0\n",
      "note_on channel=9 note=42 velocity=127 time=0\n",
      "note_on channel=9 note=42 velocity=0 time=120\n",
      "note_on channel=9 note=35 velocity=127 time=0\n",
      "note_on channel=9 note=42 velocity=127 time=0\n",
      "note_on channel=9 note=35 velocity=0 time=120\n",
      "note_on channel=9 note=42 velocity=0 time=0\n",
      "note_on channel=9 note=42 velocity=127 time=0\n",
      "note_on channel=9 note=42 velocity=0 time=120\n",
      "note_on channel=9 note=38 velocity=127 time=0\n",
      "note_on channel=9 note=42 velocity=127 time=0\n",
      "note_on channel=9 note=38 velocity=0 time=120\n",
      "note_on channel=9 note=42 velocity=0 time=0\n",
      "note_on channel=9 note=38 velocity=127 time=0\n",
      "note_on channel=9 note=57 velocity=127 time=0\n",
      "note_on channel=9 note=38 velocity=0 time=120\n",
      "note_on channel=9 note=57 velocity=0 time=0\n",
      "note_on channel=9 note=38 velocity=127 time=0\n",
      "note_on channel=9 note=38 velocity=0 time=60\n",
      "note_on channel=9 note=38 velocity=127 time=0\n",
      "note_on channel=9 note=38 velocity=0 time=60\n",
      "note_on channel=9 note=38 velocity=127 time=0\n",
      "note_on channel=9 note=38 velocity=0 time=60\n",
      "note_on channel=9 note=38 velocity=127 time=0\n",
      "note_on channel=9 note=38 velocity=0 time=60\n",
      "note_on channel=9 note=38 velocity=127 time=0\n",
      "note_on channel=9 note=38 velocity=0 time=60\n",
      "note_on channel=9 note=38 velocity=127 time=0\n",
      "note_on channel=9 note=38 velocity=0 time=60\n",
      "note_on channel=9 note=38 velocity=127 time=0\n",
      "note_on channel=9 note=38 velocity=0 time=60\n",
      "note_on channel=9 note=38 velocity=127 time=0\n",
      "note_on channel=9 note=38 velocity=0 time=60\n",
      "note_on channel=9 note=35 velocity=127 time=0\n",
      "note_on channel=9 note=57 velocity=127 time=0\n",
      "note_on channel=9 note=35 velocity=0 time=120\n",
      "note_on channel=9 note=57 velocity=0 time=0\n",
      "note_on channel=9 note=42 velocity=127 time=0\n",
      "note_on channel=9 note=38 velocity=127 time=0\n",
      "note_on channel=9 note=42 velocity=0 time=120\n",
      "note_on channel=9 note=38 velocity=0 time=0\n",
      "note_on channel=9 note=42 velocity=127 time=0\n",
      "note_on channel=9 note=42 velocity=0 time=120\n",
      "note_on channel=9 note=38 velocity=127 time=0\n",
      "note_on channel=9 note=42 velocity=127 time=0\n",
      "note_on channel=9 note=38 velocity=0 time=120\n",
      "note_on channel=9 note=42 velocity=0 time=0\n",
      "note_on channel=9 note=42 velocity=127 time=0\n",
      "note_on channel=9 note=35 velocity=127 time=60\n",
      "note_on channel=9 note=35 velocity=0 time=20\n",
      "note_on channel=9 note=36 velocity=127 time=0\n",
      "note_on channel=9 note=36 velocity=0 time=20\n",
      "note_on channel=9 note=35 velocity=127 time=0\n",
      "note_on channel=9 note=42 velocity=0 time=20\n",
      "note_on channel=9 note=35 velocity=0 time=0\n",
      "note_on channel=9 note=38 velocity=127 time=0\n",
      "note_on channel=9 note=57 velocity=127 time=0\n",
      "note_on channel=9 note=38 velocity=0 time=120\n",
      "note_on channel=9 note=57 velocity=0 time=0\n",
      "note_on channel=9 note=35 velocity=127 time=0\n",
      "note_on channel=9 note=42 velocity=127 time=0\n",
      "note_on channel=9 note=35 velocity=0 time=60\n",
      "note_on channel=9 note=35 velocity=127 time=0\n",
      "note_on channel=9 note=42 velocity=0 time=60\n",
      "note_on channel=9 note=35 velocity=0 time=0\n",
      "note_on channel=9 note=38 velocity=127 time=0\n",
      "note_on channel=9 note=42 velocity=127 time=0\n",
      "note_on channel=9 note=35 velocity=127 time=60\n",
      "note_on channel=9 note=38 velocity=0 time=60\n",
      "note_on channel=9 note=42 velocity=0 time=0\n",
      "note_on channel=9 note=35 velocity=0 time=0\n",
      "note_on channel=9 note=42 velocity=127 time=0\n",
      "note_on channel=9 note=42 velocity=0 time=120\n",
      "note_on channel=9 note=42 velocity=127 time=0\n",
      "note_on channel=9 note=42 velocity=0 time=120\n",
      "note_on channel=9 note=42 velocity=127 time=0\n",
      "note_on channel=9 note=42 velocity=0 time=120\n",
      "note_on channel=9 note=42 velocity=127 time=0\n",
      "note_on channel=9 note=42 velocity=0 time=120\n",
      "note_on channel=9 note=35 velocity=127 time=0\n",
      "note_on channel=9 note=42 velocity=127 time=0\n",
      "note_on channel=9 note=35 velocity=0 time=60\n",
      "note_on channel=9 note=35 velocity=127 time=0\n",
      "note_on channel=9 note=42 velocity=0 time=60\n",
      "note_on channel=9 note=35 velocity=0 time=0\n",
      "note_on channel=9 note=38 velocity=127 time=0\n",
      "note_on channel=9 note=57 velocity=127 time=0\n",
      "note_on channel=9 note=38 velocity=0 time=120\n",
      "note_on channel=9 note=57 velocity=0 time=0\n",
      "note_on channel=9 note=42 velocity=127 time=0\n",
      "note_on channel=9 note=35 velocity=127 time=0\n",
      "note_on channel=9 note=35 velocity=0 time=60\n",
      "note_on channel=9 note=35 velocity=127 time=0\n",
      "note_on channel=9 note=42 velocity=0 time=60\n",
      "note_on channel=9 note=35 velocity=0 time=0\n",
      "note_on channel=9 note=38 velocity=127 time=0\n",
      "note_on channel=9 note=42 velocity=127 time=0\n",
      "note_on channel=9 note=38 velocity=0 time=120\n",
      "note_on channel=9 note=42 velocity=0 time=0\n",
      "note_on channel=9 note=35 velocity=127 time=0\n",
      "note_on channel=9 note=57 velocity=127 time=0\n",
      "note_on channel=9 note=35 velocity=0 time=60\n",
      "note_on channel=9 note=35 velocity=127 time=0\n",
      "note_on channel=9 note=57 velocity=0 time=60\n",
      "note_on channel=9 note=35 velocity=0 time=0\n",
      "note_on channel=9 note=38 velocity=127 time=0\n",
      "note_on channel=9 note=42 velocity=127 time=0\n",
      "note_on channel=9 note=38 velocity=0 time=120\n",
      "note_on channel=9 note=42 velocity=0 time=0\n",
      "note_on channel=9 note=35 velocity=127 time=0\n",
      "note_on channel=9 note=42 velocity=127 time=0\n",
      "note_on channel=9 note=35 velocity=0 time=60\n",
      "note_on channel=9 note=35 velocity=127 time=0\n",
      "note_on channel=9 note=42 velocity=0 time=60\n",
      "note_on channel=9 note=35 velocity=0 time=0\n",
      "note_on channel=9 note=38 velocity=127 time=0\n",
      "note_on channel=9 note=42 velocity=127 time=0\n",
      "note_on channel=9 note=38 velocity=0 time=120\n",
      "note_on channel=9 note=42 velocity=0 time=0\n",
      "note_on channel=9 note=42 velocity=127 time=0\n",
      "note_on channel=9 note=35 velocity=127 time=60\n",
      "note_on channel=9 note=35 velocity=0 time=20\n",
      "note_on channel=9 note=36 velocity=127 time=0\n",
      "note_on channel=9 note=36 velocity=0 time=20\n",
      "note_on channel=9 note=35 velocity=127 time=0\n",
      "note_on channel=9 note=42 velocity=0 time=20\n",
      "note_on channel=9 note=35 velocity=0 time=0\n",
      "note_on channel=9 note=38 velocity=127 time=0\n",
      "note_on channel=9 note=57 velocity=127 time=0\n",
      "note_on channel=9 note=38 velocity=0 time=120\n",
      "note_on channel=9 note=57 velocity=0 time=0\n",
      "note_on channel=9 note=35 velocity=127 time=0\n",
      "note_on channel=9 note=42 velocity=127 time=0\n",
      "note_on channel=9 note=35 velocity=0 time=60\n",
      "note_on channel=9 note=35 velocity=127 time=0\n",
      "note_on channel=9 note=42 velocity=0 time=60\n",
      "note_on channel=9 note=35 velocity=0 time=0\n",
      "note_on channel=9 note=38 velocity=127 time=0\n",
      "note_on channel=9 note=42 velocity=127 time=0\n",
      "note_on channel=9 note=35 velocity=127 time=60\n",
      "note_on channel=9 note=38 velocity=0 time=60\n",
      "note_on channel=9 note=42 velocity=0 time=0\n",
      "note_on channel=9 note=35 velocity=0 time=0\n",
      "note_on channel=9 note=42 velocity=127 time=0\n",
      "note_on channel=9 note=42 velocity=0 time=120\n",
      "note_on channel=9 note=42 velocity=127 time=0\n",
      "note_on channel=9 note=42 velocity=0 time=120\n",
      "note_on channel=9 note=42 velocity=127 time=0\n",
      "note_on channel=9 note=42 velocity=0 time=120\n",
      "note_on channel=9 note=42 velocity=127 time=0\n",
      "note_on channel=9 note=42 velocity=0 time=120\n",
      "note_on channel=9 note=35 velocity=127 time=0\n",
      "note_on channel=9 note=42 velocity=127 time=0\n",
      "note_on channel=9 note=35 velocity=0 time=60\n",
      "note_on channel=9 note=35 velocity=127 time=0\n",
      "note_on channel=9 note=42 velocity=0 time=60\n",
      "note_on channel=9 note=35 velocity=0 time=0\n",
      "note_on channel=9 note=38 velocity=127 time=0\n",
      "note_on channel=9 note=57 velocity=127 time=0\n",
      "note_on channel=9 note=38 velocity=0 time=120\n",
      "note_on channel=9 note=57 velocity=0 time=0\n",
      "note_on channel=9 note=35 velocity=127 time=0\n",
      "note_on channel=9 note=42 velocity=127 time=0\n",
      "note_on channel=9 note=35 velocity=0 time=60\n",
      "note_on channel=9 note=35 velocity=127 time=0\n",
      "note_on channel=9 note=42 velocity=0 time=60\n",
      "note_on channel=9 note=35 velocity=0 time=0\n",
      "note_on channel=9 note=42 velocity=127 time=0\n",
      "note_on channel=9 note=38 velocity=127 time=0\n",
      "note_on channel=9 note=42 velocity=0 time=120\n",
      "note_on channel=9 note=38 velocity=0 time=0\n",
      "note_on channel=9 note=35 velocity=127 time=0\n",
      "note_on channel=9 note=42 velocity=127 time=0\n",
      "note_on channel=9 note=35 velocity=0 time=60\n",
      "note_on channel=9 note=35 velocity=127 time=0\n",
      "note_on channel=9 note=42 velocity=0 time=60\n",
      "note_on channel=9 note=35 velocity=0 time=0\n",
      "note_on channel=9 note=38 velocity=127 time=0\n",
      "note_on channel=9 note=42 velocity=127 time=0\n",
      "note_on channel=9 note=35 velocity=127 time=60\n",
      "note_on channel=9 note=38 velocity=0 time=60\n",
      "note_on channel=9 note=42 velocity=0 time=0\n",
      "note_on channel=9 note=35 velocity=0 time=0\n",
      "note_on channel=9 note=42 velocity=127 time=0\n",
      "note_on channel=9 note=35 velocity=127 time=60\n",
      "note_on channel=9 note=42 velocity=0 time=60\n",
      "note_on channel=9 note=35 velocity=0 time=0\n",
      "note_on channel=9 note=38 velocity=127 time=0\n",
      "note_on channel=9 note=42 velocity=127 time=0\n",
      "note_on channel=9 note=38 velocity=0 time=120\n",
      "note_on channel=9 note=42 velocity=0 time=0\n",
      "note_on channel=9 note=42 velocity=127 time=0\n",
      "note_on channel=9 note=42 velocity=0 time=120\n",
      "note_on channel=9 note=57 velocity=127 time=0\n",
      "note_on channel=9 note=38 velocity=127 time=0\n",
      "note_on channel=9 note=57 velocity=0 time=120\n",
      "note_on channel=9 note=38 velocity=0 time=0\n",
      "note_on channel=9 note=42 velocity=127 time=0\n",
      "note_on channel=9 note=35 velocity=127 time=60\n",
      "note_on channel=9 note=42 velocity=0 time=60\n",
      "note_on channel=9 note=35 velocity=0 time=0\n",
      "note_on channel=9 note=38 velocity=127 time=0\n",
      "note_on channel=9 note=42 velocity=127 time=0\n",
      "note_on channel=9 note=35 velocity=127 time=60\n",
      "note_on channel=9 note=38 velocity=0 time=60\n",
      "note_on channel=9 note=42 velocity=0 time=0\n",
      "note_on channel=9 note=35 velocity=0 time=0\n",
      "note_on channel=9 note=42 velocity=127 time=0\n",
      "note_on channel=9 note=35 velocity=127 time=60\n",
      "note_on channel=9 note=42 velocity=0 time=60\n",
      "note_on channel=9 note=35 velocity=0 time=0\n",
      "note_on channel=9 note=38 velocity=127 time=0\n",
      "note_on channel=9 note=42 velocity=127 time=0\n",
      "note_on channel=9 note=38 velocity=0 time=120\n",
      "note_on channel=9 note=42 velocity=0 time=0\n",
      "note_on channel=9 note=35 velocity=127 time=0\n",
      "note_on channel=9 note=42 velocity=127 time=0\n",
      "note_on channel=9 note=35 velocity=0 time=60\n",
      "note_on channel=9 note=35 velocity=127 time=0\n",
      "note_on channel=9 note=42 velocity=0 time=60\n",
      "note_on channel=9 note=35 velocity=0 time=0\n",
      "note_on channel=9 note=38 velocity=127 time=0\n",
      "note_on channel=9 note=42 velocity=127 time=0\n",
      "note_on channel=9 note=38 velocity=0 time=120\n",
      "note_on channel=9 note=42 velocity=0 time=0\n",
      "note_on channel=9 note=35 velocity=127 time=0\n",
      "note_on channel=9 note=42 velocity=127 time=0\n",
      "note_on channel=9 note=35 velocity=0 time=120\n",
      "note_on channel=9 note=42 velocity=0 time=0\n",
      "note_on channel=9 note=57 velocity=127 time=0\n",
      "note_on channel=9 note=38 velocity=127 time=20\n",
      "note_on channel=9 note=57 velocity=0 time=100\n",
      "note_on channel=9 note=42 velocity=127 time=0\n",
      "note_on channel=9 note=38 velocity=0 time=20\n",
      "note_on channel=9 note=42 velocity=0 time=100\n",
      "note_on channel=9 note=38 velocity=127 time=0\n",
      "note_on channel=9 note=57 velocity=127 time=0\n",
      "note_on channel=9 note=38 velocity=0 time=60\n",
      "note_on channel=9 note=57 velocity=0 time=0\n",
      "note_on channel=9 note=38 velocity=127 time=0\n",
      "note_on channel=9 note=38 velocity=0 time=30\n",
      "note_on channel=9 note=38 velocity=127 time=0\n",
      "note_on channel=9 note=38 velocity=0 time=30\n",
      "note_on channel=9 note=38 velocity=127 time=0\n",
      "note_on channel=9 note=38 velocity=0 time=60\n",
      "note_on channel=9 note=38 velocity=127 time=0\n",
      "note_on channel=9 note=38 velocity=0 time=60\n",
      "note_on channel=9 note=47 velocity=127 time=0\n",
      "note_on channel=9 note=47 velocity=0 time=60\n",
      "note_on channel=9 note=47 velocity=127 time=0\n",
      "note_on channel=9 note=47 velocity=0 time=60\n",
      "note_on channel=9 note=48 velocity=127 time=0\n",
      "note_on channel=9 note=48 velocity=0 time=60\n",
      "note_on channel=9 note=48 velocity=127 time=0\n",
      "note_on channel=9 note=48 velocity=0 time=60\n",
      "note_on channel=9 note=50 velocity=127 time=0\n",
      "note_on channel=9 note=50 velocity=0 time=60\n",
      "note_on channel=9 note=50 velocity=127 time=0\n",
      "note_on channel=9 note=50 velocity=0 time=60\n",
      "note_on channel=9 note=50 velocity=127 time=0\n",
      "note_on channel=9 note=50 velocity=0 time=60\n",
      "note_on channel=9 note=50 velocity=127 time=0\n",
      "note_on channel=9 note=50 velocity=0 time=60\n",
      "note_on channel=9 note=38 velocity=127 time=0\n",
      "note_on channel=9 note=57 velocity=127 time=0\n",
      "note_on channel=9 note=38 velocity=0 time=120\n",
      "note_on channel=9 note=57 velocity=0 time=0\n",
      "note_on channel=9 note=45 velocity=127 time=180\n",
      "note_on channel=9 note=45 velocity=0 time=30\n",
      "note_on channel=9 note=45 velocity=127 time=0\n",
      "note_on channel=9 note=45 velocity=0 time=30\n",
      "note_on channel=9 note=45 velocity=127 time=0\n",
      "note_on channel=9 note=45 velocity=0 time=60\n",
      "note_on channel=9 note=45 velocity=127 time=0\n",
      "note_on channel=9 note=45 velocity=0 time=60\n",
      "note_on channel=9 note=47 velocity=127 time=0\n",
      "note_on channel=9 note=47 velocity=0 time=60\n",
      "note_on channel=9 note=47 velocity=127 time=0\n",
      "note_on channel=9 note=47 velocity=0 time=60\n",
      "note_on channel=9 note=48 velocity=127 time=0\n",
      "note_on channel=9 note=48 velocity=0 time=60\n",
      "note_on channel=9 note=48 velocity=127 time=0\n",
      "note_on channel=9 note=48 velocity=0 time=60\n",
      "note_on channel=9 note=48 velocity=127 time=0\n",
      "note_on channel=9 note=48 velocity=0 time=60\n",
      "note_on channel=9 note=48 velocity=127 time=0\n",
      "note_on channel=9 note=48 velocity=0 time=60\n",
      "note_on channel=9 note=38 velocity=127 time=0\n",
      "note_on channel=9 note=57 velocity=127 time=0\n",
      "note_on channel=9 note=38 velocity=0 time=120\n",
      "note_on channel=9 note=57 velocity=0 time=0\n",
      "note_on channel=9 note=45 velocity=127 time=300\n",
      "note_on channel=9 note=45 velocity=0 time=30\n",
      "note_on channel=9 note=45 velocity=127 time=0\n",
      "note_on channel=9 note=45 velocity=0 time=30\n",
      "note_on channel=9 note=45 velocity=127 time=0\n",
      "note_on channel=9 note=45 velocity=0 time=60\n",
      "note_on channel=9 note=45 velocity=127 time=0\n",
      "note_on channel=9 note=45 velocity=0 time=60\n",
      "note_on channel=9 note=47 velocity=127 time=0\n",
      "note_on channel=9 note=47 velocity=0 time=60\n",
      "note_on channel=9 note=47 velocity=127 time=0\n",
      "note_on channel=9 note=47 velocity=0 time=60\n",
      "note_on channel=9 note=48 velocity=127 time=0\n",
      "note_on channel=9 note=48 velocity=0 time=60\n",
      "note_on channel=9 note=48 velocity=127 time=0\n",
      "note_on channel=9 note=48 velocity=0 time=60\n",
      "note_on channel=9 note=48 velocity=127 time=0\n",
      "note_on channel=9 note=48 velocity=0 time=60\n",
      "note_on channel=9 note=48 velocity=127 time=0\n",
      "note_on channel=9 note=48 velocity=0 time=60\n",
      "note_on channel=9 note=38 velocity=127 time=0\n",
      "note_on channel=9 note=57 velocity=127 time=0\n",
      "note_on channel=9 note=38 velocity=0 time=120\n",
      "note_on channel=9 note=57 velocity=0 time=0\n",
      "note_on channel=9 note=38 velocity=127 time=1320\n",
      "note_on channel=9 note=57 velocity=127 time=0\n",
      "note_on channel=9 note=38 velocity=0 time=180\n",
      "note_on channel=9 note=57 velocity=0 time=0\n",
      "note_on channel=9 note=38 velocity=127 time=0\n",
      "note_on channel=9 note=57 velocity=127 time=0\n",
      "note_on channel=9 note=38 velocity=0 time=60\n",
      "note_on channel=9 note=57 velocity=0 time=0\n",
      "note_on channel=9 note=57 velocity=127 time=120\n",
      "note_on channel=9 note=38 velocity=127 time=0\n",
      "note_on channel=9 note=57 velocity=0 time=120\n",
      "note_on channel=9 note=38 velocity=0 time=0\n",
      "note_on channel=9 note=38 velocity=127 time=0\n",
      "note_on channel=9 note=57 velocity=127 time=0\n",
      "note_on channel=9 note=38 velocity=0 time=120\n",
      "note_on channel=9 note=57 velocity=0 time=0\n",
      "note_on channel=9 note=38 velocity=127 time=1320\n",
      "note_on channel=9 note=57 velocity=127 time=0\n",
      "note_on channel=9 note=38 velocity=0 time=180\n",
      "note_on channel=9 note=57 velocity=0 time=0\n",
      "note_on channel=9 note=38 velocity=127 time=0\n",
      "note_on channel=9 note=57 velocity=127 time=0\n",
      "note_on channel=9 note=38 velocity=0 time=60\n",
      "note_on channel=9 note=57 velocity=0 time=0\n",
      "note_on channel=9 note=38 velocity=127 time=120\n",
      "note_on channel=9 note=57 velocity=127 time=0\n",
      "note_on channel=9 note=38 velocity=0 time=120\n",
      "note_on channel=9 note=57 velocity=0 time=0\n",
      "note_on channel=9 note=38 velocity=127 time=0\n",
      "note_on channel=9 note=57 velocity=127 time=0\n",
      "note_on channel=9 note=38 velocity=0 time=180\n",
      "note_on channel=9 note=57 velocity=0 time=0\n",
      "note_on channel=9 note=38 velocity=127 time=0\n",
      "note_on channel=9 note=57 velocity=127 time=0\n",
      "note_on channel=9 note=38 velocity=0 time=60\n",
      "note_on channel=9 note=57 velocity=0 time=0\n",
      "note_on channel=9 note=38 velocity=127 time=120\n",
      "note_on channel=9 note=57 velocity=127 time=0\n",
      "note_on channel=9 note=38 velocity=0 time=120\n",
      "note_on channel=9 note=57 velocity=0 time=0\n",
      "note_on channel=9 note=42 velocity=127 time=0\n",
      "note_on channel=9 note=35 velocity=127 time=0\n",
      "note_on channel=9 note=42 velocity=0 time=120\n",
      "note_on channel=9 note=35 velocity=0 time=0\n",
      "note_on channel=9 note=38 velocity=127 time=0\n",
      "note_on channel=9 note=42 velocity=127 time=0\n",
      "note_on channel=9 note=38 velocity=0 time=120\n",
      "note_on channel=9 note=42 velocity=0 time=0\n",
      "note_on channel=9 note=35 velocity=127 time=0\n",
      "note_on channel=9 note=42 velocity=127 time=0\n",
      "note_on channel=9 note=35 velocity=0 time=60\n",
      "note_on channel=9 note=35 velocity=127 time=0\n",
      "note_on channel=9 note=42 velocity=0 time=60\n",
      "note_on channel=9 note=35 velocity=0 time=0\n",
      "note_on channel=9 note=38 velocity=127 time=0\n",
      "note_on channel=9 note=42 velocity=127 time=0\n",
      "note_on channel=9 note=38 velocity=0 time=120\n",
      "note_on channel=9 note=42 velocity=0 time=0\n",
      "note_on channel=9 note=35 velocity=127 time=0\n",
      "note_on channel=9 note=42 velocity=127 time=0\n",
      "note_on channel=9 note=35 velocity=0 time=120\n",
      "note_on channel=9 note=42 velocity=0 time=0\n",
      "note_on channel=9 note=38 velocity=127 time=0\n",
      "note_on channel=9 note=42 velocity=127 time=0\n",
      "note_on channel=9 note=38 velocity=0 time=120\n",
      "note_on channel=9 note=42 velocity=0 time=0\n",
      "note_on channel=9 note=42 velocity=127 time=0\n",
      "note_on channel=9 note=35 velocity=127 time=0\n",
      "note_on channel=9 note=35 velocity=0 time=60\n",
      "note_on channel=9 note=35 velocity=127 time=0\n",
      "note_on channel=9 note=42 velocity=0 time=60\n",
      "note_on channel=9 note=35 velocity=0 time=0\n",
      "note_on channel=9 note=38 velocity=127 time=0\n",
      "note_on channel=9 note=42 velocity=127 time=0\n",
      "note_on channel=9 note=38 velocity=0 time=120\n",
      "note_on channel=9 note=42 velocity=0 time=0\n",
      "note_on channel=9 note=35 velocity=127 time=0\n",
      "note_on channel=9 note=42 velocity=127 time=0\n",
      "note_on channel=9 note=35 velocity=0 time=120\n",
      "note_on channel=9 note=42 velocity=0 time=0\n",
      "note_on channel=9 note=38 velocity=127 time=0\n",
      "note_on channel=9 note=42 velocity=127 time=0\n",
      "note_on channel=9 note=38 velocity=0 time=120\n",
      "note_on channel=9 note=42 velocity=0 time=0\n",
      "note_on channel=9 note=35 velocity=127 time=0\n",
      "note_on channel=9 note=42 velocity=127 time=0\n",
      "note_on channel=9 note=35 velocity=0 time=60\n",
      "note_on channel=9 note=35 velocity=127 time=0\n",
      "note_on channel=9 note=42 velocity=0 time=60\n",
      "note_on channel=9 note=35 velocity=0 time=0\n",
      "note_on channel=9 note=42 velocity=127 time=0\n",
      "note_on channel=9 note=38 velocity=127 time=0\n",
      "note_on channel=9 note=42 velocity=0 time=120\n",
      "note_on channel=9 note=38 velocity=0 time=0\n",
      "note_on channel=9 note=35 velocity=127 time=0\n",
      "note_on channel=9 note=42 velocity=127 time=0\n",
      "note_on channel=9 note=35 velocity=0 time=60\n",
      "note_on channel=9 note=42 velocity=0 time=0\n",
      "note_on channel=9 note=57 velocity=127 time=0\n",
      "note_on channel=9 note=38 velocity=127 time=0\n",
      "note_on channel=9 note=57 velocity=0 time=120\n",
      "note_on channel=9 note=38 velocity=0 time=0\n",
      "note_on channel=9 note=57 velocity=127 time=0\n",
      "note_on channel=9 note=38 velocity=127 time=0\n",
      "note_on channel=9 note=57 velocity=0 time=120\n",
      "note_on channel=9 note=38 velocity=0 time=0\n",
      "note_on channel=9 note=35 velocity=127 time=0\n",
      "note_on channel=9 note=42 velocity=127 time=0\n",
      "note_on channel=9 note=35 velocity=0 time=120\n",
      "note_on channel=9 note=42 velocity=0 time=0\n",
      "note_on channel=9 note=38 velocity=127 time=0\n",
      "note_on channel=9 note=42 velocity=127 time=0\n",
      "note_on channel=9 note=38 velocity=0 time=120\n",
      "note_on channel=9 note=42 velocity=0 time=0\n",
      "note_on channel=9 note=42 velocity=127 time=0\n",
      "note_on channel=9 note=35 velocity=127 time=0\n",
      "note_on channel=9 note=35 velocity=0 time=60\n",
      "note_on channel=9 note=35 velocity=127 time=0\n",
      "note_on channel=9 note=42 velocity=0 time=60\n",
      "note_on channel=9 note=35 velocity=0 time=0\n",
      "note_on channel=9 note=38 velocity=127 time=0\n",
      "note_on channel=9 note=42 velocity=127 time=0\n",
      "note_on channel=9 note=38 velocity=0 time=120\n",
      "note_on channel=9 note=42 velocity=0 time=0\n",
      "note_on channel=9 note=35 velocity=127 time=0\n",
      "note_on channel=9 note=42 velocity=127 time=0\n",
      "note_on channel=9 note=35 velocity=0 time=120\n",
      "note_on channel=9 note=42 velocity=0 time=0\n",
      "note_on channel=9 note=38 velocity=127 time=0\n",
      "note_on channel=9 note=42 velocity=127 time=0\n",
      "note_on channel=9 note=38 velocity=0 time=120\n",
      "note_on channel=9 note=42 velocity=0 time=0\n",
      "note_on channel=9 note=35 velocity=127 time=0\n",
      "note_on channel=9 note=42 velocity=127 time=0\n",
      "note_on channel=9 note=35 velocity=0 time=60\n",
      "note_on channel=9 note=35 velocity=127 time=0\n",
      "note_on channel=9 note=42 velocity=0 time=60\n",
      "note_on channel=9 note=35 velocity=0 time=0\n",
      "note_on channel=9 note=38 velocity=127 time=0\n",
      "note_on channel=9 note=42 velocity=127 time=0\n",
      "note_on channel=9 note=38 velocity=0 time=120\n",
      "note_on channel=9 note=42 velocity=0 time=0\n",
      "note_on channel=9 note=35 velocity=127 time=0\n",
      "note_on channel=9 note=42 velocity=127 time=0\n",
      "note_on channel=9 note=35 velocity=0 time=120\n",
      "note_on channel=9 note=42 velocity=0 time=0\n",
      "note_on channel=9 note=42 velocity=127 time=0\n",
      "note_on channel=9 note=38 velocity=127 time=0\n",
      "note_on channel=9 note=42 velocity=0 time=120\n",
      "note_on channel=9 note=38 velocity=0 time=0\n",
      "note_on channel=9 note=35 velocity=127 time=0\n",
      "note_on channel=9 note=42 velocity=127 time=0\n",
      "note_on channel=9 note=35 velocity=0 time=60\n",
      "note_on channel=9 note=35 velocity=127 time=0\n",
      "note_on channel=9 note=42 velocity=0 time=60\n",
      "note_on channel=9 note=35 velocity=0 time=0\n",
      "note_on channel=9 note=38 velocity=127 time=0\n",
      "note_on channel=9 note=42 velocity=127 time=0\n",
      "note_on channel=9 note=38 velocity=0 time=120\n",
      "note_on channel=9 note=42 velocity=0 time=0\n",
      "note_on channel=9 note=35 velocity=127 time=0\n",
      "note_on channel=9 note=42 velocity=127 time=0\n",
      "note_on channel=9 note=35 velocity=0 time=60\n",
      "note_on channel=9 note=42 velocity=0 time=0\n",
      "note_on channel=9 note=57 velocity=127 time=0\n",
      "note_on channel=9 note=38 velocity=127 time=0\n",
      "note_on channel=9 note=57 velocity=0 time=120\n",
      "note_on channel=9 note=38 velocity=0 time=0\n",
      "note_on channel=9 note=57 velocity=127 time=0\n",
      "note_on channel=9 note=38 velocity=127 time=0\n",
      "note_on channel=9 note=57 velocity=0 time=120\n",
      "note_on channel=9 note=38 velocity=0 time=0\n",
      "note_on channel=9 note=42 velocity=127 time=0\n",
      "note_on channel=9 note=35 velocity=127 time=0\n",
      "note_on channel=9 note=42 velocity=0 time=120\n",
      "note_on channel=9 note=35 velocity=0 time=0\n",
      "note_on channel=9 note=38 velocity=127 time=0\n",
      "note_on channel=9 note=42 velocity=127 time=0\n",
      "note_on channel=9 note=38 velocity=0 time=120\n",
      "note_on channel=9 note=42 velocity=0 time=0\n",
      "note_on channel=9 note=35 velocity=127 time=0\n",
      "note_on channel=9 note=42 velocity=127 time=0\n",
      "note_on channel=9 note=35 velocity=0 time=60\n",
      "note_on channel=9 note=35 velocity=127 time=0\n",
      "note_on channel=9 note=42 velocity=0 time=60\n",
      "note_on channel=9 note=35 velocity=0 time=0\n",
      "note_on channel=9 note=38 velocity=127 time=0\n",
      "note_on channel=9 note=42 velocity=127 time=0\n",
      "note_on channel=9 note=38 velocity=0 time=120\n",
      "note_on channel=9 note=42 velocity=0 time=0\n",
      "note_on channel=9 note=35 velocity=127 time=0\n",
      "note_on channel=9 note=42 velocity=127 time=0\n",
      "note_on channel=9 note=35 velocity=0 time=120\n",
      "note_on channel=9 note=42 velocity=0 time=0\n",
      "note_on channel=9 note=38 velocity=127 time=0\n",
      "note_on channel=9 note=42 velocity=127 time=0\n",
      "note_on channel=9 note=38 velocity=0 time=120\n",
      "note_on channel=9 note=42 velocity=0 time=0\n",
      "note_on channel=9 note=42 velocity=127 time=0\n",
      "note_on channel=9 note=35 velocity=127 time=0\n",
      "note_on channel=9 note=35 velocity=0 time=60\n",
      "note_on channel=9 note=35 velocity=127 time=0\n",
      "note_on channel=9 note=42 velocity=0 time=60\n",
      "note_on channel=9 note=35 velocity=0 time=0\n",
      "note_on channel=9 note=38 velocity=127 time=0\n",
      "note_on channel=9 note=42 velocity=127 time=0\n",
      "note_on channel=9 note=38 velocity=0 time=120\n",
      "note_on channel=9 note=42 velocity=0 time=0\n",
      "note_on channel=9 note=35 velocity=127 time=0\n",
      "note_on channel=9 note=42 velocity=127 time=0\n",
      "note_on channel=9 note=35 velocity=0 time=120\n",
      "note_on channel=9 note=42 velocity=0 time=0\n",
      "note_on channel=9 note=38 velocity=127 time=0\n",
      "note_on channel=9 note=42 velocity=127 time=0\n",
      "note_on channel=9 note=38 velocity=0 time=120\n",
      "note_on channel=9 note=42 velocity=0 time=0\n",
      "note_on channel=9 note=35 velocity=127 time=0\n",
      "note_on channel=9 note=42 velocity=127 time=0\n",
      "note_on channel=9 note=35 velocity=0 time=60\n",
      "note_on channel=9 note=35 velocity=127 time=0\n",
      "note_on channel=9 note=42 velocity=0 time=60\n",
      "note_on channel=9 note=35 velocity=0 time=0\n",
      "note_on channel=9 note=42 velocity=127 time=0\n",
      "note_on channel=9 note=38 velocity=127 time=0\n",
      "note_on channel=9 note=42 velocity=0 time=120\n",
      "note_on channel=9 note=38 velocity=0 time=0\n",
      "note_on channel=9 note=35 velocity=127 time=0\n",
      "note_on channel=9 note=42 velocity=127 time=0\n",
      "note_on channel=9 note=35 velocity=0 time=60\n",
      "note_on channel=9 note=42 velocity=0 time=0\n",
      "note_on channel=9 note=57 velocity=127 time=0\n",
      "note_on channel=9 note=38 velocity=127 time=0\n",
      "note_on channel=9 note=57 velocity=0 time=120\n",
      "note_on channel=9 note=38 velocity=0 time=0\n",
      "note_on channel=9 note=57 velocity=127 time=0\n",
      "note_on channel=9 note=38 velocity=127 time=0\n",
      "note_on channel=9 note=57 velocity=0 time=120\n",
      "note_on channel=9 note=38 velocity=0 time=0\n",
      "note_on channel=9 note=35 velocity=127 time=0\n",
      "note_on channel=9 note=42 velocity=127 time=0\n",
      "note_on channel=9 note=35 velocity=0 time=120\n",
      "note_on channel=9 note=42 velocity=0 time=0\n",
      "note_on channel=9 note=38 velocity=127 time=0\n",
      "note_on channel=9 note=42 velocity=127 time=0\n",
      "note_on channel=9 note=38 velocity=0 time=120\n",
      "note_on channel=9 note=42 velocity=0 time=0\n",
      "note_on channel=9 note=35 velocity=127 time=0\n",
      "note_on channel=9 note=42 velocity=127 time=0\n",
      "note_on channel=9 note=35 velocity=0 time=60\n",
      "note_on channel=9 note=35 velocity=127 time=0\n",
      "note_on channel=9 note=42 velocity=0 time=60\n",
      "note_on channel=9 note=35 velocity=0 time=0\n",
      "note_on channel=9 note=42 velocity=127 time=0\n",
      "note_on channel=9 note=38 velocity=127 time=0\n",
      "note_on channel=9 note=42 velocity=0 time=120\n",
      "note_on channel=9 note=38 velocity=0 time=0\n",
      "note_on channel=9 note=35 velocity=127 time=0\n",
      "note_on channel=9 note=42 velocity=127 time=0\n",
      "note_on channel=9 note=35 velocity=0 time=120\n",
      "note_on channel=9 note=42 velocity=0 time=0\n",
      "note_on channel=9 note=38 velocity=127 time=0\n",
      "note_on channel=9 note=42 velocity=127 time=0\n",
      "note_on channel=9 note=38 velocity=0 time=120\n",
      "note_on channel=9 note=42 velocity=0 time=0\n",
      "note_on channel=9 note=35 velocity=127 time=0\n",
      "note_on channel=9 note=42 velocity=127 time=0\n",
      "note_on channel=9 note=35 velocity=0 time=60\n",
      "note_on channel=9 note=35 velocity=127 time=0\n",
      "note_on channel=9 note=42 velocity=0 time=60\n",
      "note_on channel=9 note=35 velocity=0 time=0\n",
      "note_on channel=9 note=38 velocity=127 time=0\n",
      "note_on channel=9 note=42 velocity=127 time=0\n",
      "note_on channel=9 note=38 velocity=0 time=120\n",
      "note_on channel=9 note=42 velocity=0 time=0\n",
      "note_on channel=9 note=35 velocity=127 time=0\n",
      "note_on channel=9 note=42 velocity=127 time=0\n",
      "note_on channel=9 note=35 velocity=0 time=120\n",
      "note_on channel=9 note=42 velocity=0 time=0\n",
      "note_on channel=9 note=42 velocity=127 time=0\n",
      "note_on channel=9 note=38 velocity=127 time=0\n",
      "note_on channel=9 note=42 velocity=0 time=120\n",
      "note_on channel=9 note=38 velocity=0 time=0\n",
      "note_on channel=9 note=35 velocity=127 time=0\n",
      "note_on channel=9 note=42 velocity=127 time=0\n",
      "note_on channel=9 note=35 velocity=0 time=60\n",
      "note_on channel=9 note=35 velocity=127 time=0\n",
      "note_on channel=9 note=42 velocity=0 time=60\n",
      "note_on channel=9 note=35 velocity=0 time=0\n",
      "note_on channel=9 note=38 velocity=127 time=0\n",
      "note_on channel=9 note=42 velocity=127 time=0\n",
      "note_on channel=9 note=38 velocity=0 time=120\n",
      "note_on channel=9 note=42 velocity=0 time=0\n",
      "note_on channel=9 note=35 velocity=127 time=0\n",
      "note_on channel=9 note=42 velocity=127 time=0\n",
      "note_on channel=9 note=35 velocity=0 time=60\n",
      "note_on channel=9 note=42 velocity=0 time=0\n",
      "note_on channel=9 note=57 velocity=127 time=0\n",
      "note_on channel=9 note=38 velocity=127 time=0\n",
      "note_on channel=9 note=57 velocity=0 time=120\n",
      "note_on channel=9 note=38 velocity=0 time=0\n",
      "note_on channel=9 note=57 velocity=127 time=0\n",
      "note_on channel=9 note=38 velocity=127 time=0\n",
      "note_on channel=9 note=57 velocity=0 time=120\n",
      "note_on channel=9 note=38 velocity=0 time=0\n",
      "note_on channel=9 note=42 velocity=127 time=0\n",
      "note_on channel=9 note=35 velocity=127 time=0\n",
      "note_on channel=9 note=42 velocity=0 time=120\n",
      "note_on channel=9 note=35 velocity=0 time=0\n",
      "note_on channel=9 note=38 velocity=127 time=0\n",
      "note_on channel=9 note=42 velocity=127 time=0\n",
      "note_on channel=9 note=38 velocity=0 time=120\n",
      "note_on channel=9 note=42 velocity=0 time=0\n",
      "note_on channel=9 note=35 velocity=127 time=0\n",
      "note_on channel=9 note=42 velocity=127 time=0\n",
      "note_on channel=9 note=35 velocity=0 time=60\n",
      "note_on channel=9 note=35 velocity=127 time=0\n",
      "note_on channel=9 note=42 velocity=0 time=60\n",
      "note_on channel=9 note=35 velocity=0 time=0\n",
      "note_on channel=9 note=38 velocity=127 time=0\n",
      "note_on channel=9 note=42 velocity=127 time=0\n",
      "note_on channel=9 note=38 velocity=0 time=120\n",
      "note_on channel=9 note=42 velocity=0 time=0\n",
      "note_on channel=9 note=38 velocity=127 time=0\n",
      "note_on channel=9 note=38 velocity=0 time=60\n",
      "note_on channel=9 note=38 velocity=127 time=0\n",
      "note_on channel=9 note=38 velocity=0 time=30\n",
      "note_on channel=9 note=38 velocity=127 time=0\n",
      "note_on channel=9 note=38 velocity=0 time=30\n",
      "note_on channel=9 note=38 velocity=127 time=0\n",
      "note_on channel=9 note=38 velocity=0 time=60\n",
      "note_on channel=9 note=38 velocity=127 time=0\n",
      "note_on channel=9 note=38 velocity=0 time=60\n",
      "note_on channel=9 note=35 velocity=127 time=0\n",
      "note_on channel=9 note=57 velocity=127 time=0\n",
      "note_on channel=9 note=35 velocity=0 time=120\n",
      "note_on channel=9 note=57 velocity=0 time=0\n",
      "note_on channel=9 note=35 velocity=127 time=0\n",
      "note_on channel=9 note=57 velocity=127 time=0\n",
      "note_on channel=9 note=35 velocity=0 time=120\n",
      "note_on channel=9 note=57 velocity=0 time=0\n",
      "note_on channel=9 note=35 velocity=127 time=0\n",
      "note_on channel=9 note=42 velocity=127 time=0\n",
      "note_on channel=9 note=35 velocity=0 time=120\n",
      "note_on channel=9 note=42 velocity=0 time=0\n",
      "note_on channel=9 note=38 velocity=127 time=0\n",
      "note_on channel=9 note=42 velocity=127 time=0\n",
      "note_on channel=9 note=38 velocity=0 time=120\n",
      "note_on channel=9 note=42 velocity=0 time=0\n",
      "note_on channel=9 note=35 velocity=127 time=0\n",
      "note_on channel=9 note=42 velocity=127 time=0\n",
      "note_on channel=9 note=35 velocity=0 time=60\n",
      "note_on channel=9 note=35 velocity=127 time=0\n",
      "note_on channel=9 note=42 velocity=0 time=60\n",
      "note_on channel=9 note=35 velocity=0 time=0\n",
      "note_on channel=9 note=38 velocity=127 time=0\n",
      "note_on channel=9 note=42 velocity=127 time=0\n",
      "note_on channel=9 note=38 velocity=0 time=120\n",
      "note_on channel=9 note=42 velocity=0 time=0\n",
      "note_on channel=9 note=42 velocity=127 time=0\n",
      "note_on channel=9 note=35 velocity=127 time=0\n",
      "note_on channel=9 note=42 velocity=0 time=60\n",
      "note_on channel=9 note=35 velocity=0 time=0\n",
      "note_on channel=9 note=57 velocity=127 time=0\n",
      "note_on channel=9 note=38 velocity=127 time=0\n",
      "note_on channel=9 note=57 velocity=0 time=120\n",
      "note_on channel=9 note=38 velocity=0 time=0\n",
      "note_on channel=9 note=57 velocity=127 time=0\n",
      "note_on channel=9 note=38 velocity=127 time=0\n",
      "note_on channel=9 note=57 velocity=0 time=120\n",
      "note_on channel=9 note=38 velocity=0 time=0\n",
      "note_on channel=9 note=35 velocity=127 time=0\n",
      "note_on channel=9 note=42 velocity=127 time=0\n",
      "note_on channel=9 note=35 velocity=0 time=120\n",
      "note_on channel=9 note=42 velocity=0 time=0\n",
      "note_on channel=9 note=38 velocity=127 time=0\n",
      "note_on channel=9 note=42 velocity=127 time=0\n",
      "note_on channel=9 note=38 velocity=0 time=120\n",
      "note_on channel=9 note=42 velocity=0 time=0\n",
      "note_on channel=9 note=35 velocity=127 time=0\n",
      "note_on channel=9 note=42 velocity=127 time=0\n",
      "note_on channel=9 note=35 velocity=0 time=60\n",
      "note_on channel=9 note=35 velocity=127 time=0\n",
      "note_on channel=9 note=42 velocity=0 time=60\n",
      "note_on channel=9 note=35 velocity=0 time=0\n",
      "note_on channel=9 note=42 velocity=127 time=0\n",
      "note_on channel=9 note=38 velocity=127 time=0\n",
      "note_on channel=9 note=42 velocity=0 time=120\n",
      "note_on channel=9 note=38 velocity=0 time=0\n",
      "note_on channel=9 note=35 velocity=127 time=0\n",
      "note_on channel=9 note=42 velocity=127 time=0\n",
      "note_on channel=9 note=35 velocity=0 time=120\n",
      "note_on channel=9 note=42 velocity=0 time=0\n",
      "note_on channel=9 note=38 velocity=127 time=0\n",
      "note_on channel=9 note=42 velocity=127 time=0\n",
      "note_on channel=9 note=38 velocity=0 time=120\n",
      "note_on channel=9 note=42 velocity=0 time=0\n",
      "note_on channel=9 note=35 velocity=127 time=0\n",
      "note_on channel=9 note=42 velocity=127 time=0\n",
      "note_on channel=9 note=35 velocity=0 time=60\n",
      "note_on channel=9 note=35 velocity=127 time=0\n",
      "note_on channel=9 note=42 velocity=0 time=60\n",
      "note_on channel=9 note=35 velocity=0 time=0\n",
      "note_on channel=9 note=38 velocity=127 time=0\n",
      "note_on channel=9 note=42 velocity=127 time=0\n",
      "note_on channel=9 note=38 velocity=0 time=120\n",
      "note_on channel=9 note=42 velocity=0 time=0\n",
      "note_on channel=9 note=35 velocity=127 time=0\n",
      "note_on channel=9 note=42 velocity=127 time=0\n",
      "note_on channel=9 note=35 velocity=0 time=120\n",
      "note_on channel=9 note=42 velocity=0 time=0\n",
      "note_on channel=9 note=42 velocity=127 time=0\n",
      "note_on channel=9 note=38 velocity=127 time=0\n",
      "note_on channel=9 note=42 velocity=0 time=120\n",
      "note_on channel=9 note=38 velocity=0 time=0\n",
      "note_on channel=9 note=35 velocity=127 time=0\n",
      "note_on channel=9 note=42 velocity=127 time=0\n",
      "note_on channel=9 note=35 velocity=0 time=60\n",
      "note_on channel=9 note=35 velocity=127 time=0\n",
      "note_on channel=9 note=42 velocity=0 time=60\n",
      "note_on channel=9 note=35 velocity=0 time=0\n",
      "note_on channel=9 note=38 velocity=127 time=0\n",
      "note_on channel=9 note=42 velocity=127 time=0\n",
      "note_on channel=9 note=38 velocity=0 time=120\n",
      "note_on channel=9 note=42 velocity=0 time=0\n",
      "note_on channel=9 note=35 velocity=127 time=0\n",
      "note_on channel=9 note=42 velocity=127 time=0\n",
      "note_on channel=9 note=35 velocity=0 time=60\n",
      "note_on channel=9 note=42 velocity=0 time=0\n",
      "note_on channel=9 note=57 velocity=127 time=0\n",
      "note_on channel=9 note=38 velocity=127 time=0\n",
      "note_on channel=9 note=57 velocity=0 time=120\n",
      "note_on channel=9 note=38 velocity=0 time=0\n",
      "note_on channel=9 note=57 velocity=127 time=0\n",
      "note_on channel=9 note=38 velocity=127 time=0\n",
      "note_on channel=9 note=57 velocity=0 time=120\n",
      "note_on channel=9 note=38 velocity=0 time=0\n",
      "note_on channel=9 note=38 velocity=127 time=0\n",
      "note_on channel=9 note=38 velocity=0 time=60\n",
      "note_on channel=9 note=38 velocity=127 time=0\n",
      "note_on channel=9 note=38 velocity=0 time=60\n",
      "note_on channel=9 note=38 velocity=127 time=0\n",
      "note_on channel=9 note=38 velocity=0 time=60\n",
      "note_on channel=9 note=38 velocity=127 time=0\n",
      "note_on channel=9 note=38 velocity=0 time=60\n",
      "note_on channel=9 note=38 velocity=127 time=0\n",
      "note_on channel=9 note=38 velocity=0 time=60\n",
      "note_on channel=9 note=38 velocity=127 time=0\n",
      "note_on channel=9 note=38 velocity=0 time=60\n",
      "note_on channel=9 note=38 velocity=127 time=0\n",
      "note_on channel=9 note=38 velocity=0 time=60\n",
      "note_on channel=9 note=38 velocity=127 time=0\n",
      "note_on channel=9 note=38 velocity=0 time=60\n",
      "note_on channel=9 note=57 velocity=127 time=0\n",
      "note_on channel=9 note=35 velocity=127 time=0\n",
      "note_on channel=9 note=57 velocity=0 time=120\n",
      "note_on channel=9 note=35 velocity=0 time=0\n",
      "note_on channel=9 note=42 velocity=127 time=0\n",
      "note_on channel=9 note=35 velocity=127 time=60\n",
      "note_on channel=9 note=35 velocity=0 time=20\n",
      "note_on channel=9 note=36 velocity=127 time=0\n",
      "note_on channel=9 note=36 velocity=0 time=20\n",
      "note_on channel=9 note=35 velocity=127 time=0\n",
      "note_on channel=9 note=42 velocity=0 time=20\n",
      "note_on channel=9 note=35 velocity=0 time=0\n",
      "note_on channel=9 note=38 velocity=127 time=0\n",
      "note_on channel=9 note=57 velocity=127 time=0\n",
      "note_on channel=9 note=38 velocity=0 time=120\n",
      "note_on channel=9 note=57 velocity=0 time=0\n",
      "note_on channel=9 note=57 velocity=127 time=0\n",
      "note_on channel=9 note=38 velocity=127 time=0\n",
      "note_on channel=9 note=57 velocity=0 time=120\n",
      "note_on channel=9 note=38 velocity=0 time=0\n",
      "note_on channel=9 note=35 velocity=127 time=0\n",
      "note_on channel=9 note=42 velocity=127 time=0\n",
      "note_on channel=9 note=35 velocity=0 time=120\n",
      "note_on channel=9 note=42 velocity=0 time=0\n",
      "note_on channel=9 note=42 velocity=127 time=0\n",
      "note_on channel=9 note=35 velocity=127 time=60\n",
      "note_on channel=9 note=35 velocity=0 time=20\n",
      "note_on channel=9 note=36 velocity=127 time=0\n",
      "note_on channel=9 note=36 velocity=0 time=20\n",
      "note_on channel=9 note=35 velocity=127 time=0\n",
      "note_on channel=9 note=42 velocity=0 time=20\n",
      "note_on channel=9 note=35 velocity=0 time=0\n",
      "note_on channel=9 note=38 velocity=127 time=0\n",
      "note_on channel=9 note=42 velocity=127 time=0\n",
      "note_on channel=9 note=38 velocity=0 time=120\n",
      "note_on channel=9 note=42 velocity=0 time=0\n",
      "note_on channel=9 note=38 velocity=127 time=0\n",
      "note_on channel=9 note=42 velocity=127 time=0\n",
      "note_on channel=9 note=38 velocity=0 time=120\n",
      "note_on channel=9 note=42 velocity=0 time=0\n",
      "note_on channel=9 note=42 velocity=127 time=0\n",
      "note_on channel=9 note=35 velocity=127 time=0\n",
      "note_on channel=9 note=42 velocity=0 time=120\n",
      "note_on channel=9 note=35 velocity=0 time=0\n",
      "note_on channel=9 note=42 velocity=127 time=0\n",
      "note_on channel=9 note=35 velocity=127 time=60\n",
      "note_on channel=9 note=35 velocity=0 time=20\n",
      "note_on channel=9 note=36 velocity=127 time=0\n",
      "note_on channel=9 note=36 velocity=0 time=20\n",
      "note_on channel=9 note=35 velocity=127 time=0\n",
      "note_on channel=9 note=42 velocity=0 time=20\n",
      "note_on channel=9 note=35 velocity=0 time=0\n",
      "note_on channel=9 note=57 velocity=127 time=0\n",
      "note_on channel=9 note=38 velocity=127 time=0\n",
      "note_on channel=9 note=57 velocity=0 time=120\n",
      "note_on channel=9 note=38 velocity=0 time=0\n",
      "note_on channel=9 note=57 velocity=127 time=0\n",
      "note_on channel=9 note=38 velocity=127 time=0\n",
      "note_on channel=9 note=57 velocity=0 time=120\n",
      "note_on channel=9 note=38 velocity=0 time=0\n",
      "note_on channel=9 note=45 velocity=127 time=0\n",
      "note_on channel=9 note=45 velocity=0 time=30\n",
      "note_on channel=9 note=45 velocity=127 time=0\n",
      "note_on channel=9 note=45 velocity=0 time=30\n",
      "note_on channel=9 note=45 velocity=127 time=0\n",
      "note_on channel=9 note=45 velocity=0 time=30\n",
      "note_on channel=9 note=45 velocity=127 time=0\n",
      "note_on channel=9 note=45 velocity=0 time=30\n",
      "note_on channel=9 note=47 velocity=127 time=0\n",
      "note_on channel=9 note=47 velocity=0 time=30\n",
      "note_on channel=9 note=47 velocity=127 time=0\n",
      "note_on channel=9 note=47 velocity=0 time=30\n",
      "note_on channel=9 note=47 velocity=127 time=0\n",
      "note_on channel=9 note=47 velocity=0 time=30\n",
      "note_on channel=9 note=47 velocity=127 time=0\n",
      "note_on channel=9 note=47 velocity=0 time=30\n",
      "note_on channel=9 note=48 velocity=127 time=0\n",
      "note_on channel=9 note=48 velocity=0 time=30\n",
      "note_on channel=9 note=48 velocity=127 time=0\n",
      "note_on channel=9 note=48 velocity=0 time=30\n",
      "note_on channel=9 note=48 velocity=127 time=0\n",
      "note_on channel=9 note=48 velocity=0 time=30\n",
      "note_on channel=9 note=48 velocity=127 time=0\n",
      "note_on channel=9 note=48 velocity=0 time=30\n",
      "note_on channel=9 note=50 velocity=127 time=0\n",
      "note_on channel=9 note=50 velocity=0 time=30\n",
      "note_on channel=9 note=50 velocity=127 time=0\n",
      "note_on channel=9 note=50 velocity=0 time=30\n",
      "note_on channel=9 note=50 velocity=127 time=0\n",
      "note_on channel=9 note=50 velocity=0 time=30\n",
      "note_on channel=9 note=50 velocity=127 time=0\n",
      "note_on channel=9 note=50 velocity=0 time=30\n",
      "note_on channel=9 note=35 velocity=127 time=0\n",
      "note_on channel=9 note=43 velocity=127 time=0\n",
      "note_on channel=9 note=35 velocity=0 time=120\n",
      "note_on channel=9 note=43 velocity=0 time=0\n",
      "note_on channel=9 note=35 velocity=127 time=0\n",
      "note_on channel=9 note=35 velocity=0 time=60\n",
      "note_on channel=9 note=35 velocity=127 time=0\n",
      "note_on channel=9 note=35 velocity=0 time=60\n",
      "note_on channel=9 note=57 velocity=127 time=0\n",
      "note_on channel=9 note=38 velocity=127 time=0\n",
      "note_on channel=9 note=57 velocity=0 time=120\n",
      "note_on channel=9 note=38 velocity=0 time=0\n",
      "note_on channel=9 note=57 velocity=127 time=0\n",
      "note_on channel=9 note=38 velocity=127 time=0\n",
      "note_on channel=9 note=57 velocity=0 time=120\n",
      "note_on channel=9 note=38 velocity=0 time=0\n",
      "note_on channel=9 note=35 velocity=127 time=0\n",
      "note_on channel=9 note=42 velocity=127 time=0\n",
      "note_on channel=9 note=35 velocity=0 time=120\n",
      "note_on channel=9 note=42 velocity=0 time=0\n",
      "note_on channel=9 note=42 velocity=127 time=0\n",
      "note_on channel=9 note=35 velocity=127 time=60\n",
      "note_on channel=9 note=35 velocity=0 time=20\n",
      "note_on channel=9 note=36 velocity=127 time=0\n",
      "note_on channel=9 note=36 velocity=0 time=20\n",
      "note_on channel=9 note=35 velocity=127 time=0\n",
      "note_on channel=9 note=42 velocity=0 time=20\n",
      "note_on channel=9 note=35 velocity=0 time=0\n",
      "note_on channel=9 note=42 velocity=127 time=0\n",
      "note_on channel=9 note=38 velocity=127 time=0\n",
      "note_on channel=9 note=42 velocity=0 time=120\n",
      "note_on channel=9 note=38 velocity=0 time=0\n",
      "note_on channel=9 note=38 velocity=127 time=0\n",
      "note_on channel=9 note=42 velocity=127 time=0\n",
      "note_on channel=9 note=38 velocity=0 time=120\n",
      "note_on channel=9 note=42 velocity=0 time=0\n",
      "note_on channel=9 note=42 velocity=127 time=0\n",
      "note_on channel=9 note=35 velocity=127 time=0\n",
      "note_on channel=9 note=42 velocity=0 time=120\n",
      "note_on channel=9 note=35 velocity=0 time=0\n",
      "note_on channel=9 note=42 velocity=127 time=0\n",
      "note_on channel=9 note=35 velocity=127 time=60\n",
      "note_on channel=9 note=35 velocity=0 time=20\n",
      "note_on channel=9 note=36 velocity=127 time=0\n",
      "note_on channel=9 note=36 velocity=0 time=20\n",
      "note_on channel=9 note=35 velocity=127 time=0\n",
      "note_on channel=9 note=42 velocity=0 time=20\n",
      "note_on channel=9 note=35 velocity=0 time=0\n",
      "note_on channel=9 note=57 velocity=127 time=0\n",
      "note_on channel=9 note=38 velocity=127 time=0\n",
      "note_on channel=9 note=57 velocity=0 time=120\n",
      "note_on channel=9 note=38 velocity=0 time=0\n",
      "note_on channel=9 note=57 velocity=127 time=0\n",
      "note_on channel=9 note=38 velocity=127 time=0\n",
      "note_on channel=9 note=57 velocity=0 time=120\n",
      "note_on channel=9 note=38 velocity=0 time=0\n",
      "note_on channel=9 note=45 velocity=127 time=0\n",
      "note_on channel=9 note=45 velocity=0 time=30\n",
      "note_on channel=9 note=45 velocity=127 time=0\n",
      "note_on channel=9 note=45 velocity=0 time=30\n",
      "note_on channel=9 note=45 velocity=127 time=0\n",
      "note_on channel=9 note=45 velocity=0 time=30\n",
      "note_on channel=9 note=45 velocity=127 time=0\n",
      "note_on channel=9 note=45 velocity=0 time=30\n",
      "note_on channel=9 note=47 velocity=127 time=0\n",
      "note_on channel=9 note=47 velocity=0 time=60\n",
      "note_on channel=9 note=47 velocity=127 time=0\n",
      "note_on channel=9 note=47 velocity=0 time=60\n",
      "note_on channel=9 note=48 velocity=127 time=0\n",
      "note_on channel=9 note=48 velocity=0 time=60\n",
      "note_on channel=9 note=48 velocity=127 time=0\n",
      "note_on channel=9 note=48 velocity=0 time=60\n",
      "note_on channel=9 note=50 velocity=127 time=0\n",
      "note_on channel=9 note=50 velocity=0 time=60\n",
      "note_on channel=9 note=50 velocity=127 time=0\n",
      "note_on channel=9 note=50 velocity=0 time=60\n",
      "note_on channel=9 note=35 velocity=127 time=0\n",
      "note_on channel=9 note=43 velocity=127 time=0\n",
      "note_on channel=9 note=35 velocity=0 time=120\n",
      "note_on channel=9 note=43 velocity=0 time=0\n",
      "note_on channel=9 note=35 velocity=127 time=0\n",
      "note_on channel=9 note=35 velocity=0 time=60\n",
      "note_on channel=9 note=35 velocity=127 time=0\n",
      "note_on channel=9 note=35 velocity=0 time=60\n",
      "note_on channel=9 note=57 velocity=127 time=0\n",
      "note_on channel=9 note=38 velocity=127 time=0\n",
      "note_on channel=9 note=57 velocity=0 time=120\n",
      "note_on channel=9 note=38 velocity=0 time=0\n",
      "note_on channel=9 note=57 velocity=127 time=0\n",
      "note_on channel=9 note=38 velocity=127 time=0\n",
      "note_on channel=9 note=57 velocity=0 time=120\n",
      "note_on channel=9 note=38 velocity=0 time=0\n",
      "note_on channel=9 note=35 velocity=127 time=0\n",
      "note_on channel=9 note=42 velocity=127 time=0\n",
      "note_on channel=9 note=35 velocity=0 time=120\n",
      "note_on channel=9 note=42 velocity=0 time=0\n",
      "note_on channel=9 note=42 velocity=127 time=0\n",
      "note_on channel=9 note=35 velocity=127 time=60\n",
      "note_on channel=9 note=35 velocity=0 time=20\n",
      "note_on channel=9 note=36 velocity=127 time=0\n",
      "note_on channel=9 note=36 velocity=0 time=20\n",
      "note_on channel=9 note=35 velocity=127 time=0\n",
      "note_on channel=9 note=42 velocity=0 time=20\n",
      "note_on channel=9 note=35 velocity=0 time=0\n",
      "note_on channel=9 note=42 velocity=127 time=0\n",
      "note_on channel=9 note=38 velocity=127 time=0\n",
      "note_on channel=9 note=42 velocity=0 time=120\n",
      "note_on channel=9 note=38 velocity=0 time=0\n",
      "note_on channel=9 note=38 velocity=127 time=0\n",
      "note_on channel=9 note=42 velocity=127 time=0\n",
      "note_on channel=9 note=38 velocity=0 time=120\n",
      "note_on channel=9 note=42 velocity=0 time=0\n",
      "note_on channel=9 note=42 velocity=127 time=0\n",
      "note_on channel=9 note=35 velocity=127 time=0\n",
      "note_on channel=9 note=42 velocity=0 time=120\n",
      "note_on channel=9 note=35 velocity=0 time=0\n",
      "note_on channel=9 note=42 velocity=127 time=0\n",
      "note_on channel=9 note=35 velocity=127 time=60\n",
      "note_on channel=9 note=35 velocity=0 time=20\n",
      "note_on channel=9 note=36 velocity=127 time=0\n",
      "note_on channel=9 note=36 velocity=0 time=20\n",
      "note_on channel=9 note=35 velocity=127 time=0\n",
      "note_on channel=9 note=42 velocity=0 time=20\n",
      "note_on channel=9 note=35 velocity=0 time=0\n",
      "note_on channel=9 note=57 velocity=127 time=0\n",
      "note_on channel=9 note=38 velocity=127 time=0\n",
      "note_on channel=9 note=57 velocity=0 time=120\n",
      "note_on channel=9 note=38 velocity=0 time=0\n",
      "note_on channel=9 note=57 velocity=127 time=0\n",
      "note_on channel=9 note=38 velocity=127 time=0\n",
      "note_on channel=9 note=57 velocity=0 time=120\n",
      "note_on channel=9 note=38 velocity=0 time=0\n",
      "note_on channel=9 note=45 velocity=127 time=0\n",
      "note_on channel=9 note=45 velocity=0 time=30\n",
      "note_on channel=9 note=45 velocity=127 time=0\n",
      "note_on channel=9 note=45 velocity=0 time=30\n",
      "note_on channel=9 note=45 velocity=127 time=0\n",
      "note_on channel=9 note=45 velocity=0 time=30\n",
      "note_on channel=9 note=45 velocity=127 time=0\n",
      "note_on channel=9 note=45 velocity=0 time=30\n",
      "note_on channel=9 note=47 velocity=127 time=0\n",
      "note_on channel=9 note=47 velocity=0 time=30\n",
      "note_on channel=9 note=47 velocity=127 time=0\n",
      "note_on channel=9 note=47 velocity=0 time=30\n",
      "note_on channel=9 note=47 velocity=127 time=0\n",
      "note_on channel=9 note=47 velocity=0 time=30\n",
      "note_on channel=9 note=47 velocity=127 time=0\n",
      "note_on channel=9 note=47 velocity=0 time=30\n",
      "note_on channel=9 note=48 velocity=127 time=0\n",
      "note_on channel=9 note=48 velocity=0 time=30\n",
      "note_on channel=9 note=48 velocity=127 time=0\n",
      "note_on channel=9 note=48 velocity=0 time=30\n",
      "note_on channel=9 note=48 velocity=127 time=0\n",
      "note_on channel=9 note=48 velocity=0 time=30\n",
      "note_on channel=9 note=48 velocity=127 time=0\n",
      "note_on channel=9 note=48 velocity=0 time=30\n",
      "note_on channel=9 note=50 velocity=127 time=0\n",
      "note_on channel=9 note=50 velocity=0 time=30\n",
      "note_on channel=9 note=50 velocity=127 time=0\n",
      "note_on channel=9 note=50 velocity=0 time=30\n",
      "note_on channel=9 note=50 velocity=127 time=0\n",
      "note_on channel=9 note=50 velocity=0 time=30\n",
      "note_on channel=9 note=50 velocity=127 time=0\n",
      "note_on channel=9 note=50 velocity=0 time=30\n",
      "note_on channel=9 note=35 velocity=127 time=0\n",
      "note_on channel=9 note=43 velocity=127 time=0\n",
      "note_on channel=9 note=35 velocity=0 time=120\n",
      "note_on channel=9 note=43 velocity=0 time=0\n",
      "note_on channel=9 note=35 velocity=127 time=0\n",
      "note_on channel=9 note=35 velocity=0 time=60\n",
      "note_on channel=9 note=35 velocity=127 time=0\n",
      "note_on channel=9 note=35 velocity=0 time=60\n",
      "note_on channel=9 note=57 velocity=127 time=0\n",
      "note_on channel=9 note=38 velocity=127 time=0\n",
      "note_on channel=9 note=57 velocity=0 time=120\n",
      "note_on channel=9 note=38 velocity=0 time=0\n",
      "note_on channel=9 note=57 velocity=127 time=0\n",
      "note_on channel=9 note=38 velocity=127 time=0\n",
      "note_on channel=9 note=57 velocity=0 time=120\n",
      "note_on channel=9 note=38 velocity=0 time=0\n",
      "note_on channel=9 note=35 velocity=127 time=0\n",
      "note_on channel=9 note=42 velocity=127 time=0\n",
      "note_on channel=9 note=35 velocity=0 time=120\n",
      "note_on channel=9 note=42 velocity=0 time=0\n",
      "note_on channel=9 note=42 velocity=127 time=0\n",
      "note_on channel=9 note=35 velocity=127 time=60\n",
      "note_on channel=9 note=35 velocity=0 time=20\n",
      "note_on channel=9 note=36 velocity=127 time=0\n",
      "note_on channel=9 note=36 velocity=0 time=20\n",
      "note_on channel=9 note=35 velocity=127 time=0\n",
      "note_on channel=9 note=42 velocity=0 time=20\n",
      "note_on channel=9 note=35 velocity=0 time=0\n",
      "note_on channel=9 note=38 velocity=127 time=0\n",
      "note_on channel=9 note=42 velocity=127 time=0\n",
      "note_on channel=9 note=38 velocity=0 time=120\n",
      "note_on channel=9 note=42 velocity=0 time=0\n",
      "note_on channel=9 note=38 velocity=127 time=0\n",
      "note_on channel=9 note=42 velocity=127 time=0\n",
      "note_on channel=9 note=38 velocity=0 time=120\n",
      "note_on channel=9 note=42 velocity=0 time=0\n",
      "note_on channel=9 note=42 velocity=127 time=0\n",
      "note_on channel=9 note=35 velocity=127 time=0\n",
      "note_on channel=9 note=42 velocity=0 time=120\n",
      "note_on channel=9 note=35 velocity=0 time=0\n",
      "note_on channel=9 note=42 velocity=127 time=0\n",
      "note_on channel=9 note=35 velocity=127 time=60\n",
      "note_on channel=9 note=35 velocity=0 time=20\n",
      "note_on channel=9 note=36 velocity=127 time=0\n",
      "note_on channel=9 note=36 velocity=0 time=20\n",
      "note_on channel=9 note=35 velocity=127 time=0\n",
      "note_on channel=9 note=42 velocity=0 time=20\n",
      "note_on channel=9 note=35 velocity=0 time=0\n",
      "note_on channel=9 note=38 velocity=127 time=0\n",
      "note_on channel=9 note=57 velocity=127 time=0\n",
      "note_on channel=9 note=38 velocity=0 time=120\n",
      "note_on channel=9 note=57 velocity=0 time=0\n",
      "note_on channel=9 note=38 velocity=127 time=0\n",
      "note_on channel=9 note=57 velocity=127 time=0\n",
      "note_on channel=9 note=38 velocity=0 time=120\n",
      "note_on channel=9 note=57 velocity=0 time=0\n",
      "note_on channel=9 note=38 velocity=127 time=0\n",
      "note_on channel=9 note=38 velocity=0 time=30\n",
      "note_on channel=9 note=38 velocity=127 time=0\n",
      "note_on channel=9 note=38 velocity=0 time=30\n",
      "note_on channel=9 note=38 velocity=127 time=0\n",
      "note_on channel=9 note=38 velocity=0 time=30\n",
      "note_on channel=9 note=38 velocity=127 time=0\n",
      "note_on channel=9 note=38 velocity=0 time=30\n",
      "note_on channel=9 note=38 velocity=127 time=0\n",
      "note_on channel=9 note=38 velocity=0 time=120\n",
      "note_on channel=9 note=45 velocity=127 time=0\n",
      "note_on channel=9 note=45 velocity=0 time=30\n",
      "note_on channel=9 note=45 velocity=127 time=0\n",
      "note_on channel=9 note=45 velocity=0 time=30\n",
      "note_on channel=9 note=45 velocity=127 time=0\n",
      "note_on channel=9 note=45 velocity=0 time=30\n",
      "note_on channel=9 note=45 velocity=127 time=0\n",
      "note_on channel=9 note=45 velocity=0 time=30\n",
      "note_on channel=9 note=45 velocity=127 time=0\n",
      "note_on channel=9 note=45 velocity=0 time=120\n",
      "note_on channel=9 note=57 velocity=127 time=0\n",
      "note_on channel=9 note=35 velocity=127 time=0\n",
      "note_on channel=9 note=57 velocity=0 time=120\n",
      "note_on channel=9 note=35 velocity=0 time=0\n",
      "note_on channel=9 note=35 velocity=127 time=0\n",
      "note_on channel=9 note=57 velocity=127 time=0\n",
      "note_on channel=9 note=35 velocity=0 time=120\n",
      "note_on channel=9 note=57 velocity=0 time=0\n",
      "note_on channel=9 note=35 velocity=127 time=240\n",
      "note_on channel=9 note=57 velocity=127 time=0\n",
      "note_on channel=9 note=35 velocity=0 time=120\n",
      "note_on channel=9 note=57 velocity=0 time=0\n",
      "note_on channel=9 note=35 velocity=127 time=0\n",
      "note_on channel=9 note=57 velocity=127 time=0\n",
      "note_on channel=9 note=35 velocity=0 time=120\n",
      "note_on channel=9 note=57 velocity=0 time=0\n",
      "note_on channel=9 note=35 velocity=127 time=240\n",
      "note_on channel=9 note=57 velocity=127 time=0\n",
      "note_on channel=9 note=35 velocity=0 time=120\n",
      "note_on channel=9 note=57 velocity=0 time=0\n",
      "note_on channel=9 note=38 velocity=127 time=0\n",
      "note_on channel=9 note=42 velocity=127 time=0\n",
      "note_on channel=9 note=38 velocity=0 time=120\n",
      "note_on channel=9 note=42 velocity=0 time=0\n",
      "note_on channel=9 note=35 velocity=127 time=0\n",
      "note_on channel=9 note=42 velocity=127 time=0\n",
      "note_on channel=9 note=35 velocity=0 time=60\n",
      "note_on channel=9 note=35 velocity=127 time=0\n",
      "note_on channel=9 note=42 velocity=0 time=60\n",
      "note_on channel=9 note=35 velocity=0 time=0\n",
      "note_on channel=9 note=38 velocity=127 time=0\n",
      "note_on channel=9 note=42 velocity=127 time=0\n",
      "note_on channel=9 note=38 velocity=0 time=120\n",
      "note_on channel=9 note=42 velocity=0 time=0\n",
      "note_on channel=9 note=35 velocity=127 time=0\n",
      "note_on channel=9 note=57 velocity=127 time=0\n",
      "note_on channel=9 note=35 velocity=0 time=120\n",
      "note_on channel=9 note=57 velocity=0 time=0\n",
      "note_on channel=9 note=38 velocity=127 time=0\n",
      "note_on channel=9 note=42 velocity=127 time=0\n",
      "note_on channel=9 note=38 velocity=0 time=120\n",
      "note_on channel=9 note=42 velocity=0 time=0\n",
      "note_on channel=9 note=35 velocity=127 time=0\n",
      "note_on channel=9 note=42 velocity=127 time=0\n",
      "note_on channel=9 note=35 velocity=0 time=120\n",
      "note_on channel=9 note=42 velocity=0 time=0\n",
      "note_on channel=9 note=38 velocity=127 time=0\n",
      "note_on channel=9 note=42 velocity=127 time=0\n",
      "note_on channel=9 note=35 velocity=127 time=60\n",
      "note_on channel=9 note=38 velocity=0 time=60\n",
      "note_on channel=9 note=42 velocity=0 time=0\n",
      "note_on channel=9 note=35 velocity=0 time=0\n",
      "note_on channel=9 note=42 velocity=127 time=0\n",
      "note_on channel=9 note=35 velocity=127 time=60\n",
      "note_on channel=9 note=42 velocity=0 time=60\n",
      "note_on channel=9 note=35 velocity=0 time=0\n",
      "note_on channel=9 note=38 velocity=127 time=0\n",
      "note_on channel=9 note=42 velocity=127 time=0\n",
      "note_on channel=9 note=38 velocity=0 time=120\n",
      "note_on channel=9 note=42 velocity=0 time=0\n",
      "note_on channel=9 note=42 velocity=127 time=0\n",
      "note_on channel=9 note=35 velocity=127 time=0\n",
      "note_on channel=9 note=35 velocity=0 time=60\n",
      "note_on channel=9 note=35 velocity=127 time=0\n",
      "note_on channel=9 note=42 velocity=0 time=60\n",
      "note_on channel=9 note=35 velocity=0 time=0\n",
      "note_on channel=9 note=38 velocity=127 time=0\n",
      "note_on channel=9 note=42 velocity=127 time=0\n",
      "note_on channel=9 note=35 velocity=127 time=60\n",
      "note_on channel=9 note=38 velocity=0 time=60\n",
      "note_on channel=9 note=42 velocity=0 time=0\n",
      "note_on channel=9 note=35 velocity=0 time=0\n",
      "note_on channel=9 note=42 velocity=127 time=0\n",
      "note_on channel=9 note=35 velocity=127 time=60\n",
      "note_on channel=9 note=35 velocity=0 time=20\n",
      "note_on channel=9 note=36 velocity=127 time=0\n",
      "note_on channel=9 note=36 velocity=0 time=20\n",
      "note_on channel=9 note=35 velocity=127 time=0\n",
      "note_on channel=9 note=42 velocity=0 time=20\n",
      "note_on channel=9 note=35 velocity=0 time=0\n",
      "note_on channel=9 note=38 velocity=127 time=0\n",
      "note_on channel=9 note=42 velocity=127 time=0\n",
      "note_on channel=9 note=38 velocity=0 time=120\n",
      "note_on channel=9 note=42 velocity=0 time=0\n",
      "note_on channel=9 note=35 velocity=127 time=0\n",
      "note_on channel=9 note=57 velocity=127 time=0\n",
      "note_on channel=9 note=35 velocity=0 time=120\n",
      "note_on channel=9 note=57 velocity=0 time=0\n",
      "note_on channel=9 note=42 velocity=127 time=0\n",
      "note_on channel=9 note=42 velocity=0 time=120\n",
      "note_on channel=9 note=35 velocity=127 time=0\n",
      "note_on channel=9 note=42 velocity=127 time=0\n",
      "note_on channel=9 note=35 velocity=0 time=60\n",
      "note_on channel=9 note=35 velocity=127 time=0\n",
      "note_on channel=9 note=42 velocity=0 time=60\n",
      "note_on channel=9 note=35 velocity=0 time=0\n",
      "note_on channel=9 note=42 velocity=127 time=0\n",
      "note_on channel=9 note=42 velocity=0 time=120\n",
      "note_on channel=9 note=35 velocity=127 time=0\n",
      "note_on channel=9 note=57 velocity=127 time=0\n",
      "note_on channel=9 note=35 velocity=0 time=120\n",
      "note_on channel=9 note=57 velocity=0 time=0\n",
      "note_on channel=9 note=38 velocity=127 time=0\n",
      "note_on channel=9 note=42 velocity=127 time=0\n",
      "note_on channel=9 note=38 velocity=0 time=120\n",
      "note_on channel=9 note=42 velocity=0 time=0\n",
      "note_on channel=9 note=42 velocity=127 time=0\n",
      "note_on channel=9 note=35 velocity=127 time=0\n",
      "note_on channel=9 note=42 velocity=0 time=120\n",
      "note_on channel=9 note=35 velocity=0 time=0\n",
      "note_on channel=9 note=38 velocity=127 time=0\n",
      "note_on channel=9 note=42 velocity=127 time=0\n",
      "note_on channel=9 note=35 velocity=127 time=60\n",
      "note_on channel=9 note=38 velocity=0 time=60\n",
      "note_on channel=9 note=42 velocity=0 time=0\n",
      "note_on channel=9 note=35 velocity=0 time=0\n",
      "note_on channel=9 note=42 velocity=127 time=0\n",
      "note_on channel=9 note=35 velocity=127 time=60\n",
      "note_on channel=9 note=42 velocity=0 time=60\n",
      "note_on channel=9 note=35 velocity=0 time=0\n",
      "note_on channel=9 note=36 velocity=127 time=0\n",
      "note_on channel=9 note=42 velocity=127 time=0\n",
      "note_on channel=9 note=36 velocity=0 time=120\n",
      "note_on channel=9 note=42 velocity=0 time=0\n",
      "note_on channel=9 note=42 velocity=127 time=0\n",
      "note_on channel=9 note=42 velocity=0 time=60\n",
      "note_on channel=9 note=38 velocity=127 time=0\n",
      "note_on channel=9 note=38 velocity=0 time=60\n",
      "note_on channel=9 note=38 velocity=127 time=0\n",
      "note_on channel=9 note=38 velocity=0 time=60\n",
      "note_on channel=9 note=38 velocity=127 time=0\n",
      "note_on channel=9 note=38 velocity=0 time=60\n",
      "note_on channel=9 note=38 velocity=127 time=0\n",
      "note_on channel=9 note=38 velocity=0 time=60\n",
      "note_on channel=9 note=38 velocity=127 time=0\n",
      "note_on channel=9 note=38 velocity=0 time=60\n",
      "note_on channel=9 note=38 velocity=127 time=0\n",
      "note_on channel=9 note=38 velocity=0 time=60\n",
      "note_on channel=9 note=38 velocity=127 time=0\n",
      "note_on channel=9 note=38 velocity=0 time=60\n",
      "note_on channel=9 note=57 velocity=127 time=0\n",
      "note_on channel=9 note=35 velocity=127 time=0\n",
      "note_on channel=9 note=57 velocity=0 time=120\n",
      "note_on channel=9 note=35 velocity=0 time=0\n",
      "note_on channel=9 note=38 velocity=127 time=0\n",
      "note_on channel=9 note=42 velocity=127 time=0\n",
      "note_on channel=9 note=38 velocity=0 time=120\n",
      "note_on channel=9 note=42 velocity=0 time=0\n",
      "note_on channel=9 note=42 velocity=127 time=0\n",
      "note_on channel=9 note=35 velocity=127 time=0\n",
      "note_on channel=9 note=35 velocity=0 time=60\n",
      "note_on channel=9 note=35 velocity=127 time=0\n",
      "note_on channel=9 note=42 velocity=0 time=60\n",
      "note_on channel=9 note=35 velocity=0 time=0\n",
      "note_on channel=9 note=38 velocity=127 time=0\n",
      "note_on channel=9 note=42 velocity=127 time=0\n",
      "note_on channel=9 note=38 velocity=0 time=120\n",
      "note_on channel=9 note=42 velocity=0 time=0\n",
      "note_on channel=9 note=57 velocity=127 time=0\n",
      "note_on channel=9 note=35 velocity=127 time=0\n",
      "note_on channel=9 note=57 velocity=0 time=120\n",
      "note_on channel=9 note=35 velocity=0 time=0\n",
      "note_on channel=9 note=38 velocity=127 time=0\n",
      "note_on channel=9 note=42 velocity=127 time=0\n",
      "note_on channel=9 note=38 velocity=0 time=120\n",
      "note_on channel=9 note=42 velocity=0 time=0\n",
      "note_on channel=9 note=35 velocity=127 time=0\n",
      "note_on channel=9 note=42 velocity=127 time=0\n",
      "note_on channel=9 note=35 velocity=0 time=120\n",
      "note_on channel=9 note=42 velocity=0 time=0\n",
      "note_on channel=9 note=38 velocity=127 time=0\n",
      "note_on channel=9 note=42 velocity=127 time=0\n",
      "note_on channel=9 note=35 velocity=127 time=60\n",
      "note_on channel=9 note=38 velocity=0 time=60\n",
      "note_on channel=9 note=42 velocity=0 time=0\n",
      "note_on channel=9 note=35 velocity=0 time=0\n",
      "note_on channel=9 note=42 velocity=127 time=0\n",
      "note_on channel=9 note=35 velocity=127 time=60\n",
      "note_on channel=9 note=42 velocity=0 time=60\n",
      "note_on channel=9 note=35 velocity=0 time=0\n",
      "note_on channel=9 note=38 velocity=127 time=0\n",
      "note_on channel=9 note=42 velocity=127 time=0\n",
      "note_on channel=9 note=38 velocity=0 time=120\n",
      "note_on channel=9 note=42 velocity=0 time=0\n",
      "note_on channel=9 note=35 velocity=127 time=0\n",
      "note_on channel=9 note=57 velocity=127 time=0\n",
      "note_on channel=9 note=35 velocity=0 time=120\n",
      "note_on channel=9 note=57 velocity=0 time=0\n",
      "note_on channel=9 note=38 velocity=127 time=0\n",
      "note_on channel=9 note=42 velocity=127 time=0\n",
      "note_on channel=9 note=38 velocity=0 time=120\n",
      "note_on channel=9 note=42 velocity=0 time=0\n",
      "note_on channel=9 note=35 velocity=127 time=0\n",
      "note_on channel=9 note=42 velocity=127 time=0\n",
      "note_on channel=9 note=35 velocity=0 time=60\n",
      "note_on channel=9 note=35 velocity=127 time=0\n",
      "note_on channel=9 note=42 velocity=0 time=60\n",
      "note_on channel=9 note=35 velocity=0 time=0\n",
      "note_on channel=9 note=38 velocity=127 time=0\n",
      "note_on channel=9 note=42 velocity=127 time=0\n",
      "note_on channel=9 note=38 velocity=0 time=120\n",
      "note_on channel=9 note=42 velocity=0 time=0\n",
      "note_on channel=9 note=35 velocity=127 time=0\n",
      "note_on channel=9 note=57 velocity=127 time=0\n",
      "note_on channel=9 note=35 velocity=0 time=120\n",
      "note_on channel=9 note=57 velocity=0 time=0\n",
      "note_on channel=9 note=38 velocity=127 time=0\n",
      "note_on channel=9 note=42 velocity=127 time=0\n",
      "note_on channel=9 note=38 velocity=0 time=120\n",
      "note_on channel=9 note=42 velocity=0 time=0\n",
      "note_on channel=9 note=35 velocity=127 time=0\n",
      "note_on channel=9 note=57 velocity=127 time=0\n",
      "note_on channel=9 note=35 velocity=0 time=120\n",
      "note_on channel=9 note=57 velocity=0 time=0\n",
      "note_on channel=9 note=42 velocity=127 time=0\n",
      "note_on channel=9 note=38 velocity=127 time=0\n",
      "note_on channel=9 note=35 velocity=127 time=60\n",
      "note_on channel=9 note=42 velocity=0 time=60\n",
      "note_on channel=9 note=38 velocity=0 time=0\n",
      "note_on channel=9 note=35 velocity=0 time=0\n",
      "note_on channel=9 note=42 velocity=127 time=0\n",
      "note_on channel=9 note=35 velocity=127 time=60\n",
      "note_on channel=9 note=42 velocity=0 time=60\n",
      "note_on channel=9 note=35 velocity=0 time=0\n",
      "note_on channel=9 note=38 velocity=127 time=0\n",
      "note_on channel=9 note=42 velocity=127 time=0\n",
      "note_on channel=9 note=38 velocity=0 time=120\n",
      "note_on channel=9 note=42 velocity=0 time=0\n",
      "note_on channel=9 note=35 velocity=127 time=0\n",
      "note_on channel=9 note=57 velocity=127 time=0\n",
      "note_on channel=9 note=35 velocity=0 time=60\n",
      "note_on channel=9 note=35 velocity=127 time=0\n",
      "note_on channel=9 note=57 velocity=0 time=60\n",
      "note_on channel=9 note=35 velocity=0 time=0\n",
      "note_on channel=9 note=38 velocity=127 time=0\n",
      "note_on channel=9 note=42 velocity=127 time=0\n",
      "note_on channel=9 note=38 velocity=0 time=120\n",
      "note_on channel=9 note=42 velocity=0 time=0\n",
      "note_on channel=9 note=35 velocity=127 time=0\n",
      "note_on channel=9 note=57 velocity=127 time=0\n",
      "note_on channel=9 note=35 velocity=0 time=120\n",
      "note_on channel=9 note=57 velocity=0 time=0\n",
      "note_on channel=9 note=57 velocity=127 time=0\n",
      "note_on channel=9 note=35 velocity=127 time=0\n",
      "note_on channel=9 note=57 velocity=0 time=120\n",
      "note_on channel=9 note=35 velocity=0 time=0\n",
      "note_on channel=9 note=35 velocity=127 time=240\n",
      "note_on channel=9 note=57 velocity=127 time=0\n",
      "note_on channel=9 note=35 velocity=0 time=120\n",
      "note_on channel=9 note=57 velocity=0 time=0\n",
      "note_on channel=9 note=35 velocity=127 time=0\n",
      "note_on channel=9 note=57 velocity=127 time=0\n",
      "note_on channel=9 note=35 velocity=0 time=120\n",
      "note_on channel=9 note=57 velocity=0 time=0\n",
      "note_on channel=9 note=35 velocity=127 time=240\n",
      "note_on channel=9 note=57 velocity=127 time=0\n",
      "note_on channel=9 note=35 velocity=0 time=120\n",
      "note_on channel=9 note=57 velocity=0 time=0\n",
      "note_on channel=9 note=38 velocity=127 time=0\n",
      "note_on channel=9 note=42 velocity=127 time=0\n",
      "note_on channel=9 note=38 velocity=0 time=120\n",
      "note_on channel=9 note=42 velocity=0 time=0\n",
      "note_on channel=9 note=35 velocity=127 time=0\n",
      "note_on channel=9 note=42 velocity=127 time=0\n",
      "note_on channel=9 note=35 velocity=0 time=60\n",
      "note_on channel=9 note=35 velocity=127 time=0\n",
      "note_on channel=9 note=42 velocity=0 time=60\n",
      "note_on channel=9 note=35 velocity=0 time=0\n",
      "note_on channel=9 note=42 velocity=127 time=0\n",
      "note_on channel=9 note=38 velocity=127 time=0\n",
      "note_on channel=9 note=42 velocity=0 time=120\n",
      "note_on channel=9 note=38 velocity=0 time=0\n",
      "note_on channel=9 note=35 velocity=127 time=0\n",
      "note_on channel=9 note=57 velocity=127 time=0\n",
      "note_on channel=9 note=35 velocity=0 time=120\n",
      "note_on channel=9 note=57 velocity=0 time=0\n",
      "note_on channel=9 note=38 velocity=127 time=0\n",
      "note_on channel=9 note=42 velocity=127 time=0\n",
      "note_on channel=9 note=38 velocity=0 time=120\n",
      "note_on channel=9 note=42 velocity=0 time=0\n",
      "note_on channel=9 note=35 velocity=127 time=0\n",
      "note_on channel=9 note=57 velocity=127 time=0\n",
      "note_on channel=9 note=35 velocity=0 time=120\n",
      "note_on channel=9 note=57 velocity=0 time=0\n",
      "note_on channel=9 note=38 velocity=127 time=0\n",
      "note_on channel=9 note=42 velocity=127 time=0\n",
      "note_on channel=9 note=35 velocity=127 time=60\n",
      "note_on channel=9 note=38 velocity=0 time=60\n",
      "note_on channel=9 note=42 velocity=0 time=0\n",
      "note_on channel=9 note=35 velocity=0 time=0\n",
      "note_on channel=9 note=42 velocity=127 time=0\n",
      "note_on channel=9 note=35 velocity=127 time=60\n",
      "note_on channel=9 note=42 velocity=0 time=60\n",
      "note_on channel=9 note=35 velocity=0 time=0\n",
      "note_on channel=9 note=38 velocity=127 time=0\n",
      "note_on channel=9 note=42 velocity=127 time=0\n",
      "note_on channel=9 note=38 velocity=0 time=120\n",
      "note_on channel=9 note=42 velocity=0 time=0\n",
      "note_on channel=9 note=38 velocity=127 time=0\n",
      "note_on channel=9 note=38 velocity=0 time=30\n",
      "note_on channel=9 note=38 velocity=127 time=0\n",
      "note_on channel=9 note=38 velocity=0 time=30\n",
      "note_on channel=9 note=38 velocity=127 time=0\n",
      "note_on channel=9 note=38 velocity=0 time=30\n",
      "note_on channel=9 note=38 velocity=127 time=0\n",
      "note_on channel=9 note=38 velocity=0 time=30\n",
      "note_on channel=9 note=38 velocity=127 time=0\n",
      "note_on channel=9 note=38 velocity=0 time=60\n",
      "note_on channel=9 note=38 velocity=127 time=0\n",
      "note_on channel=9 note=38 velocity=0 time=60\n",
      "note_on channel=9 note=38 velocity=127 time=0\n",
      "note_on channel=9 note=38 velocity=0 time=60\n",
      "note_on channel=9 note=38 velocity=127 time=0\n",
      "note_on channel=9 note=38 velocity=0 time=60\n",
      "note_on channel=9 note=38 velocity=127 time=0\n",
      "note_on channel=9 note=38 velocity=0 time=60\n",
      "note_on channel=9 note=38 velocity=127 time=0\n",
      "note_on channel=9 note=38 velocity=0 time=60\n",
      "note_on channel=9 note=35 velocity=127 time=0\n",
      "note_on channel=9 note=57 velocity=127 time=0\n",
      "note_on channel=9 note=35 velocity=0 time=120\n",
      "note_on channel=9 note=57 velocity=0 time=0\n",
      "note_on channel=9 note=57 velocity=127 time=0\n",
      "note_on channel=9 note=35 velocity=127 time=0\n",
      "note_on channel=9 note=57 velocity=0 time=120\n",
      "note_on channel=9 note=35 velocity=0 time=0\n",
      "note_on channel=9 note=57 velocity=127 time=240\n",
      "note_on channel=9 note=35 velocity=127 time=0\n",
      "note_on channel=9 note=57 velocity=0 time=120\n",
      "note_on channel=9 note=35 velocity=0 time=0\n",
      "note_on channel=9 note=57 velocity=127 time=0\n",
      "note_on channel=9 note=35 velocity=127 time=0\n",
      "note_on channel=9 note=57 velocity=0 time=120\n",
      "note_on channel=9 note=35 velocity=0 time=0\n",
      "note_on channel=9 note=38 velocity=127 time=240\n",
      "note_on channel=9 note=57 velocity=127 time=0\n",
      "note_on channel=9 note=38 velocity=0 time=120\n",
      "note_on channel=9 note=57 velocity=0 time=0\n",
      "note_on channel=9 note=42 velocity=127 time=0\n",
      "note_on channel=9 note=42 velocity=0 time=120\n",
      "note_on channel=9 note=38 velocity=127 time=0\n",
      "note_on channel=9 note=42 velocity=127 time=0\n",
      "note_on channel=9 note=35 velocity=127 time=60\n",
      "note_on channel=9 note=38 velocity=0 time=60\n",
      "note_on channel=9 note=42 velocity=0 time=0\n",
      "note_on channel=9 note=35 velocity=0 time=0\n",
      "note_on channel=9 note=42 velocity=127 time=0\n",
      "note_on channel=9 note=35 velocity=127 time=60\n",
      "note_on channel=9 note=42 velocity=0 time=60\n",
      "note_on channel=9 note=35 velocity=0 time=0\n",
      "note_on channel=9 note=38 velocity=127 time=0\n",
      "note_on channel=9 note=42 velocity=127 time=0\n",
      "note_on channel=9 note=35 velocity=127 time=60\n",
      "note_on channel=9 note=38 velocity=0 time=60\n",
      "note_on channel=9 note=42 velocity=0 time=0\n",
      "note_on channel=9 note=35 velocity=0 time=0\n",
      "note_on channel=9 note=42 velocity=127 time=0\n",
      "note_on channel=9 note=35 velocity=127 time=60\n",
      "note_on channel=9 note=42 velocity=0 time=60\n",
      "note_on channel=9 note=35 velocity=0 time=0\n",
      "note_on channel=9 note=38 velocity=127 time=0\n",
      "note_on channel=9 note=42 velocity=127 time=0\n",
      "note_on channel=9 note=35 velocity=127 time=60\n",
      "note_on channel=9 note=38 velocity=0 time=60\n",
      "note_on channel=9 note=42 velocity=0 time=0\n",
      "note_on channel=9 note=35 velocity=0 time=0\n",
      "note_on channel=9 note=42 velocity=127 time=0\n",
      "note_on channel=9 note=35 velocity=127 time=60\n",
      "note_on channel=9 note=42 velocity=0 time=60\n",
      "note_on channel=9 note=35 velocity=0 time=0\n",
      "note_on channel=9 note=38 velocity=127 time=0\n",
      "note_on channel=9 note=42 velocity=127 time=0\n",
      "note_on channel=9 note=38 velocity=0 time=120\n",
      "note_on channel=9 note=42 velocity=0 time=0\n",
      "note_on channel=9 note=42 velocity=127 time=0\n",
      "note_on channel=9 note=35 velocity=127 time=60\n",
      "note_on channel=9 note=42 velocity=0 time=60\n",
      "note_on channel=9 note=35 velocity=0 time=0\n",
      "note_on channel=9 note=38 velocity=127 time=0\n",
      "note_on channel=9 note=42 velocity=127 time=0\n",
      "note_on channel=9 note=35 velocity=127 time=60\n",
      "note_on channel=9 note=38 velocity=0 time=60\n",
      "note_on channel=9 note=42 velocity=0 time=0\n",
      "note_on channel=9 note=35 velocity=0 time=0\n",
      "note_on channel=9 note=42 velocity=127 time=0\n",
      "note_on channel=9 note=35 velocity=127 time=60\n",
      "note_on channel=9 note=42 velocity=0 time=60\n",
      "note_on channel=9 note=35 velocity=0 time=0\n",
      "note_on channel=9 note=42 velocity=127 time=0\n",
      "note_on channel=9 note=38 velocity=127 time=0\n",
      "note_on channel=9 note=42 velocity=0 time=60\n",
      "note_on channel=9 note=38 velocity=0 time=0\n",
      "note_on channel=9 note=38 velocity=127 time=0\n",
      "note_on channel=9 note=57 velocity=127 time=0\n",
      "note_on channel=9 note=38 velocity=0 time=120\n",
      "note_on channel=9 note=57 velocity=0 time=0\n",
      "note_on channel=9 note=57 velocity=127 time=0\n",
      "note_on channel=9 note=38 velocity=127 time=0\n",
      "note_on channel=9 note=57 velocity=0 time=120\n",
      "note_on channel=9 note=38 velocity=0 time=0\n",
      "note_on channel=9 note=57 velocity=127 time=0\n",
      "note_on channel=9 note=38 velocity=127 time=0\n",
      "note_on channel=9 note=57 velocity=0 time=120\n",
      "note_on channel=9 note=38 velocity=0 time=0\n",
      "note_on channel=9 note=42 velocity=127 time=0\n",
      "note_on channel=9 note=35 velocity=127 time=60\n",
      "note_on channel=9 note=42 velocity=0 time=60\n",
      "note_on channel=9 note=35 velocity=0 time=0\n",
      "note_on channel=9 note=42 velocity=127 time=0\n",
      "note_on channel=9 note=38 velocity=127 time=0\n",
      "note_on channel=9 note=35 velocity=127 time=60\n",
      "note_on channel=9 note=42 velocity=0 time=60\n",
      "note_on channel=9 note=38 velocity=0 time=0\n",
      "note_on channel=9 note=35 velocity=0 time=0\n",
      "note_on channel=9 note=42 velocity=127 time=0\n",
      "note_on channel=9 note=35 velocity=127 time=60\n",
      "note_on channel=9 note=42 velocity=0 time=60\n",
      "note_on channel=9 note=35 velocity=0 time=0\n",
      "note_on channel=9 note=38 velocity=127 time=0\n",
      "note_on channel=9 note=42 velocity=127 time=0\n",
      "note_on channel=9 note=38 velocity=0 time=120\n",
      "note_on channel=9 note=42 velocity=0 time=0\n",
      "note_on channel=9 note=42 velocity=127 time=0\n",
      "note_on channel=9 note=35 velocity=127 time=60\n",
      "note_on channel=9 note=42 velocity=0 time=60\n",
      "note_on channel=9 note=35 velocity=0 time=0\n",
      "note_on channel=9 note=42 velocity=127 time=0\n",
      "note_on channel=9 note=38 velocity=127 time=0\n",
      "note_on channel=9 note=42 velocity=0 time=120\n",
      "note_on channel=9 note=38 velocity=0 time=0\n",
      "note_on channel=9 note=38 velocity=127 time=0\n",
      "note_on channel=9 note=42 velocity=127 time=0\n",
      "note_on channel=9 note=38 velocity=0 time=120\n",
      "note_on channel=9 note=42 velocity=0 time=0\n",
      "note_on channel=9 note=38 velocity=127 time=0\n",
      "note_on channel=9 note=42 velocity=127 time=0\n",
      "note_on channel=9 note=38 velocity=0 time=120\n",
      "note_on channel=9 note=42 velocity=0 time=0\n",
      "note_on channel=9 note=42 velocity=127 time=0\n",
      "note_on channel=9 note=35 velocity=127 time=60\n",
      "note_on channel=9 note=42 velocity=0 time=60\n",
      "note_on channel=9 note=35 velocity=0 time=0\n",
      "note_on channel=9 note=38 velocity=127 time=0\n",
      "note_on channel=9 note=42 velocity=127 time=0\n",
      "note_on channel=9 note=35 velocity=127 time=60\n",
      "note_on channel=9 note=38 velocity=0 time=60\n",
      "note_on channel=9 note=42 velocity=0 time=0\n",
      "note_on channel=9 note=35 velocity=0 time=0\n",
      "note_on channel=9 note=42 velocity=127 time=0\n",
      "note_on channel=9 note=35 velocity=127 time=60\n",
      "note_on channel=9 note=42 velocity=0 time=60\n",
      "note_on channel=9 note=35 velocity=0 time=0\n",
      "note_on channel=9 note=38 velocity=127 time=0\n",
      "note_on channel=9 note=42 velocity=127 time=0\n",
      "note_on channel=9 note=38 velocity=0 time=60\n",
      "note_on channel=9 note=42 velocity=0 time=0\n",
      "note_on channel=9 note=38 velocity=127 time=0\n",
      "note_on channel=9 note=57 velocity=127 time=0\n",
      "note_on channel=9 note=38 velocity=0 time=120\n",
      "note_on channel=9 note=57 velocity=0 time=0\n",
      "note_on channel=9 note=38 velocity=127 time=0\n",
      "note_on channel=9 note=57 velocity=127 time=0\n",
      "note_on channel=9 note=38 velocity=0 time=120\n",
      "note_on channel=9 note=57 velocity=0 time=0\n",
      "note_on channel=9 note=48 velocity=127 time=0\n",
      "note_on channel=9 note=57 velocity=127 time=0\n",
      "note_on channel=9 note=48 velocity=0 time=120\n",
      "note_on channel=9 note=57 velocity=0 time=0\n",
      "note_on channel=9 note=42 velocity=127 time=0\n",
      "note_on channel=9 note=35 velocity=127 time=60\n",
      "note_on channel=9 note=42 velocity=0 time=60\n",
      "note_on channel=9 note=35 velocity=0 time=0\n",
      "note_on channel=9 note=48 velocity=127 time=0\n",
      "note_on channel=9 note=42 velocity=127 time=0\n",
      "note_on channel=9 note=35 velocity=127 time=60\n",
      "note_on channel=9 note=48 velocity=0 time=60\n",
      "note_on channel=9 note=42 velocity=0 time=0\n",
      "note_on channel=9 note=35 velocity=0 time=0\n",
      "note_on channel=9 note=42 velocity=127 time=0\n",
      "note_on channel=9 note=35 velocity=127 time=60\n",
      "note_on channel=9 note=42 velocity=0 time=60\n",
      "note_on channel=9 note=35 velocity=0 time=0\n",
      "note_on channel=9 note=42 velocity=127 time=0\n",
      "note_on channel=9 note=38 velocity=127 time=0\n",
      "note_on channel=9 note=42 velocity=0 time=120\n",
      "note_on channel=9 note=38 velocity=0 time=0\n",
      "note_on channel=9 note=42 velocity=127 time=0\n",
      "note_on channel=9 note=38 velocity=127 time=0\n",
      "note_on channel=9 note=42 velocity=0 time=120\n",
      "note_on channel=9 note=38 velocity=0 time=0\n",
      "note_on channel=9 note=42 velocity=127 time=0\n",
      "note_on channel=9 note=38 velocity=127 time=0\n",
      "note_on channel=9 note=42 velocity=0 time=120\n",
      "note_on channel=9 note=38 velocity=0 time=0\n",
      "note_on channel=9 note=42 velocity=127 time=0\n",
      "note_on channel=9 note=38 velocity=127 time=0\n",
      "note_on channel=9 note=42 velocity=0 time=120\n",
      "note_on channel=9 note=38 velocity=0 time=0\n",
      "note_on channel=9 note=38 velocity=127 time=0\n",
      "note_on channel=9 note=42 velocity=127 time=0\n",
      "note_on channel=9 note=38 velocity=0 time=120\n",
      "note_on channel=9 note=42 velocity=0 time=0\n",
      "note_on channel=9 note=42 velocity=127 time=0\n",
      "note_on channel=9 note=35 velocity=127 time=60\n",
      "note_on channel=9 note=42 velocity=0 time=60\n",
      "note_on channel=9 note=35 velocity=0 time=0\n",
      "note_on channel=9 note=38 velocity=127 time=0\n",
      "note_on channel=9 note=42 velocity=127 time=0\n",
      "note_on channel=9 note=35 velocity=127 time=60\n",
      "note_on channel=9 note=38 velocity=0 time=60\n",
      "note_on channel=9 note=42 velocity=0 time=0\n",
      "note_on channel=9 note=35 velocity=0 time=0\n",
      "note_on channel=9 note=42 velocity=127 time=0\n",
      "note_on channel=9 note=35 velocity=127 time=60\n",
      "note_on channel=9 note=42 velocity=0 time=60\n",
      "note_on channel=9 note=35 velocity=0 time=0\n",
      "note_on channel=9 note=38 velocity=127 time=0\n",
      "note_on channel=9 note=42 velocity=127 time=0\n",
      "note_on channel=9 note=38 velocity=0 time=60\n",
      "note_on channel=9 note=42 velocity=0 time=0\n",
      "note_on channel=9 note=57 velocity=127 time=0\n",
      "note_on channel=9 note=38 velocity=127 time=0\n",
      "note_on channel=9 note=57 velocity=0 time=120\n",
      "note_on channel=9 note=38 velocity=0 time=0\n",
      "note_on channel=9 note=57 velocity=127 time=0\n",
      "note_on channel=9 note=38 velocity=127 time=0\n",
      "note_on channel=9 note=57 velocity=0 time=120\n",
      "note_on channel=9 note=38 velocity=0 time=0\n",
      "note_on channel=9 note=38 velocity=127 time=0\n",
      "note_on channel=9 note=57 velocity=127 time=0\n",
      "note_on channel=9 note=38 velocity=0 time=120\n",
      "note_on channel=9 note=57 velocity=0 time=0\n",
      "note_on channel=9 note=42 velocity=127 time=0\n",
      "note_on channel=9 note=35 velocity=127 time=60\n",
      "note_on channel=9 note=42 velocity=0 time=60\n",
      "note_on channel=9 note=35 velocity=0 time=0\n",
      "note_on channel=9 note=42 velocity=127 time=0\n",
      "note_on channel=9 note=38 velocity=127 time=0\n",
      "note_on channel=9 note=35 velocity=127 time=60\n",
      "note_on channel=9 note=42 velocity=0 time=60\n",
      "note_on channel=9 note=38 velocity=0 time=0\n",
      "note_on channel=9 note=35 velocity=0 time=0\n",
      "note_on channel=9 note=42 velocity=127 time=0\n",
      "note_on channel=9 note=35 velocity=127 time=60\n",
      "note_on channel=9 note=42 velocity=0 time=60\n",
      "note_on channel=9 note=35 velocity=0 time=0\n",
      "note_on channel=9 note=42 velocity=127 time=0\n",
      "note_on channel=9 note=38 velocity=127 time=0\n",
      "note_on channel=9 note=42 velocity=0 time=120\n",
      "note_on channel=9 note=38 velocity=0 time=0\n",
      "note_on channel=9 note=42 velocity=127 time=0\n",
      "note_on channel=9 note=35 velocity=127 time=60\n",
      "note_on channel=9 note=42 velocity=0 time=60\n",
      "note_on channel=9 note=35 velocity=0 time=0\n",
      "note_on channel=9 note=42 velocity=127 time=0\n",
      "note_on channel=9 note=38 velocity=127 time=0\n",
      "note_on channel=9 note=42 velocity=0 time=120\n",
      "note_on channel=9 note=38 velocity=0 time=0\n",
      "note_on channel=9 note=38 velocity=127 time=0\n",
      "note_on channel=9 note=42 velocity=127 time=0\n",
      "note_on channel=9 note=38 velocity=0 time=120\n",
      "note_on channel=9 note=42 velocity=0 time=0\n",
      "note_on channel=9 note=42 velocity=127 time=0\n",
      "note_on channel=9 note=38 velocity=127 time=0\n",
      "note_on channel=9 note=42 velocity=0 time=120\n",
      "note_on channel=9 note=38 velocity=0 time=0\n",
      "note_on channel=9 note=42 velocity=127 time=0\n",
      "note_on channel=9 note=35 velocity=127 time=60\n",
      "note_on channel=9 note=42 velocity=0 time=60\n",
      "note_on channel=9 note=35 velocity=0 time=0\n",
      "note_on channel=9 note=42 velocity=127 time=0\n",
      "note_on channel=9 note=38 velocity=127 time=0\n",
      "note_on channel=9 note=35 velocity=127 time=60\n",
      "note_on channel=9 note=42 velocity=0 time=60\n",
      "note_on channel=9 note=38 velocity=0 time=0\n",
      "note_on channel=9 note=35 velocity=0 time=0\n",
      "note_on channel=9 note=42 velocity=127 time=0\n",
      "note_on channel=9 note=35 velocity=127 time=60\n",
      "note_on channel=9 note=42 velocity=0 time=60\n",
      "note_on channel=9 note=35 velocity=0 time=0\n",
      "note_on channel=9 note=42 velocity=127 time=0\n",
      "note_on channel=9 note=38 velocity=127 time=0\n",
      "note_on channel=9 note=42 velocity=0 time=60\n",
      "note_on channel=9 note=38 velocity=0 time=0\n",
      "note_on channel=9 note=38 velocity=127 time=0\n",
      "note_on channel=9 note=57 velocity=127 time=0\n",
      "note_on channel=9 note=38 velocity=0 time=120\n",
      "note_on channel=9 note=57 velocity=0 time=0\n",
      "note_on channel=9 note=57 velocity=127 time=0\n",
      "note_on channel=9 note=38 velocity=127 time=0\n",
      "note_on channel=9 note=57 velocity=0 time=120\n",
      "note_on channel=9 note=38 velocity=0 time=0\n",
      "note_on channel=9 note=35 velocity=127 time=480\n",
      "note_on channel=9 note=57 velocity=127 time=0\n",
      "note_on channel=9 note=35 velocity=0 time=180\n",
      "note_on channel=9 note=57 velocity=0 time=0\n",
      "note_on channel=9 note=35 velocity=127 time=0\n",
      "note_on channel=9 note=57 velocity=127 time=0\n",
      "note_on channel=9 note=35 velocity=0 time=60\n",
      "note_on channel=9 note=57 velocity=0 time=0\n",
      "note_on channel=9 note=35 velocity=127 time=120\n",
      "note_on channel=9 note=57 velocity=127 time=0\n",
      "note_on channel=9 note=35 velocity=0 time=120\n",
      "note_on channel=9 note=57 velocity=0 time=0\n",
      "note_on channel=9 note=57 velocity=127 time=0\n",
      "note_on channel=9 note=35 velocity=127 time=0\n",
      "note_on channel=9 note=35 velocity=0 time=120\n",
      "note_on channel=9 note=57 velocity=0 time=360\n",
      "<meta message end_of_track time=0>\n"
     ]
    }
   ],
   "source": [
    "for msg in mid.tracks[11]:\n",
    "    print(msg)"
   ]
  },
  {
   "cell_type": "code",
   "execution_count": 8,
   "id": "d95eb6a8",
   "metadata": {},
   "outputs": [
    {
     "name": "stdout",
     "output_type": "stream",
     "text": [
      "<meta message track_name name='Guitar 1' time=0>\n",
      "<meta message instrument_name name='Clean gtr' time=0>\n",
      "<meta message midi_port port=0 time=0>\n",
      "control_change channel=3 control=32 value=0 time=0\n",
      "control_change channel=3 control=0 value=0 time=0\n",
      "program_change channel=3 program=27 time=0\n",
      "note_on channel=3 note=59 velocity=127 time=0\n",
      "note_on channel=3 note=52 velocity=127 time=0\n",
      "control_change channel=3 control=93 value=91 time=0\n",
      "control_change channel=3 control=10 value=41 time=0\n",
      "control_change channel=3 control=91 value=76 time=0\n",
      "control_change channel=3 control=7 value=119 time=0\n",
      "note_on channel=3 note=64 velocity=127 time=1\n",
      "note_on channel=3 note=40 velocity=127 time=0\n",
      "note_on channel=3 note=59 velocity=0 time=88\n",
      "note_on channel=3 note=52 velocity=0 time=0\n",
      "note_on channel=3 note=64 velocity=0 time=1\n",
      "note_on channel=3 note=40 velocity=0 time=0\n",
      "note_on channel=3 note=50 velocity=127 time=390\n",
      "note_on channel=3 note=57 velocity=127 time=0\n",
      "note_on channel=3 note=62 velocity=127 time=0\n",
      "note_on channel=3 note=50 velocity=0 time=89\n",
      "note_on channel=3 note=57 velocity=0 time=0\n",
      "note_on channel=3 note=62 velocity=0 time=0\n",
      "note_on channel=3 note=50 velocity=127 time=31\n",
      "note_on channel=3 note=61 velocity=127 time=0\n",
      "note_on channel=3 note=56 velocity=127 time=0\n",
      "note_on channel=3 note=50 velocity=0 time=89\n",
      "note_on channel=3 note=61 velocity=0 time=0\n",
      "note_on channel=3 note=56 velocity=0 time=0\n",
      "note_on channel=3 note=48 velocity=127 time=31\n",
      "note_on channel=3 note=55 velocity=127 time=0\n",
      "note_on channel=3 note=60 velocity=127 time=0\n",
      "note_on channel=3 note=64 velocity=127 time=0\n",
      "note_on channel=3 note=48 velocity=0 time=569\n",
      "note_on channel=3 note=55 velocity=0 time=0\n",
      "note_on channel=3 note=60 velocity=0 time=0\n",
      "note_on channel=3 note=64 velocity=0 time=0\n",
      "note_on channel=3 note=40 velocity=127 time=151\n",
      "note_on channel=3 note=40 velocity=0 time=59\n",
      "note_on channel=3 note=40 velocity=127 time=1\n",
      "note_on channel=3 note=40 velocity=0 time=59\n",
      "note_on channel=3 note=52 velocity=127 time=1\n",
      "note_on channel=3 note=52 velocity=0 time=59\n",
      "note_on channel=3 note=40 velocity=127 time=1\n",
      "note_on channel=3 note=40 velocity=0 time=59\n",
      "note_on channel=3 note=40 velocity=127 time=1\n",
      "note_on channel=3 note=40 velocity=0 time=59\n",
      "note_on channel=3 note=51 velocity=127 time=1\n",
      "note_on channel=3 note=51 velocity=0 time=59\n",
      "note_on channel=3 note=40 velocity=127 time=1\n",
      "note_on channel=3 note=40 velocity=0 time=59\n",
      "note_on channel=3 note=40 velocity=127 time=1\n",
      "note_on channel=3 note=40 velocity=0 time=59\n",
      "note_on channel=3 note=62 velocity=127 time=1\n",
      "note_on channel=3 note=66 velocity=127 time=0\n",
      "note_on channel=3 note=57 velocity=127 time=0\n",
      "note_on channel=3 note=50 velocity=127 time=0\n",
      "note_on channel=3 note=62 velocity=0 time=89\n",
      "note_on channel=3 note=66 velocity=0 time=0\n",
      "note_on channel=3 note=57 velocity=0 time=0\n",
      "note_on channel=3 note=50 velocity=0 time=0\n",
      "note_on channel=3 note=65 velocity=127 time=31\n",
      "note_on channel=3 note=49 velocity=127 time=0\n",
      "note_on channel=3 note=61 velocity=127 time=0\n",
      "note_on channel=3 note=56 velocity=127 time=0\n",
      "note_on channel=3 note=65 velocity=0 time=89\n",
      "note_on channel=3 note=49 velocity=0 time=0\n",
      "note_on channel=3 note=61 velocity=0 time=0\n",
      "note_on channel=3 note=56 velocity=0 time=0\n",
      "note_on channel=3 note=48 velocity=127 time=31\n",
      "note_on channel=3 note=64 velocity=127 time=0\n",
      "note_on channel=3 note=60 velocity=127 time=0\n",
      "note_on channel=3 note=55 velocity=127 time=0\n",
      "note_on channel=3 note=48 velocity=0 time=179\n",
      "note_on channel=3 note=64 velocity=0 time=0\n",
      "note_on channel=3 note=60 velocity=0 time=0\n",
      "note_on channel=3 note=55 velocity=0 time=0\n",
      "note_on channel=3 note=40 velocity=127 time=61\n",
      "note_on channel=3 note=40 velocity=0 time=59\n",
      "note_on channel=3 note=40 velocity=127 time=1\n",
      "note_on channel=3 note=40 velocity=0 time=59\n",
      "note_on channel=3 note=47 velocity=127 time=1\n",
      "note_on channel=3 note=47 velocity=0 time=59\n",
      "note_on channel=3 note=40 velocity=127 time=1\n",
      "note_on channel=3 note=40 velocity=0 time=59\n",
      "note_on channel=3 note=40 velocity=127 time=1\n",
      "note_on channel=3 note=40 velocity=0 time=59\n",
      "note_on channel=3 note=46 velocity=127 time=1\n",
      "note_on channel=3 note=46 velocity=0 time=59\n",
      "note_on channel=3 note=40 velocity=127 time=1\n",
      "note_on channel=3 note=40 velocity=0 time=59\n",
      "note_on channel=3 note=40 velocity=127 time=1\n",
      "note_on channel=3 note=40 velocity=0 time=59\n",
      "note_on channel=3 note=45 velocity=127 time=1\n",
      "note_on channel=3 note=45 velocity=0 time=59\n",
      "note_on channel=3 note=40 velocity=127 time=1\n",
      "note_on channel=3 note=40 velocity=0 time=59\n",
      "note_on channel=3 note=44 velocity=127 time=1\n",
      "note_on channel=3 note=44 velocity=0 time=59\n",
      "note_on channel=3 note=40 velocity=127 time=1\n",
      "note_on channel=3 note=40 velocity=0 time=59\n",
      "note_on channel=3 note=43 velocity=127 time=1\n",
      "note_on channel=3 note=43 velocity=0 time=59\n",
      "note_on channel=3 note=40 velocity=127 time=1\n",
      "note_on channel=3 note=40 velocity=0 time=59\n",
      "note_on channel=3 note=42 velocity=127 time=1\n",
      "note_on channel=3 note=42 velocity=0 time=59\n",
      "note_on channel=3 note=40 velocity=127 time=1\n",
      "note_on channel=3 note=40 velocity=0 time=59\n",
      "note_on channel=3 note=40 velocity=127 time=1\n",
      "note_on channel=3 note=40 velocity=0 time=59\n",
      "note_on channel=3 note=40 velocity=127 time=1\n",
      "note_on channel=3 note=40 velocity=0 time=59\n",
      "note_on channel=3 note=52 velocity=127 time=1\n",
      "note_on channel=3 note=52 velocity=0 time=59\n",
      "note_on channel=3 note=40 velocity=127 time=1\n",
      "note_on channel=3 note=40 velocity=0 time=59\n",
      "note_on channel=3 note=40 velocity=127 time=1\n",
      "note_on channel=3 note=40 velocity=0 time=59\n",
      "note_on channel=3 note=51 velocity=127 time=1\n",
      "note_on channel=3 note=51 velocity=0 time=59\n",
      "note_on channel=3 note=40 velocity=127 time=1\n",
      "note_on channel=3 note=40 velocity=0 time=59\n",
      "note_on channel=3 note=40 velocity=127 time=1\n",
      "note_on channel=3 note=40 velocity=0 time=59\n",
      "note_on channel=3 note=50 velocity=127 time=1\n",
      "note_on channel=3 note=62 velocity=127 time=0\n",
      "note_on channel=3 note=66 velocity=127 time=0\n",
      "note_on channel=3 note=57 velocity=127 time=0\n",
      "note_on channel=3 note=50 velocity=0 time=89\n",
      "note_on channel=3 note=62 velocity=0 time=0\n",
      "note_on channel=3 note=66 velocity=0 time=0\n",
      "note_on channel=3 note=57 velocity=0 time=0\n",
      "note_on channel=3 note=65 velocity=127 time=31\n",
      "note_on channel=3 note=49 velocity=127 time=0\n",
      "note_on channel=3 note=61 velocity=127 time=0\n",
      "note_on channel=3 note=56 velocity=127 time=0\n",
      "note_on channel=3 note=65 velocity=0 time=89\n",
      "note_on channel=3 note=49 velocity=0 time=0\n",
      "note_on channel=3 note=61 velocity=0 time=0\n",
      "note_on channel=3 note=56 velocity=0 time=0\n",
      "note_on channel=3 note=48 velocity=127 time=31\n",
      "note_on channel=3 note=64 velocity=127 time=0\n",
      "note_on channel=3 note=60 velocity=127 time=0\n",
      "note_on channel=3 note=55 velocity=127 time=0\n",
      "note_on channel=3 note=48 velocity=0 time=179\n",
      "note_on channel=3 note=64 velocity=0 time=0\n",
      "note_on channel=3 note=60 velocity=0 time=0\n",
      "note_on channel=3 note=55 velocity=0 time=0\n",
      "note_on channel=3 note=40 velocity=127 time=61\n",
      "note_on channel=3 note=40 velocity=0 time=59\n",
      "note_on channel=3 note=40 velocity=127 time=1\n",
      "note_on channel=3 note=40 velocity=0 time=59\n",
      "note_on channel=3 note=47 velocity=127 time=1\n",
      "note_on channel=3 note=47 velocity=0 time=59\n",
      "note_on channel=3 note=40 velocity=127 time=1\n",
      "note_on channel=3 note=40 velocity=0 time=59\n",
      "note_on channel=3 note=40 velocity=127 time=1\n",
      "note_on channel=3 note=40 velocity=0 time=59\n",
      "note_on channel=3 note=46 velocity=127 time=1\n",
      "note_on channel=3 note=46 velocity=0 time=59\n",
      "note_on channel=3 note=40 velocity=127 time=1\n",
      "note_on channel=3 note=40 velocity=0 time=59\n",
      "note_on channel=3 note=40 velocity=127 time=1\n",
      "note_on channel=3 note=40 velocity=0 time=59\n",
      "note_on channel=3 note=45 velocity=127 time=1\n",
      "note_on channel=3 note=45 velocity=0 time=59\n",
      "note_on channel=3 note=40 velocity=127 time=1\n",
      "note_on channel=3 note=40 velocity=0 time=59\n",
      "note_on channel=3 note=44 velocity=127 time=1\n",
      "note_on channel=3 note=44 velocity=0 time=59\n",
      "note_on channel=3 note=40 velocity=127 time=1\n",
      "note_on channel=3 note=40 velocity=0 time=59\n",
      "note_on channel=3 note=43 velocity=127 time=1\n",
      "note_on channel=3 note=43 velocity=0 time=59\n",
      "note_on channel=3 note=40 velocity=127 time=1\n",
      "note_on channel=3 note=40 velocity=0 time=59\n",
      "note_on channel=3 note=42 velocity=127 time=1\n",
      "note_on channel=3 note=42 velocity=0 time=59\n",
      "note_on channel=3 note=40 velocity=127 time=1\n",
      "note_on channel=3 note=40 velocity=0 time=59\n",
      "note_on channel=3 note=40 velocity=127 time=1\n",
      "note_on channel=3 note=40 velocity=0 time=59\n",
      "note_on channel=3 note=40 velocity=127 time=1\n",
      "note_on channel=3 note=40 velocity=0 time=59\n",
      "note_on channel=3 note=52 velocity=127 time=1\n",
      "note_on channel=3 note=52 velocity=0 time=59\n",
      "note_on channel=3 note=40 velocity=127 time=1\n",
      "note_on channel=3 note=40 velocity=0 time=59\n",
      "note_on channel=3 note=40 velocity=127 time=1\n",
      "note_on channel=3 note=40 velocity=0 time=59\n",
      "note_on channel=3 note=51 velocity=127 time=1\n",
      "note_on channel=3 note=51 velocity=0 time=59\n",
      "note_on channel=3 note=40 velocity=127 time=1\n",
      "note_on channel=3 note=40 velocity=0 time=59\n",
      "note_on channel=3 note=40 velocity=127 time=1\n",
      "note_on channel=3 note=40 velocity=0 time=59\n",
      "note_on channel=3 note=50 velocity=127 time=1\n",
      "note_on channel=3 note=66 velocity=127 time=0\n",
      "note_on channel=3 note=62 velocity=127 time=0\n",
      "note_on channel=3 note=57 velocity=127 time=0\n",
      "note_on channel=3 note=50 velocity=0 time=89\n",
      "note_on channel=3 note=66 velocity=0 time=0\n",
      "note_on channel=3 note=62 velocity=0 time=0\n",
      "note_on channel=3 note=57 velocity=0 time=0\n",
      "note_on channel=3 note=49 velocity=127 time=31\n",
      "note_on channel=3 note=65 velocity=127 time=0\n",
      "note_on channel=3 note=61 velocity=127 time=0\n",
      "note_on channel=3 note=56 velocity=127 time=0\n",
      "note_on channel=3 note=49 velocity=0 time=89\n",
      "note_on channel=3 note=65 velocity=0 time=0\n",
      "note_on channel=3 note=61 velocity=0 time=0\n",
      "note_on channel=3 note=56 velocity=0 time=0\n",
      "note_on channel=3 note=64 velocity=127 time=31\n",
      "note_on channel=3 note=60 velocity=127 time=0\n",
      "note_on channel=3 note=55 velocity=127 time=0\n",
      "note_on channel=3 note=48 velocity=127 time=0\n",
      "note_on channel=3 note=64 velocity=0 time=179\n",
      "note_on channel=3 note=60 velocity=0 time=0\n",
      "note_on channel=3 note=55 velocity=0 time=0\n",
      "note_on channel=3 note=48 velocity=0 time=0\n",
      "note_on channel=3 note=40 velocity=127 time=61\n",
      "note_on channel=3 note=40 velocity=0 time=59\n",
      "note_on channel=3 note=40 velocity=127 time=1\n",
      "note_on channel=3 note=40 velocity=0 time=59\n",
      "note_on channel=3 note=47 velocity=127 time=1\n",
      "note_on channel=3 note=47 velocity=0 time=59\n",
      "note_on channel=3 note=40 velocity=127 time=1\n",
      "note_on channel=3 note=40 velocity=0 time=59\n",
      "note_on channel=3 note=40 velocity=127 time=1\n",
      "note_on channel=3 note=40 velocity=0 time=59\n",
      "note_on channel=3 note=46 velocity=127 time=1\n",
      "note_on channel=3 note=46 velocity=0 time=59\n",
      "note_on channel=3 note=40 velocity=127 time=1\n",
      "note_on channel=3 note=40 velocity=0 time=59\n",
      "note_on channel=3 note=40 velocity=127 time=1\n",
      "note_on channel=3 note=40 velocity=0 time=59\n",
      "note_on channel=3 note=45 velocity=127 time=1\n",
      "note_on channel=3 note=45 velocity=0 time=59\n",
      "note_on channel=3 note=40 velocity=127 time=1\n",
      "note_on channel=3 note=40 velocity=0 time=59\n",
      "note_on channel=3 note=44 velocity=127 time=1\n",
      "note_on channel=3 note=44 velocity=0 time=59\n",
      "note_on channel=3 note=40 velocity=127 time=1\n",
      "note_on channel=3 note=40 velocity=0 time=59\n",
      "note_on channel=3 note=43 velocity=127 time=1\n",
      "note_on channel=3 note=43 velocity=0 time=59\n",
      "note_on channel=3 note=40 velocity=127 time=1\n",
      "note_on channel=3 note=40 velocity=0 time=59\n",
      "note_on channel=3 note=42 velocity=127 time=1\n",
      "note_on channel=3 note=42 velocity=0 time=59\n",
      "note_on channel=3 note=40 velocity=127 time=1\n",
      "note_on channel=3 note=40 velocity=0 time=59\n",
      "note_on channel=3 note=40 velocity=127 time=1\n",
      "note_on channel=3 note=40 velocity=0 time=59\n",
      "note_on channel=3 note=40 velocity=127 time=1\n",
      "note_on channel=3 note=40 velocity=0 time=59\n",
      "note_on channel=3 note=52 velocity=127 time=1\n",
      "note_on channel=3 note=52 velocity=0 time=59\n",
      "note_on channel=3 note=40 velocity=127 time=1\n",
      "note_on channel=3 note=40 velocity=0 time=59\n",
      "note_on channel=3 note=40 velocity=127 time=1\n",
      "note_on channel=3 note=40 velocity=0 time=59\n",
      "note_on channel=3 note=51 velocity=127 time=1\n",
      "note_on channel=3 note=51 velocity=0 time=59\n",
      "note_on channel=3 note=40 velocity=127 time=1\n",
      "note_on channel=3 note=40 velocity=0 time=59\n",
      "note_on channel=3 note=40 velocity=127 time=1\n",
      "note_on channel=3 note=40 velocity=0 time=59\n",
      "note_on channel=3 note=50 velocity=127 time=1\n",
      "note_on channel=3 note=66 velocity=127 time=0\n",
      "note_on channel=3 note=62 velocity=127 time=0\n",
      "note_on channel=3 note=57 velocity=127 time=0\n",
      "note_on channel=3 note=50 velocity=0 time=89\n",
      "note_on channel=3 note=66 velocity=0 time=0\n",
      "note_on channel=3 note=62 velocity=0 time=0\n",
      "note_on channel=3 note=57 velocity=0 time=0\n",
      "note_on channel=3 note=49 velocity=127 time=31\n",
      "note_on channel=3 note=65 velocity=127 time=0\n",
      "note_on channel=3 note=61 velocity=127 time=0\n",
      "note_on channel=3 note=56 velocity=127 time=0\n",
      "note_on channel=3 note=49 velocity=0 time=89\n",
      "note_on channel=3 note=65 velocity=0 time=0\n",
      "note_on channel=3 note=61 velocity=0 time=0\n",
      "note_on channel=3 note=56 velocity=0 time=0\n",
      "note_on channel=3 note=64 velocity=127 time=31\n",
      "note_on channel=3 note=60 velocity=127 time=0\n",
      "note_on channel=3 note=55 velocity=127 time=0\n",
      "note_on channel=3 note=48 velocity=127 time=0\n",
      "note_on channel=3 note=64 velocity=0 time=179\n",
      "note_on channel=3 note=60 velocity=0 time=0\n",
      "note_on channel=3 note=55 velocity=0 time=0\n",
      "note_on channel=3 note=48 velocity=0 time=0\n",
      "note_on channel=3 note=40 velocity=127 time=61\n",
      "note_on channel=3 note=40 velocity=0 time=59\n",
      "note_on channel=3 note=40 velocity=127 time=1\n",
      "note_on channel=3 note=40 velocity=0 time=59\n",
      "note_on channel=3 note=47 velocity=127 time=1\n",
      "note_on channel=3 note=47 velocity=0 time=59\n",
      "note_on channel=3 note=40 velocity=127 time=1\n",
      "note_on channel=3 note=40 velocity=0 time=59\n",
      "note_on channel=3 note=40 velocity=127 time=1\n",
      "note_on channel=3 note=40 velocity=0 time=59\n",
      "note_on channel=3 note=46 velocity=127 time=1\n",
      "note_on channel=3 note=46 velocity=0 time=59\n",
      "note_on channel=3 note=40 velocity=127 time=1\n",
      "note_on channel=3 note=40 velocity=0 time=59\n",
      "note_on channel=3 note=40 velocity=127 time=1\n",
      "note_on channel=3 note=40 velocity=0 time=59\n",
      "note_on channel=3 note=45 velocity=127 time=1\n",
      "note_on channel=3 note=45 velocity=0 time=59\n",
      "note_on channel=3 note=40 velocity=127 time=1\n",
      "note_on channel=3 note=40 velocity=0 time=59\n",
      "note_on channel=3 note=44 velocity=127 time=1\n",
      "note_on channel=3 note=44 velocity=0 time=59\n",
      "note_on channel=3 note=40 velocity=127 time=1\n",
      "note_on channel=3 note=40 velocity=0 time=59\n",
      "note_on channel=3 note=43 velocity=127 time=1\n",
      "note_on channel=3 note=43 velocity=0 time=59\n",
      "note_on channel=3 note=40 velocity=127 time=1\n",
      "note_on channel=3 note=40 velocity=0 time=59\n",
      "note_on channel=3 note=42 velocity=127 time=1\n",
      "note_on channel=3 note=42 velocity=0 time=59\n",
      "note_on channel=3 note=40 velocity=127 time=1\n",
      "note_on channel=3 note=40 velocity=0 time=59\n",
      "note_on channel=3 note=40 velocity=127 time=1\n",
      "note_on channel=3 note=40 velocity=0 time=59\n",
      "note_on channel=3 note=41 velocity=127 time=1\n",
      "note_on channel=3 note=41 velocity=0 time=59\n",
      "note_on channel=3 note=47 velocity=127 time=1\n",
      "note_on channel=3 note=47 velocity=0 time=59\n",
      "note_on channel=3 note=40 velocity=127 time=1\n",
      "note_on channel=3 note=40 velocity=0 time=59\n",
      "note_on channel=3 note=41 velocity=127 time=1\n",
      "note_on channel=3 note=41 velocity=0 time=59\n",
      "note_on channel=3 note=48 velocity=127 time=1\n",
      "note_on channel=3 note=48 velocity=0 time=59\n",
      "note_on channel=3 note=40 velocity=127 time=1\n",
      "note_on channel=3 note=40 velocity=0 time=59\n",
      "note_on channel=3 note=41 velocity=127 time=1\n",
      "note_on channel=3 note=41 velocity=0 time=59\n",
      "note_on channel=3 note=49 velocity=127 time=1\n",
      "note_on channel=3 note=49 velocity=0 time=59\n",
      "note_on channel=3 note=40 velocity=127 time=1\n",
      "note_on channel=3 note=40 velocity=0 time=59\n",
      "note_on channel=3 note=41 velocity=127 time=1\n",
      "note_on channel=3 note=41 velocity=0 time=59\n",
      "note_on channel=3 note=48 velocity=127 time=1\n",
      "note_on channel=3 note=48 velocity=0 time=59\n",
      "note_on channel=3 note=40 velocity=127 time=1\n",
      "note_on channel=3 note=40 velocity=0 time=59\n",
      "note_on channel=3 note=41 velocity=127 time=1\n",
      "note_on channel=3 note=41 velocity=0 time=59\n",
      "note_on channel=3 note=47 velocity=127 time=1\n",
      "note_on channel=3 note=47 velocity=0 time=59\n",
      "note_on channel=3 note=47 velocity=127 time=1\n",
      "note_on channel=3 note=47 velocity=0 time=59\n",
      "note_on channel=3 note=40 velocity=127 time=1\n",
      "note_on channel=3 note=40 velocity=0 time=59\n",
      "note_on channel=3 note=41 velocity=127 time=1\n",
      "note_on channel=3 note=41 velocity=0 time=59\n",
      "note_on channel=3 note=47 velocity=127 time=1\n",
      "note_on channel=3 note=47 velocity=0 time=59\n",
      "note_on channel=3 note=40 velocity=127 time=1\n",
      "note_on channel=3 note=40 velocity=0 time=59\n",
      "note_on channel=3 note=41 velocity=127 time=1\n",
      "note_on channel=3 note=41 velocity=0 time=59\n",
      "note_on channel=3 note=48 velocity=127 time=1\n",
      "note_on channel=3 note=48 velocity=0 time=59\n",
      "note_on channel=3 note=41 velocity=127 time=1\n",
      "note_on channel=3 note=41 velocity=0 time=59\n",
      "note_on channel=3 note=40 velocity=127 time=1\n",
      "note_on channel=3 note=40 velocity=0 time=59\n",
      "note_on channel=3 note=50 velocity=127 time=1\n",
      "note_on channel=3 note=43 velocity=127 time=0\n",
      "note_on channel=3 note=50 velocity=0 time=59\n",
      "note_on channel=3 note=43 velocity=0 time=0\n",
      "note_on channel=3 note=49 velocity=127 time=1\n",
      "note_on channel=3 note=42 velocity=127 time=0\n",
      "note_on channel=3 note=49 velocity=0 time=59\n",
      "note_on channel=3 note=42 velocity=0 time=0\n",
      "note_on channel=3 note=40 velocity=127 time=1\n",
      "note_on channel=3 note=40 velocity=0 time=59\n",
      "note_on channel=3 note=50 velocity=127 time=1\n",
      "note_on channel=3 note=43 velocity=127 time=0\n",
      "note_on channel=3 note=50 velocity=0 time=59\n",
      "note_on channel=3 note=43 velocity=0 time=0\n",
      "note_on channel=3 note=49 velocity=127 time=1\n",
      "note_on channel=3 note=42 velocity=127 time=0\n",
      "note_on channel=3 note=49 velocity=0 time=59\n",
      "note_on channel=3 note=42 velocity=0 time=0\n",
      "note_on channel=3 note=40 velocity=127 time=1\n",
      "note_on channel=3 note=40 velocity=0 time=59\n",
      "note_on channel=3 note=43 velocity=127 time=1\n",
      "note_on channel=3 note=50 velocity=127 time=0\n",
      "note_on channel=3 note=43 velocity=0 time=59\n",
      "note_on channel=3 note=50 velocity=0 time=0\n",
      "note_on channel=3 note=42 velocity=127 time=1\n",
      "note_on channel=3 note=49 velocity=127 time=0\n",
      "note_on channel=3 note=42 velocity=0 time=59\n",
      "note_on channel=3 note=49 velocity=0 time=0\n",
      "note_on channel=3 note=40 velocity=127 time=1\n",
      "note_on channel=3 note=40 velocity=0 time=59\n",
      "note_on channel=3 note=41 velocity=127 time=1\n",
      "note_on channel=3 note=41 velocity=0 time=59\n",
      "note_on channel=3 note=47 velocity=127 time=1\n",
      "note_on channel=3 note=47 velocity=0 time=59\n",
      "note_on channel=3 note=40 velocity=127 time=1\n",
      "note_on channel=3 note=40 velocity=0 time=59\n",
      "note_on channel=3 note=41 velocity=127 time=1\n",
      "note_on channel=3 note=41 velocity=0 time=59\n",
      "note_on channel=3 note=48 velocity=127 time=1\n",
      "note_on channel=3 note=48 velocity=0 time=59\n",
      "note_on channel=3 note=40 velocity=127 time=1\n",
      "note_on channel=3 note=40 velocity=0 time=59\n",
      "note_on channel=3 note=41 velocity=127 time=1\n",
      "note_on channel=3 note=41 velocity=0 time=59\n",
      "note_on channel=3 note=49 velocity=127 time=1\n",
      "note_on channel=3 note=49 velocity=0 time=59\n",
      "note_on channel=3 note=40 velocity=127 time=1\n",
      "note_on channel=3 note=40 velocity=0 time=59\n",
      "note_on channel=3 note=41 velocity=127 time=1\n",
      "note_on channel=3 note=41 velocity=0 time=59\n",
      "note_on channel=3 note=48 velocity=127 time=1\n",
      "note_on channel=3 note=48 velocity=0 time=59\n",
      "note_on channel=3 note=40 velocity=127 time=1\n",
      "note_on channel=3 note=40 velocity=0 time=59\n",
      "note_on channel=3 note=41 velocity=127 time=1\n",
      "note_on channel=3 note=41 velocity=0 time=59\n",
      "note_on channel=3 note=47 velocity=127 time=1\n",
      "note_on channel=3 note=47 velocity=0 time=59\n",
      "note_on channel=3 note=47 velocity=127 time=1\n",
      "note_on channel=3 note=47 velocity=0 time=59\n",
      "note_on channel=3 note=40 velocity=127 time=1\n",
      "note_on channel=3 note=40 velocity=0 time=59\n",
      "note_on channel=3 note=41 velocity=127 time=1\n",
      "note_on channel=3 note=41 velocity=0 time=59\n",
      "note_on channel=3 note=47 velocity=127 time=1\n",
      "note_on channel=3 note=47 velocity=0 time=59\n",
      "note_on channel=3 note=40 velocity=127 time=1\n",
      "note_on channel=3 note=40 velocity=0 time=59\n",
      "note_on channel=3 note=41 velocity=127 time=1\n",
      "note_on channel=3 note=41 velocity=0 time=59\n",
      "note_on channel=3 note=48 velocity=127 time=1\n",
      "note_on channel=3 note=48 velocity=0 time=59\n",
      "note_on channel=3 note=41 velocity=127 time=1\n",
      "note_on channel=3 note=41 velocity=0 time=59\n",
      "note_on channel=3 note=40 velocity=127 time=1\n",
      "note_on channel=3 note=40 velocity=0 time=59\n",
      "note_on channel=3 note=43 velocity=127 time=1\n",
      "note_on channel=3 note=50 velocity=127 time=0\n",
      "note_on channel=3 note=43 velocity=0 time=59\n",
      "note_on channel=3 note=50 velocity=0 time=0\n",
      "note_on channel=3 note=42 velocity=127 time=1\n",
      "note_on channel=3 note=49 velocity=127 time=0\n",
      "note_on channel=3 note=42 velocity=0 time=59\n",
      "note_on channel=3 note=49 velocity=0 time=0\n",
      "note_on channel=3 note=40 velocity=127 time=1\n",
      "note_on channel=3 note=40 velocity=0 time=59\n",
      "note_on channel=3 note=43 velocity=127 time=1\n",
      "note_on channel=3 note=50 velocity=127 time=0\n",
      "note_on channel=3 note=43 velocity=0 time=59\n",
      "note_on channel=3 note=50 velocity=0 time=0\n",
      "note_on channel=3 note=42 velocity=127 time=1\n",
      "note_on channel=3 note=49 velocity=127 time=0\n",
      "note_on channel=3 note=42 velocity=0 time=59\n",
      "note_on channel=3 note=49 velocity=0 time=0\n",
      "note_on channel=3 note=40 velocity=127 time=1\n",
      "note_on channel=3 note=40 velocity=0 time=59\n",
      "note_on channel=3 note=50 velocity=127 time=1\n",
      "note_on channel=3 note=43 velocity=127 time=0\n",
      "note_on channel=3 note=50 velocity=0 time=59\n",
      "note_on channel=3 note=43 velocity=0 time=0\n",
      "note_on channel=3 note=42 velocity=127 time=1\n",
      "note_on channel=3 note=49 velocity=127 time=0\n",
      "note_on channel=3 note=42 velocity=0 time=59\n",
      "note_on channel=3 note=49 velocity=0 time=0\n",
      "note_on channel=3 note=40 velocity=127 time=1\n",
      "note_on channel=3 note=40 velocity=0 time=59\n",
      "note_on channel=3 note=41 velocity=127 time=1\n",
      "note_on channel=3 note=41 velocity=0 time=59\n",
      "note_on channel=3 note=47 velocity=127 time=1\n",
      "note_on channel=3 note=47 velocity=0 time=59\n",
      "note_on channel=3 note=40 velocity=127 time=1\n",
      "note_on channel=3 note=40 velocity=0 time=59\n",
      "note_on channel=3 note=41 velocity=127 time=1\n",
      "note_on channel=3 note=41 velocity=0 time=59\n",
      "note_on channel=3 note=48 velocity=127 time=1\n",
      "note_on channel=3 note=48 velocity=0 time=59\n",
      "note_on channel=3 note=40 velocity=127 time=1\n",
      "note_on channel=3 note=40 velocity=0 time=59\n",
      "note_on channel=3 note=41 velocity=127 time=1\n",
      "note_on channel=3 note=41 velocity=0 time=59\n",
      "note_on channel=3 note=48 velocity=127 time=1\n",
      "note_on channel=3 note=48 velocity=0 time=59\n",
      "note_on channel=3 note=40 velocity=127 time=1\n",
      "note_on channel=3 note=40 velocity=0 time=59\n",
      "note_on channel=3 note=41 velocity=127 time=1\n",
      "note_on channel=3 note=41 velocity=0 time=59\n",
      "note_on channel=3 note=48 velocity=127 time=1\n",
      "note_on channel=3 note=48 velocity=0 time=59\n",
      "note_on channel=3 note=40 velocity=127 time=1\n",
      "note_on channel=3 note=40 velocity=0 time=59\n",
      "note_on channel=3 note=41 velocity=127 time=1\n",
      "note_on channel=3 note=41 velocity=0 time=59\n",
      "note_on channel=3 note=47 velocity=127 time=1\n",
      "note_on channel=3 note=47 velocity=0 time=59\n",
      "note_on channel=3 note=40 velocity=127 time=61\n",
      "note_on channel=3 note=40 velocity=0 time=59\n",
      "note_on channel=3 note=41 velocity=127 time=1\n",
      "note_on channel=3 note=41 velocity=0 time=59\n",
      "note_on channel=3 note=47 velocity=127 time=1\n",
      "note_on channel=3 note=47 velocity=0 time=59\n",
      "note_on channel=3 note=40 velocity=127 time=1\n",
      "note_on channel=3 note=40 velocity=0 time=59\n",
      "note_on channel=3 note=41 velocity=127 time=1\n",
      "note_on channel=3 note=41 velocity=0 time=59\n",
      "note_on channel=3 note=48 velocity=127 time=1\n",
      "note_on channel=3 note=48 velocity=0 time=59\n",
      "note_on channel=3 note=40 velocity=127 time=1\n",
      "note_on channel=3 note=40 velocity=0 time=59\n",
      "note_on channel=3 note=41 velocity=127 time=1\n",
      "note_on channel=3 note=41 velocity=0 time=59\n",
      "note_on channel=3 note=48 velocity=127 time=1\n",
      "note_on channel=3 note=48 velocity=0 time=59\n",
      "note_on channel=3 note=40 velocity=127 time=1\n",
      "note_on channel=3 note=40 velocity=0 time=59\n",
      "note_on channel=3 note=41 velocity=127 time=1\n",
      "note_on channel=3 note=41 velocity=0 time=59\n",
      "note_on channel=3 note=48 velocity=127 time=1\n",
      "note_on channel=3 note=48 velocity=0 time=59\n",
      "note_on channel=3 note=41 velocity=127 time=1\n",
      "note_on channel=3 note=41 velocity=0 time=59\n",
      "note_on channel=3 note=40 velocity=127 time=1\n",
      "note_on channel=3 note=40 velocity=0 time=59\n",
      "note_on channel=3 note=47 velocity=127 time=1\n",
      "note_on channel=3 note=59 velocity=127 time=0\n",
      "note_on channel=3 note=54 velocity=127 time=0\n",
      "note_on channel=3 note=47 velocity=0 time=89\n",
      "note_on channel=3 note=59 velocity=0 time=0\n",
      "note_on channel=3 note=54 velocity=0 time=0\n",
      "note_on channel=3 note=40 velocity=127 time=31\n",
      "note_on channel=3 note=40 velocity=0 time=59\n",
      "note_on channel=3 note=41 velocity=127 time=1\n",
      "note_on channel=3 note=41 velocity=0 time=59\n",
      "note_on channel=3 note=47 velocity=127 time=1\n",
      "note_on channel=3 note=47 velocity=0 time=59\n",
      "note_on channel=3 note=40 velocity=127 time=1\n",
      "note_on channel=3 note=40 velocity=0 time=59\n",
      "note_on channel=3 note=41 velocity=127 time=1\n",
      "note_on channel=3 note=41 velocity=0 time=59\n",
      "note_on channel=3 note=48 velocity=127 time=1\n",
      "note_on channel=3 note=48 velocity=0 time=59\n",
      "note_on channel=3 note=40 velocity=127 time=1\n",
      "note_on channel=3 note=40 velocity=0 time=59\n",
      "note_on channel=3 note=41 velocity=127 time=1\n",
      "note_on channel=3 note=41 velocity=0 time=59\n",
      "note_on channel=3 note=48 velocity=127 time=1\n",
      "note_on channel=3 note=48 velocity=0 time=59\n",
      "note_on channel=3 note=40 velocity=127 time=1\n",
      "note_on channel=3 note=40 velocity=0 time=59\n",
      "note_on channel=3 note=41 velocity=127 time=1\n",
      "note_on channel=3 note=41 velocity=0 time=59\n",
      "note_on channel=3 note=48 velocity=127 time=1\n",
      "note_on channel=3 note=48 velocity=0 time=59\n",
      "note_on channel=3 note=40 velocity=127 time=1\n",
      "note_on channel=3 note=40 velocity=0 time=59\n",
      "note_on channel=3 note=41 velocity=127 time=1\n",
      "note_on channel=3 note=41 velocity=0 time=59\n",
      "note_on channel=3 note=47 velocity=127 time=1\n",
      "note_on channel=3 note=47 velocity=0 time=59\n",
      "note_on channel=3 note=40 velocity=127 time=61\n",
      "note_on channel=3 note=40 velocity=0 time=59\n",
      "note_on channel=3 note=41 velocity=127 time=1\n",
      "note_on channel=3 note=41 velocity=0 time=59\n",
      "note_on channel=3 note=47 velocity=127 time=1\n",
      "note_on channel=3 note=47 velocity=0 time=59\n",
      "note_on channel=3 note=40 velocity=127 time=1\n",
      "note_on channel=3 note=40 velocity=0 time=59\n",
      "note_on channel=3 note=41 velocity=127 time=1\n",
      "note_on channel=3 note=41 velocity=0 time=59\n",
      "note_on channel=3 note=48 velocity=127 time=1\n",
      "note_on channel=3 note=48 velocity=0 time=59\n",
      "note_on channel=3 note=41 velocity=127 time=1\n",
      "note_on channel=3 note=41 velocity=0 time=59\n",
      "note_on channel=3 note=40 velocity=127 time=1\n",
      "note_on channel=3 note=40 velocity=0 time=59\n",
      "note_on channel=3 note=43 velocity=127 time=1\n",
      "note_on channel=3 note=50 velocity=127 time=0\n",
      "note_on channel=3 note=43 velocity=0 time=59\n",
      "note_on channel=3 note=50 velocity=0 time=0\n",
      "note_on channel=3 note=49 velocity=127 time=1\n",
      "note_on channel=3 note=42 velocity=127 time=0\n",
      "note_on channel=3 note=49 velocity=0 time=59\n",
      "note_on channel=3 note=42 velocity=0 time=0\n",
      "note_on channel=3 note=40 velocity=127 time=1\n",
      "note_on channel=3 note=40 velocity=0 time=59\n",
      "note_on channel=3 note=50 velocity=127 time=1\n",
      "note_on channel=3 note=43 velocity=127 time=0\n",
      "note_on channel=3 note=50 velocity=0 time=59\n",
      "note_on channel=3 note=43 velocity=0 time=0\n",
      "note_on channel=3 note=42 velocity=127 time=1\n",
      "note_on channel=3 note=49 velocity=127 time=0\n",
      "note_on channel=3 note=42 velocity=0 time=59\n",
      "note_on channel=3 note=49 velocity=0 time=0\n",
      "note_on channel=3 note=40 velocity=127 time=1\n",
      "note_on channel=3 note=40 velocity=0 time=59\n",
      "note_on channel=3 note=50 velocity=127 time=1\n",
      "note_on channel=3 note=43 velocity=127 time=0\n",
      "note_on channel=3 note=50 velocity=0 time=59\n",
      "note_on channel=3 note=43 velocity=0 time=0\n",
      "note_on channel=3 note=42 velocity=127 time=1\n",
      "note_on channel=3 note=49 velocity=127 time=0\n",
      "note_on channel=3 note=42 velocity=0 time=59\n",
      "note_on channel=3 note=49 velocity=0 time=0\n",
      "note_on channel=3 note=40 velocity=127 time=1\n",
      "note_on channel=3 note=40 velocity=0 time=59\n",
      "note_on channel=3 note=41 velocity=127 time=1\n",
      "note_on channel=3 note=41 velocity=0 time=59\n",
      "note_on channel=3 note=47 velocity=127 time=1\n",
      "note_on channel=3 note=47 velocity=0 time=59\n",
      "note_on channel=3 note=40 velocity=127 time=1\n",
      "note_on channel=3 note=40 velocity=0 time=59\n",
      "note_on channel=3 note=41 velocity=127 time=1\n",
      "note_on channel=3 note=41 velocity=0 time=59\n",
      "note_on channel=3 note=48 velocity=127 time=1\n",
      "note_on channel=3 note=48 velocity=0 time=59\n",
      "note_on channel=3 note=40 velocity=127 time=1\n",
      "note_on channel=3 note=40 velocity=0 time=59\n",
      "note_on channel=3 note=41 velocity=127 time=1\n",
      "note_on channel=3 note=41 velocity=0 time=59\n",
      "note_on channel=3 note=48 velocity=127 time=1\n",
      "note_on channel=3 note=48 velocity=0 time=59\n",
      "note_on channel=3 note=40 velocity=127 time=1\n",
      "note_on channel=3 note=40 velocity=0 time=59\n",
      "note_on channel=3 note=41 velocity=127 time=1\n",
      "note_on channel=3 note=41 velocity=0 time=59\n",
      "note_on channel=3 note=48 velocity=127 time=1\n",
      "note_on channel=3 note=48 velocity=0 time=59\n",
      "note_on channel=3 note=40 velocity=127 time=1\n",
      "note_on channel=3 note=40 velocity=0 time=59\n",
      "note_on channel=3 note=41 velocity=127 time=1\n",
      "note_on channel=3 note=41 velocity=0 time=59\n",
      "note_on channel=3 note=47 velocity=127 time=1\n",
      "note_on channel=3 note=47 velocity=0 time=59\n",
      "note_on channel=3 note=40 velocity=127 time=61\n",
      "note_on channel=3 note=40 velocity=0 time=59\n",
      "note_on channel=3 note=41 velocity=127 time=1\n",
      "note_on channel=3 note=41 velocity=0 time=59\n",
      "note_on channel=3 note=47 velocity=127 time=1\n",
      "note_on channel=3 note=47 velocity=0 time=59\n",
      "note_on channel=3 note=40 velocity=127 time=1\n",
      "note_on channel=3 note=40 velocity=0 time=59\n",
      "note_on channel=3 note=41 velocity=127 time=1\n",
      "note_on channel=3 note=41 velocity=0 time=59\n",
      "note_on channel=3 note=48 velocity=127 time=1\n",
      "note_on channel=3 note=48 velocity=0 time=59\n",
      "note_on channel=3 note=40 velocity=127 time=1\n",
      "note_on channel=3 note=40 velocity=0 time=59\n",
      "note_on channel=3 note=41 velocity=127 time=1\n",
      "note_on channel=3 note=41 velocity=0 time=59\n",
      "note_on channel=3 note=48 velocity=127 time=1\n",
      "note_on channel=3 note=48 velocity=0 time=59\n",
      "note_on channel=3 note=40 velocity=127 time=1\n",
      "note_on channel=3 note=40 velocity=0 time=59\n",
      "note_on channel=3 note=41 velocity=127 time=1\n",
      "note_on channel=3 note=41 velocity=0 time=59\n",
      "note_on channel=3 note=48 velocity=127 time=1\n",
      "note_on channel=3 note=48 velocity=0 time=59\n",
      "note_on channel=3 note=41 velocity=127 time=1\n",
      "note_on channel=3 note=41 velocity=0 time=59\n",
      "note_on channel=3 note=40 velocity=127 time=1\n",
      "note_on channel=3 note=40 velocity=0 time=59\n",
      "note_on channel=3 note=59 velocity=127 time=1\n",
      "note_on channel=3 note=54 velocity=127 time=0\n",
      "note_on channel=3 note=47 velocity=127 time=0\n",
      "note_on channel=3 note=59 velocity=0 time=89\n",
      "note_on channel=3 note=54 velocity=0 time=0\n",
      "note_on channel=3 note=47 velocity=0 time=0\n",
      "note_on channel=3 note=40 velocity=127 time=31\n",
      "note_on channel=3 note=40 velocity=0 time=59\n",
      "note_on channel=3 note=41 velocity=127 time=1\n",
      "note_on channel=3 note=41 velocity=0 time=59\n",
      "note_on channel=3 note=47 velocity=127 time=1\n",
      "note_on channel=3 note=47 velocity=0 time=59\n",
      "note_on channel=3 note=40 velocity=127 time=1\n",
      "note_on channel=3 note=40 velocity=0 time=59\n",
      "note_on channel=3 note=41 velocity=127 time=1\n",
      "note_on channel=3 note=41 velocity=0 time=59\n",
      "note_on channel=3 note=48 velocity=127 time=1\n",
      "note_on channel=3 note=48 velocity=0 time=59\n",
      "note_on channel=3 note=40 velocity=127 time=1\n",
      "note_on channel=3 note=40 velocity=0 time=59\n",
      "note_on channel=3 note=41 velocity=127 time=1\n",
      "note_on channel=3 note=41 velocity=0 time=59\n",
      "note_on channel=3 note=48 velocity=127 time=1\n",
      "note_on channel=3 note=48 velocity=0 time=59\n",
      "note_on channel=3 note=40 velocity=127 time=1\n",
      "note_on channel=3 note=40 velocity=0 time=59\n",
      "note_on channel=3 note=41 velocity=127 time=1\n",
      "note_on channel=3 note=41 velocity=0 time=59\n",
      "note_on channel=3 note=48 velocity=127 time=1\n",
      "note_on channel=3 note=48 velocity=0 time=59\n",
      "note_on channel=3 note=40 velocity=127 time=1\n",
      "note_on channel=3 note=40 velocity=0 time=59\n",
      "note_on channel=3 note=41 velocity=127 time=1\n",
      "note_on channel=3 note=41 velocity=0 time=59\n",
      "note_on channel=3 note=47 velocity=127 time=1\n",
      "note_on channel=3 note=47 velocity=0 time=59\n",
      "note_on channel=3 note=40 velocity=127 time=61\n",
      "note_on channel=3 note=40 velocity=0 time=59\n",
      "note_on channel=3 note=41 velocity=127 time=1\n",
      "note_on channel=3 note=41 velocity=0 time=59\n",
      "note_on channel=3 note=47 velocity=127 time=1\n",
      "note_on channel=3 note=47 velocity=0 time=59\n",
      "note_on channel=3 note=40 velocity=127 time=1\n",
      "note_on channel=3 note=40 velocity=0 time=59\n",
      "note_on channel=3 note=41 velocity=127 time=1\n",
      "note_on channel=3 note=41 velocity=0 time=59\n",
      "note_on channel=3 note=48 velocity=127 time=1\n",
      "note_on channel=3 note=48 velocity=0 time=59\n",
      "note_on channel=3 note=41 velocity=127 time=1\n",
      "note_on channel=3 note=41 velocity=0 time=59\n",
      "note_on channel=3 note=40 velocity=127 time=1\n",
      "note_on channel=3 note=40 velocity=0 time=59\n",
      "note_on channel=3 note=43 velocity=127 time=1\n",
      "note_on channel=3 note=50 velocity=127 time=0\n",
      "note_on channel=3 note=43 velocity=0 time=59\n",
      "note_on channel=3 note=50 velocity=0 time=0\n",
      "note_on channel=3 note=42 velocity=127 time=1\n",
      "note_on channel=3 note=49 velocity=127 time=0\n",
      "note_on channel=3 note=42 velocity=0 time=59\n",
      "note_on channel=3 note=49 velocity=0 time=0\n",
      "note_on channel=3 note=40 velocity=127 time=1\n",
      "note_on channel=3 note=40 velocity=0 time=59\n",
      "note_on channel=3 note=43 velocity=127 time=1\n",
      "note_on channel=3 note=50 velocity=127 time=0\n",
      "note_on channel=3 note=43 velocity=0 time=59\n",
      "note_on channel=3 note=50 velocity=0 time=0\n",
      "note_on channel=3 note=42 velocity=127 time=1\n",
      "note_on channel=3 note=49 velocity=127 time=0\n",
      "note_on channel=3 note=42 velocity=0 time=59\n",
      "note_on channel=3 note=49 velocity=0 time=0\n",
      "note_on channel=3 note=40 velocity=127 time=1\n",
      "note_on channel=3 note=40 velocity=0 time=59\n",
      "note_on channel=3 note=50 velocity=127 time=1\n",
      "note_on channel=3 note=43 velocity=127 time=0\n",
      "note_on channel=3 note=50 velocity=0 time=59\n",
      "note_on channel=3 note=43 velocity=0 time=0\n",
      "note_on channel=3 note=49 velocity=127 time=1\n",
      "note_on channel=3 note=42 velocity=127 time=0\n",
      "note_on channel=3 note=49 velocity=0 time=59\n",
      "note_on channel=3 note=42 velocity=0 time=0\n",
      "note_on channel=3 note=43 velocity=127 time=1\n",
      "note_on channel=3 note=50 velocity=127 time=0\n",
      "note_on channel=3 note=43 velocity=0 time=59\n",
      "note_on channel=3 note=50 velocity=0 time=0\n",
      "note_on channel=3 note=42 velocity=127 time=1\n",
      "note_on channel=3 note=49 velocity=127 time=0\n",
      "note_on channel=3 note=42 velocity=0 time=59\n",
      "note_on channel=3 note=49 velocity=0 time=0\n",
      "note_on channel=3 note=40 velocity=127 time=1\n",
      "note_on channel=3 note=40 velocity=0 time=59\n",
      "note_on channel=3 note=50 velocity=127 time=1\n",
      "note_on channel=3 note=43 velocity=127 time=0\n",
      "note_on channel=3 note=50 velocity=0 time=59\n",
      "note_on channel=3 note=43 velocity=0 time=0\n",
      "note_on channel=3 note=42 velocity=127 time=1\n",
      "note_on channel=3 note=49 velocity=127 time=0\n",
      "note_on channel=3 note=42 velocity=0 time=59\n",
      "note_on channel=3 note=49 velocity=0 time=0\n",
      "note_on channel=3 note=40 velocity=127 time=1\n",
      "note_on channel=3 note=40 velocity=0 time=59\n",
      "note_on channel=3 note=50 velocity=127 time=1\n",
      "note_on channel=3 note=43 velocity=127 time=0\n",
      "note_on channel=3 note=50 velocity=0 time=59\n",
      "note_on channel=3 note=43 velocity=0 time=0\n",
      "note_on channel=3 note=49 velocity=127 time=1\n",
      "note_on channel=3 note=42 velocity=127 time=0\n",
      "note_on channel=3 note=49 velocity=0 time=59\n",
      "note_on channel=3 note=42 velocity=0 time=0\n",
      "note_on channel=3 note=47 velocity=127 time=1\n",
      "note_on channel=3 note=40 velocity=127 time=0\n",
      "note_on channel=3 note=52 velocity=127 time=0\n",
      "note_on channel=3 note=47 velocity=0 time=89\n",
      "note_on channel=3 note=40 velocity=0 time=0\n",
      "note_on channel=3 note=52 velocity=0 time=0\n",
      "note_on channel=3 note=40 velocity=127 time=871\n",
      "note_on channel=3 note=40 velocity=0 time=59\n",
      "note_on channel=3 note=40 velocity=127 time=1\n",
      "note_on channel=3 note=40 velocity=0 time=59\n",
      "note_on channel=3 note=40 velocity=127 time=1\n",
      "note_on channel=3 note=40 velocity=0 time=59\n",
      "note_on channel=3 note=40 velocity=127 time=1\n",
      "note_on channel=3 note=40 velocity=0 time=59\n",
      "note_on channel=3 note=40 velocity=127 time=1\n",
      "note_on channel=3 note=40 velocity=0 time=59\n",
      "note_on channel=3 note=40 velocity=127 time=1\n",
      "note_on channel=3 note=40 velocity=0 time=59\n",
      "note_on channel=3 note=40 velocity=127 time=1\n",
      "note_on channel=3 note=40 velocity=0 time=59\n",
      "note_on channel=3 note=40 velocity=127 time=1\n",
      "note_on channel=3 note=40 velocity=0 time=59\n",
      "note_on channel=3 note=40 velocity=127 time=1\n",
      "note_on channel=3 note=40 velocity=0 time=59\n",
      "note_on channel=3 note=43 velocity=127 time=1\n",
      "note_on channel=3 note=50 velocity=127 time=0\n",
      "note_on channel=3 note=43 velocity=0 time=59\n",
      "note_on channel=3 note=50 velocity=0 time=0\n",
      "note_on channel=3 note=45 velocity=127 time=1\n",
      "note_on channel=3 note=52 velocity=127 time=0\n",
      "note_on channel=3 note=45 velocity=0 time=59\n",
      "note_on channel=3 note=52 velocity=0 time=0\n",
      "note_on channel=3 note=40 velocity=127 time=1\n",
      "note_on channel=3 note=40 velocity=0 time=59\n",
      "note_on channel=3 note=46 velocity=127 time=1\n",
      "note_on channel=3 note=53 velocity=127 time=0\n",
      "note_on channel=3 note=46 velocity=0 time=59\n",
      "note_on channel=3 note=53 velocity=0 time=0\n",
      "note_on channel=3 note=52 velocity=127 time=1\n",
      "note_on channel=3 note=45 velocity=127 time=0\n",
      "note_on channel=3 note=52 velocity=0 time=59\n",
      "note_on channel=3 note=45 velocity=0 time=0\n",
      "note_on channel=3 note=43 velocity=127 time=1\n",
      "note_on channel=3 note=50 velocity=127 time=0\n",
      "note_on channel=3 note=43 velocity=0 time=59\n",
      "note_on channel=3 note=50 velocity=0 time=0\n",
      "note_on channel=3 note=40 velocity=127 time=61\n",
      "note_on channel=3 note=40 velocity=0 time=59\n",
      "note_on channel=3 note=40 velocity=127 time=1\n",
      "note_on channel=3 note=40 velocity=0 time=59\n",
      "note_on channel=3 note=40 velocity=127 time=1\n",
      "note_on channel=3 note=40 velocity=0 time=59\n",
      "note_on channel=3 note=40 velocity=127 time=1\n",
      "note_on channel=3 note=40 velocity=0 time=59\n",
      "note_on channel=3 note=40 velocity=127 time=1\n",
      "note_on channel=3 note=40 velocity=0 time=59\n",
      "note_on channel=3 note=40 velocity=127 time=1\n",
      "note_on channel=3 note=40 velocity=0 time=59\n",
      "note_on channel=3 note=40 velocity=127 time=1\n",
      "note_on channel=3 note=40 velocity=0 time=59\n",
      "note_on channel=3 note=40 velocity=127 time=1\n",
      "note_on channel=3 note=40 velocity=0 time=59\n",
      "note_on channel=3 note=40 velocity=127 time=1\n",
      "note_on channel=3 note=40 velocity=0 time=59\n",
      "note_on channel=3 note=50 velocity=127 time=1\n",
      "note_on channel=3 note=43 velocity=127 time=0\n",
      "note_on channel=3 note=50 velocity=0 time=59\n",
      "note_on channel=3 note=43 velocity=0 time=0\n",
      "note_on channel=3 note=52 velocity=127 time=1\n",
      "note_on channel=3 note=45 velocity=127 time=0\n",
      "note_on channel=3 note=52 velocity=0 time=59\n",
      "note_on channel=3 note=45 velocity=0 time=0\n",
      "note_on channel=3 note=43 velocity=127 time=1\n",
      "note_on channel=3 note=50 velocity=127 time=0\n",
      "note_on channel=3 note=43 velocity=0 time=59\n",
      "note_on channel=3 note=50 velocity=0 time=0\n",
      "note_on channel=3 note=45 velocity=127 time=1\n",
      "note_on channel=3 note=52 velocity=127 time=0\n",
      "note_on channel=3 note=45 velocity=0 time=59\n",
      "note_on channel=3 note=52 velocity=0 time=0\n",
      "note_on channel=3 note=40 velocity=127 time=1\n",
      "note_on channel=3 note=40 velocity=0 time=59\n",
      "note_on channel=3 note=40 velocity=127 time=1\n",
      "note_on channel=3 note=40 velocity=0 time=59\n",
      "note_on channel=3 note=40 velocity=127 time=1\n",
      "note_on channel=3 note=40 velocity=0 time=59\n",
      "note_on channel=3 note=40 velocity=127 time=1\n",
      "note_on channel=3 note=40 velocity=0 time=59\n",
      "note_on channel=3 note=40 velocity=127 time=1\n",
      "note_on channel=3 note=40 velocity=0 time=59\n",
      "note_on channel=3 note=40 velocity=127 time=1\n",
      "note_on channel=3 note=40 velocity=0 time=59\n",
      "note_on channel=3 note=40 velocity=127 time=1\n",
      "note_on channel=3 note=40 velocity=0 time=59\n",
      "note_on channel=3 note=40 velocity=127 time=1\n",
      "note_on channel=3 note=40 velocity=0 time=59\n",
      "note_on channel=3 note=40 velocity=127 time=1\n",
      "note_on channel=3 note=40 velocity=0 time=59\n",
      "note_on channel=3 note=43 velocity=127 time=1\n",
      "note_on channel=3 note=50 velocity=127 time=0\n",
      "note_on channel=3 note=43 velocity=0 time=59\n",
      "note_on channel=3 note=50 velocity=0 time=0\n",
      "note_on channel=3 note=45 velocity=127 time=1\n",
      "note_on channel=3 note=52 velocity=127 time=0\n",
      "note_on channel=3 note=45 velocity=0 time=59\n",
      "note_on channel=3 note=52 velocity=0 time=0\n",
      "note_on channel=3 note=40 velocity=127 time=1\n",
      "note_on channel=3 note=40 velocity=0 time=59\n",
      "note_on channel=3 note=53 velocity=127 time=1\n",
      "note_on channel=3 note=46 velocity=127 time=0\n",
      "note_on channel=3 note=53 velocity=0 time=59\n",
      "note_on channel=3 note=46 velocity=0 time=0\n",
      "note_on channel=3 note=45 velocity=127 time=1\n",
      "note_on channel=3 note=52 velocity=127 time=0\n",
      "note_on channel=3 note=45 velocity=0 time=59\n",
      "note_on channel=3 note=52 velocity=0 time=0\n",
      "note_on channel=3 note=43 velocity=127 time=1\n",
      "note_on channel=3 note=50 velocity=127 time=0\n",
      "note_on channel=3 note=43 velocity=0 time=59\n",
      "note_on channel=3 note=50 velocity=0 time=0\n",
      "note_on channel=3 note=40 velocity=127 time=61\n",
      "note_on channel=3 note=40 velocity=0 time=59\n",
      "note_on channel=3 note=40 velocity=127 time=1\n",
      "note_on channel=3 note=40 velocity=0 time=59\n",
      "note_on channel=3 note=40 velocity=127 time=1\n",
      "note_on channel=3 note=40 velocity=0 time=59\n",
      "note_on channel=3 note=40 velocity=127 time=1\n",
      "note_on channel=3 note=40 velocity=0 time=59\n",
      "note_on channel=3 note=40 velocity=127 time=1\n",
      "note_on channel=3 note=40 velocity=0 time=59\n",
      "note_on channel=3 note=40 velocity=127 time=1\n",
      "note_on channel=3 note=40 velocity=0 time=59\n",
      "note_on channel=3 note=40 velocity=127 time=1\n",
      "note_on channel=3 note=40 velocity=0 time=59\n",
      "note_on channel=3 note=40 velocity=127 time=1\n",
      "note_on channel=3 note=40 velocity=0 time=59\n",
      "note_on channel=3 note=40 velocity=127 time=1\n",
      "note_on channel=3 note=40 velocity=0 time=59\n",
      "note_on channel=3 note=50 velocity=127 time=1\n",
      "note_on channel=3 note=43 velocity=127 time=0\n",
      "note_on channel=3 note=50 velocity=0 time=59\n",
      "note_on channel=3 note=43 velocity=0 time=0\n",
      "note_on channel=3 note=52 velocity=127 time=1\n",
      "note_on channel=3 note=45 velocity=127 time=0\n",
      "note_on channel=3 note=52 velocity=0 time=59\n",
      "note_on channel=3 note=45 velocity=0 time=0\n",
      "note_on channel=3 note=50 velocity=127 time=1\n",
      "note_on channel=3 note=43 velocity=127 time=0\n",
      "note_on channel=3 note=50 velocity=0 time=59\n",
      "note_on channel=3 note=43 velocity=0 time=0\n",
      "note_on channel=3 note=45 velocity=127 time=1\n",
      "note_on channel=3 note=52 velocity=127 time=0\n",
      "note_on channel=3 note=45 velocity=0 time=59\n",
      "note_on channel=3 note=52 velocity=0 time=0\n",
      "note_on channel=3 note=40 velocity=127 time=1\n",
      "note_on channel=3 note=40 velocity=0 time=59\n",
      "note_on channel=3 note=40 velocity=127 time=1\n",
      "note_on channel=3 note=40 velocity=0 time=59\n",
      "note_on channel=3 note=40 velocity=127 time=1\n",
      "note_on channel=3 note=40 velocity=0 time=59\n",
      "note_on channel=3 note=40 velocity=127 time=1\n",
      "note_on channel=3 note=40 velocity=0 time=59\n",
      "note_on channel=3 note=40 velocity=127 time=1\n",
      "note_on channel=3 note=40 velocity=0 time=59\n",
      "note_on channel=3 note=40 velocity=127 time=1\n",
      "note_on channel=3 note=40 velocity=0 time=59\n",
      "note_on channel=3 note=40 velocity=127 time=1\n",
      "note_on channel=3 note=40 velocity=0 time=59\n",
      "note_on channel=3 note=40 velocity=127 time=1\n",
      "note_on channel=3 note=40 velocity=0 time=59\n",
      "note_on channel=3 note=40 velocity=127 time=1\n",
      "note_on channel=3 note=40 velocity=0 time=59\n",
      "note_on channel=3 note=43 velocity=127 time=1\n",
      "note_on channel=3 note=50 velocity=127 time=0\n",
      "note_on channel=3 note=43 velocity=0 time=59\n",
      "note_on channel=3 note=50 velocity=0 time=0\n",
      "note_on channel=3 note=45 velocity=127 time=1\n",
      "note_on channel=3 note=52 velocity=127 time=0\n",
      "note_on channel=3 note=45 velocity=0 time=59\n",
      "note_on channel=3 note=52 velocity=0 time=0\n",
      "note_on channel=3 note=40 velocity=127 time=1\n",
      "note_on channel=3 note=40 velocity=0 time=59\n",
      "note_on channel=3 note=53 velocity=127 time=1\n",
      "note_on channel=3 note=46 velocity=127 time=0\n",
      "note_on channel=3 note=53 velocity=0 time=59\n",
      "note_on channel=3 note=46 velocity=0 time=0\n",
      "note_on channel=3 note=45 velocity=127 time=1\n",
      "note_on channel=3 note=52 velocity=127 time=0\n",
      "note_on channel=3 note=45 velocity=0 time=59\n",
      "note_on channel=3 note=52 velocity=0 time=0\n",
      "note_on channel=3 note=43 velocity=127 time=1\n",
      "note_on channel=3 note=50 velocity=127 time=0\n",
      "note_on channel=3 note=43 velocity=0 time=59\n",
      "note_on channel=3 note=50 velocity=0 time=0\n",
      "note_on channel=3 note=40 velocity=127 time=61\n",
      "note_on channel=3 note=40 velocity=0 time=59\n",
      "note_on channel=3 note=40 velocity=127 time=1\n",
      "note_on channel=3 note=40 velocity=0 time=59\n",
      "note_on channel=3 note=40 velocity=127 time=1\n",
      "note_on channel=3 note=40 velocity=0 time=59\n",
      "note_on channel=3 note=40 velocity=127 time=1\n",
      "note_on channel=3 note=40 velocity=0 time=59\n",
      "note_on channel=3 note=40 velocity=127 time=1\n",
      "note_on channel=3 note=40 velocity=0 time=59\n",
      "note_on channel=3 note=40 velocity=127 time=1\n",
      "note_on channel=3 note=40 velocity=0 time=59\n",
      "note_on channel=3 note=40 velocity=127 time=1\n",
      "note_on channel=3 note=40 velocity=0 time=59\n",
      "note_on channel=3 note=40 velocity=127 time=1\n",
      "note_on channel=3 note=40 velocity=0 time=59\n",
      "note_on channel=3 note=40 velocity=127 time=1\n",
      "note_on channel=3 note=40 velocity=0 time=59\n",
      "note_on channel=3 note=50 velocity=127 time=1\n",
      "note_on channel=3 note=43 velocity=127 time=0\n",
      "note_on channel=3 note=50 velocity=0 time=59\n",
      "note_on channel=3 note=43 velocity=0 time=0\n",
      "note_on channel=3 note=45 velocity=127 time=1\n",
      "note_on channel=3 note=52 velocity=127 time=0\n",
      "note_on channel=3 note=45 velocity=0 time=59\n",
      "note_on channel=3 note=52 velocity=0 time=0\n",
      "note_on channel=3 note=43 velocity=127 time=1\n",
      "note_on channel=3 note=50 velocity=127 time=0\n",
      "note_on channel=3 note=43 velocity=0 time=59\n",
      "note_on channel=3 note=50 velocity=0 time=0\n",
      "note_on channel=3 note=52 velocity=127 time=1\n",
      "note_on channel=3 note=45 velocity=127 time=0\n",
      "note_on channel=3 note=52 velocity=0 time=59\n",
      "note_on channel=3 note=45 velocity=0 time=0\n",
      "note_on channel=3 note=40 velocity=127 time=1\n",
      "note_on channel=3 note=40 velocity=0 time=59\n",
      "note_on channel=3 note=40 velocity=127 time=1\n",
      "note_on channel=3 note=40 velocity=0 time=59\n",
      "note_on channel=3 note=40 velocity=127 time=1\n",
      "note_on channel=3 note=40 velocity=0 time=59\n",
      "note_on channel=3 note=40 velocity=127 time=1\n",
      "note_on channel=3 note=40 velocity=0 time=59\n",
      "note_on channel=3 note=40 velocity=127 time=1\n",
      "note_on channel=3 note=40 velocity=0 time=59\n",
      "note_on channel=3 note=40 velocity=127 time=1\n",
      "note_on channel=3 note=40 velocity=0 time=59\n",
      "note_on channel=3 note=40 velocity=127 time=1\n",
      "note_on channel=3 note=40 velocity=0 time=59\n",
      "note_on channel=3 note=40 velocity=127 time=1\n",
      "note_on channel=3 note=40 velocity=0 time=59\n",
      "note_on channel=3 note=40 velocity=127 time=1\n",
      "note_on channel=3 note=40 velocity=0 time=59\n",
      "note_on channel=3 note=43 velocity=127 time=1\n",
      "note_on channel=3 note=50 velocity=127 time=0\n",
      "note_on channel=3 note=43 velocity=0 time=59\n",
      "note_on channel=3 note=50 velocity=0 time=0\n",
      "note_on channel=3 note=52 velocity=127 time=1\n",
      "note_on channel=3 note=45 velocity=127 time=0\n",
      "note_on channel=3 note=52 velocity=0 time=59\n",
      "note_on channel=3 note=45 velocity=0 time=0\n",
      "note_on channel=3 note=40 velocity=127 time=1\n",
      "note_on channel=3 note=40 velocity=0 time=59\n",
      "note_on channel=3 note=53 velocity=127 time=1\n",
      "note_on channel=3 note=46 velocity=127 time=0\n",
      "note_on channel=3 note=53 velocity=0 time=59\n",
      "note_on channel=3 note=46 velocity=0 time=0\n",
      "note_on channel=3 note=52 velocity=127 time=1\n",
      "note_on channel=3 note=45 velocity=127 time=0\n",
      "note_on channel=3 note=52 velocity=0 time=59\n",
      "note_on channel=3 note=45 velocity=0 time=0\n",
      "note_on channel=3 note=43 velocity=127 time=1\n",
      "note_on channel=3 note=50 velocity=127 time=0\n",
      "note_on channel=3 note=43 velocity=0 time=59\n",
      "note_on channel=3 note=50 velocity=0 time=0\n",
      "note_on channel=3 note=40 velocity=127 time=61\n",
      "note_on channel=3 note=40 velocity=0 time=59\n",
      "note_on channel=3 note=40 velocity=127 time=1\n",
      "note_on channel=3 note=40 velocity=0 time=59\n",
      "note_on channel=3 note=40 velocity=127 time=1\n",
      "note_on channel=3 note=40 velocity=0 time=59\n",
      "note_on channel=3 note=40 velocity=127 time=1\n",
      "note_on channel=3 note=40 velocity=0 time=59\n",
      "note_on channel=3 note=40 velocity=127 time=1\n",
      "note_on channel=3 note=40 velocity=0 time=59\n",
      "note_on channel=3 note=40 velocity=127 time=1\n",
      "note_on channel=3 note=40 velocity=0 time=59\n",
      "note_on channel=3 note=40 velocity=127 time=1\n",
      "note_on channel=3 note=40 velocity=0 time=59\n",
      "note_on channel=3 note=40 velocity=127 time=1\n",
      "note_on channel=3 note=40 velocity=0 time=59\n",
      "note_on channel=3 note=40 velocity=127 time=1\n",
      "note_on channel=3 note=40 velocity=0 time=59\n",
      "note_on channel=3 note=43 velocity=127 time=1\n",
      "note_on channel=3 note=50 velocity=127 time=0\n",
      "note_on channel=3 note=43 velocity=0 time=59\n",
      "note_on channel=3 note=50 velocity=0 time=0\n",
      "note_on channel=3 note=45 velocity=127 time=1\n",
      "note_on channel=3 note=52 velocity=127 time=0\n",
      "note_on channel=3 note=45 velocity=0 time=59\n",
      "note_on channel=3 note=52 velocity=0 time=0\n",
      "note_on channel=3 note=50 velocity=127 time=1\n",
      "note_on channel=3 note=43 velocity=127 time=0\n",
      "note_on channel=3 note=50 velocity=0 time=59\n",
      "note_on channel=3 note=43 velocity=0 time=0\n",
      "note_on channel=3 note=52 velocity=127 time=1\n",
      "note_on channel=3 note=45 velocity=127 time=0\n",
      "note_on channel=3 note=52 velocity=0 time=59\n",
      "note_on channel=3 note=45 velocity=0 time=0\n",
      "note_on channel=3 note=40 velocity=127 time=1\n",
      "note_on channel=3 note=40 velocity=0 time=59\n",
      "note_on channel=3 note=40 velocity=127 time=1\n",
      "note_on channel=3 note=40 velocity=0 time=59\n",
      "note_on channel=3 note=40 velocity=127 time=1\n",
      "note_on channel=3 note=40 velocity=0 time=59\n",
      "note_on channel=3 note=40 velocity=127 time=1\n",
      "note_on channel=3 note=40 velocity=0 time=59\n",
      "note_on channel=3 note=40 velocity=127 time=1\n",
      "note_on channel=3 note=40 velocity=0 time=59\n",
      "note_on channel=3 note=40 velocity=127 time=1\n",
      "note_on channel=3 note=40 velocity=0 time=59\n",
      "note_on channel=3 note=40 velocity=127 time=1\n",
      "note_on channel=3 note=40 velocity=0 time=59\n",
      "note_on channel=3 note=40 velocity=127 time=1\n",
      "note_on channel=3 note=40 velocity=0 time=59\n",
      "note_on channel=3 note=40 velocity=127 time=1\n",
      "note_on channel=3 note=40 velocity=0 time=59\n",
      "note_on channel=3 note=43 velocity=127 time=1\n",
      "note_on channel=3 note=50 velocity=127 time=0\n",
      "note_on channel=3 note=43 velocity=0 time=59\n",
      "note_on channel=3 note=50 velocity=0 time=0\n",
      "note_on channel=3 note=52 velocity=127 time=1\n",
      "note_on channel=3 note=45 velocity=127 time=0\n",
      "note_on channel=3 note=52 velocity=0 time=59\n",
      "note_on channel=3 note=45 velocity=0 time=0\n",
      "note_on channel=3 note=40 velocity=127 time=1\n",
      "note_on channel=3 note=40 velocity=0 time=59\n",
      "note_on channel=3 note=46 velocity=127 time=1\n",
      "note_on channel=3 note=53 velocity=127 time=0\n",
      "note_on channel=3 note=46 velocity=0 time=59\n",
      "note_on channel=3 note=53 velocity=0 time=0\n",
      "note_on channel=3 note=45 velocity=127 time=1\n",
      "note_on channel=3 note=52 velocity=127 time=0\n",
      "note_on channel=3 note=45 velocity=0 time=59\n",
      "note_on channel=3 note=52 velocity=0 time=0\n",
      "note_on channel=3 note=50 velocity=127 time=1\n",
      "note_on channel=3 note=43 velocity=127 time=0\n",
      "note_on channel=3 note=50 velocity=0 time=59\n",
      "note_on channel=3 note=43 velocity=0 time=0\n",
      "note_on channel=3 note=40 velocity=127 time=61\n",
      "note_on channel=3 note=40 velocity=0 time=59\n",
      "note_on channel=3 note=40 velocity=127 time=1\n",
      "note_on channel=3 note=40 velocity=0 time=59\n",
      "note_on channel=3 note=40 velocity=127 time=1\n",
      "note_on channel=3 note=40 velocity=0 time=59\n",
      "note_on channel=3 note=40 velocity=127 time=1\n",
      "note_on channel=3 note=40 velocity=0 time=59\n",
      "note_on channel=3 note=40 velocity=127 time=1\n",
      "note_on channel=3 note=40 velocity=0 time=59\n",
      "note_on channel=3 note=40 velocity=127 time=1\n",
      "note_on channel=3 note=40 velocity=0 time=59\n",
      "note_on channel=3 note=40 velocity=127 time=1\n",
      "note_on channel=3 note=40 velocity=0 time=59\n",
      "note_on channel=3 note=40 velocity=127 time=1\n",
      "note_on channel=3 note=40 velocity=0 time=59\n",
      "note_on channel=3 note=40 velocity=127 time=1\n",
      "note_on channel=3 note=40 velocity=0 time=59\n",
      "note_on channel=3 note=43 velocity=127 time=1\n",
      "note_on channel=3 note=50 velocity=127 time=0\n",
      "note_on channel=3 note=43 velocity=0 time=59\n",
      "note_on channel=3 note=50 velocity=0 time=0\n",
      "note_on channel=3 note=52 velocity=127 time=1\n",
      "note_on channel=3 note=45 velocity=127 time=0\n",
      "note_on channel=3 note=52 velocity=0 time=59\n",
      "note_on channel=3 note=45 velocity=0 time=0\n",
      "note_on channel=3 note=43 velocity=127 time=1\n",
      "note_on channel=3 note=50 velocity=127 time=0\n",
      "note_on channel=3 note=43 velocity=0 time=59\n",
      "note_on channel=3 note=50 velocity=0 time=0\n",
      "note_on channel=3 note=45 velocity=127 time=1\n",
      "note_on channel=3 note=52 velocity=127 time=0\n",
      "note_on channel=3 note=45 velocity=0 time=59\n",
      "note_on channel=3 note=52 velocity=0 time=0\n",
      "note_on channel=3 note=40 velocity=127 time=1\n",
      "note_on channel=3 note=40 velocity=0 time=59\n",
      "note_on channel=3 note=40 velocity=127 time=1\n",
      "note_on channel=3 note=40 velocity=0 time=59\n",
      "note_on channel=3 note=40 velocity=127 time=1\n",
      "note_on channel=3 note=40 velocity=0 time=59\n",
      "note_on channel=3 note=40 velocity=127 time=1\n",
      "note_on channel=3 note=40 velocity=0 time=59\n",
      "note_on channel=3 note=40 velocity=127 time=1\n",
      "note_on channel=3 note=40 velocity=0 time=59\n",
      "note_on channel=3 note=40 velocity=127 time=1\n",
      "note_on channel=3 note=40 velocity=0 time=59\n",
      "note_on channel=3 note=40 velocity=127 time=1\n",
      "note_on channel=3 note=40 velocity=0 time=59\n",
      "note_on channel=3 note=40 velocity=127 time=1\n",
      "note_on channel=3 note=40 velocity=0 time=59\n",
      "note_on channel=3 note=40 velocity=127 time=1\n",
      "note_on channel=3 note=40 velocity=0 time=59\n",
      "note_on channel=3 note=50 velocity=127 time=1\n",
      "note_on channel=3 note=43 velocity=127 time=0\n",
      "note_on channel=3 note=50 velocity=0 time=59\n",
      "note_on channel=3 note=43 velocity=0 time=0\n",
      "note_on channel=3 note=52 velocity=127 time=1\n",
      "note_on channel=3 note=45 velocity=127 time=0\n",
      "note_on channel=3 note=52 velocity=0 time=59\n",
      "note_on channel=3 note=45 velocity=0 time=0\n",
      "note_on channel=3 note=40 velocity=127 time=1\n",
      "note_on channel=3 note=40 velocity=0 time=59\n",
      "note_on channel=3 note=46 velocity=127 time=1\n",
      "note_on channel=3 note=53 velocity=127 time=0\n",
      "note_on channel=3 note=46 velocity=0 time=59\n",
      "note_on channel=3 note=53 velocity=0 time=0\n",
      "note_on channel=3 note=52 velocity=127 time=1\n",
      "note_on channel=3 note=45 velocity=127 time=0\n",
      "note_on channel=3 note=52 velocity=0 time=59\n",
      "note_on channel=3 note=45 velocity=0 time=0\n",
      "note_on channel=3 note=50 velocity=127 time=1\n",
      "note_on channel=3 note=43 velocity=127 time=0\n",
      "note_on channel=3 note=50 velocity=0 time=59\n",
      "note_on channel=3 note=43 velocity=0 time=0\n",
      "note_on channel=3 note=40 velocity=127 time=61\n",
      "note_on channel=3 note=40 velocity=0 time=59\n",
      "note_on channel=3 note=40 velocity=127 time=1\n",
      "note_on channel=3 note=40 velocity=0 time=59\n",
      "note_on channel=3 note=40 velocity=127 time=1\n",
      "note_on channel=3 note=40 velocity=0 time=59\n",
      "note_on channel=3 note=40 velocity=127 time=1\n",
      "note_on channel=3 note=40 velocity=0 time=59\n",
      "note_on channel=3 note=40 velocity=127 time=1\n",
      "note_on channel=3 note=40 velocity=0 time=59\n",
      "note_on channel=3 note=40 velocity=127 time=1\n",
      "note_on channel=3 note=40 velocity=0 time=59\n",
      "note_on channel=3 note=40 velocity=127 time=1\n",
      "note_on channel=3 note=40 velocity=0 time=59\n",
      "note_on channel=3 note=40 velocity=127 time=1\n",
      "note_on channel=3 note=40 velocity=0 time=59\n",
      "note_on channel=3 note=40 velocity=127 time=1\n",
      "note_on channel=3 note=40 velocity=0 time=59\n",
      "note_on channel=3 note=43 velocity=127 time=1\n",
      "note_on channel=3 note=50 velocity=127 time=0\n",
      "note_on channel=3 note=43 velocity=0 time=59\n",
      "note_on channel=3 note=50 velocity=0 time=0\n",
      "note_on channel=3 note=52 velocity=127 time=1\n",
      "note_on channel=3 note=45 velocity=127 time=0\n",
      "note_on channel=3 note=52 velocity=0 time=59\n",
      "note_on channel=3 note=45 velocity=0 time=0\n",
      "note_on channel=3 note=43 velocity=127 time=1\n",
      "note_on channel=3 note=50 velocity=127 time=0\n",
      "note_on channel=3 note=43 velocity=0 time=59\n",
      "note_on channel=3 note=50 velocity=0 time=0\n",
      "note_on channel=3 note=45 velocity=127 time=1\n",
      "note_on channel=3 note=52 velocity=127 time=0\n",
      "note_on channel=3 note=45 velocity=0 time=59\n",
      "note_on channel=3 note=52 velocity=0 time=0\n",
      "note_on channel=3 note=42 velocity=127 time=1\n",
      "note_on channel=3 note=42 velocity=0 time=59\n",
      "note_on channel=3 note=42 velocity=127 time=1\n",
      "note_on channel=3 note=42 velocity=0 time=59\n",
      "note_on channel=3 note=42 velocity=127 time=1\n",
      "note_on channel=3 note=42 velocity=0 time=59\n",
      "note_on channel=3 note=42 velocity=127 time=1\n",
      "note_on channel=3 note=42 velocity=0 time=59\n",
      "note_on channel=3 note=42 velocity=127 time=1\n",
      "note_on channel=3 note=42 velocity=0 time=59\n",
      "note_on channel=3 note=42 velocity=127 time=1\n",
      "note_on channel=3 note=42 velocity=0 time=59\n",
      "note_on channel=3 note=42 velocity=127 time=1\n",
      "note_on channel=3 note=42 velocity=0 time=59\n",
      "note_on channel=3 note=42 velocity=127 time=1\n",
      "note_on channel=3 note=42 velocity=0 time=59\n",
      "note_on channel=3 note=42 velocity=127 time=1\n",
      "note_on channel=3 note=42 velocity=0 time=59\n",
      "note_on channel=3 note=54 velocity=127 time=1\n",
      "note_on channel=3 note=45 velocity=127 time=0\n",
      "note_on channel=3 note=54 velocity=0 time=59\n",
      "note_on channel=3 note=45 velocity=0 time=0\n",
      "note_on channel=3 note=47 velocity=127 time=1\n",
      "note_on channel=3 note=54 velocity=127 time=0\n",
      "note_on channel=3 note=47 velocity=0 time=59\n",
      "note_on channel=3 note=54 velocity=0 time=0\n",
      "note_on channel=3 note=48 velocity=127 time=61\n",
      "note_on channel=3 note=55 velocity=127 time=0\n",
      "note_on channel=3 note=48 velocity=0 time=59\n",
      "note_on channel=3 note=55 velocity=0 time=0\n",
      "note_on channel=3 note=54 velocity=127 time=1\n",
      "note_on channel=3 note=47 velocity=127 time=0\n",
      "note_on channel=3 note=54 velocity=0 time=59\n",
      "note_on channel=3 note=47 velocity=0 time=0\n",
      "note_on channel=3 note=54 velocity=127 time=1\n",
      "note_on channel=3 note=45 velocity=127 time=0\n",
      "note_on channel=3 note=54 velocity=0 time=59\n",
      "note_on channel=3 note=45 velocity=0 time=0\n",
      "note_on channel=3 note=54 velocity=127 time=1\n",
      "note_on channel=3 note=47 velocity=127 time=0\n",
      "note_on channel=3 note=54 velocity=0 time=59\n",
      "note_on channel=3 note=47 velocity=0 time=0\n",
      "note_on channel=3 note=42 velocity=127 time=1\n",
      "note_on channel=3 note=42 velocity=0 time=59\n",
      "note_on channel=3 note=42 velocity=127 time=1\n",
      "note_on channel=3 note=42 velocity=0 time=59\n",
      "note_on channel=3 note=42 velocity=127 time=1\n",
      "note_on channel=3 note=42 velocity=0 time=59\n",
      "note_on channel=3 note=42 velocity=127 time=1\n",
      "note_on channel=3 note=42 velocity=0 time=59\n",
      "note_on channel=3 note=42 velocity=127 time=1\n",
      "note_on channel=3 note=42 velocity=0 time=59\n",
      "note_on channel=3 note=42 velocity=127 time=1\n",
      "note_on channel=3 note=42 velocity=0 time=59\n",
      "note_on channel=3 note=42 velocity=127 time=1\n",
      "note_on channel=3 note=42 velocity=0 time=59\n",
      "note_on channel=3 note=42 velocity=127 time=1\n",
      "note_on channel=3 note=42 velocity=0 time=59\n",
      "note_on channel=3 note=42 velocity=127 time=1\n",
      "note_on channel=3 note=42 velocity=0 time=59\n",
      "note_on channel=3 note=54 velocity=127 time=1\n",
      "note_on channel=3 note=45 velocity=127 time=0\n",
      "note_on channel=3 note=45 velocity=0 time=59\n",
      "note_on channel=3 note=47 velocity=127 time=1\n",
      "note_on channel=3 note=54 velocity=0 time=29\n",
      "note_on channel=3 note=47 velocity=0 time=30\n",
      "note_on channel=3 note=45 velocity=127 time=1\n",
      "note_on channel=3 note=54 velocity=127 time=0\n",
      "note_on channel=3 note=45 velocity=0 time=59\n",
      "note_on channel=3 note=47 velocity=127 time=1\n",
      "note_on channel=3 note=54 velocity=0 time=29\n",
      "note_on channel=3 note=47 velocity=0 time=30\n",
      "note_on channel=3 note=42 velocity=127 time=1\n",
      "note_on channel=3 note=42 velocity=0 time=59\n",
      "note_on channel=3 note=42 velocity=127 time=1\n",
      "note_on channel=3 note=42 velocity=0 time=59\n",
      "note_on channel=3 note=42 velocity=127 time=1\n",
      "note_on channel=3 note=42 velocity=0 time=59\n",
      "note_on channel=3 note=42 velocity=127 time=1\n",
      "note_on channel=3 note=42 velocity=0 time=59\n",
      "note_on channel=3 note=42 velocity=127 time=1\n",
      "note_on channel=3 note=42 velocity=0 time=59\n",
      "note_on channel=3 note=42 velocity=127 time=1\n",
      "note_on channel=3 note=42 velocity=0 time=59\n",
      "note_on channel=3 note=42 velocity=127 time=1\n",
      "note_on channel=3 note=42 velocity=0 time=59\n",
      "note_on channel=3 note=42 velocity=127 time=1\n",
      "note_on channel=3 note=42 velocity=0 time=59\n",
      "note_on channel=3 note=42 velocity=127 time=1\n",
      "note_on channel=3 note=42 velocity=0 time=59\n",
      "note_on channel=3 note=54 velocity=127 time=1\n",
      "note_on channel=3 note=45 velocity=127 time=0\n",
      "note_on channel=3 note=54 velocity=0 time=59\n",
      "note_on channel=3 note=45 velocity=0 time=0\n",
      "note_on channel=3 note=47 velocity=127 time=1\n",
      "note_on channel=3 note=54 velocity=127 time=0\n",
      "note_on channel=3 note=47 velocity=0 time=59\n",
      "note_on channel=3 note=54 velocity=0 time=0\n",
      "note_on channel=3 note=48 velocity=127 time=61\n",
      "note_on channel=3 note=55 velocity=127 time=0\n",
      "note_on channel=3 note=48 velocity=0 time=59\n",
      "note_on channel=3 note=55 velocity=0 time=0\n",
      "note_on channel=3 note=54 velocity=127 time=1\n",
      "note_on channel=3 note=47 velocity=127 time=0\n",
      "note_on channel=3 note=54 velocity=0 time=59\n",
      "note_on channel=3 note=47 velocity=0 time=0\n",
      "note_on channel=3 note=45 velocity=127 time=1\n",
      "note_on channel=3 note=54 velocity=127 time=0\n",
      "note_on channel=3 note=45 velocity=0 time=59\n",
      "note_on channel=3 note=54 velocity=0 time=0\n",
      "note_on channel=3 note=47 velocity=127 time=1\n",
      "note_on channel=3 note=54 velocity=127 time=0\n",
      "note_on channel=3 note=47 velocity=0 time=59\n",
      "note_on channel=3 note=54 velocity=0 time=0\n",
      "note_on channel=3 note=42 velocity=127 time=1\n",
      "note_on channel=3 note=42 velocity=0 time=59\n",
      "note_on channel=3 note=42 velocity=127 time=1\n",
      "note_on channel=3 note=42 velocity=0 time=59\n",
      "note_on channel=3 note=42 velocity=127 time=1\n",
      "note_on channel=3 note=42 velocity=0 time=59\n",
      "note_on channel=3 note=42 velocity=127 time=1\n",
      "note_on channel=3 note=42 velocity=0 time=59\n",
      "note_on channel=3 note=42 velocity=127 time=1\n",
      "note_on channel=3 note=42 velocity=0 time=59\n",
      "note_on channel=3 note=42 velocity=127 time=1\n",
      "note_on channel=3 note=42 velocity=0 time=59\n",
      "note_on channel=3 note=42 velocity=127 time=1\n",
      "note_on channel=3 note=42 velocity=0 time=59\n",
      "note_on channel=3 note=42 velocity=127 time=1\n",
      "note_on channel=3 note=42 velocity=0 time=59\n",
      "note_on channel=3 note=42 velocity=127 time=1\n",
      "note_on channel=3 note=42 velocity=0 time=59\n",
      "note_on channel=3 note=54 velocity=127 time=1\n",
      "note_on channel=3 note=45 velocity=127 time=0\n",
      "note_on channel=3 note=45 velocity=0 time=59\n",
      "note_on channel=3 note=47 velocity=127 time=1\n",
      "note_on channel=3 note=54 velocity=0 time=29\n",
      "note_on channel=3 note=47 velocity=0 time=30\n",
      "note_on channel=3 note=45 velocity=127 time=1\n",
      "note_on channel=3 note=54 velocity=127 time=0\n",
      "note_on channel=3 note=45 velocity=0 time=59\n",
      "note_on channel=3 note=47 velocity=127 time=1\n",
      "note_on channel=3 note=54 velocity=0 time=29\n",
      "note_on channel=3 note=47 velocity=0 time=30\n",
      "note_on channel=3 note=59 velocity=127 time=1\n",
      "note_on channel=3 note=54 velocity=127 time=0\n",
      "note_on channel=3 note=47 velocity=127 time=0\n",
      "note_on channel=3 note=59 velocity=0 time=59\n",
      "note_on channel=3 note=54 velocity=0 time=0\n",
      "note_on channel=3 note=47 velocity=0 time=0\n",
      "note_on channel=3 note=47 velocity=127 time=1\n",
      "note_on channel=3 note=59 velocity=127 time=0\n",
      "note_on channel=3 note=54 velocity=127 time=0\n",
      "note_on channel=3 note=47 velocity=0 time=59\n",
      "note_on channel=3 note=59 velocity=0 time=0\n",
      "note_on channel=3 note=54 velocity=0 time=0\n",
      "note_on channel=3 note=59 velocity=127 time=1\n",
      "note_on channel=3 note=54 velocity=127 time=0\n",
      "note_on channel=3 note=47 velocity=127 time=0\n",
      "note_on channel=3 note=59 velocity=0 time=59\n",
      "note_on channel=3 note=54 velocity=0 time=0\n",
      "note_on channel=3 note=47 velocity=0 time=0\n",
      "note_on channel=3 note=59 velocity=127 time=1\n",
      "note_on channel=3 note=54 velocity=127 time=0\n",
      "note_on channel=3 note=47 velocity=127 time=0\n",
      "note_on channel=3 note=59 velocity=0 time=59\n",
      "note_on channel=3 note=54 velocity=0 time=0\n",
      "note_on channel=3 note=47 velocity=0 time=0\n",
      "note_on channel=3 note=54 velocity=127 time=1\n",
      "note_on channel=3 note=47 velocity=127 time=0\n",
      "note_on channel=3 note=59 velocity=127 time=0\n",
      "note_on channel=3 note=54 velocity=0 time=59\n",
      "note_on channel=3 note=47 velocity=0 time=0\n",
      "note_on channel=3 note=59 velocity=0 time=0\n",
      "note_on channel=3 note=59 velocity=127 time=1\n",
      "note_on channel=3 note=54 velocity=127 time=0\n",
      "note_on channel=3 note=47 velocity=127 time=0\n",
      "note_on channel=3 note=59 velocity=0 time=59\n",
      "note_on channel=3 note=54 velocity=0 time=0\n",
      "note_on channel=3 note=47 velocity=0 time=0\n",
      "note_on channel=3 note=47 velocity=127 time=1\n",
      "note_on channel=3 note=59 velocity=127 time=0\n",
      "note_on channel=3 note=54 velocity=127 time=0\n",
      "note_on channel=3 note=47 velocity=0 time=59\n",
      "note_on channel=3 note=59 velocity=0 time=0\n",
      "note_on channel=3 note=54 velocity=0 time=0\n",
      "note_on channel=3 note=59 velocity=127 time=1\n",
      "note_on channel=3 note=54 velocity=127 time=0\n",
      "note_on channel=3 note=47 velocity=127 time=0\n",
      "note_on channel=3 note=59 velocity=0 time=59\n",
      "note_on channel=3 note=54 velocity=0 time=0\n",
      "note_on channel=3 note=47 velocity=0 time=0\n",
      "note_on channel=3 note=40 velocity=127 time=1\n",
      "note_on channel=3 note=64 velocity=127 time=0\n",
      "note_on channel=3 note=59 velocity=127 time=0\n",
      "note_on channel=3 note=52 velocity=127 time=0\n",
      "note_on channel=3 note=40 velocity=0 time=60\n",
      "note_on channel=3 note=64 velocity=0 time=0\n",
      "note_on channel=3 note=59 velocity=0 time=0\n",
      "note_on channel=3 note=52 velocity=0 time=0\n",
      "note_on channel=3 note=40 velocity=127 time=0\n",
      "note_on channel=3 note=40 velocity=0 time=60\n",
      "note_on channel=3 note=40 velocity=127 time=0\n",
      "note_on channel=3 note=40 velocity=0 time=60\n",
      "note_on channel=3 note=40 velocity=127 time=0\n",
      "note_on channel=3 note=40 velocity=0 time=60\n",
      "note_on channel=3 note=50 velocity=127 time=0\n",
      "note_on channel=3 note=62 velocity=127 time=0\n",
      "note_on channel=3 note=57 velocity=127 time=0\n",
      "note_on channel=3 note=50 velocity=0 time=120\n",
      "note_on channel=3 note=62 velocity=0 time=0\n",
      "note_on channel=3 note=57 velocity=0 time=0\n",
      "note_on channel=3 note=52 velocity=127 time=0\n",
      "note_on channel=3 note=64 velocity=127 time=0\n",
      "note_on channel=3 note=59 velocity=127 time=0\n",
      "note_on channel=3 note=52 velocity=0 time=120\n",
      "note_on channel=3 note=64 velocity=0 time=0\n",
      "note_on channel=3 note=59 velocity=0 time=0\n",
      "note_on channel=3 note=52 velocity=127 time=0\n",
      "note_on channel=3 note=52 velocity=0 time=60\n",
      "note_on channel=3 note=54 velocity=127 time=0\n",
      "note_on channel=3 note=54 velocity=0 time=60\n",
      "note_on channel=3 note=59 velocity=127 time=0\n",
      "note_on channel=3 note=59 velocity=0 time=60\n",
      "note_on channel=3 note=55 velocity=127 time=0\n",
      "note_on channel=3 note=55 velocity=0 time=60\n",
      "note_on channel=3 note=54 velocity=127 time=0\n",
      "note_on channel=3 note=54 velocity=0 time=60\n",
      "note_on channel=3 note=55 velocity=127 time=0\n",
      "control_change channel=3 control=1 value=0 time=0\n",
      "control_change channel=3 control=1 value=7 time=1\n",
      "control_change channel=3 control=1 value=13 time=1\n",
      "control_change channel=3 control=1 value=20 time=1\n",
      "control_change channel=3 control=1 value=26 time=1\n",
      "control_change channel=3 control=1 value=32 time=1\n",
      "control_change channel=3 control=1 value=39 time=1\n",
      "control_change channel=3 control=1 value=45 time=1\n",
      "control_change channel=3 control=1 value=52 time=1\n",
      "control_change channel=3 control=1 value=58 time=1\n",
      "control_change channel=3 control=1 value=64 time=1\n",
      "control_change channel=3 control=1 value=0 time=169\n",
      "note_on channel=3 note=55 velocity=0 time=1\n",
      "note_on channel=3 note=48 velocity=127 time=0\n",
      "note_on channel=3 note=48 velocity=0 time=60\n",
      "note_on channel=3 note=48 velocity=127 time=0\n",
      "note_on channel=3 note=48 velocity=0 time=60\n",
      "note_on channel=3 note=48 velocity=127 time=0\n",
      "note_on channel=3 note=48 velocity=0 time=60\n",
      "note_on channel=3 note=48 velocity=127 time=0\n",
      "note_on channel=3 note=48 velocity=0 time=60\n",
      "note_on channel=3 note=48 velocity=127 time=0\n",
      "note_on channel=3 note=60 velocity=127 time=0\n",
      "note_on channel=3 note=55 velocity=127 time=0\n",
      "note_on channel=3 note=48 velocity=0 time=120\n",
      "note_on channel=3 note=60 velocity=0 time=0\n",
      "note_on channel=3 note=55 velocity=0 time=0\n",
      "note_on channel=3 note=54 velocity=127 time=0\n",
      "note_on channel=3 note=59 velocity=127 time=0\n",
      "note_on channel=3 note=47 velocity=127 time=0\n",
      "note_on channel=3 note=54 velocity=0 time=120\n",
      "note_on channel=3 note=59 velocity=0 time=0\n",
      "note_on channel=3 note=47 velocity=0 time=0\n",
      "note_on channel=3 note=48 velocity=127 time=0\n",
      "note_on channel=3 note=48 velocity=0 time=60\n",
      "note_on channel=3 note=48 velocity=127 time=0\n",
      "note_on channel=3 note=48 velocity=0 time=60\n",
      "note_on channel=3 note=48 velocity=127 time=0\n",
      "note_on channel=3 note=48 velocity=0 time=60\n",
      "note_on channel=3 note=48 velocity=127 time=0\n",
      "note_on channel=3 note=48 velocity=0 time=60\n",
      "note_on channel=3 note=58 velocity=127 time=0\n",
      "note_on channel=3 note=51 velocity=127 time=0\n",
      "note_on channel=3 note=63 velocity=127 time=0\n",
      "note_on channel=3 note=58 velocity=0 time=120\n",
      "note_on channel=3 note=51 velocity=0 time=0\n",
      "note_on channel=3 note=63 velocity=0 time=0\n",
      "note_on channel=3 note=59 velocity=127 time=0\n",
      "note_on channel=3 note=54 velocity=127 time=0\n",
      "note_on channel=3 note=47 velocity=127 time=0\n",
      "note_on channel=3 note=59 velocity=0 time=60\n",
      "note_on channel=3 note=54 velocity=0 time=0\n",
      "note_on channel=3 note=47 velocity=0 time=0\n",
      "note_on channel=3 note=52 velocity=127 time=60\n",
      "note_on channel=3 note=64 velocity=127 time=0\n",
      "note_on channel=3 note=40 velocity=127 time=0\n",
      "note_on channel=3 note=59 velocity=127 time=0\n",
      "note_on channel=3 note=52 velocity=0 time=60\n",
      "note_on channel=3 note=64 velocity=0 time=0\n",
      "note_on channel=3 note=40 velocity=0 time=0\n",
      "note_on channel=3 note=59 velocity=0 time=0\n",
      "note_on channel=3 note=40 velocity=127 time=0\n",
      "note_on channel=3 note=40 velocity=0 time=60\n",
      "note_on channel=3 note=40 velocity=127 time=0\n",
      "note_on channel=3 note=40 velocity=0 time=60\n",
      "note_on channel=3 note=40 velocity=127 time=0\n",
      "note_on channel=3 note=40 velocity=0 time=60\n",
      "note_on channel=3 note=50 velocity=127 time=0\n",
      "note_on channel=3 note=62 velocity=127 time=0\n",
      "note_on channel=3 note=57 velocity=127 time=0\n",
      "note_on channel=3 note=50 velocity=0 time=120\n",
      "note_on channel=3 note=62 velocity=0 time=0\n",
      "note_on channel=3 note=57 velocity=0 time=0\n",
      "note_on channel=3 note=52 velocity=127 time=0\n",
      "note_on channel=3 note=59 velocity=127 time=0\n",
      "note_on channel=3 note=64 velocity=127 time=0\n",
      "note_on channel=3 note=52 velocity=0 time=120\n",
      "note_on channel=3 note=59 velocity=0 time=0\n",
      "note_on channel=3 note=64 velocity=0 time=0\n",
      "note_on channel=3 note=52 velocity=127 time=0\n",
      "note_on channel=3 note=52 velocity=0 time=60\n",
      "note_on channel=3 note=54 velocity=127 time=0\n",
      "note_on channel=3 note=54 velocity=0 time=60\n",
      "note_on channel=3 note=59 velocity=127 time=0\n",
      "note_on channel=3 note=59 velocity=0 time=60\n",
      "note_on channel=3 note=55 velocity=127 time=0\n",
      "note_on channel=3 note=55 velocity=0 time=60\n",
      "note_on channel=3 note=54 velocity=127 time=0\n",
      "note_on channel=3 note=54 velocity=0 time=60\n",
      "note_on channel=3 note=55 velocity=127 time=0\n",
      "control_change channel=3 control=1 value=0 time=0\n",
      "control_change channel=3 control=1 value=7 time=1\n",
      "control_change channel=3 control=1 value=13 time=1\n",
      "control_change channel=3 control=1 value=20 time=1\n",
      "control_change channel=3 control=1 value=26 time=1\n",
      "control_change channel=3 control=1 value=32 time=1\n",
      "control_change channel=3 control=1 value=39 time=1\n",
      "control_change channel=3 control=1 value=45 time=1\n",
      "control_change channel=3 control=1 value=52 time=1\n",
      "control_change channel=3 control=1 value=58 time=1\n",
      "control_change channel=3 control=1 value=64 time=1\n",
      "control_change channel=3 control=1 value=0 time=49\n",
      "note_on channel=3 note=55 velocity=0 time=121\n",
      "note_on channel=3 note=48 velocity=127 time=0\n",
      "note_on channel=3 note=48 velocity=0 time=60\n",
      "note_on channel=3 note=48 velocity=127 time=0\n",
      "note_on channel=3 note=48 velocity=0 time=60\n",
      "note_on channel=3 note=48 velocity=127 time=0\n",
      "note_on channel=3 note=48 velocity=0 time=60\n",
      "note_on channel=3 note=48 velocity=127 time=0\n",
      "note_on channel=3 note=48 velocity=0 time=60\n",
      "note_on channel=3 note=48 velocity=127 time=0\n",
      "note_on channel=3 note=60 velocity=127 time=0\n",
      "note_on channel=3 note=55 velocity=127 time=0\n",
      "note_on channel=3 note=48 velocity=0 time=120\n",
      "note_on channel=3 note=60 velocity=0 time=0\n",
      "note_on channel=3 note=55 velocity=0 time=0\n",
      "note_on channel=3 note=59 velocity=127 time=0\n",
      "note_on channel=3 note=54 velocity=127 time=0\n",
      "note_on channel=3 note=47 velocity=127 time=0\n",
      "note_on channel=3 note=59 velocity=0 time=120\n",
      "note_on channel=3 note=54 velocity=0 time=0\n",
      "note_on channel=3 note=47 velocity=0 time=0\n",
      "note_on channel=3 note=48 velocity=127 time=0\n",
      "note_on channel=3 note=48 velocity=0 time=60\n",
      "note_on channel=3 note=48 velocity=127 time=0\n",
      "note_on channel=3 note=48 velocity=0 time=60\n",
      "note_on channel=3 note=48 velocity=127 time=0\n",
      "note_on channel=3 note=48 velocity=0 time=60\n",
      "note_on channel=3 note=48 velocity=127 time=0\n",
      "note_on channel=3 note=48 velocity=0 time=60\n",
      "note_on channel=3 note=63 velocity=127 time=0\n",
      "note_on channel=3 note=58 velocity=127 time=0\n",
      "note_on channel=3 note=51 velocity=127 time=0\n",
      "note_on channel=3 note=63 velocity=0 time=120\n",
      "note_on channel=3 note=58 velocity=0 time=0\n",
      "note_on channel=3 note=51 velocity=0 time=0\n",
      "note_on channel=3 note=59 velocity=127 time=0\n",
      "note_on channel=3 note=54 velocity=127 time=0\n",
      "note_on channel=3 note=47 velocity=127 time=0\n",
      "note_on channel=3 note=59 velocity=0 time=120\n",
      "note_on channel=3 note=54 velocity=0 time=0\n",
      "note_on channel=3 note=47 velocity=0 time=0\n",
      "note_on channel=3 note=59 velocity=127 time=0\n",
      "note_on channel=3 note=64 velocity=127 time=0\n",
      "note_on channel=3 note=52 velocity=127 time=0\n",
      "note_on channel=3 note=40 velocity=127 time=0\n",
      "note_on channel=3 note=59 velocity=0 time=60\n",
      "note_on channel=3 note=64 velocity=0 time=0\n",
      "note_on channel=3 note=52 velocity=0 time=0\n",
      "note_on channel=3 note=40 velocity=0 time=0\n",
      "note_on channel=3 note=40 velocity=127 time=0\n",
      "note_on channel=3 note=40 velocity=0 time=60\n",
      "note_on channel=3 note=40 velocity=127 time=0\n",
      "note_on channel=3 note=40 velocity=0 time=60\n",
      "note_on channel=3 note=40 velocity=127 time=0\n",
      "note_on channel=3 note=40 velocity=0 time=60\n",
      "note_on channel=3 note=57 velocity=127 time=0\n",
      "note_on channel=3 note=50 velocity=127 time=0\n",
      "note_on channel=3 note=62 velocity=127 time=0\n",
      "note_on channel=3 note=57 velocity=0 time=120\n",
      "note_on channel=3 note=50 velocity=0 time=0\n",
      "note_on channel=3 note=62 velocity=0 time=0\n",
      "note_on channel=3 note=52 velocity=127 time=0\n",
      "note_on channel=3 note=59 velocity=127 time=0\n",
      "note_on channel=3 note=64 velocity=127 time=0\n",
      "note_on channel=3 note=52 velocity=0 time=120\n",
      "note_on channel=3 note=59 velocity=0 time=0\n",
      "note_on channel=3 note=64 velocity=0 time=0\n",
      "note_on channel=3 note=52 velocity=127 time=0\n",
      "note_on channel=3 note=52 velocity=0 time=60\n",
      "note_on channel=3 note=54 velocity=127 time=0\n",
      "note_on channel=3 note=54 velocity=0 time=60\n",
      "note_on channel=3 note=59 velocity=127 time=0\n",
      "note_on channel=3 note=59 velocity=0 time=60\n",
      "note_on channel=3 note=55 velocity=127 time=0\n",
      "note_on channel=3 note=55 velocity=0 time=60\n",
      "note_on channel=3 note=54 velocity=127 time=0\n",
      "note_on channel=3 note=54 velocity=0 time=60\n",
      "note_on channel=3 note=55 velocity=127 time=0\n",
      "control_change channel=3 control=1 value=0 time=0\n",
      "control_change channel=3 control=1 value=7 time=1\n",
      "control_change channel=3 control=1 value=13 time=1\n",
      "control_change channel=3 control=1 value=20 time=1\n",
      "control_change channel=3 control=1 value=26 time=1\n",
      "control_change channel=3 control=1 value=32 time=1\n",
      "control_change channel=3 control=1 value=39 time=1\n",
      "control_change channel=3 control=1 value=45 time=1\n",
      "control_change channel=3 control=1 value=52 time=1\n",
      "control_change channel=3 control=1 value=58 time=1\n",
      "control_change channel=3 control=1 value=64 time=1\n",
      "control_change channel=3 control=1 value=0 time=49\n",
      "note_on channel=3 note=55 velocity=0 time=121\n",
      "note_on channel=3 note=48 velocity=127 time=0\n",
      "note_on channel=3 note=48 velocity=0 time=60\n",
      "note_on channel=3 note=48 velocity=127 time=0\n",
      "note_on channel=3 note=48 velocity=0 time=60\n",
      "note_on channel=3 note=48 velocity=127 time=0\n",
      "note_on channel=3 note=48 velocity=0 time=60\n",
      "note_on channel=3 note=48 velocity=127 time=0\n",
      "note_on channel=3 note=48 velocity=0 time=60\n",
      "note_on channel=3 note=55 velocity=127 time=0\n",
      "note_on channel=3 note=48 velocity=127 time=0\n",
      "note_on channel=3 note=60 velocity=127 time=0\n",
      "note_on channel=3 note=55 velocity=0 time=120\n",
      "note_on channel=3 note=48 velocity=0 time=0\n",
      "note_on channel=3 note=60 velocity=0 time=0\n",
      "note_on channel=3 note=59 velocity=127 time=0\n",
      "note_on channel=3 note=54 velocity=127 time=0\n",
      "note_on channel=3 note=47 velocity=127 time=0\n",
      "note_on channel=3 note=59 velocity=0 time=120\n",
      "note_on channel=3 note=54 velocity=0 time=0\n",
      "note_on channel=3 note=47 velocity=0 time=0\n",
      "note_on channel=3 note=48 velocity=127 time=0\n",
      "note_on channel=3 note=48 velocity=0 time=60\n",
      "note_on channel=3 note=48 velocity=127 time=0\n",
      "note_on channel=3 note=48 velocity=0 time=60\n",
      "note_on channel=3 note=48 velocity=127 time=0\n",
      "note_on channel=3 note=48 velocity=0 time=60\n",
      "note_on channel=3 note=48 velocity=127 time=0\n",
      "note_on channel=3 note=48 velocity=0 time=60\n",
      "note_on channel=3 note=63 velocity=127 time=0\n",
      "note_on channel=3 note=58 velocity=127 time=0\n",
      "note_on channel=3 note=51 velocity=127 time=0\n",
      "note_on channel=3 note=63 velocity=0 time=120\n",
      "note_on channel=3 note=58 velocity=0 time=0\n",
      "note_on channel=3 note=51 velocity=0 time=0\n",
      "note_on channel=3 note=47 velocity=127 time=0\n",
      "note_on channel=3 note=54 velocity=127 time=0\n",
      "note_on channel=3 note=59 velocity=127 time=0\n",
      "note_on channel=3 note=47 velocity=0 time=120\n",
      "note_on channel=3 note=54 velocity=0 time=0\n",
      "note_on channel=3 note=59 velocity=0 time=0\n",
      "note_on channel=3 note=40 velocity=127 time=0\n",
      "note_on channel=3 note=64 velocity=127 time=0\n",
      "note_on channel=3 note=59 velocity=127 time=0\n",
      "note_on channel=3 note=52 velocity=127 time=0\n",
      "note_on channel=3 note=40 velocity=0 time=60\n",
      "note_on channel=3 note=64 velocity=0 time=0\n",
      "note_on channel=3 note=59 velocity=0 time=0\n",
      "note_on channel=3 note=52 velocity=0 time=0\n",
      "note_on channel=3 note=40 velocity=127 time=0\n",
      "note_on channel=3 note=40 velocity=0 time=60\n",
      "note_on channel=3 note=40 velocity=127 time=0\n",
      "note_on channel=3 note=40 velocity=0 time=60\n",
      "note_on channel=3 note=40 velocity=127 time=0\n",
      "note_on channel=3 note=40 velocity=0 time=60\n",
      "note_on channel=3 note=62 velocity=127 time=0\n",
      "note_on channel=3 note=57 velocity=127 time=0\n",
      "note_on channel=3 note=50 velocity=127 time=0\n",
      "note_on channel=3 note=62 velocity=0 time=120\n",
      "note_on channel=3 note=57 velocity=0 time=0\n",
      "note_on channel=3 note=50 velocity=0 time=0\n",
      "note_on channel=3 note=52 velocity=127 time=0\n",
      "note_on channel=3 note=59 velocity=127 time=0\n",
      "note_on channel=3 note=64 velocity=127 time=0\n",
      "note_on channel=3 note=52 velocity=0 time=120\n",
      "note_on channel=3 note=59 velocity=0 time=0\n",
      "note_on channel=3 note=64 velocity=0 time=0\n",
      "note_on channel=3 note=52 velocity=127 time=0\n",
      "note_on channel=3 note=52 velocity=0 time=60\n",
      "note_on channel=3 note=54 velocity=127 time=0\n",
      "note_on channel=3 note=54 velocity=0 time=60\n",
      "note_on channel=3 note=59 velocity=127 time=0\n",
      "note_on channel=3 note=59 velocity=0 time=60\n",
      "note_on channel=3 note=55 velocity=127 time=0\n",
      "note_on channel=3 note=55 velocity=0 time=60\n",
      "note_on channel=3 note=54 velocity=127 time=0\n",
      "note_on channel=3 note=54 velocity=0 time=60\n",
      "note_on channel=3 note=55 velocity=127 time=0\n",
      "control_change channel=3 control=1 value=0 time=0\n",
      "control_change channel=3 control=1 value=7 time=1\n",
      "control_change channel=3 control=1 value=13 time=1\n",
      "control_change channel=3 control=1 value=20 time=1\n",
      "control_change channel=3 control=1 value=26 time=1\n",
      "control_change channel=3 control=1 value=32 time=1\n",
      "control_change channel=3 control=1 value=39 time=1\n",
      "control_change channel=3 control=1 value=45 time=1\n",
      "control_change channel=3 control=1 value=52 time=1\n",
      "control_change channel=3 control=1 value=58 time=1\n",
      "control_change channel=3 control=1 value=64 time=1\n",
      "control_change channel=3 control=1 value=0 time=49\n",
      "note_on channel=3 note=55 velocity=0 time=121\n",
      "note_on channel=3 note=48 velocity=127 time=0\n",
      "note_on channel=3 note=48 velocity=0 time=60\n",
      "note_on channel=3 note=48 velocity=127 time=0\n",
      "note_on channel=3 note=48 velocity=0 time=60\n",
      "note_on channel=3 note=48 velocity=127 time=0\n",
      "note_on channel=3 note=48 velocity=0 time=60\n",
      "note_on channel=3 note=48 velocity=127 time=0\n",
      "note_on channel=3 note=48 velocity=0 time=60\n",
      "note_on channel=3 note=60 velocity=127 time=0\n",
      "note_on channel=3 note=55 velocity=127 time=0\n",
      "note_on channel=3 note=48 velocity=127 time=0\n",
      "note_on channel=3 note=60 velocity=0 time=120\n",
      "note_on channel=3 note=55 velocity=0 time=0\n",
      "note_on channel=3 note=48 velocity=0 time=0\n",
      "note_on channel=3 note=59 velocity=127 time=0\n",
      "note_on channel=3 note=54 velocity=127 time=0\n",
      "note_on channel=3 note=47 velocity=127 time=0\n",
      "note_on channel=3 note=59 velocity=0 time=120\n",
      "note_on channel=3 note=54 velocity=0 time=0\n",
      "note_on channel=3 note=47 velocity=0 time=0\n",
      "note_on channel=3 note=54 velocity=127 time=0\n",
      "note_on channel=3 note=54 velocity=0 time=60\n",
      "note_on channel=3 note=52 velocity=127 time=0\n",
      "note_on channel=3 note=52 velocity=0 time=60\n",
      "note_on channel=3 note=51 velocity=127 time=0\n",
      "note_on channel=3 note=51 velocity=0 time=60\n",
      "note_on channel=3 note=51 velocity=127 time=60\n",
      "note_on channel=3 note=51 velocity=0 time=60\n",
      "note_on channel=3 note=48 velocity=127 time=0\n",
      "note_on channel=3 note=48 velocity=0 time=60\n",
      "note_on channel=3 note=47 velocity=127 time=0\n",
      "note_on channel=3 note=47 velocity=0 time=60\n",
      "note_on channel=3 note=47 velocity=127 time=60\n",
      "note_on channel=3 note=59 velocity=127 time=0\n",
      "note_on channel=3 note=40 velocity=127 time=0\n",
      "note_on channel=3 note=52 velocity=127 time=0\n",
      "note_on channel=3 note=47 velocity=0 time=120\n",
      "note_on channel=3 note=59 velocity=0 time=0\n",
      "note_on channel=3 note=40 velocity=0 time=0\n",
      "note_on channel=3 note=52 velocity=0 time=0\n",
      "note_on channel=3 note=59 velocity=127 time=0\n",
      "note_on channel=3 note=52 velocity=127 time=0\n",
      "note_on channel=3 note=47 velocity=127 time=0\n",
      "note_on channel=3 note=40 velocity=127 time=0\n",
      "note_on channel=3 note=59 velocity=0 time=120\n",
      "note_on channel=3 note=52 velocity=0 time=0\n",
      "note_on channel=3 note=47 velocity=0 time=0\n",
      "note_on channel=3 note=40 velocity=0 time=0\n",
      "note_on channel=3 note=53 velocity=127 time=240\n",
      "note_on channel=3 note=57 velocity=127 time=0\n",
      "note_on channel=3 note=41 velocity=127 time=0\n",
      "note_on channel=3 note=48 velocity=127 time=0\n",
      "note_on channel=3 note=53 velocity=0 time=120\n",
      "note_on channel=3 note=57 velocity=0 time=0\n",
      "note_on channel=3 note=41 velocity=0 time=0\n",
      "note_on channel=3 note=48 velocity=0 time=0\n",
      "note_on channel=3 note=57 velocity=127 time=0\n",
      "note_on channel=3 note=53 velocity=127 time=0\n",
      "note_on channel=3 note=48 velocity=127 time=0\n",
      "note_on channel=3 note=41 velocity=127 time=0\n",
      "note_on channel=3 note=57 velocity=0 time=120\n",
      "note_on channel=3 note=53 velocity=0 time=0\n",
      "note_on channel=3 note=48 velocity=0 time=0\n",
      "note_on channel=3 note=41 velocity=0 time=0\n",
      "note_on channel=3 note=47 velocity=127 time=240\n",
      "note_on channel=3 note=59 velocity=127 time=0\n",
      "note_on channel=3 note=40 velocity=127 time=0\n",
      "note_on channel=3 note=52 velocity=127 time=0\n",
      "note_on channel=3 note=47 velocity=0 time=300\n",
      "note_on channel=3 note=59 velocity=0 time=0\n",
      "note_on channel=3 note=40 velocity=0 time=0\n",
      "note_on channel=3 note=52 velocity=0 time=0\n",
      "note_on channel=3 note=40 velocity=127 time=0\n",
      "note_on channel=3 note=40 velocity=0 time=60\n",
      "note_on channel=3 note=40 velocity=127 time=0\n",
      "note_on channel=3 note=40 velocity=0 time=60\n",
      "note_on channel=3 note=40 velocity=127 time=0\n",
      "note_on channel=3 note=40 velocity=0 time=60\n",
      "note_on channel=3 note=42 velocity=127 time=0\n",
      "note_on channel=3 note=42 velocity=0 time=60\n",
      "note_on channel=3 note=40 velocity=127 time=0\n",
      "note_on channel=3 note=40 velocity=0 time=60\n",
      "note_on channel=3 note=40 velocity=127 time=0\n",
      "note_on channel=3 note=40 velocity=0 time=60\n",
      "note_on channel=3 note=40 velocity=127 time=0\n",
      "note_on channel=3 note=40 velocity=0 time=60\n",
      "note_on channel=3 note=59 velocity=127 time=0\n",
      "note_on channel=3 note=55 velocity=127 time=0\n",
      "note_on channel=3 note=50 velocity=127 time=0\n",
      "note_on channel=3 note=43 velocity=127 time=0\n",
      "note_on channel=3 note=59 velocity=0 time=960\n",
      "note_on channel=3 note=55 velocity=0 time=0\n",
      "note_on channel=3 note=50 velocity=0 time=0\n",
      "note_on channel=3 note=43 velocity=0 time=0\n",
      "note_on channel=3 note=55 velocity=127 time=0\n",
      "note_on channel=3 note=48 velocity=127 time=0\n",
      "note_on channel=3 note=60 velocity=127 time=0\n",
      "note_on channel=3 note=55 velocity=0 time=300\n",
      "note_on channel=3 note=48 velocity=0 time=0\n",
      "note_on channel=3 note=60 velocity=0 time=0\n",
      "note_on channel=3 note=45 velocity=127 time=0\n",
      "note_on channel=3 note=45 velocity=0 time=60\n",
      "note_on channel=3 note=45 velocity=127 time=0\n",
      "note_on channel=3 note=45 velocity=0 time=60\n",
      "note_on channel=3 note=45 velocity=127 time=0\n",
      "note_on channel=3 note=45 velocity=0 time=60\n",
      "note_on channel=3 note=54 velocity=127 time=0\n",
      "note_on channel=3 note=47 velocity=127 time=0\n",
      "note_on channel=3 note=54 velocity=0 time=60\n",
      "note_on channel=3 note=47 velocity=0 time=0\n",
      "note_on channel=3 note=45 velocity=127 time=0\n",
      "note_on channel=3 note=45 velocity=0 time=60\n",
      "note_on channel=3 note=45 velocity=127 time=0\n",
      "note_on channel=3 note=45 velocity=0 time=60\n",
      "note_on channel=3 note=45 velocity=127 time=0\n",
      "note_on channel=3 note=45 velocity=0 time=60\n",
      "note_on channel=3 note=57 velocity=127 time=0\n",
      "note_on channel=3 note=52 velocity=127 time=0\n",
      "note_on channel=3 note=45 velocity=127 time=0\n",
      "note_on channel=3 note=57 velocity=0 time=960\n",
      "note_on channel=3 note=52 velocity=0 time=0\n",
      "note_on channel=3 note=45 velocity=0 time=0\n",
      "note_on channel=3 note=62 velocity=127 time=0\n",
      "note_on channel=3 note=66 velocity=127 time=0\n",
      "note_on channel=3 note=57 velocity=127 time=0\n",
      "note_on channel=3 note=50 velocity=127 time=0\n",
      "note_on channel=3 note=62 velocity=0 time=300\n",
      "note_on channel=3 note=66 velocity=0 time=0\n",
      "note_on channel=3 note=57 velocity=0 time=0\n",
      "note_on channel=3 note=50 velocity=0 time=0\n",
      "note_on channel=3 note=43 velocity=127 time=0\n",
      "note_on channel=3 note=43 velocity=0 time=60\n",
      "note_on channel=3 note=43 velocity=127 time=0\n",
      "note_on channel=3 note=43 velocity=0 time=60\n",
      "note_on channel=3 note=43 velocity=127 time=0\n",
      "note_on channel=3 note=43 velocity=0 time=60\n",
      "note_on channel=3 note=55 velocity=127 time=0\n",
      "note_on channel=3 note=48 velocity=127 time=0\n",
      "note_on channel=3 note=55 velocity=0 time=60\n",
      "note_on channel=3 note=48 velocity=0 time=0\n",
      "note_on channel=3 note=43 velocity=127 time=0\n",
      "note_on channel=3 note=43 velocity=0 time=60\n",
      "note_on channel=3 note=43 velocity=127 time=0\n",
      "note_on channel=3 note=43 velocity=0 time=60\n",
      "note_on channel=3 note=43 velocity=127 time=0\n",
      "note_on channel=3 note=43 velocity=0 time=60\n",
      "note_on channel=3 note=47 velocity=127 time=0\n",
      "note_on channel=3 note=63 velocity=127 time=0\n",
      "note_on channel=3 note=59 velocity=127 time=0\n",
      "note_on channel=3 note=54 velocity=127 time=0\n",
      "note_on channel=3 note=47 velocity=0 time=480\n",
      "note_on channel=3 note=63 velocity=0 time=0\n",
      "note_on channel=3 note=59 velocity=0 time=0\n",
      "note_on channel=3 note=54 velocity=0 time=0\n",
      "note_on channel=3 note=64 velocity=127 time=0\n",
      "note_on channel=3 note=59 velocity=127 time=0\n",
      "note_on channel=3 note=52 velocity=127 time=0\n",
      "note_on channel=3 note=40 velocity=127 time=0\n",
      "note_on channel=3 note=64 velocity=0 time=300\n",
      "note_on channel=3 note=59 velocity=0 time=0\n",
      "note_on channel=3 note=52 velocity=0 time=0\n",
      "note_on channel=3 note=40 velocity=0 time=0\n",
      "note_on channel=3 note=40 velocity=127 time=0\n",
      "note_on channel=3 note=40 velocity=0 time=60\n",
      "note_on channel=3 note=40 velocity=127 time=0\n",
      "note_on channel=3 note=40 velocity=0 time=60\n",
      "note_on channel=3 note=40 velocity=127 time=0\n",
      "note_on channel=3 note=40 velocity=0 time=60\n",
      "note_on channel=3 note=62 velocity=127 time=0\n",
      "note_on channel=3 note=57 velocity=127 time=0\n",
      "note_on channel=3 note=50 velocity=127 time=0\n",
      "note_on channel=3 note=62 velocity=0 time=120\n",
      "note_on channel=3 note=57 velocity=0 time=0\n",
      "note_on channel=3 note=50 velocity=0 time=0\n",
      "note_on channel=3 note=40 velocity=127 time=0\n",
      "note_on channel=3 note=40 velocity=0 time=60\n",
      "note_on channel=3 note=40 velocity=127 time=0\n",
      "note_on channel=3 note=40 velocity=0 time=60\n",
      "note_on channel=3 note=55 velocity=127 time=0\n",
      "note_on channel=3 note=60 velocity=127 time=0\n",
      "note_on channel=3 note=48 velocity=127 time=0\n",
      "note_on channel=3 note=64 velocity=127 time=0\n",
      "note_on channel=3 note=55 velocity=0 time=720\n",
      "note_on channel=3 note=60 velocity=0 time=0\n",
      "note_on channel=3 note=48 velocity=0 time=0\n",
      "note_on channel=3 note=64 velocity=0 time=0\n",
      "note_on channel=3 note=59 velocity=127 time=0\n",
      "note_on channel=3 note=52 velocity=127 time=0\n",
      "note_on channel=3 note=47 velocity=127 time=0\n",
      "note_on channel=3 note=40 velocity=127 time=0\n",
      "note_on channel=3 note=59 velocity=0 time=120\n",
      "note_on channel=3 note=52 velocity=0 time=0\n",
      "note_on channel=3 note=47 velocity=0 time=0\n",
      "note_on channel=3 note=40 velocity=0 time=0\n",
      "note_on channel=3 note=47 velocity=127 time=0\n",
      "note_on channel=3 note=40 velocity=127 time=0\n",
      "note_on channel=3 note=52 velocity=127 time=0\n",
      "note_on channel=3 note=59 velocity=127 time=0\n",
      "note_on channel=3 note=47 velocity=0 time=120\n",
      "note_on channel=3 note=40 velocity=0 time=0\n",
      "note_on channel=3 note=52 velocity=0 time=0\n",
      "note_on channel=3 note=59 velocity=0 time=0\n",
      "note_on channel=3 note=57 velocity=127 time=240\n",
      "note_on channel=3 note=41 velocity=127 time=0\n",
      "note_on channel=3 note=53 velocity=127 time=0\n",
      "note_on channel=3 note=48 velocity=127 time=0\n",
      "note_on channel=3 note=57 velocity=0 time=120\n",
      "note_on channel=3 note=41 velocity=0 time=0\n",
      "note_on channel=3 note=53 velocity=0 time=0\n",
      "note_on channel=3 note=48 velocity=0 time=0\n",
      "note_on channel=3 note=41 velocity=127 time=0\n",
      "note_on channel=3 note=57 velocity=127 time=0\n",
      "note_on channel=3 note=53 velocity=127 time=0\n",
      "note_on channel=3 note=48 velocity=127 time=0\n",
      "note_on channel=3 note=41 velocity=0 time=120\n",
      "note_on channel=3 note=57 velocity=0 time=0\n",
      "note_on channel=3 note=53 velocity=0 time=0\n",
      "note_on channel=3 note=48 velocity=0 time=0\n",
      "note_on channel=3 note=40 velocity=127 time=240\n",
      "note_on channel=3 note=59 velocity=127 time=0\n",
      "note_on channel=3 note=52 velocity=127 time=0\n",
      "note_on channel=3 note=47 velocity=127 time=0\n",
      "note_on channel=3 note=40 velocity=0 time=300\n",
      "note_on channel=3 note=59 velocity=0 time=0\n",
      "note_on channel=3 note=52 velocity=0 time=0\n",
      "note_on channel=3 note=47 velocity=0 time=0\n",
      "note_on channel=3 note=40 velocity=127 time=0\n",
      "note_on channel=3 note=40 velocity=0 time=60\n",
      "note_on channel=3 note=40 velocity=127 time=0\n",
      "note_on channel=3 note=40 velocity=0 time=60\n",
      "note_on channel=3 note=40 velocity=127 time=0\n",
      "note_on channel=3 note=40 velocity=0 time=60\n",
      "note_on channel=3 note=42 velocity=127 time=0\n",
      "note_on channel=3 note=42 velocity=0 time=60\n",
      "note_on channel=3 note=40 velocity=127 time=0\n",
      "note_on channel=3 note=40 velocity=0 time=60\n",
      "note_on channel=3 note=40 velocity=127 time=0\n",
      "note_on channel=3 note=40 velocity=0 time=60\n",
      "note_on channel=3 note=40 velocity=127 time=0\n",
      "note_on channel=3 note=40 velocity=0 time=60\n",
      "note_on channel=3 note=60 velocity=127 time=0\n",
      "note_on channel=3 note=64 velocity=127 time=0\n",
      "note_on channel=3 note=55 velocity=127 time=0\n",
      "note_on channel=3 note=48 velocity=127 time=0\n",
      "note_on channel=3 note=60 velocity=0 time=960\n",
      "note_on channel=3 note=64 velocity=0 time=0\n",
      "note_on channel=3 note=55 velocity=0 time=0\n",
      "note_on channel=3 note=48 velocity=0 time=0\n",
      "note_on channel=3 note=47 velocity=127 time=0\n",
      "note_on channel=3 note=59 velocity=127 time=0\n",
      "note_on channel=3 note=40 velocity=127 time=0\n",
      "note_on channel=3 note=52 velocity=127 time=0\n",
      "note_on channel=3 note=47 velocity=0 time=120\n",
      "note_on channel=3 note=59 velocity=0 time=0\n",
      "note_on channel=3 note=40 velocity=0 time=0\n",
      "note_on channel=3 note=52 velocity=0 time=0\n",
      "note_on channel=3 note=40 velocity=127 time=0\n",
      "note_on channel=3 note=47 velocity=127 time=0\n",
      "note_on channel=3 note=52 velocity=127 time=0\n",
      "note_on channel=3 note=59 velocity=127 time=0\n",
      "note_on channel=3 note=40 velocity=0 time=120\n",
      "note_on channel=3 note=47 velocity=0 time=0\n",
      "note_on channel=3 note=52 velocity=0 time=0\n",
      "note_on channel=3 note=59 velocity=0 time=0\n",
      "note_on channel=3 note=53 velocity=127 time=240\n",
      "note_on channel=3 note=57 velocity=127 time=0\n",
      "note_on channel=3 note=48 velocity=127 time=0\n",
      "note_on channel=3 note=41 velocity=127 time=0\n",
      "note_on channel=3 note=53 velocity=0 time=120\n",
      "note_on channel=3 note=57 velocity=0 time=0\n",
      "note_on channel=3 note=48 velocity=0 time=0\n",
      "note_on channel=3 note=41 velocity=0 time=0\n",
      "note_on channel=3 note=57 velocity=127 time=0\n",
      "note_on channel=3 note=41 velocity=127 time=0\n",
      "note_on channel=3 note=53 velocity=127 time=0\n",
      "note_on channel=3 note=48 velocity=127 time=0\n",
      "note_on channel=3 note=57 velocity=0 time=120\n",
      "note_on channel=3 note=41 velocity=0 time=0\n",
      "note_on channel=3 note=53 velocity=0 time=0\n",
      "note_on channel=3 note=48 velocity=0 time=0\n",
      "note_on channel=3 note=40 velocity=127 time=240\n",
      "note_on channel=3 note=40 velocity=0 time=60\n",
      "note_on channel=3 note=41 velocity=127 time=0\n",
      "note_on channel=3 note=41 velocity=0 time=60\n",
      "note_on channel=3 note=47 velocity=127 time=0\n",
      "note_on channel=3 note=47 velocity=0 time=60\n",
      "note_on channel=3 note=40 velocity=127 time=0\n",
      "note_on channel=3 note=40 velocity=0 time=60\n",
      "note_on channel=3 note=41 velocity=127 time=0\n",
      "note_on channel=3 note=41 velocity=0 time=60\n",
      "note_on channel=3 note=48 velocity=127 time=0\n",
      "note_on channel=3 note=48 velocity=0 time=60\n",
      "note_on channel=3 note=40 velocity=127 time=0\n",
      "note_on channel=3 note=40 velocity=0 time=60\n",
      "note_on channel=3 note=41 velocity=127 time=0\n",
      "note_on channel=3 note=41 velocity=0 time=60\n",
      "note_on channel=3 note=49 velocity=127 time=0\n",
      "note_on channel=3 note=49 velocity=0 time=60\n",
      "note_on channel=3 note=40 velocity=127 time=0\n",
      "note_on channel=3 note=40 velocity=0 time=60\n",
      "note_on channel=3 note=41 velocity=127 time=0\n",
      "note_on channel=3 note=41 velocity=0 time=60\n",
      "note_on channel=3 note=48 velocity=127 time=0\n",
      "note_on channel=3 note=48 velocity=0 time=60\n",
      "note_on channel=3 note=40 velocity=127 time=0\n",
      "note_on channel=3 note=40 velocity=0 time=60\n",
      "note_on channel=3 note=41 velocity=127 time=0\n",
      "note_on channel=3 note=41 velocity=0 time=60\n",
      "note_on channel=3 note=47 velocity=127 time=0\n",
      "note_on channel=3 note=47 velocity=0 time=60\n",
      "note_on channel=3 note=47 velocity=127 time=0\n",
      "note_on channel=3 note=47 velocity=0 time=60\n",
      "note_on channel=3 note=40 velocity=127 time=0\n",
      "note_on channel=3 note=40 velocity=0 time=60\n",
      "note_on channel=3 note=41 velocity=127 time=0\n",
      "note_on channel=3 note=41 velocity=0 time=60\n",
      "note_on channel=3 note=47 velocity=127 time=0\n",
      "note_on channel=3 note=47 velocity=0 time=60\n",
      "note_on channel=3 note=40 velocity=127 time=0\n",
      "note_on channel=3 note=40 velocity=0 time=60\n",
      "note_on channel=3 note=41 velocity=127 time=0\n",
      "note_on channel=3 note=41 velocity=0 time=60\n",
      "note_on channel=3 note=48 velocity=127 time=0\n",
      "note_on channel=3 note=48 velocity=0 time=60\n",
      "note_on channel=3 note=41 velocity=127 time=0\n",
      "note_on channel=3 note=41 velocity=0 time=60\n",
      "note_on channel=3 note=40 velocity=127 time=0\n",
      "note_on channel=3 note=40 velocity=0 time=60\n",
      "note_on channel=3 note=49 velocity=127 time=0\n",
      "note_on channel=3 note=49 velocity=0 time=60\n",
      "note_on channel=3 note=40 velocity=127 time=0\n",
      "note_on channel=3 note=40 velocity=0 time=60\n",
      "note_on channel=3 note=41 velocity=127 time=0\n",
      "note_on channel=3 note=41 velocity=0 time=60\n",
      "note_on channel=3 note=48 velocity=127 time=0\n",
      "note_on channel=3 note=48 velocity=0 time=60\n",
      "note_on channel=3 note=41 velocity=127 time=0\n",
      "note_on channel=3 note=41 velocity=0 time=60\n",
      "note_on channel=3 note=40 velocity=127 time=0\n",
      "note_on channel=3 note=40 velocity=0 time=60\n",
      "note_on channel=3 note=59 velocity=127 time=0\n",
      "note_on channel=3 note=54 velocity=127 time=0\n",
      "note_on channel=3 note=47 velocity=127 time=0\n",
      "note_on channel=3 note=59 velocity=0 time=120\n",
      "note_on channel=3 note=54 velocity=0 time=0\n",
      "note_on channel=3 note=47 velocity=0 time=0\n",
      "note_on channel=3 note=40 velocity=127 time=0\n",
      "note_on channel=3 note=40 velocity=0 time=60\n",
      "note_on channel=3 note=41 velocity=127 time=0\n",
      "note_on channel=3 note=41 velocity=0 time=60\n",
      "note_on channel=3 note=47 velocity=127 time=0\n",
      "note_on channel=3 note=47 velocity=0 time=60\n",
      "note_on channel=3 note=40 velocity=127 time=0\n",
      "note_on channel=3 note=40 velocity=0 time=60\n",
      "note_on channel=3 note=41 velocity=127 time=0\n",
      "note_on channel=3 note=41 velocity=0 time=60\n",
      "note_on channel=3 note=48 velocity=127 time=0\n",
      "note_on channel=3 note=48 velocity=0 time=60\n",
      "note_on channel=3 note=40 velocity=127 time=0\n",
      "note_on channel=3 note=40 velocity=0 time=60\n",
      "note_on channel=3 note=41 velocity=127 time=0\n",
      "note_on channel=3 note=41 velocity=0 time=60\n",
      "note_on channel=3 note=49 velocity=127 time=0\n",
      "note_on channel=3 note=49 velocity=0 time=60\n",
      "note_on channel=3 note=40 velocity=127 time=0\n",
      "note_on channel=3 note=40 velocity=0 time=60\n",
      "note_on channel=3 note=41 velocity=127 time=0\n",
      "note_on channel=3 note=41 velocity=0 time=60\n",
      "note_on channel=3 note=48 velocity=127 time=0\n",
      "note_on channel=3 note=48 velocity=0 time=60\n",
      "note_on channel=3 note=40 velocity=127 time=0\n",
      "note_on channel=3 note=40 velocity=0 time=60\n",
      "note_on channel=3 note=41 velocity=127 time=0\n",
      "note_on channel=3 note=41 velocity=0 time=60\n",
      "note_on channel=3 note=47 velocity=127 time=0\n",
      "note_on channel=3 note=47 velocity=0 time=60\n",
      "note_on channel=3 note=47 velocity=127 time=0\n",
      "note_on channel=3 note=47 velocity=0 time=60\n",
      "note_on channel=3 note=40 velocity=127 time=0\n",
      "note_on channel=3 note=40 velocity=0 time=60\n",
      "note_on channel=3 note=41 velocity=127 time=0\n",
      "note_on channel=3 note=41 velocity=0 time=60\n",
      "note_on channel=3 note=47 velocity=127 time=0\n",
      "note_on channel=3 note=47 velocity=0 time=60\n",
      "note_on channel=3 note=40 velocity=127 time=0\n",
      "note_on channel=3 note=40 velocity=0 time=60\n",
      "note_on channel=3 note=41 velocity=127 time=0\n",
      "note_on channel=3 note=41 velocity=0 time=60\n",
      "note_on channel=3 note=48 velocity=127 time=0\n",
      "note_on channel=3 note=48 velocity=0 time=60\n",
      "note_on channel=3 note=41 velocity=127 time=0\n",
      "note_on channel=3 note=41 velocity=0 time=60\n",
      "note_on channel=3 note=40 velocity=127 time=0\n",
      "note_on channel=3 note=40 velocity=0 time=60\n",
      "note_on channel=3 note=50 velocity=127 time=0\n",
      "note_on channel=3 note=43 velocity=127 time=0\n",
      "note_on channel=3 note=50 velocity=0 time=48\n",
      "note_on channel=3 note=43 velocity=0 time=0\n",
      "note_on channel=3 note=42 velocity=127 time=12\n",
      "note_on channel=3 note=49 velocity=127 time=0\n",
      "note_on channel=3 note=42 velocity=0 time=48\n",
      "note_on channel=3 note=49 velocity=0 time=0\n",
      "note_on channel=3 note=40 velocity=127 time=12\n",
      "note_on channel=3 note=40 velocity=0 time=48\n",
      "note_on channel=3 note=43 velocity=127 time=12\n",
      "note_on channel=3 note=50 velocity=127 time=0\n",
      "note_on channel=3 note=43 velocity=0 time=48\n",
      "note_on channel=3 note=50 velocity=0 time=0\n",
      "note_on channel=3 note=42 velocity=127 time=12\n",
      "note_on channel=3 note=49 velocity=127 time=0\n",
      "note_on channel=3 note=42 velocity=0 time=48\n",
      "note_on channel=3 note=49 velocity=0 time=0\n",
      "note_on channel=3 note=40 velocity=127 time=12\n",
      "note_on channel=3 note=40 velocity=0 time=48\n",
      "note_on channel=3 note=50 velocity=127 time=12\n",
      "note_on channel=3 note=43 velocity=127 time=0\n",
      "note_on channel=3 note=50 velocity=0 time=48\n",
      "note_on channel=3 note=43 velocity=0 time=0\n",
      "note_on channel=3 note=49 velocity=127 time=12\n",
      "note_on channel=3 note=42 velocity=127 time=0\n",
      "note_on channel=3 note=49 velocity=0 time=48\n",
      "note_on channel=3 note=42 velocity=0 time=0\n",
      "note_on channel=3 note=43 velocity=127 time=12\n",
      "note_on channel=3 note=50 velocity=127 time=0\n",
      "note_on channel=3 note=43 velocity=0 time=48\n",
      "note_on channel=3 note=50 velocity=0 time=0\n",
      "note_on channel=3 note=42 velocity=127 time=12\n",
      "note_on channel=3 note=49 velocity=127 time=0\n",
      "note_on channel=3 note=42 velocity=0 time=48\n",
      "note_on channel=3 note=49 velocity=0 time=0\n",
      "note_on channel=3 note=40 velocity=127 time=12\n",
      "note_on channel=3 note=40 velocity=0 time=48\n",
      "note_on channel=3 note=43 velocity=127 time=12\n",
      "note_on channel=3 note=50 velocity=127 time=0\n",
      "note_on channel=3 note=43 velocity=0 time=48\n",
      "note_on channel=3 note=50 velocity=0 time=0\n",
      "note_on channel=3 note=42 velocity=127 time=12\n",
      "note_on channel=3 note=49 velocity=127 time=0\n",
      "note_on channel=3 note=42 velocity=0 time=48\n",
      "note_on channel=3 note=49 velocity=0 time=0\n",
      "note_on channel=3 note=40 velocity=127 time=12\n",
      "note_on channel=3 note=40 velocity=0 time=48\n",
      "note_on channel=3 note=50 velocity=127 time=12\n",
      "note_on channel=3 note=43 velocity=127 time=0\n",
      "note_on channel=3 note=50 velocity=0 time=48\n",
      "note_on channel=3 note=43 velocity=0 time=0\n",
      "note_on channel=3 note=49 velocity=127 time=12\n",
      "note_on channel=3 note=42 velocity=127 time=0\n",
      "note_on channel=3 note=49 velocity=0 time=48\n",
      "note_on channel=3 note=42 velocity=0 time=0\n",
      "note_on channel=3 note=40 velocity=127 time=12\n",
      "note_on channel=3 note=40 velocity=0 time=59\n",
      "note_on channel=3 note=40 velocity=127 time=1\n",
      "note_on channel=3 note=40 velocity=0 time=59\n",
      "note_on channel=3 note=40 velocity=127 time=1\n",
      "note_on channel=3 note=40 velocity=0 time=59\n",
      "note_on channel=3 note=40 velocity=127 time=1\n",
      "note_on channel=3 note=40 velocity=0 time=59\n",
      "note_on channel=3 note=40 velocity=127 time=1\n",
      "note_on channel=3 note=40 velocity=0 time=59\n",
      "note_on channel=3 note=40 velocity=127 time=1\n",
      "note_on channel=3 note=40 velocity=0 time=59\n",
      "note_on channel=3 note=40 velocity=127 time=1\n",
      "note_on channel=3 note=40 velocity=0 time=59\n",
      "note_on channel=3 note=40 velocity=127 time=1\n",
      "note_on channel=3 note=40 velocity=0 time=59\n",
      "note_on channel=3 note=40 velocity=127 time=1\n",
      "note_on channel=3 note=40 velocity=0 time=59\n",
      "note_on channel=3 note=43 velocity=127 time=1\n",
      "note_on channel=3 note=50 velocity=127 time=0\n",
      "note_on channel=3 note=43 velocity=0 time=59\n",
      "note_on channel=3 note=50 velocity=0 time=0\n",
      "note_on channel=3 note=52 velocity=127 time=1\n",
      "note_on channel=3 note=45 velocity=127 time=0\n",
      "note_on channel=3 note=52 velocity=0 time=59\n",
      "note_on channel=3 note=45 velocity=0 time=0\n",
      "note_on channel=3 note=40 velocity=127 time=1\n",
      "note_on channel=3 note=40 velocity=0 time=59\n",
      "note_on channel=3 note=46 velocity=127 time=1\n",
      "note_on channel=3 note=53 velocity=127 time=0\n",
      "note_on channel=3 note=46 velocity=0 time=59\n",
      "note_on channel=3 note=53 velocity=0 time=0\n",
      "note_on channel=3 note=45 velocity=127 time=1\n",
      "note_on channel=3 note=52 velocity=127 time=0\n",
      "note_on channel=3 note=45 velocity=0 time=59\n",
      "note_on channel=3 note=52 velocity=0 time=0\n",
      "note_on channel=3 note=50 velocity=127 time=1\n",
      "note_on channel=3 note=43 velocity=127 time=0\n",
      "note_on channel=3 note=50 velocity=0 time=59\n",
      "note_on channel=3 note=43 velocity=0 time=0\n",
      "note_on channel=3 note=40 velocity=127 time=61\n",
      "note_on channel=3 note=40 velocity=0 time=59\n",
      "note_on channel=3 note=40 velocity=127 time=1\n",
      "note_on channel=3 note=40 velocity=0 time=59\n",
      "note_on channel=3 note=40 velocity=127 time=1\n",
      "note_on channel=3 note=40 velocity=0 time=59\n",
      "note_on channel=3 note=40 velocity=127 time=1\n",
      "note_on channel=3 note=40 velocity=0 time=59\n",
      "note_on channel=3 note=40 velocity=127 time=1\n",
      "note_on channel=3 note=40 velocity=0 time=59\n",
      "note_on channel=3 note=40 velocity=127 time=1\n",
      "note_on channel=3 note=40 velocity=0 time=59\n",
      "note_on channel=3 note=40 velocity=127 time=1\n",
      "note_on channel=3 note=40 velocity=0 time=59\n",
      "note_on channel=3 note=40 velocity=127 time=1\n",
      "note_on channel=3 note=40 velocity=0 time=59\n",
      "note_on channel=3 note=40 velocity=127 time=1\n",
      "note_on channel=3 note=40 velocity=0 time=59\n",
      "note_on channel=3 note=50 velocity=127 time=1\n",
      "note_on channel=3 note=43 velocity=127 time=0\n",
      "note_on channel=3 note=50 velocity=0 time=59\n",
      "note_on channel=3 note=43 velocity=0 time=0\n",
      "note_on channel=3 note=45 velocity=127 time=1\n",
      "note_on channel=3 note=52 velocity=127 time=0\n",
      "note_on channel=3 note=45 velocity=0 time=59\n",
      "note_on channel=3 note=52 velocity=0 time=0\n",
      "note_on channel=3 note=50 velocity=127 time=1\n",
      "note_on channel=3 note=43 velocity=127 time=0\n",
      "note_on channel=3 note=50 velocity=0 time=59\n",
      "note_on channel=3 note=43 velocity=0 time=0\n",
      "note_on channel=3 note=52 velocity=127 time=1\n",
      "note_on channel=3 note=45 velocity=127 time=0\n",
      "note_on channel=3 note=52 velocity=0 time=59\n",
      "note_on channel=3 note=45 velocity=0 time=0\n",
      "note_on channel=3 note=40 velocity=127 time=1\n",
      "note_on channel=3 note=40 velocity=0 time=59\n",
      "note_on channel=3 note=40 velocity=127 time=1\n",
      "note_on channel=3 note=40 velocity=0 time=59\n",
      "note_on channel=3 note=40 velocity=127 time=1\n",
      "note_on channel=3 note=40 velocity=0 time=59\n",
      "note_on channel=3 note=40 velocity=127 time=1\n",
      "note_on channel=3 note=40 velocity=0 time=59\n",
      "note_on channel=3 note=40 velocity=127 time=1\n",
      "note_on channel=3 note=40 velocity=0 time=59\n",
      "note_on channel=3 note=40 velocity=127 time=1\n",
      "note_on channel=3 note=40 velocity=0 time=59\n",
      "note_on channel=3 note=40 velocity=127 time=1\n",
      "note_on channel=3 note=40 velocity=0 time=59\n",
      "note_on channel=3 note=40 velocity=127 time=1\n",
      "note_on channel=3 note=40 velocity=0 time=59\n",
      "note_on channel=3 note=40 velocity=127 time=1\n",
      "note_on channel=3 note=40 velocity=0 time=59\n",
      "note_on channel=3 note=43 velocity=127 time=1\n",
      "note_on channel=3 note=50 velocity=127 time=0\n",
      "note_on channel=3 note=43 velocity=0 time=59\n",
      "note_on channel=3 note=50 velocity=0 time=0\n",
      "note_on channel=3 note=52 velocity=127 time=1\n",
      "note_on channel=3 note=45 velocity=127 time=0\n",
      "note_on channel=3 note=52 velocity=0 time=59\n",
      "note_on channel=3 note=45 velocity=0 time=0\n",
      "note_on channel=3 note=40 velocity=127 time=1\n",
      "note_on channel=3 note=40 velocity=0 time=59\n",
      "note_on channel=3 note=46 velocity=127 time=1\n",
      "note_on channel=3 note=53 velocity=127 time=0\n",
      "note_on channel=3 note=46 velocity=0 time=59\n",
      "note_on channel=3 note=53 velocity=0 time=0\n",
      "note_on channel=3 note=45 velocity=127 time=1\n",
      "note_on channel=3 note=52 velocity=127 time=0\n",
      "note_on channel=3 note=45 velocity=0 time=59\n",
      "note_on channel=3 note=52 velocity=0 time=0\n",
      "note_on channel=3 note=50 velocity=127 time=1\n",
      "note_on channel=3 note=43 velocity=127 time=0\n",
      "note_on channel=3 note=50 velocity=0 time=59\n",
      "note_on channel=3 note=43 velocity=0 time=0\n",
      "note_on channel=3 note=40 velocity=127 time=61\n",
      "note_on channel=3 note=40 velocity=0 time=59\n",
      "note_on channel=3 note=40 velocity=127 time=1\n",
      "note_on channel=3 note=40 velocity=0 time=59\n",
      "note_on channel=3 note=40 velocity=127 time=1\n",
      "note_on channel=3 note=40 velocity=0 time=59\n",
      "note_on channel=3 note=40 velocity=127 time=1\n",
      "note_on channel=3 note=40 velocity=0 time=59\n",
      "note_on channel=3 note=40 velocity=127 time=1\n",
      "note_on channel=3 note=40 velocity=0 time=59\n",
      "note_on channel=3 note=40 velocity=127 time=1\n",
      "note_on channel=3 note=40 velocity=0 time=59\n",
      "note_on channel=3 note=40 velocity=127 time=1\n",
      "note_on channel=3 note=40 velocity=0 time=59\n",
      "note_on channel=3 note=40 velocity=127 time=1\n",
      "note_on channel=3 note=40 velocity=0 time=59\n",
      "note_on channel=3 note=40 velocity=127 time=1\n",
      "note_on channel=3 note=40 velocity=0 time=59\n",
      "note_on channel=3 note=43 velocity=127 time=1\n",
      "note_on channel=3 note=50 velocity=127 time=0\n",
      "note_on channel=3 note=43 velocity=0 time=59\n",
      "note_on channel=3 note=50 velocity=0 time=0\n",
      "note_on channel=3 note=52 velocity=127 time=1\n",
      "note_on channel=3 note=45 velocity=127 time=0\n",
      "note_on channel=3 note=52 velocity=0 time=59\n",
      "note_on channel=3 note=45 velocity=0 time=0\n",
      "note_on channel=3 note=50 velocity=127 time=1\n",
      "note_on channel=3 note=43 velocity=127 time=0\n",
      "note_on channel=3 note=50 velocity=0 time=59\n",
      "note_on channel=3 note=43 velocity=0 time=0\n",
      "note_on channel=3 note=45 velocity=127 time=1\n",
      "note_on channel=3 note=52 velocity=127 time=0\n",
      "note_on channel=3 note=45 velocity=0 time=59\n",
      "note_on channel=3 note=52 velocity=0 time=0\n",
      "note_on channel=3 note=40 velocity=127 time=1\n",
      "note_on channel=3 note=40 velocity=0 time=59\n",
      "note_on channel=3 note=40 velocity=127 time=1\n",
      "note_on channel=3 note=40 velocity=0 time=59\n",
      "note_on channel=3 note=40 velocity=127 time=1\n",
      "note_on channel=3 note=40 velocity=0 time=59\n",
      "note_on channel=3 note=40 velocity=127 time=1\n",
      "note_on channel=3 note=40 velocity=0 time=59\n",
      "note_on channel=3 note=40 velocity=127 time=1\n",
      "note_on channel=3 note=40 velocity=0 time=59\n",
      "note_on channel=3 note=40 velocity=127 time=1\n",
      "note_on channel=3 note=40 velocity=0 time=59\n",
      "note_on channel=3 note=40 velocity=127 time=1\n",
      "note_on channel=3 note=40 velocity=0 time=59\n",
      "note_on channel=3 note=40 velocity=127 time=1\n",
      "note_on channel=3 note=40 velocity=0 time=59\n",
      "note_on channel=3 note=40 velocity=127 time=1\n",
      "note_on channel=3 note=40 velocity=0 time=59\n",
      "note_on channel=3 note=50 velocity=127 time=1\n",
      "note_on channel=3 note=43 velocity=127 time=0\n",
      "note_on channel=3 note=50 velocity=0 time=59\n",
      "note_on channel=3 note=43 velocity=0 time=0\n",
      "note_on channel=3 note=52 velocity=127 time=1\n",
      "note_on channel=3 note=45 velocity=127 time=0\n",
      "note_on channel=3 note=52 velocity=0 time=59\n",
      "note_on channel=3 note=45 velocity=0 time=0\n",
      "note_on channel=3 note=40 velocity=127 time=1\n",
      "note_on channel=3 note=40 velocity=0 time=59\n",
      "note_on channel=3 note=46 velocity=127 time=1\n",
      "note_on channel=3 note=53 velocity=127 time=0\n",
      "note_on channel=3 note=46 velocity=0 time=59\n",
      "note_on channel=3 note=53 velocity=0 time=0\n",
      "note_on channel=3 note=52 velocity=127 time=1\n",
      "note_on channel=3 note=45 velocity=127 time=0\n",
      "note_on channel=3 note=52 velocity=0 time=59\n",
      "note_on channel=3 note=45 velocity=0 time=0\n",
      "note_on channel=3 note=50 velocity=127 time=1\n",
      "note_on channel=3 note=43 velocity=127 time=0\n",
      "note_on channel=3 note=50 velocity=0 time=59\n",
      "note_on channel=3 note=43 velocity=0 time=0\n",
      "note_on channel=3 note=40 velocity=127 time=61\n",
      "note_on channel=3 note=40 velocity=0 time=59\n",
      "note_on channel=3 note=40 velocity=127 time=1\n",
      "note_on channel=3 note=40 velocity=0 time=59\n",
      "note_on channel=3 note=40 velocity=127 time=1\n",
      "note_on channel=3 note=40 velocity=0 time=59\n",
      "note_on channel=3 note=40 velocity=127 time=1\n",
      "note_on channel=3 note=40 velocity=0 time=59\n",
      "note_on channel=3 note=40 velocity=127 time=1\n",
      "note_on channel=3 note=40 velocity=0 time=59\n",
      "note_on channel=3 note=40 velocity=127 time=1\n",
      "note_on channel=3 note=40 velocity=0 time=59\n",
      "note_on channel=3 note=40 velocity=127 time=1\n",
      "note_on channel=3 note=40 velocity=0 time=59\n",
      "note_on channel=3 note=40 velocity=127 time=1\n",
      "note_on channel=3 note=40 velocity=0 time=59\n",
      "note_on channel=3 note=40 velocity=127 time=1\n",
      "note_on channel=3 note=40 velocity=0 time=59\n",
      "note_on channel=3 note=43 velocity=127 time=1\n",
      "note_on channel=3 note=50 velocity=127 time=0\n",
      "note_on channel=3 note=43 velocity=0 time=59\n",
      "note_on channel=3 note=50 velocity=0 time=0\n",
      "note_on channel=3 note=52 velocity=127 time=1\n",
      "note_on channel=3 note=45 velocity=127 time=0\n",
      "note_on channel=3 note=52 velocity=0 time=59\n",
      "note_on channel=3 note=45 velocity=0 time=0\n",
      "note_on channel=3 note=43 velocity=127 time=1\n",
      "note_on channel=3 note=50 velocity=127 time=0\n",
      "note_on channel=3 note=43 velocity=0 time=59\n",
      "note_on channel=3 note=50 velocity=0 time=0\n",
      "note_on channel=3 note=45 velocity=127 time=1\n",
      "note_on channel=3 note=52 velocity=127 time=0\n",
      "note_on channel=3 note=45 velocity=0 time=59\n",
      "note_on channel=3 note=52 velocity=0 time=0\n",
      "note_on channel=3 note=40 velocity=127 time=1\n",
      "note_on channel=3 note=40 velocity=0 time=59\n",
      "note_on channel=3 note=40 velocity=127 time=1\n",
      "note_on channel=3 note=40 velocity=0 time=59\n",
      "note_on channel=3 note=40 velocity=127 time=1\n",
      "note_on channel=3 note=40 velocity=0 time=59\n",
      "note_on channel=3 note=40 velocity=127 time=1\n",
      "note_on channel=3 note=40 velocity=0 time=59\n",
      "note_on channel=3 note=40 velocity=127 time=1\n",
      "note_on channel=3 note=40 velocity=0 time=59\n",
      "note_on channel=3 note=40 velocity=127 time=1\n",
      "note_on channel=3 note=40 velocity=0 time=59\n",
      "note_on channel=3 note=40 velocity=127 time=1\n",
      "note_on channel=3 note=40 velocity=0 time=59\n",
      "note_on channel=3 note=40 velocity=127 time=1\n",
      "note_on channel=3 note=40 velocity=0 time=59\n",
      "note_on channel=3 note=40 velocity=127 time=1\n",
      "note_on channel=3 note=40 velocity=0 time=59\n",
      "note_on channel=3 note=50 velocity=127 time=1\n",
      "note_on channel=3 note=43 velocity=127 time=0\n",
      "note_on channel=3 note=50 velocity=0 time=59\n",
      "note_on channel=3 note=43 velocity=0 time=0\n",
      "note_on channel=3 note=45 velocity=127 time=1\n",
      "note_on channel=3 note=52 velocity=127 time=0\n",
      "note_on channel=3 note=45 velocity=0 time=59\n",
      "note_on channel=3 note=52 velocity=0 time=0\n",
      "note_on channel=3 note=40 velocity=127 time=1\n",
      "note_on channel=3 note=40 velocity=0 time=59\n",
      "note_on channel=3 note=53 velocity=127 time=1\n",
      "note_on channel=3 note=46 velocity=127 time=0\n",
      "note_on channel=3 note=53 velocity=0 time=59\n",
      "note_on channel=3 note=46 velocity=0 time=0\n",
      "note_on channel=3 note=52 velocity=127 time=1\n",
      "note_on channel=3 note=45 velocity=127 time=0\n",
      "note_on channel=3 note=52 velocity=0 time=59\n",
      "note_on channel=3 note=45 velocity=0 time=0\n",
      "note_on channel=3 note=43 velocity=127 time=1\n",
      "note_on channel=3 note=50 velocity=127 time=0\n",
      "note_on channel=3 note=43 velocity=0 time=59\n",
      "note_on channel=3 note=50 velocity=0 time=0\n",
      "note_on channel=3 note=40 velocity=127 time=61\n",
      "note_on channel=3 note=40 velocity=0 time=59\n",
      "note_on channel=3 note=40 velocity=127 time=1\n",
      "note_on channel=3 note=40 velocity=0 time=59\n",
      "note_on channel=3 note=40 velocity=127 time=1\n",
      "note_on channel=3 note=40 velocity=0 time=59\n",
      "note_on channel=3 note=40 velocity=127 time=1\n",
      "note_on channel=3 note=40 velocity=0 time=59\n",
      "note_on channel=3 note=40 velocity=127 time=1\n",
      "note_on channel=3 note=40 velocity=0 time=59\n",
      "note_on channel=3 note=40 velocity=127 time=1\n",
      "note_on channel=3 note=40 velocity=0 time=59\n",
      "note_on channel=3 note=40 velocity=127 time=1\n",
      "note_on channel=3 note=40 velocity=0 time=59\n",
      "note_on channel=3 note=40 velocity=127 time=1\n",
      "note_on channel=3 note=40 velocity=0 time=59\n",
      "note_on channel=3 note=40 velocity=127 time=1\n",
      "note_on channel=3 note=40 velocity=0 time=59\n",
      "note_on channel=3 note=50 velocity=127 time=1\n",
      "note_on channel=3 note=43 velocity=127 time=0\n",
      "note_on channel=3 note=50 velocity=0 time=59\n",
      "note_on channel=3 note=43 velocity=0 time=0\n",
      "note_on channel=3 note=52 velocity=127 time=1\n",
      "note_on channel=3 note=45 velocity=127 time=0\n",
      "note_on channel=3 note=52 velocity=0 time=59\n",
      "note_on channel=3 note=45 velocity=0 time=0\n",
      "note_on channel=3 note=50 velocity=127 time=1\n",
      "note_on channel=3 note=43 velocity=127 time=0\n",
      "note_on channel=3 note=50 velocity=0 time=59\n",
      "note_on channel=3 note=43 velocity=0 time=0\n",
      "note_on channel=3 note=45 velocity=127 time=1\n",
      "note_on channel=3 note=52 velocity=127 time=0\n",
      "note_on channel=3 note=45 velocity=0 time=59\n",
      "note_on channel=3 note=52 velocity=0 time=0\n",
      "note_on channel=3 note=42 velocity=127 time=1\n",
      "note_on channel=3 note=42 velocity=0 time=59\n",
      "note_on channel=3 note=42 velocity=127 time=1\n",
      "note_on channel=3 note=42 velocity=0 time=59\n",
      "note_on channel=3 note=42 velocity=127 time=1\n",
      "note_on channel=3 note=42 velocity=0 time=59\n",
      "note_on channel=3 note=42 velocity=127 time=1\n",
      "note_on channel=3 note=42 velocity=0 time=59\n",
      "note_on channel=3 note=42 velocity=127 time=1\n",
      "note_on channel=3 note=42 velocity=0 time=59\n",
      "note_on channel=3 note=42 velocity=127 time=1\n",
      "note_on channel=3 note=42 velocity=0 time=59\n",
      "note_on channel=3 note=42 velocity=127 time=1\n",
      "note_on channel=3 note=42 velocity=0 time=59\n",
      "note_on channel=3 note=42 velocity=127 time=1\n",
      "note_on channel=3 note=42 velocity=0 time=59\n",
      "note_on channel=3 note=42 velocity=127 time=1\n",
      "note_on channel=3 note=42 velocity=0 time=59\n",
      "note_on channel=3 note=45 velocity=127 time=1\n",
      "note_on channel=3 note=54 velocity=127 time=0\n",
      "note_on channel=3 note=45 velocity=0 time=59\n",
      "note_on channel=3 note=54 velocity=0 time=0\n",
      "note_on channel=3 note=47 velocity=127 time=1\n",
      "note_on channel=3 note=54 velocity=127 time=0\n",
      "note_on channel=3 note=47 velocity=0 time=59\n",
      "note_on channel=3 note=54 velocity=0 time=0\n",
      "note_on channel=3 note=55 velocity=127 time=61\n",
      "note_on channel=3 note=48 velocity=127 time=0\n",
      "note_on channel=3 note=55 velocity=0 time=59\n",
      "note_on channel=3 note=48 velocity=0 time=0\n",
      "note_on channel=3 note=54 velocity=127 time=1\n",
      "note_on channel=3 note=47 velocity=127 time=0\n",
      "note_on channel=3 note=54 velocity=0 time=59\n",
      "note_on channel=3 note=47 velocity=0 time=0\n",
      "note_on channel=3 note=45 velocity=127 time=1\n",
      "note_on channel=3 note=54 velocity=127 time=0\n",
      "note_on channel=3 note=45 velocity=0 time=59\n",
      "note_on channel=3 note=54 velocity=0 time=0\n",
      "note_on channel=3 note=47 velocity=127 time=1\n",
      "note_on channel=3 note=54 velocity=127 time=0\n",
      "note_on channel=3 note=47 velocity=0 time=59\n",
      "note_on channel=3 note=54 velocity=0 time=0\n",
      "note_on channel=3 note=42 velocity=127 time=1\n",
      "note_on channel=3 note=42 velocity=0 time=59\n",
      "note_on channel=3 note=42 velocity=127 time=1\n",
      "note_on channel=3 note=42 velocity=0 time=59\n",
      "note_on channel=3 note=42 velocity=127 time=1\n",
      "note_on channel=3 note=42 velocity=0 time=59\n",
      "note_on channel=3 note=42 velocity=127 time=1\n",
      "note_on channel=3 note=42 velocity=0 time=59\n",
      "note_on channel=3 note=42 velocity=127 time=1\n",
      "note_on channel=3 note=42 velocity=0 time=59\n",
      "note_on channel=3 note=42 velocity=127 time=1\n",
      "note_on channel=3 note=42 velocity=0 time=59\n",
      "note_on channel=3 note=42 velocity=127 time=1\n",
      "note_on channel=3 note=42 velocity=0 time=59\n",
      "note_on channel=3 note=42 velocity=127 time=1\n",
      "note_on channel=3 note=42 velocity=0 time=59\n",
      "note_on channel=3 note=42 velocity=127 time=1\n",
      "note_on channel=3 note=42 velocity=0 time=59\n",
      "note_on channel=3 note=45 velocity=127 time=1\n",
      "note_on channel=3 note=54 velocity=127 time=0\n",
      "note_on channel=3 note=45 velocity=0 time=59\n",
      "note_on channel=3 note=47 velocity=127 time=1\n",
      "note_on channel=3 note=54 velocity=0 time=29\n",
      "note_on channel=3 note=47 velocity=0 time=30\n",
      "note_on channel=3 note=45 velocity=127 time=1\n",
      "note_on channel=3 note=54 velocity=127 time=0\n",
      "note_on channel=3 note=45 velocity=0 time=59\n",
      "note_on channel=3 note=47 velocity=127 time=1\n",
      "note_on channel=3 note=54 velocity=0 time=29\n",
      "note_on channel=3 note=47 velocity=0 time=30\n",
      "note_on channel=3 note=42 velocity=127 time=1\n",
      "note_on channel=3 note=42 velocity=0 time=59\n",
      "note_on channel=3 note=42 velocity=127 time=1\n",
      "note_on channel=3 note=42 velocity=0 time=59\n",
      "note_on channel=3 note=42 velocity=127 time=1\n",
      "note_on channel=3 note=42 velocity=0 time=59\n",
      "note_on channel=3 note=42 velocity=127 time=1\n",
      "note_on channel=3 note=42 velocity=0 time=59\n",
      "note_on channel=3 note=42 velocity=127 time=1\n",
      "note_on channel=3 note=42 velocity=0 time=59\n",
      "note_on channel=3 note=42 velocity=127 time=1\n",
      "note_on channel=3 note=42 velocity=0 time=59\n",
      "note_on channel=3 note=42 velocity=127 time=1\n",
      "note_on channel=3 note=42 velocity=0 time=59\n",
      "note_on channel=3 note=42 velocity=127 time=1\n",
      "note_on channel=3 note=42 velocity=0 time=59\n",
      "note_on channel=3 note=42 velocity=127 time=1\n",
      "note_on channel=3 note=42 velocity=0 time=59\n",
      "note_on channel=3 note=45 velocity=127 time=1\n",
      "note_on channel=3 note=54 velocity=127 time=0\n",
      "note_on channel=3 note=45 velocity=0 time=59\n",
      "note_on channel=3 note=54 velocity=0 time=0\n",
      "note_on channel=3 note=47 velocity=127 time=1\n",
      "note_on channel=3 note=54 velocity=127 time=0\n",
      "note_on channel=3 note=47 velocity=0 time=59\n",
      "note_on channel=3 note=54 velocity=0 time=0\n",
      "note_on channel=3 note=55 velocity=127 time=61\n",
      "note_on channel=3 note=48 velocity=127 time=0\n",
      "note_on channel=3 note=55 velocity=0 time=59\n",
      "note_on channel=3 note=48 velocity=0 time=0\n",
      "note_on channel=3 note=54 velocity=127 time=1\n",
      "note_on channel=3 note=47 velocity=127 time=0\n",
      "note_on channel=3 note=54 velocity=0 time=59\n",
      "note_on channel=3 note=47 velocity=0 time=0\n",
      "note_on channel=3 note=54 velocity=127 time=1\n",
      "note_on channel=3 note=45 velocity=127 time=0\n",
      "note_on channel=3 note=54 velocity=0 time=59\n",
      "note_on channel=3 note=45 velocity=0 time=0\n",
      "note_on channel=3 note=47 velocity=127 time=1\n",
      "note_on channel=3 note=54 velocity=127 time=0\n",
      "note_on channel=3 note=47 velocity=0 time=59\n",
      "note_on channel=3 note=54 velocity=0 time=0\n",
      "note_on channel=3 note=42 velocity=127 time=1\n",
      "note_on channel=3 note=42 velocity=0 time=59\n",
      "note_on channel=3 note=42 velocity=127 time=1\n",
      "note_on channel=3 note=42 velocity=0 time=59\n",
      "note_on channel=3 note=42 velocity=127 time=1\n",
      "note_on channel=3 note=42 velocity=0 time=59\n",
      "note_on channel=3 note=42 velocity=127 time=1\n",
      "note_on channel=3 note=42 velocity=0 time=59\n",
      "note_on channel=3 note=42 velocity=127 time=1\n",
      "note_on channel=3 note=42 velocity=0 time=59\n",
      "note_on channel=3 note=42 velocity=127 time=1\n",
      "note_on channel=3 note=42 velocity=0 time=59\n",
      "note_on channel=3 note=42 velocity=127 time=1\n",
      "note_on channel=3 note=42 velocity=0 time=59\n",
      "note_on channel=3 note=42 velocity=127 time=1\n",
      "note_on channel=3 note=42 velocity=0 time=59\n",
      "note_on channel=3 note=42 velocity=127 time=1\n",
      "note_on channel=3 note=42 velocity=0 time=59\n",
      "note_on channel=3 note=45 velocity=127 time=1\n",
      "note_on channel=3 note=54 velocity=127 time=0\n",
      "note_on channel=3 note=45 velocity=0 time=59\n",
      "note_on channel=3 note=47 velocity=127 time=1\n",
      "note_on channel=3 note=54 velocity=0 time=29\n",
      "note_on channel=3 note=47 velocity=0 time=30\n",
      "note_on channel=3 note=45 velocity=127 time=1\n",
      "note_on channel=3 note=54 velocity=127 time=0\n",
      "note_on channel=3 note=45 velocity=0 time=59\n",
      "note_on channel=3 note=47 velocity=127 time=1\n",
      "note_on channel=3 note=54 velocity=0 time=29\n",
      "note_on channel=3 note=47 velocity=0 time=30\n",
      "note_on channel=3 note=47 velocity=127 time=1\n",
      "note_on channel=3 note=59 velocity=127 time=0\n",
      "note_on channel=3 note=54 velocity=127 time=0\n",
      "note_on channel=3 note=47 velocity=0 time=59\n",
      "note_on channel=3 note=59 velocity=0 time=0\n",
      "note_on channel=3 note=54 velocity=0 time=0\n",
      "note_on channel=3 note=59 velocity=127 time=1\n",
      "note_on channel=3 note=54 velocity=127 time=0\n",
      "note_on channel=3 note=47 velocity=127 time=0\n",
      "note_on channel=3 note=59 velocity=0 time=59\n",
      "note_on channel=3 note=54 velocity=0 time=0\n",
      "note_on channel=3 note=47 velocity=0 time=0\n",
      "note_on channel=3 note=59 velocity=127 time=1\n",
      "note_on channel=3 note=54 velocity=127 time=0\n",
      "note_on channel=3 note=47 velocity=127 time=0\n",
      "note_on channel=3 note=59 velocity=0 time=59\n",
      "note_on channel=3 note=54 velocity=0 time=0\n",
      "note_on channel=3 note=47 velocity=0 time=0\n",
      "note_on channel=3 note=54 velocity=127 time=1\n",
      "note_on channel=3 note=47 velocity=127 time=0\n",
      "note_on channel=3 note=59 velocity=127 time=0\n",
      "note_on channel=3 note=54 velocity=0 time=59\n",
      "note_on channel=3 note=47 velocity=0 time=0\n",
      "note_on channel=3 note=59 velocity=0 time=0\n",
      "note_on channel=3 note=59 velocity=127 time=1\n",
      "note_on channel=3 note=54 velocity=127 time=0\n",
      "note_on channel=3 note=47 velocity=127 time=0\n",
      "note_on channel=3 note=59 velocity=0 time=59\n",
      "note_on channel=3 note=54 velocity=0 time=0\n",
      "note_on channel=3 note=47 velocity=0 time=0\n",
      "note_on channel=3 note=47 velocity=127 time=1\n",
      "note_on channel=3 note=59 velocity=127 time=0\n",
      "note_on channel=3 note=54 velocity=127 time=0\n",
      "note_on channel=3 note=47 velocity=0 time=59\n",
      "note_on channel=3 note=59 velocity=0 time=0\n",
      "note_on channel=3 note=54 velocity=0 time=0\n",
      "note_on channel=3 note=59 velocity=127 time=1\n",
      "note_on channel=3 note=54 velocity=127 time=0\n",
      "note_on channel=3 note=47 velocity=127 time=0\n",
      "note_on channel=3 note=59 velocity=0 time=59\n",
      "note_on channel=3 note=54 velocity=0 time=0\n",
      "note_on channel=3 note=47 velocity=0 time=0\n",
      "note_on channel=3 note=47 velocity=127 time=1\n",
      "note_on channel=3 note=59 velocity=127 time=0\n",
      "note_on channel=3 note=54 velocity=127 time=0\n",
      "note_on channel=3 note=47 velocity=0 time=59\n",
      "note_on channel=3 note=59 velocity=0 time=0\n",
      "note_on channel=3 note=54 velocity=0 time=0\n",
      "note_on channel=3 note=40 velocity=127 time=1\n",
      "note_on channel=3 note=64 velocity=127 time=0\n",
      "note_on channel=3 note=59 velocity=127 time=0\n",
      "note_on channel=3 note=52 velocity=127 time=0\n",
      "note_on channel=3 note=40 velocity=0 time=60\n",
      "note_on channel=3 note=64 velocity=0 time=0\n",
      "note_on channel=3 note=59 velocity=0 time=0\n",
      "note_on channel=3 note=52 velocity=0 time=0\n",
      "note_on channel=3 note=40 velocity=127 time=0\n",
      "note_on channel=3 note=40 velocity=0 time=60\n",
      "note_on channel=3 note=40 velocity=127 time=0\n",
      "note_on channel=3 note=40 velocity=0 time=60\n",
      "note_on channel=3 note=40 velocity=127 time=0\n",
      "note_on channel=3 note=40 velocity=0 time=60\n",
      "note_on channel=3 note=62 velocity=127 time=0\n",
      "note_on channel=3 note=57 velocity=127 time=0\n",
      "note_on channel=3 note=50 velocity=127 time=0\n",
      "note_on channel=3 note=62 velocity=0 time=120\n",
      "note_on channel=3 note=57 velocity=0 time=0\n",
      "note_on channel=3 note=50 velocity=0 time=0\n",
      "note_on channel=3 note=52 velocity=127 time=0\n",
      "note_on channel=3 note=64 velocity=127 time=0\n",
      "note_on channel=3 note=59 velocity=127 time=0\n",
      "note_on channel=3 note=52 velocity=0 time=120\n",
      "note_on channel=3 note=64 velocity=0 time=0\n",
      "note_on channel=3 note=59 velocity=0 time=0\n",
      "note_on channel=3 note=52 velocity=127 time=0\n",
      "note_on channel=3 note=52 velocity=0 time=60\n",
      "note_on channel=3 note=54 velocity=127 time=0\n",
      "note_on channel=3 note=54 velocity=0 time=60\n",
      "note_on channel=3 note=59 velocity=127 time=0\n",
      "note_on channel=3 note=59 velocity=0 time=60\n",
      "note_on channel=3 note=55 velocity=127 time=0\n",
      "note_on channel=3 note=55 velocity=0 time=60\n",
      "note_on channel=3 note=54 velocity=127 time=0\n",
      "note_on channel=3 note=54 velocity=0 time=60\n",
      "note_on channel=3 note=55 velocity=127 time=0\n",
      "control_change channel=3 control=1 value=0 time=0\n",
      "control_change channel=3 control=1 value=7 time=1\n",
      "control_change channel=3 control=1 value=13 time=1\n",
      "control_change channel=3 control=1 value=20 time=1\n",
      "control_change channel=3 control=1 value=26 time=1\n",
      "control_change channel=3 control=1 value=32 time=1\n",
      "control_change channel=3 control=1 value=39 time=1\n",
      "control_change channel=3 control=1 value=45 time=1\n",
      "control_change channel=3 control=1 value=52 time=1\n",
      "control_change channel=3 control=1 value=58 time=1\n",
      "control_change channel=3 control=1 value=64 time=1\n",
      "control_change channel=3 control=1 value=0 time=169\n",
      "note_on channel=3 note=55 velocity=0 time=1\n",
      "note_on channel=3 note=48 velocity=127 time=0\n",
      "note_on channel=3 note=48 velocity=0 time=60\n",
      "note_on channel=3 note=48 velocity=127 time=0\n",
      "note_on channel=3 note=48 velocity=0 time=60\n",
      "note_on channel=3 note=48 velocity=127 time=0\n",
      "note_on channel=3 note=48 velocity=0 time=60\n",
      "note_on channel=3 note=48 velocity=127 time=0\n",
      "note_on channel=3 note=48 velocity=0 time=60\n",
      "note_on channel=3 note=48 velocity=127 time=0\n",
      "note_on channel=3 note=60 velocity=127 time=0\n",
      "note_on channel=3 note=55 velocity=127 time=0\n",
      "note_on channel=3 note=48 velocity=0 time=120\n",
      "note_on channel=3 note=60 velocity=0 time=0\n",
      "note_on channel=3 note=55 velocity=0 time=0\n",
      "note_on channel=3 note=59 velocity=127 time=0\n",
      "note_on channel=3 note=54 velocity=127 time=0\n",
      "note_on channel=3 note=47 velocity=127 time=0\n",
      "note_on channel=3 note=59 velocity=0 time=120\n",
      "note_on channel=3 note=54 velocity=0 time=0\n",
      "note_on channel=3 note=47 velocity=0 time=0\n",
      "note_on channel=3 note=48 velocity=127 time=0\n",
      "note_on channel=3 note=48 velocity=0 time=60\n",
      "note_on channel=3 note=48 velocity=127 time=0\n",
      "note_on channel=3 note=48 velocity=0 time=60\n",
      "note_on channel=3 note=48 velocity=127 time=0\n",
      "note_on channel=3 note=48 velocity=0 time=60\n",
      "note_on channel=3 note=48 velocity=127 time=0\n",
      "note_on channel=3 note=48 velocity=0 time=60\n",
      "note_on channel=3 note=63 velocity=127 time=0\n",
      "note_on channel=3 note=58 velocity=127 time=0\n",
      "note_on channel=3 note=51 velocity=127 time=0\n",
      "note_on channel=3 note=63 velocity=0 time=120\n",
      "note_on channel=3 note=58 velocity=0 time=0\n",
      "note_on channel=3 note=51 velocity=0 time=0\n",
      "note_on channel=3 note=47 velocity=127 time=0\n",
      "note_on channel=3 note=59 velocity=127 time=0\n",
      "note_on channel=3 note=54 velocity=127 time=0\n",
      "note_on channel=3 note=47 velocity=0 time=60\n",
      "note_on channel=3 note=59 velocity=0 time=0\n",
      "note_on channel=3 note=54 velocity=0 time=0\n",
      "note_on channel=3 note=40 velocity=127 time=60\n",
      "note_on channel=3 note=64 velocity=127 time=0\n",
      "note_on channel=3 note=59 velocity=127 time=0\n",
      "note_on channel=3 note=52 velocity=127 time=0\n",
      "note_on channel=3 note=40 velocity=0 time=60\n",
      "note_on channel=3 note=64 velocity=0 time=0\n",
      "note_on channel=3 note=59 velocity=0 time=0\n",
      "note_on channel=3 note=52 velocity=0 time=0\n",
      "note_on channel=3 note=40 velocity=127 time=0\n",
      "note_on channel=3 note=40 velocity=0 time=60\n",
      "note_on channel=3 note=40 velocity=127 time=0\n",
      "note_on channel=3 note=40 velocity=0 time=60\n",
      "note_on channel=3 note=40 velocity=127 time=0\n",
      "note_on channel=3 note=40 velocity=0 time=60\n",
      "note_on channel=3 note=62 velocity=127 time=0\n",
      "note_on channel=3 note=57 velocity=127 time=0\n",
      "note_on channel=3 note=50 velocity=127 time=0\n",
      "note_on channel=3 note=62 velocity=0 time=120\n",
      "note_on channel=3 note=57 velocity=0 time=0\n",
      "note_on channel=3 note=50 velocity=0 time=0\n",
      "note_on channel=3 note=52 velocity=127 time=0\n",
      "note_on channel=3 note=59 velocity=127 time=0\n",
      "note_on channel=3 note=64 velocity=127 time=0\n",
      "note_on channel=3 note=52 velocity=0 time=120\n",
      "note_on channel=3 note=59 velocity=0 time=0\n",
      "note_on channel=3 note=64 velocity=0 time=0\n",
      "note_on channel=3 note=52 velocity=127 time=0\n",
      "note_on channel=3 note=52 velocity=0 time=60\n",
      "note_on channel=3 note=54 velocity=127 time=0\n",
      "note_on channel=3 note=54 velocity=0 time=60\n",
      "note_on channel=3 note=59 velocity=127 time=0\n",
      "note_on channel=3 note=59 velocity=0 time=60\n",
      "note_on channel=3 note=55 velocity=127 time=0\n",
      "note_on channel=3 note=55 velocity=0 time=60\n",
      "note_on channel=3 note=54 velocity=127 time=0\n",
      "note_on channel=3 note=54 velocity=0 time=60\n",
      "control_change channel=3 control=1 value=0 time=0\n",
      "note_on channel=3 note=55 velocity=127 time=0\n",
      "control_change channel=3 control=1 value=7 time=1\n",
      "control_change channel=3 control=1 value=13 time=1\n",
      "control_change channel=3 control=1 value=20 time=1\n",
      "control_change channel=3 control=1 value=26 time=1\n",
      "control_change channel=3 control=1 value=32 time=1\n",
      "control_change channel=3 control=1 value=39 time=1\n",
      "control_change channel=3 control=1 value=45 time=1\n",
      "control_change channel=3 control=1 value=52 time=1\n",
      "control_change channel=3 control=1 value=58 time=1\n",
      "control_change channel=3 control=1 value=64 time=1\n",
      "control_change channel=3 control=1 value=0 time=49\n",
      "note_on channel=3 note=55 velocity=0 time=121\n",
      "note_on channel=3 note=48 velocity=127 time=0\n",
      "note_on channel=3 note=48 velocity=0 time=60\n",
      "note_on channel=3 note=48 velocity=127 time=0\n",
      "note_on channel=3 note=48 velocity=0 time=60\n",
      "note_on channel=3 note=48 velocity=127 time=0\n",
      "note_on channel=3 note=48 velocity=0 time=60\n",
      "note_on channel=3 note=48 velocity=127 time=0\n",
      "note_on channel=3 note=48 velocity=0 time=60\n",
      "note_on channel=3 note=55 velocity=127 time=0\n",
      "note_on channel=3 note=48 velocity=127 time=0\n",
      "note_on channel=3 note=60 velocity=127 time=0\n",
      "note_on channel=3 note=55 velocity=0 time=120\n",
      "note_on channel=3 note=48 velocity=0 time=0\n",
      "note_on channel=3 note=60 velocity=0 time=0\n",
      "note_on channel=3 note=59 velocity=127 time=0\n",
      "note_on channel=3 note=54 velocity=127 time=0\n",
      "note_on channel=3 note=47 velocity=127 time=0\n",
      "note_on channel=3 note=59 velocity=0 time=120\n",
      "note_on channel=3 note=54 velocity=0 time=0\n",
      "note_on channel=3 note=47 velocity=0 time=0\n",
      "note_on channel=3 note=48 velocity=127 time=0\n",
      "note_on channel=3 note=48 velocity=0 time=60\n",
      "note_on channel=3 note=48 velocity=127 time=0\n",
      "note_on channel=3 note=48 velocity=0 time=60\n",
      "note_on channel=3 note=48 velocity=127 time=0\n",
      "note_on channel=3 note=48 velocity=0 time=60\n",
      "note_on channel=3 note=48 velocity=127 time=0\n",
      "note_on channel=3 note=48 velocity=0 time=60\n",
      "note_on channel=3 note=63 velocity=127 time=0\n",
      "note_on channel=3 note=58 velocity=127 time=0\n",
      "note_on channel=3 note=51 velocity=127 time=0\n",
      "note_on channel=3 note=63 velocity=0 time=120\n",
      "note_on channel=3 note=58 velocity=0 time=0\n",
      "note_on channel=3 note=51 velocity=0 time=0\n",
      "note_on channel=3 note=47 velocity=127 time=0\n",
      "note_on channel=3 note=59 velocity=127 time=0\n",
      "note_on channel=3 note=54 velocity=127 time=0\n",
      "note_on channel=3 note=47 velocity=0 time=120\n",
      "note_on channel=3 note=59 velocity=0 time=0\n",
      "note_on channel=3 note=54 velocity=0 time=0\n",
      "note_on channel=3 note=64 velocity=127 time=0\n",
      "note_on channel=3 note=59 velocity=127 time=0\n",
      "note_on channel=3 note=52 velocity=127 time=0\n",
      "note_on channel=3 note=40 velocity=127 time=0\n",
      "note_on channel=3 note=64 velocity=0 time=60\n",
      "note_on channel=3 note=59 velocity=0 time=0\n",
      "note_on channel=3 note=52 velocity=0 time=0\n",
      "note_on channel=3 note=40 velocity=0 time=0\n",
      "note_on channel=3 note=40 velocity=127 time=0\n",
      "note_on channel=3 note=40 velocity=0 time=60\n",
      "note_on channel=3 note=40 velocity=127 time=0\n",
      "note_on channel=3 note=40 velocity=0 time=60\n",
      "note_on channel=3 note=40 velocity=127 time=0\n",
      "note_on channel=3 note=40 velocity=0 time=60\n",
      "note_on channel=3 note=62 velocity=127 time=0\n",
      "note_on channel=3 note=57 velocity=127 time=0\n",
      "note_on channel=3 note=50 velocity=127 time=0\n",
      "note_on channel=3 note=62 velocity=0 time=120\n",
      "note_on channel=3 note=57 velocity=0 time=0\n",
      "note_on channel=3 note=50 velocity=0 time=0\n",
      "note_on channel=3 note=64 velocity=127 time=0\n",
      "note_on channel=3 note=52 velocity=127 time=0\n",
      "note_on channel=3 note=59 velocity=127 time=0\n",
      "note_on channel=3 note=64 velocity=0 time=120\n",
      "note_on channel=3 note=52 velocity=0 time=0\n",
      "note_on channel=3 note=59 velocity=0 time=0\n",
      "note_on channel=3 note=52 velocity=127 time=0\n",
      "note_on channel=3 note=52 velocity=0 time=60\n",
      "note_on channel=3 note=54 velocity=127 time=0\n",
      "note_on channel=3 note=54 velocity=0 time=60\n",
      "note_on channel=3 note=59 velocity=127 time=0\n",
      "note_on channel=3 note=59 velocity=0 time=60\n",
      "note_on channel=3 note=55 velocity=127 time=0\n",
      "note_on channel=3 note=55 velocity=0 time=60\n",
      "note_on channel=3 note=54 velocity=127 time=0\n",
      "note_on channel=3 note=54 velocity=0 time=60\n",
      "control_change channel=3 control=1 value=0 time=0\n",
      "note_on channel=3 note=55 velocity=127 time=0\n",
      "control_change channel=3 control=1 value=7 time=1\n",
      "control_change channel=3 control=1 value=13 time=1\n",
      "control_change channel=3 control=1 value=20 time=1\n",
      "control_change channel=3 control=1 value=26 time=1\n",
      "control_change channel=3 control=1 value=32 time=1\n",
      "control_change channel=3 control=1 value=39 time=1\n",
      "control_change channel=3 control=1 value=45 time=1\n",
      "control_change channel=3 control=1 value=52 time=1\n",
      "control_change channel=3 control=1 value=58 time=1\n",
      "control_change channel=3 control=1 value=64 time=1\n",
      "control_change channel=3 control=1 value=0 time=49\n",
      "note_on channel=3 note=55 velocity=0 time=121\n",
      "note_on channel=3 note=48 velocity=127 time=0\n",
      "note_on channel=3 note=48 velocity=0 time=60\n",
      "note_on channel=3 note=48 velocity=127 time=0\n",
      "note_on channel=3 note=48 velocity=0 time=60\n",
      "note_on channel=3 note=48 velocity=127 time=0\n",
      "note_on channel=3 note=48 velocity=0 time=60\n",
      "note_on channel=3 note=48 velocity=127 time=0\n",
      "note_on channel=3 note=48 velocity=0 time=60\n",
      "note_on channel=3 note=60 velocity=127 time=0\n",
      "note_on channel=3 note=55 velocity=127 time=0\n",
      "note_on channel=3 note=48 velocity=127 time=0\n",
      "note_on channel=3 note=60 velocity=0 time=120\n",
      "note_on channel=3 note=55 velocity=0 time=0\n",
      "note_on channel=3 note=48 velocity=0 time=0\n",
      "note_on channel=3 note=59 velocity=127 time=0\n",
      "note_on channel=3 note=54 velocity=127 time=0\n",
      "note_on channel=3 note=47 velocity=127 time=0\n",
      "note_on channel=3 note=59 velocity=0 time=120\n",
      "note_on channel=3 note=54 velocity=0 time=0\n",
      "note_on channel=3 note=47 velocity=0 time=0\n",
      "note_on channel=3 note=48 velocity=127 time=0\n",
      "note_on channel=3 note=48 velocity=0 time=60\n",
      "note_on channel=3 note=48 velocity=127 time=0\n",
      "note_on channel=3 note=48 velocity=0 time=60\n",
      "note_on channel=3 note=48 velocity=127 time=0\n",
      "note_on channel=3 note=48 velocity=0 time=60\n",
      "note_on channel=3 note=48 velocity=127 time=0\n",
      "note_on channel=3 note=48 velocity=0 time=60\n",
      "note_on channel=3 note=63 velocity=127 time=0\n",
      "note_on channel=3 note=58 velocity=127 time=0\n",
      "note_on channel=3 note=51 velocity=127 time=0\n",
      "note_on channel=3 note=63 velocity=0 time=120\n",
      "note_on channel=3 note=58 velocity=0 time=0\n",
      "note_on channel=3 note=51 velocity=0 time=0\n",
      "note_on channel=3 note=54 velocity=127 time=0\n",
      "note_on channel=3 note=47 velocity=127 time=0\n",
      "note_on channel=3 note=59 velocity=127 time=0\n",
      "note_on channel=3 note=54 velocity=0 time=120\n",
      "note_on channel=3 note=47 velocity=0 time=0\n",
      "note_on channel=3 note=59 velocity=0 time=0\n",
      "note_on channel=3 note=64 velocity=127 time=0\n",
      "note_on channel=3 note=59 velocity=127 time=0\n",
      "note_on channel=3 note=52 velocity=127 time=0\n",
      "note_on channel=3 note=40 velocity=127 time=0\n",
      "note_on channel=3 note=64 velocity=0 time=60\n",
      "note_on channel=3 note=59 velocity=0 time=0\n",
      "note_on channel=3 note=52 velocity=0 time=0\n",
      "note_on channel=3 note=40 velocity=0 time=0\n",
      "note_on channel=3 note=40 velocity=127 time=0\n",
      "note_on channel=3 note=40 velocity=0 time=60\n",
      "note_on channel=3 note=40 velocity=127 time=0\n",
      "note_on channel=3 note=40 velocity=0 time=60\n",
      "note_on channel=3 note=40 velocity=127 time=0\n",
      "note_on channel=3 note=40 velocity=0 time=60\n",
      "note_on channel=3 note=62 velocity=127 time=0\n",
      "note_on channel=3 note=57 velocity=127 time=0\n",
      "note_on channel=3 note=50 velocity=127 time=0\n",
      "note_on channel=3 note=62 velocity=0 time=120\n",
      "note_on channel=3 note=57 velocity=0 time=0\n",
      "note_on channel=3 note=50 velocity=0 time=0\n",
      "note_on channel=3 note=64 velocity=127 time=0\n",
      "note_on channel=3 note=52 velocity=127 time=0\n",
      "note_on channel=3 note=59 velocity=127 time=0\n",
      "note_on channel=3 note=64 velocity=0 time=120\n",
      "note_on channel=3 note=52 velocity=0 time=0\n",
      "note_on channel=3 note=59 velocity=0 time=0\n",
      "note_on channel=3 note=52 velocity=127 time=0\n",
      "note_on channel=3 note=52 velocity=0 time=60\n",
      "note_on channel=3 note=54 velocity=127 time=0\n",
      "note_on channel=3 note=54 velocity=0 time=60\n",
      "note_on channel=3 note=59 velocity=127 time=0\n",
      "note_on channel=3 note=59 velocity=0 time=60\n",
      "note_on channel=3 note=55 velocity=127 time=0\n",
      "note_on channel=3 note=55 velocity=0 time=60\n",
      "note_on channel=3 note=54 velocity=127 time=0\n",
      "note_on channel=3 note=54 velocity=0 time=60\n",
      "control_change channel=3 control=1 value=0 time=0\n",
      "note_on channel=3 note=55 velocity=127 time=0\n",
      "control_change channel=3 control=1 value=7 time=1\n",
      "control_change channel=3 control=1 value=13 time=1\n",
      "control_change channel=3 control=1 value=20 time=1\n",
      "control_change channel=3 control=1 value=26 time=1\n",
      "control_change channel=3 control=1 value=32 time=1\n",
      "control_change channel=3 control=1 value=39 time=1\n",
      "control_change channel=3 control=1 value=45 time=1\n",
      "control_change channel=3 control=1 value=52 time=1\n",
      "control_change channel=3 control=1 value=58 time=1\n",
      "control_change channel=3 control=1 value=64 time=1\n",
      "control_change channel=3 control=1 value=0 time=49\n",
      "note_on channel=3 note=55 velocity=0 time=121\n",
      "note_on channel=3 note=48 velocity=127 time=0\n",
      "note_on channel=3 note=48 velocity=0 time=60\n",
      "note_on channel=3 note=48 velocity=127 time=0\n",
      "note_on channel=3 note=48 velocity=0 time=60\n",
      "note_on channel=3 note=48 velocity=127 time=0\n",
      "note_on channel=3 note=48 velocity=0 time=60\n",
      "note_on channel=3 note=48 velocity=127 time=0\n",
      "note_on channel=3 note=48 velocity=0 time=60\n",
      "note_on channel=3 note=60 velocity=127 time=0\n",
      "note_on channel=3 note=55 velocity=127 time=0\n",
      "note_on channel=3 note=48 velocity=127 time=0\n",
      "note_on channel=3 note=60 velocity=0 time=120\n",
      "note_on channel=3 note=55 velocity=0 time=0\n",
      "note_on channel=3 note=48 velocity=0 time=0\n",
      "note_on channel=3 note=47 velocity=127 time=0\n",
      "note_on channel=3 note=59 velocity=127 time=0\n",
      "note_on channel=3 note=54 velocity=127 time=0\n",
      "note_on channel=3 note=47 velocity=0 time=120\n",
      "note_on channel=3 note=59 velocity=0 time=0\n",
      "note_on channel=3 note=54 velocity=0 time=0\n",
      "note_on channel=3 note=54 velocity=127 time=0\n",
      "note_on channel=3 note=54 velocity=0 time=60\n",
      "note_on channel=3 note=52 velocity=127 time=0\n",
      "note_on channel=3 note=52 velocity=0 time=60\n",
      "note_on channel=3 note=51 velocity=127 time=0\n",
      "note_on channel=3 note=51 velocity=0 time=60\n",
      "note_on channel=3 note=51 velocity=127 time=60\n",
      "note_on channel=3 note=51 velocity=0 time=60\n",
      "note_on channel=3 note=48 velocity=127 time=0\n",
      "note_on channel=3 note=48 velocity=0 time=60\n",
      "note_on channel=3 note=47 velocity=127 time=0\n",
      "note_on channel=3 note=47 velocity=0 time=60\n",
      "note_on channel=3 note=52 velocity=127 time=60\n",
      "note_on channel=3 note=59 velocity=127 time=0\n",
      "note_on channel=3 note=47 velocity=127 time=0\n",
      "note_on channel=3 note=40 velocity=127 time=0\n",
      "note_on channel=3 note=52 velocity=0 time=120\n",
      "note_on channel=3 note=59 velocity=0 time=0\n",
      "note_on channel=3 note=47 velocity=0 time=0\n",
      "note_on channel=3 note=40 velocity=0 time=0\n",
      "note_on channel=3 note=59 velocity=127 time=0\n",
      "note_on channel=3 note=40 velocity=127 time=0\n",
      "note_on channel=3 note=52 velocity=127 time=0\n",
      "note_on channel=3 note=47 velocity=127 time=0\n",
      "note_on channel=3 note=59 velocity=0 time=120\n",
      "note_on channel=3 note=40 velocity=0 time=0\n",
      "note_on channel=3 note=52 velocity=0 time=0\n",
      "note_on channel=3 note=47 velocity=0 time=0\n",
      "note_on channel=3 note=41 velocity=127 time=240\n",
      "note_on channel=3 note=57 velocity=127 time=0\n",
      "note_on channel=3 note=53 velocity=127 time=0\n",
      "note_on channel=3 note=48 velocity=127 time=0\n",
      "note_on channel=3 note=41 velocity=0 time=120\n",
      "note_on channel=3 note=57 velocity=0 time=0\n",
      "note_on channel=3 note=53 velocity=0 time=0\n",
      "note_on channel=3 note=48 velocity=0 time=0\n",
      "note_on channel=3 note=41 velocity=127 time=0\n",
      "note_on channel=3 note=57 velocity=127 time=0\n",
      "note_on channel=3 note=53 velocity=127 time=0\n",
      "note_on channel=3 note=48 velocity=127 time=0\n",
      "note_on channel=3 note=41 velocity=0 time=120\n",
      "note_on channel=3 note=57 velocity=0 time=0\n",
      "note_on channel=3 note=53 velocity=0 time=0\n",
      "note_on channel=3 note=48 velocity=0 time=0\n",
      "note_on channel=3 note=59 velocity=127 time=240\n",
      "note_on channel=3 note=52 velocity=127 time=0\n",
      "note_on channel=3 note=47 velocity=127 time=0\n",
      "note_on channel=3 note=40 velocity=127 time=0\n",
      "note_on channel=3 note=59 velocity=0 time=300\n",
      "note_on channel=3 note=52 velocity=0 time=0\n",
      "note_on channel=3 note=47 velocity=0 time=0\n",
      "note_on channel=3 note=40 velocity=0 time=0\n",
      "note_on channel=3 note=40 velocity=127 time=0\n",
      "note_on channel=3 note=40 velocity=0 time=60\n",
      "note_on channel=3 note=40 velocity=127 time=0\n",
      "note_on channel=3 note=40 velocity=0 time=60\n",
      "note_on channel=3 note=40 velocity=127 time=0\n",
      "note_on channel=3 note=40 velocity=0 time=60\n",
      "note_on channel=3 note=42 velocity=127 time=0\n",
      "note_on channel=3 note=42 velocity=0 time=60\n",
      "note_on channel=3 note=40 velocity=127 time=0\n",
      "note_on channel=3 note=40 velocity=0 time=60\n",
      "note_on channel=3 note=40 velocity=127 time=0\n",
      "note_on channel=3 note=40 velocity=0 time=60\n",
      "note_on channel=3 note=40 velocity=127 time=0\n",
      "note_on channel=3 note=40 velocity=0 time=60\n",
      "note_on channel=3 note=50 velocity=127 time=0\n",
      "note_on channel=3 note=59 velocity=127 time=0\n",
      "note_on channel=3 note=43 velocity=127 time=0\n",
      "note_on channel=3 note=55 velocity=127 time=0\n",
      "note_on channel=3 note=50 velocity=0 time=960\n",
      "note_on channel=3 note=59 velocity=0 time=0\n",
      "note_on channel=3 note=43 velocity=0 time=0\n",
      "note_on channel=3 note=55 velocity=0 time=0\n",
      "note_on channel=3 note=60 velocity=127 time=0\n",
      "note_on channel=3 note=55 velocity=127 time=0\n",
      "note_on channel=3 note=48 velocity=127 time=0\n",
      "note_on channel=3 note=60 velocity=0 time=300\n",
      "note_on channel=3 note=55 velocity=0 time=0\n",
      "note_on channel=3 note=48 velocity=0 time=0\n",
      "note_on channel=3 note=45 velocity=127 time=0\n",
      "note_on channel=3 note=45 velocity=0 time=60\n",
      "note_on channel=3 note=45 velocity=127 time=0\n",
      "note_on channel=3 note=45 velocity=0 time=60\n",
      "note_on channel=3 note=45 velocity=127 time=0\n",
      "note_on channel=3 note=45 velocity=0 time=60\n",
      "note_on channel=3 note=54 velocity=127 time=0\n",
      "note_on channel=3 note=47 velocity=127 time=0\n",
      "note_on channel=3 note=54 velocity=0 time=60\n",
      "note_on channel=3 note=47 velocity=0 time=0\n",
      "note_on channel=3 note=45 velocity=127 time=0\n",
      "note_on channel=3 note=45 velocity=0 time=60\n",
      "note_on channel=3 note=45 velocity=127 time=0\n",
      "note_on channel=3 note=45 velocity=0 time=60\n",
      "note_on channel=3 note=45 velocity=127 time=0\n",
      "note_on channel=3 note=45 velocity=0 time=60\n",
      "note_on channel=3 note=45 velocity=127 time=0\n",
      "note_on channel=3 note=57 velocity=127 time=0\n",
      "note_on channel=3 note=52 velocity=127 time=0\n",
      "note_on channel=3 note=45 velocity=0 time=960\n",
      "note_on channel=3 note=57 velocity=0 time=0\n",
      "note_on channel=3 note=52 velocity=0 time=0\n",
      "note_on channel=3 note=50 velocity=127 time=0\n",
      "note_on channel=3 note=66 velocity=127 time=0\n",
      "note_on channel=3 note=62 velocity=127 time=0\n",
      "note_on channel=3 note=57 velocity=127 time=0\n",
      "note_on channel=3 note=50 velocity=0 time=300\n",
      "note_on channel=3 note=66 velocity=0 time=0\n",
      "note_on channel=3 note=62 velocity=0 time=0\n",
      "note_on channel=3 note=57 velocity=0 time=0\n",
      "note_on channel=3 note=43 velocity=127 time=0\n",
      "note_on channel=3 note=43 velocity=0 time=60\n",
      "note_on channel=3 note=43 velocity=127 time=0\n",
      "note_on channel=3 note=43 velocity=0 time=60\n",
      "note_on channel=3 note=43 velocity=127 time=0\n",
      "note_on channel=3 note=43 velocity=0 time=60\n",
      "note_on channel=3 note=55 velocity=127 time=0\n",
      "note_on channel=3 note=48 velocity=127 time=0\n",
      "note_on channel=3 note=55 velocity=0 time=60\n",
      "note_on channel=3 note=48 velocity=0 time=0\n",
      "note_on channel=3 note=43 velocity=127 time=0\n",
      "note_on channel=3 note=43 velocity=0 time=60\n",
      "note_on channel=3 note=43 velocity=127 time=0\n",
      "note_on channel=3 note=43 velocity=0 time=60\n",
      "note_on channel=3 note=43 velocity=127 time=0\n",
      "note_on channel=3 note=43 velocity=0 time=60\n",
      "note_on channel=3 note=54 velocity=127 time=0\n",
      "note_on channel=3 note=63 velocity=127 time=0\n",
      "note_on channel=3 note=47 velocity=127 time=0\n",
      "note_on channel=3 note=59 velocity=127 time=0\n",
      "note_on channel=3 note=54 velocity=0 time=480\n",
      "note_on channel=3 note=63 velocity=0 time=0\n",
      "note_on channel=3 note=47 velocity=0 time=0\n",
      "note_on channel=3 note=59 velocity=0 time=0\n",
      "note_on channel=3 note=64 velocity=127 time=0\n",
      "note_on channel=3 note=59 velocity=127 time=0\n",
      "note_on channel=3 note=52 velocity=127 time=0\n",
      "note_on channel=3 note=40 velocity=127 time=0\n",
      "note_on channel=3 note=64 velocity=0 time=300\n",
      "note_on channel=3 note=59 velocity=0 time=0\n",
      "note_on channel=3 note=52 velocity=0 time=0\n",
      "note_on channel=3 note=40 velocity=0 time=0\n",
      "note_on channel=3 note=40 velocity=127 time=0\n",
      "note_on channel=3 note=40 velocity=0 time=60\n",
      "note_on channel=3 note=40 velocity=127 time=0\n",
      "note_on channel=3 note=40 velocity=0 time=60\n",
      "note_on channel=3 note=40 velocity=127 time=0\n",
      "note_on channel=3 note=40 velocity=0 time=60\n",
      "note_on channel=3 note=62 velocity=127 time=0\n",
      "note_on channel=3 note=57 velocity=127 time=0\n",
      "note_on channel=3 note=50 velocity=127 time=0\n",
      "note_on channel=3 note=62 velocity=0 time=120\n",
      "note_on channel=3 note=57 velocity=0 time=0\n",
      "note_on channel=3 note=50 velocity=0 time=0\n",
      "note_on channel=3 note=40 velocity=127 time=0\n",
      "note_on channel=3 note=40 velocity=0 time=60\n",
      "note_on channel=3 note=40 velocity=127 time=0\n",
      "note_on channel=3 note=40 velocity=0 time=60\n",
      "note_on channel=3 note=48 velocity=127 time=0\n",
      "note_on channel=3 note=60 velocity=127 time=0\n",
      "note_on channel=3 note=64 velocity=127 time=0\n",
      "note_on channel=3 note=55 velocity=127 time=0\n",
      "note_on channel=3 note=48 velocity=0 time=720\n",
      "note_on channel=3 note=60 velocity=0 time=0\n",
      "note_on channel=3 note=64 velocity=0 time=0\n",
      "note_on channel=3 note=55 velocity=0 time=0\n",
      "note_on channel=3 note=40 velocity=127 time=0\n",
      "note_on channel=3 note=59 velocity=127 time=0\n",
      "note_on channel=3 note=52 velocity=127 time=0\n",
      "note_on channel=3 note=47 velocity=127 time=0\n",
      "note_on channel=3 note=40 velocity=0 time=120\n",
      "note_on channel=3 note=59 velocity=0 time=0\n",
      "note_on channel=3 note=52 velocity=0 time=0\n",
      "note_on channel=3 note=47 velocity=0 time=0\n",
      "note_on channel=3 note=40 velocity=127 time=0\n",
      "note_on channel=3 note=47 velocity=127 time=0\n",
      "note_on channel=3 note=52 velocity=127 time=0\n",
      "note_on channel=3 note=59 velocity=127 time=0\n",
      "note_on channel=3 note=40 velocity=0 time=120\n",
      "note_on channel=3 note=47 velocity=0 time=0\n",
      "note_on channel=3 note=52 velocity=0 time=0\n",
      "note_on channel=3 note=59 velocity=0 time=0\n",
      "note_on channel=3 note=48 velocity=127 time=240\n",
      "note_on channel=3 note=57 velocity=127 time=0\n",
      "note_on channel=3 note=41 velocity=127 time=0\n",
      "note_on channel=3 note=53 velocity=127 time=0\n",
      "note_on channel=3 note=48 velocity=0 time=120\n",
      "note_on channel=3 note=57 velocity=0 time=0\n",
      "note_on channel=3 note=41 velocity=0 time=0\n",
      "note_on channel=3 note=53 velocity=0 time=0\n",
      "note_on channel=3 note=57 velocity=127 time=0\n",
      "note_on channel=3 note=53 velocity=127 time=0\n",
      "note_on channel=3 note=48 velocity=127 time=0\n",
      "note_on channel=3 note=41 velocity=127 time=0\n",
      "note_on channel=3 note=57 velocity=0 time=120\n",
      "note_on channel=3 note=53 velocity=0 time=0\n",
      "note_on channel=3 note=48 velocity=0 time=0\n",
      "note_on channel=3 note=41 velocity=0 time=0\n",
      "note_on channel=3 note=52 velocity=127 time=240\n",
      "note_on channel=3 note=59 velocity=127 time=0\n",
      "note_on channel=3 note=47 velocity=127 time=0\n",
      "note_on channel=3 note=40 velocity=127 time=0\n",
      "note_on channel=3 note=52 velocity=0 time=300\n",
      "note_on channel=3 note=59 velocity=0 time=0\n",
      "note_on channel=3 note=47 velocity=0 time=0\n",
      "note_on channel=3 note=40 velocity=0 time=0\n",
      "note_on channel=3 note=40 velocity=127 time=0\n",
      "note_on channel=3 note=40 velocity=0 time=60\n",
      "note_on channel=3 note=40 velocity=127 time=0\n",
      "note_on channel=3 note=40 velocity=0 time=60\n",
      "note_on channel=3 note=40 velocity=127 time=0\n",
      "note_on channel=3 note=40 velocity=0 time=60\n",
      "note_on channel=3 note=42 velocity=127 time=0\n",
      "note_on channel=3 note=42 velocity=0 time=60\n",
      "note_on channel=3 note=40 velocity=127 time=0\n",
      "note_on channel=3 note=40 velocity=0 time=60\n",
      "note_on channel=3 note=40 velocity=127 time=0\n",
      "note_on channel=3 note=40 velocity=0 time=60\n",
      "note_on channel=3 note=40 velocity=127 time=0\n",
      "note_on channel=3 note=40 velocity=0 time=60\n",
      "note_on channel=3 note=60 velocity=127 time=0\n",
      "note_on channel=3 note=64 velocity=127 time=0\n",
      "note_on channel=3 note=55 velocity=127 time=0\n",
      "note_on channel=3 note=48 velocity=127 time=0\n",
      "note_on channel=3 note=60 velocity=0 time=960\n",
      "note_on channel=3 note=64 velocity=0 time=0\n",
      "note_on channel=3 note=55 velocity=0 time=0\n",
      "note_on channel=3 note=48 velocity=0 time=0\n",
      "note_on channel=3 note=52 velocity=127 time=0\n",
      "note_on channel=3 note=59 velocity=127 time=0\n",
      "note_on channel=3 note=47 velocity=127 time=0\n",
      "note_on channel=3 note=40 velocity=127 time=0\n",
      "note_on channel=3 note=52 velocity=0 time=120\n",
      "note_on channel=3 note=59 velocity=0 time=0\n",
      "note_on channel=3 note=47 velocity=0 time=0\n",
      "note_on channel=3 note=40 velocity=0 time=0\n",
      "note_on channel=3 note=40 velocity=127 time=0\n",
      "note_on channel=3 note=59 velocity=127 time=0\n",
      "note_on channel=3 note=47 velocity=127 time=0\n",
      "note_on channel=3 note=52 velocity=127 time=0\n",
      "note_on channel=3 note=40 velocity=0 time=120\n",
      "note_on channel=3 note=59 velocity=0 time=0\n",
      "note_on channel=3 note=47 velocity=0 time=0\n",
      "note_on channel=3 note=52 velocity=0 time=0\n",
      "note_on channel=3 note=41 velocity=127 time=240\n",
      "note_on channel=3 note=57 velocity=127 time=0\n",
      "note_on channel=3 note=53 velocity=127 time=0\n",
      "note_on channel=3 note=48 velocity=127 time=0\n",
      "note_on channel=3 note=41 velocity=0 time=120\n",
      "note_on channel=3 note=57 velocity=0 time=0\n",
      "note_on channel=3 note=53 velocity=0 time=0\n",
      "note_on channel=3 note=48 velocity=0 time=0\n",
      "note_on channel=3 note=57 velocity=127 time=0\n",
      "note_on channel=3 note=41 velocity=127 time=0\n",
      "note_on channel=3 note=48 velocity=127 time=0\n",
      "note_on channel=3 note=53 velocity=127 time=0\n",
      "note_on channel=3 note=57 velocity=0 time=120\n",
      "note_on channel=3 note=41 velocity=0 time=0\n",
      "note_on channel=3 note=48 velocity=0 time=0\n",
      "note_on channel=3 note=53 velocity=0 time=0\n",
      "note_on channel=3 note=40 velocity=127 time=1200\n",
      "note_on channel=3 note=40 velocity=0 time=60\n",
      "note_on channel=3 note=47 velocity=127 time=0\n",
      "note_on channel=3 note=47 velocity=0 time=60\n",
      "note_on channel=3 note=52 velocity=127 time=0\n",
      "note_on channel=3 note=52 velocity=0 time=60\n",
      "note_on channel=3 note=55 velocity=127 time=0\n",
      "note_on channel=3 note=55 velocity=0 time=60\n",
      "note_on channel=3 note=50 velocity=127 time=0\n",
      "note_on channel=3 note=50 velocity=0 time=60\n",
      "note_on channel=3 note=57 velocity=127 time=0\n",
      "note_on channel=3 note=57 velocity=0 time=60\n",
      "note_on channel=3 note=62 velocity=127 time=0\n",
      "note_on channel=3 note=62 velocity=0 time=60\n",
      "note_on channel=3 note=57 velocity=127 time=0\n",
      "note_on channel=3 note=57 velocity=0 time=60\n",
      "note_on channel=3 note=64 velocity=127 time=0\n",
      "note_on channel=3 note=64 velocity=0 time=20\n",
      "note_on channel=3 note=66 velocity=127 time=0\n",
      "note_on channel=3 note=66 velocity=0 time=20\n",
      "note_on channel=3 note=64 velocity=127 time=0\n",
      "note_on channel=3 note=64 velocity=0 time=20\n",
      "note_on channel=3 note=62 velocity=127 time=0\n",
      "note_on channel=3 note=62 velocity=0 time=60\n",
      "note_on channel=3 note=57 velocity=127 time=0\n",
      "note_on channel=3 note=57 velocity=0 time=60\n",
      "note_on channel=3 note=55 velocity=127 time=0\n",
      "note_on channel=3 note=67 velocity=127 time=0\n",
      "note_on channel=3 note=67 velocity=0 time=60\n",
      "note_on channel=3 note=48 velocity=127 time=0\n",
      "note_on channel=3 note=55 velocity=0 time=60\n",
      "note_on channel=3 note=48 velocity=0 time=0\n",
      "note_on channel=3 note=55 velocity=127 time=0\n",
      "note_on channel=3 note=55 velocity=0 time=60\n",
      "note_on channel=3 note=62 velocity=127 time=0\n",
      "note_on channel=3 note=62 velocity=0 time=60\n",
      "note_on channel=3 note=55 velocity=127 time=0\n",
      "note_on channel=3 note=55 velocity=0 time=60\n",
      "note_on channel=3 note=62 velocity=127 time=0\n",
      "note_on channel=3 note=62 velocity=0 time=60\n",
      "note_on channel=3 note=55 velocity=127 time=0\n",
      "note_on channel=3 note=55 velocity=0 time=60\n",
      "note_on channel=3 note=52 velocity=127 time=0\n",
      "note_on channel=3 note=52 velocity=0 time=60\n",
      "note_on channel=3 note=59 velocity=127 time=0\n",
      "note_on channel=3 note=45 velocity=127 time=60\n",
      "note_on channel=3 note=59 velocity=0 time=60\n",
      "note_on channel=3 note=57 velocity=127 time=0\n",
      "note_on channel=3 note=57 velocity=0 time=60\n",
      "note_on channel=3 note=59 velocity=127 time=0\n",
      "note_on channel=3 note=45 velocity=0 time=60\n",
      "note_on channel=3 note=45 velocity=127 time=0\n",
      "note_on channel=3 note=45 velocity=0 time=60\n",
      "note_on channel=3 note=47 velocity=127 time=0\n",
      "note_on channel=3 note=59 velocity=0 time=60\n",
      "note_on channel=3 note=57 velocity=127 time=0\n",
      "note_on channel=3 note=57 velocity=0 time=60\n",
      "note_on channel=3 note=59 velocity=127 time=0\n",
      "note_on channel=3 note=47 velocity=0 time=60\n",
      "note_on channel=3 note=47 velocity=127 time=0\n",
      "note_on channel=3 note=47 velocity=0 time=60\n",
      "note_on channel=3 note=51 velocity=127 time=0\n",
      "note_on channel=3 note=59 velocity=0 time=60\n",
      "note_on channel=3 note=57 velocity=127 time=0\n",
      "note_on channel=3 note=57 velocity=0 time=60\n",
      "note_on channel=3 note=59 velocity=127 time=0\n",
      "note_on channel=3 note=51 velocity=0 time=60\n",
      "note_on channel=3 note=43 velocity=127 time=0\n",
      "note_on channel=3 note=59 velocity=0 time=60\n",
      "note_on channel=3 note=43 velocity=0 time=0\n",
      "note_on channel=3 note=40 velocity=127 time=0\n",
      "note_on channel=3 note=40 velocity=0 time=60\n",
      "note_on channel=3 note=47 velocity=127 time=0\n",
      "note_on channel=3 note=47 velocity=0 time=60\n",
      "note_on channel=3 note=52 velocity=127 time=0\n",
      "note_on channel=3 note=52 velocity=0 time=60\n",
      "note_on channel=3 note=55 velocity=127 time=0\n",
      "note_on channel=3 note=55 velocity=0 time=60\n",
      "note_on channel=3 note=50 velocity=127 time=0\n",
      "note_on channel=3 note=50 velocity=0 time=60\n",
      "note_on channel=3 note=57 velocity=127 time=0\n",
      "note_on channel=3 note=57 velocity=0 time=60\n",
      "note_on channel=3 note=62 velocity=127 time=0\n",
      "note_on channel=3 note=62 velocity=0 time=60\n",
      "note_on channel=3 note=57 velocity=127 time=0\n",
      "note_on channel=3 note=57 velocity=0 time=60\n",
      "note_on channel=3 note=64 velocity=127 time=0\n",
      "note_on channel=3 note=64 velocity=0 time=20\n",
      "note_on channel=3 note=66 velocity=127 time=0\n",
      "note_on channel=3 note=66 velocity=0 time=20\n",
      "note_on channel=3 note=64 velocity=127 time=0\n",
      "note_on channel=3 note=64 velocity=0 time=20\n",
      "note_on channel=3 note=62 velocity=127 time=0\n",
      "note_on channel=3 note=62 velocity=0 time=60\n",
      "note_on channel=3 note=57 velocity=127 time=0\n",
      "note_on channel=3 note=57 velocity=0 time=60\n",
      "note_on channel=3 note=55 velocity=127 time=0\n",
      "note_on channel=3 note=67 velocity=127 time=0\n",
      "note_on channel=3 note=67 velocity=0 time=60\n",
      "note_on channel=3 note=48 velocity=127 time=0\n",
      "note_on channel=3 note=55 velocity=0 time=60\n",
      "note_on channel=3 note=48 velocity=0 time=0\n",
      "note_on channel=3 note=55 velocity=127 time=0\n",
      "note_on channel=3 note=55 velocity=0 time=60\n",
      "note_on channel=3 note=62 velocity=127 time=0\n",
      "note_on channel=3 note=62 velocity=0 time=60\n",
      "note_on channel=3 note=55 velocity=127 time=0\n",
      "note_on channel=3 note=55 velocity=0 time=60\n",
      "note_on channel=3 note=62 velocity=127 time=0\n",
      "note_on channel=3 note=62 velocity=0 time=60\n",
      "note_on channel=3 note=55 velocity=127 time=0\n",
      "note_on channel=3 note=55 velocity=0 time=60\n",
      "note_on channel=3 note=52 velocity=127 time=0\n",
      "note_on channel=3 note=52 velocity=0 time=60\n",
      "note_on channel=3 note=59 velocity=127 time=0\n",
      "note_on channel=3 note=45 velocity=127 time=60\n",
      "note_on channel=3 note=59 velocity=0 time=60\n",
      "note_on channel=3 note=57 velocity=127 time=0\n",
      "note_on channel=3 note=57 velocity=0 time=60\n",
      "note_on channel=3 note=59 velocity=127 time=0\n",
      "note_on channel=3 note=45 velocity=0 time=60\n",
      "note_on channel=3 note=45 velocity=127 time=0\n",
      "note_on channel=3 note=45 velocity=0 time=60\n",
      "note_on channel=3 note=47 velocity=127 time=0\n",
      "note_on channel=3 note=59 velocity=0 time=60\n",
      "note_on channel=3 note=57 velocity=127 time=0\n",
      "note_on channel=3 note=57 velocity=0 time=60\n",
      "note_on channel=3 note=59 velocity=127 time=0\n",
      "note_on channel=3 note=47 velocity=0 time=60\n",
      "note_on channel=3 note=47 velocity=127 time=0\n",
      "note_on channel=3 note=47 velocity=0 time=60\n",
      "note_on channel=3 note=51 velocity=127 time=0\n",
      "note_on channel=3 note=59 velocity=0 time=60\n",
      "note_on channel=3 note=57 velocity=127 time=0\n",
      "note_on channel=3 note=57 velocity=0 time=60\n",
      "note_on channel=3 note=59 velocity=127 time=0\n",
      "note_on channel=3 note=51 velocity=0 time=60\n",
      "note_on channel=3 note=43 velocity=127 time=0\n",
      "note_on channel=3 note=59 velocity=0 time=60\n",
      "note_on channel=3 note=43 velocity=0 time=0\n",
      "note_on channel=3 note=40 velocity=127 time=0\n",
      "note_on channel=3 note=40 velocity=0 time=60\n",
      "note_on channel=3 note=47 velocity=127 time=0\n",
      "note_on channel=3 note=47 velocity=0 time=60\n",
      "note_on channel=3 note=52 velocity=127 time=0\n",
      "note_on channel=3 note=52 velocity=0 time=60\n",
      "note_on channel=3 note=55 velocity=127 time=0\n",
      "note_on channel=3 note=55 velocity=0 time=60\n",
      "note_on channel=3 note=50 velocity=127 time=0\n",
      "note_on channel=3 note=50 velocity=0 time=60\n",
      "note_on channel=3 note=57 velocity=127 time=0\n",
      "note_on channel=3 note=57 velocity=0 time=60\n",
      "note_on channel=3 note=62 velocity=127 time=0\n",
      "note_on channel=3 note=62 velocity=0 time=60\n",
      "note_on channel=3 note=57 velocity=127 time=0\n",
      "note_on channel=3 note=57 velocity=0 time=60\n",
      "note_on channel=3 note=64 velocity=127 time=0\n",
      "note_on channel=3 note=64 velocity=0 time=20\n",
      "note_on channel=3 note=66 velocity=127 time=0\n",
      "note_on channel=3 note=66 velocity=0 time=20\n",
      "note_on channel=3 note=64 velocity=127 time=0\n",
      "note_on channel=3 note=64 velocity=0 time=20\n",
      "note_on channel=3 note=62 velocity=127 time=0\n",
      "note_on channel=3 note=62 velocity=0 time=60\n",
      "note_on channel=3 note=57 velocity=127 time=0\n",
      "note_on channel=3 note=57 velocity=0 time=60\n",
      "note_on channel=3 note=55 velocity=127 time=0\n",
      "note_on channel=3 note=67 velocity=127 time=0\n",
      "note_on channel=3 note=67 velocity=0 time=60\n",
      "note_on channel=3 note=48 velocity=127 time=0\n",
      "note_on channel=3 note=55 velocity=0 time=60\n",
      "note_on channel=3 note=48 velocity=0 time=0\n",
      "note_on channel=3 note=55 velocity=127 time=0\n",
      "note_on channel=3 note=55 velocity=0 time=60\n",
      "note_on channel=3 note=62 velocity=127 time=0\n",
      "note_on channel=3 note=62 velocity=0 time=60\n",
      "note_on channel=3 note=55 velocity=127 time=0\n",
      "note_on channel=3 note=55 velocity=0 time=60\n",
      "note_on channel=3 note=62 velocity=127 time=0\n",
      "note_on channel=3 note=62 velocity=0 time=60\n",
      "note_on channel=3 note=55 velocity=127 time=0\n",
      "note_on channel=3 note=55 velocity=0 time=60\n",
      "note_on channel=3 note=52 velocity=127 time=0\n",
      "note_on channel=3 note=52 velocity=0 time=60\n",
      "note_on channel=3 note=59 velocity=127 time=0\n",
      "note_on channel=3 note=45 velocity=127 time=60\n",
      "note_on channel=3 note=59 velocity=0 time=60\n",
      "note_on channel=3 note=57 velocity=127 time=0\n",
      "note_on channel=3 note=57 velocity=0 time=60\n",
      "note_on channel=3 note=59 velocity=127 time=0\n",
      "note_on channel=3 note=45 velocity=0 time=60\n",
      "note_on channel=3 note=45 velocity=127 time=0\n",
      "note_on channel=3 note=45 velocity=0 time=60\n",
      "note_on channel=3 note=47 velocity=127 time=0\n",
      "note_on channel=3 note=59 velocity=0 time=60\n",
      "note_on channel=3 note=57 velocity=127 time=0\n",
      "note_on channel=3 note=57 velocity=0 time=60\n",
      "note_on channel=3 note=59 velocity=127 time=0\n",
      "note_on channel=3 note=47 velocity=0 time=60\n",
      "note_on channel=3 note=47 velocity=127 time=0\n",
      "note_on channel=3 note=47 velocity=0 time=60\n",
      "note_on channel=3 note=51 velocity=127 time=0\n",
      "note_on channel=3 note=59 velocity=0 time=60\n",
      "note_on channel=3 note=57 velocity=127 time=0\n",
      "note_on channel=3 note=57 velocity=0 time=60\n",
      "note_on channel=3 note=59 velocity=127 time=0\n",
      "note_on channel=3 note=51 velocity=0 time=60\n",
      "note_on channel=3 note=43 velocity=127 time=0\n",
      "note_on channel=3 note=59 velocity=0 time=60\n",
      "note_on channel=3 note=43 velocity=0 time=0\n",
      "note_on channel=3 note=40 velocity=127 time=0\n",
      "note_on channel=3 note=40 velocity=127 time=1\n",
      "note_on channel=3 note=40 velocity=0 time=59\n",
      "note_on channel=3 note=47 velocity=127 time=0\n",
      "note_on channel=3 note=40 velocity=0 time=1\n",
      "note_on channel=3 note=47 velocity=127 time=0\n",
      "note_on channel=3 note=47 velocity=0 time=59\n",
      "note_on channel=3 note=52 velocity=127 time=0\n",
      "note_on channel=3 note=47 velocity=0 time=1\n",
      "note_on channel=3 note=52 velocity=127 time=0\n",
      "note_on channel=3 note=52 velocity=0 time=59\n",
      "note_on channel=3 note=55 velocity=127 time=0\n",
      "note_on channel=3 note=52 velocity=0 time=1\n",
      "note_on channel=3 note=55 velocity=127 time=0\n",
      "note_on channel=3 note=55 velocity=0 time=59\n",
      "note_on channel=3 note=50 velocity=127 time=0\n",
      "note_on channel=3 note=55 velocity=0 time=1\n",
      "note_on channel=3 note=50 velocity=127 time=0\n",
      "note_on channel=3 note=50 velocity=0 time=59\n",
      "note_on channel=3 note=57 velocity=127 time=0\n",
      "note_on channel=3 note=50 velocity=0 time=1\n",
      "note_on channel=3 note=57 velocity=127 time=0\n",
      "note_on channel=3 note=57 velocity=0 time=59\n",
      "note_on channel=3 note=62 velocity=127 time=0\n",
      "note_on channel=3 note=57 velocity=0 time=1\n",
      "note_on channel=3 note=62 velocity=127 time=0\n",
      "note_on channel=3 note=62 velocity=0 time=59\n",
      "note_on channel=3 note=57 velocity=127 time=0\n",
      "note_on channel=3 note=62 velocity=0 time=1\n",
      "note_on channel=3 note=57 velocity=127 time=0\n",
      "note_on channel=3 note=57 velocity=0 time=59\n",
      "note_on channel=3 note=64 velocity=127 time=0\n",
      "note_on channel=3 note=57 velocity=0 time=1\n",
      "note_on channel=3 note=64 velocity=127 time=0\n",
      "note_on channel=3 note=64 velocity=0 time=19\n",
      "note_on channel=3 note=66 velocity=127 time=0\n",
      "note_on channel=3 note=64 velocity=0 time=1\n",
      "note_on channel=3 note=66 velocity=127 time=0\n",
      "note_on channel=3 note=66 velocity=0 time=19\n",
      "note_on channel=3 note=64 velocity=127 time=0\n",
      "note_on channel=3 note=66 velocity=0 time=1\n",
      "note_on channel=3 note=64 velocity=127 time=0\n",
      "note_on channel=3 note=64 velocity=0 time=19\n",
      "note_on channel=3 note=62 velocity=127 time=0\n",
      "note_on channel=3 note=64 velocity=0 time=1\n",
      "note_on channel=3 note=62 velocity=127 time=0\n",
      "note_on channel=3 note=62 velocity=0 time=59\n",
      "note_on channel=3 note=57 velocity=127 time=0\n",
      "note_on channel=3 note=62 velocity=0 time=1\n",
      "note_on channel=3 note=57 velocity=127 time=0\n",
      "note_on channel=3 note=57 velocity=0 time=59\n",
      "note_on channel=3 note=67 velocity=127 time=0\n",
      "note_on channel=3 note=55 velocity=127 time=0\n",
      "note_on channel=3 note=57 velocity=0 time=1\n",
      "note_on channel=3 note=55 velocity=127 time=0\n",
      "note_on channel=3 note=67 velocity=127 time=0\n",
      "note_on channel=3 note=67 velocity=0 time=59\n",
      "note_on channel=3 note=48 velocity=127 time=0\n",
      "note_on channel=3 note=67 velocity=0 time=1\n",
      "note_on channel=3 note=48 velocity=127 time=0\n",
      "note_on channel=3 note=55 velocity=0 time=59\n",
      "note_on channel=3 note=48 velocity=0 time=0\n",
      "note_on channel=3 note=55 velocity=127 time=0\n",
      "note_on channel=3 note=55 velocity=0 time=1\n",
      "note_on channel=3 note=48 velocity=0 time=0\n",
      "note_on channel=3 note=55 velocity=127 time=0\n",
      "note_on channel=3 note=55 velocity=0 time=59\n",
      "note_on channel=3 note=62 velocity=127 time=0\n",
      "note_on channel=3 note=55 velocity=0 time=1\n",
      "note_on channel=3 note=62 velocity=127 time=0\n",
      "note_on channel=3 note=62 velocity=0 time=59\n",
      "note_on channel=3 note=55 velocity=127 time=0\n",
      "note_on channel=3 note=62 velocity=0 time=1\n",
      "note_on channel=3 note=55 velocity=127 time=0\n",
      "note_on channel=3 note=55 velocity=0 time=59\n",
      "note_on channel=3 note=62 velocity=127 time=0\n",
      "note_on channel=3 note=55 velocity=0 time=1\n",
      "note_on channel=3 note=62 velocity=127 time=0\n",
      "note_on channel=3 note=62 velocity=0 time=59\n",
      "note_on channel=3 note=55 velocity=127 time=0\n",
      "note_on channel=3 note=62 velocity=0 time=1\n",
      "note_on channel=3 note=55 velocity=127 time=0\n",
      "note_on channel=3 note=55 velocity=0 time=59\n",
      "note_on channel=3 note=52 velocity=127 time=0\n",
      "note_on channel=3 note=55 velocity=0 time=1\n",
      "note_on channel=3 note=52 velocity=127 time=0\n",
      "note_on channel=3 note=52 velocity=0 time=59\n",
      "note_on channel=3 note=59 velocity=127 time=0\n",
      "note_on channel=3 note=52 velocity=0 time=1\n",
      "note_on channel=3 note=59 velocity=127 time=0\n",
      "note_on channel=3 note=45 velocity=127 time=59\n",
      "note_on channel=3 note=45 velocity=127 time=1\n",
      "note_on channel=3 note=59 velocity=0 time=59\n",
      "note_on channel=3 note=57 velocity=127 time=0\n",
      "note_on channel=3 note=59 velocity=0 time=1\n",
      "note_on channel=3 note=57 velocity=127 time=0\n",
      "note_on channel=3 note=57 velocity=0 time=59\n",
      "note_on channel=3 note=59 velocity=127 time=0\n",
      "note_on channel=3 note=57 velocity=0 time=1\n",
      "note_on channel=3 note=59 velocity=127 time=0\n",
      "note_on channel=3 note=45 velocity=0 time=59\n",
      "note_on channel=3 note=45 velocity=127 time=0\n",
      "note_on channel=3 note=45 velocity=0 time=1\n",
      "note_on channel=3 note=45 velocity=127 time=0\n",
      "note_on channel=3 note=45 velocity=0 time=59\n",
      "note_on channel=3 note=47 velocity=127 time=0\n",
      "note_on channel=3 note=45 velocity=0 time=1\n",
      "note_on channel=3 note=47 velocity=127 time=0\n",
      "note_on channel=3 note=59 velocity=0 time=59\n",
      "note_on channel=3 note=57 velocity=127 time=0\n",
      "note_on channel=3 note=59 velocity=0 time=1\n",
      "note_on channel=3 note=57 velocity=127 time=0\n",
      "note_on channel=3 note=57 velocity=0 time=59\n",
      "note_on channel=3 note=59 velocity=127 time=0\n",
      "note_on channel=3 note=57 velocity=0 time=1\n",
      "note_on channel=3 note=59 velocity=127 time=0\n",
      "note_on channel=3 note=47 velocity=0 time=59\n",
      "note_on channel=3 note=47 velocity=127 time=0\n",
      "note_on channel=3 note=47 velocity=0 time=1\n",
      "note_on channel=3 note=47 velocity=127 time=0\n",
      "note_on channel=3 note=47 velocity=0 time=59\n",
      "note_on channel=3 note=51 velocity=127 time=0\n",
      "note_on channel=3 note=47 velocity=0 time=1\n",
      "note_on channel=3 note=51 velocity=127 time=0\n",
      "note_on channel=3 note=59 velocity=0 time=59\n",
      "note_on channel=3 note=57 velocity=127 time=0\n",
      "note_on channel=3 note=59 velocity=0 time=1\n",
      "note_on channel=3 note=57 velocity=127 time=0\n",
      "note_on channel=3 note=57 velocity=0 time=59\n",
      "note_on channel=3 note=59 velocity=127 time=0\n",
      "note_on channel=3 note=57 velocity=0 time=1\n",
      "note_on channel=3 note=59 velocity=127 time=0\n",
      "note_on channel=3 note=51 velocity=0 time=59\n",
      "note_on channel=3 note=43 velocity=127 time=0\n",
      "note_on channel=3 note=51 velocity=0 time=1\n",
      "note_on channel=3 note=43 velocity=127 time=0\n",
      "note_on channel=3 note=59 velocity=0 time=59\n",
      "note_on channel=3 note=43 velocity=0 time=0\n",
      "note_on channel=3 note=40 velocity=127 time=0\n",
      "note_on channel=3 note=59 velocity=0 time=1\n",
      "note_on channel=3 note=43 velocity=0 time=0\n",
      "note_on channel=3 note=40 velocity=0 time=59\n",
      "note_on channel=3 note=47 velocity=127 time=0\n",
      "note_on channel=3 note=47 velocity=0 time=60\n",
      "note_on channel=3 note=52 velocity=127 time=0\n",
      "note_on channel=3 note=52 velocity=0 time=60\n",
      "note_on channel=3 note=55 velocity=127 time=0\n",
      "note_on channel=3 note=55 velocity=0 time=60\n",
      "note_on channel=3 note=50 velocity=127 time=0\n",
      "note_on channel=3 note=50 velocity=0 time=60\n",
      "note_on channel=3 note=57 velocity=127 time=0\n",
      "note_on channel=3 note=57 velocity=0 time=60\n",
      "note_on channel=3 note=62 velocity=127 time=0\n",
      "note_on channel=3 note=62 velocity=0 time=60\n",
      "note_on channel=3 note=57 velocity=127 time=0\n",
      "note_on channel=3 note=57 velocity=0 time=60\n",
      "note_on channel=3 note=64 velocity=127 time=0\n",
      "note_on channel=3 note=64 velocity=0 time=20\n",
      "note_on channel=3 note=66 velocity=127 time=0\n",
      "note_on channel=3 note=66 velocity=0 time=20\n",
      "note_on channel=3 note=64 velocity=127 time=0\n",
      "note_on channel=3 note=64 velocity=0 time=20\n",
      "note_on channel=3 note=62 velocity=127 time=0\n",
      "note_on channel=3 note=62 velocity=0 time=60\n",
      "note_on channel=3 note=57 velocity=127 time=0\n",
      "note_on channel=3 note=57 velocity=0 time=60\n",
      "note_on channel=3 note=67 velocity=127 time=0\n",
      "note_on channel=3 note=55 velocity=127 time=0\n",
      "note_on channel=3 note=67 velocity=0 time=60\n",
      "note_on channel=3 note=48 velocity=127 time=0\n",
      "note_on channel=3 note=55 velocity=0 time=60\n",
      "note_on channel=3 note=48 velocity=0 time=0\n",
      "note_on channel=3 note=55 velocity=127 time=0\n",
      "note_on channel=3 note=55 velocity=0 time=60\n",
      "note_on channel=3 note=62 velocity=127 time=0\n",
      "note_on channel=3 note=62 velocity=0 time=60\n",
      "note_on channel=3 note=55 velocity=127 time=0\n",
      "note_on channel=3 note=55 velocity=0 time=60\n",
      "note_on channel=3 note=62 velocity=127 time=0\n",
      "note_on channel=3 note=62 velocity=0 time=60\n",
      "note_on channel=3 note=55 velocity=127 time=0\n",
      "note_on channel=3 note=55 velocity=0 time=60\n",
      "note_on channel=3 note=52 velocity=127 time=0\n",
      "note_on channel=3 note=52 velocity=0 time=60\n",
      "note_on channel=3 note=59 velocity=127 time=0\n",
      "note_on channel=3 note=45 velocity=127 time=60\n",
      "note_on channel=3 note=59 velocity=0 time=60\n",
      "note_on channel=3 note=57 velocity=127 time=0\n",
      "note_on channel=3 note=57 velocity=0 time=60\n",
      "note_on channel=3 note=59 velocity=127 time=0\n",
      "note_on channel=3 note=45 velocity=0 time=60\n",
      "note_on channel=3 note=45 velocity=127 time=0\n",
      "note_on channel=3 note=45 velocity=0 time=60\n",
      "note_on channel=3 note=47 velocity=127 time=0\n",
      "note_on channel=3 note=59 velocity=0 time=60\n",
      "note_on channel=3 note=57 velocity=127 time=0\n",
      "note_on channel=3 note=57 velocity=0 time=60\n",
      "note_on channel=3 note=59 velocity=127 time=0\n",
      "note_on channel=3 note=47 velocity=0 time=60\n",
      "note_on channel=3 note=47 velocity=127 time=0\n",
      "note_on channel=3 note=47 velocity=0 time=60\n",
      "note_on channel=3 note=51 velocity=127 time=0\n",
      "note_on channel=3 note=59 velocity=0 time=60\n",
      "note_on channel=3 note=57 velocity=127 time=0\n",
      "note_on channel=3 note=57 velocity=0 time=60\n",
      "note_on channel=3 note=59 velocity=127 time=0\n",
      "note_on channel=3 note=51 velocity=0 time=60\n",
      "note_on channel=3 note=43 velocity=127 time=0\n",
      "note_on channel=3 note=59 velocity=0 time=60\n",
      "note_on channel=3 note=43 velocity=0 time=0\n",
      "note_on channel=3 note=40 velocity=127 time=0\n",
      "note_on channel=3 note=40 velocity=0 time=60\n",
      "note_on channel=3 note=47 velocity=127 time=0\n",
      "note_on channel=3 note=47 velocity=0 time=60\n",
      "note_on channel=3 note=52 velocity=127 time=0\n",
      "note_on channel=3 note=52 velocity=0 time=60\n",
      "note_on channel=3 note=55 velocity=127 time=0\n",
      "note_on channel=3 note=55 velocity=0 time=60\n",
      "note_on channel=3 note=50 velocity=127 time=0\n",
      "note_on channel=3 note=50 velocity=0 time=60\n",
      "note_on channel=3 note=57 velocity=127 time=0\n",
      "note_on channel=3 note=57 velocity=0 time=60\n",
      "note_on channel=3 note=62 velocity=127 time=0\n",
      "note_on channel=3 note=62 velocity=0 time=60\n",
      "note_on channel=3 note=57 velocity=127 time=0\n",
      "note_on channel=3 note=57 velocity=0 time=60\n",
      "note_on channel=3 note=64 velocity=127 time=0\n",
      "note_on channel=3 note=64 velocity=0 time=20\n",
      "note_on channel=3 note=66 velocity=127 time=0\n",
      "note_on channel=3 note=66 velocity=0 time=20\n",
      "note_on channel=3 note=64 velocity=127 time=0\n",
      "note_on channel=3 note=64 velocity=0 time=20\n",
      "note_on channel=3 note=62 velocity=127 time=0\n",
      "note_on channel=3 note=62 velocity=0 time=60\n",
      "note_on channel=3 note=57 velocity=127 time=0\n",
      "note_on channel=3 note=57 velocity=0 time=60\n",
      "note_on channel=3 note=55 velocity=127 time=0\n",
      "note_on channel=3 note=67 velocity=127 time=0\n",
      "note_on channel=3 note=67 velocity=0 time=60\n",
      "note_on channel=3 note=48 velocity=127 time=0\n",
      "note_on channel=3 note=55 velocity=0 time=60\n",
      "note_on channel=3 note=48 velocity=0 time=0\n",
      "note_on channel=3 note=55 velocity=127 time=0\n",
      "note_on channel=3 note=55 velocity=0 time=60\n",
      "note_on channel=3 note=62 velocity=127 time=0\n",
      "note_on channel=3 note=62 velocity=0 time=60\n",
      "note_on channel=3 note=55 velocity=127 time=0\n",
      "note_on channel=3 note=55 velocity=0 time=60\n",
      "note_on channel=3 note=62 velocity=127 time=0\n",
      "note_on channel=3 note=62 velocity=0 time=60\n",
      "note_on channel=3 note=55 velocity=127 time=0\n",
      "note_on channel=3 note=55 velocity=0 time=60\n",
      "note_on channel=3 note=52 velocity=127 time=0\n",
      "note_on channel=3 note=52 velocity=0 time=60\n",
      "note_on channel=3 note=59 velocity=127 time=0\n",
      "note_on channel=3 note=45 velocity=127 time=60\n",
      "note_on channel=3 note=59 velocity=0 time=60\n",
      "note_on channel=3 note=57 velocity=127 time=0\n",
      "note_on channel=3 note=57 velocity=0 time=60\n",
      "note_on channel=3 note=59 velocity=127 time=0\n",
      "note_on channel=3 note=45 velocity=0 time=60\n",
      "note_on channel=3 note=45 velocity=127 time=0\n",
      "note_on channel=3 note=45 velocity=0 time=60\n",
      "note_on channel=3 note=47 velocity=127 time=0\n",
      "note_on channel=3 note=59 velocity=0 time=60\n",
      "note_on channel=3 note=57 velocity=127 time=0\n",
      "note_on channel=3 note=57 velocity=0 time=60\n",
      "note_on channel=3 note=59 velocity=127 time=0\n",
      "note_on channel=3 note=47 velocity=0 time=60\n",
      "note_on channel=3 note=47 velocity=127 time=0\n",
      "note_on channel=3 note=47 velocity=0 time=60\n",
      "note_on channel=3 note=51 velocity=127 time=0\n",
      "note_on channel=3 note=59 velocity=0 time=60\n",
      "note_on channel=3 note=57 velocity=127 time=0\n",
      "note_on channel=3 note=57 velocity=0 time=60\n",
      "note_on channel=3 note=59 velocity=127 time=0\n",
      "note_on channel=3 note=51 velocity=0 time=60\n",
      "note_on channel=3 note=43 velocity=127 time=0\n",
      "note_on channel=3 note=59 velocity=0 time=60\n",
      "note_on channel=3 note=43 velocity=0 time=0\n",
      "note_on channel=3 note=40 velocity=127 time=0\n",
      "note_on channel=3 note=40 velocity=0 time=60\n",
      "note_on channel=3 note=47 velocity=127 time=0\n",
      "note_on channel=3 note=47 velocity=0 time=60\n",
      "note_on channel=3 note=52 velocity=127 time=0\n",
      "note_on channel=3 note=52 velocity=0 time=60\n",
      "note_on channel=3 note=55 velocity=127 time=0\n",
      "note_on channel=3 note=55 velocity=0 time=60\n",
      "note_on channel=3 note=50 velocity=127 time=0\n",
      "note_on channel=3 note=50 velocity=0 time=60\n",
      "note_on channel=3 note=57 velocity=127 time=0\n",
      "note_on channel=3 note=57 velocity=0 time=60\n",
      "note_on channel=3 note=62 velocity=127 time=0\n",
      "note_on channel=3 note=62 velocity=0 time=60\n",
      "note_on channel=3 note=57 velocity=127 time=0\n",
      "note_on channel=3 note=57 velocity=0 time=60\n",
      "note_on channel=3 note=64 velocity=127 time=0\n",
      "note_on channel=3 note=64 velocity=0 time=20\n",
      "note_on channel=3 note=66 velocity=127 time=0\n",
      "note_on channel=3 note=66 velocity=0 time=20\n",
      "note_on channel=3 note=64 velocity=127 time=0\n",
      "note_on channel=3 note=64 velocity=0 time=20\n",
      "note_on channel=3 note=62 velocity=127 time=0\n",
      "note_on channel=3 note=62 velocity=0 time=60\n",
      "note_on channel=3 note=57 velocity=127 time=0\n",
      "note_on channel=3 note=57 velocity=0 time=60\n",
      "note_on channel=3 note=55 velocity=127 time=0\n",
      "note_on channel=3 note=67 velocity=127 time=0\n",
      "note_on channel=3 note=67 velocity=0 time=60\n",
      "note_on channel=3 note=48 velocity=127 time=0\n",
      "note_on channel=3 note=55 velocity=0 time=60\n",
      "note_on channel=3 note=48 velocity=0 time=0\n",
      "note_on channel=3 note=55 velocity=127 time=0\n",
      "note_on channel=3 note=55 velocity=0 time=60\n",
      "note_on channel=3 note=62 velocity=127 time=0\n",
      "note_on channel=3 note=62 velocity=0 time=60\n",
      "note_on channel=3 note=55 velocity=127 time=0\n",
      "note_on channel=3 note=55 velocity=0 time=60\n",
      "note_on channel=3 note=62 velocity=127 time=0\n",
      "note_on channel=3 note=62 velocity=0 time=60\n",
      "note_on channel=3 note=55 velocity=127 time=0\n",
      "note_on channel=3 note=55 velocity=0 time=60\n",
      "note_on channel=3 note=52 velocity=127 time=0\n",
      "note_on channel=3 note=52 velocity=0 time=60\n",
      "note_on channel=3 note=59 velocity=127 time=0\n",
      "note_on channel=3 note=45 velocity=127 time=60\n",
      "note_on channel=3 note=59 velocity=0 time=60\n",
      "note_on channel=3 note=57 velocity=127 time=0\n",
      "note_on channel=3 note=57 velocity=0 time=60\n",
      "note_on channel=3 note=59 velocity=127 time=0\n",
      "note_on channel=3 note=45 velocity=0 time=60\n",
      "note_on channel=3 note=45 velocity=127 time=0\n",
      "note_on channel=3 note=45 velocity=0 time=60\n",
      "note_on channel=3 note=47 velocity=127 time=0\n",
      "note_on channel=3 note=59 velocity=0 time=60\n",
      "note_on channel=3 note=57 velocity=127 time=0\n",
      "note_on channel=3 note=57 velocity=0 time=60\n",
      "note_on channel=3 note=59 velocity=127 time=0\n",
      "note_on channel=3 note=47 velocity=0 time=60\n",
      "note_on channel=3 note=47 velocity=127 time=0\n",
      "note_on channel=3 note=47 velocity=0 time=60\n",
      "note_on channel=3 note=51 velocity=127 time=0\n",
      "note_on channel=3 note=59 velocity=0 time=60\n",
      "note_on channel=3 note=57 velocity=127 time=0\n",
      "note_on channel=3 note=57 velocity=0 time=60\n",
      "note_on channel=3 note=59 velocity=127 time=0\n",
      "note_on channel=3 note=51 velocity=0 time=60\n",
      "note_on channel=3 note=43 velocity=127 time=0\n",
      "note_on channel=3 note=59 velocity=0 time=60\n",
      "note_on channel=3 note=43 velocity=0 time=0\n",
      "note_on channel=3 note=40 velocity=127 time=0\n",
      "note_on channel=3 note=40 velocity=0 time=60\n",
      "note_on channel=3 note=47 velocity=127 time=0\n",
      "note_on channel=3 note=47 velocity=0 time=60\n",
      "note_on channel=3 note=52 velocity=127 time=0\n",
      "note_on channel=3 note=52 velocity=0 time=60\n",
      "note_on channel=3 note=55 velocity=127 time=0\n",
      "note_on channel=3 note=55 velocity=0 time=60\n",
      "note_on channel=3 note=50 velocity=127 time=0\n",
      "note_on channel=3 note=50 velocity=0 time=60\n",
      "note_on channel=3 note=57 velocity=127 time=0\n",
      "note_on channel=3 note=57 velocity=0 time=60\n",
      "note_on channel=3 note=62 velocity=127 time=0\n",
      "note_on channel=3 note=62 velocity=0 time=60\n",
      "note_on channel=3 note=57 velocity=127 time=0\n",
      "note_on channel=3 note=57 velocity=0 time=60\n",
      "note_on channel=3 note=64 velocity=127 time=0\n",
      "note_on channel=3 note=64 velocity=0 time=20\n",
      "note_on channel=3 note=66 velocity=127 time=0\n",
      "note_on channel=3 note=66 velocity=0 time=20\n",
      "note_on channel=3 note=64 velocity=127 time=0\n",
      "note_on channel=3 note=64 velocity=0 time=20\n",
      "note_on channel=3 note=62 velocity=127 time=0\n",
      "note_on channel=3 note=62 velocity=0 time=60\n",
      "note_on channel=3 note=57 velocity=127 time=0\n",
      "note_on channel=3 note=57 velocity=0 time=60\n",
      "note_on channel=3 note=55 velocity=127 time=0\n",
      "note_on channel=3 note=67 velocity=127 time=0\n",
      "note_on channel=3 note=67 velocity=0 time=60\n",
      "note_on channel=3 note=48 velocity=127 time=0\n",
      "note_on channel=3 note=55 velocity=0 time=60\n",
      "note_on channel=3 note=48 velocity=0 time=0\n",
      "note_on channel=3 note=55 velocity=127 time=0\n",
      "note_on channel=3 note=55 velocity=0 time=60\n",
      "note_on channel=3 note=62 velocity=127 time=0\n",
      "note_on channel=3 note=62 velocity=0 time=60\n",
      "note_on channel=3 note=55 velocity=127 time=0\n",
      "note_on channel=3 note=55 velocity=0 time=60\n",
      "note_on channel=3 note=62 velocity=127 time=0\n",
      "note_on channel=3 note=62 velocity=0 time=60\n",
      "note_on channel=3 note=55 velocity=127 time=0\n",
      "note_on channel=3 note=55 velocity=0 time=60\n",
      "note_on channel=3 note=52 velocity=127 time=0\n",
      "note_on channel=3 note=52 velocity=0 time=60\n",
      "note_on channel=3 note=59 velocity=127 time=0\n",
      "note_on channel=3 note=45 velocity=127 time=60\n",
      "note_on channel=3 note=59 velocity=0 time=60\n",
      "note_on channel=3 note=57 velocity=127 time=0\n",
      "note_on channel=3 note=57 velocity=0 time=60\n",
      "note_on channel=3 note=59 velocity=127 time=0\n",
      "note_on channel=3 note=45 velocity=0 time=60\n",
      "note_on channel=3 note=45 velocity=127 time=0\n",
      "note_on channel=3 note=45 velocity=0 time=60\n",
      "note_on channel=3 note=47 velocity=127 time=0\n",
      "note_on channel=3 note=59 velocity=0 time=60\n",
      "note_on channel=3 note=57 velocity=127 time=0\n",
      "note_on channel=3 note=57 velocity=0 time=60\n",
      "note_on channel=3 note=59 velocity=127 time=0\n",
      "note_on channel=3 note=47 velocity=0 time=60\n",
      "note_on channel=3 note=47 velocity=127 time=0\n",
      "note_on channel=3 note=47 velocity=0 time=60\n",
      "note_on channel=3 note=51 velocity=127 time=0\n",
      "note_on channel=3 note=59 velocity=0 time=60\n",
      "note_on channel=3 note=57 velocity=127 time=0\n",
      "note_on channel=3 note=57 velocity=0 time=60\n",
      "note_on channel=3 note=59 velocity=127 time=0\n",
      "note_on channel=3 note=51 velocity=0 time=60\n",
      "note_on channel=3 note=43 velocity=127 time=0\n",
      "note_on channel=3 note=59 velocity=0 time=60\n",
      "note_on channel=3 note=43 velocity=0 time=0\n",
      "note_on channel=3 note=40 velocity=127 time=0\n",
      "note_on channel=3 note=40 velocity=0 time=60\n",
      "note_on channel=3 note=47 velocity=127 time=0\n",
      "note_on channel=3 note=47 velocity=0 time=60\n",
      "note_on channel=3 note=52 velocity=127 time=0\n",
      "note_on channel=3 note=52 velocity=0 time=60\n",
      "note_on channel=3 note=55 velocity=127 time=0\n",
      "note_on channel=3 note=55 velocity=0 time=60\n",
      "note_on channel=3 note=50 velocity=127 time=0\n",
      "note_on channel=3 note=50 velocity=0 time=60\n",
      "note_on channel=3 note=57 velocity=127 time=0\n",
      "note_on channel=3 note=57 velocity=0 time=60\n",
      "note_on channel=3 note=62 velocity=127 time=0\n",
      "note_on channel=3 note=62 velocity=0 time=60\n",
      "note_on channel=3 note=57 velocity=127 time=0\n",
      "note_on channel=3 note=57 velocity=0 time=60\n",
      "note_on channel=3 note=64 velocity=127 time=0\n",
      "note_on channel=3 note=64 velocity=0 time=20\n",
      "note_on channel=3 note=66 velocity=127 time=0\n",
      "note_on channel=3 note=66 velocity=0 time=20\n",
      "note_on channel=3 note=64 velocity=127 time=0\n",
      "note_on channel=3 note=64 velocity=0 time=20\n",
      "note_on channel=3 note=62 velocity=127 time=0\n",
      "note_on channel=3 note=62 velocity=0 time=60\n",
      "note_on channel=3 note=57 velocity=127 time=0\n",
      "note_on channel=3 note=57 velocity=0 time=60\n",
      "note_on channel=3 note=55 velocity=127 time=0\n",
      "note_on channel=3 note=67 velocity=127 time=0\n",
      "note_on channel=3 note=55 velocity=0 time=60\n",
      "note_on channel=3 note=67 velocity=0 time=0\n",
      "note_on channel=3 note=48 velocity=127 time=0\n",
      "note_on channel=3 note=48 velocity=0 time=60\n",
      "note_on channel=3 note=55 velocity=127 time=0\n",
      "note_on channel=3 note=55 velocity=0 time=60\n",
      "note_on channel=3 note=62 velocity=127 time=0\n",
      "note_on channel=3 note=62 velocity=0 time=60\n",
      "note_on channel=3 note=55 velocity=127 time=0\n",
      "note_on channel=3 note=55 velocity=0 time=60\n",
      "note_on channel=3 note=62 velocity=127 time=0\n",
      "note_on channel=3 note=62 velocity=0 time=60\n",
      "note_on channel=3 note=55 velocity=127 time=0\n",
      "note_on channel=3 note=55 velocity=0 time=60\n",
      "note_on channel=3 note=52 velocity=127 time=0\n",
      "note_on channel=3 note=52 velocity=0 time=60\n",
      "note_on channel=3 note=59 velocity=127 time=0\n",
      "note_on channel=3 note=59 velocity=0 time=60\n",
      "note_on channel=3 note=45 velocity=127 time=0\n",
      "note_on channel=3 note=45 velocity=0 time=60\n",
      "note_on channel=3 note=57 velocity=127 time=0\n",
      "note_on channel=3 note=57 velocity=0 time=60\n",
      "note_on channel=3 note=59 velocity=127 time=0\n",
      "note_on channel=3 note=59 velocity=0 time=60\n",
      "note_on channel=3 note=45 velocity=127 time=0\n",
      "note_on channel=3 note=45 velocity=0 time=60\n",
      "note_on channel=3 note=47 velocity=127 time=0\n",
      "note_on channel=3 note=47 velocity=0 time=60\n",
      "note_on channel=3 note=57 velocity=127 time=0\n",
      "note_on channel=3 note=57 velocity=0 time=60\n",
      "note_on channel=3 note=59 velocity=127 time=0\n",
      "note_on channel=3 note=59 velocity=0 time=60\n",
      "note_on channel=3 note=47 velocity=127 time=0\n",
      "note_on channel=3 note=47 velocity=0 time=60\n",
      "note_on channel=3 note=51 velocity=127 time=0\n",
      "note_on channel=3 note=51 velocity=0 time=60\n",
      "note_on channel=3 note=57 velocity=127 time=0\n",
      "note_on channel=3 note=57 velocity=0 time=60\n",
      "note_on channel=3 note=59 velocity=127 time=0\n",
      "note_on channel=3 note=59 velocity=0 time=60\n",
      "note_on channel=3 note=43 velocity=127 time=0\n",
      "note_on channel=3 note=43 velocity=0 time=60\n",
      "note_on channel=3 note=40 velocity=127 time=0\n",
      "note_on channel=3 note=40 velocity=0 time=60\n",
      "note_on channel=3 note=47 velocity=127 time=0\n",
      "note_on channel=3 note=47 velocity=0 time=60\n",
      "note_on channel=3 note=52 velocity=127 time=0\n",
      "note_on channel=3 note=52 velocity=0 time=60\n",
      "note_on channel=3 note=55 velocity=127 time=0\n",
      "note_on channel=3 note=55 velocity=0 time=60\n",
      "note_on channel=3 note=50 velocity=127 time=0\n",
      "note_on channel=3 note=50 velocity=0 time=60\n",
      "note_on channel=3 note=57 velocity=127 time=0\n",
      "note_on channel=3 note=57 velocity=0 time=60\n",
      "note_on channel=3 note=62 velocity=127 time=0\n",
      "note_on channel=3 note=62 velocity=0 time=60\n",
      "note_on channel=3 note=57 velocity=127 time=0\n",
      "note_on channel=3 note=57 velocity=0 time=60\n",
      "note_on channel=3 note=64 velocity=127 time=0\n",
      "note_on channel=3 note=64 velocity=0 time=20\n",
      "note_on channel=3 note=66 velocity=127 time=0\n",
      "note_on channel=3 note=66 velocity=0 time=20\n",
      "note_on channel=3 note=64 velocity=127 time=0\n",
      "note_on channel=3 note=64 velocity=0 time=20\n",
      "note_on channel=3 note=62 velocity=127 time=0\n",
      "note_on channel=3 note=62 velocity=0 time=60\n",
      "note_on channel=3 note=57 velocity=127 time=0\n",
      "note_on channel=3 note=57 velocity=0 time=60\n",
      "note_on channel=3 note=55 velocity=127 time=0\n",
      "note_on channel=3 note=67 velocity=127 time=0\n",
      "note_on channel=3 note=55 velocity=0 time=60\n",
      "note_on channel=3 note=67 velocity=0 time=0\n",
      "note_on channel=3 note=48 velocity=127 time=0\n",
      "note_on channel=3 note=48 velocity=0 time=60\n",
      "note_on channel=3 note=55 velocity=127 time=0\n",
      "note_on channel=3 note=55 velocity=0 time=60\n",
      "note_on channel=3 note=62 velocity=127 time=0\n",
      "note_on channel=3 note=62 velocity=0 time=60\n",
      "note_on channel=3 note=55 velocity=127 time=0\n",
      "note_on channel=3 note=55 velocity=0 time=60\n",
      "note_on channel=3 note=62 velocity=127 time=0\n",
      "note_on channel=3 note=62 velocity=0 time=60\n",
      "note_on channel=3 note=55 velocity=127 time=0\n",
      "note_on channel=3 note=55 velocity=0 time=60\n",
      "note_on channel=3 note=52 velocity=127 time=0\n",
      "note_on channel=3 note=52 velocity=0 time=60\n",
      "note_on channel=3 note=59 velocity=127 time=0\n",
      "note_on channel=3 note=59 velocity=0 time=60\n",
      "note_on channel=3 note=45 velocity=127 time=0\n",
      "note_on channel=3 note=45 velocity=0 time=60\n",
      "note_on channel=3 note=57 velocity=127 time=0\n",
      "note_on channel=3 note=57 velocity=0 time=60\n",
      "note_on channel=3 note=59 velocity=127 time=0\n",
      "note_on channel=3 note=59 velocity=0 time=60\n",
      "note_on channel=3 note=45 velocity=127 time=0\n",
      "note_on channel=3 note=45 velocity=0 time=60\n",
      "note_on channel=3 note=47 velocity=127 time=0\n",
      "note_on channel=3 note=47 velocity=0 time=60\n",
      "note_on channel=3 note=57 velocity=127 time=0\n",
      "note_on channel=3 note=57 velocity=0 time=60\n",
      "note_on channel=3 note=59 velocity=127 time=0\n",
      "note_on channel=3 note=59 velocity=0 time=60\n",
      "note_on channel=3 note=47 velocity=127 time=0\n",
      "note_on channel=3 note=47 velocity=0 time=60\n",
      "note_on channel=3 note=51 velocity=127 time=0\n",
      "note_on channel=3 note=51 velocity=0 time=60\n",
      "note_on channel=3 note=57 velocity=127 time=0\n",
      "note_on channel=3 note=57 velocity=0 time=60\n",
      "note_on channel=3 note=59 velocity=127 time=0\n",
      "note_on channel=3 note=59 velocity=0 time=60\n",
      "note_on channel=3 note=43 velocity=127 time=0\n",
      "note_on channel=3 note=43 velocity=0 time=60\n",
      "note_on channel=3 note=47 velocity=127 time=0\n",
      "note_on channel=3 note=59 velocity=127 time=0\n",
      "note_on channel=3 note=40 velocity=127 time=0\n",
      "note_on channel=3 note=52 velocity=127 time=0\n",
      "note_on channel=3 note=47 velocity=0 time=60\n",
      "note_on channel=3 note=59 velocity=0 time=0\n",
      "note_on channel=3 note=40 velocity=0 time=0\n",
      "note_on channel=3 note=52 velocity=0 time=0\n",
      "note_on channel=3 note=59 velocity=127 time=0\n",
      "note_on channel=3 note=52 velocity=127 time=0\n",
      "note_on channel=3 note=47 velocity=127 time=0\n",
      "note_on channel=3 note=40 velocity=127 time=0\n",
      "note_on channel=3 note=59 velocity=0 time=60\n",
      "note_on channel=3 note=52 velocity=0 time=0\n",
      "note_on channel=3 note=47 velocity=0 time=0\n",
      "note_on channel=3 note=40 velocity=0 time=0\n",
      "note_on channel=3 note=52 velocity=127 time=0\n",
      "note_on channel=3 note=59 velocity=127 time=0\n",
      "note_on channel=3 note=47 velocity=127 time=0\n",
      "note_on channel=3 note=40 velocity=127 time=0\n",
      "note_on channel=3 note=52 velocity=0 time=60\n",
      "note_on channel=3 note=59 velocity=0 time=0\n",
      "note_on channel=3 note=47 velocity=0 time=0\n",
      "note_on channel=3 note=40 velocity=0 time=0\n",
      "note_on channel=3 note=59 velocity=127 time=0\n",
      "note_on channel=3 note=40 velocity=127 time=0\n",
      "note_on channel=3 note=52 velocity=127 time=0\n",
      "note_on channel=3 note=47 velocity=127 time=0\n",
      "note_on channel=3 note=59 velocity=0 time=60\n",
      "note_on channel=3 note=40 velocity=0 time=0\n",
      "note_on channel=3 note=52 velocity=0 time=0\n",
      "note_on channel=3 note=47 velocity=0 time=0\n",
      "note_on channel=3 note=40 velocity=127 time=0\n",
      "note_on channel=3 note=59 velocity=127 time=0\n",
      "note_on channel=3 note=52 velocity=127 time=0\n",
      "note_on channel=3 note=47 velocity=127 time=0\n",
      "note_on channel=3 note=40 velocity=0 time=60\n",
      "note_on channel=3 note=59 velocity=0 time=0\n",
      "note_on channel=3 note=52 velocity=0 time=0\n",
      "note_on channel=3 note=47 velocity=0 time=0\n",
      "note_on channel=3 note=40 velocity=127 time=0\n",
      "note_on channel=3 note=59 velocity=127 time=0\n",
      "note_on channel=3 note=52 velocity=127 time=0\n",
      "note_on channel=3 note=47 velocity=127 time=0\n",
      "note_on channel=3 note=40 velocity=0 time=60\n",
      "note_on channel=3 note=59 velocity=0 time=0\n",
      "note_on channel=3 note=52 velocity=0 time=0\n",
      "note_on channel=3 note=47 velocity=0 time=0\n",
      "note_on channel=3 note=59 velocity=127 time=0\n",
      "note_on channel=3 note=52 velocity=127 time=0\n",
      "note_on channel=3 note=47 velocity=127 time=0\n",
      "note_on channel=3 note=40 velocity=127 time=0\n",
      "note_on channel=3 note=59 velocity=0 time=60\n",
      "note_on channel=3 note=52 velocity=0 time=0\n",
      "note_on channel=3 note=47 velocity=0 time=0\n",
      "note_on channel=3 note=40 velocity=0 time=0\n",
      "note_on channel=3 note=47 velocity=127 time=0\n",
      "note_on channel=3 note=59 velocity=127 time=0\n",
      "note_on channel=3 note=40 velocity=127 time=0\n",
      "note_on channel=3 note=52 velocity=127 time=0\n",
      "note_on channel=3 note=47 velocity=0 time=60\n",
      "note_on channel=3 note=59 velocity=0 time=0\n",
      "note_on channel=3 note=40 velocity=0 time=0\n",
      "note_on channel=3 note=52 velocity=0 time=0\n",
      "note_on channel=3 note=59 velocity=127 time=0\n",
      "note_on channel=3 note=52 velocity=127 time=0\n",
      "note_on channel=3 note=47 velocity=127 time=0\n",
      "note_on channel=3 note=40 velocity=127 time=0\n",
      "note_on channel=3 note=59 velocity=0 time=60\n",
      "note_on channel=3 note=52 velocity=0 time=0\n",
      "note_on channel=3 note=47 velocity=0 time=0\n",
      "note_on channel=3 note=40 velocity=0 time=0\n",
      "note_on channel=3 note=52 velocity=127 time=0\n",
      "note_on channel=3 note=59 velocity=127 time=0\n",
      "note_on channel=3 note=47 velocity=127 time=0\n",
      "note_on channel=3 note=40 velocity=127 time=0\n",
      "note_on channel=3 note=52 velocity=0 time=60\n",
      "note_on channel=3 note=59 velocity=0 time=0\n",
      "note_on channel=3 note=47 velocity=0 time=0\n",
      "note_on channel=3 note=40 velocity=0 time=0\n",
      "note_on channel=3 note=59 velocity=127 time=0\n",
      "note_on channel=3 note=40 velocity=127 time=0\n",
      "note_on channel=3 note=52 velocity=127 time=0\n",
      "note_on channel=3 note=47 velocity=127 time=0\n",
      "note_on channel=3 note=59 velocity=0 time=60\n",
      "note_on channel=3 note=40 velocity=0 time=0\n",
      "note_on channel=3 note=52 velocity=0 time=0\n",
      "note_on channel=3 note=47 velocity=0 time=0\n",
      "note_on channel=3 note=40 velocity=127 time=0\n",
      "note_on channel=3 note=59 velocity=127 time=0\n",
      "note_on channel=3 note=52 velocity=127 time=0\n",
      "note_on channel=3 note=47 velocity=127 time=0\n",
      "note_on channel=3 note=40 velocity=0 time=60\n",
      "note_on channel=3 note=59 velocity=0 time=0\n",
      "note_on channel=3 note=52 velocity=0 time=0\n",
      "note_on channel=3 note=47 velocity=0 time=0\n",
      "note_on channel=3 note=47 velocity=127 time=0\n",
      "note_on channel=3 note=59 velocity=127 time=0\n",
      "note_on channel=3 note=52 velocity=127 time=0\n",
      "note_on channel=3 note=40 velocity=127 time=0\n",
      "note_on channel=3 note=47 velocity=0 time=60\n",
      "note_on channel=3 note=59 velocity=0 time=0\n",
      "note_on channel=3 note=52 velocity=0 time=0\n",
      "note_on channel=3 note=40 velocity=0 time=0\n",
      "note_on channel=3 note=40 velocity=127 time=0\n",
      "note_on channel=3 note=59 velocity=127 time=0\n",
      "note_on channel=3 note=52 velocity=127 time=0\n",
      "note_on channel=3 note=47 velocity=127 time=0\n",
      "note_on channel=3 note=40 velocity=0 time=60\n",
      "note_on channel=3 note=59 velocity=0 time=0\n",
      "note_on channel=3 note=52 velocity=0 time=0\n",
      "note_on channel=3 note=47 velocity=0 time=0\n",
      "note_on channel=3 note=40 velocity=127 time=0\n",
      "note_on channel=3 note=59 velocity=127 time=0\n",
      "note_on channel=3 note=52 velocity=127 time=0\n",
      "note_on channel=3 note=47 velocity=127 time=0\n",
      "note_on channel=3 note=40 velocity=0 time=60\n",
      "note_on channel=3 note=59 velocity=0 time=0\n",
      "note_on channel=3 note=52 velocity=0 time=0\n",
      "note_on channel=3 note=47 velocity=0 time=0\n",
      "note_on channel=3 note=59 velocity=127 time=0\n",
      "note_on channel=3 note=52 velocity=127 time=0\n",
      "note_on channel=3 note=47 velocity=127 time=0\n",
      "note_on channel=3 note=40 velocity=127 time=0\n",
      "note_on channel=3 note=59 velocity=0 time=60\n",
      "note_on channel=3 note=52 velocity=0 time=0\n",
      "note_on channel=3 note=47 velocity=0 time=0\n",
      "note_on channel=3 note=40 velocity=0 time=0\n",
      "note_on channel=3 note=42 velocity=127 time=0\n",
      "note_on channel=3 note=49 velocity=127 time=0\n",
      "note_on channel=3 note=42 velocity=0 time=60\n",
      "note_on channel=3 note=49 velocity=0 time=0\n",
      "note_on channel=3 note=49 velocity=127 time=0\n",
      "note_on channel=3 note=42 velocity=127 time=0\n",
      "note_on channel=3 note=49 velocity=0 time=60\n",
      "note_on channel=3 note=42 velocity=0 time=0\n",
      "note_on channel=3 note=43 velocity=127 time=0\n",
      "note_on channel=3 note=50 velocity=127 time=0\n",
      "note_on channel=3 note=43 velocity=0 time=60\n",
      "note_on channel=3 note=50 velocity=0 time=0\n",
      "note_on channel=3 note=49 velocity=127 time=0\n",
      "note_on channel=3 note=42 velocity=127 time=0\n",
      "note_on channel=3 note=49 velocity=0 time=60\n",
      "note_on channel=3 note=42 velocity=0 time=0\n",
      "note_on channel=3 note=49 velocity=127 time=0\n",
      "note_on channel=3 note=42 velocity=127 time=0\n",
      "note_on channel=3 note=49 velocity=0 time=60\n",
      "note_on channel=3 note=42 velocity=0 time=0\n",
      "note_on channel=3 note=49 velocity=127 time=0\n",
      "note_on channel=3 note=42 velocity=127 time=0\n",
      "note_on channel=3 note=49 velocity=0 time=60\n",
      "note_on channel=3 note=42 velocity=0 time=0\n",
      "note_on channel=3 note=43 velocity=127 time=0\n",
      "note_on channel=3 note=50 velocity=127 time=0\n",
      "note_on channel=3 note=43 velocity=0 time=60\n",
      "note_on channel=3 note=50 velocity=0 time=0\n",
      "note_on channel=3 note=49 velocity=127 time=0\n",
      "note_on channel=3 note=49 velocity=127 time=30\n",
      "note_on channel=3 note=49 velocity=0 time=30\n",
      "note_on channel=3 note=42 velocity=127 time=0\n",
      "note_on channel=3 note=49 velocity=127 time=0\n",
      "note_on channel=3 note=49 velocity=0 time=30\n",
      "note_on channel=3 note=42 velocity=0 time=30\n",
      "note_on channel=3 note=49 velocity=0 time=0\n",
      "note_on channel=3 note=42 velocity=127 time=0\n",
      "note_on channel=3 note=49 velocity=127 time=0\n",
      "note_on channel=3 note=42 velocity=0 time=60\n",
      "note_on channel=3 note=49 velocity=0 time=0\n",
      "note_on channel=3 note=43 velocity=127 time=0\n",
      "note_on channel=3 note=50 velocity=127 time=0\n",
      "note_on channel=3 note=43 velocity=0 time=60\n",
      "note_on channel=3 note=50 velocity=0 time=0\n",
      "note_on channel=3 note=42 velocity=127 time=0\n",
      "note_on channel=3 note=49 velocity=127 time=0\n",
      "note_on channel=3 note=42 velocity=0 time=60\n",
      "note_on channel=3 note=49 velocity=0 time=0\n",
      "note_on channel=3 note=49 velocity=127 time=0\n",
      "note_on channel=3 note=42 velocity=127 time=0\n",
      "note_on channel=3 note=49 velocity=0 time=60\n",
      "note_on channel=3 note=42 velocity=0 time=0\n",
      "note_on channel=3 note=42 velocity=127 time=0\n",
      "note_on channel=3 note=49 velocity=127 time=0\n",
      "note_on channel=3 note=42 velocity=0 time=60\n",
      "note_on channel=3 note=49 velocity=0 time=0\n",
      "note_on channel=3 note=50 velocity=127 time=0\n",
      "note_on channel=3 note=43 velocity=127 time=0\n",
      "note_on channel=3 note=50 velocity=0 time=60\n",
      "note_on channel=3 note=43 velocity=0 time=0\n",
      "note_on channel=3 note=49 velocity=127 time=0\n",
      "note_on channel=3 note=56 velocity=127 time=0\n",
      "note_on channel=3 note=49 velocity=0 time=60\n",
      "note_on channel=3 note=56 velocity=0 time=0\n",
      "note_on channel=3 note=49 velocity=127 time=0\n",
      "note_on channel=3 note=42 velocity=127 time=0\n",
      "note_on channel=3 note=49 velocity=0 time=60\n",
      "note_on channel=3 note=42 velocity=0 time=0\n",
      "note_on channel=3 note=42 velocity=127 time=0\n",
      "note_on channel=3 note=49 velocity=127 time=0\n",
      "note_on channel=3 note=42 velocity=0 time=60\n",
      "note_on channel=3 note=49 velocity=0 time=0\n",
      "note_on channel=3 note=50 velocity=127 time=0\n",
      "note_on channel=3 note=43 velocity=127 time=0\n",
      "note_on channel=3 note=50 velocity=0 time=60\n",
      "note_on channel=3 note=43 velocity=0 time=0\n",
      "note_on channel=3 note=42 velocity=127 time=0\n",
      "note_on channel=3 note=49 velocity=127 time=0\n",
      "note_on channel=3 note=42 velocity=0 time=60\n",
      "note_on channel=3 note=49 velocity=0 time=0\n",
      "note_on channel=3 note=42 velocity=127 time=0\n",
      "note_on channel=3 note=49 velocity=127 time=0\n",
      "note_on channel=3 note=42 velocity=0 time=60\n",
      "note_on channel=3 note=49 velocity=0 time=0\n",
      "note_on channel=3 note=42 velocity=127 time=0\n",
      "note_on channel=3 note=49 velocity=127 time=0\n",
      "note_on channel=3 note=42 velocity=0 time=60\n",
      "note_on channel=3 note=49 velocity=0 time=0\n",
      "note_on channel=3 note=43 velocity=127 time=0\n",
      "note_on channel=3 note=50 velocity=127 time=0\n",
      "note_on channel=3 note=43 velocity=0 time=60\n",
      "note_on channel=3 note=50 velocity=0 time=0\n",
      "note_on channel=3 note=49 velocity=127 time=0\n",
      "note_on channel=3 note=49 velocity=127 time=30\n",
      "note_on channel=3 note=49 velocity=0 time=30\n",
      "note_on channel=3 note=49 velocity=127 time=0\n",
      "note_on channel=3 note=42 velocity=127 time=0\n",
      "note_on channel=3 note=49 velocity=0 time=30\n",
      "note_on channel=3 note=49 velocity=0 time=30\n",
      "note_on channel=3 note=42 velocity=0 time=0\n",
      "note_on channel=3 note=49 velocity=127 time=0\n",
      "note_on channel=3 note=42 velocity=127 time=0\n",
      "note_on channel=3 note=49 velocity=0 time=60\n",
      "note_on channel=3 note=42 velocity=0 time=0\n",
      "note_on channel=3 note=50 velocity=127 time=0\n",
      "note_on channel=3 note=43 velocity=127 time=0\n",
      "note_on channel=3 note=50 velocity=0 time=60\n",
      "note_on channel=3 note=43 velocity=0 time=0\n",
      "note_on channel=3 note=49 velocity=127 time=0\n",
      "note_on channel=3 note=42 velocity=127 time=0\n",
      "note_on channel=3 note=49 velocity=0 time=60\n",
      "note_on channel=3 note=42 velocity=0 time=0\n",
      "note_on channel=3 note=42 velocity=127 time=0\n",
      "note_on channel=3 note=49 velocity=127 time=0\n",
      "note_on channel=3 note=42 velocity=0 time=60\n",
      "note_on channel=3 note=49 velocity=0 time=0\n",
      "note_on channel=3 note=49 velocity=127 time=0\n",
      "note_on channel=3 note=42 velocity=127 time=0\n",
      "note_on channel=3 note=49 velocity=0 time=60\n",
      "note_on channel=3 note=42 velocity=0 time=0\n",
      "note_on channel=3 note=50 velocity=127 time=0\n",
      "note_on channel=3 note=43 velocity=127 time=0\n",
      "note_on channel=3 note=50 velocity=0 time=60\n",
      "note_on channel=3 note=43 velocity=0 time=0\n",
      "note_on channel=3 note=56 velocity=127 time=0\n",
      "note_on channel=3 note=49 velocity=127 time=0\n",
      "note_on channel=3 note=56 velocity=0 time=60\n",
      "note_on channel=3 note=49 velocity=0 time=0\n",
      "note_on channel=3 note=42 velocity=127 time=0\n",
      "note_on channel=3 note=49 velocity=127 time=0\n",
      "note_on channel=3 note=42 velocity=0 time=60\n",
      "note_on channel=3 note=49 velocity=0 time=0\n",
      "note_on channel=3 note=49 velocity=127 time=0\n",
      "note_on channel=3 note=42 velocity=127 time=0\n",
      "note_on channel=3 note=49 velocity=0 time=60\n",
      "note_on channel=3 note=42 velocity=0 time=0\n",
      "note_on channel=3 note=43 velocity=127 time=0\n",
      "note_on channel=3 note=50 velocity=127 time=0\n",
      "note_on channel=3 note=43 velocity=0 time=60\n",
      "note_on channel=3 note=50 velocity=0 time=0\n",
      "note_on channel=3 note=49 velocity=127 time=0\n",
      "note_on channel=3 note=42 velocity=127 time=0\n",
      "note_on channel=3 note=49 velocity=0 time=60\n",
      "note_on channel=3 note=42 velocity=0 time=0\n",
      "note_on channel=3 note=49 velocity=127 time=0\n",
      "note_on channel=3 note=42 velocity=127 time=0\n",
      "note_on channel=3 note=49 velocity=0 time=60\n",
      "note_on channel=3 note=42 velocity=0 time=0\n",
      "note_on channel=3 note=49 velocity=127 time=0\n",
      "note_on channel=3 note=42 velocity=127 time=0\n",
      "note_on channel=3 note=49 velocity=0 time=60\n",
      "note_on channel=3 note=42 velocity=0 time=0\n",
      "note_on channel=3 note=43 velocity=127 time=0\n",
      "note_on channel=3 note=50 velocity=127 time=0\n",
      "note_on channel=3 note=43 velocity=0 time=60\n",
      "note_on channel=3 note=50 velocity=0 time=0\n",
      "note_on channel=3 note=49 velocity=127 time=0\n",
      "note_on channel=3 note=49 velocity=127 time=30\n",
      "note_on channel=3 note=49 velocity=0 time=30\n",
      "note_on channel=3 note=42 velocity=127 time=0\n",
      "note_on channel=3 note=49 velocity=127 time=0\n",
      "note_on channel=3 note=49 velocity=0 time=30\n",
      "note_on channel=3 note=42 velocity=0 time=30\n",
      "note_on channel=3 note=49 velocity=0 time=0\n",
      "note_on channel=3 note=42 velocity=127 time=0\n",
      "note_on channel=3 note=49 velocity=127 time=0\n",
      "note_on channel=3 note=42 velocity=0 time=60\n",
      "note_on channel=3 note=49 velocity=0 time=0\n",
      "note_on channel=3 note=43 velocity=127 time=0\n",
      "note_on channel=3 note=50 velocity=127 time=0\n",
      "note_on channel=3 note=43 velocity=0 time=60\n",
      "note_on channel=3 note=50 velocity=0 time=0\n",
      "note_on channel=3 note=42 velocity=127 time=0\n",
      "note_on channel=3 note=49 velocity=127 time=0\n",
      "note_on channel=3 note=42 velocity=0 time=60\n",
      "note_on channel=3 note=49 velocity=0 time=0\n",
      "note_on channel=3 note=49 velocity=127 time=0\n",
      "note_on channel=3 note=42 velocity=127 time=0\n",
      "note_on channel=3 note=49 velocity=0 time=60\n",
      "note_on channel=3 note=42 velocity=0 time=0\n",
      "note_on channel=3 note=42 velocity=127 time=0\n",
      "note_on channel=3 note=49 velocity=127 time=0\n",
      "note_on channel=3 note=42 velocity=0 time=60\n",
      "note_on channel=3 note=49 velocity=0 time=0\n",
      "note_on channel=3 note=50 velocity=127 time=0\n",
      "note_on channel=3 note=43 velocity=127 time=0\n",
      "note_on channel=3 note=50 velocity=0 time=60\n",
      "note_on channel=3 note=43 velocity=0 time=0\n",
      "note_on channel=3 note=49 velocity=127 time=0\n",
      "note_on channel=3 note=56 velocity=127 time=0\n",
      "note_on channel=3 note=49 velocity=0 time=60\n",
      "note_on channel=3 note=56 velocity=0 time=0\n",
      "note_on channel=3 note=49 velocity=127 time=0\n",
      "note_on channel=3 note=42 velocity=127 time=0\n",
      "note_on channel=3 note=49 velocity=0 time=60\n",
      "note_on channel=3 note=42 velocity=0 time=0\n",
      "note_on channel=3 note=49 velocity=127 time=0\n",
      "note_on channel=3 note=42 velocity=127 time=0\n",
      "note_on channel=3 note=49 velocity=0 time=60\n",
      "note_on channel=3 note=42 velocity=0 time=0\n",
      "note_on channel=3 note=50 velocity=127 time=0\n",
      "note_on channel=3 note=43 velocity=127 time=0\n",
      "note_on channel=3 note=50 velocity=0 time=60\n",
      "note_on channel=3 note=43 velocity=0 time=0\n",
      "note_on channel=3 note=42 velocity=127 time=0\n",
      "note_on channel=3 note=49 velocity=127 time=0\n",
      "note_on channel=3 note=42 velocity=0 time=60\n",
      "note_on channel=3 note=49 velocity=0 time=0\n",
      "note_on channel=3 note=42 velocity=127 time=0\n",
      "note_on channel=3 note=49 velocity=127 time=0\n",
      "note_on channel=3 note=42 velocity=0 time=60\n",
      "note_on channel=3 note=49 velocity=0 time=0\n",
      "note_on channel=3 note=42 velocity=127 time=0\n",
      "note_on channel=3 note=49 velocity=127 time=0\n",
      "note_on channel=3 note=42 velocity=0 time=60\n",
      "note_on channel=3 note=49 velocity=0 time=0\n",
      "note_on channel=3 note=50 velocity=127 time=0\n",
      "note_on channel=3 note=43 velocity=127 time=0\n",
      "note_on channel=3 note=50 velocity=0 time=60\n",
      "note_on channel=3 note=43 velocity=0 time=0\n",
      "note_on channel=3 note=49 velocity=127 time=0\n",
      "note_on channel=3 note=49 velocity=127 time=30\n",
      "note_on channel=3 note=49 velocity=0 time=30\n",
      "note_on channel=3 note=49 velocity=127 time=0\n",
      "note_on channel=3 note=42 velocity=127 time=0\n",
      "note_on channel=3 note=49 velocity=0 time=30\n",
      "note_on channel=3 note=49 velocity=0 time=30\n",
      "note_on channel=3 note=42 velocity=0 time=0\n",
      "note_on channel=3 note=49 velocity=127 time=0\n",
      "note_on channel=3 note=42 velocity=127 time=0\n",
      "note_on channel=3 note=49 velocity=0 time=60\n",
      "note_on channel=3 note=42 velocity=0 time=0\n",
      "note_on channel=3 note=50 velocity=127 time=0\n",
      "note_on channel=3 note=43 velocity=127 time=0\n",
      "note_on channel=3 note=50 velocity=0 time=60\n",
      "note_on channel=3 note=43 velocity=0 time=0\n",
      "note_on channel=3 note=49 velocity=127 time=0\n",
      "note_on channel=3 note=42 velocity=127 time=0\n",
      "note_on channel=3 note=49 velocity=0 time=60\n",
      "note_on channel=3 note=42 velocity=0 time=0\n",
      "note_on channel=3 note=42 velocity=127 time=0\n",
      "note_on channel=3 note=49 velocity=127 time=0\n",
      "note_on channel=3 note=42 velocity=0 time=60\n",
      "note_on channel=3 note=49 velocity=0 time=0\n",
      "note_on channel=3 note=49 velocity=127 time=0\n",
      "note_on channel=3 note=42 velocity=127 time=0\n",
      "note_on channel=3 note=49 velocity=0 time=60\n",
      "note_on channel=3 note=42 velocity=0 time=0\n",
      "note_on channel=3 note=50 velocity=127 time=0\n",
      "note_on channel=3 note=43 velocity=127 time=0\n",
      "note_on channel=3 note=50 velocity=0 time=60\n",
      "note_on channel=3 note=43 velocity=0 time=0\n",
      "note_on channel=3 note=56 velocity=127 time=0\n",
      "note_on channel=3 note=49 velocity=127 time=0\n",
      "note_on channel=3 note=56 velocity=0 time=60\n",
      "note_on channel=3 note=49 velocity=0 time=0\n",
      "note_on channel=3 note=42 velocity=127 time=0\n",
      "note_on channel=3 note=49 velocity=127 time=0\n",
      "note_on channel=3 note=42 velocity=0 time=60\n",
      "note_on channel=3 note=49 velocity=0 time=0\n",
      "note_on channel=3 note=49 velocity=127 time=0\n",
      "note_on channel=3 note=42 velocity=127 time=0\n",
      "note_on channel=3 note=49 velocity=0 time=60\n",
      "note_on channel=3 note=42 velocity=0 time=0\n",
      "note_on channel=3 note=43 velocity=127 time=0\n",
      "note_on channel=3 note=50 velocity=127 time=0\n",
      "note_on channel=3 note=43 velocity=0 time=60\n",
      "note_on channel=3 note=50 velocity=0 time=0\n",
      "note_on channel=3 note=49 velocity=127 time=0\n",
      "note_on channel=3 note=42 velocity=127 time=0\n",
      "note_on channel=3 note=49 velocity=0 time=60\n",
      "note_on channel=3 note=42 velocity=0 time=0\n",
      "note_on channel=3 note=49 velocity=127 time=0\n",
      "note_on channel=3 note=42 velocity=127 time=0\n",
      "note_on channel=3 note=49 velocity=0 time=60\n",
      "note_on channel=3 note=42 velocity=0 time=0\n",
      "note_on channel=3 note=49 velocity=127 time=0\n",
      "note_on channel=3 note=42 velocity=127 time=0\n",
      "note_on channel=3 note=49 velocity=0 time=60\n",
      "note_on channel=3 note=42 velocity=0 time=0\n",
      "note_on channel=3 note=43 velocity=127 time=0\n",
      "note_on channel=3 note=50 velocity=127 time=0\n",
      "note_on channel=3 note=43 velocity=0 time=60\n",
      "note_on channel=3 note=50 velocity=0 time=0\n",
      "note_on channel=3 note=49 velocity=127 time=0\n",
      "note_on channel=3 note=49 velocity=127 time=30\n",
      "note_on channel=3 note=49 velocity=0 time=30\n",
      "note_on channel=3 note=42 velocity=127 time=0\n",
      "note_on channel=3 note=49 velocity=127 time=0\n",
      "note_on channel=3 note=49 velocity=0 time=30\n",
      "note_on channel=3 note=42 velocity=0 time=30\n",
      "note_on channel=3 note=49 velocity=0 time=0\n",
      "note_on channel=3 note=42 velocity=127 time=0\n",
      "note_on channel=3 note=49 velocity=127 time=0\n",
      "note_on channel=3 note=42 velocity=0 time=60\n",
      "note_on channel=3 note=49 velocity=0 time=0\n",
      "note_on channel=3 note=43 velocity=127 time=0\n",
      "note_on channel=3 note=50 velocity=127 time=0\n",
      "note_on channel=3 note=43 velocity=0 time=60\n",
      "note_on channel=3 note=50 velocity=0 time=0\n",
      "note_on channel=3 note=42 velocity=127 time=0\n",
      "note_on channel=3 note=49 velocity=127 time=0\n",
      "note_on channel=3 note=42 velocity=0 time=60\n",
      "note_on channel=3 note=49 velocity=0 time=0\n",
      "note_on channel=3 note=49 velocity=127 time=0\n",
      "note_on channel=3 note=42 velocity=127 time=0\n",
      "note_on channel=3 note=49 velocity=0 time=60\n",
      "note_on channel=3 note=42 velocity=0 time=0\n",
      "note_on channel=3 note=42 velocity=127 time=0\n",
      "note_on channel=3 note=49 velocity=127 time=0\n",
      "note_on channel=3 note=42 velocity=0 time=60\n",
      "note_on channel=3 note=49 velocity=0 time=0\n",
      "note_on channel=3 note=50 velocity=127 time=0\n",
      "note_on channel=3 note=43 velocity=127 time=0\n",
      "note_on channel=3 note=50 velocity=0 time=60\n",
      "note_on channel=3 note=43 velocity=0 time=0\n",
      "note_on channel=3 note=56 velocity=127 time=0\n",
      "note_on channel=3 note=49 velocity=127 time=0\n",
      "note_on channel=3 note=56 velocity=0 time=60\n",
      "note_on channel=3 note=49 velocity=0 time=0\n",
      "note_on channel=3 note=42 velocity=127 time=0\n",
      "note_on channel=3 note=49 velocity=127 time=0\n",
      "note_on channel=3 note=42 velocity=0 time=60\n",
      "note_on channel=3 note=49 velocity=0 time=0\n",
      "note_on channel=3 note=42 velocity=127 time=0\n",
      "note_on channel=3 note=49 velocity=127 time=0\n",
      "note_on channel=3 note=42 velocity=0 time=60\n",
      "note_on channel=3 note=49 velocity=0 time=0\n",
      "note_on channel=3 note=43 velocity=127 time=0\n",
      "note_on channel=3 note=50 velocity=127 time=0\n",
      "note_on channel=3 note=43 velocity=0 time=60\n",
      "note_on channel=3 note=50 velocity=0 time=0\n",
      "note_on channel=3 note=42 velocity=127 time=0\n",
      "note_on channel=3 note=49 velocity=127 time=0\n",
      "note_on channel=3 note=42 velocity=0 time=60\n",
      "note_on channel=3 note=49 velocity=0 time=0\n",
      "note_on channel=3 note=49 velocity=127 time=0\n",
      "note_on channel=3 note=42 velocity=127 time=0\n",
      "note_on channel=3 note=49 velocity=0 time=60\n",
      "note_on channel=3 note=42 velocity=0 time=0\n",
      "note_on channel=3 note=42 velocity=127 time=0\n",
      "note_on channel=3 note=49 velocity=127 time=0\n",
      "note_on channel=3 note=42 velocity=0 time=60\n",
      "note_on channel=3 note=49 velocity=0 time=0\n",
      "note_on channel=3 note=50 velocity=127 time=0\n",
      "note_on channel=3 note=43 velocity=127 time=0\n",
      "note_on channel=3 note=50 velocity=0 time=60\n",
      "note_on channel=3 note=43 velocity=0 time=0\n",
      "note_on channel=3 note=49 velocity=127 time=0\n",
      "note_on channel=3 note=49 velocity=127 time=30\n",
      "note_on channel=3 note=49 velocity=0 time=30\n",
      "note_on channel=3 note=49 velocity=127 time=0\n",
      "note_on channel=3 note=42 velocity=127 time=0\n",
      "note_on channel=3 note=49 velocity=0 time=30\n",
      "note_on channel=3 note=49 velocity=0 time=30\n",
      "note_on channel=3 note=42 velocity=0 time=0\n",
      "note_on channel=3 note=42 velocity=127 time=0\n",
      "note_on channel=3 note=49 velocity=127 time=0\n",
      "note_on channel=3 note=42 velocity=0 time=60\n",
      "note_on channel=3 note=49 velocity=0 time=0\n",
      "note_on channel=3 note=50 velocity=127 time=0\n",
      "note_on channel=3 note=43 velocity=127 time=0\n",
      "note_on channel=3 note=50 velocity=0 time=60\n",
      "note_on channel=3 note=43 velocity=0 time=0\n",
      "note_on channel=3 note=42 velocity=127 time=0\n",
      "note_on channel=3 note=49 velocity=127 time=0\n",
      "note_on channel=3 note=42 velocity=0 time=60\n",
      "note_on channel=3 note=49 velocity=0 time=0\n",
      "note_on channel=3 note=42 velocity=127 time=0\n",
      "note_on channel=3 note=49 velocity=127 time=0\n",
      "note_on channel=3 note=42 velocity=0 time=60\n",
      "note_on channel=3 note=49 velocity=0 time=0\n",
      "note_on channel=3 note=49 velocity=127 time=0\n",
      "note_on channel=3 note=42 velocity=127 time=0\n",
      "note_on channel=3 note=49 velocity=0 time=60\n",
      "note_on channel=3 note=42 velocity=0 time=0\n",
      "note_on channel=3 note=50 velocity=127 time=0\n",
      "note_on channel=3 note=43 velocity=127 time=0\n",
      "note_on channel=3 note=50 velocity=0 time=60\n",
      "note_on channel=3 note=43 velocity=0 time=0\n",
      "note_on channel=3 note=56 velocity=127 time=0\n",
      "note_on channel=3 note=49 velocity=127 time=0\n",
      "note_on channel=3 note=56 velocity=0 time=60\n",
      "note_on channel=3 note=49 velocity=0 time=0\n",
      "note_on channel=3 note=43 velocity=127 time=0\n",
      "note_on channel=3 note=59 velocity=127 time=0\n",
      "note_on channel=3 note=55 velocity=127 time=0\n",
      "note_on channel=3 note=50 velocity=127 time=0\n",
      "note_on channel=3 note=43 velocity=0 time=960\n",
      "note_on channel=3 note=59 velocity=0 time=0\n",
      "note_on channel=3 note=55 velocity=0 time=0\n",
      "note_on channel=3 note=50 velocity=0 time=0\n",
      "note_on channel=3 note=58 velocity=127 time=0\n",
      "note_on channel=3 note=54 velocity=127 time=0\n",
      "note_on channel=3 note=49 velocity=127 time=0\n",
      "note_on channel=3 note=42 velocity=127 time=0\n",
      "note_on channel=3 note=58 velocity=0 time=480\n",
      "note_on channel=3 note=54 velocity=0 time=0\n",
      "note_on channel=3 note=49 velocity=0 time=0\n",
      "note_on channel=3 note=42 velocity=0 time=0\n",
      "note_on channel=3 note=57 velocity=127 time=0\n",
      "note_on channel=3 note=57 velocity=0 time=120\n",
      "note_on channel=3 note=54 velocity=127 time=0\n",
      "note_on channel=3 note=54 velocity=0 time=120\n",
      "note_on channel=3 note=57 velocity=127 time=0\n",
      "note_on channel=3 note=57 velocity=0 time=240\n",
      "note_on channel=3 note=40 velocity=127 time=0\n",
      "note_on channel=3 note=40 velocity=0 time=59\n",
      "note_on channel=3 note=40 velocity=127 time=1\n",
      "note_on channel=3 note=40 velocity=0 time=59\n",
      "note_on channel=3 note=40 velocity=127 time=1\n",
      "note_on channel=3 note=40 velocity=0 time=59\n",
      "note_on channel=3 note=40 velocity=127 time=1\n",
      "note_on channel=3 note=40 velocity=0 time=59\n",
      "note_on channel=3 note=40 velocity=127 time=1\n",
      "note_on channel=3 note=40 velocity=0 time=59\n",
      "note_on channel=3 note=40 velocity=127 time=1\n",
      "note_on channel=3 note=40 velocity=0 time=59\n",
      "note_on channel=3 note=40 velocity=127 time=1\n",
      "note_on channel=3 note=40 velocity=0 time=59\n",
      "note_on channel=3 note=40 velocity=127 time=1\n",
      "note_on channel=3 note=40 velocity=0 time=59\n",
      "note_on channel=3 note=40 velocity=127 time=1\n",
      "note_on channel=3 note=40 velocity=0 time=59\n",
      "note_on channel=3 note=50 velocity=127 time=1\n",
      "note_on channel=3 note=43 velocity=127 time=0\n",
      "note_on channel=3 note=50 velocity=0 time=59\n",
      "note_on channel=3 note=43 velocity=0 time=0\n",
      "note_on channel=3 note=52 velocity=127 time=1\n",
      "note_on channel=3 note=45 velocity=127 time=0\n",
      "note_on channel=3 note=52 velocity=0 time=59\n",
      "note_on channel=3 note=45 velocity=0 time=0\n",
      "note_on channel=3 note=40 velocity=127 time=1\n",
      "note_on channel=3 note=40 velocity=0 time=59\n",
      "note_on channel=3 note=46 velocity=127 time=1\n",
      "note_on channel=3 note=53 velocity=127 time=0\n",
      "note_on channel=3 note=46 velocity=0 time=59\n",
      "note_on channel=3 note=53 velocity=0 time=0\n",
      "note_on channel=3 note=52 velocity=127 time=1\n",
      "note_on channel=3 note=45 velocity=127 time=0\n",
      "note_on channel=3 note=52 velocity=0 time=59\n",
      "note_on channel=3 note=45 velocity=0 time=0\n",
      "note_on channel=3 note=50 velocity=127 time=1\n",
      "note_on channel=3 note=43 velocity=127 time=0\n",
      "note_on channel=3 note=50 velocity=0 time=59\n",
      "note_on channel=3 note=43 velocity=0 time=0\n",
      "note_on channel=3 note=40 velocity=127 time=61\n",
      "note_on channel=3 note=40 velocity=0 time=59\n",
      "note_on channel=3 note=40 velocity=127 time=1\n",
      "note_on channel=3 note=40 velocity=0 time=59\n",
      "note_on channel=3 note=40 velocity=127 time=1\n",
      "note_on channel=3 note=40 velocity=0 time=59\n",
      "note_on channel=3 note=40 velocity=127 time=1\n",
      "note_on channel=3 note=40 velocity=0 time=59\n",
      "note_on channel=3 note=40 velocity=127 time=1\n",
      "note_on channel=3 note=40 velocity=0 time=59\n",
      "note_on channel=3 note=40 velocity=127 time=1\n",
      "note_on channel=3 note=40 velocity=0 time=59\n",
      "note_on channel=3 note=40 velocity=127 time=1\n",
      "note_on channel=3 note=40 velocity=0 time=59\n",
      "note_on channel=3 note=40 velocity=127 time=1\n",
      "note_on channel=3 note=40 velocity=0 time=59\n",
      "note_on channel=3 note=40 velocity=127 time=1\n",
      "note_on channel=3 note=40 velocity=0 time=59\n",
      "note_on channel=3 note=43 velocity=127 time=1\n",
      "note_on channel=3 note=50 velocity=127 time=0\n",
      "note_on channel=3 note=43 velocity=0 time=59\n",
      "note_on channel=3 note=50 velocity=0 time=0\n",
      "note_on channel=3 note=52 velocity=127 time=1\n",
      "note_on channel=3 note=45 velocity=127 time=0\n",
      "note_on channel=3 note=52 velocity=0 time=59\n",
      "note_on channel=3 note=45 velocity=0 time=0\n",
      "note_on channel=3 note=43 velocity=127 time=1\n",
      "note_on channel=3 note=50 velocity=127 time=0\n",
      "note_on channel=3 note=43 velocity=0 time=59\n",
      "note_on channel=3 note=50 velocity=0 time=0\n",
      "note_on channel=3 note=45 velocity=127 time=1\n",
      "note_on channel=3 note=52 velocity=127 time=0\n",
      "note_on channel=3 note=45 velocity=0 time=59\n",
      "note_on channel=3 note=52 velocity=0 time=0\n",
      "note_on channel=3 note=40 velocity=127 time=1\n",
      "note_on channel=3 note=40 velocity=0 time=59\n",
      "note_on channel=3 note=40 velocity=127 time=1\n",
      "note_on channel=3 note=40 velocity=0 time=59\n",
      "note_on channel=3 note=40 velocity=127 time=1\n",
      "note_on channel=3 note=40 velocity=0 time=59\n",
      "note_on channel=3 note=40 velocity=127 time=1\n",
      "note_on channel=3 note=40 velocity=0 time=59\n",
      "note_on channel=3 note=40 velocity=127 time=1\n",
      "note_on channel=3 note=40 velocity=0 time=59\n",
      "note_on channel=3 note=40 velocity=127 time=1\n",
      "note_on channel=3 note=40 velocity=0 time=59\n",
      "note_on channel=3 note=40 velocity=127 time=1\n",
      "note_on channel=3 note=40 velocity=0 time=59\n",
      "note_on channel=3 note=40 velocity=127 time=1\n",
      "note_on channel=3 note=40 velocity=0 time=59\n",
      "note_on channel=3 note=40 velocity=127 time=1\n",
      "note_on channel=3 note=40 velocity=0 time=59\n",
      "note_on channel=3 note=50 velocity=127 time=1\n",
      "note_on channel=3 note=43 velocity=127 time=0\n",
      "note_on channel=3 note=50 velocity=0 time=59\n",
      "note_on channel=3 note=43 velocity=0 time=0\n",
      "note_on channel=3 note=45 velocity=127 time=1\n",
      "note_on channel=3 note=52 velocity=127 time=0\n",
      "note_on channel=3 note=45 velocity=0 time=59\n",
      "note_on channel=3 note=52 velocity=0 time=0\n",
      "note_on channel=3 note=40 velocity=127 time=1\n",
      "note_on channel=3 note=40 velocity=0 time=59\n",
      "note_on channel=3 note=53 velocity=127 time=1\n",
      "note_on channel=3 note=46 velocity=127 time=0\n",
      "note_on channel=3 note=53 velocity=0 time=59\n",
      "note_on channel=3 note=46 velocity=0 time=0\n",
      "note_on channel=3 note=52 velocity=127 time=1\n",
      "note_on channel=3 note=45 velocity=127 time=0\n",
      "note_on channel=3 note=52 velocity=0 time=59\n",
      "note_on channel=3 note=45 velocity=0 time=0\n",
      "note_on channel=3 note=43 velocity=127 time=1\n",
      "note_on channel=3 note=50 velocity=127 time=0\n",
      "note_on channel=3 note=43 velocity=0 time=59\n",
      "note_on channel=3 note=50 velocity=0 time=0\n",
      "note_on channel=3 note=40 velocity=127 time=61\n",
      "note_on channel=3 note=40 velocity=0 time=59\n",
      "note_on channel=3 note=40 velocity=127 time=1\n",
      "note_on channel=3 note=40 velocity=0 time=59\n",
      "note_on channel=3 note=40 velocity=127 time=1\n",
      "note_on channel=3 note=40 velocity=0 time=59\n",
      "note_on channel=3 note=40 velocity=127 time=1\n",
      "note_on channel=3 note=40 velocity=0 time=59\n",
      "note_on channel=3 note=40 velocity=127 time=1\n",
      "note_on channel=3 note=40 velocity=0 time=59\n",
      "note_on channel=3 note=40 velocity=127 time=1\n",
      "note_on channel=3 note=40 velocity=0 time=59\n",
      "note_on channel=3 note=40 velocity=127 time=1\n",
      "note_on channel=3 note=40 velocity=0 time=59\n",
      "note_on channel=3 note=40 velocity=127 time=1\n",
      "note_on channel=3 note=40 velocity=0 time=59\n",
      "note_on channel=3 note=40 velocity=127 time=1\n",
      "note_on channel=3 note=40 velocity=0 time=59\n",
      "note_on channel=3 note=50 velocity=127 time=1\n",
      "note_on channel=3 note=43 velocity=127 time=0\n",
      "note_on channel=3 note=50 velocity=0 time=59\n",
      "note_on channel=3 note=43 velocity=0 time=0\n",
      "note_on channel=3 note=52 velocity=127 time=1\n",
      "note_on channel=3 note=45 velocity=127 time=0\n",
      "note_on channel=3 note=52 velocity=0 time=59\n",
      "note_on channel=3 note=45 velocity=0 time=0\n",
      "note_on channel=3 note=50 velocity=127 time=1\n",
      "note_on channel=3 note=43 velocity=127 time=0\n",
      "note_on channel=3 note=50 velocity=0 time=59\n",
      "note_on channel=3 note=43 velocity=0 time=0\n",
      "note_on channel=3 note=45 velocity=127 time=1\n",
      "note_on channel=3 note=52 velocity=127 time=0\n",
      "note_on channel=3 note=45 velocity=0 time=59\n",
      "note_on channel=3 note=52 velocity=0 time=0\n",
      "note_on channel=3 note=40 velocity=127 time=1\n",
      "note_on channel=3 note=40 velocity=0 time=59\n",
      "note_on channel=3 note=40 velocity=127 time=1\n",
      "note_on channel=3 note=40 velocity=0 time=59\n",
      "note_on channel=3 note=40 velocity=127 time=1\n",
      "note_on channel=3 note=40 velocity=0 time=59\n",
      "note_on channel=3 note=40 velocity=127 time=1\n",
      "note_on channel=3 note=40 velocity=0 time=59\n",
      "note_on channel=3 note=40 velocity=127 time=1\n",
      "note_on channel=3 note=40 velocity=0 time=59\n",
      "note_on channel=3 note=40 velocity=127 time=1\n",
      "note_on channel=3 note=40 velocity=0 time=59\n",
      "note_on channel=3 note=40 velocity=127 time=1\n",
      "note_on channel=3 note=40 velocity=0 time=59\n",
      "note_on channel=3 note=40 velocity=127 time=1\n",
      "note_on channel=3 note=40 velocity=0 time=59\n",
      "note_on channel=3 note=40 velocity=127 time=1\n",
      "note_on channel=3 note=40 velocity=0 time=59\n",
      "note_on channel=3 note=43 velocity=127 time=1\n",
      "note_on channel=3 note=50 velocity=127 time=0\n",
      "note_on channel=3 note=43 velocity=0 time=59\n",
      "note_on channel=3 note=50 velocity=0 time=0\n",
      "note_on channel=3 note=45 velocity=127 time=1\n",
      "note_on channel=3 note=52 velocity=127 time=0\n",
      "note_on channel=3 note=45 velocity=0 time=59\n",
      "note_on channel=3 note=52 velocity=0 time=0\n",
      "note_on channel=3 note=40 velocity=127 time=1\n",
      "note_on channel=3 note=40 velocity=0 time=59\n",
      "note_on channel=3 note=53 velocity=127 time=1\n",
      "note_on channel=3 note=46 velocity=127 time=0\n",
      "note_on channel=3 note=53 velocity=0 time=59\n",
      "note_on channel=3 note=46 velocity=0 time=0\n",
      "note_on channel=3 note=45 velocity=127 time=1\n",
      "note_on channel=3 note=52 velocity=127 time=0\n",
      "note_on channel=3 note=45 velocity=0 time=59\n",
      "note_on channel=3 note=52 velocity=0 time=0\n",
      "note_on channel=3 note=43 velocity=127 time=1\n",
      "note_on channel=3 note=50 velocity=127 time=0\n",
      "note_on channel=3 note=43 velocity=0 time=59\n",
      "note_on channel=3 note=50 velocity=0 time=0\n",
      "note_on channel=3 note=40 velocity=127 time=61\n",
      "note_on channel=3 note=40 velocity=0 time=59\n",
      "note_on channel=3 note=40 velocity=127 time=1\n",
      "note_on channel=3 note=40 velocity=0 time=59\n",
      "note_on channel=3 note=40 velocity=127 time=1\n",
      "note_on channel=3 note=40 velocity=0 time=59\n",
      "note_on channel=3 note=40 velocity=127 time=1\n",
      "note_on channel=3 note=40 velocity=0 time=59\n",
      "note_on channel=3 note=40 velocity=127 time=1\n",
      "note_on channel=3 note=40 velocity=0 time=59\n",
      "note_on channel=3 note=40 velocity=127 time=1\n",
      "note_on channel=3 note=40 velocity=0 time=59\n",
      "note_on channel=3 note=40 velocity=127 time=1\n",
      "note_on channel=3 note=40 velocity=0 time=59\n",
      "note_on channel=3 note=40 velocity=127 time=1\n",
      "note_on channel=3 note=40 velocity=0 time=59\n",
      "note_on channel=3 note=40 velocity=127 time=1\n",
      "note_on channel=3 note=40 velocity=0 time=59\n",
      "note_on channel=3 note=50 velocity=127 time=1\n",
      "note_on channel=3 note=43 velocity=127 time=0\n",
      "note_on channel=3 note=50 velocity=0 time=59\n",
      "note_on channel=3 note=43 velocity=0 time=0\n",
      "note_on channel=3 note=45 velocity=127 time=1\n",
      "note_on channel=3 note=52 velocity=127 time=0\n",
      "note_on channel=3 note=45 velocity=0 time=59\n",
      "note_on channel=3 note=52 velocity=0 time=0\n",
      "note_on channel=3 note=43 velocity=127 time=1\n",
      "note_on channel=3 note=50 velocity=127 time=0\n",
      "note_on channel=3 note=43 velocity=0 time=59\n",
      "note_on channel=3 note=50 velocity=0 time=0\n",
      "note_on channel=3 note=52 velocity=127 time=1\n",
      "note_on channel=3 note=45 velocity=127 time=0\n",
      "note_on channel=3 note=52 velocity=0 time=59\n",
      "note_on channel=3 note=45 velocity=0 time=0\n",
      "note_on channel=3 note=40 velocity=127 time=1\n",
      "note_on channel=3 note=40 velocity=0 time=59\n",
      "note_on channel=3 note=40 velocity=127 time=1\n",
      "note_on channel=3 note=40 velocity=0 time=59\n",
      "note_on channel=3 note=40 velocity=127 time=1\n",
      "note_on channel=3 note=40 velocity=0 time=59\n",
      "note_on channel=3 note=40 velocity=127 time=1\n",
      "note_on channel=3 note=40 velocity=0 time=59\n",
      "note_on channel=3 note=40 velocity=127 time=1\n",
      "note_on channel=3 note=40 velocity=0 time=59\n",
      "note_on channel=3 note=40 velocity=127 time=1\n",
      "note_on channel=3 note=40 velocity=0 time=59\n",
      "note_on channel=3 note=40 velocity=127 time=1\n",
      "note_on channel=3 note=40 velocity=0 time=59\n",
      "note_on channel=3 note=40 velocity=127 time=1\n",
      "note_on channel=3 note=40 velocity=0 time=59\n",
      "note_on channel=3 note=40 velocity=127 time=1\n",
      "note_on channel=3 note=40 velocity=0 time=59\n",
      "note_on channel=3 note=43 velocity=127 time=1\n",
      "note_on channel=3 note=50 velocity=127 time=0\n",
      "note_on channel=3 note=43 velocity=0 time=59\n",
      "note_on channel=3 note=50 velocity=0 time=0\n",
      "note_on channel=3 note=52 velocity=127 time=1\n",
      "note_on channel=3 note=45 velocity=127 time=0\n",
      "note_on channel=3 note=52 velocity=0 time=59\n",
      "note_on channel=3 note=45 velocity=0 time=0\n",
      "note_on channel=3 note=40 velocity=127 time=1\n",
      "note_on channel=3 note=40 velocity=0 time=59\n",
      "note_on channel=3 note=53 velocity=127 time=1\n",
      "note_on channel=3 note=46 velocity=127 time=0\n",
      "note_on channel=3 note=53 velocity=0 time=59\n",
      "note_on channel=3 note=46 velocity=0 time=0\n",
      "note_on channel=3 note=52 velocity=127 time=1\n",
      "note_on channel=3 note=45 velocity=127 time=0\n",
      "note_on channel=3 note=52 velocity=0 time=59\n",
      "note_on channel=3 note=45 velocity=0 time=0\n",
      "note_on channel=3 note=43 velocity=127 time=1\n",
      "note_on channel=3 note=50 velocity=127 time=0\n",
      "note_on channel=3 note=43 velocity=0 time=59\n",
      "note_on channel=3 note=50 velocity=0 time=0\n",
      "note_on channel=3 note=40 velocity=127 time=61\n",
      "note_on channel=3 note=40 velocity=0 time=59\n",
      "note_on channel=3 note=40 velocity=127 time=1\n",
      "note_on channel=3 note=40 velocity=0 time=59\n",
      "note_on channel=3 note=40 velocity=127 time=1\n",
      "note_on channel=3 note=40 velocity=0 time=59\n",
      "note_on channel=3 note=40 velocity=127 time=1\n",
      "note_on channel=3 note=40 velocity=0 time=59\n",
      "note_on channel=3 note=40 velocity=127 time=1\n",
      "note_on channel=3 note=40 velocity=0 time=59\n",
      "note_on channel=3 note=40 velocity=127 time=1\n",
      "note_on channel=3 note=40 velocity=0 time=59\n",
      "note_on channel=3 note=40 velocity=127 time=1\n",
      "note_on channel=3 note=40 velocity=0 time=59\n",
      "note_on channel=3 note=40 velocity=127 time=1\n",
      "note_on channel=3 note=40 velocity=0 time=59\n",
      "note_on channel=3 note=40 velocity=127 time=1\n",
      "note_on channel=3 note=40 velocity=0 time=59\n",
      "note_on channel=3 note=43 velocity=127 time=1\n",
      "note_on channel=3 note=50 velocity=127 time=0\n",
      "note_on channel=3 note=43 velocity=0 time=59\n",
      "note_on channel=3 note=50 velocity=0 time=0\n",
      "note_on channel=3 note=45 velocity=127 time=1\n",
      "note_on channel=3 note=52 velocity=127 time=0\n",
      "note_on channel=3 note=45 velocity=0 time=59\n",
      "note_on channel=3 note=52 velocity=0 time=0\n",
      "note_on channel=3 note=50 velocity=127 time=1\n",
      "note_on channel=3 note=43 velocity=127 time=0\n",
      "note_on channel=3 note=50 velocity=0 time=59\n",
      "note_on channel=3 note=43 velocity=0 time=0\n",
      "note_on channel=3 note=52 velocity=127 time=1\n",
      "note_on channel=3 note=45 velocity=127 time=0\n",
      "note_on channel=3 note=52 velocity=0 time=59\n",
      "note_on channel=3 note=45 velocity=0 time=0\n",
      "note_on channel=3 note=42 velocity=127 time=1\n",
      "note_on channel=3 note=42 velocity=0 time=59\n",
      "note_on channel=3 note=42 velocity=127 time=1\n",
      "note_on channel=3 note=42 velocity=0 time=59\n",
      "note_on channel=3 note=42 velocity=127 time=1\n",
      "note_on channel=3 note=42 velocity=0 time=59\n",
      "note_on channel=3 note=42 velocity=127 time=1\n",
      "note_on channel=3 note=42 velocity=0 time=59\n",
      "note_on channel=3 note=42 velocity=127 time=1\n",
      "note_on channel=3 note=42 velocity=0 time=59\n",
      "note_on channel=3 note=42 velocity=127 time=1\n",
      "note_on channel=3 note=42 velocity=0 time=59\n",
      "note_on channel=3 note=42 velocity=127 time=1\n",
      "note_on channel=3 note=42 velocity=0 time=59\n",
      "note_on channel=3 note=42 velocity=127 time=1\n",
      "note_on channel=3 note=42 velocity=0 time=59\n",
      "note_on channel=3 note=42 velocity=127 time=1\n",
      "note_on channel=3 note=42 velocity=0 time=59\n",
      "note_on channel=3 note=45 velocity=127 time=1\n",
      "note_on channel=3 note=54 velocity=127 time=0\n",
      "note_on channel=3 note=45 velocity=0 time=59\n",
      "note_on channel=3 note=54 velocity=0 time=0\n",
      "note_on channel=3 note=54 velocity=127 time=1\n",
      "note_on channel=3 note=47 velocity=127 time=0\n",
      "note_on channel=3 note=54 velocity=0 time=59\n",
      "note_on channel=3 note=47 velocity=0 time=0\n",
      "note_on channel=3 note=48 velocity=127 time=61\n",
      "note_on channel=3 note=55 velocity=127 time=0\n",
      "note_on channel=3 note=48 velocity=0 time=59\n",
      "note_on channel=3 note=55 velocity=0 time=0\n",
      "note_on channel=3 note=47 velocity=127 time=1\n",
      "note_on channel=3 note=54 velocity=127 time=0\n",
      "note_on channel=3 note=47 velocity=0 time=59\n",
      "note_on channel=3 note=54 velocity=0 time=0\n",
      "note_on channel=3 note=54 velocity=127 time=1\n",
      "note_on channel=3 note=45 velocity=127 time=0\n",
      "note_on channel=3 note=54 velocity=0 time=59\n",
      "note_on channel=3 note=45 velocity=0 time=0\n",
      "note_on channel=3 note=54 velocity=127 time=1\n",
      "note_on channel=3 note=47 velocity=127 time=0\n",
      "note_on channel=3 note=54 velocity=0 time=59\n",
      "note_on channel=3 note=47 velocity=0 time=0\n",
      "note_on channel=3 note=42 velocity=127 time=1\n",
      "note_on channel=3 note=42 velocity=0 time=59\n",
      "note_on channel=3 note=42 velocity=127 time=1\n",
      "note_on channel=3 note=42 velocity=0 time=59\n",
      "note_on channel=3 note=42 velocity=127 time=1\n",
      "note_on channel=3 note=42 velocity=0 time=59\n",
      "note_on channel=3 note=42 velocity=127 time=1\n",
      "note_on channel=3 note=42 velocity=0 time=59\n",
      "note_on channel=3 note=42 velocity=127 time=1\n",
      "note_on channel=3 note=42 velocity=0 time=59\n",
      "note_on channel=3 note=42 velocity=127 time=1\n",
      "note_on channel=3 note=42 velocity=0 time=59\n",
      "note_on channel=3 note=42 velocity=127 time=1\n",
      "note_on channel=3 note=42 velocity=0 time=59\n",
      "note_on channel=3 note=42 velocity=127 time=1\n",
      "note_on channel=3 note=42 velocity=0 time=59\n",
      "note_on channel=3 note=42 velocity=127 time=1\n",
      "note_on channel=3 note=42 velocity=0 time=59\n",
      "note_on channel=3 note=45 velocity=127 time=1\n",
      "note_on channel=3 note=54 velocity=127 time=0\n",
      "note_on channel=3 note=45 velocity=0 time=59\n",
      "note_on channel=3 note=47 velocity=127 time=1\n",
      "note_on channel=3 note=54 velocity=0 time=29\n",
      "note_on channel=3 note=47 velocity=0 time=30\n",
      "note_on channel=3 note=54 velocity=127 time=1\n",
      "note_on channel=3 note=45 velocity=127 time=0\n",
      "note_on channel=3 note=45 velocity=0 time=59\n",
      "note_on channel=3 note=47 velocity=127 time=1\n",
      "note_on channel=3 note=54 velocity=0 time=29\n",
      "note_on channel=3 note=47 velocity=0 time=30\n",
      "note_on channel=3 note=42 velocity=127 time=1\n",
      "note_on channel=3 note=42 velocity=0 time=59\n",
      "note_on channel=3 note=42 velocity=127 time=1\n",
      "note_on channel=3 note=42 velocity=0 time=59\n",
      "note_on channel=3 note=42 velocity=127 time=1\n",
      "note_on channel=3 note=42 velocity=0 time=59\n",
      "note_on channel=3 note=42 velocity=127 time=1\n",
      "note_on channel=3 note=42 velocity=0 time=59\n",
      "note_on channel=3 note=42 velocity=127 time=1\n",
      "note_on channel=3 note=42 velocity=0 time=59\n",
      "note_on channel=3 note=42 velocity=127 time=1\n",
      "note_on channel=3 note=42 velocity=0 time=59\n",
      "note_on channel=3 note=42 velocity=127 time=1\n",
      "note_on channel=3 note=42 velocity=0 time=59\n",
      "note_on channel=3 note=42 velocity=127 time=1\n",
      "note_on channel=3 note=42 velocity=0 time=59\n",
      "note_on channel=3 note=42 velocity=127 time=1\n",
      "note_on channel=3 note=42 velocity=0 time=59\n",
      "note_on channel=3 note=45 velocity=127 time=1\n",
      "note_on channel=3 note=54 velocity=127 time=0\n",
      "note_on channel=3 note=45 velocity=0 time=59\n",
      "note_on channel=3 note=54 velocity=0 time=0\n",
      "note_on channel=3 note=54 velocity=127 time=1\n",
      "note_on channel=3 note=47 velocity=127 time=0\n",
      "note_on channel=3 note=54 velocity=0 time=59\n",
      "note_on channel=3 note=47 velocity=0 time=0\n",
      "note_on channel=3 note=55 velocity=127 time=61\n",
      "note_on channel=3 note=48 velocity=127 time=0\n",
      "note_on channel=3 note=55 velocity=0 time=59\n",
      "note_on channel=3 note=48 velocity=0 time=0\n",
      "note_on channel=3 note=47 velocity=127 time=1\n",
      "note_on channel=3 note=54 velocity=127 time=0\n",
      "note_on channel=3 note=47 velocity=0 time=59\n",
      "note_on channel=3 note=54 velocity=0 time=0\n",
      "note_on channel=3 note=45 velocity=127 time=1\n",
      "note_on channel=3 note=54 velocity=127 time=0\n",
      "note_on channel=3 note=45 velocity=0 time=59\n",
      "note_on channel=3 note=54 velocity=0 time=0\n",
      "note_on channel=3 note=54 velocity=127 time=1\n",
      "note_on channel=3 note=47 velocity=127 time=0\n",
      "note_on channel=3 note=54 velocity=0 time=59\n",
      "note_on channel=3 note=47 velocity=0 time=0\n",
      "note_on channel=3 note=42 velocity=127 time=1\n",
      "note_on channel=3 note=42 velocity=0 time=59\n",
      "note_on channel=3 note=42 velocity=127 time=1\n",
      "note_on channel=3 note=42 velocity=0 time=59\n",
      "note_on channel=3 note=42 velocity=127 time=1\n",
      "note_on channel=3 note=42 velocity=0 time=59\n",
      "note_on channel=3 note=42 velocity=127 time=1\n",
      "note_on channel=3 note=42 velocity=0 time=59\n",
      "note_on channel=3 note=42 velocity=127 time=1\n",
      "note_on channel=3 note=42 velocity=0 time=59\n",
      "note_on channel=3 note=42 velocity=127 time=1\n",
      "note_on channel=3 note=42 velocity=0 time=59\n",
      "note_on channel=3 note=42 velocity=127 time=1\n",
      "note_on channel=3 note=42 velocity=0 time=59\n",
      "note_on channel=3 note=42 velocity=127 time=1\n",
      "note_on channel=3 note=42 velocity=0 time=59\n",
      "note_on channel=3 note=42 velocity=127 time=1\n",
      "note_on channel=3 note=42 velocity=0 time=59\n",
      "note_on channel=3 note=45 velocity=127 time=1\n",
      "note_on channel=3 note=54 velocity=127 time=0\n",
      "note_on channel=3 note=45 velocity=0 time=59\n",
      "note_on channel=3 note=47 velocity=127 time=1\n",
      "note_on channel=3 note=54 velocity=0 time=29\n",
      "note_on channel=3 note=47 velocity=0 time=30\n",
      "note_on channel=3 note=54 velocity=127 time=1\n",
      "note_on channel=3 note=45 velocity=127 time=0\n",
      "note_on channel=3 note=45 velocity=0 time=59\n",
      "note_on channel=3 note=47 velocity=127 time=1\n",
      "note_on channel=3 note=54 velocity=0 time=29\n",
      "note_on channel=3 note=47 velocity=0 time=30\n",
      "note_on channel=3 note=54 velocity=127 time=1\n",
      "note_on channel=3 note=47 velocity=127 time=0\n",
      "note_on channel=3 note=59 velocity=127 time=0\n",
      "note_on channel=3 note=54 velocity=0 time=59\n",
      "note_on channel=3 note=47 velocity=0 time=0\n",
      "note_on channel=3 note=59 velocity=0 time=0\n",
      "note_on channel=3 note=59 velocity=127 time=1\n",
      "note_on channel=3 note=54 velocity=127 time=0\n",
      "note_on channel=3 note=47 velocity=127 time=0\n",
      "note_on channel=3 note=59 velocity=0 time=59\n",
      "note_on channel=3 note=54 velocity=0 time=0\n",
      "note_on channel=3 note=47 velocity=0 time=0\n",
      "note_on channel=3 note=47 velocity=127 time=1\n",
      "note_on channel=3 note=59 velocity=127 time=0\n",
      "note_on channel=3 note=54 velocity=127 time=0\n",
      "note_on channel=3 note=47 velocity=0 time=59\n",
      "note_on channel=3 note=59 velocity=0 time=0\n",
      "note_on channel=3 note=54 velocity=0 time=0\n",
      "note_on channel=3 note=59 velocity=127 time=1\n",
      "note_on channel=3 note=54 velocity=127 time=0\n",
      "note_on channel=3 note=47 velocity=127 time=0\n",
      "note_on channel=3 note=59 velocity=0 time=59\n",
      "note_on channel=3 note=54 velocity=0 time=0\n",
      "note_on channel=3 note=47 velocity=0 time=0\n",
      "note_on channel=3 note=47 velocity=127 time=1\n",
      "note_on channel=3 note=59 velocity=127 time=0\n",
      "note_on channel=3 note=54 velocity=127 time=0\n",
      "note_on channel=3 note=47 velocity=0 time=59\n",
      "note_on channel=3 note=59 velocity=0 time=0\n",
      "note_on channel=3 note=54 velocity=0 time=0\n",
      "note_on channel=3 note=59 velocity=127 time=1\n",
      "note_on channel=3 note=54 velocity=127 time=0\n",
      "note_on channel=3 note=47 velocity=127 time=0\n",
      "note_on channel=3 note=59 velocity=0 time=59\n",
      "note_on channel=3 note=54 velocity=0 time=0\n",
      "note_on channel=3 note=47 velocity=0 time=0\n",
      "note_on channel=3 note=59 velocity=127 time=1\n",
      "note_on channel=3 note=47 velocity=127 time=0\n",
      "note_on channel=3 note=54 velocity=127 time=0\n",
      "note_on channel=3 note=59 velocity=0 time=59\n",
      "note_on channel=3 note=47 velocity=0 time=0\n",
      "note_on channel=3 note=54 velocity=0 time=0\n",
      "note_on channel=3 note=47 velocity=127 time=1\n",
      "note_on channel=3 note=54 velocity=127 time=0\n",
      "note_on channel=3 note=59 velocity=127 time=0\n",
      "note_on channel=3 note=47 velocity=0 time=59\n",
      "note_on channel=3 note=54 velocity=0 time=0\n",
      "note_on channel=3 note=59 velocity=0 time=0\n",
      "note_on channel=3 note=40 velocity=127 time=1\n",
      "note_on channel=3 note=40 velocity=0 time=60\n",
      "note_on channel=3 note=40 velocity=127 time=0\n",
      "note_on channel=3 note=40 velocity=0 time=60\n",
      "note_on channel=3 note=53 velocity=127 time=0\n",
      "note_on channel=3 note=48 velocity=127 time=0\n",
      "note_on channel=3 note=41 velocity=127 time=0\n",
      "note_on channel=3 note=53 velocity=0 time=60\n",
      "note_on channel=3 note=48 velocity=0 time=0\n",
      "note_on channel=3 note=41 velocity=0 time=0\n",
      "note_on channel=3 note=40 velocity=127 time=0\n",
      "note_on channel=3 note=40 velocity=0 time=60\n",
      "note_on channel=3 note=40 velocity=127 time=0\n",
      "note_on channel=3 note=40 velocity=0 time=60\n",
      "note_on channel=3 note=48 velocity=127 time=0\n",
      "note_on channel=3 note=53 velocity=127 time=0\n",
      "note_on channel=3 note=41 velocity=127 time=0\n",
      "note_on channel=3 note=48 velocity=0 time=60\n",
      "note_on channel=3 note=53 velocity=0 time=0\n",
      "note_on channel=3 note=41 velocity=0 time=0\n",
      "note_on channel=3 note=40 velocity=127 time=0\n",
      "note_on channel=3 note=40 velocity=0 time=60\n",
      "note_on channel=3 note=40 velocity=127 time=0\n",
      "note_on channel=3 note=40 velocity=0 time=60\n",
      "note_on channel=3 note=48 velocity=127 time=0\n",
      "note_on channel=3 note=53 velocity=127 time=0\n",
      "note_on channel=3 note=41 velocity=127 time=0\n",
      "note_on channel=3 note=48 velocity=0 time=60\n",
      "note_on channel=3 note=53 velocity=0 time=0\n",
      "note_on channel=3 note=41 velocity=0 time=0\n",
      "note_on channel=3 note=40 velocity=127 time=0\n",
      "note_on channel=3 note=40 velocity=0 time=60\n",
      "note_on channel=3 note=40 velocity=127 time=0\n",
      "note_on channel=3 note=40 velocity=0 time=60\n",
      "note_on channel=3 note=41 velocity=127 time=0\n",
      "note_on channel=3 note=48 velocity=127 time=0\n",
      "note_on channel=3 note=53 velocity=127 time=0\n",
      "note_on channel=3 note=41 velocity=0 time=60\n",
      "note_on channel=3 note=48 velocity=0 time=0\n",
      "note_on channel=3 note=53 velocity=0 time=0\n",
      "note_on channel=3 note=40 velocity=127 time=0\n",
      "note_on channel=3 note=40 velocity=0 time=60\n",
      "note_on channel=3 note=40 velocity=127 time=0\n",
      "note_on channel=3 note=40 velocity=0 time=60\n",
      "note_on channel=3 note=47 velocity=127 time=0\n",
      "note_on channel=3 note=47 velocity=0 time=60\n",
      "note_on channel=3 note=47 velocity=127 time=0\n",
      "note_on channel=3 note=47 velocity=0 time=60\n",
      "note_on channel=3 note=40 velocity=127 time=0\n",
      "note_on channel=3 note=40 velocity=0 time=60\n",
      "note_on channel=3 note=40 velocity=127 time=0\n",
      "note_on channel=3 note=40 velocity=0 time=60\n",
      "note_on channel=3 note=48 velocity=127 time=0\n",
      "note_on channel=3 note=41 velocity=127 time=0\n",
      "note_on channel=3 note=53 velocity=127 time=0\n",
      "note_on channel=3 note=48 velocity=0 time=60\n",
      "note_on channel=3 note=41 velocity=0 time=0\n",
      "note_on channel=3 note=53 velocity=0 time=0\n",
      "note_on channel=3 note=40 velocity=127 time=0\n",
      "note_on channel=3 note=40 velocity=0 time=60\n",
      "note_on channel=3 note=40 velocity=127 time=0\n",
      "note_on channel=3 note=40 velocity=0 time=60\n",
      "note_on channel=3 note=41 velocity=127 time=0\n",
      "note_on channel=3 note=48 velocity=127 time=0\n",
      "note_on channel=3 note=53 velocity=127 time=0\n",
      "note_on channel=3 note=41 velocity=0 time=60\n",
      "note_on channel=3 note=48 velocity=0 time=0\n",
      "note_on channel=3 note=53 velocity=0 time=0\n",
      "note_on channel=3 note=40 velocity=127 time=0\n",
      "note_on channel=3 note=40 velocity=0 time=60\n",
      "note_on channel=3 note=40 velocity=127 time=0\n",
      "note_on channel=3 note=40 velocity=0 time=60\n",
      "note_on channel=3 note=41 velocity=127 time=0\n",
      "note_on channel=3 note=48 velocity=127 time=0\n",
      "note_on channel=3 note=53 velocity=127 time=0\n",
      "note_on channel=3 note=41 velocity=0 time=60\n",
      "note_on channel=3 note=48 velocity=0 time=0\n",
      "note_on channel=3 note=53 velocity=0 time=0\n",
      "note_on channel=3 note=40 velocity=127 time=0\n",
      "note_on channel=3 note=40 velocity=0 time=60\n",
      "note_on channel=3 note=40 velocity=127 time=0\n",
      "note_on channel=3 note=40 velocity=0 time=60\n",
      "note_on channel=3 note=48 velocity=127 time=0\n",
      "note_on channel=3 note=53 velocity=127 time=0\n",
      "note_on channel=3 note=41 velocity=127 time=0\n",
      "note_on channel=3 note=48 velocity=0 time=60\n",
      "note_on channel=3 note=53 velocity=0 time=0\n",
      "note_on channel=3 note=41 velocity=0 time=0\n",
      "note_on channel=3 note=40 velocity=127 time=0\n",
      "note_on channel=3 note=40 velocity=0 time=60\n",
      "note_on channel=3 note=40 velocity=127 time=0\n",
      "note_on channel=3 note=40 velocity=0 time=60\n",
      "note_on channel=3 note=47 velocity=127 time=0\n",
      "note_on channel=3 note=54 velocity=127 time=0\n",
      "note_on channel=3 note=47 velocity=0 time=120\n",
      "note_on channel=3 note=54 velocity=0 time=0\n",
      "note_on channel=3 note=40 velocity=127 time=0\n",
      "note_on channel=3 note=40 velocity=0 time=60\n",
      "note_on channel=3 note=40 velocity=127 time=0\n",
      "note_on channel=3 note=40 velocity=0 time=60\n",
      "note_on channel=3 note=53 velocity=127 time=0\n",
      "note_on channel=3 note=48 velocity=127 time=0\n",
      "note_on channel=3 note=41 velocity=127 time=0\n",
      "note_on channel=3 note=53 velocity=0 time=60\n",
      "note_on channel=3 note=48 velocity=0 time=0\n",
      "note_on channel=3 note=41 velocity=0 time=0\n",
      "note_on channel=3 note=40 velocity=127 time=0\n",
      "note_on channel=3 note=40 velocity=0 time=60\n",
      "note_on channel=3 note=40 velocity=127 time=0\n",
      "note_on channel=3 note=40 velocity=0 time=60\n",
      "note_on channel=3 note=53 velocity=127 time=0\n",
      "note_on channel=3 note=48 velocity=127 time=0\n",
      "note_on channel=3 note=41 velocity=127 time=0\n",
      "note_on channel=3 note=53 velocity=0 time=60\n",
      "note_on channel=3 note=48 velocity=0 time=0\n",
      "note_on channel=3 note=41 velocity=0 time=0\n",
      "note_on channel=3 note=40 velocity=127 time=0\n",
      "note_on channel=3 note=40 velocity=0 time=60\n",
      "note_on channel=3 note=40 velocity=127 time=0\n",
      "note_on channel=3 note=40 velocity=0 time=60\n",
      "note_on channel=3 note=53 velocity=127 time=0\n",
      "note_on channel=3 note=41 velocity=127 time=0\n",
      "note_on channel=3 note=48 velocity=127 time=0\n",
      "note_on channel=3 note=53 velocity=0 time=60\n",
      "note_on channel=3 note=41 velocity=0 time=0\n",
      "note_on channel=3 note=48 velocity=0 time=0\n",
      "note_on channel=3 note=40 velocity=127 time=0\n",
      "note_on channel=3 note=40 velocity=0 time=60\n",
      "note_on channel=3 note=40 velocity=127 time=0\n",
      "note_on channel=3 note=40 velocity=0 time=60\n",
      "note_on channel=3 note=48 velocity=127 time=0\n",
      "note_on channel=3 note=53 velocity=127 time=0\n",
      "note_on channel=3 note=41 velocity=127 time=0\n",
      "note_on channel=3 note=48 velocity=0 time=60\n",
      "note_on channel=3 note=53 velocity=0 time=0\n",
      "note_on channel=3 note=41 velocity=0 time=0\n",
      "note_on channel=3 note=40 velocity=127 time=0\n",
      "note_on channel=3 note=40 velocity=0 time=60\n",
      "note_on channel=3 note=40 velocity=127 time=0\n",
      "note_on channel=3 note=40 velocity=0 time=60\n",
      "note_on channel=3 note=47 velocity=127 time=0\n",
      "note_on channel=3 note=47 velocity=0 time=60\n",
      "note_on channel=3 note=47 velocity=127 time=0\n",
      "note_on channel=3 note=47 velocity=0 time=60\n",
      "note_on channel=3 note=40 velocity=127 time=0\n",
      "note_on channel=3 note=40 velocity=0 time=60\n",
      "note_on channel=3 note=40 velocity=127 time=0\n",
      "note_on channel=3 note=40 velocity=0 time=60\n",
      "note_on channel=3 note=41 velocity=127 time=0\n",
      "note_on channel=3 note=53 velocity=127 time=0\n",
      "note_on channel=3 note=48 velocity=127 time=0\n",
      "note_on channel=3 note=41 velocity=0 time=60\n",
      "note_on channel=3 note=53 velocity=0 time=0\n",
      "note_on channel=3 note=48 velocity=0 time=0\n",
      "note_on channel=3 note=40 velocity=127 time=0\n",
      "note_on channel=3 note=40 velocity=0 time=60\n",
      "note_on channel=3 note=40 velocity=127 time=0\n",
      "note_on channel=3 note=40 velocity=0 time=60\n",
      "note_on channel=3 note=48 velocity=127 time=0\n",
      "note_on channel=3 note=53 velocity=127 time=0\n",
      "note_on channel=3 note=41 velocity=127 time=0\n",
      "note_on channel=3 note=48 velocity=0 time=60\n",
      "note_on channel=3 note=53 velocity=0 time=0\n",
      "note_on channel=3 note=41 velocity=0 time=0\n",
      "note_on channel=3 note=40 velocity=127 time=0\n",
      "note_on channel=3 note=40 velocity=0 time=60\n",
      "note_on channel=3 note=40 velocity=127 time=0\n",
      "note_on channel=3 note=40 velocity=0 time=60\n",
      "note_on channel=3 note=41 velocity=127 time=0\n",
      "note_on channel=3 note=48 velocity=127 time=0\n",
      "note_on channel=3 note=53 velocity=127 time=0\n",
      "note_on channel=3 note=41 velocity=0 time=60\n",
      "note_on channel=3 note=48 velocity=0 time=0\n",
      "note_on channel=3 note=53 velocity=0 time=0\n",
      "note_on channel=3 note=40 velocity=127 time=0\n",
      "note_on channel=3 note=40 velocity=0 time=60\n",
      "note_on channel=3 note=40 velocity=127 time=0\n",
      "note_on channel=3 note=40 velocity=0 time=60\n",
      "note_on channel=3 note=41 velocity=127 time=0\n",
      "note_on channel=3 note=48 velocity=127 time=0\n",
      "note_on channel=3 note=53 velocity=127 time=0\n",
      "note_on channel=3 note=41 velocity=0 time=60\n",
      "note_on channel=3 note=48 velocity=0 time=0\n",
      "note_on channel=3 note=53 velocity=0 time=0\n",
      "note_on channel=3 note=40 velocity=127 time=0\n",
      "note_on channel=3 note=40 velocity=0 time=60\n",
      "note_on channel=3 note=40 velocity=127 time=0\n",
      "note_on channel=3 note=40 velocity=0 time=60\n",
      "note_on channel=3 note=54 velocity=127 time=0\n",
      "note_on channel=3 note=47 velocity=127 time=0\n",
      "note_on channel=3 note=54 velocity=0 time=120\n",
      "note_on channel=3 note=47 velocity=0 time=0\n",
      "note_on channel=3 note=40 velocity=127 time=0\n",
      "note_on channel=3 note=47 velocity=127 time=0\n",
      "note_on channel=3 note=40 velocity=0 time=60\n",
      "note_on channel=3 note=47 velocity=0 time=0\n",
      "note_on channel=3 note=47 velocity=127 time=0\n",
      "note_on channel=3 note=40 velocity=127 time=0\n",
      "note_on channel=3 note=47 velocity=0 time=60\n",
      "note_on channel=3 note=40 velocity=0 time=0\n",
      "note_on channel=3 note=47 velocity=127 time=0\n",
      "note_on channel=3 note=40 velocity=127 time=0\n",
      "note_on channel=3 note=47 velocity=0 time=60\n",
      "note_on channel=3 note=40 velocity=0 time=0\n",
      "note_on channel=3 note=47 velocity=127 time=0\n",
      "note_on channel=3 note=40 velocity=127 time=0\n",
      "note_on channel=3 note=47 velocity=0 time=60\n",
      "note_on channel=3 note=40 velocity=0 time=0\n",
      "note_on channel=3 note=40 velocity=127 time=0\n",
      "note_on channel=3 note=47 velocity=127 time=0\n",
      "note_on channel=3 note=40 velocity=0 time=60\n",
      "note_on channel=3 note=47 velocity=0 time=0\n",
      "note_on channel=3 note=40 velocity=127 time=0\n",
      "note_on channel=3 note=47 velocity=127 time=0\n",
      "note_on channel=3 note=40 velocity=0 time=60\n",
      "note_on channel=3 note=47 velocity=0 time=0\n",
      "note_on channel=3 note=47 velocity=127 time=0\n",
      "note_on channel=3 note=40 velocity=127 time=0\n",
      "note_on channel=3 note=47 velocity=0 time=60\n",
      "note_on channel=3 note=40 velocity=0 time=0\n",
      "note_on channel=3 note=47 velocity=127 time=0\n",
      "note_on channel=3 note=40 velocity=127 time=0\n",
      "note_on channel=3 note=47 velocity=0 time=60\n",
      "note_on channel=3 note=40 velocity=0 time=0\n",
      "note_on channel=3 note=40 velocity=127 time=0\n",
      "note_on channel=3 note=40 velocity=0 time=60\n",
      "note_on channel=3 note=42 velocity=127 time=0\n",
      "note_on channel=3 note=42 velocity=0 time=60\n",
      "note_on channel=3 note=43 velocity=127 time=0\n",
      "note_on channel=3 note=43 velocity=0 time=60\n",
      "note_on channel=3 note=45 velocity=127 time=0\n",
      "note_on channel=3 note=45 velocity=0 time=60\n",
      "note_on channel=3 note=47 velocity=127 time=0\n",
      "note_on channel=3 note=47 velocity=0 time=60\n",
      "note_on channel=3 note=48 velocity=127 time=0\n",
      "note_on channel=3 note=48 velocity=0 time=60\n",
      "note_on channel=3 note=50 velocity=127 time=0\n",
      "note_on channel=3 note=50 velocity=0 time=60\n",
      "note_on channel=3 note=52 velocity=127 time=0\n",
      "note_on channel=3 note=52 velocity=0 time=60\n",
      "note_on channel=3 note=54 velocity=127 time=0\n",
      "note_on channel=3 note=54 velocity=0 time=60\n",
      "note_on channel=3 note=55 velocity=127 time=0\n",
      "note_on channel=3 note=55 velocity=0 time=60\n",
      "note_on channel=3 note=48 velocity=127 time=0\n",
      "note_on channel=3 note=48 velocity=0 time=300\n",
      "note_on channel=3 note=48 velocity=127 time=0\n",
      "note_on channel=3 note=48 velocity=0 time=30\n",
      "note_on channel=3 note=48 velocity=127 time=0\n",
      "note_on channel=3 note=48 velocity=0 time=30\n",
      "note_on channel=3 note=48 velocity=127 time=0\n",
      "note_on channel=3 note=48 velocity=0 time=60\n",
      "note_on channel=3 note=47 velocity=127 time=0\n",
      "note_on channel=3 note=47 velocity=0 time=60\n",
      "note_on channel=3 note=48 velocity=127 time=0\n",
      "note_on channel=3 note=48 velocity=0 time=60\n",
      "note_on channel=3 note=50 velocity=127 time=0\n",
      "note_on channel=3 note=50 velocity=0 time=60\n",
      "note_on channel=3 note=48 velocity=127 time=0\n",
      "note_on channel=3 note=48 velocity=0 time=60\n",
      "note_on channel=3 note=47 velocity=127 time=0\n",
      "note_on channel=3 note=47 velocity=0 time=60\n",
      "note_on channel=3 note=43 velocity=127 time=0\n",
      "note_on channel=3 note=43 velocity=0 time=60\n",
      "note_on channel=3 note=42 velocity=127 time=0\n",
      "note_on channel=3 note=42 velocity=0 time=60\n",
      "note_on channel=3 note=40 velocity=127 time=0\n",
      "note_on channel=3 note=40 velocity=0 time=60\n",
      "note_on channel=3 note=40 velocity=127 time=0\n",
      "note_on channel=3 note=40 velocity=0 time=60\n",
      "note_on channel=3 note=40 velocity=127 time=0\n",
      "note_on channel=3 note=40 velocity=0 time=60\n",
      "note_on channel=3 note=40 velocity=127 time=0\n",
      "note_on channel=3 note=40 velocity=0 time=60\n",
      "note_on channel=3 note=40 velocity=127 time=0\n",
      "note_on channel=3 note=40 velocity=0 time=60\n",
      "note_on channel=3 note=40 velocity=127 time=0\n",
      "note_on channel=3 note=40 velocity=0 time=60\n",
      "note_on channel=3 note=40 velocity=127 time=0\n",
      "note_on channel=3 note=40 velocity=0 time=60\n",
      "note_on channel=3 note=40 velocity=127 time=0\n",
      "note_on channel=3 note=40 velocity=0 time=30\n",
      "note_on channel=3 note=40 velocity=127 time=30\n",
      "note_on channel=3 note=40 velocity=0 time=60\n",
      "note_on channel=3 note=42 velocity=127 time=0\n",
      "note_on channel=3 note=42 velocity=0 time=60\n",
      "note_on channel=3 note=43 velocity=127 time=0\n",
      "note_on channel=3 note=43 velocity=0 time=60\n",
      "note_on channel=3 note=45 velocity=127 time=0\n",
      "note_on channel=3 note=45 velocity=0 time=60\n",
      "note_on channel=3 note=47 velocity=127 time=0\n",
      "note_on channel=3 note=47 velocity=0 time=60\n",
      "note_on channel=3 note=48 velocity=127 time=0\n",
      "note_on channel=3 note=48 velocity=0 time=60\n",
      "note_on channel=3 note=50 velocity=127 time=0\n",
      "note_on channel=3 note=50 velocity=0 time=60\n",
      "note_on channel=3 note=52 velocity=127 time=0\n",
      "note_on channel=3 note=52 velocity=0 time=60\n",
      "note_on channel=3 note=54 velocity=127 time=0\n",
      "note_on channel=3 note=54 velocity=0 time=60\n",
      "note_on channel=3 note=55 velocity=127 time=0\n",
      "note_on channel=3 note=55 velocity=0 time=60\n",
      "note_on channel=3 note=48 velocity=127 time=0\n",
      "note_on channel=3 note=48 velocity=0 time=300\n",
      "note_on channel=3 note=48 velocity=127 time=0\n",
      "note_on channel=3 note=48 velocity=0 time=30\n",
      "note_on channel=3 note=48 velocity=127 time=0\n",
      "note_on channel=3 note=48 velocity=0 time=30\n",
      "note_on channel=3 note=48 velocity=127 time=0\n",
      "note_on channel=3 note=48 velocity=0 time=60\n",
      "note_on channel=3 note=47 velocity=127 time=0\n",
      "note_on channel=3 note=47 velocity=0 time=60\n",
      "note_on channel=3 note=48 velocity=127 time=0\n",
      "note_on channel=3 note=48 velocity=0 time=60\n",
      "note_on channel=3 note=50 velocity=127 time=0\n",
      "note_on channel=3 note=50 velocity=0 time=60\n",
      "note_on channel=3 note=48 velocity=127 time=0\n",
      "note_on channel=3 note=48 velocity=0 time=60\n",
      "note_on channel=3 note=47 velocity=127 time=0\n",
      "note_on channel=3 note=47 velocity=0 time=60\n",
      "note_on channel=3 note=43 velocity=127 time=0\n",
      "note_on channel=3 note=43 velocity=0 time=60\n",
      "note_on channel=3 note=42 velocity=127 time=0\n",
      "note_on channel=3 note=42 velocity=0 time=60\n",
      "note_on channel=3 note=40 velocity=127 time=0\n",
      "note_on channel=3 note=40 velocity=0 time=60\n",
      "note_on channel=3 note=40 velocity=127 time=0\n",
      "note_on channel=3 note=40 velocity=0 time=60\n",
      "note_on channel=3 note=40 velocity=127 time=0\n",
      "note_on channel=3 note=40 velocity=0 time=60\n",
      "note_on channel=3 note=40 velocity=127 time=0\n",
      "note_on channel=3 note=40 velocity=0 time=60\n",
      "note_on channel=3 note=40 velocity=127 time=0\n",
      "note_on channel=3 note=40 velocity=0 time=60\n",
      "note_on channel=3 note=40 velocity=127 time=0\n",
      "note_on channel=3 note=40 velocity=0 time=60\n",
      "note_on channel=3 note=40 velocity=127 time=0\n",
      "note_on channel=3 note=40 velocity=0 time=60\n",
      "note_on channel=3 note=40 velocity=127 time=0\n",
      "note_on channel=3 note=40 velocity=0 time=30\n",
      "note_on channel=3 note=40 velocity=127 time=0\n",
      "note_on channel=3 note=40 velocity=127 time=0\n",
      "note_on channel=3 note=40 velocity=0 time=30\n",
      "note_on channel=3 note=40 velocity=0 time=0\n",
      "note_on channel=3 note=40 velocity=127 time=0\n",
      "note_on channel=3 note=40 velocity=0 time=60\n",
      "note_on channel=3 note=42 velocity=127 time=0\n",
      "note_on channel=3 note=42 velocity=0 time=60\n",
      "note_on channel=3 note=43 velocity=127 time=0\n",
      "note_on channel=3 note=43 velocity=0 time=60\n",
      "note_on channel=3 note=45 velocity=127 time=0\n",
      "note_on channel=3 note=45 velocity=0 time=60\n",
      "note_on channel=3 note=47 velocity=127 time=0\n",
      "note_on channel=3 note=47 velocity=0 time=60\n",
      "note_on channel=3 note=48 velocity=127 time=0\n",
      "note_on channel=3 note=48 velocity=0 time=60\n",
      "note_on channel=3 note=50 velocity=127 time=0\n",
      "note_on channel=3 note=50 velocity=0 time=60\n",
      "note_on channel=3 note=52 velocity=127 time=0\n",
      "note_on channel=3 note=52 velocity=0 time=60\n",
      "note_on channel=3 note=54 velocity=127 time=0\n",
      "note_on channel=3 note=54 velocity=0 time=60\n",
      "note_on channel=3 note=55 velocity=127 time=0\n",
      "note_on channel=3 note=55 velocity=0 time=60\n",
      "note_on channel=3 note=48 velocity=127 time=0\n",
      "note_on channel=3 note=48 velocity=0 time=300\n",
      "note_on channel=3 note=48 velocity=127 time=0\n",
      "note_on channel=3 note=48 velocity=0 time=30\n",
      "note_on channel=3 note=48 velocity=127 time=0\n",
      "note_on channel=3 note=48 velocity=0 time=30\n",
      "note_on channel=3 note=48 velocity=127 time=0\n",
      "note_on channel=3 note=48 velocity=0 time=60\n",
      "note_on channel=3 note=47 velocity=127 time=0\n",
      "note_on channel=3 note=47 velocity=0 time=60\n",
      "note_on channel=3 note=48 velocity=127 time=0\n",
      "note_on channel=3 note=48 velocity=0 time=60\n",
      "note_on channel=3 note=50 velocity=127 time=0\n",
      "note_on channel=3 note=50 velocity=0 time=60\n",
      "note_on channel=3 note=48 velocity=127 time=0\n",
      "note_on channel=3 note=48 velocity=0 time=60\n",
      "note_on channel=3 note=47 velocity=127 time=0\n",
      "note_on channel=3 note=47 velocity=0 time=60\n",
      "note_on channel=3 note=43 velocity=127 time=0\n",
      "note_on channel=3 note=43 velocity=0 time=60\n",
      "note_on channel=3 note=42 velocity=127 time=0\n",
      "note_on channel=3 note=42 velocity=0 time=60\n",
      "note_on channel=3 note=40 velocity=127 time=0\n",
      "note_on channel=3 note=40 velocity=0 time=60\n",
      "note_on channel=3 note=40 velocity=127 time=0\n",
      "note_on channel=3 note=40 velocity=0 time=60\n",
      "note_on channel=3 note=40 velocity=127 time=0\n",
      "note_on channel=3 note=40 velocity=0 time=60\n",
      "note_on channel=3 note=40 velocity=127 time=0\n",
      "note_on channel=3 note=40 velocity=0 time=60\n",
      "note_on channel=3 note=40 velocity=127 time=0\n",
      "note_on channel=3 note=40 velocity=0 time=60\n",
      "note_on channel=3 note=40 velocity=127 time=0\n",
      "note_on channel=3 note=40 velocity=0 time=60\n",
      "note_on channel=3 note=40 velocity=127 time=0\n",
      "note_on channel=3 note=40 velocity=0 time=60\n",
      "note_on channel=3 note=40 velocity=127 time=0\n",
      "note_on channel=3 note=40 velocity=0 time=30\n",
      "note_on channel=3 note=40 velocity=127 time=0\n",
      "note_on channel=3 note=40 velocity=0 time=30\n",
      "note_on channel=3 note=40 velocity=127 time=0\n",
      "note_on channel=3 note=40 velocity=0 time=60\n",
      "note_on channel=3 note=42 velocity=127 time=0\n",
      "note_on channel=3 note=42 velocity=0 time=60\n",
      "note_on channel=3 note=43 velocity=127 time=0\n",
      "note_on channel=3 note=43 velocity=0 time=60\n",
      "note_on channel=3 note=45 velocity=127 time=0\n",
      "note_on channel=3 note=45 velocity=0 time=60\n",
      "note_on channel=3 note=47 velocity=127 time=0\n",
      "note_on channel=3 note=47 velocity=0 time=60\n",
      "note_on channel=3 note=48 velocity=127 time=0\n",
      "note_on channel=3 note=48 velocity=0 time=60\n",
      "note_on channel=3 note=50 velocity=127 time=0\n",
      "note_on channel=3 note=50 velocity=0 time=60\n",
      "note_on channel=3 note=52 velocity=127 time=0\n",
      "note_on channel=3 note=52 velocity=0 time=60\n",
      "note_on channel=3 note=54 velocity=127 time=0\n",
      "note_on channel=3 note=54 velocity=0 time=60\n",
      "note_on channel=3 note=55 velocity=127 time=0\n",
      "note_on channel=3 note=55 velocity=0 time=60\n",
      "note_on channel=3 note=55 velocity=127 time=0\n",
      "note_on channel=3 note=48 velocity=127 time=0\n",
      "note_on channel=3 note=60 velocity=127 time=0\n",
      "note_on channel=3 note=64 velocity=127 time=0\n",
      "note_on channel=3 note=55 velocity=0 time=300\n",
      "note_on channel=3 note=48 velocity=0 time=0\n",
      "note_on channel=3 note=60 velocity=0 time=0\n",
      "note_on channel=3 note=64 velocity=0 time=0\n",
      "note_on channel=3 note=48 velocity=127 time=0\n",
      "note_on channel=3 note=48 velocity=0 time=30\n",
      "note_on channel=3 note=48 velocity=127 time=0\n",
      "note_on channel=3 note=48 velocity=0 time=30\n",
      "note_on channel=3 note=48 velocity=127 time=0\n",
      "note_on channel=3 note=48 velocity=0 time=60\n",
      "note_on channel=3 note=47 velocity=127 time=0\n",
      "note_on channel=3 note=47 velocity=0 time=60\n",
      "note_on channel=3 note=48 velocity=127 time=0\n",
      "note_on channel=3 note=48 velocity=0 time=60\n",
      "note_on channel=3 note=50 velocity=127 time=0\n",
      "note_on channel=3 note=50 velocity=0 time=60\n",
      "note_on channel=3 note=48 velocity=127 time=0\n",
      "note_on channel=3 note=48 velocity=0 time=60\n",
      "note_on channel=3 note=47 velocity=127 time=0\n",
      "note_on channel=3 note=47 velocity=0 time=60\n",
      "note_on channel=3 note=43 velocity=127 time=0\n",
      "note_on channel=3 note=43 velocity=0 time=60\n",
      "note_on channel=3 note=42 velocity=127 time=0\n",
      "note_on channel=3 note=42 velocity=0 time=60\n",
      "note_on channel=3 note=47 velocity=127 time=0\n",
      "note_on channel=3 note=59 velocity=127 time=0\n",
      "note_on channel=3 note=52 velocity=127 time=0\n",
      "note_on channel=3 note=40 velocity=127 time=0\n",
      "note_on channel=3 note=47 velocity=0 time=420\n",
      "note_on channel=3 note=59 velocity=0 time=0\n",
      "note_on channel=3 note=52 velocity=0 time=0\n",
      "note_on channel=3 note=40 velocity=0 time=0\n",
      "note_on channel=3 note=48 velocity=127 time=0\n",
      "note_on channel=3 note=55 velocity=127 time=0\n",
      "note_on channel=3 note=48 velocity=0 time=30\n",
      "note_on channel=3 note=55 velocity=0 time=0\n",
      "note_on channel=3 note=48 velocity=127 time=0\n",
      "note_on channel=3 note=55 velocity=127 time=0\n",
      "note_on channel=3 note=48 velocity=0 time=30\n",
      "note_on channel=3 note=55 velocity=0 time=0\n",
      "note_on channel=3 note=55 velocity=127 time=0\n",
      "note_on channel=3 note=48 velocity=127 time=0\n",
      "note_on channel=3 note=55 velocity=0 time=60\n",
      "note_on channel=3 note=48 velocity=0 time=0\n",
      "note_on channel=3 note=54 velocity=127 time=0\n",
      "note_on channel=3 note=47 velocity=127 time=0\n",
      "note_on channel=3 note=54 velocity=0 time=60\n",
      "note_on channel=3 note=47 velocity=0 time=0\n",
      "note_on channel=3 note=55 velocity=127 time=0\n",
      "note_on channel=3 note=48 velocity=127 time=0\n",
      "note_on channel=3 note=55 velocity=0 time=60\n",
      "note_on channel=3 note=48 velocity=0 time=0\n",
      "note_on channel=3 note=57 velocity=127 time=0\n",
      "note_on channel=3 note=50 velocity=127 time=0\n",
      "note_on channel=3 note=57 velocity=0 time=60\n",
      "note_on channel=3 note=50 velocity=0 time=0\n",
      "note_on channel=3 note=55 velocity=127 time=0\n",
      "note_on channel=3 note=48 velocity=127 time=0\n",
      "note_on channel=3 note=55 velocity=0 time=60\n",
      "note_on channel=3 note=48 velocity=0 time=0\n",
      "note_on channel=3 note=47 velocity=127 time=0\n",
      "note_on channel=3 note=54 velocity=127 time=0\n",
      "note_on channel=3 note=47 velocity=0 time=60\n",
      "note_on channel=3 note=54 velocity=0 time=0\n",
      "note_on channel=3 note=52 velocity=127 time=0\n",
      "note_on channel=3 note=43 velocity=127 time=0\n",
      "note_on channel=3 note=52 velocity=0 time=60\n",
      "note_on channel=3 note=43 velocity=0 time=0\n",
      "note_on channel=3 note=54 velocity=127 time=0\n",
      "note_on channel=3 note=42 velocity=127 time=0\n",
      "note_on channel=3 note=54 velocity=0 time=60\n",
      "note_on channel=3 note=42 velocity=0 time=0\n",
      "note_on channel=3 note=40 velocity=127 time=0\n",
      "note_on channel=3 note=40 velocity=0 time=60\n",
      "note_on channel=3 note=41 velocity=127 time=0\n",
      "note_on channel=3 note=41 velocity=0 time=60\n",
      "note_on channel=3 note=47 velocity=127 time=0\n",
      "note_on channel=3 note=47 velocity=0 time=60\n",
      "note_on channel=3 note=40 velocity=127 time=0\n",
      "note_on channel=3 note=40 velocity=0 time=60\n",
      "note_on channel=3 note=41 velocity=127 time=0\n",
      "note_on channel=3 note=41 velocity=0 time=60\n",
      "note_on channel=3 note=48 velocity=127 time=0\n",
      "note_on channel=3 note=48 velocity=0 time=60\n",
      "note_on channel=3 note=40 velocity=127 time=0\n",
      "note_on channel=3 note=40 velocity=0 time=60\n",
      "note_on channel=3 note=41 velocity=127 time=0\n",
      "note_on channel=3 note=41 velocity=0 time=60\n",
      "note_on channel=3 note=49 velocity=127 time=0\n",
      "note_on channel=3 note=49 velocity=0 time=60\n",
      "note_on channel=3 note=40 velocity=127 time=0\n",
      "note_on channel=3 note=40 velocity=0 time=60\n",
      "note_on channel=3 note=41 velocity=127 time=0\n",
      "note_on channel=3 note=41 velocity=0 time=60\n",
      "note_on channel=3 note=48 velocity=127 time=0\n",
      "note_on channel=3 note=48 velocity=0 time=60\n",
      "note_on channel=3 note=40 velocity=127 time=0\n",
      "note_on channel=3 note=40 velocity=0 time=60\n",
      "note_on channel=3 note=41 velocity=127 time=0\n",
      "note_on channel=3 note=41 velocity=0 time=60\n",
      "note_on channel=3 note=47 velocity=127 time=0\n",
      "note_on channel=3 note=47 velocity=0 time=60\n",
      "note_on channel=3 note=47 velocity=127 time=0\n",
      "note_on channel=3 note=47 velocity=0 time=60\n",
      "note_on channel=3 note=40 velocity=127 time=0\n",
      "note_on channel=3 note=40 velocity=0 time=60\n",
      "note_on channel=3 note=41 velocity=127 time=0\n",
      "note_on channel=3 note=41 velocity=0 time=60\n",
      "note_on channel=3 note=47 velocity=127 time=0\n",
      "note_on channel=3 note=47 velocity=0 time=60\n",
      "note_on channel=3 note=40 velocity=127 time=0\n",
      "note_on channel=3 note=40 velocity=0 time=60\n",
      "note_on channel=3 note=41 velocity=127 time=0\n",
      "note_on channel=3 note=41 velocity=0 time=60\n",
      "note_on channel=3 note=48 velocity=127 time=0\n",
      "note_on channel=3 note=48 velocity=0 time=60\n",
      "note_on channel=3 note=41 velocity=127 time=0\n",
      "note_on channel=3 note=41 velocity=0 time=60\n",
      "note_on channel=3 note=40 velocity=127 time=0\n",
      "note_on channel=3 note=40 velocity=0 time=60\n",
      "note_on channel=3 note=50 velocity=127 time=0\n",
      "note_on channel=3 note=43 velocity=127 time=0\n",
      "note_on channel=3 note=50 velocity=0 time=60\n",
      "note_on channel=3 note=43 velocity=0 time=0\n",
      "note_on channel=3 note=49 velocity=127 time=0\n",
      "note_on channel=3 note=42 velocity=127 time=0\n",
      "note_on channel=3 note=49 velocity=0 time=60\n",
      "note_on channel=3 note=42 velocity=0 time=0\n",
      "note_on channel=3 note=40 velocity=127 time=0\n",
      "note_on channel=3 note=40 velocity=0 time=60\n",
      "note_on channel=3 note=50 velocity=127 time=0\n",
      "note_on channel=3 note=43 velocity=127 time=0\n",
      "note_on channel=3 note=50 velocity=0 time=60\n",
      "note_on channel=3 note=43 velocity=0 time=0\n",
      "note_on channel=3 note=49 velocity=127 time=0\n",
      "note_on channel=3 note=42 velocity=127 time=0\n",
      "note_on channel=3 note=49 velocity=0 time=60\n",
      "note_on channel=3 note=42 velocity=0 time=0\n",
      "note_on channel=3 note=40 velocity=127 time=0\n",
      "note_on channel=3 note=40 velocity=0 time=60\n",
      "note_on channel=3 note=50 velocity=127 time=0\n",
      "note_on channel=3 note=43 velocity=127 time=0\n",
      "note_on channel=3 note=50 velocity=0 time=60\n",
      "note_on channel=3 note=43 velocity=0 time=0\n",
      "note_on channel=3 note=49 velocity=127 time=0\n",
      "note_on channel=3 note=42 velocity=127 time=0\n",
      "note_on channel=3 note=49 velocity=0 time=60\n",
      "note_on channel=3 note=42 velocity=0 time=0\n",
      "note_on channel=3 note=40 velocity=127 time=0\n",
      "note_on channel=3 note=40 velocity=0 time=60\n",
      "note_on channel=3 note=41 velocity=127 time=0\n",
      "note_on channel=3 note=41 velocity=0 time=60\n",
      "note_on channel=3 note=47 velocity=127 time=0\n",
      "note_on channel=3 note=47 velocity=0 time=60\n",
      "note_on channel=3 note=40 velocity=127 time=0\n",
      "note_on channel=3 note=40 velocity=0 time=60\n",
      "note_on channel=3 note=41 velocity=127 time=0\n",
      "note_on channel=3 note=41 velocity=0 time=60\n",
      "note_on channel=3 note=48 velocity=127 time=0\n",
      "note_on channel=3 note=48 velocity=0 time=60\n",
      "note_on channel=3 note=40 velocity=127 time=0\n",
      "note_on channel=3 note=40 velocity=0 time=60\n",
      "note_on channel=3 note=41 velocity=127 time=0\n",
      "note_on channel=3 note=41 velocity=0 time=60\n",
      "note_on channel=3 note=49 velocity=127 time=0\n",
      "note_on channel=3 note=49 velocity=0 time=60\n",
      "note_on channel=3 note=40 velocity=127 time=0\n",
      "note_on channel=3 note=40 velocity=0 time=60\n",
      "note_on channel=3 note=41 velocity=127 time=0\n",
      "note_on channel=3 note=41 velocity=0 time=60\n",
      "note_on channel=3 note=48 velocity=127 time=0\n",
      "note_on channel=3 note=48 velocity=0 time=60\n",
      "note_on channel=3 note=40 velocity=127 time=0\n",
      "note_on channel=3 note=40 velocity=0 time=60\n",
      "note_on channel=3 note=41 velocity=127 time=0\n",
      "note_on channel=3 note=41 velocity=0 time=60\n",
      "note_on channel=3 note=47 velocity=127 time=0\n",
      "note_on channel=3 note=47 velocity=0 time=60\n",
      "note_on channel=3 note=47 velocity=127 time=0\n",
      "note_on channel=3 note=47 velocity=0 time=60\n",
      "note_on channel=3 note=40 velocity=127 time=0\n",
      "note_on channel=3 note=40 velocity=0 time=60\n",
      "note_on channel=3 note=41 velocity=127 time=0\n",
      "note_on channel=3 note=41 velocity=0 time=60\n",
      "note_on channel=3 note=47 velocity=127 time=0\n",
      "note_on channel=3 note=47 velocity=0 time=60\n",
      "note_on channel=3 note=40 velocity=127 time=0\n",
      "note_on channel=3 note=40 velocity=0 time=60\n",
      "note_on channel=3 note=41 velocity=127 time=0\n",
      "note_on channel=3 note=41 velocity=0 time=60\n",
      "note_on channel=3 note=48 velocity=127 time=0\n",
      "note_on channel=3 note=48 velocity=0 time=60\n",
      "note_on channel=3 note=41 velocity=127 time=0\n",
      "note_on channel=3 note=41 velocity=0 time=60\n",
      "note_on channel=3 note=40 velocity=127 time=0\n",
      "note_on channel=3 note=40 velocity=0 time=60\n",
      "note_on channel=3 note=43 velocity=127 time=0\n",
      "note_on channel=3 note=50 velocity=127 time=0\n",
      "note_on channel=3 note=43 velocity=0 time=60\n",
      "note_on channel=3 note=50 velocity=0 time=0\n",
      "note_on channel=3 note=49 velocity=127 time=0\n",
      "note_on channel=3 note=42 velocity=127 time=0\n",
      "note_on channel=3 note=49 velocity=0 time=60\n",
      "note_on channel=3 note=42 velocity=0 time=0\n",
      "note_on channel=3 note=40 velocity=127 time=0\n",
      "note_on channel=3 note=40 velocity=0 time=60\n",
      "note_on channel=3 note=50 velocity=127 time=0\n",
      "note_on channel=3 note=43 velocity=127 time=0\n",
      "note_on channel=3 note=50 velocity=0 time=60\n",
      "note_on channel=3 note=43 velocity=0 time=0\n",
      "note_on channel=3 note=49 velocity=127 time=0\n",
      "note_on channel=3 note=42 velocity=127 time=0\n",
      "note_on channel=3 note=49 velocity=0 time=60\n",
      "note_on channel=3 note=42 velocity=0 time=0\n",
      "note_on channel=3 note=40 velocity=127 time=0\n",
      "note_on channel=3 note=40 velocity=0 time=60\n",
      "note_on channel=3 note=50 velocity=127 time=0\n",
      "note_on channel=3 note=43 velocity=127 time=0\n",
      "note_on channel=3 note=50 velocity=0 time=60\n",
      "note_on channel=3 note=43 velocity=0 time=0\n",
      "note_on channel=3 note=42 velocity=127 time=0\n",
      "note_on channel=3 note=49 velocity=127 time=0\n",
      "note_on channel=3 note=42 velocity=0 time=60\n",
      "note_on channel=3 note=49 velocity=0 time=0\n",
      "note_on channel=3 note=43 velocity=127 time=0\n",
      "note_on channel=3 note=50 velocity=127 time=0\n",
      "note_on channel=3 note=43 velocity=0 time=60\n",
      "note_on channel=3 note=50 velocity=0 time=0\n",
      "note_on channel=3 note=49 velocity=127 time=0\n",
      "note_on channel=3 note=42 velocity=127 time=0\n",
      "note_on channel=3 note=49 velocity=0 time=60\n",
      "note_on channel=3 note=42 velocity=0 time=0\n",
      "note_on channel=3 note=40 velocity=127 time=0\n",
      "note_on channel=3 note=40 velocity=0 time=60\n",
      "note_on channel=3 note=50 velocity=127 time=0\n",
      "note_on channel=3 note=43 velocity=127 time=0\n",
      "note_on channel=3 note=50 velocity=0 time=60\n",
      "note_on channel=3 note=43 velocity=0 time=0\n",
      "note_on channel=3 note=49 velocity=127 time=0\n",
      "note_on channel=3 note=42 velocity=127 time=0\n",
      "note_on channel=3 note=49 velocity=0 time=60\n",
      "note_on channel=3 note=42 velocity=0 time=0\n",
      "note_on channel=3 note=40 velocity=127 time=0\n",
      "note_on channel=3 note=40 velocity=0 time=60\n",
      "note_on channel=3 note=50 velocity=127 time=0\n",
      "note_on channel=3 note=43 velocity=127 time=0\n",
      "note_on channel=3 note=50 velocity=0 time=60\n",
      "note_on channel=3 note=43 velocity=0 time=0\n",
      "note_on channel=3 note=49 velocity=127 time=0\n",
      "note_on channel=3 note=42 velocity=127 time=0\n",
      "note_on channel=3 note=49 velocity=0 time=60\n",
      "note_on channel=3 note=42 velocity=0 time=0\n",
      "note_on channel=3 note=40 velocity=127 time=0\n",
      "note_on channel=3 note=40 velocity=0 time=59\n",
      "note_on channel=3 note=40 velocity=127 time=1\n",
      "note_on channel=3 note=40 velocity=0 time=59\n",
      "note_on channel=3 note=40 velocity=127 time=1\n",
      "note_on channel=3 note=40 velocity=0 time=59\n",
      "note_on channel=3 note=40 velocity=127 time=1\n",
      "note_on channel=3 note=40 velocity=0 time=59\n",
      "note_on channel=3 note=40 velocity=127 time=1\n",
      "note_on channel=3 note=40 velocity=0 time=59\n",
      "note_on channel=3 note=40 velocity=127 time=1\n",
      "note_on channel=3 note=40 velocity=0 time=59\n",
      "note_on channel=3 note=40 velocity=127 time=1\n",
      "note_on channel=3 note=40 velocity=0 time=59\n",
      "note_on channel=3 note=40 velocity=127 time=1\n",
      "note_on channel=3 note=40 velocity=0 time=59\n",
      "note_on channel=3 note=40 velocity=127 time=1\n",
      "note_on channel=3 note=40 velocity=0 time=59\n",
      "note_on channel=3 note=43 velocity=127 time=1\n",
      "note_on channel=3 note=50 velocity=127 time=0\n",
      "note_on channel=3 note=43 velocity=0 time=59\n",
      "note_on channel=3 note=50 velocity=0 time=0\n",
      "note_on channel=3 note=52 velocity=127 time=1\n",
      "note_on channel=3 note=45 velocity=127 time=0\n",
      "note_on channel=3 note=52 velocity=0 time=59\n",
      "note_on channel=3 note=45 velocity=0 time=0\n",
      "note_on channel=3 note=40 velocity=127 time=1\n",
      "note_on channel=3 note=40 velocity=0 time=59\n",
      "note_on channel=3 note=46 velocity=127 time=1\n",
      "note_on channel=3 note=53 velocity=127 time=0\n",
      "note_on channel=3 note=46 velocity=0 time=59\n",
      "note_on channel=3 note=53 velocity=0 time=0\n",
      "note_on channel=3 note=45 velocity=127 time=1\n",
      "note_on channel=3 note=52 velocity=127 time=0\n",
      "note_on channel=3 note=45 velocity=0 time=59\n",
      "note_on channel=3 note=52 velocity=0 time=0\n",
      "note_on channel=3 note=50 velocity=127 time=1\n",
      "note_on channel=3 note=43 velocity=127 time=0\n",
      "note_on channel=3 note=50 velocity=0 time=59\n",
      "note_on channel=3 note=43 velocity=0 time=0\n",
      "note_on channel=3 note=40 velocity=127 time=61\n",
      "note_on channel=3 note=40 velocity=0 time=59\n",
      "note_on channel=3 note=40 velocity=127 time=1\n",
      "note_on channel=3 note=40 velocity=0 time=59\n",
      "note_on channel=3 note=40 velocity=127 time=1\n",
      "note_on channel=3 note=40 velocity=0 time=59\n",
      "note_on channel=3 note=40 velocity=127 time=1\n",
      "note_on channel=3 note=40 velocity=0 time=59\n",
      "note_on channel=3 note=40 velocity=127 time=1\n",
      "note_on channel=3 note=40 velocity=0 time=59\n",
      "note_on channel=3 note=40 velocity=127 time=1\n",
      "note_on channel=3 note=40 velocity=0 time=59\n",
      "note_on channel=3 note=40 velocity=127 time=1\n",
      "note_on channel=3 note=40 velocity=0 time=59\n",
      "note_on channel=3 note=40 velocity=127 time=1\n",
      "note_on channel=3 note=40 velocity=0 time=59\n",
      "note_on channel=3 note=40 velocity=127 time=1\n",
      "note_on channel=3 note=40 velocity=0 time=59\n",
      "note_on channel=3 note=43 velocity=127 time=1\n",
      "note_on channel=3 note=50 velocity=127 time=0\n",
      "note_on channel=3 note=43 velocity=0 time=59\n",
      "note_on channel=3 note=50 velocity=0 time=0\n",
      "note_on channel=3 note=45 velocity=127 time=1\n",
      "note_on channel=3 note=52 velocity=127 time=0\n",
      "note_on channel=3 note=45 velocity=0 time=59\n",
      "note_on channel=3 note=52 velocity=0 time=0\n",
      "note_on channel=3 note=50 velocity=127 time=1\n",
      "note_on channel=3 note=43 velocity=127 time=0\n",
      "note_on channel=3 note=50 velocity=0 time=59\n",
      "note_on channel=3 note=43 velocity=0 time=0\n",
      "note_on channel=3 note=45 velocity=127 time=1\n",
      "note_on channel=3 note=52 velocity=127 time=0\n",
      "note_on channel=3 note=45 velocity=0 time=59\n",
      "note_on channel=3 note=52 velocity=0 time=0\n",
      "note_on channel=3 note=40 velocity=127 time=1\n",
      "note_on channel=3 note=40 velocity=0 time=59\n",
      "note_on channel=3 note=40 velocity=127 time=1\n",
      "note_on channel=3 note=40 velocity=0 time=59\n",
      "note_on channel=3 note=40 velocity=127 time=1\n",
      "note_on channel=3 note=40 velocity=0 time=59\n",
      "note_on channel=3 note=40 velocity=127 time=1\n",
      "note_on channel=3 note=40 velocity=0 time=59\n",
      "note_on channel=3 note=40 velocity=127 time=1\n",
      "note_on channel=3 note=40 velocity=0 time=59\n",
      "note_on channel=3 note=40 velocity=127 time=1\n",
      "note_on channel=3 note=40 velocity=0 time=59\n",
      "note_on channel=3 note=40 velocity=127 time=1\n",
      "note_on channel=3 note=40 velocity=0 time=59\n",
      "note_on channel=3 note=40 velocity=127 time=1\n",
      "note_on channel=3 note=40 velocity=0 time=59\n",
      "note_on channel=3 note=40 velocity=127 time=1\n",
      "note_on channel=3 note=40 velocity=0 time=59\n",
      "note_on channel=3 note=50 velocity=127 time=1\n",
      "note_on channel=3 note=43 velocity=127 time=0\n",
      "note_on channel=3 note=50 velocity=0 time=59\n",
      "note_on channel=3 note=43 velocity=0 time=0\n",
      "note_on channel=3 note=52 velocity=127 time=1\n",
      "note_on channel=3 note=45 velocity=127 time=0\n",
      "note_on channel=3 note=52 velocity=0 time=59\n",
      "note_on channel=3 note=45 velocity=0 time=0\n",
      "note_on channel=3 note=40 velocity=127 time=1\n",
      "note_on channel=3 note=40 velocity=0 time=59\n",
      "note_on channel=3 note=46 velocity=127 time=1\n",
      "note_on channel=3 note=53 velocity=127 time=0\n",
      "note_on channel=3 note=46 velocity=0 time=59\n",
      "note_on channel=3 note=53 velocity=0 time=0\n",
      "note_on channel=3 note=52 velocity=127 time=1\n",
      "note_on channel=3 note=45 velocity=127 time=0\n",
      "note_on channel=3 note=52 velocity=0 time=59\n",
      "note_on channel=3 note=45 velocity=0 time=0\n",
      "note_on channel=3 note=50 velocity=127 time=1\n",
      "note_on channel=3 note=43 velocity=127 time=0\n",
      "note_on channel=3 note=50 velocity=0 time=59\n",
      "note_on channel=3 note=43 velocity=0 time=0\n",
      "note_on channel=3 note=40 velocity=127 time=61\n",
      "note_on channel=3 note=40 velocity=0 time=59\n",
      "note_on channel=3 note=40 velocity=127 time=1\n",
      "note_on channel=3 note=40 velocity=0 time=59\n",
      "note_on channel=3 note=40 velocity=127 time=1\n",
      "note_on channel=3 note=40 velocity=0 time=59\n",
      "note_on channel=3 note=40 velocity=127 time=1\n",
      "note_on channel=3 note=40 velocity=0 time=59\n",
      "note_on channel=3 note=40 velocity=127 time=1\n",
      "note_on channel=3 note=40 velocity=0 time=59\n",
      "note_on channel=3 note=40 velocity=127 time=1\n",
      "note_on channel=3 note=40 velocity=0 time=59\n",
      "note_on channel=3 note=40 velocity=127 time=1\n",
      "note_on channel=3 note=40 velocity=0 time=59\n",
      "note_on channel=3 note=40 velocity=127 time=1\n",
      "note_on channel=3 note=40 velocity=0 time=59\n",
      "note_on channel=3 note=40 velocity=127 time=1\n",
      "note_on channel=3 note=40 velocity=0 time=59\n",
      "note_on channel=3 note=43 velocity=127 time=1\n",
      "note_on channel=3 note=50 velocity=127 time=0\n",
      "note_on channel=3 note=43 velocity=0 time=59\n",
      "note_on channel=3 note=50 velocity=0 time=0\n",
      "note_on channel=3 note=45 velocity=127 time=1\n",
      "note_on channel=3 note=52 velocity=127 time=0\n",
      "note_on channel=3 note=45 velocity=0 time=59\n",
      "note_on channel=3 note=52 velocity=0 time=0\n",
      "note_on channel=3 note=50 velocity=127 time=1\n",
      "note_on channel=3 note=43 velocity=127 time=0\n",
      "note_on channel=3 note=50 velocity=0 time=59\n",
      "note_on channel=3 note=43 velocity=0 time=0\n",
      "note_on channel=3 note=45 velocity=127 time=1\n",
      "note_on channel=3 note=52 velocity=127 time=0\n",
      "note_on channel=3 note=45 velocity=0 time=59\n",
      "note_on channel=3 note=52 velocity=0 time=0\n",
      "note_on channel=3 note=40 velocity=127 time=1\n",
      "note_on channel=3 note=40 velocity=0 time=59\n",
      "note_on channel=3 note=40 velocity=127 time=1\n",
      "note_on channel=3 note=40 velocity=0 time=59\n",
      "note_on channel=3 note=40 velocity=127 time=1\n",
      "note_on channel=3 note=40 velocity=0 time=59\n",
      "note_on channel=3 note=40 velocity=127 time=1\n",
      "note_on channel=3 note=40 velocity=0 time=59\n",
      "note_on channel=3 note=40 velocity=127 time=1\n",
      "note_on channel=3 note=40 velocity=0 time=59\n",
      "note_on channel=3 note=40 velocity=127 time=1\n",
      "note_on channel=3 note=40 velocity=0 time=59\n",
      "note_on channel=3 note=40 velocity=127 time=1\n",
      "note_on channel=3 note=40 velocity=0 time=59\n",
      "note_on channel=3 note=40 velocity=127 time=1\n",
      "note_on channel=3 note=40 velocity=0 time=59\n",
      "note_on channel=3 note=40 velocity=127 time=1\n",
      "note_on channel=3 note=40 velocity=0 time=59\n",
      "note_on channel=3 note=50 velocity=127 time=1\n",
      "note_on channel=3 note=43 velocity=127 time=0\n",
      "note_on channel=3 note=50 velocity=0 time=59\n",
      "note_on channel=3 note=43 velocity=0 time=0\n",
      "note_on channel=3 note=52 velocity=127 time=1\n",
      "note_on channel=3 note=45 velocity=127 time=0\n",
      "note_on channel=3 note=52 velocity=0 time=59\n",
      "note_on channel=3 note=45 velocity=0 time=0\n",
      "note_on channel=3 note=40 velocity=127 time=1\n",
      "note_on channel=3 note=40 velocity=0 time=59\n",
      "note_on channel=3 note=46 velocity=127 time=1\n",
      "note_on channel=3 note=53 velocity=127 time=0\n",
      "note_on channel=3 note=46 velocity=0 time=59\n",
      "note_on channel=3 note=53 velocity=0 time=0\n",
      "note_on channel=3 note=52 velocity=127 time=1\n",
      "note_on channel=3 note=45 velocity=127 time=0\n",
      "note_on channel=3 note=52 velocity=0 time=59\n",
      "note_on channel=3 note=45 velocity=0 time=0\n",
      "note_on channel=3 note=50 velocity=127 time=1\n",
      "note_on channel=3 note=43 velocity=127 time=0\n",
      "note_on channel=3 note=50 velocity=0 time=59\n",
      "note_on channel=3 note=43 velocity=0 time=0\n",
      "note_on channel=3 note=40 velocity=127 time=61\n",
      "note_on channel=3 note=40 velocity=0 time=59\n",
      "note_on channel=3 note=40 velocity=127 time=1\n",
      "note_on channel=3 note=40 velocity=0 time=59\n",
      "note_on channel=3 note=40 velocity=127 time=1\n",
      "note_on channel=3 note=40 velocity=0 time=59\n",
      "note_on channel=3 note=40 velocity=127 time=1\n",
      "note_on channel=3 note=40 velocity=0 time=59\n",
      "note_on channel=3 note=40 velocity=127 time=1\n",
      "note_on channel=3 note=40 velocity=0 time=59\n",
      "note_on channel=3 note=40 velocity=127 time=1\n",
      "note_on channel=3 note=40 velocity=0 time=59\n",
      "note_on channel=3 note=40 velocity=127 time=1\n",
      "note_on channel=3 note=40 velocity=0 time=59\n",
      "note_on channel=3 note=40 velocity=127 time=1\n",
      "note_on channel=3 note=40 velocity=0 time=59\n",
      "note_on channel=3 note=40 velocity=127 time=1\n",
      "note_on channel=3 note=40 velocity=0 time=59\n",
      "note_on channel=3 note=43 velocity=127 time=1\n",
      "note_on channel=3 note=50 velocity=127 time=0\n",
      "note_on channel=3 note=43 velocity=0 time=59\n",
      "note_on channel=3 note=50 velocity=0 time=0\n",
      "note_on channel=3 note=52 velocity=127 time=1\n",
      "note_on channel=3 note=45 velocity=127 time=0\n",
      "note_on channel=3 note=52 velocity=0 time=59\n",
      "note_on channel=3 note=45 velocity=0 time=0\n",
      "note_on channel=3 note=43 velocity=127 time=1\n",
      "note_on channel=3 note=50 velocity=127 time=0\n",
      "note_on channel=3 note=43 velocity=0 time=59\n",
      "note_on channel=3 note=50 velocity=0 time=0\n",
      "note_on channel=3 note=45 velocity=127 time=1\n",
      "note_on channel=3 note=52 velocity=127 time=0\n",
      "note_on channel=3 note=45 velocity=0 time=59\n",
      "note_on channel=3 note=52 velocity=0 time=0\n",
      "note_on channel=3 note=40 velocity=127 time=1\n",
      "note_on channel=3 note=40 velocity=0 time=59\n",
      "note_on channel=3 note=40 velocity=127 time=1\n",
      "note_on channel=3 note=40 velocity=0 time=59\n",
      "note_on channel=3 note=40 velocity=127 time=1\n",
      "note_on channel=3 note=40 velocity=0 time=59\n",
      "note_on channel=3 note=40 velocity=127 time=1\n",
      "note_on channel=3 note=40 velocity=0 time=59\n",
      "note_on channel=3 note=40 velocity=127 time=1\n",
      "note_on channel=3 note=40 velocity=0 time=59\n",
      "note_on channel=3 note=40 velocity=127 time=1\n",
      "note_on channel=3 note=40 velocity=0 time=59\n",
      "note_on channel=3 note=40 velocity=127 time=1\n",
      "note_on channel=3 note=40 velocity=0 time=59\n",
      "note_on channel=3 note=40 velocity=127 time=1\n",
      "note_on channel=3 note=40 velocity=0 time=59\n",
      "note_on channel=3 note=40 velocity=127 time=1\n",
      "note_on channel=3 note=40 velocity=0 time=59\n",
      "note_on channel=3 note=50 velocity=127 time=1\n",
      "note_on channel=3 note=43 velocity=127 time=0\n",
      "note_on channel=3 note=50 velocity=0 time=59\n",
      "note_on channel=3 note=43 velocity=0 time=0\n",
      "note_on channel=3 note=45 velocity=127 time=1\n",
      "note_on channel=3 note=52 velocity=127 time=0\n",
      "note_on channel=3 note=45 velocity=0 time=59\n",
      "note_on channel=3 note=52 velocity=0 time=0\n",
      "note_on channel=3 note=40 velocity=127 time=1\n",
      "note_on channel=3 note=40 velocity=0 time=59\n",
      "note_on channel=3 note=46 velocity=127 time=1\n",
      "note_on channel=3 note=53 velocity=127 time=0\n",
      "note_on channel=3 note=46 velocity=0 time=59\n",
      "note_on channel=3 note=53 velocity=0 time=0\n",
      "note_on channel=3 note=52 velocity=127 time=1\n",
      "note_on channel=3 note=45 velocity=127 time=0\n",
      "note_on channel=3 note=52 velocity=0 time=59\n",
      "note_on channel=3 note=45 velocity=0 time=0\n",
      "note_on channel=3 note=43 velocity=127 time=1\n",
      "note_on channel=3 note=50 velocity=127 time=0\n",
      "note_on channel=3 note=43 velocity=0 time=59\n",
      "note_on channel=3 note=50 velocity=0 time=0\n",
      "note_on channel=3 note=40 velocity=127 time=61\n",
      "note_on channel=3 note=40 velocity=0 time=59\n",
      "note_on channel=3 note=40 velocity=127 time=1\n",
      "note_on channel=3 note=40 velocity=0 time=59\n",
      "note_on channel=3 note=40 velocity=127 time=1\n",
      "note_on channel=3 note=40 velocity=0 time=59\n",
      "note_on channel=3 note=40 velocity=127 time=1\n",
      "note_on channel=3 note=40 velocity=0 time=59\n",
      "note_on channel=3 note=40 velocity=127 time=1\n",
      "note_on channel=3 note=40 velocity=0 time=59\n",
      "note_on channel=3 note=40 velocity=127 time=1\n",
      "note_on channel=3 note=40 velocity=0 time=59\n",
      "note_on channel=3 note=40 velocity=127 time=1\n",
      "note_on channel=3 note=40 velocity=0 time=59\n",
      "note_on channel=3 note=40 velocity=127 time=1\n",
      "note_on channel=3 note=40 velocity=0 time=59\n",
      "note_on channel=3 note=40 velocity=127 time=1\n",
      "note_on channel=3 note=40 velocity=0 time=59\n",
      "note_on channel=3 note=50 velocity=127 time=1\n",
      "note_on channel=3 note=43 velocity=127 time=0\n",
      "note_on channel=3 note=50 velocity=0 time=59\n",
      "note_on channel=3 note=43 velocity=0 time=0\n",
      "note_on channel=3 note=52 velocity=127 time=1\n",
      "note_on channel=3 note=45 velocity=127 time=0\n",
      "note_on channel=3 note=52 velocity=0 time=59\n",
      "note_on channel=3 note=45 velocity=0 time=0\n",
      "note_on channel=3 note=43 velocity=127 time=1\n",
      "note_on channel=3 note=50 velocity=127 time=0\n",
      "note_on channel=3 note=43 velocity=0 time=59\n",
      "note_on channel=3 note=50 velocity=0 time=0\n",
      "note_on channel=3 note=45 velocity=127 time=1\n",
      "note_on channel=3 note=52 velocity=127 time=0\n",
      "note_on channel=3 note=45 velocity=0 time=59\n",
      "note_on channel=3 note=52 velocity=0 time=0\n",
      "note_on channel=3 note=42 velocity=127 time=1\n",
      "note_on channel=3 note=42 velocity=0 time=59\n",
      "note_on channel=3 note=42 velocity=127 time=1\n",
      "note_on channel=3 note=42 velocity=0 time=59\n",
      "note_on channel=3 note=42 velocity=127 time=1\n",
      "note_on channel=3 note=42 velocity=0 time=59\n",
      "note_on channel=3 note=42 velocity=127 time=1\n",
      "note_on channel=3 note=42 velocity=0 time=59\n",
      "note_on channel=3 note=42 velocity=127 time=1\n",
      "note_on channel=3 note=42 velocity=0 time=59\n",
      "note_on channel=3 note=42 velocity=127 time=1\n",
      "note_on channel=3 note=42 velocity=0 time=59\n",
      "note_on channel=3 note=42 velocity=127 time=1\n",
      "note_on channel=3 note=42 velocity=0 time=59\n",
      "note_on channel=3 note=42 velocity=127 time=1\n",
      "note_on channel=3 note=42 velocity=0 time=59\n",
      "note_on channel=3 note=42 velocity=127 time=1\n",
      "note_on channel=3 note=42 velocity=0 time=59\n",
      "note_on channel=3 note=45 velocity=127 time=1\n",
      "note_on channel=3 note=54 velocity=127 time=0\n",
      "note_on channel=3 note=45 velocity=0 time=59\n",
      "note_on channel=3 note=54 velocity=0 time=0\n",
      "note_on channel=3 note=47 velocity=127 time=1\n",
      "note_on channel=3 note=54 velocity=127 time=0\n",
      "note_on channel=3 note=47 velocity=0 time=59\n",
      "note_on channel=3 note=54 velocity=0 time=0\n",
      "note_on channel=3 note=55 velocity=127 time=61\n",
      "note_on channel=3 note=48 velocity=127 time=0\n",
      "note_on channel=3 note=55 velocity=0 time=59\n",
      "note_on channel=3 note=48 velocity=0 time=0\n",
      "note_on channel=3 note=54 velocity=127 time=1\n",
      "note_on channel=3 note=47 velocity=127 time=0\n",
      "note_on channel=3 note=54 velocity=0 time=59\n",
      "note_on channel=3 note=47 velocity=0 time=0\n",
      "note_on channel=3 note=45 velocity=127 time=1\n",
      "note_on channel=3 note=54 velocity=127 time=0\n",
      "note_on channel=3 note=45 velocity=0 time=59\n",
      "note_on channel=3 note=54 velocity=0 time=0\n",
      "note_on channel=3 note=47 velocity=127 time=1\n",
      "note_on channel=3 note=54 velocity=127 time=0\n",
      "note_on channel=3 note=47 velocity=0 time=59\n",
      "note_on channel=3 note=54 velocity=0 time=0\n",
      "note_on channel=3 note=42 velocity=127 time=1\n",
      "note_on channel=3 note=42 velocity=0 time=59\n",
      "note_on channel=3 note=42 velocity=127 time=1\n",
      "note_on channel=3 note=42 velocity=0 time=59\n",
      "note_on channel=3 note=42 velocity=127 time=1\n",
      "note_on channel=3 note=42 velocity=0 time=59\n",
      "note_on channel=3 note=42 velocity=127 time=1\n",
      "note_on channel=3 note=42 velocity=0 time=59\n",
      "note_on channel=3 note=42 velocity=127 time=1\n",
      "note_on channel=3 note=42 velocity=0 time=59\n",
      "note_on channel=3 note=42 velocity=127 time=1\n",
      "note_on channel=3 note=42 velocity=0 time=59\n",
      "note_on channel=3 note=42 velocity=127 time=1\n",
      "note_on channel=3 note=42 velocity=0 time=59\n",
      "note_on channel=3 note=42 velocity=127 time=1\n",
      "note_on channel=3 note=42 velocity=0 time=59\n",
      "note_on channel=3 note=42 velocity=127 time=1\n",
      "note_on channel=3 note=42 velocity=0 time=59\n",
      "note_on channel=3 note=54 velocity=127 time=1\n",
      "note_on channel=3 note=45 velocity=127 time=0\n",
      "note_on channel=3 note=45 velocity=0 time=59\n",
      "note_on channel=3 note=47 velocity=127 time=1\n",
      "note_on channel=3 note=54 velocity=0 time=29\n",
      "note_on channel=3 note=47 velocity=0 time=30\n",
      "note_on channel=3 note=45 velocity=127 time=1\n",
      "note_on channel=3 note=54 velocity=127 time=0\n",
      "note_on channel=3 note=45 velocity=0 time=59\n",
      "note_on channel=3 note=47 velocity=127 time=1\n",
      "note_on channel=3 note=54 velocity=0 time=29\n",
      "note_on channel=3 note=47 velocity=0 time=30\n",
      "note_on channel=3 note=42 velocity=127 time=1\n",
      "note_on channel=3 note=42 velocity=0 time=59\n",
      "note_on channel=3 note=42 velocity=127 time=1\n",
      "note_on channel=3 note=42 velocity=0 time=59\n",
      "note_on channel=3 note=42 velocity=127 time=1\n",
      "note_on channel=3 note=42 velocity=0 time=59\n",
      "note_on channel=3 note=42 velocity=127 time=1\n",
      "note_on channel=3 note=42 velocity=0 time=59\n",
      "note_on channel=3 note=42 velocity=127 time=1\n",
      "note_on channel=3 note=42 velocity=0 time=59\n",
      "note_on channel=3 note=42 velocity=127 time=1\n",
      "note_on channel=3 note=42 velocity=0 time=59\n",
      "note_on channel=3 note=42 velocity=127 time=1\n",
      "note_on channel=3 note=42 velocity=0 time=59\n",
      "note_on channel=3 note=42 velocity=127 time=1\n",
      "note_on channel=3 note=42 velocity=0 time=59\n",
      "note_on channel=3 note=42 velocity=127 time=1\n",
      "note_on channel=3 note=42 velocity=0 time=59\n",
      "note_on channel=3 note=45 velocity=127 time=1\n",
      "note_on channel=3 note=54 velocity=127 time=0\n",
      "note_on channel=3 note=45 velocity=0 time=59\n",
      "note_on channel=3 note=54 velocity=0 time=0\n",
      "note_on channel=3 note=47 velocity=127 time=1\n",
      "note_on channel=3 note=54 velocity=127 time=0\n",
      "note_on channel=3 note=47 velocity=0 time=59\n",
      "note_on channel=3 note=54 velocity=0 time=0\n",
      "note_on channel=3 note=55 velocity=127 time=61\n",
      "note_on channel=3 note=48 velocity=127 time=0\n",
      "note_on channel=3 note=55 velocity=0 time=59\n",
      "note_on channel=3 note=48 velocity=0 time=0\n",
      "note_on channel=3 note=54 velocity=127 time=1\n",
      "note_on channel=3 note=47 velocity=127 time=0\n",
      "note_on channel=3 note=54 velocity=0 time=59\n",
      "note_on channel=3 note=47 velocity=0 time=0\n",
      "note_on channel=3 note=45 velocity=127 time=1\n",
      "note_on channel=3 note=54 velocity=127 time=0\n",
      "note_on channel=3 note=45 velocity=0 time=59\n",
      "note_on channel=3 note=54 velocity=0 time=0\n",
      "note_on channel=3 note=47 velocity=127 time=1\n",
      "note_on channel=3 note=54 velocity=127 time=0\n",
      "note_on channel=3 note=47 velocity=0 time=59\n",
      "note_on channel=3 note=54 velocity=0 time=0\n",
      "note_on channel=3 note=42 velocity=127 time=1\n",
      "note_on channel=3 note=42 velocity=0 time=59\n",
      "note_on channel=3 note=42 velocity=127 time=1\n",
      "note_on channel=3 note=42 velocity=0 time=59\n",
      "note_on channel=3 note=42 velocity=127 time=1\n",
      "note_on channel=3 note=42 velocity=0 time=59\n",
      "note_on channel=3 note=42 velocity=127 time=1\n",
      "note_on channel=3 note=42 velocity=0 time=59\n",
      "note_on channel=3 note=42 velocity=127 time=1\n",
      "note_on channel=3 note=42 velocity=0 time=59\n",
      "note_on channel=3 note=42 velocity=127 time=1\n",
      "note_on channel=3 note=42 velocity=0 time=59\n",
      "note_on channel=3 note=42 velocity=127 time=1\n",
      "note_on channel=3 note=42 velocity=0 time=59\n",
      "note_on channel=3 note=42 velocity=127 time=1\n",
      "note_on channel=3 note=42 velocity=0 time=59\n",
      "note_on channel=3 note=42 velocity=127 time=1\n",
      "note_on channel=3 note=42 velocity=0 time=59\n",
      "note_on channel=3 note=45 velocity=127 time=1\n",
      "note_on channel=3 note=54 velocity=127 time=0\n",
      "note_on channel=3 note=45 velocity=0 time=59\n",
      "note_on channel=3 note=47 velocity=127 time=1\n",
      "note_on channel=3 note=54 velocity=0 time=29\n",
      "note_on channel=3 note=47 velocity=0 time=30\n",
      "note_on channel=3 note=45 velocity=127 time=1\n",
      "note_on channel=3 note=54 velocity=127 time=0\n",
      "note_on channel=3 note=45 velocity=0 time=59\n",
      "note_on channel=3 note=47 velocity=127 time=1\n",
      "note_on channel=3 note=54 velocity=0 time=29\n",
      "note_on channel=3 note=47 velocity=0 time=30\n",
      "note_on channel=3 note=47 velocity=127 time=1\n",
      "note_on channel=3 note=59 velocity=127 time=0\n",
      "note_on channel=3 note=54 velocity=127 time=0\n",
      "note_on channel=3 note=47 velocity=0 time=59\n",
      "note_on channel=3 note=59 velocity=0 time=0\n",
      "note_on channel=3 note=54 velocity=0 time=0\n",
      "note_on channel=3 note=59 velocity=127 time=1\n",
      "note_on channel=3 note=54 velocity=127 time=0\n",
      "note_on channel=3 note=47 velocity=127 time=0\n",
      "note_on channel=3 note=59 velocity=0 time=59\n",
      "note_on channel=3 note=54 velocity=0 time=0\n",
      "note_on channel=3 note=47 velocity=0 time=0\n",
      "note_on channel=3 note=59 velocity=127 time=1\n",
      "note_on channel=3 note=47 velocity=127 time=0\n",
      "note_on channel=3 note=54 velocity=127 time=0\n",
      "note_on channel=3 note=59 velocity=0 time=59\n",
      "note_on channel=3 note=47 velocity=0 time=0\n",
      "note_on channel=3 note=54 velocity=0 time=0\n",
      "note_on channel=3 note=47 velocity=127 time=1\n",
      "note_on channel=3 note=54 velocity=127 time=0\n",
      "note_on channel=3 note=59 velocity=127 time=0\n",
      "note_on channel=3 note=47 velocity=0 time=59\n",
      "note_on channel=3 note=54 velocity=0 time=0\n",
      "note_on channel=3 note=59 velocity=0 time=0\n",
      "note_on channel=3 note=59 velocity=127 time=1\n",
      "note_on channel=3 note=54 velocity=127 time=0\n",
      "note_on channel=3 note=47 velocity=127 time=0\n",
      "note_on channel=3 note=59 velocity=0 time=59\n",
      "note_on channel=3 note=54 velocity=0 time=0\n",
      "note_on channel=3 note=47 velocity=0 time=0\n",
      "note_on channel=3 note=47 velocity=127 time=1\n",
      "note_on channel=3 note=59 velocity=127 time=0\n",
      "note_on channel=3 note=54 velocity=127 time=0\n",
      "note_on channel=3 note=47 velocity=0 time=59\n",
      "note_on channel=3 note=59 velocity=0 time=0\n",
      "note_on channel=3 note=54 velocity=0 time=0\n",
      "note_on channel=3 note=59 velocity=127 time=1\n",
      "note_on channel=3 note=54 velocity=127 time=0\n",
      "note_on channel=3 note=47 velocity=127 time=0\n",
      "note_on channel=3 note=59 velocity=0 time=59\n",
      "note_on channel=3 note=54 velocity=0 time=0\n",
      "note_on channel=3 note=47 velocity=0 time=0\n",
      "note_on channel=3 note=59 velocity=127 time=1\n",
      "note_on channel=3 note=54 velocity=127 time=0\n",
      "note_on channel=3 note=47 velocity=127 time=0\n",
      "note_on channel=3 note=59 velocity=0 time=59\n",
      "note_on channel=3 note=54 velocity=0 time=0\n",
      "note_on channel=3 note=47 velocity=0 time=0\n",
      "note_on channel=3 note=59 velocity=127 time=1\n",
      "note_on channel=3 note=64 velocity=127 time=0\n",
      "note_on channel=3 note=52 velocity=127 time=0\n",
      "note_on channel=3 note=40 velocity=127 time=0\n",
      "note_on channel=3 note=59 velocity=0 time=60\n",
      "note_on channel=3 note=64 velocity=0 time=0\n",
      "note_on channel=3 note=52 velocity=0 time=0\n",
      "note_on channel=3 note=40 velocity=0 time=0\n",
      "note_on channel=3 note=40 velocity=127 time=0\n",
      "note_on channel=3 note=40 velocity=0 time=60\n",
      "note_on channel=3 note=40 velocity=127 time=0\n",
      "note_on channel=3 note=40 velocity=0 time=60\n",
      "note_on channel=3 note=40 velocity=127 time=0\n",
      "note_on channel=3 note=40 velocity=0 time=60\n",
      "note_on channel=3 note=57 velocity=127 time=0\n",
      "note_on channel=3 note=50 velocity=127 time=0\n",
      "note_on channel=3 note=62 velocity=127 time=0\n",
      "note_on channel=3 note=57 velocity=0 time=120\n",
      "note_on channel=3 note=50 velocity=0 time=0\n",
      "note_on channel=3 note=62 velocity=0 time=0\n",
      "note_on channel=3 note=52 velocity=127 time=0\n",
      "note_on channel=3 note=64 velocity=127 time=0\n",
      "note_on channel=3 note=59 velocity=127 time=0\n",
      "note_on channel=3 note=52 velocity=0 time=120\n",
      "note_on channel=3 note=64 velocity=0 time=0\n",
      "note_on channel=3 note=59 velocity=0 time=0\n",
      "note_on channel=3 note=52 velocity=127 time=0\n",
      "note_on channel=3 note=52 velocity=0 time=60\n",
      "note_on channel=3 note=54 velocity=127 time=0\n",
      "note_on channel=3 note=54 velocity=0 time=60\n",
      "note_on channel=3 note=59 velocity=127 time=0\n",
      "note_on channel=3 note=59 velocity=0 time=60\n",
      "note_on channel=3 note=55 velocity=127 time=0\n",
      "note_on channel=3 note=55 velocity=0 time=60\n",
      "note_on channel=3 note=54 velocity=127 time=0\n",
      "note_on channel=3 note=54 velocity=0 time=60\n",
      "note_on channel=3 note=55 velocity=127 time=0\n",
      "control_change channel=3 control=1 value=0 time=0\n",
      "control_change channel=3 control=1 value=7 time=1\n",
      "control_change channel=3 control=1 value=13 time=1\n",
      "control_change channel=3 control=1 value=20 time=1\n",
      "control_change channel=3 control=1 value=26 time=1\n",
      "control_change channel=3 control=1 value=32 time=1\n",
      "control_change channel=3 control=1 value=39 time=1\n",
      "control_change channel=3 control=1 value=45 time=1\n",
      "control_change channel=3 control=1 value=52 time=1\n",
      "control_change channel=3 control=1 value=58 time=1\n",
      "control_change channel=3 control=1 value=64 time=1\n",
      "control_change channel=3 control=1 value=0 time=169\n",
      "note_on channel=3 note=55 velocity=0 time=1\n",
      "note_on channel=3 note=48 velocity=127 time=0\n",
      "note_on channel=3 note=48 velocity=0 time=60\n",
      "note_on channel=3 note=48 velocity=127 time=0\n",
      "note_on channel=3 note=48 velocity=0 time=60\n",
      "note_on channel=3 note=48 velocity=127 time=0\n",
      "note_on channel=3 note=48 velocity=0 time=60\n",
      "note_on channel=3 note=48 velocity=127 time=0\n",
      "note_on channel=3 note=48 velocity=0 time=60\n",
      "note_on channel=3 note=55 velocity=127 time=0\n",
      "note_on channel=3 note=48 velocity=127 time=0\n",
      "note_on channel=3 note=60 velocity=127 time=0\n",
      "note_on channel=3 note=55 velocity=0 time=120\n",
      "note_on channel=3 note=48 velocity=0 time=0\n",
      "note_on channel=3 note=60 velocity=0 time=0\n",
      "note_on channel=3 note=59 velocity=127 time=0\n",
      "note_on channel=3 note=54 velocity=127 time=0\n",
      "note_on channel=3 note=47 velocity=127 time=0\n",
      "note_on channel=3 note=59 velocity=0 time=120\n",
      "note_on channel=3 note=54 velocity=0 time=0\n",
      "note_on channel=3 note=47 velocity=0 time=0\n",
      "note_on channel=3 note=48 velocity=127 time=0\n",
      "note_on channel=3 note=48 velocity=0 time=60\n",
      "note_on channel=3 note=48 velocity=127 time=0\n",
      "note_on channel=3 note=48 velocity=0 time=60\n",
      "note_on channel=3 note=48 velocity=127 time=0\n",
      "note_on channel=3 note=48 velocity=0 time=60\n",
      "note_on channel=3 note=48 velocity=127 time=0\n",
      "note_on channel=3 note=48 velocity=0 time=60\n",
      "note_on channel=3 note=63 velocity=127 time=0\n",
      "note_on channel=3 note=58 velocity=127 time=0\n",
      "note_on channel=3 note=51 velocity=127 time=0\n",
      "note_on channel=3 note=63 velocity=0 time=120\n",
      "note_on channel=3 note=58 velocity=0 time=0\n",
      "note_on channel=3 note=51 velocity=0 time=0\n",
      "note_on channel=3 note=59 velocity=127 time=0\n",
      "note_on channel=3 note=54 velocity=127 time=0\n",
      "note_on channel=3 note=47 velocity=127 time=0\n",
      "note_on channel=3 note=59 velocity=0 time=60\n",
      "note_on channel=3 note=54 velocity=0 time=0\n",
      "note_on channel=3 note=47 velocity=0 time=0\n",
      "note_on channel=3 note=59 velocity=127 time=60\n",
      "note_on channel=3 note=64 velocity=127 time=0\n",
      "note_on channel=3 note=52 velocity=127 time=0\n",
      "note_on channel=3 note=40 velocity=127 time=0\n",
      "note_on channel=3 note=59 velocity=0 time=60\n",
      "note_on channel=3 note=64 velocity=0 time=0\n",
      "note_on channel=3 note=52 velocity=0 time=0\n",
      "note_on channel=3 note=40 velocity=0 time=0\n",
      "note_on channel=3 note=40 velocity=127 time=0\n",
      "note_on channel=3 note=40 velocity=0 time=60\n",
      "note_on channel=3 note=40 velocity=127 time=0\n",
      "note_on channel=3 note=40 velocity=0 time=60\n",
      "note_on channel=3 note=40 velocity=127 time=0\n",
      "note_on channel=3 note=40 velocity=0 time=60\n",
      "note_on channel=3 note=57 velocity=127 time=0\n",
      "note_on channel=3 note=50 velocity=127 time=0\n",
      "note_on channel=3 note=62 velocity=127 time=0\n",
      "note_on channel=3 note=57 velocity=0 time=120\n",
      "note_on channel=3 note=50 velocity=0 time=0\n",
      "note_on channel=3 note=62 velocity=0 time=0\n",
      "note_on channel=3 note=52 velocity=127 time=0\n",
      "note_on channel=3 note=59 velocity=127 time=0\n",
      "note_on channel=3 note=64 velocity=127 time=0\n",
      "note_on channel=3 note=52 velocity=0 time=120\n",
      "note_on channel=3 note=59 velocity=0 time=0\n",
      "note_on channel=3 note=64 velocity=0 time=0\n",
      "note_on channel=3 note=52 velocity=127 time=0\n",
      "note_on channel=3 note=52 velocity=0 time=60\n",
      "note_on channel=3 note=54 velocity=127 time=0\n",
      "note_on channel=3 note=54 velocity=0 time=60\n",
      "note_on channel=3 note=59 velocity=127 time=0\n",
      "note_on channel=3 note=59 velocity=0 time=60\n",
      "note_on channel=3 note=55 velocity=127 time=0\n",
      "note_on channel=3 note=55 velocity=0 time=60\n",
      "note_on channel=3 note=54 velocity=127 time=0\n",
      "note_on channel=3 note=54 velocity=0 time=60\n",
      "note_on channel=3 note=55 velocity=127 time=0\n",
      "control_change channel=3 control=1 value=0 time=0\n",
      "control_change channel=3 control=1 value=7 time=1\n",
      "control_change channel=3 control=1 value=13 time=1\n",
      "control_change channel=3 control=1 value=20 time=1\n",
      "control_change channel=3 control=1 value=26 time=1\n",
      "control_change channel=3 control=1 value=32 time=1\n",
      "control_change channel=3 control=1 value=39 time=1\n",
      "control_change channel=3 control=1 value=45 time=1\n",
      "control_change channel=3 control=1 value=52 time=1\n",
      "control_change channel=3 control=1 value=58 time=1\n",
      "control_change channel=3 control=1 value=64 time=1\n",
      "control_change channel=3 control=1 value=0 time=49\n",
      "note_on channel=3 note=55 velocity=0 time=121\n",
      "note_on channel=3 note=48 velocity=127 time=0\n",
      "note_on channel=3 note=48 velocity=0 time=60\n",
      "note_on channel=3 note=48 velocity=127 time=0\n",
      "note_on channel=3 note=48 velocity=0 time=60\n",
      "note_on channel=3 note=48 velocity=127 time=0\n",
      "note_on channel=3 note=48 velocity=0 time=60\n",
      "note_on channel=3 note=48 velocity=127 time=0\n",
      "note_on channel=3 note=48 velocity=0 time=60\n",
      "note_on channel=3 note=55 velocity=127 time=0\n",
      "note_on channel=3 note=48 velocity=127 time=0\n",
      "note_on channel=3 note=60 velocity=127 time=0\n",
      "note_on channel=3 note=55 velocity=0 time=120\n",
      "note_on channel=3 note=48 velocity=0 time=0\n",
      "note_on channel=3 note=60 velocity=0 time=0\n",
      "note_on channel=3 note=59 velocity=127 time=0\n",
      "note_on channel=3 note=54 velocity=127 time=0\n",
      "note_on channel=3 note=47 velocity=127 time=0\n",
      "note_on channel=3 note=59 velocity=0 time=120\n",
      "note_on channel=3 note=54 velocity=0 time=0\n",
      "note_on channel=3 note=47 velocity=0 time=0\n",
      "note_on channel=3 note=48 velocity=127 time=0\n",
      "note_on channel=3 note=48 velocity=0 time=60\n",
      "note_on channel=3 note=48 velocity=127 time=0\n",
      "note_on channel=3 note=48 velocity=0 time=60\n",
      "note_on channel=3 note=48 velocity=127 time=0\n",
      "note_on channel=3 note=48 velocity=0 time=60\n",
      "note_on channel=3 note=48 velocity=127 time=0\n",
      "note_on channel=3 note=48 velocity=0 time=60\n",
      "note_on channel=3 note=63 velocity=127 time=0\n",
      "note_on channel=3 note=58 velocity=127 time=0\n",
      "note_on channel=3 note=51 velocity=127 time=0\n",
      "note_on channel=3 note=63 velocity=0 time=120\n",
      "note_on channel=3 note=58 velocity=0 time=0\n",
      "note_on channel=3 note=51 velocity=0 time=0\n",
      "note_on channel=3 note=47 velocity=127 time=0\n",
      "note_on channel=3 note=54 velocity=127 time=0\n",
      "note_on channel=3 note=59 velocity=127 time=0\n",
      "note_on channel=3 note=47 velocity=0 time=120\n",
      "note_on channel=3 note=54 velocity=0 time=0\n",
      "note_on channel=3 note=59 velocity=0 time=0\n",
      "note_on channel=3 note=40 velocity=127 time=0\n",
      "note_on channel=3 note=64 velocity=127 time=0\n",
      "note_on channel=3 note=59 velocity=127 time=0\n",
      "note_on channel=3 note=52 velocity=127 time=0\n",
      "note_on channel=3 note=40 velocity=0 time=60\n",
      "note_on channel=3 note=64 velocity=0 time=0\n",
      "note_on channel=3 note=59 velocity=0 time=0\n",
      "note_on channel=3 note=52 velocity=0 time=0\n",
      "note_on channel=3 note=40 velocity=127 time=0\n",
      "note_on channel=3 note=40 velocity=0 time=60\n",
      "note_on channel=3 note=40 velocity=127 time=0\n",
      "note_on channel=3 note=40 velocity=0 time=60\n",
      "note_on channel=3 note=40 velocity=127 time=0\n",
      "note_on channel=3 note=40 velocity=0 time=60\n",
      "note_on channel=3 note=62 velocity=127 time=0\n",
      "note_on channel=3 note=57 velocity=127 time=0\n",
      "note_on channel=3 note=50 velocity=127 time=0\n",
      "note_on channel=3 note=62 velocity=0 time=120\n",
      "note_on channel=3 note=57 velocity=0 time=0\n",
      "note_on channel=3 note=50 velocity=0 time=0\n",
      "note_on channel=3 note=52 velocity=127 time=0\n",
      "note_on channel=3 note=59 velocity=127 time=0\n",
      "note_on channel=3 note=64 velocity=127 time=0\n",
      "note_on channel=3 note=52 velocity=0 time=120\n",
      "note_on channel=3 note=59 velocity=0 time=0\n",
      "note_on channel=3 note=64 velocity=0 time=0\n",
      "note_on channel=3 note=52 velocity=127 time=0\n",
      "note_on channel=3 note=52 velocity=0 time=60\n",
      "note_on channel=3 note=54 velocity=127 time=0\n",
      "note_on channel=3 note=54 velocity=0 time=60\n",
      "note_on channel=3 note=59 velocity=127 time=0\n",
      "note_on channel=3 note=59 velocity=0 time=60\n",
      "note_on channel=3 note=55 velocity=127 time=0\n",
      "note_on channel=3 note=55 velocity=0 time=60\n",
      "note_on channel=3 note=54 velocity=127 time=0\n",
      "note_on channel=3 note=54 velocity=0 time=60\n",
      "note_on channel=3 note=55 velocity=127 time=0\n",
      "control_change channel=3 control=1 value=0 time=0\n",
      "control_change channel=3 control=1 value=7 time=1\n",
      "control_change channel=3 control=1 value=13 time=1\n",
      "control_change channel=3 control=1 value=20 time=1\n",
      "control_change channel=3 control=1 value=26 time=1\n",
      "control_change channel=3 control=1 value=32 time=1\n",
      "control_change channel=3 control=1 value=39 time=1\n",
      "control_change channel=3 control=1 value=45 time=1\n",
      "control_change channel=3 control=1 value=52 time=1\n",
      "control_change channel=3 control=1 value=58 time=1\n",
      "control_change channel=3 control=1 value=64 time=1\n",
      "control_change channel=3 control=1 value=0 time=49\n",
      "note_on channel=3 note=55 velocity=0 time=121\n",
      "note_on channel=3 note=48 velocity=127 time=0\n",
      "note_on channel=3 note=48 velocity=0 time=60\n",
      "note_on channel=3 note=48 velocity=127 time=0\n",
      "note_on channel=3 note=48 velocity=0 time=60\n",
      "note_on channel=3 note=48 velocity=127 time=0\n",
      "note_on channel=3 note=48 velocity=0 time=60\n",
      "note_on channel=3 note=48 velocity=127 time=0\n",
      "note_on channel=3 note=48 velocity=0 time=60\n",
      "note_on channel=3 note=60 velocity=127 time=0\n",
      "note_on channel=3 note=55 velocity=127 time=0\n",
      "note_on channel=3 note=48 velocity=127 time=0\n",
      "note_on channel=3 note=60 velocity=0 time=120\n",
      "note_on channel=3 note=55 velocity=0 time=0\n",
      "note_on channel=3 note=48 velocity=0 time=0\n",
      "note_on channel=3 note=59 velocity=127 time=0\n",
      "note_on channel=3 note=54 velocity=127 time=0\n",
      "note_on channel=3 note=47 velocity=127 time=0\n",
      "note_on channel=3 note=59 velocity=0 time=120\n",
      "note_on channel=3 note=54 velocity=0 time=0\n",
      "note_on channel=3 note=47 velocity=0 time=0\n",
      "note_on channel=3 note=48 velocity=127 time=0\n",
      "note_on channel=3 note=48 velocity=0 time=60\n",
      "note_on channel=3 note=48 velocity=127 time=0\n",
      "note_on channel=3 note=48 velocity=0 time=60\n",
      "note_on channel=3 note=48 velocity=127 time=0\n",
      "note_on channel=3 note=48 velocity=0 time=60\n",
      "note_on channel=3 note=48 velocity=127 time=0\n",
      "note_on channel=3 note=48 velocity=0 time=60\n",
      "note_on channel=3 note=63 velocity=127 time=0\n",
      "note_on channel=3 note=58 velocity=127 time=0\n",
      "note_on channel=3 note=51 velocity=127 time=0\n",
      "note_on channel=3 note=63 velocity=0 time=120\n",
      "note_on channel=3 note=58 velocity=0 time=0\n",
      "note_on channel=3 note=51 velocity=0 time=0\n",
      "note_on channel=3 note=54 velocity=127 time=0\n",
      "note_on channel=3 note=47 velocity=127 time=0\n",
      "note_on channel=3 note=59 velocity=127 time=0\n",
      "note_on channel=3 note=54 velocity=0 time=120\n",
      "note_on channel=3 note=47 velocity=0 time=0\n",
      "note_on channel=3 note=59 velocity=0 time=0\n",
      "note_on channel=3 note=64 velocity=127 time=0\n",
      "note_on channel=3 note=59 velocity=127 time=0\n",
      "note_on channel=3 note=40 velocity=127 time=0\n",
      "note_on channel=3 note=52 velocity=127 time=0\n",
      "note_on channel=3 note=64 velocity=0 time=60\n",
      "note_on channel=3 note=59 velocity=0 time=0\n",
      "note_on channel=3 note=40 velocity=0 time=0\n",
      "note_on channel=3 note=52 velocity=0 time=0\n",
      "note_on channel=3 note=40 velocity=127 time=0\n",
      "note_on channel=3 note=40 velocity=0 time=60\n",
      "note_on channel=3 note=40 velocity=127 time=0\n",
      "note_on channel=3 note=40 velocity=0 time=60\n",
      "note_on channel=3 note=40 velocity=127 time=0\n",
      "note_on channel=3 note=40 velocity=0 time=60\n",
      "note_on channel=3 note=62 velocity=127 time=0\n",
      "note_on channel=3 note=57 velocity=127 time=0\n",
      "note_on channel=3 note=50 velocity=127 time=0\n",
      "note_on channel=3 note=62 velocity=0 time=120\n",
      "note_on channel=3 note=57 velocity=0 time=0\n",
      "note_on channel=3 note=50 velocity=0 time=0\n",
      "note_on channel=3 note=64 velocity=127 time=0\n",
      "note_on channel=3 note=52 velocity=127 time=0\n",
      "note_on channel=3 note=59 velocity=127 time=0\n",
      "note_on channel=3 note=64 velocity=0 time=120\n",
      "note_on channel=3 note=52 velocity=0 time=0\n",
      "note_on channel=3 note=59 velocity=0 time=0\n",
      "note_on channel=3 note=52 velocity=127 time=0\n",
      "note_on channel=3 note=52 velocity=0 time=60\n",
      "note_on channel=3 note=54 velocity=127 time=0\n",
      "note_on channel=3 note=54 velocity=0 time=60\n",
      "note_on channel=3 note=59 velocity=127 time=0\n",
      "note_on channel=3 note=59 velocity=0 time=60\n",
      "note_on channel=3 note=55 velocity=127 time=0\n",
      "note_on channel=3 note=55 velocity=0 time=60\n",
      "note_on channel=3 note=54 velocity=127 time=0\n",
      "note_on channel=3 note=54 velocity=0 time=60\n",
      "control_change channel=3 control=1 value=0 time=0\n",
      "note_on channel=3 note=55 velocity=127 time=0\n",
      "control_change channel=3 control=1 value=7 time=1\n",
      "control_change channel=3 control=1 value=13 time=1\n",
      "control_change channel=3 control=1 value=20 time=1\n",
      "control_change channel=3 control=1 value=26 time=1\n",
      "control_change channel=3 control=1 value=32 time=1\n",
      "control_change channel=3 control=1 value=39 time=1\n",
      "control_change channel=3 control=1 value=45 time=1\n",
      "control_change channel=3 control=1 value=52 time=1\n",
      "control_change channel=3 control=1 value=58 time=1\n",
      "control_change channel=3 control=1 value=64 time=1\n",
      "control_change channel=3 control=1 value=0 time=49\n",
      "note_on channel=3 note=55 velocity=0 time=121\n",
      "note_on channel=3 note=48 velocity=127 time=0\n",
      "note_on channel=3 note=48 velocity=0 time=60\n",
      "note_on channel=3 note=48 velocity=127 time=0\n",
      "note_on channel=3 note=48 velocity=0 time=60\n",
      "note_on channel=3 note=48 velocity=127 time=0\n",
      "note_on channel=3 note=48 velocity=0 time=60\n",
      "note_on channel=3 note=48 velocity=127 time=0\n",
      "note_on channel=3 note=48 velocity=0 time=60\n",
      "note_on channel=3 note=60 velocity=127 time=0\n",
      "note_on channel=3 note=55 velocity=127 time=0\n",
      "note_on channel=3 note=48 velocity=127 time=0\n",
      "note_on channel=3 note=60 velocity=0 time=120\n",
      "note_on channel=3 note=55 velocity=0 time=0\n",
      "note_on channel=3 note=48 velocity=0 time=0\n",
      "note_on channel=3 note=47 velocity=127 time=0\n",
      "note_on channel=3 note=59 velocity=127 time=0\n",
      "note_on channel=3 note=54 velocity=127 time=0\n",
      "note_on channel=3 note=47 velocity=0 time=120\n",
      "note_on channel=3 note=59 velocity=0 time=0\n",
      "note_on channel=3 note=54 velocity=0 time=0\n",
      "note_on channel=3 note=54 velocity=127 time=0\n",
      "note_on channel=3 note=54 velocity=0 time=60\n",
      "note_on channel=3 note=52 velocity=127 time=0\n",
      "note_on channel=3 note=52 velocity=0 time=60\n",
      "note_on channel=3 note=51 velocity=127 time=0\n",
      "note_on channel=3 note=51 velocity=0 time=60\n",
      "note_on channel=3 note=51 velocity=127 time=60\n",
      "note_on channel=3 note=51 velocity=0 time=60\n",
      "note_on channel=3 note=48 velocity=127 time=0\n",
      "note_on channel=3 note=48 velocity=0 time=60\n",
      "note_on channel=3 note=47 velocity=127 time=0\n",
      "note_on channel=3 note=47 velocity=0 time=60\n",
      "note_on channel=3 note=52 velocity=127 time=60\n",
      "note_on channel=3 note=59 velocity=127 time=0\n",
      "note_on channel=3 note=47 velocity=127 time=0\n",
      "note_on channel=3 note=40 velocity=127 time=0\n",
      "note_on channel=3 note=52 velocity=0 time=120\n",
      "note_on channel=3 note=59 velocity=0 time=0\n",
      "note_on channel=3 note=47 velocity=0 time=0\n",
      "note_on channel=3 note=40 velocity=0 time=0\n",
      "note_on channel=3 note=59 velocity=127 time=0\n",
      "note_on channel=3 note=40 velocity=127 time=0\n",
      "note_on channel=3 note=52 velocity=127 time=0\n",
      "note_on channel=3 note=47 velocity=127 time=0\n",
      "note_on channel=3 note=59 velocity=0 time=120\n",
      "note_on channel=3 note=40 velocity=0 time=0\n",
      "note_on channel=3 note=52 velocity=0 time=0\n",
      "note_on channel=3 note=47 velocity=0 time=0\n",
      "note_on channel=3 note=41 velocity=127 time=240\n",
      "note_on channel=3 note=57 velocity=127 time=0\n",
      "note_on channel=3 note=53 velocity=127 time=0\n",
      "note_on channel=3 note=48 velocity=127 time=0\n",
      "note_on channel=3 note=41 velocity=0 time=120\n",
      "note_on channel=3 note=57 velocity=0 time=0\n",
      "note_on channel=3 note=53 velocity=0 time=0\n",
      "note_on channel=3 note=48 velocity=0 time=0\n",
      "note_on channel=3 note=48 velocity=127 time=0\n",
      "note_on channel=3 note=57 velocity=127 time=0\n",
      "note_on channel=3 note=53 velocity=127 time=0\n",
      "note_on channel=3 note=41 velocity=127 time=0\n",
      "note_on channel=3 note=48 velocity=0 time=120\n",
      "note_on channel=3 note=57 velocity=0 time=0\n",
      "note_on channel=3 note=53 velocity=0 time=0\n",
      "note_on channel=3 note=41 velocity=0 time=0\n",
      "note_on channel=3 note=40 velocity=127 time=240\n",
      "note_on channel=3 note=59 velocity=127 time=0\n",
      "note_on channel=3 note=52 velocity=127 time=0\n",
      "note_on channel=3 note=47 velocity=127 time=0\n",
      "note_on channel=3 note=40 velocity=0 time=300\n",
      "note_on channel=3 note=59 velocity=0 time=0\n",
      "note_on channel=3 note=52 velocity=0 time=0\n",
      "note_on channel=3 note=47 velocity=0 time=0\n",
      "note_on channel=3 note=40 velocity=127 time=0\n",
      "note_on channel=3 note=40 velocity=0 time=60\n",
      "note_on channel=3 note=40 velocity=127 time=0\n",
      "note_on channel=3 note=40 velocity=0 time=60\n",
      "note_on channel=3 note=40 velocity=127 time=0\n",
      "note_on channel=3 note=40 velocity=0 time=60\n",
      "note_on channel=3 note=42 velocity=127 time=0\n",
      "note_on channel=3 note=42 velocity=0 time=60\n",
      "note_on channel=3 note=40 velocity=127 time=0\n",
      "note_on channel=3 note=40 velocity=0 time=60\n",
      "note_on channel=3 note=40 velocity=127 time=0\n",
      "note_on channel=3 note=40 velocity=0 time=60\n",
      "note_on channel=3 note=40 velocity=127 time=0\n",
      "note_on channel=3 note=40 velocity=0 time=60\n",
      "note_on channel=3 note=43 velocity=127 time=0\n",
      "note_on channel=3 note=59 velocity=127 time=0\n",
      "note_on channel=3 note=55 velocity=127 time=0\n",
      "note_on channel=3 note=50 velocity=127 time=0\n",
      "note_on channel=3 note=43 velocity=0 time=960\n",
      "note_on channel=3 note=59 velocity=0 time=0\n",
      "note_on channel=3 note=55 velocity=0 time=0\n",
      "note_on channel=3 note=50 velocity=0 time=0\n",
      "note_on channel=3 note=60 velocity=127 time=0\n",
      "note_on channel=3 note=55 velocity=127 time=0\n",
      "note_on channel=3 note=48 velocity=127 time=0\n",
      "note_on channel=3 note=60 velocity=0 time=300\n",
      "note_on channel=3 note=55 velocity=0 time=0\n",
      "note_on channel=3 note=48 velocity=0 time=0\n",
      "note_on channel=3 note=45 velocity=127 time=0\n",
      "note_on channel=3 note=45 velocity=0 time=60\n",
      "note_on channel=3 note=45 velocity=127 time=0\n",
      "note_on channel=3 note=45 velocity=0 time=60\n",
      "note_on channel=3 note=45 velocity=127 time=0\n",
      "note_on channel=3 note=45 velocity=0 time=60\n",
      "note_on channel=3 note=54 velocity=127 time=0\n",
      "note_on channel=3 note=47 velocity=127 time=0\n",
      "note_on channel=3 note=54 velocity=0 time=60\n",
      "note_on channel=3 note=47 velocity=0 time=0\n",
      "note_on channel=3 note=45 velocity=127 time=0\n",
      "note_on channel=3 note=45 velocity=0 time=60\n",
      "note_on channel=3 note=45 velocity=127 time=0\n",
      "note_on channel=3 note=45 velocity=0 time=60\n",
      "note_on channel=3 note=45 velocity=127 time=0\n",
      "note_on channel=3 note=45 velocity=0 time=60\n",
      "note_on channel=3 note=45 velocity=127 time=0\n",
      "note_on channel=3 note=57 velocity=127 time=0\n",
      "note_on channel=3 note=52 velocity=127 time=0\n",
      "note_on channel=3 note=45 velocity=0 time=960\n",
      "note_on channel=3 note=57 velocity=0 time=0\n",
      "note_on channel=3 note=52 velocity=0 time=0\n",
      "note_on channel=3 note=66 velocity=127 time=0\n",
      "note_on channel=3 note=62 velocity=127 time=0\n",
      "note_on channel=3 note=57 velocity=127 time=0\n",
      "note_on channel=3 note=50 velocity=127 time=0\n",
      "note_on channel=3 note=66 velocity=0 time=300\n",
      "note_on channel=3 note=62 velocity=0 time=0\n",
      "note_on channel=3 note=57 velocity=0 time=0\n",
      "note_on channel=3 note=50 velocity=0 time=0\n",
      "note_on channel=3 note=43 velocity=127 time=0\n",
      "note_on channel=3 note=43 velocity=0 time=60\n",
      "note_on channel=3 note=43 velocity=127 time=0\n",
      "note_on channel=3 note=43 velocity=0 time=60\n",
      "note_on channel=3 note=43 velocity=127 time=0\n",
      "note_on channel=3 note=43 velocity=0 time=60\n",
      "note_on channel=3 note=55 velocity=127 time=0\n",
      "note_on channel=3 note=48 velocity=127 time=0\n",
      "note_on channel=3 note=55 velocity=0 time=60\n",
      "note_on channel=3 note=48 velocity=0 time=0\n",
      "note_on channel=3 note=43 velocity=127 time=0\n",
      "note_on channel=3 note=43 velocity=0 time=60\n",
      "note_on channel=3 note=43 velocity=127 time=0\n",
      "note_on channel=3 note=43 velocity=0 time=60\n",
      "note_on channel=3 note=43 velocity=127 time=0\n",
      "note_on channel=3 note=43 velocity=0 time=60\n",
      "note_on channel=3 note=59 velocity=127 time=0\n",
      "note_on channel=3 note=63 velocity=127 time=0\n",
      "note_on channel=3 note=54 velocity=127 time=0\n",
      "note_on channel=3 note=47 velocity=127 time=0\n",
      "note_on channel=3 note=59 velocity=0 time=480\n",
      "note_on channel=3 note=63 velocity=0 time=0\n",
      "note_on channel=3 note=54 velocity=0 time=0\n",
      "note_on channel=3 note=47 velocity=0 time=0\n",
      "note_on channel=3 note=64 velocity=127 time=0\n",
      "note_on channel=3 note=40 velocity=127 time=0\n",
      "note_on channel=3 note=59 velocity=127 time=0\n",
      "note_on channel=3 note=52 velocity=127 time=0\n",
      "note_on channel=3 note=64 velocity=0 time=300\n",
      "note_on channel=3 note=40 velocity=0 time=0\n",
      "note_on channel=3 note=59 velocity=0 time=0\n",
      "note_on channel=3 note=52 velocity=0 time=0\n",
      "note_on channel=3 note=40 velocity=127 time=0\n",
      "note_on channel=3 note=40 velocity=0 time=60\n",
      "note_on channel=3 note=40 velocity=127 time=0\n",
      "note_on channel=3 note=40 velocity=0 time=60\n",
      "note_on channel=3 note=40 velocity=127 time=0\n",
      "note_on channel=3 note=40 velocity=0 time=60\n",
      "note_on channel=3 note=62 velocity=127 time=0\n",
      "note_on channel=3 note=57 velocity=127 time=0\n",
      "note_on channel=3 note=50 velocity=127 time=0\n",
      "note_on channel=3 note=62 velocity=0 time=120\n",
      "note_on channel=3 note=57 velocity=0 time=0\n",
      "note_on channel=3 note=50 velocity=0 time=0\n",
      "note_on channel=3 note=40 velocity=127 time=0\n",
      "note_on channel=3 note=40 velocity=0 time=60\n",
      "note_on channel=3 note=40 velocity=127 time=0\n",
      "note_on channel=3 note=40 velocity=0 time=60\n",
      "note_on channel=3 note=48 velocity=127 time=0\n",
      "note_on channel=3 note=64 velocity=127 time=0\n",
      "note_on channel=3 note=60 velocity=127 time=0\n",
      "note_on channel=3 note=55 velocity=127 time=0\n",
      "note_on channel=3 note=48 velocity=0 time=720\n",
      "note_on channel=3 note=64 velocity=0 time=0\n",
      "note_on channel=3 note=60 velocity=0 time=0\n",
      "note_on channel=3 note=55 velocity=0 time=0\n",
      "note_on channel=3 note=59 velocity=127 time=0\n",
      "note_on channel=3 note=40 velocity=127 time=0\n",
      "note_on channel=3 note=52 velocity=127 time=0\n",
      "note_on channel=3 note=47 velocity=127 time=0\n",
      "note_on channel=3 note=59 velocity=0 time=120\n",
      "note_on channel=3 note=40 velocity=0 time=0\n",
      "note_on channel=3 note=52 velocity=0 time=0\n",
      "note_on channel=3 note=47 velocity=0 time=0\n",
      "note_on channel=3 note=59 velocity=127 time=0\n",
      "note_on channel=3 note=40 velocity=127 time=0\n",
      "note_on channel=3 note=47 velocity=127 time=0\n",
      "note_on channel=3 note=52 velocity=127 time=0\n",
      "note_on channel=3 note=59 velocity=0 time=120\n",
      "note_on channel=3 note=40 velocity=0 time=0\n",
      "note_on channel=3 note=47 velocity=0 time=0\n",
      "note_on channel=3 note=52 velocity=0 time=0\n",
      "note_on channel=3 note=41 velocity=127 time=240\n",
      "note_on channel=3 note=57 velocity=127 time=0\n",
      "note_on channel=3 note=53 velocity=127 time=0\n",
      "note_on channel=3 note=48 velocity=127 time=0\n",
      "note_on channel=3 note=41 velocity=0 time=120\n",
      "note_on channel=3 note=57 velocity=0 time=0\n",
      "note_on channel=3 note=53 velocity=0 time=0\n",
      "note_on channel=3 note=48 velocity=0 time=0\n",
      "note_on channel=3 note=57 velocity=127 time=0\n",
      "note_on channel=3 note=53 velocity=127 time=0\n",
      "note_on channel=3 note=48 velocity=127 time=0\n",
      "note_on channel=3 note=41 velocity=127 time=0\n",
      "note_on channel=3 note=57 velocity=0 time=120\n",
      "note_on channel=3 note=53 velocity=0 time=0\n",
      "note_on channel=3 note=48 velocity=0 time=0\n",
      "note_on channel=3 note=41 velocity=0 time=0\n",
      "note_on channel=3 note=47 velocity=127 time=240\n",
      "note_on channel=3 note=59 velocity=127 time=0\n",
      "note_on channel=3 note=40 velocity=127 time=0\n",
      "note_on channel=3 note=52 velocity=127 time=0\n",
      "note_on channel=3 note=47 velocity=0 time=300\n",
      "note_on channel=3 note=59 velocity=0 time=0\n",
      "note_on channel=3 note=40 velocity=0 time=0\n",
      "note_on channel=3 note=52 velocity=0 time=0\n",
      "note_on channel=3 note=40 velocity=127 time=0\n",
      "note_on channel=3 note=40 velocity=0 time=60\n",
      "note_on channel=3 note=40 velocity=127 time=0\n",
      "note_on channel=3 note=40 velocity=0 time=60\n",
      "note_on channel=3 note=40 velocity=127 time=0\n",
      "note_on channel=3 note=40 velocity=0 time=60\n",
      "note_on channel=3 note=42 velocity=127 time=0\n",
      "note_on channel=3 note=42 velocity=0 time=60\n",
      "note_on channel=3 note=40 velocity=127 time=0\n",
      "note_on channel=3 note=40 velocity=0 time=60\n",
      "note_on channel=3 note=40 velocity=127 time=0\n",
      "note_on channel=3 note=40 velocity=0 time=60\n",
      "note_on channel=3 note=40 velocity=127 time=0\n",
      "note_on channel=3 note=40 velocity=0 time=60\n",
      "note_on channel=3 note=60 velocity=127 time=0\n",
      "note_on channel=3 note=64 velocity=127 time=0\n",
      "note_on channel=3 note=55 velocity=127 time=0\n",
      "note_on channel=3 note=48 velocity=127 time=0\n",
      "note_on channel=3 note=60 velocity=0 time=960\n",
      "note_on channel=3 note=64 velocity=0 time=0\n",
      "note_on channel=3 note=55 velocity=0 time=0\n",
      "note_on channel=3 note=48 velocity=0 time=0\n",
      "note_on channel=3 note=52 velocity=127 time=0\n",
      "note_on channel=3 note=59 velocity=127 time=0\n",
      "note_on channel=3 note=47 velocity=127 time=0\n",
      "note_on channel=3 note=40 velocity=127 time=0\n",
      "note_on channel=3 note=52 velocity=0 time=120\n",
      "note_on channel=3 note=59 velocity=0 time=0\n",
      "note_on channel=3 note=47 velocity=0 time=0\n",
      "note_on channel=3 note=40 velocity=0 time=0\n",
      "note_on channel=3 note=40 velocity=127 time=0\n",
      "note_on channel=3 note=59 velocity=127 time=0\n",
      "note_on channel=3 note=47 velocity=127 time=0\n",
      "note_on channel=3 note=52 velocity=127 time=0\n",
      "note_on channel=3 note=40 velocity=0 time=120\n",
      "note_on channel=3 note=59 velocity=0 time=0\n",
      "note_on channel=3 note=47 velocity=0 time=0\n",
      "note_on channel=3 note=52 velocity=0 time=0\n",
      "note_on channel=3 note=41 velocity=127 time=240\n",
      "note_on channel=3 note=57 velocity=127 time=0\n",
      "note_on channel=3 note=53 velocity=127 time=0\n",
      "note_on channel=3 note=48 velocity=127 time=0\n",
      "note_on channel=3 note=41 velocity=0 time=120\n",
      "note_on channel=3 note=57 velocity=0 time=0\n",
      "note_on channel=3 note=53 velocity=0 time=0\n",
      "note_on channel=3 note=48 velocity=0 time=0\n",
      "note_on channel=3 note=41 velocity=127 time=0\n",
      "note_on channel=3 note=57 velocity=127 time=0\n",
      "note_on channel=3 note=53 velocity=127 time=0\n",
      "note_on channel=3 note=48 velocity=127 time=0\n",
      "note_on channel=3 note=41 velocity=0 time=120\n",
      "note_on channel=3 note=57 velocity=0 time=0\n",
      "note_on channel=3 note=53 velocity=0 time=0\n",
      "note_on channel=3 note=48 velocity=0 time=0\n",
      "note_on channel=3 note=40 velocity=127 time=240\n",
      "note_on channel=3 note=40 velocity=0 time=60\n",
      "note_on channel=3 note=40 velocity=127 time=0\n",
      "note_on channel=3 note=40 velocity=0 time=60\n",
      "note_on channel=3 note=40 velocity=127 time=0\n",
      "note_on channel=3 note=40 velocity=0 time=60\n",
      "note_on channel=3 note=40 velocity=127 time=0\n",
      "note_on channel=3 note=40 velocity=0 time=60\n",
      "note_on channel=3 note=40 velocity=127 time=0\n",
      "note_on channel=3 note=40 velocity=0 time=60\n",
      "note_on channel=3 note=40 velocity=127 time=0\n",
      "note_on channel=3 note=40 velocity=0 time=60\n",
      "note_on channel=3 note=40 velocity=127 time=0\n",
      "note_on channel=3 note=40 velocity=0 time=60\n",
      "note_on channel=3 note=40 velocity=127 time=0\n",
      "note_on channel=3 note=40 velocity=0 time=60\n",
      "note_on channel=3 note=40 velocity=127 time=0\n",
      "note_on channel=3 note=40 velocity=0 time=60\n",
      "note_on channel=3 note=50 velocity=127 time=0\n",
      "note_on channel=3 note=43 velocity=127 time=0\n",
      "note_on channel=3 note=50 velocity=0 time=60\n",
      "note_on channel=3 note=43 velocity=0 time=0\n",
      "note_on channel=3 note=52 velocity=127 time=0\n",
      "note_on channel=3 note=45 velocity=127 time=0\n",
      "note_on channel=3 note=52 velocity=0 time=60\n",
      "note_on channel=3 note=45 velocity=0 time=0\n",
      "note_on channel=3 note=40 velocity=127 time=0\n",
      "note_on channel=3 note=40 velocity=0 time=60\n",
      "note_on channel=3 note=53 velocity=127 time=0\n",
      "note_on channel=3 note=46 velocity=127 time=0\n",
      "note_on channel=3 note=53 velocity=0 time=60\n",
      "note_on channel=3 note=46 velocity=0 time=0\n",
      "note_on channel=3 note=52 velocity=127 time=0\n",
      "note_on channel=3 note=45 velocity=127 time=0\n",
      "note_on channel=3 note=52 velocity=0 time=60\n",
      "note_on channel=3 note=45 velocity=0 time=0\n",
      "note_on channel=3 note=43 velocity=127 time=0\n",
      "note_on channel=3 note=50 velocity=127 time=0\n",
      "note_on channel=3 note=43 velocity=0 time=60\n",
      "note_on channel=3 note=50 velocity=0 time=0\n",
      "note_on channel=3 note=45 velocity=127 time=0\n",
      "note_on channel=3 note=52 velocity=127 time=0\n",
      "note_on channel=3 note=45 velocity=0 time=60\n",
      "note_on channel=3 note=52 velocity=0 time=0\n",
      "note_on channel=3 note=40 velocity=127 time=0\n",
      "note_on channel=3 note=40 velocity=0 time=60\n",
      "note_on channel=3 note=40 velocity=127 time=0\n",
      "note_on channel=3 note=40 velocity=0 time=60\n",
      "note_on channel=3 note=40 velocity=127 time=0\n",
      "note_on channel=3 note=40 velocity=0 time=60\n",
      "note_on channel=3 note=40 velocity=127 time=0\n",
      "note_on channel=3 note=40 velocity=0 time=60\n",
      "note_on channel=3 note=40 velocity=127 time=0\n",
      "note_on channel=3 note=40 velocity=0 time=60\n",
      "note_on channel=3 note=40 velocity=127 time=0\n",
      "note_on channel=3 note=40 velocity=0 time=60\n",
      "note_on channel=3 note=40 velocity=127 time=0\n",
      "note_on channel=3 note=40 velocity=0 time=60\n",
      "note_on channel=3 note=40 velocity=127 time=0\n",
      "note_on channel=3 note=40 velocity=0 time=60\n",
      "note_on channel=3 note=40 velocity=127 time=0\n",
      "note_on channel=3 note=40 velocity=0 time=60\n",
      "note_on channel=3 note=50 velocity=127 time=0\n",
      "note_on channel=3 note=43 velocity=127 time=0\n",
      "note_on channel=3 note=50 velocity=0 time=60\n",
      "note_on channel=3 note=43 velocity=0 time=0\n",
      "note_on channel=3 note=45 velocity=127 time=0\n",
      "note_on channel=3 note=52 velocity=127 time=0\n",
      "note_on channel=3 note=45 velocity=0 time=60\n",
      "note_on channel=3 note=52 velocity=0 time=0\n",
      "note_on channel=3 note=50 velocity=127 time=0\n",
      "note_on channel=3 note=43 velocity=127 time=0\n",
      "note_on channel=3 note=50 velocity=0 time=60\n",
      "note_on channel=3 note=43 velocity=0 time=0\n",
      "note_on channel=3 note=52 velocity=127 time=0\n",
      "note_on channel=3 note=45 velocity=127 time=0\n",
      "note_on channel=3 note=52 velocity=0 time=60\n",
      "note_on channel=3 note=45 velocity=0 time=0\n",
      "note_on channel=3 note=40 velocity=127 time=0\n",
      "note_on channel=3 note=40 velocity=0 time=60\n",
      "note_on channel=3 note=40 velocity=127 time=0\n",
      "note_on channel=3 note=40 velocity=0 time=60\n",
      "note_on channel=3 note=40 velocity=127 time=0\n",
      "note_on channel=3 note=40 velocity=0 time=60\n",
      "note_on channel=3 note=40 velocity=127 time=0\n",
      "note_on channel=3 note=40 velocity=0 time=60\n",
      "note_on channel=3 note=40 velocity=127 time=0\n",
      "note_on channel=3 note=40 velocity=0 time=60\n",
      "note_on channel=3 note=40 velocity=127 time=0\n",
      "note_on channel=3 note=40 velocity=0 time=60\n",
      "note_on channel=3 note=40 velocity=127 time=0\n",
      "note_on channel=3 note=40 velocity=0 time=60\n",
      "note_on channel=3 note=40 velocity=127 time=0\n",
      "note_on channel=3 note=40 velocity=0 time=60\n",
      "note_on channel=3 note=40 velocity=127 time=0\n",
      "note_on channel=3 note=40 velocity=0 time=60\n",
      "note_on channel=3 note=43 velocity=127 time=0\n",
      "note_on channel=3 note=50 velocity=127 time=0\n",
      "note_on channel=3 note=43 velocity=0 time=60\n",
      "note_on channel=3 note=50 velocity=0 time=0\n",
      "note_on channel=3 note=45 velocity=127 time=0\n",
      "note_on channel=3 note=52 velocity=127 time=0\n",
      "note_on channel=3 note=45 velocity=0 time=60\n",
      "note_on channel=3 note=52 velocity=0 time=0\n",
      "note_on channel=3 note=40 velocity=127 time=0\n",
      "note_on channel=3 note=40 velocity=0 time=60\n",
      "note_on channel=3 note=46 velocity=127 time=0\n",
      "note_on channel=3 note=53 velocity=127 time=0\n",
      "note_on channel=3 note=46 velocity=0 time=60\n",
      "note_on channel=3 note=53 velocity=0 time=0\n",
      "note_on channel=3 note=45 velocity=127 time=0\n",
      "note_on channel=3 note=52 velocity=127 time=0\n",
      "note_on channel=3 note=45 velocity=0 time=60\n",
      "note_on channel=3 note=52 velocity=0 time=0\n",
      "note_on channel=3 note=50 velocity=127 time=0\n",
      "note_on channel=3 note=43 velocity=127 time=0\n",
      "note_on channel=3 note=50 velocity=0 time=60\n",
      "note_on channel=3 note=43 velocity=0 time=0\n",
      "note_on channel=3 note=52 velocity=127 time=0\n",
      "note_on channel=3 note=45 velocity=127 time=0\n",
      "note_on channel=3 note=52 velocity=0 time=60\n",
      "note_on channel=3 note=45 velocity=0 time=0\n",
      "note_on channel=3 note=40 velocity=127 time=0\n",
      "note_on channel=3 note=40 velocity=0 time=60\n",
      "note_on channel=3 note=40 velocity=127 time=0\n",
      "note_on channel=3 note=40 velocity=0 time=60\n",
      "note_on channel=3 note=40 velocity=127 time=0\n",
      "note_on channel=3 note=40 velocity=0 time=60\n",
      "note_on channel=3 note=40 velocity=127 time=0\n",
      "note_on channel=3 note=40 velocity=0 time=60\n",
      "note_on channel=3 note=40 velocity=127 time=0\n",
      "note_on channel=3 note=40 velocity=0 time=60\n",
      "note_on channel=3 note=40 velocity=127 time=0\n",
      "note_on channel=3 note=40 velocity=0 time=60\n",
      "note_on channel=3 note=40 velocity=127 time=0\n",
      "note_on channel=3 note=40 velocity=0 time=60\n",
      "note_on channel=3 note=40 velocity=127 time=0\n",
      "note_on channel=3 note=40 velocity=0 time=60\n",
      "note_on channel=3 note=40 velocity=127 time=0\n",
      "note_on channel=3 note=40 velocity=0 time=60\n",
      "note_on channel=3 note=43 velocity=127 time=0\n",
      "note_on channel=3 note=50 velocity=127 time=0\n",
      "note_on channel=3 note=43 velocity=0 time=60\n",
      "note_on channel=3 note=50 velocity=0 time=0\n",
      "note_on channel=3 note=45 velocity=127 time=0\n",
      "note_on channel=3 note=52 velocity=127 time=0\n",
      "note_on channel=3 note=45 velocity=0 time=60\n",
      "note_on channel=3 note=52 velocity=0 time=0\n",
      "note_on channel=3 note=43 velocity=127 time=0\n",
      "note_on channel=3 note=50 velocity=127 time=0\n",
      "note_on channel=3 note=43 velocity=0 time=60\n",
      "note_on channel=3 note=50 velocity=0 time=0\n",
      "note_on channel=3 note=45 velocity=127 time=0\n",
      "note_on channel=3 note=52 velocity=127 time=0\n",
      "note_on channel=3 note=45 velocity=0 time=60\n",
      "note_on channel=3 note=52 velocity=0 time=0\n",
      "note_on channel=3 note=40 velocity=127 time=0\n",
      "note_on channel=3 note=40 velocity=0 time=60\n",
      "note_on channel=3 note=40 velocity=127 time=0\n",
      "note_on channel=3 note=40 velocity=0 time=60\n",
      "note_on channel=3 note=40 velocity=127 time=0\n",
      "note_on channel=3 note=40 velocity=0 time=60\n",
      "note_on channel=3 note=40 velocity=127 time=0\n",
      "note_on channel=3 note=40 velocity=0 time=60\n",
      "note_on channel=3 note=40 velocity=127 time=0\n",
      "note_on channel=3 note=40 velocity=0 time=60\n",
      "note_on channel=3 note=40 velocity=127 time=0\n",
      "note_on channel=3 note=40 velocity=0 time=60\n",
      "note_on channel=3 note=40 velocity=127 time=0\n",
      "note_on channel=3 note=40 velocity=0 time=60\n",
      "note_on channel=3 note=40 velocity=127 time=0\n",
      "note_on channel=3 note=40 velocity=0 time=60\n",
      "note_on channel=3 note=40 velocity=127 time=0\n",
      "note_on channel=3 note=40 velocity=0 time=60\n",
      "note_on channel=3 note=50 velocity=127 time=0\n",
      "note_on channel=3 note=43 velocity=127 time=0\n",
      "note_on channel=3 note=50 velocity=0 time=60\n",
      "note_on channel=3 note=43 velocity=0 time=0\n",
      "note_on channel=3 note=52 velocity=127 time=0\n",
      "note_on channel=3 note=45 velocity=127 time=0\n",
      "note_on channel=3 note=52 velocity=0 time=60\n",
      "note_on channel=3 note=45 velocity=0 time=0\n",
      "note_on channel=3 note=40 velocity=127 time=0\n",
      "note_on channel=3 note=40 velocity=0 time=60\n",
      "note_on channel=3 note=53 velocity=127 time=0\n",
      "note_on channel=3 note=46 velocity=127 time=0\n",
      "note_on channel=3 note=53 velocity=0 time=60\n",
      "note_on channel=3 note=46 velocity=0 time=0\n",
      "note_on channel=3 note=52 velocity=127 time=0\n",
      "note_on channel=3 note=45 velocity=127 time=0\n",
      "note_on channel=3 note=52 velocity=0 time=60\n",
      "note_on channel=3 note=45 velocity=0 time=0\n",
      "note_on channel=3 note=43 velocity=127 time=0\n",
      "note_on channel=3 note=50 velocity=127 time=0\n",
      "note_on channel=3 note=43 velocity=0 time=60\n",
      "note_on channel=3 note=50 velocity=0 time=0\n",
      "note_on channel=3 note=45 velocity=127 time=0\n",
      "note_on channel=3 note=52 velocity=127 time=0\n",
      "note_on channel=3 note=45 velocity=0 time=60\n",
      "note_on channel=3 note=52 velocity=0 time=0\n",
      "note_on channel=3 note=40 velocity=127 time=0\n",
      "note_on channel=3 note=40 velocity=0 time=60\n",
      "note_on channel=3 note=40 velocity=127 time=0\n",
      "note_on channel=3 note=40 velocity=0 time=60\n",
      "note_on channel=3 note=40 velocity=127 time=0\n",
      "note_on channel=3 note=40 velocity=0 time=60\n",
      "note_on channel=3 note=40 velocity=127 time=0\n",
      "note_on channel=3 note=40 velocity=0 time=60\n",
      "note_on channel=3 note=40 velocity=127 time=0\n",
      "note_on channel=3 note=40 velocity=0 time=60\n",
      "note_on channel=3 note=40 velocity=127 time=0\n",
      "note_on channel=3 note=40 velocity=0 time=60\n",
      "note_on channel=3 note=40 velocity=127 time=0\n",
      "note_on channel=3 note=40 velocity=0 time=60\n",
      "note_on channel=3 note=40 velocity=127 time=0\n",
      "note_on channel=3 note=40 velocity=0 time=60\n",
      "note_on channel=3 note=40 velocity=127 time=0\n",
      "note_on channel=3 note=40 velocity=0 time=60\n",
      "note_on channel=3 note=50 velocity=127 time=0\n",
      "note_on channel=3 note=43 velocity=127 time=0\n",
      "note_on channel=3 note=50 velocity=0 time=60\n",
      "note_on channel=3 note=43 velocity=0 time=0\n",
      "note_on channel=3 note=45 velocity=127 time=0\n",
      "note_on channel=3 note=52 velocity=127 time=0\n",
      "note_on channel=3 note=45 velocity=0 time=60\n",
      "note_on channel=3 note=52 velocity=0 time=0\n",
      "note_on channel=3 note=50 velocity=127 time=0\n",
      "note_on channel=3 note=43 velocity=127 time=0\n",
      "note_on channel=3 note=50 velocity=0 time=60\n",
      "note_on channel=3 note=43 velocity=0 time=0\n",
      "note_on channel=3 note=52 velocity=127 time=0\n",
      "note_on channel=3 note=45 velocity=127 time=0\n",
      "note_on channel=3 note=52 velocity=0 time=60\n",
      "note_on channel=3 note=45 velocity=0 time=0\n",
      "note_on channel=3 note=40 velocity=127 time=0\n",
      "note_on channel=3 note=40 velocity=0 time=60\n",
      "note_on channel=3 note=40 velocity=127 time=0\n",
      "note_on channel=3 note=40 velocity=0 time=60\n",
      "note_on channel=3 note=40 velocity=127 time=0\n",
      "note_on channel=3 note=40 velocity=0 time=60\n",
      "note_on channel=3 note=40 velocity=127 time=0\n",
      "note_on channel=3 note=40 velocity=0 time=60\n",
      "note_on channel=3 note=40 velocity=127 time=0\n",
      "note_on channel=3 note=40 velocity=0 time=60\n",
      "note_on channel=3 note=40 velocity=127 time=0\n",
      "note_on channel=3 note=40 velocity=0 time=60\n",
      "note_on channel=3 note=40 velocity=127 time=0\n",
      "note_on channel=3 note=40 velocity=0 time=60\n",
      "note_on channel=3 note=40 velocity=127 time=0\n",
      "note_on channel=3 note=40 velocity=0 time=60\n",
      "note_on channel=3 note=40 velocity=127 time=0\n",
      "note_on channel=3 note=40 velocity=0 time=60\n",
      "note_on channel=3 note=43 velocity=127 time=0\n",
      "note_on channel=3 note=50 velocity=127 time=0\n",
      "note_on channel=3 note=43 velocity=0 time=60\n",
      "note_on channel=3 note=50 velocity=0 time=0\n",
      "note_on channel=3 note=45 velocity=127 time=0\n",
      "note_on channel=3 note=52 velocity=127 time=0\n",
      "note_on channel=3 note=45 velocity=0 time=60\n",
      "note_on channel=3 note=52 velocity=0 time=0\n",
      "note_on channel=3 note=40 velocity=127 time=0\n",
      "note_on channel=3 note=40 velocity=0 time=60\n",
      "note_on channel=3 note=46 velocity=127 time=0\n",
      "note_on channel=3 note=53 velocity=127 time=0\n",
      "note_on channel=3 note=46 velocity=0 time=60\n",
      "note_on channel=3 note=53 velocity=0 time=0\n",
      "note_on channel=3 note=45 velocity=127 time=0\n",
      "note_on channel=3 note=52 velocity=127 time=0\n",
      "note_on channel=3 note=45 velocity=0 time=60\n",
      "note_on channel=3 note=52 velocity=0 time=0\n",
      "note_on channel=3 note=50 velocity=127 time=0\n",
      "note_on channel=3 note=43 velocity=127 time=0\n",
      "note_on channel=3 note=50 velocity=0 time=60\n",
      "note_on channel=3 note=43 velocity=0 time=0\n",
      "note_on channel=3 note=52 velocity=127 time=0\n",
      "note_on channel=3 note=45 velocity=127 time=0\n",
      "note_on channel=3 note=52 velocity=0 time=60\n",
      "note_on channel=3 note=45 velocity=0 time=0\n",
      "note_on channel=3 note=40 velocity=127 time=0\n",
      "note_on channel=3 note=40 velocity=0 time=60\n",
      "note_on channel=3 note=40 velocity=127 time=0\n",
      "note_on channel=3 note=40 velocity=0 time=60\n",
      "note_on channel=3 note=40 velocity=127 time=0\n",
      "note_on channel=3 note=40 velocity=0 time=60\n",
      "note_on channel=3 note=40 velocity=127 time=0\n",
      "note_on channel=3 note=40 velocity=0 time=60\n",
      "note_on channel=3 note=40 velocity=127 time=0\n",
      "note_on channel=3 note=40 velocity=0 time=60\n",
      "note_on channel=3 note=40 velocity=127 time=0\n",
      "note_on channel=3 note=40 velocity=0 time=60\n",
      "note_on channel=3 note=40 velocity=127 time=0\n",
      "note_on channel=3 note=40 velocity=0 time=60\n",
      "note_on channel=3 note=40 velocity=127 time=0\n",
      "note_on channel=3 note=40 velocity=0 time=60\n",
      "note_on channel=3 note=40 velocity=127 time=0\n",
      "note_on channel=3 note=40 velocity=0 time=60\n",
      "note_on channel=3 note=43 velocity=127 time=0\n",
      "note_on channel=3 note=50 velocity=127 time=0\n",
      "note_on channel=3 note=43 velocity=0 time=60\n",
      "note_on channel=3 note=50 velocity=0 time=0\n",
      "note_on channel=3 note=45 velocity=127 time=0\n",
      "note_on channel=3 note=52 velocity=127 time=0\n",
      "note_on channel=3 note=45 velocity=0 time=60\n",
      "note_on channel=3 note=52 velocity=0 time=0\n",
      "note_on channel=3 note=43 velocity=127 time=0\n",
      "note_on channel=3 note=50 velocity=127 time=0\n",
      "note_on channel=3 note=43 velocity=0 time=60\n",
      "note_on channel=3 note=50 velocity=0 time=0\n",
      "note_on channel=3 note=45 velocity=127 time=0\n",
      "note_on channel=3 note=52 velocity=127 time=0\n",
      "note_on channel=3 note=45 velocity=0 time=60\n",
      "note_on channel=3 note=52 velocity=0 time=0\n",
      "note_on channel=3 note=50 velocity=127 time=480\n",
      "note_on channel=3 note=43 velocity=127 time=0\n",
      "note_on channel=3 note=50 velocity=0 time=60\n",
      "note_on channel=3 note=43 velocity=0 time=0\n",
      "note_on channel=3 note=49 velocity=127 time=0\n",
      "note_on channel=3 note=42 velocity=127 time=0\n",
      "note_on channel=3 note=49 velocity=0 time=60\n",
      "note_on channel=3 note=42 velocity=0 time=0\n",
      "note_on channel=3 note=40 velocity=127 time=0\n",
      "note_on channel=3 note=40 velocity=0 time=60\n",
      "note_on channel=3 note=43 velocity=127 time=0\n",
      "note_on channel=3 note=50 velocity=127 time=0\n",
      "note_on channel=3 note=43 velocity=0 time=60\n",
      "note_on channel=3 note=50 velocity=0 time=0\n",
      "note_on channel=3 note=49 velocity=127 time=0\n",
      "note_on channel=3 note=42 velocity=127 time=0\n",
      "note_on channel=3 note=49 velocity=0 time=60\n",
      "note_on channel=3 note=42 velocity=0 time=0\n",
      "note_on channel=3 note=40 velocity=127 time=0\n",
      "note_on channel=3 note=40 velocity=0 time=60\n",
      "note_on channel=3 note=43 velocity=127 time=0\n",
      "note_on channel=3 note=50 velocity=127 time=0\n",
      "note_on channel=3 note=43 velocity=0 time=60\n",
      "note_on channel=3 note=50 velocity=0 time=0\n",
      "note_on channel=3 note=49 velocity=127 time=0\n",
      "note_on channel=3 note=42 velocity=127 time=0\n",
      "note_on channel=3 note=49 velocity=0 time=60\n",
      "note_on channel=3 note=42 velocity=0 time=0\n",
      "note_on channel=3 note=59 velocity=127 time=0\n",
      "note_on channel=3 note=40 velocity=127 time=0\n",
      "note_on channel=3 note=47 velocity=127 time=0\n",
      "note_on channel=3 note=52 velocity=127 time=0\n",
      "note_on channel=3 note=59 velocity=0 time=480\n",
      "note_on channel=3 note=40 velocity=0 time=0\n",
      "note_on channel=3 note=47 velocity=0 time=0\n",
      "note_on channel=3 note=52 velocity=0 time=0\n",
      "<meta message end_of_track time=0>\n"
     ]
    }
   ],
   "source": [
    "for msg in mid.tracks[5]:\n",
    "    print(msg)"
   ]
  },
  {
   "cell_type": "code",
   "execution_count": 61,
   "id": "ac16f292",
   "metadata": {},
   "outputs": [
    {
     "name": "stdout",
     "output_type": "stream",
     "text": [
      "Guitar 1\n",
      "Guitar 2\n",
      "Guitar 3\n",
      "Guitar Solo \n",
      "[<midi track 'Guitar 1' 7191 messages>, <midi track 'Guitar 2' 6661 messages>, <midi track 'Guitar 3' 599 messages>, <midi track 'Guitar Solo ' 2530 messages>] \n",
      "\n"
     ]
    },
    {
     "data": {
      "text/plain": [
       "<midi track 'Guitar 1' 7191 messages>"
      ]
     },
     "execution_count": 61,
     "metadata": {},
     "output_type": "execute_result"
    }
   ],
   "source": [
    "guitars = []\n",
    "lengths = []\n",
    "for i in range(len(mid.tracks)):\n",
    "    if 'guitar' in mid.tracks[i].name.lower():\n",
    "        print(mid.tracks[i].name)\n",
    "        guitars.append(mid.tracks[i])\n",
    "        lengths.append(len(mid.tracks[i]))\n",
    "        \n",
    "print(guitars,'\\n')\n",
    "guitars[lengths.index(max(lengths))]"
   ]
  },
  {
   "cell_type": "code",
   "execution_count": 72,
   "id": "66813bd3",
   "metadata": {},
   "outputs": [],
   "source": [
    "def get_guitar(midi_file):\n",
    "    \"\"\" This function extracts the main guitar part from a midi file. \n",
    "        The input is the full path to the midi file in string format. \n",
    "        The output is a midi track object.\"\"\"\n",
    "    \n",
    "    mid = MidiFile(midi_file)\n",
    "    guitars = []\n",
    "    lengths = []\n",
    "    for i in range(len(mid.tracks)):\n",
    "        if ('guitar' in mid.tracks[i].name.lower()) or ('gtr' in mid.tracks[i].name.lower()):\n",
    "            guitars.append(mid.tracks[i])\n",
    "            lengths.append(len(mid.tracks[i]))\n",
    "\n",
    "    return guitars[lengths.index(max(lengths))]"
   ]
  },
  {
   "cell_type": "code",
   "execution_count": 73,
   "id": "f150295b",
   "metadata": {},
   "outputs": [
    {
     "data": {
      "text/plain": [
       "<midi track 'Guitar 1' 7191 messages>"
      ]
     },
     "execution_count": 73,
     "metadata": {},
     "output_type": "execute_result"
    }
   ],
   "source": [
    "master_GTR = get_guitar('raw_data/Metallica - Master Of Puppets.mid')\n",
    "master_GTR"
   ]
  },
  {
   "cell_type": "code",
   "execution_count": 74,
   "id": "834a6b68",
   "metadata": {},
   "outputs": [],
   "source": [
    "def get_drums(midi_file):\n",
    "    \"\"\" This function extracts the drums part from a midi file. \n",
    "        The input is the full path to the midi file in string format. \n",
    "        The output is a midi track object.\"\"\"\n",
    "    \n",
    "    mid = MidiFile(midi_file)\n",
    "    for i in range(len(mid.tracks)):\n",
    "        if 'drums' in mid.tracks[i].name.lower():\n",
    "            return mid.tracks[i]"
   ]
  },
  {
   "cell_type": "code",
   "execution_count": 75,
   "id": "e2e35c31",
   "metadata": {},
   "outputs": [
    {
     "data": {
      "text/plain": [
       "<midi track 'Drums' 6824 messages>"
      ]
     },
     "execution_count": 75,
     "metadata": {},
     "output_type": "execute_result"
    }
   ],
   "source": [
    "master_drums = get_drums('raw_data/Metallica - Master Of Puppets.mid')\n",
    "master_drums"
   ]
  },
  {
   "cell_type": "code",
   "execution_count": 76,
   "id": "17018796",
   "metadata": {},
   "outputs": [
    {
     "data": {
      "text/plain": [
       "120"
      ]
     },
     "execution_count": 76,
     "metadata": {},
     "output_type": "execute_result"
    }
   ],
   "source": [
    "mid.ticks_per_beat"
   ]
  },
  {
   "cell_type": "code",
   "execution_count": null,
   "id": "8ef037dd",
   "metadata": {},
   "outputs": [],
   "source": [
    "mid.tracks.remove(mid.tracks[3])"
   ]
  },
  {
   "cell_type": "code",
   "execution_count": 50,
   "id": "ccf2f8fd",
   "metadata": {},
   "outputs": [],
   "source": [
    "dr_o = MidiFile()"
   ]
  },
  {
   "cell_type": "code",
   "execution_count": 51,
   "id": "41bd45d2",
   "metadata": {},
   "outputs": [],
   "source": [
    "dr_o.tracks.append(only_drums)"
   ]
  },
  {
   "cell_type": "code",
   "execution_count": 52,
   "id": "dd04e00a",
   "metadata": {},
   "outputs": [],
   "source": [
    "dr_o.save('only_drums.mid')"
   ]
  }
 ],
 "metadata": {
  "kernelspec": {
   "display_name": "Python 3 (ipykernel)",
   "language": "python",
   "name": "python3"
  },
  "language_info": {
   "codemirror_mode": {
    "name": "ipython",
    "version": 3
   },
   "file_extension": ".py",
   "mimetype": "text/x-python",
   "name": "python",
   "nbconvert_exporter": "python",
   "pygments_lexer": "ipython3",
   "version": "3.10.6"
  },
  "toc": {
   "base_numbering": 1,
   "nav_menu": {},
   "number_sections": true,
   "sideBar": true,
   "skip_h1_title": false,
   "title_cell": "Table of Contents",
   "title_sidebar": "Contents",
   "toc_cell": false,
   "toc_position": {},
   "toc_section_display": true,
   "toc_window_display": false
  }
 },
 "nbformat": 4,
 "nbformat_minor": 5
}
